G04 #@! TF.FileFunction,Other,Fab,Top*
%FSLAX46Y46*%
G04 Gerber Fmt 4.6, Leading zero omitted, Abs format (unit mm)*
G04 Created by KiCad (PCBNEW 4.0.6) date 12/17/18 09:49:15*
%MOMM*%
%LPD*%
G01*
G04 APERTURE LIST*
%ADD10C,0.100000*%
%ADD11C,0.150000*%
%ADD12C,0.075000*%
%ADD13C,0.105000*%
%ADD14C,0.135000*%
G04 APERTURE END LIST*
D10*
X130450000Y-69450000D02*
X130450000Y-67850000D01*
X133650000Y-69450000D02*
X130450000Y-69450000D01*
X133650000Y-67850000D02*
X133650000Y-69450000D01*
X130450000Y-67850000D02*
X133650000Y-67850000D01*
X119850000Y-75850000D02*
X119850000Y-74250000D01*
X123050000Y-75850000D02*
X119850000Y-75850000D01*
X123050000Y-74250000D02*
X123050000Y-75850000D01*
X119850000Y-74250000D02*
X123050000Y-74250000D01*
D11*
X126750000Y-52850000D02*
X125750000Y-51850000D01*
X129750000Y-52850000D02*
X126750000Y-52850000D01*
X129750000Y-49850000D02*
X129750000Y-52850000D01*
X125750000Y-49850000D02*
X129750000Y-49850000D01*
X125750000Y-51850000D02*
X125750000Y-49850000D01*
D10*
X127750000Y-48000000D02*
X127750000Y-45500000D01*
X130950000Y-48000000D02*
X127750000Y-48000000D01*
X130950000Y-45500000D02*
X130950000Y-48000000D01*
X127750000Y-45500000D02*
X130950000Y-45500000D01*
X132350000Y-48000000D02*
X132350000Y-45500000D01*
X135550000Y-48000000D02*
X132350000Y-48000000D01*
X135550000Y-45500000D02*
X135550000Y-48000000D01*
X132350000Y-45500000D02*
X135550000Y-45500000D01*
X125650000Y-53950000D02*
X127250000Y-53950000D01*
X127250000Y-53950000D02*
X127250000Y-54750000D01*
X127250000Y-54750000D02*
X125650000Y-54750000D01*
X125650000Y-54750000D02*
X125650000Y-53950000D01*
X131950000Y-50400000D02*
X131950000Y-52000000D01*
X131950000Y-52000000D02*
X131150000Y-52000000D01*
X131150000Y-52000000D02*
X131150000Y-50400000D01*
X131150000Y-50400000D02*
X131950000Y-50400000D01*
X125050000Y-78700000D02*
X125050000Y-80300000D01*
X125050000Y-80300000D02*
X124250000Y-80300000D01*
X124250000Y-80300000D02*
X124250000Y-78700000D01*
X124250000Y-78700000D02*
X125050000Y-78700000D01*
X114280000Y-60700000D02*
X115300000Y-60700000D01*
X115420000Y-60580000D02*
X115420000Y-66920000D01*
X109080000Y-66920000D02*
X115420000Y-66920000D01*
X109080000Y-60580000D02*
X109080000Y-66920000D01*
X109080000Y-60580000D02*
X115420000Y-60580000D01*
X110220000Y-60700000D02*
X110220000Y-61720000D01*
X109200000Y-61720000D02*
X110220000Y-61720000D01*
X110220000Y-65780000D02*
X110220000Y-66800000D01*
X109200000Y-65780000D02*
X110220000Y-65780000D01*
X114280000Y-60700000D02*
X114280000Y-61720000D01*
X114280000Y-61720000D02*
X115300000Y-61720000D01*
X115300000Y-65780000D02*
X114280000Y-65780000D01*
X114280000Y-65780000D02*
X114280000Y-66800000D01*
X114290000Y-63750000D02*
G75*
G03X114290000Y-63750000I-2040000J0D01*
G01*
X112885000Y-63750000D02*
G75*
G03X112885000Y-63750000I-635000J0D01*
G01*
X115300000Y-60700000D02*
X115300000Y-61720000D01*
X109200000Y-60700000D02*
X109200000Y-61720000D01*
X109200000Y-60700000D02*
X110220000Y-60700000D01*
X109200000Y-66800000D02*
X110220000Y-66800000D01*
X109200000Y-66800000D02*
X109200000Y-65780000D01*
X115300000Y-65780000D02*
X115300000Y-66800000D01*
X114280000Y-66800000D02*
X115300000Y-66800000D01*
X126550000Y-78600000D02*
X127350000Y-78600000D01*
X126550000Y-80200000D02*
X126550000Y-78600000D01*
X127350000Y-80200000D02*
X126550000Y-80200000D01*
X127350000Y-78600000D02*
X127350000Y-80200000D01*
X127900000Y-43985000D02*
X127900000Y-42080000D01*
X127900000Y-42080000D02*
X135520000Y-42080000D01*
X135520000Y-42080000D02*
X135520000Y-44620000D01*
X135520000Y-44620000D02*
X128535000Y-44620000D01*
X128535000Y-44620000D02*
X127900000Y-43985000D01*
X126450000Y-63600000D02*
X128050000Y-63600000D01*
X126450000Y-66800000D02*
X126450000Y-63600000D01*
X128050000Y-66800000D02*
X126450000Y-66800000D01*
X128050000Y-63600000D02*
X128050000Y-66800000D01*
X124400000Y-51900000D02*
X120100000Y-51900000D01*
X120100000Y-51900000D02*
X120100000Y-59200000D01*
X120100000Y-59200000D02*
X124400000Y-59200000D01*
X124400000Y-59200000D02*
X124400000Y-51900000D01*
X124400000Y-52630000D02*
X120100000Y-52630000D01*
X124400000Y-52995000D02*
X120100000Y-52995000D01*
X141200000Y-54300000D02*
X141200000Y-50000000D01*
X141200000Y-50000000D02*
X133900000Y-50000000D01*
X133900000Y-50000000D02*
X133900000Y-54300000D01*
X133900000Y-54300000D02*
X141200000Y-54300000D01*
X140470000Y-54300000D02*
X140470000Y-50000000D01*
X140105000Y-54300000D02*
X140105000Y-50000000D01*
X123930000Y-63750000D02*
X125170000Y-63750000D01*
X123930000Y-65750000D02*
X123930000Y-63750000D01*
X125170000Y-65750000D02*
X123930000Y-65750000D01*
X125170000Y-63750000D02*
X125170000Y-65750000D01*
X122800000Y-62650000D02*
X117300000Y-62650000D01*
X117300000Y-62650000D02*
X117300000Y-69850000D01*
X117300000Y-69850000D02*
X122800000Y-69850000D01*
X122800000Y-69850000D02*
X122800000Y-62650000D01*
D11*
X131600000Y-75600000D02*
X128700000Y-75600000D01*
X128700000Y-75600000D02*
X128700000Y-70700000D01*
X128700000Y-70700000D02*
X132600000Y-70700000D01*
X132600000Y-70700000D02*
X132600000Y-74600000D01*
X132600000Y-74600000D02*
X131600000Y-75600000D01*
X131883334Y-67257143D02*
X131835715Y-67304762D01*
X131692858Y-67352381D01*
X131597620Y-67352381D01*
X131454762Y-67304762D01*
X131359524Y-67209524D01*
X131311905Y-67114286D01*
X131264286Y-66923810D01*
X131264286Y-66780952D01*
X131311905Y-66590476D01*
X131359524Y-66495238D01*
X131454762Y-66400000D01*
X131597620Y-66352381D01*
X131692858Y-66352381D01*
X131835715Y-66400000D01*
X131883334Y-66447619D01*
X132359524Y-67352381D02*
X132550000Y-67352381D01*
X132645239Y-67304762D01*
X132692858Y-67257143D01*
X132788096Y-67114286D01*
X132835715Y-66923810D01*
X132835715Y-66542857D01*
X132788096Y-66447619D01*
X132740477Y-66400000D01*
X132645239Y-66352381D01*
X132454762Y-66352381D01*
X132359524Y-66400000D01*
X132311905Y-66447619D01*
X132264286Y-66542857D01*
X132264286Y-66780952D01*
X132311905Y-66876190D01*
X132359524Y-66923810D01*
X132454762Y-66971429D01*
X132645239Y-66971429D01*
X132740477Y-66923810D01*
X132788096Y-66876190D01*
X132835715Y-66780952D01*
X120807143Y-73657143D02*
X120759524Y-73704762D01*
X120616667Y-73752381D01*
X120521429Y-73752381D01*
X120378571Y-73704762D01*
X120283333Y-73609524D01*
X120235714Y-73514286D01*
X120188095Y-73323810D01*
X120188095Y-73180952D01*
X120235714Y-72990476D01*
X120283333Y-72895238D01*
X120378571Y-72800000D01*
X120521429Y-72752381D01*
X120616667Y-72752381D01*
X120759524Y-72800000D01*
X120807143Y-72847619D01*
X121759524Y-73752381D02*
X121188095Y-73752381D01*
X121473809Y-73752381D02*
X121473809Y-72752381D01*
X121378571Y-72895238D01*
X121283333Y-72990476D01*
X121188095Y-73038095D01*
X122140476Y-72847619D02*
X122188095Y-72800000D01*
X122283333Y-72752381D01*
X122521429Y-72752381D01*
X122616667Y-72800000D01*
X122664286Y-72847619D01*
X122711905Y-72942857D01*
X122711905Y-73038095D01*
X122664286Y-73180952D01*
X122092857Y-73752381D01*
X122711905Y-73752381D01*
X129183334Y-44857143D02*
X129135715Y-44904762D01*
X128992858Y-44952381D01*
X128897620Y-44952381D01*
X128754762Y-44904762D01*
X128659524Y-44809524D01*
X128611905Y-44714286D01*
X128564286Y-44523810D01*
X128564286Y-44380952D01*
X128611905Y-44190476D01*
X128659524Y-44095238D01*
X128754762Y-44000000D01*
X128897620Y-43952381D01*
X128992858Y-43952381D01*
X129135715Y-44000000D01*
X129183334Y-44047619D01*
X130135715Y-44952381D02*
X129564286Y-44952381D01*
X129850000Y-44952381D02*
X129850000Y-43952381D01*
X129754762Y-44095238D01*
X129659524Y-44190476D01*
X129564286Y-44238095D01*
X133783334Y-44857143D02*
X133735715Y-44904762D01*
X133592858Y-44952381D01*
X133497620Y-44952381D01*
X133354762Y-44904762D01*
X133259524Y-44809524D01*
X133211905Y-44714286D01*
X133164286Y-44523810D01*
X133164286Y-44380952D01*
X133211905Y-44190476D01*
X133259524Y-44095238D01*
X133354762Y-44000000D01*
X133497620Y-43952381D01*
X133592858Y-43952381D01*
X133735715Y-44000000D01*
X133783334Y-44047619D01*
X134164286Y-44047619D02*
X134211905Y-44000000D01*
X134307143Y-43952381D01*
X134545239Y-43952381D01*
X134640477Y-44000000D01*
X134688096Y-44047619D01*
X134735715Y-44142857D01*
X134735715Y-44238095D01*
X134688096Y-44380952D01*
X134116667Y-44952381D01*
X134735715Y-44952381D01*
D12*
X126400000Y-54457143D02*
X126385714Y-54471429D01*
X126342857Y-54485714D01*
X126314286Y-54485714D01*
X126271429Y-54471429D01*
X126242857Y-54442857D01*
X126228572Y-54414286D01*
X126214286Y-54357143D01*
X126214286Y-54314286D01*
X126228572Y-54257143D01*
X126242857Y-54228571D01*
X126271429Y-54200000D01*
X126314286Y-54185714D01*
X126342857Y-54185714D01*
X126385714Y-54200000D01*
X126400000Y-54214286D01*
X126500000Y-54185714D02*
X126685714Y-54185714D01*
X126585714Y-54300000D01*
X126628572Y-54300000D01*
X126657143Y-54314286D01*
X126671429Y-54328571D01*
X126685714Y-54357143D01*
X126685714Y-54428571D01*
X126671429Y-54457143D01*
X126657143Y-54471429D01*
X126628572Y-54485714D01*
X126542857Y-54485714D01*
X126514286Y-54471429D01*
X126500000Y-54457143D01*
X131657143Y-51250000D02*
X131671429Y-51264286D01*
X131685714Y-51307143D01*
X131685714Y-51335714D01*
X131671429Y-51378571D01*
X131642857Y-51407143D01*
X131614286Y-51421428D01*
X131557143Y-51435714D01*
X131514286Y-51435714D01*
X131457143Y-51421428D01*
X131428571Y-51407143D01*
X131400000Y-51378571D01*
X131385714Y-51335714D01*
X131385714Y-51307143D01*
X131400000Y-51264286D01*
X131414286Y-51250000D01*
X131485714Y-50992857D02*
X131685714Y-50992857D01*
X131371429Y-51064286D02*
X131585714Y-51135714D01*
X131585714Y-50950000D01*
X124757143Y-79550000D02*
X124771429Y-79564286D01*
X124785714Y-79607143D01*
X124785714Y-79635714D01*
X124771429Y-79678571D01*
X124742857Y-79707143D01*
X124714286Y-79721428D01*
X124657143Y-79735714D01*
X124614286Y-79735714D01*
X124557143Y-79721428D01*
X124528571Y-79707143D01*
X124500000Y-79678571D01*
X124485714Y-79635714D01*
X124485714Y-79607143D01*
X124500000Y-79564286D01*
X124514286Y-79550000D01*
X124614286Y-79378571D02*
X124600000Y-79407143D01*
X124585714Y-79421428D01*
X124557143Y-79435714D01*
X124542857Y-79435714D01*
X124514286Y-79421428D01*
X124500000Y-79407143D01*
X124485714Y-79378571D01*
X124485714Y-79321428D01*
X124500000Y-79292857D01*
X124514286Y-79278571D01*
X124542857Y-79264286D01*
X124557143Y-79264286D01*
X124585714Y-79278571D01*
X124600000Y-79292857D01*
X124614286Y-79321428D01*
X124614286Y-79378571D01*
X124628571Y-79407143D01*
X124642857Y-79421428D01*
X124671429Y-79435714D01*
X124728571Y-79435714D01*
X124757143Y-79421428D01*
X124771429Y-79407143D01*
X124785714Y-79378571D01*
X124785714Y-79321428D01*
X124771429Y-79292857D01*
X124757143Y-79278571D01*
X124728571Y-79264286D01*
X124671429Y-79264286D01*
X124642857Y-79278571D01*
X124628571Y-79292857D01*
X124614286Y-79321428D01*
D11*
X108916667Y-58202381D02*
X108916667Y-58916667D01*
X108869047Y-59059524D01*
X108773809Y-59154762D01*
X108630952Y-59202381D01*
X108535714Y-59202381D01*
X109345238Y-58297619D02*
X109392857Y-58250000D01*
X109488095Y-58202381D01*
X109726191Y-58202381D01*
X109821429Y-58250000D01*
X109869048Y-58297619D01*
X109916667Y-58392857D01*
X109916667Y-58488095D01*
X109869048Y-58630952D01*
X109297619Y-59202381D01*
X109916667Y-59202381D01*
D12*
X127130952Y-79466666D02*
X126940476Y-79600000D01*
X127130952Y-79695238D02*
X126730952Y-79695238D01*
X126730952Y-79542857D01*
X126750000Y-79504762D01*
X126769048Y-79485714D01*
X126807143Y-79466666D01*
X126864286Y-79466666D01*
X126902381Y-79485714D01*
X126921429Y-79504762D01*
X126940476Y-79542857D01*
X126940476Y-79695238D01*
X126730952Y-79333333D02*
X126730952Y-79085714D01*
X126883333Y-79219047D01*
X126883333Y-79161905D01*
X126902381Y-79123809D01*
X126921429Y-79104762D01*
X126959524Y-79085714D01*
X127054762Y-79085714D01*
X127092857Y-79104762D01*
X127111905Y-79123809D01*
X127130952Y-79161905D01*
X127130952Y-79276190D01*
X127111905Y-79314286D01*
X127092857Y-79333333D01*
D11*
X131376667Y-42802381D02*
X131376667Y-43516667D01*
X131329047Y-43659524D01*
X131233809Y-43754762D01*
X131090952Y-43802381D01*
X130995714Y-43802381D01*
X132376667Y-43802381D02*
X131805238Y-43802381D01*
X132090952Y-43802381D02*
X132090952Y-42802381D01*
X131995714Y-42945238D01*
X131900476Y-43040476D01*
X131805238Y-43088095D01*
D13*
X127566667Y-65316666D02*
X127233333Y-65550000D01*
X127566667Y-65716666D02*
X126866667Y-65716666D01*
X126866667Y-65450000D01*
X126900000Y-65383333D01*
X126933333Y-65350000D01*
X127000000Y-65316666D01*
X127100000Y-65316666D01*
X127166667Y-65350000D01*
X127200000Y-65383333D01*
X127233333Y-65450000D01*
X127233333Y-65716666D01*
X127100000Y-64716666D02*
X127566667Y-64716666D01*
X126833333Y-64883333D02*
X127333333Y-65050000D01*
X127333333Y-64616666D01*
D11*
X122607143Y-55716666D02*
X122654762Y-55764285D01*
X122702381Y-55907142D01*
X122702381Y-56002380D01*
X122654762Y-56145238D01*
X122559524Y-56240476D01*
X122464286Y-56288095D01*
X122273810Y-56335714D01*
X122130952Y-56335714D01*
X121940476Y-56288095D01*
X121845238Y-56240476D01*
X121750000Y-56145238D01*
X121702381Y-56002380D01*
X121702381Y-55907142D01*
X121750000Y-55764285D01*
X121797619Y-55716666D01*
X121702381Y-54811904D02*
X121702381Y-55288095D01*
X122178571Y-55335714D01*
X122130952Y-55288095D01*
X122083333Y-55192857D01*
X122083333Y-54954761D01*
X122130952Y-54859523D01*
X122178571Y-54811904D01*
X122273810Y-54764285D01*
X122511905Y-54764285D01*
X122607143Y-54811904D01*
X122654762Y-54859523D01*
X122702381Y-54954761D01*
X122702381Y-55192857D01*
X122654762Y-55288095D01*
X122607143Y-55335714D01*
X137383334Y-52507143D02*
X137335715Y-52554762D01*
X137192858Y-52602381D01*
X137097620Y-52602381D01*
X136954762Y-52554762D01*
X136859524Y-52459524D01*
X136811905Y-52364286D01*
X136764286Y-52173810D01*
X136764286Y-52030952D01*
X136811905Y-51840476D01*
X136859524Y-51745238D01*
X136954762Y-51650000D01*
X137097620Y-51602381D01*
X137192858Y-51602381D01*
X137335715Y-51650000D01*
X137383334Y-51697619D01*
X138240477Y-51602381D02*
X138050000Y-51602381D01*
X137954762Y-51650000D01*
X137907143Y-51697619D01*
X137811905Y-51840476D01*
X137764286Y-52030952D01*
X137764286Y-52411905D01*
X137811905Y-52507143D01*
X137859524Y-52554762D01*
X137954762Y-52602381D01*
X138145239Y-52602381D01*
X138240477Y-52554762D01*
X138288096Y-52507143D01*
X138335715Y-52411905D01*
X138335715Y-52173810D01*
X138288096Y-52078571D01*
X138240477Y-52030952D01*
X138145239Y-51983333D01*
X137954762Y-51983333D01*
X137859524Y-52030952D01*
X137811905Y-52078571D01*
X137764286Y-52173810D01*
X124907143Y-61992857D02*
X124954762Y-62040476D01*
X125002381Y-62183333D01*
X125002381Y-62278571D01*
X124954762Y-62421429D01*
X124859524Y-62516667D01*
X124764286Y-62564286D01*
X124573810Y-62611905D01*
X124430952Y-62611905D01*
X124240476Y-62564286D01*
X124145238Y-62516667D01*
X124050000Y-62421429D01*
X124002381Y-62278571D01*
X124002381Y-62183333D01*
X124050000Y-62040476D01*
X124097619Y-61992857D01*
X125002381Y-61040476D02*
X125002381Y-61611905D01*
X125002381Y-61326191D02*
X124002381Y-61326191D01*
X124145238Y-61421429D01*
X124240476Y-61516667D01*
X124288095Y-61611905D01*
X124002381Y-60421429D02*
X124002381Y-60326190D01*
X124050000Y-60230952D01*
X124097619Y-60183333D01*
X124192857Y-60135714D01*
X124383333Y-60088095D01*
X124621429Y-60088095D01*
X124811905Y-60135714D01*
X124907143Y-60183333D01*
X124954762Y-60230952D01*
X125002381Y-60326190D01*
X125002381Y-60421429D01*
X124954762Y-60516667D01*
X124907143Y-60564286D01*
X124811905Y-60611905D01*
X124621429Y-60659524D01*
X124383333Y-60659524D01*
X124192857Y-60611905D01*
X124097619Y-60564286D01*
X124050000Y-60516667D01*
X124002381Y-60421429D01*
X120407143Y-66892857D02*
X120454762Y-66940476D01*
X120502381Y-67083333D01*
X120502381Y-67178571D01*
X120454762Y-67321429D01*
X120359524Y-67416667D01*
X120264286Y-67464286D01*
X120073810Y-67511905D01*
X119930952Y-67511905D01*
X119740476Y-67464286D01*
X119645238Y-67416667D01*
X119550000Y-67321429D01*
X119502381Y-67178571D01*
X119502381Y-67083333D01*
X119550000Y-66940476D01*
X119597619Y-66892857D01*
X120502381Y-65940476D02*
X120502381Y-66511905D01*
X120502381Y-66226191D02*
X119502381Y-66226191D01*
X119645238Y-66321429D01*
X119740476Y-66416667D01*
X119788095Y-66511905D01*
X120502381Y-64988095D02*
X120502381Y-65559524D01*
X120502381Y-65273810D02*
X119502381Y-65273810D01*
X119645238Y-65369048D01*
X119740476Y-65464286D01*
X119788095Y-65559524D01*
D14*
X129964286Y-72657143D02*
X129964286Y-73385714D01*
X130007143Y-73471429D01*
X130050000Y-73514286D01*
X130135714Y-73557143D01*
X130307143Y-73557143D01*
X130392857Y-73514286D01*
X130435714Y-73471429D01*
X130478571Y-73385714D01*
X130478571Y-72657143D01*
X130864286Y-72742857D02*
X130907143Y-72700000D01*
X130992857Y-72657143D01*
X131207143Y-72657143D01*
X131292857Y-72700000D01*
X131335714Y-72742857D01*
X131378571Y-72828571D01*
X131378571Y-72914286D01*
X131335714Y-73042857D01*
X130821428Y-73557143D01*
X131378571Y-73557143D01*
D11*
X150116667Y-82102381D02*
X149783333Y-81626190D01*
X149545238Y-82102381D02*
X149545238Y-81102381D01*
X149926191Y-81102381D01*
X150021429Y-81150000D01*
X150069048Y-81197619D01*
X150116667Y-81292857D01*
X150116667Y-81435714D01*
X150069048Y-81530952D01*
X150021429Y-81578571D01*
X149926191Y-81626190D01*
X149545238Y-81626190D01*
X150545238Y-81578571D02*
X150878572Y-81578571D01*
X151021429Y-82102381D02*
X150545238Y-82102381D01*
X150545238Y-81102381D01*
X151021429Y-81102381D01*
X151783334Y-81578571D02*
X151450000Y-81578571D01*
X151450000Y-82102381D02*
X151450000Y-81102381D01*
X151926191Y-81102381D01*
X152450000Y-81102381D02*
X152450000Y-81340476D01*
X152211905Y-81245238D02*
X152450000Y-81340476D01*
X152688096Y-81245238D01*
X152307143Y-81530952D02*
X152450000Y-81340476D01*
X152592858Y-81530952D01*
X153211905Y-81102381D02*
X153211905Y-81340476D01*
X152973810Y-81245238D02*
X153211905Y-81340476D01*
X153450001Y-81245238D01*
X153069048Y-81530952D02*
X153211905Y-81340476D01*
X153354763Y-81530952D01*
X110216667Y-50002381D02*
X109883333Y-49526190D01*
X109645238Y-50002381D02*
X109645238Y-49002381D01*
X110026191Y-49002381D01*
X110121429Y-49050000D01*
X110169048Y-49097619D01*
X110216667Y-49192857D01*
X110216667Y-49335714D01*
X110169048Y-49430952D01*
X110121429Y-49478571D01*
X110026191Y-49526190D01*
X109645238Y-49526190D01*
X110645238Y-49478571D02*
X110978572Y-49478571D01*
X111121429Y-50002381D02*
X110645238Y-50002381D01*
X110645238Y-49002381D01*
X111121429Y-49002381D01*
X111883334Y-49478571D02*
X111550000Y-49478571D01*
X111550000Y-50002381D02*
X111550000Y-49002381D01*
X112026191Y-49002381D01*
X112550000Y-49002381D02*
X112550000Y-49240476D01*
X112311905Y-49145238D02*
X112550000Y-49240476D01*
X112788096Y-49145238D01*
X112407143Y-49430952D02*
X112550000Y-49240476D01*
X112692858Y-49430952D01*
X113311905Y-49002381D02*
X113311905Y-49240476D01*
X113073810Y-49145238D02*
X113311905Y-49240476D01*
X113550001Y-49145238D01*
X113169048Y-49430952D02*
X113311905Y-49240476D01*
X113454763Y-49430952D01*
M02*
