G04 #@! TF.FileFunction,Soldermask,Top*
%FSLAX46Y46*%
G04 Gerber Fmt 4.6, Leading zero omitted, Abs format (unit mm)*
G04 Created by KiCad (PCBNEW 4.0.6) date 12/17/18 09:49:15*
%MOMM*%
%LPD*%
G01*
G04 APERTURE LIST*
%ADD10C,0.100000*%
%ADD11R,1.400000X2.000000*%
%ADD12R,1.470000X2.050000*%
%ADD13R,0.650000X1.100000*%
%ADD14R,1.290000X1.225000*%
%ADD15C,2.100000*%
%ADD16R,2.100000X2.100000*%
%ADD17R,1.400000X2.900000*%
%ADD18R,1.200000X1.150000*%
%ADD19R,1.150000X1.200000*%
%ADD20C,2.600000*%
%ADD21C,2.400000*%
%ADD22R,1.300000X0.900000*%
%ADD23O,2.100000X2.100000*%
%ADD24R,2.100000X1.300000*%
%ADD25R,3.100000X2.950000*%
%ADD26R,2.950000X3.100000*%
%ADD27R,1.650000X1.400000*%
%ADD28C,2.000000*%
%ADD29R,1.950000X1.000000*%
%ADD30R,1.575000X1.575000*%
%ADD31C,4.700000*%
G04 APERTURE END LIST*
D10*
D11*
X130550000Y-68650000D03*
X133550000Y-68650000D03*
X119950000Y-75050000D03*
X122950000Y-75050000D03*
D12*
X128850000Y-51350000D03*
D13*
X126250000Y-49900000D03*
X126750000Y-49900000D03*
X127250000Y-49900000D03*
X127750000Y-49900000D03*
X128250000Y-49900000D03*
X128750000Y-49900000D03*
X129250000Y-49900000D03*
X129250000Y-52800000D03*
X128750000Y-52800000D03*
X128250000Y-52800000D03*
X127750000Y-52800000D03*
X127250000Y-52800000D03*
X126750000Y-52800000D03*
X126250000Y-52800000D03*
D14*
X126505000Y-51762500D03*
X126505000Y-50937500D03*
X127395000Y-50937500D03*
X127395000Y-51762500D03*
D15*
X132350000Y-79250000D03*
D16*
X129790000Y-79250000D03*
D17*
X127850000Y-46750000D03*
X130850000Y-46750000D03*
X132450000Y-46750000D03*
X135450000Y-46750000D03*
D18*
X127200000Y-54350000D03*
X125700000Y-54350000D03*
D19*
X131550000Y-51950000D03*
X131550000Y-50450000D03*
X124650000Y-80250000D03*
X124650000Y-78750000D03*
D20*
X109710000Y-66290000D03*
X109710000Y-61210000D03*
X114790000Y-61210000D03*
X114790000Y-66290000D03*
D21*
X112250000Y-63750000D03*
D22*
X126950000Y-78650000D03*
X126950000Y-80150000D03*
D16*
X129170000Y-43350000D03*
D23*
X131710000Y-43350000D03*
X134250000Y-43350000D03*
D24*
X127250000Y-63750000D03*
X127250000Y-66650000D03*
D25*
X122250000Y-52375000D03*
X122250000Y-58725000D03*
D26*
X140725000Y-52150000D03*
X134375000Y-52150000D03*
D27*
X124550000Y-63750000D03*
X124550000Y-65750000D03*
D28*
X120050000Y-63750000D03*
X120050000Y-68750000D03*
D29*
X133350000Y-75055000D03*
X133350000Y-73785000D03*
X133350000Y-72515000D03*
X133350000Y-71245000D03*
X127950000Y-71245000D03*
X127950000Y-72515000D03*
X127950000Y-73785000D03*
X127950000Y-75055000D03*
D30*
X130062500Y-72562500D03*
X130062500Y-73737500D03*
X131237500Y-72562500D03*
X131237500Y-73737500D03*
D31*
X151150000Y-81650000D03*
X111250000Y-49550000D03*
M02*
