G04 #@! TF.FileFunction,Legend,Top*
%FSLAX46Y46*%
G04 Gerber Fmt 4.6, Leading zero omitted, Abs format (unit mm)*
G04 Created by KiCad (PCBNEW 4.0.6) date 12/17/18 09:49:15*
%MOMM*%
%LPD*%
G01*
G04 APERTURE LIST*
%ADD10C,0.100000*%
%ADD11C,0.150000*%
%ADD12C,0.120000*%
%ADD13C,0.010000*%
G04 APERTURE END LIST*
D10*
D11*
X125778573Y-88614286D02*
X125778573Y-89364286D01*
X125778573Y-88650000D02*
X125850002Y-88614286D01*
X125992859Y-88614286D01*
X126064288Y-88650000D01*
X126100002Y-88685714D01*
X126135716Y-88757143D01*
X126135716Y-88971429D01*
X126100002Y-89042857D01*
X126064288Y-89078571D01*
X125992859Y-89114286D01*
X125850002Y-89114286D01*
X125778573Y-89078571D01*
X126457144Y-89114286D02*
X126457144Y-88364286D01*
X126778573Y-89114286D02*
X126778573Y-88721429D01*
X126742859Y-88650000D01*
X126671430Y-88614286D01*
X126564287Y-88614286D01*
X126492859Y-88650000D01*
X126457144Y-88685714D01*
X127242858Y-89114286D02*
X127171430Y-89078571D01*
X127135715Y-89042857D01*
X127100001Y-88971429D01*
X127100001Y-88757143D01*
X127135715Y-88685714D01*
X127171430Y-88650000D01*
X127242858Y-88614286D01*
X127350001Y-88614286D01*
X127421430Y-88650000D01*
X127457144Y-88685714D01*
X127492858Y-88757143D01*
X127492858Y-88971429D01*
X127457144Y-89042857D01*
X127421430Y-89078571D01*
X127350001Y-89114286D01*
X127242858Y-89114286D01*
X127707144Y-88614286D02*
X127992858Y-88614286D01*
X127814286Y-88364286D02*
X127814286Y-89007143D01*
X127850001Y-89078571D01*
X127921429Y-89114286D01*
X127992858Y-89114286D01*
X128350000Y-89114286D02*
X128278572Y-89078571D01*
X128242857Y-89042857D01*
X128207143Y-88971429D01*
X128207143Y-88757143D01*
X128242857Y-88685714D01*
X128278572Y-88650000D01*
X128350000Y-88614286D01*
X128457143Y-88614286D01*
X128528572Y-88650000D01*
X128564286Y-88685714D01*
X128600000Y-88757143D01*
X128600000Y-88971429D01*
X128564286Y-89042857D01*
X128528572Y-89078571D01*
X128457143Y-89114286D01*
X128350000Y-89114286D01*
X128742857Y-89185714D02*
X129314286Y-89185714D01*
X129814286Y-89114286D02*
X129814286Y-88364286D01*
X129814286Y-89078571D02*
X129742857Y-89114286D01*
X129600000Y-89114286D01*
X129528572Y-89078571D01*
X129492857Y-89042857D01*
X129457143Y-88971429D01*
X129457143Y-88757143D01*
X129492857Y-88685714D01*
X129528572Y-88650000D01*
X129600000Y-88614286D01*
X129742857Y-88614286D01*
X129814286Y-88650000D01*
X130171428Y-89114286D02*
X130171428Y-88614286D01*
X130171428Y-88364286D02*
X130135714Y-88400000D01*
X130171428Y-88435714D01*
X130207143Y-88400000D01*
X130171428Y-88364286D01*
X130171428Y-88435714D01*
X130635714Y-89114286D02*
X130564286Y-89078571D01*
X130528571Y-89042857D01*
X130492857Y-88971429D01*
X130492857Y-88757143D01*
X130528571Y-88685714D01*
X130564286Y-88650000D01*
X130635714Y-88614286D01*
X130742857Y-88614286D01*
X130814286Y-88650000D01*
X130850000Y-88685714D01*
X130885714Y-88757143D01*
X130885714Y-88971429D01*
X130850000Y-89042857D01*
X130814286Y-89078571D01*
X130742857Y-89114286D01*
X130635714Y-89114286D01*
X131528571Y-89114286D02*
X131528571Y-88364286D01*
X131528571Y-89078571D02*
X131457142Y-89114286D01*
X131314285Y-89114286D01*
X131242857Y-89078571D01*
X131207142Y-89042857D01*
X131171428Y-88971429D01*
X131171428Y-88757143D01*
X131207142Y-88685714D01*
X131242857Y-88650000D01*
X131314285Y-88614286D01*
X131457142Y-88614286D01*
X131528571Y-88650000D01*
X132171428Y-89078571D02*
X132099999Y-89114286D01*
X131957142Y-89114286D01*
X131885713Y-89078571D01*
X131849999Y-89007143D01*
X131849999Y-88721429D01*
X131885713Y-88650000D01*
X131957142Y-88614286D01*
X132099999Y-88614286D01*
X132171428Y-88650000D01*
X132207142Y-88721429D01*
X132207142Y-88792857D01*
X131849999Y-88864286D01*
X132349999Y-89185714D02*
X132921428Y-89185714D01*
X133099999Y-89114286D02*
X133099999Y-88364286D01*
X133099999Y-88650000D02*
X133171428Y-88614286D01*
X133314285Y-88614286D01*
X133385714Y-88650000D01*
X133421428Y-88685714D01*
X133457142Y-88757143D01*
X133457142Y-88971429D01*
X133421428Y-89042857D01*
X133385714Y-89078571D01*
X133314285Y-89114286D01*
X133171428Y-89114286D01*
X133099999Y-89078571D01*
X133885713Y-89114286D02*
X133814285Y-89078571D01*
X133778570Y-89042857D01*
X133742856Y-88971429D01*
X133742856Y-88757143D01*
X133778570Y-88685714D01*
X133814285Y-88650000D01*
X133885713Y-88614286D01*
X133992856Y-88614286D01*
X134064285Y-88650000D01*
X134099999Y-88685714D01*
X134135713Y-88757143D01*
X134135713Y-88971429D01*
X134099999Y-89042857D01*
X134064285Y-89078571D01*
X133992856Y-89114286D01*
X133885713Y-89114286D01*
X134778570Y-89114286D02*
X134778570Y-88721429D01*
X134742856Y-88650000D01*
X134671427Y-88614286D01*
X134528570Y-88614286D01*
X134457141Y-88650000D01*
X134778570Y-89078571D02*
X134707141Y-89114286D01*
X134528570Y-89114286D01*
X134457141Y-89078571D01*
X134421427Y-89007143D01*
X134421427Y-88935714D01*
X134457141Y-88864286D01*
X134528570Y-88828571D01*
X134707141Y-88828571D01*
X134778570Y-88792857D01*
X135135712Y-89114286D02*
X135135712Y-88614286D01*
X135135712Y-88757143D02*
X135171427Y-88685714D01*
X135207141Y-88650000D01*
X135278570Y-88614286D01*
X135349998Y-88614286D01*
X135921427Y-89114286D02*
X135921427Y-88364286D01*
X135921427Y-89078571D02*
X135849998Y-89114286D01*
X135707141Y-89114286D01*
X135635713Y-89078571D01*
X135599998Y-89042857D01*
X135564284Y-88971429D01*
X135564284Y-88757143D01*
X135599998Y-88685714D01*
X135635713Y-88650000D01*
X135707141Y-88614286D01*
X135849998Y-88614286D01*
X135921427Y-88650000D01*
X125796430Y-89639286D02*
X126225001Y-89639286D01*
X126010715Y-90389286D02*
X126010715Y-89639286D01*
X126475001Y-90389286D02*
X126475001Y-89889286D01*
X126475001Y-89639286D02*
X126439287Y-89675000D01*
X126475001Y-89710714D01*
X126510716Y-89675000D01*
X126475001Y-89639286D01*
X126475001Y-89710714D01*
X126939287Y-90389286D02*
X126867859Y-90353571D01*
X126832144Y-90282143D01*
X126832144Y-89639286D01*
X127225001Y-90389286D02*
X127225001Y-89889286D01*
X127225001Y-89960714D02*
X127260716Y-89925000D01*
X127332144Y-89889286D01*
X127439287Y-89889286D01*
X127510716Y-89925000D01*
X127546430Y-89996429D01*
X127546430Y-90389286D01*
X127546430Y-89996429D02*
X127582144Y-89925000D01*
X127653573Y-89889286D01*
X127760716Y-89889286D01*
X127832144Y-89925000D01*
X127867859Y-89996429D01*
X127867859Y-90389286D01*
X128546430Y-90389286D02*
X128546430Y-89996429D01*
X128510716Y-89925000D01*
X128439287Y-89889286D01*
X128296430Y-89889286D01*
X128225001Y-89925000D01*
X128546430Y-90353571D02*
X128475001Y-90389286D01*
X128296430Y-90389286D01*
X128225001Y-90353571D01*
X128189287Y-90282143D01*
X128189287Y-90210714D01*
X128225001Y-90139286D01*
X128296430Y-90103571D01*
X128475001Y-90103571D01*
X128546430Y-90067857D01*
X128903572Y-89889286D02*
X128903572Y-90389286D01*
X128903572Y-89960714D02*
X128939287Y-89925000D01*
X129010715Y-89889286D01*
X129117858Y-89889286D01*
X129189287Y-89925000D01*
X129225001Y-89996429D01*
X129225001Y-90389286D01*
X130153572Y-90389286D02*
X130153572Y-89639286D01*
X130439287Y-89639286D01*
X130510715Y-89675000D01*
X130546430Y-89710714D01*
X130582144Y-89782143D01*
X130582144Y-89889286D01*
X130546430Y-89960714D01*
X130510715Y-89996429D01*
X130439287Y-90032143D01*
X130153572Y-90032143D01*
X130903572Y-90389286D02*
X130903572Y-89889286D01*
X130903572Y-90032143D02*
X130939287Y-89960714D01*
X130975001Y-89925000D01*
X131046430Y-89889286D01*
X131117858Y-89889286D01*
X131653573Y-90353571D02*
X131582144Y-90389286D01*
X131439287Y-90389286D01*
X131367858Y-90353571D01*
X131332144Y-90282143D01*
X131332144Y-89996429D01*
X131367858Y-89925000D01*
X131439287Y-89889286D01*
X131582144Y-89889286D01*
X131653573Y-89925000D01*
X131689287Y-89996429D01*
X131689287Y-90067857D01*
X131332144Y-90139286D01*
X132332144Y-89889286D02*
X132332144Y-90389286D01*
X132010715Y-89889286D02*
X132010715Y-90282143D01*
X132046430Y-90353571D01*
X132117858Y-90389286D01*
X132225001Y-90389286D01*
X132296430Y-90353571D01*
X132332144Y-90317857D01*
X132653572Y-90353571D02*
X132725001Y-90389286D01*
X132867858Y-90389286D01*
X132939286Y-90353571D01*
X132975001Y-90282143D01*
X132975001Y-90246429D01*
X132939286Y-90175000D01*
X132867858Y-90139286D01*
X132760715Y-90139286D01*
X132689286Y-90103571D01*
X132653572Y-90032143D01*
X132653572Y-89996429D01*
X132689286Y-89925000D01*
X132760715Y-89889286D01*
X132867858Y-89889286D01*
X132939286Y-89925000D01*
X133617858Y-90353571D02*
X133546429Y-90389286D01*
X133403572Y-90389286D01*
X133332144Y-90353571D01*
X133296429Y-90317857D01*
X133260715Y-90246429D01*
X133260715Y-90032143D01*
X133296429Y-89960714D01*
X133332144Y-89925000D01*
X133403572Y-89889286D01*
X133546429Y-89889286D01*
X133617858Y-89925000D01*
X133939286Y-90389286D02*
X133939286Y-89639286D01*
X134260715Y-90389286D02*
X134260715Y-89996429D01*
X134225001Y-89925000D01*
X134153572Y-89889286D01*
X134046429Y-89889286D01*
X133975001Y-89925000D01*
X133939286Y-89960714D01*
X134725000Y-90389286D02*
X134653572Y-90353571D01*
X134617857Y-90317857D01*
X134582143Y-90246429D01*
X134582143Y-90032143D01*
X134617857Y-89960714D01*
X134653572Y-89925000D01*
X134725000Y-89889286D01*
X134832143Y-89889286D01*
X134903572Y-89925000D01*
X134939286Y-89960714D01*
X134975000Y-90032143D01*
X134975000Y-90246429D01*
X134939286Y-90317857D01*
X134903572Y-90353571D01*
X134832143Y-90389286D01*
X134725000Y-90389286D01*
X135189286Y-89889286D02*
X135475000Y-89889286D01*
X135296428Y-90389286D02*
X135296428Y-89746429D01*
X135332143Y-89675000D01*
X135403571Y-89639286D01*
X135475000Y-89639286D01*
X135617857Y-89889286D02*
X135903571Y-89889286D01*
X135724999Y-90389286D02*
X135724999Y-89746429D01*
X135760714Y-89675000D01*
X135832142Y-89639286D01*
X135903571Y-89639286D01*
X125760713Y-90985714D02*
X125796427Y-90950000D01*
X125867856Y-90914286D01*
X126046427Y-90914286D01*
X126117856Y-90950000D01*
X126153570Y-90985714D01*
X126189285Y-91057143D01*
X126189285Y-91128571D01*
X126153570Y-91235714D01*
X125724999Y-91664286D01*
X126189285Y-91664286D01*
X126653571Y-90914286D02*
X126724999Y-90914286D01*
X126796428Y-90950000D01*
X126832142Y-90985714D01*
X126867856Y-91057143D01*
X126903571Y-91200000D01*
X126903571Y-91378571D01*
X126867856Y-91521429D01*
X126832142Y-91592857D01*
X126796428Y-91628571D01*
X126724999Y-91664286D01*
X126653571Y-91664286D01*
X126582142Y-91628571D01*
X126546428Y-91592857D01*
X126510713Y-91521429D01*
X126474999Y-91378571D01*
X126474999Y-91200000D01*
X126510713Y-91057143D01*
X126546428Y-90985714D01*
X126582142Y-90950000D01*
X126653571Y-90914286D01*
X127617857Y-91664286D02*
X127189285Y-91664286D01*
X127403571Y-91664286D02*
X127403571Y-90914286D01*
X127332142Y-91021429D01*
X127260714Y-91092857D01*
X127189285Y-91128571D01*
X128046428Y-91235714D02*
X127975000Y-91200000D01*
X127939285Y-91164286D01*
X127903571Y-91092857D01*
X127903571Y-91057143D01*
X127939285Y-90985714D01*
X127975000Y-90950000D01*
X128046428Y-90914286D01*
X128189285Y-90914286D01*
X128260714Y-90950000D01*
X128296428Y-90985714D01*
X128332143Y-91057143D01*
X128332143Y-91092857D01*
X128296428Y-91164286D01*
X128260714Y-91200000D01*
X128189285Y-91235714D01*
X128046428Y-91235714D01*
X127975000Y-91271429D01*
X127939285Y-91307143D01*
X127903571Y-91378571D01*
X127903571Y-91521429D01*
X127939285Y-91592857D01*
X127975000Y-91628571D01*
X128046428Y-91664286D01*
X128189285Y-91664286D01*
X128260714Y-91628571D01*
X128296428Y-91592857D01*
X128332143Y-91521429D01*
X128332143Y-91378571D01*
X128296428Y-91307143D01*
X128260714Y-91271429D01*
X128189285Y-91235714D01*
X128653571Y-91378571D02*
X129225000Y-91378571D01*
X129975000Y-91664286D02*
X129546428Y-91664286D01*
X129760714Y-91664286D02*
X129760714Y-90914286D01*
X129689285Y-91021429D01*
X129617857Y-91092857D01*
X129546428Y-91128571D01*
X130689286Y-91664286D02*
X130260714Y-91664286D01*
X130475000Y-91664286D02*
X130475000Y-90914286D01*
X130403571Y-91021429D01*
X130332143Y-91092857D01*
X130260714Y-91128571D01*
X132010715Y-91664286D02*
X131760715Y-91307143D01*
X131582143Y-91664286D02*
X131582143Y-90914286D01*
X131867858Y-90914286D01*
X131939286Y-90950000D01*
X131975001Y-90985714D01*
X132010715Y-91057143D01*
X132010715Y-91164286D01*
X131975001Y-91235714D01*
X131939286Y-91271429D01*
X131867858Y-91307143D01*
X131582143Y-91307143D01*
X132617858Y-91628571D02*
X132546429Y-91664286D01*
X132403572Y-91664286D01*
X132332143Y-91628571D01*
X132296429Y-91557143D01*
X132296429Y-91271429D01*
X132332143Y-91200000D01*
X132403572Y-91164286D01*
X132546429Y-91164286D01*
X132617858Y-91200000D01*
X132653572Y-91271429D01*
X132653572Y-91342857D01*
X132296429Y-91414286D01*
X132903572Y-91164286D02*
X133082143Y-91664286D01*
X133260715Y-91164286D01*
X133546429Y-91592857D02*
X133582144Y-91628571D01*
X133546429Y-91664286D01*
X133510715Y-91628571D01*
X133546429Y-91592857D01*
X133546429Y-91664286D01*
X134867859Y-91664286D02*
X134439287Y-91664286D01*
X134653573Y-91664286D02*
X134653573Y-90914286D01*
X134582144Y-91021429D01*
X134510716Y-91092857D01*
X134439287Y-91128571D01*
X135189287Y-91592857D02*
X135225002Y-91628571D01*
X135189287Y-91664286D01*
X135153573Y-91628571D01*
X135189287Y-91592857D01*
X135189287Y-91664286D01*
X135475002Y-90914286D02*
X135939288Y-90914286D01*
X135689288Y-91200000D01*
X135796430Y-91200000D01*
X135867859Y-91235714D01*
X135903573Y-91271429D01*
X135939288Y-91342857D01*
X135939288Y-91521429D01*
X135903573Y-91592857D01*
X135867859Y-91628571D01*
X135796430Y-91664286D01*
X135582145Y-91664286D01*
X135510716Y-91628571D01*
X135475002Y-91592857D01*
D12*
X133050000Y-67630000D02*
X131050000Y-67630000D01*
X131050000Y-69670000D02*
X133050000Y-69670000D01*
X122450000Y-74030000D02*
X120450000Y-74030000D01*
X120450000Y-76070000D02*
X122450000Y-76070000D01*
D11*
X125625000Y-53225000D02*
X125625000Y-50250000D01*
X129875000Y-52450000D02*
X129875000Y-50250000D01*
D12*
X130350000Y-45270000D02*
X128350000Y-45270000D01*
X128350000Y-48230000D02*
X130350000Y-48230000D01*
X134950000Y-45270000D02*
X132950000Y-45270000D01*
X132950000Y-48230000D02*
X134950000Y-48230000D01*
X126800000Y-54950000D02*
X126100000Y-54950000D01*
X126100000Y-53750000D02*
X126800000Y-53750000D01*
X130950000Y-51550000D02*
X130950000Y-50850000D01*
X132150000Y-50850000D02*
X132150000Y-51550000D01*
X124050000Y-79850000D02*
X124050000Y-79150000D01*
X125250000Y-79150000D02*
X125250000Y-79850000D01*
X111250000Y-60450000D02*
X113250000Y-60450000D01*
X111250000Y-67050000D02*
X113250000Y-67050000D01*
X115550000Y-62750000D02*
X115550000Y-64750000D01*
X108950000Y-62750000D02*
X108950000Y-64750000D01*
X126270000Y-79900000D02*
X126270000Y-78900000D01*
X127630000Y-78900000D02*
X127630000Y-79900000D01*
X135580000Y-44680000D02*
X135580000Y-42020000D01*
X130440000Y-44680000D02*
X135580000Y-44680000D01*
X130440000Y-42020000D02*
X135580000Y-42020000D01*
X130440000Y-44680000D02*
X130440000Y-42020000D01*
X129170000Y-44680000D02*
X127840000Y-44680000D01*
X127840000Y-44680000D02*
X127840000Y-43350000D01*
X126180000Y-66200000D02*
X126180000Y-64200000D01*
X128320000Y-64200000D02*
X128320000Y-66200000D01*
X124650000Y-50800000D02*
X124650000Y-59200000D01*
X119850000Y-50800000D02*
X119850000Y-59200000D01*
X124650000Y-50800000D02*
X119850000Y-50800000D01*
X142300000Y-54550000D02*
X133900000Y-54550000D01*
X142300000Y-49750000D02*
X133900000Y-49750000D01*
X142300000Y-54550000D02*
X142300000Y-49750000D01*
X125400000Y-65250000D02*
X125400000Y-64250000D01*
X123700000Y-64250000D02*
X123700000Y-65250000D01*
X122860000Y-62590000D02*
X122860000Y-69910000D01*
X117240000Y-62590000D02*
X117240000Y-69910000D01*
X122860000Y-62590000D02*
X117240000Y-62590000D01*
X122860000Y-69910000D02*
X117240000Y-69910000D01*
D11*
X132725000Y-75725000D02*
X132725000Y-75675000D01*
X128575000Y-75725000D02*
X128575000Y-75580000D01*
X128575000Y-70575000D02*
X128575000Y-70720000D01*
X132725000Y-70575000D02*
X132725000Y-70720000D01*
X132725000Y-75725000D02*
X128575000Y-75725000D01*
X132725000Y-70575000D02*
X128575000Y-70575000D01*
X132725000Y-75675000D02*
X134125000Y-75675000D01*
D13*
G36*
X138241241Y-90319184D02*
X138267753Y-90332282D01*
X138300447Y-90355106D01*
X138324275Y-90379996D01*
X138340594Y-90411249D01*
X138350760Y-90453166D01*
X138356128Y-90510044D01*
X138358056Y-90586184D01*
X138358169Y-90618917D01*
X138357839Y-90690656D01*
X138356473Y-90741927D01*
X138353500Y-90777404D01*
X138348351Y-90801763D01*
X138340457Y-90819680D01*
X138332243Y-90831902D01*
X138279813Y-90883905D01*
X138218070Y-90915184D01*
X138151464Y-90924592D01*
X138084442Y-90910980D01*
X138063208Y-90901354D01*
X138012376Y-90874859D01*
X138012376Y-91290052D01*
X138049475Y-91270868D01*
X138098357Y-91256025D01*
X138158439Y-91252222D01*
X138218436Y-91259243D01*
X138263744Y-91275013D01*
X138301325Y-91305047D01*
X138333436Y-91348024D01*
X138335850Y-91352436D01*
X138346033Y-91373221D01*
X138353470Y-91394170D01*
X138358589Y-91419548D01*
X138361819Y-91453618D01*
X138363587Y-91500641D01*
X138364323Y-91564882D01*
X138364456Y-91637176D01*
X138364456Y-91867822D01*
X138226139Y-91867822D01*
X138226139Y-91442533D01*
X138187451Y-91409979D01*
X138147262Y-91383940D01*
X138109203Y-91379205D01*
X138070934Y-91391389D01*
X138050538Y-91403320D01*
X138035358Y-91420313D01*
X138024562Y-91445995D01*
X138017317Y-91483991D01*
X138012792Y-91537926D01*
X138010156Y-91611425D01*
X138009228Y-91660347D01*
X138006089Y-91861535D01*
X137940074Y-91865336D01*
X137874060Y-91869136D01*
X137874060Y-90620650D01*
X138012376Y-90620650D01*
X138015903Y-90690254D01*
X138027785Y-90738569D01*
X138049980Y-90768631D01*
X138084441Y-90783471D01*
X138119258Y-90786436D01*
X138158671Y-90783028D01*
X138184829Y-90769617D01*
X138201186Y-90751896D01*
X138214063Y-90732835D01*
X138221728Y-90711601D01*
X138225139Y-90681849D01*
X138225251Y-90637236D01*
X138224103Y-90599880D01*
X138221468Y-90543604D01*
X138217544Y-90506658D01*
X138210937Y-90483223D01*
X138200251Y-90467480D01*
X138190167Y-90458380D01*
X138148030Y-90438537D01*
X138098160Y-90435332D01*
X138069524Y-90442168D01*
X138041172Y-90466464D01*
X138022391Y-90513728D01*
X138013288Y-90583624D01*
X138012376Y-90620650D01*
X137874060Y-90620650D01*
X137874060Y-90308614D01*
X137943218Y-90308614D01*
X137984740Y-90310256D01*
X138006162Y-90316087D01*
X138012374Y-90327461D01*
X138012376Y-90327798D01*
X138015258Y-90338938D01*
X138027970Y-90337673D01*
X138053243Y-90325433D01*
X138112131Y-90306707D01*
X138178385Y-90304739D01*
X138241241Y-90319184D01*
X138241241Y-90319184D01*
G37*
X138241241Y-90319184D02*
X138267753Y-90332282D01*
X138300447Y-90355106D01*
X138324275Y-90379996D01*
X138340594Y-90411249D01*
X138350760Y-90453166D01*
X138356128Y-90510044D01*
X138358056Y-90586184D01*
X138358169Y-90618917D01*
X138357839Y-90690656D01*
X138356473Y-90741927D01*
X138353500Y-90777404D01*
X138348351Y-90801763D01*
X138340457Y-90819680D01*
X138332243Y-90831902D01*
X138279813Y-90883905D01*
X138218070Y-90915184D01*
X138151464Y-90924592D01*
X138084442Y-90910980D01*
X138063208Y-90901354D01*
X138012376Y-90874859D01*
X138012376Y-91290052D01*
X138049475Y-91270868D01*
X138098357Y-91256025D01*
X138158439Y-91252222D01*
X138218436Y-91259243D01*
X138263744Y-91275013D01*
X138301325Y-91305047D01*
X138333436Y-91348024D01*
X138335850Y-91352436D01*
X138346033Y-91373221D01*
X138353470Y-91394170D01*
X138358589Y-91419548D01*
X138361819Y-91453618D01*
X138363587Y-91500641D01*
X138364323Y-91564882D01*
X138364456Y-91637176D01*
X138364456Y-91867822D01*
X138226139Y-91867822D01*
X138226139Y-91442533D01*
X138187451Y-91409979D01*
X138147262Y-91383940D01*
X138109203Y-91379205D01*
X138070934Y-91391389D01*
X138050538Y-91403320D01*
X138035358Y-91420313D01*
X138024562Y-91445995D01*
X138017317Y-91483991D01*
X138012792Y-91537926D01*
X138010156Y-91611425D01*
X138009228Y-91660347D01*
X138006089Y-91861535D01*
X137940074Y-91865336D01*
X137874060Y-91869136D01*
X137874060Y-90620650D01*
X138012376Y-90620650D01*
X138015903Y-90690254D01*
X138027785Y-90738569D01*
X138049980Y-90768631D01*
X138084441Y-90783471D01*
X138119258Y-90786436D01*
X138158671Y-90783028D01*
X138184829Y-90769617D01*
X138201186Y-90751896D01*
X138214063Y-90732835D01*
X138221728Y-90711601D01*
X138225139Y-90681849D01*
X138225251Y-90637236D01*
X138224103Y-90599880D01*
X138221468Y-90543604D01*
X138217544Y-90506658D01*
X138210937Y-90483223D01*
X138200251Y-90467480D01*
X138190167Y-90458380D01*
X138148030Y-90438537D01*
X138098160Y-90435332D01*
X138069524Y-90442168D01*
X138041172Y-90466464D01*
X138022391Y-90513728D01*
X138013288Y-90583624D01*
X138012376Y-90620650D01*
X137874060Y-90620650D01*
X137874060Y-90308614D01*
X137943218Y-90308614D01*
X137984740Y-90310256D01*
X138006162Y-90316087D01*
X138012374Y-90327461D01*
X138012376Y-90327798D01*
X138015258Y-90338938D01*
X138027970Y-90337673D01*
X138053243Y-90325433D01*
X138112131Y-90306707D01*
X138178385Y-90304739D01*
X138241241Y-90319184D01*
G36*
X138765790Y-91256555D02*
X138824945Y-91272339D01*
X138869977Y-91300948D01*
X138901754Y-91338419D01*
X138911634Y-91354411D01*
X138918927Y-91371163D01*
X138924026Y-91392592D01*
X138927321Y-91422616D01*
X138929203Y-91465154D01*
X138930063Y-91524122D01*
X138930293Y-91603440D01*
X138930297Y-91624484D01*
X138930297Y-91867822D01*
X138869941Y-91867822D01*
X138831443Y-91865126D01*
X138802977Y-91858295D01*
X138795845Y-91854083D01*
X138776348Y-91846813D01*
X138756434Y-91854083D01*
X138723647Y-91863160D01*
X138676022Y-91866813D01*
X138623236Y-91865228D01*
X138574964Y-91858589D01*
X138546782Y-91850072D01*
X138492247Y-91815063D01*
X138458165Y-91766479D01*
X138442843Y-91701882D01*
X138442701Y-91700223D01*
X138444045Y-91671566D01*
X138565644Y-91671566D01*
X138576274Y-91704161D01*
X138593590Y-91722505D01*
X138628348Y-91736379D01*
X138674227Y-91741917D01*
X138721012Y-91739191D01*
X138758486Y-91728274D01*
X138768985Y-91721269D01*
X138787332Y-91688904D01*
X138791980Y-91652111D01*
X138791980Y-91603763D01*
X138722418Y-91603763D01*
X138656333Y-91608850D01*
X138606236Y-91623263D01*
X138575071Y-91645729D01*
X138565644Y-91671566D01*
X138444045Y-91671566D01*
X138446013Y-91629647D01*
X138469290Y-91573845D01*
X138513052Y-91531647D01*
X138519101Y-91527808D01*
X138545093Y-91515309D01*
X138577265Y-91507740D01*
X138622240Y-91504061D01*
X138675669Y-91503216D01*
X138791980Y-91503169D01*
X138791980Y-91454411D01*
X138787047Y-91416581D01*
X138774457Y-91391236D01*
X138772983Y-91389887D01*
X138744966Y-91378800D01*
X138702674Y-91374503D01*
X138655936Y-91376615D01*
X138614582Y-91384756D01*
X138590043Y-91396965D01*
X138576747Y-91406746D01*
X138562706Y-91408613D01*
X138543329Y-91400600D01*
X138514024Y-91380739D01*
X138470197Y-91347063D01*
X138466175Y-91343909D01*
X138468236Y-91332236D01*
X138485432Y-91312822D01*
X138511567Y-91291248D01*
X138540448Y-91273096D01*
X138549522Y-91268809D01*
X138582620Y-91260256D01*
X138631120Y-91254155D01*
X138685305Y-91251708D01*
X138687839Y-91251703D01*
X138765790Y-91256555D01*
X138765790Y-91256555D01*
G37*
X138765790Y-91256555D02*
X138824945Y-91272339D01*
X138869977Y-91300948D01*
X138901754Y-91338419D01*
X138911634Y-91354411D01*
X138918927Y-91371163D01*
X138924026Y-91392592D01*
X138927321Y-91422616D01*
X138929203Y-91465154D01*
X138930063Y-91524122D01*
X138930293Y-91603440D01*
X138930297Y-91624484D01*
X138930297Y-91867822D01*
X138869941Y-91867822D01*
X138831443Y-91865126D01*
X138802977Y-91858295D01*
X138795845Y-91854083D01*
X138776348Y-91846813D01*
X138756434Y-91854083D01*
X138723647Y-91863160D01*
X138676022Y-91866813D01*
X138623236Y-91865228D01*
X138574964Y-91858589D01*
X138546782Y-91850072D01*
X138492247Y-91815063D01*
X138458165Y-91766479D01*
X138442843Y-91701882D01*
X138442701Y-91700223D01*
X138444045Y-91671566D01*
X138565644Y-91671566D01*
X138576274Y-91704161D01*
X138593590Y-91722505D01*
X138628348Y-91736379D01*
X138674227Y-91741917D01*
X138721012Y-91739191D01*
X138758486Y-91728274D01*
X138768985Y-91721269D01*
X138787332Y-91688904D01*
X138791980Y-91652111D01*
X138791980Y-91603763D01*
X138722418Y-91603763D01*
X138656333Y-91608850D01*
X138606236Y-91623263D01*
X138575071Y-91645729D01*
X138565644Y-91671566D01*
X138444045Y-91671566D01*
X138446013Y-91629647D01*
X138469290Y-91573845D01*
X138513052Y-91531647D01*
X138519101Y-91527808D01*
X138545093Y-91515309D01*
X138577265Y-91507740D01*
X138622240Y-91504061D01*
X138675669Y-91503216D01*
X138791980Y-91503169D01*
X138791980Y-91454411D01*
X138787047Y-91416581D01*
X138774457Y-91391236D01*
X138772983Y-91389887D01*
X138744966Y-91378800D01*
X138702674Y-91374503D01*
X138655936Y-91376615D01*
X138614582Y-91384756D01*
X138590043Y-91396965D01*
X138576747Y-91406746D01*
X138562706Y-91408613D01*
X138543329Y-91400600D01*
X138514024Y-91380739D01*
X138470197Y-91347063D01*
X138466175Y-91343909D01*
X138468236Y-91332236D01*
X138485432Y-91312822D01*
X138511567Y-91291248D01*
X138540448Y-91273096D01*
X138549522Y-91268809D01*
X138582620Y-91260256D01*
X138631120Y-91254155D01*
X138685305Y-91251708D01*
X138687839Y-91251703D01*
X138765790Y-91256555D01*
G36*
X139156644Y-91253020D02*
X139175461Y-91258660D01*
X139181527Y-91271053D01*
X139181782Y-91276647D01*
X139182871Y-91292230D01*
X139190368Y-91294676D01*
X139210619Y-91283993D01*
X139222649Y-91276694D01*
X139260600Y-91261063D01*
X139305928Y-91253334D01*
X139353456Y-91252740D01*
X139398005Y-91258513D01*
X139434398Y-91269884D01*
X139457457Y-91286088D01*
X139462004Y-91306355D01*
X139459709Y-91311843D01*
X139442980Y-91334626D01*
X139417037Y-91362647D01*
X139412345Y-91367177D01*
X139387617Y-91388005D01*
X139366282Y-91394735D01*
X139336445Y-91390038D01*
X139324492Y-91386917D01*
X139287295Y-91379421D01*
X139261141Y-91382792D01*
X139239054Y-91394681D01*
X139218822Y-91410635D01*
X139203921Y-91430700D01*
X139193566Y-91458702D01*
X139186971Y-91498467D01*
X139183351Y-91553823D01*
X139181922Y-91628594D01*
X139181782Y-91673740D01*
X139181782Y-91867822D01*
X139056040Y-91867822D01*
X139056040Y-91251683D01*
X139118911Y-91251683D01*
X139156644Y-91253020D01*
X139156644Y-91253020D01*
G37*
X139156644Y-91253020D02*
X139175461Y-91258660D01*
X139181527Y-91271053D01*
X139181782Y-91276647D01*
X139182871Y-91292230D01*
X139190368Y-91294676D01*
X139210619Y-91283993D01*
X139222649Y-91276694D01*
X139260600Y-91261063D01*
X139305928Y-91253334D01*
X139353456Y-91252740D01*
X139398005Y-91258513D01*
X139434398Y-91269884D01*
X139457457Y-91286088D01*
X139462004Y-91306355D01*
X139459709Y-91311843D01*
X139442980Y-91334626D01*
X139417037Y-91362647D01*
X139412345Y-91367177D01*
X139387617Y-91388005D01*
X139366282Y-91394735D01*
X139336445Y-91390038D01*
X139324492Y-91386917D01*
X139287295Y-91379421D01*
X139261141Y-91382792D01*
X139239054Y-91394681D01*
X139218822Y-91410635D01*
X139203921Y-91430700D01*
X139193566Y-91458702D01*
X139186971Y-91498467D01*
X139183351Y-91553823D01*
X139181922Y-91628594D01*
X139181782Y-91673740D01*
X139181782Y-91867822D01*
X139056040Y-91867822D01*
X139056040Y-91251683D01*
X139118911Y-91251683D01*
X139156644Y-91253020D01*
G36*
X139948812Y-91867822D02*
X139879654Y-91867822D01*
X139839512Y-91866645D01*
X139818606Y-91861772D01*
X139811078Y-91851186D01*
X139810495Y-91844029D01*
X139809226Y-91829676D01*
X139801221Y-91826923D01*
X139780185Y-91835771D01*
X139763827Y-91844029D01*
X139701023Y-91863597D01*
X139632752Y-91864729D01*
X139577248Y-91850135D01*
X139525562Y-91814877D01*
X139486162Y-91762835D01*
X139464587Y-91701450D01*
X139464038Y-91698018D01*
X139460833Y-91660571D01*
X139459239Y-91606813D01*
X139459367Y-91566155D01*
X139596721Y-91566155D01*
X139599903Y-91620194D01*
X139607141Y-91664735D01*
X139616940Y-91689888D01*
X139654011Y-91724260D01*
X139698026Y-91736582D01*
X139743416Y-91726618D01*
X139782203Y-91696895D01*
X139796892Y-91676905D01*
X139805481Y-91653050D01*
X139809504Y-91618230D01*
X139810495Y-91565930D01*
X139808722Y-91514139D01*
X139804037Y-91468634D01*
X139797397Y-91438181D01*
X139796290Y-91435452D01*
X139769509Y-91403000D01*
X139730421Y-91385183D01*
X139686685Y-91382306D01*
X139645962Y-91394674D01*
X139615913Y-91422593D01*
X139612796Y-91428148D01*
X139603039Y-91462022D01*
X139597723Y-91510728D01*
X139596721Y-91566155D01*
X139459367Y-91566155D01*
X139459432Y-91545540D01*
X139460336Y-91512563D01*
X139466486Y-91430981D01*
X139479267Y-91369730D01*
X139500529Y-91324449D01*
X139532122Y-91290779D01*
X139562793Y-91271014D01*
X139605646Y-91257120D01*
X139658944Y-91252354D01*
X139713520Y-91256236D01*
X139760208Y-91268282D01*
X139784876Y-91282693D01*
X139810495Y-91305878D01*
X139810495Y-91012773D01*
X139948812Y-91012773D01*
X139948812Y-91867822D01*
X139948812Y-91867822D01*
G37*
X139948812Y-91867822D02*
X139879654Y-91867822D01*
X139839512Y-91866645D01*
X139818606Y-91861772D01*
X139811078Y-91851186D01*
X139810495Y-91844029D01*
X139809226Y-91829676D01*
X139801221Y-91826923D01*
X139780185Y-91835771D01*
X139763827Y-91844029D01*
X139701023Y-91863597D01*
X139632752Y-91864729D01*
X139577248Y-91850135D01*
X139525562Y-91814877D01*
X139486162Y-91762835D01*
X139464587Y-91701450D01*
X139464038Y-91698018D01*
X139460833Y-91660571D01*
X139459239Y-91606813D01*
X139459367Y-91566155D01*
X139596721Y-91566155D01*
X139599903Y-91620194D01*
X139607141Y-91664735D01*
X139616940Y-91689888D01*
X139654011Y-91724260D01*
X139698026Y-91736582D01*
X139743416Y-91726618D01*
X139782203Y-91696895D01*
X139796892Y-91676905D01*
X139805481Y-91653050D01*
X139809504Y-91618230D01*
X139810495Y-91565930D01*
X139808722Y-91514139D01*
X139804037Y-91468634D01*
X139797397Y-91438181D01*
X139796290Y-91435452D01*
X139769509Y-91403000D01*
X139730421Y-91385183D01*
X139686685Y-91382306D01*
X139645962Y-91394674D01*
X139615913Y-91422593D01*
X139612796Y-91428148D01*
X139603039Y-91462022D01*
X139597723Y-91510728D01*
X139596721Y-91566155D01*
X139459367Y-91566155D01*
X139459432Y-91545540D01*
X139460336Y-91512563D01*
X139466486Y-91430981D01*
X139479267Y-91369730D01*
X139500529Y-91324449D01*
X139532122Y-91290779D01*
X139562793Y-91271014D01*
X139605646Y-91257120D01*
X139658944Y-91252354D01*
X139713520Y-91256236D01*
X139760208Y-91268282D01*
X139784876Y-91282693D01*
X139810495Y-91305878D01*
X139810495Y-91012773D01*
X139948812Y-91012773D01*
X139948812Y-91867822D01*
G36*
X140431524Y-91254237D02*
X140481255Y-91257971D01*
X140611291Y-91647773D01*
X140631678Y-91578614D01*
X140643946Y-91535874D01*
X140660085Y-91478115D01*
X140677512Y-91414625D01*
X140686726Y-91380570D01*
X140721388Y-91251683D01*
X140864391Y-91251683D01*
X140821646Y-91386857D01*
X140800596Y-91453342D01*
X140775167Y-91533539D01*
X140748610Y-91617193D01*
X140724902Y-91691782D01*
X140670902Y-91861535D01*
X140612598Y-91865328D01*
X140554295Y-91869122D01*
X140522679Y-91764734D01*
X140503182Y-91699889D01*
X140481904Y-91628400D01*
X140463308Y-91565263D01*
X140462574Y-91562750D01*
X140448684Y-91519969D01*
X140436429Y-91490779D01*
X140427846Y-91479741D01*
X140426082Y-91481018D01*
X140419891Y-91498130D01*
X140408128Y-91534787D01*
X140392225Y-91586378D01*
X140373614Y-91648294D01*
X140363543Y-91682352D01*
X140309007Y-91867822D01*
X140193264Y-91867822D01*
X140100737Y-91575471D01*
X140074744Y-91493462D01*
X140051066Y-91418987D01*
X140030820Y-91355544D01*
X140015126Y-91306632D01*
X140005102Y-91275749D01*
X140002055Y-91266726D01*
X140004467Y-91257487D01*
X140023408Y-91253441D01*
X140062823Y-91253846D01*
X140068993Y-91254152D01*
X140142086Y-91257971D01*
X140189957Y-91434010D01*
X140207553Y-91498211D01*
X140223277Y-91554649D01*
X140235746Y-91598422D01*
X140243574Y-91624630D01*
X140245020Y-91628903D01*
X140251014Y-91623990D01*
X140263101Y-91598532D01*
X140279893Y-91555997D01*
X140300003Y-91499850D01*
X140317003Y-91449130D01*
X140381794Y-91250504D01*
X140431524Y-91254237D01*
X140431524Y-91254237D01*
G37*
X140431524Y-91254237D02*
X140481255Y-91257971D01*
X140611291Y-91647773D01*
X140631678Y-91578614D01*
X140643946Y-91535874D01*
X140660085Y-91478115D01*
X140677512Y-91414625D01*
X140686726Y-91380570D01*
X140721388Y-91251683D01*
X140864391Y-91251683D01*
X140821646Y-91386857D01*
X140800596Y-91453342D01*
X140775167Y-91533539D01*
X140748610Y-91617193D01*
X140724902Y-91691782D01*
X140670902Y-91861535D01*
X140612598Y-91865328D01*
X140554295Y-91869122D01*
X140522679Y-91764734D01*
X140503182Y-91699889D01*
X140481904Y-91628400D01*
X140463308Y-91565263D01*
X140462574Y-91562750D01*
X140448684Y-91519969D01*
X140436429Y-91490779D01*
X140427846Y-91479741D01*
X140426082Y-91481018D01*
X140419891Y-91498130D01*
X140408128Y-91534787D01*
X140392225Y-91586378D01*
X140373614Y-91648294D01*
X140363543Y-91682352D01*
X140309007Y-91867822D01*
X140193264Y-91867822D01*
X140100737Y-91575471D01*
X140074744Y-91493462D01*
X140051066Y-91418987D01*
X140030820Y-91355544D01*
X140015126Y-91306632D01*
X140005102Y-91275749D01*
X140002055Y-91266726D01*
X140004467Y-91257487D01*
X140023408Y-91253441D01*
X140062823Y-91253846D01*
X140068993Y-91254152D01*
X140142086Y-91257971D01*
X140189957Y-91434010D01*
X140207553Y-91498211D01*
X140223277Y-91554649D01*
X140235746Y-91598422D01*
X140243574Y-91624630D01*
X140245020Y-91628903D01*
X140251014Y-91623990D01*
X140263101Y-91598532D01*
X140279893Y-91555997D01*
X140300003Y-91499850D01*
X140317003Y-91449130D01*
X140381794Y-91250504D01*
X140431524Y-91254237D01*
G36*
X141188411Y-91255417D02*
X141241411Y-91268290D01*
X141256731Y-91275110D01*
X141286428Y-91292974D01*
X141309220Y-91313093D01*
X141326083Y-91338962D01*
X141337998Y-91374073D01*
X141345942Y-91421920D01*
X141350894Y-91485996D01*
X141353831Y-91569794D01*
X141354947Y-91625768D01*
X141359052Y-91867822D01*
X141288932Y-91867822D01*
X141246393Y-91866038D01*
X141224476Y-91859942D01*
X141218812Y-91849706D01*
X141215821Y-91838637D01*
X141202451Y-91840754D01*
X141184233Y-91849629D01*
X141138624Y-91863233D01*
X141080007Y-91866899D01*
X141018354Y-91860903D01*
X140963638Y-91845521D01*
X140958730Y-91843386D01*
X140908723Y-91808255D01*
X140875756Y-91759419D01*
X140860587Y-91702333D01*
X140861746Y-91681824D01*
X140985508Y-91681824D01*
X140996413Y-91709425D01*
X141028745Y-91729204D01*
X141080910Y-91739819D01*
X141108787Y-91741228D01*
X141155247Y-91737620D01*
X141186129Y-91723597D01*
X141193664Y-91716931D01*
X141214076Y-91680666D01*
X141218812Y-91647773D01*
X141218812Y-91603763D01*
X141157513Y-91603763D01*
X141086256Y-91607395D01*
X141036276Y-91618818D01*
X141004696Y-91638824D01*
X140997626Y-91647743D01*
X140985508Y-91681824D01*
X140861746Y-91681824D01*
X140863971Y-91642456D01*
X140886663Y-91585244D01*
X140917624Y-91546580D01*
X140936376Y-91529864D01*
X140954733Y-91518878D01*
X140978619Y-91512180D01*
X141013957Y-91508326D01*
X141066669Y-91505873D01*
X141087577Y-91505168D01*
X141218812Y-91500879D01*
X141218620Y-91461158D01*
X141213537Y-91419405D01*
X141195162Y-91394158D01*
X141158039Y-91378030D01*
X141157043Y-91377742D01*
X141104410Y-91371400D01*
X141052906Y-91379684D01*
X141014630Y-91399827D01*
X140999272Y-91409773D01*
X140982730Y-91408397D01*
X140957275Y-91393987D01*
X140942328Y-91383817D01*
X140913091Y-91362088D01*
X140894980Y-91345800D01*
X140892074Y-91341137D01*
X140904040Y-91317005D01*
X140939396Y-91288185D01*
X140954753Y-91278461D01*
X140998901Y-91261714D01*
X141058398Y-91252227D01*
X141124487Y-91250095D01*
X141188411Y-91255417D01*
X141188411Y-91255417D01*
G37*
X141188411Y-91255417D02*
X141241411Y-91268290D01*
X141256731Y-91275110D01*
X141286428Y-91292974D01*
X141309220Y-91313093D01*
X141326083Y-91338962D01*
X141337998Y-91374073D01*
X141345942Y-91421920D01*
X141350894Y-91485996D01*
X141353831Y-91569794D01*
X141354947Y-91625768D01*
X141359052Y-91867822D01*
X141288932Y-91867822D01*
X141246393Y-91866038D01*
X141224476Y-91859942D01*
X141218812Y-91849706D01*
X141215821Y-91838637D01*
X141202451Y-91840754D01*
X141184233Y-91849629D01*
X141138624Y-91863233D01*
X141080007Y-91866899D01*
X141018354Y-91860903D01*
X140963638Y-91845521D01*
X140958730Y-91843386D01*
X140908723Y-91808255D01*
X140875756Y-91759419D01*
X140860587Y-91702333D01*
X140861746Y-91681824D01*
X140985508Y-91681824D01*
X140996413Y-91709425D01*
X141028745Y-91729204D01*
X141080910Y-91739819D01*
X141108787Y-91741228D01*
X141155247Y-91737620D01*
X141186129Y-91723597D01*
X141193664Y-91716931D01*
X141214076Y-91680666D01*
X141218812Y-91647773D01*
X141218812Y-91603763D01*
X141157513Y-91603763D01*
X141086256Y-91607395D01*
X141036276Y-91618818D01*
X141004696Y-91638824D01*
X140997626Y-91647743D01*
X140985508Y-91681824D01*
X140861746Y-91681824D01*
X140863971Y-91642456D01*
X140886663Y-91585244D01*
X140917624Y-91546580D01*
X140936376Y-91529864D01*
X140954733Y-91518878D01*
X140978619Y-91512180D01*
X141013957Y-91508326D01*
X141066669Y-91505873D01*
X141087577Y-91505168D01*
X141218812Y-91500879D01*
X141218620Y-91461158D01*
X141213537Y-91419405D01*
X141195162Y-91394158D01*
X141158039Y-91378030D01*
X141157043Y-91377742D01*
X141104410Y-91371400D01*
X141052906Y-91379684D01*
X141014630Y-91399827D01*
X140999272Y-91409773D01*
X140982730Y-91408397D01*
X140957275Y-91393987D01*
X140942328Y-91383817D01*
X140913091Y-91362088D01*
X140894980Y-91345800D01*
X140892074Y-91341137D01*
X140904040Y-91317005D01*
X140939396Y-91288185D01*
X140954753Y-91278461D01*
X140998901Y-91261714D01*
X141058398Y-91252227D01*
X141124487Y-91250095D01*
X141188411Y-91255417D01*
G36*
X141785255Y-91251486D02*
X141833595Y-91261015D01*
X141861114Y-91275125D01*
X141890064Y-91298568D01*
X141848876Y-91350571D01*
X141823482Y-91382064D01*
X141806238Y-91397428D01*
X141789102Y-91399776D01*
X141764027Y-91392217D01*
X141752257Y-91387941D01*
X141704270Y-91381631D01*
X141660324Y-91395156D01*
X141628060Y-91425710D01*
X141622819Y-91435452D01*
X141617112Y-91461258D01*
X141612706Y-91508817D01*
X141609811Y-91574758D01*
X141608631Y-91655710D01*
X141608614Y-91667226D01*
X141608614Y-91867822D01*
X141470297Y-91867822D01*
X141470297Y-91251683D01*
X141539456Y-91251683D01*
X141579333Y-91252725D01*
X141600107Y-91257358D01*
X141607789Y-91267849D01*
X141608614Y-91277745D01*
X141608614Y-91303806D01*
X141641745Y-91277745D01*
X141679735Y-91259965D01*
X141730770Y-91251174D01*
X141785255Y-91251486D01*
X141785255Y-91251486D01*
G37*
X141785255Y-91251486D02*
X141833595Y-91261015D01*
X141861114Y-91275125D01*
X141890064Y-91298568D01*
X141848876Y-91350571D01*
X141823482Y-91382064D01*
X141806238Y-91397428D01*
X141789102Y-91399776D01*
X141764027Y-91392217D01*
X141752257Y-91387941D01*
X141704270Y-91381631D01*
X141660324Y-91395156D01*
X141628060Y-91425710D01*
X141622819Y-91435452D01*
X141617112Y-91461258D01*
X141612706Y-91508817D01*
X141609811Y-91574758D01*
X141608631Y-91655710D01*
X141608614Y-91667226D01*
X141608614Y-91867822D01*
X141470297Y-91867822D01*
X141470297Y-91251683D01*
X141539456Y-91251683D01*
X141579333Y-91252725D01*
X141600107Y-91257358D01*
X141607789Y-91267849D01*
X141608614Y-91277745D01*
X141608614Y-91303806D01*
X141641745Y-91277745D01*
X141679735Y-91259965D01*
X141730770Y-91251174D01*
X141785255Y-91251486D01*
G36*
X142182581Y-91254970D02*
X142242685Y-91270597D01*
X142293021Y-91302848D01*
X142317393Y-91326940D01*
X142357345Y-91383895D01*
X142380242Y-91449965D01*
X142388108Y-91531182D01*
X142388148Y-91537748D01*
X142388218Y-91603763D01*
X142008264Y-91603763D01*
X142016363Y-91638342D01*
X142030987Y-91669659D01*
X142056581Y-91702291D01*
X142061935Y-91707500D01*
X142107943Y-91735694D01*
X142160410Y-91740475D01*
X142220803Y-91721926D01*
X142231040Y-91716931D01*
X142262439Y-91701745D01*
X142283470Y-91693094D01*
X142287139Y-91692293D01*
X142299948Y-91700063D01*
X142324378Y-91719072D01*
X142336779Y-91729460D01*
X142362476Y-91753321D01*
X142370915Y-91769077D01*
X142365058Y-91783571D01*
X142361928Y-91787534D01*
X142340725Y-91804879D01*
X142305738Y-91825959D01*
X142281337Y-91838265D01*
X142212072Y-91859946D01*
X142135388Y-91866971D01*
X142062765Y-91858647D01*
X142042426Y-91852686D01*
X141979476Y-91818952D01*
X141932815Y-91767045D01*
X141902173Y-91696459D01*
X141887282Y-91606692D01*
X141885647Y-91559753D01*
X141890421Y-91491413D01*
X142010990Y-91491413D01*
X142022652Y-91496465D01*
X142053998Y-91500429D01*
X142099571Y-91502768D01*
X142130446Y-91503169D01*
X142185981Y-91502783D01*
X142221033Y-91500975D01*
X142240262Y-91496773D01*
X142248330Y-91489203D01*
X142249901Y-91478218D01*
X142239121Y-91444381D01*
X142211980Y-91410940D01*
X142176277Y-91385272D01*
X142140560Y-91374772D01*
X142092048Y-91384086D01*
X142050053Y-91411013D01*
X142020936Y-91449827D01*
X142010990Y-91491413D01*
X141890421Y-91491413D01*
X141892599Y-91460236D01*
X141914055Y-91380949D01*
X141950470Y-91321263D01*
X142002297Y-91280549D01*
X142069990Y-91258179D01*
X142106662Y-91253871D01*
X142182581Y-91254970D01*
X142182581Y-91254970D01*
G37*
X142182581Y-91254970D02*
X142242685Y-91270597D01*
X142293021Y-91302848D01*
X142317393Y-91326940D01*
X142357345Y-91383895D01*
X142380242Y-91449965D01*
X142388108Y-91531182D01*
X142388148Y-91537748D01*
X142388218Y-91603763D01*
X142008264Y-91603763D01*
X142016363Y-91638342D01*
X142030987Y-91669659D01*
X142056581Y-91702291D01*
X142061935Y-91707500D01*
X142107943Y-91735694D01*
X142160410Y-91740475D01*
X142220803Y-91721926D01*
X142231040Y-91716931D01*
X142262439Y-91701745D01*
X142283470Y-91693094D01*
X142287139Y-91692293D01*
X142299948Y-91700063D01*
X142324378Y-91719072D01*
X142336779Y-91729460D01*
X142362476Y-91753321D01*
X142370915Y-91769077D01*
X142365058Y-91783571D01*
X142361928Y-91787534D01*
X142340725Y-91804879D01*
X142305738Y-91825959D01*
X142281337Y-91838265D01*
X142212072Y-91859946D01*
X142135388Y-91866971D01*
X142062765Y-91858647D01*
X142042426Y-91852686D01*
X141979476Y-91818952D01*
X141932815Y-91767045D01*
X141902173Y-91696459D01*
X141887282Y-91606692D01*
X141885647Y-91559753D01*
X141890421Y-91491413D01*
X142010990Y-91491413D01*
X142022652Y-91496465D01*
X142053998Y-91500429D01*
X142099571Y-91502768D01*
X142130446Y-91503169D01*
X142185981Y-91502783D01*
X142221033Y-91500975D01*
X142240262Y-91496773D01*
X142248330Y-91489203D01*
X142249901Y-91478218D01*
X142239121Y-91444381D01*
X142211980Y-91410940D01*
X142176277Y-91385272D01*
X142140560Y-91374772D01*
X142092048Y-91384086D01*
X142050053Y-91411013D01*
X142020936Y-91449827D01*
X142010990Y-91491413D01*
X141890421Y-91491413D01*
X141892599Y-91460236D01*
X141914055Y-91380949D01*
X141950470Y-91321263D01*
X142002297Y-91280549D01*
X142069990Y-91258179D01*
X142106662Y-91253871D01*
X142182581Y-91254970D01*
G36*
X137611739Y-90315148D02*
X137677521Y-90344231D01*
X137727460Y-90392793D01*
X137761626Y-90460908D01*
X137780093Y-90548651D01*
X137781417Y-90562351D01*
X137782454Y-90658939D01*
X137769007Y-90743602D01*
X137741892Y-90812221D01*
X137727373Y-90834294D01*
X137676799Y-90881011D01*
X137612391Y-90911268D01*
X137540334Y-90923824D01*
X137466815Y-90917439D01*
X137410928Y-90897772D01*
X137362868Y-90864629D01*
X137323588Y-90821175D01*
X137322908Y-90820158D01*
X137306956Y-90793338D01*
X137296590Y-90766368D01*
X137290312Y-90732332D01*
X137286627Y-90684310D01*
X137285003Y-90644931D01*
X137284328Y-90609219D01*
X137410045Y-90609219D01*
X137411274Y-90644770D01*
X137415734Y-90692094D01*
X137423603Y-90722465D01*
X137437793Y-90744072D01*
X137451083Y-90756694D01*
X137498198Y-90783122D01*
X137547495Y-90786653D01*
X137593407Y-90767639D01*
X137616362Y-90746331D01*
X137632904Y-90724859D01*
X137642579Y-90704313D01*
X137646826Y-90677574D01*
X137647080Y-90637523D01*
X137645772Y-90600638D01*
X137642957Y-90547947D01*
X137638495Y-90513772D01*
X137630452Y-90491480D01*
X137616897Y-90474442D01*
X137606155Y-90464703D01*
X137561223Y-90439123D01*
X137512751Y-90437847D01*
X137472106Y-90452999D01*
X137437433Y-90484642D01*
X137416776Y-90536620D01*
X137410045Y-90609219D01*
X137284328Y-90609219D01*
X137283521Y-90566621D01*
X137286052Y-90508056D01*
X137293638Y-90464007D01*
X137307319Y-90429248D01*
X137328135Y-90398551D01*
X137335853Y-90389436D01*
X137384111Y-90344021D01*
X137435872Y-90317493D01*
X137499172Y-90306379D01*
X137530039Y-90305471D01*
X137611739Y-90315148D01*
X137611739Y-90315148D01*
G37*
X137611739Y-90315148D02*
X137677521Y-90344231D01*
X137727460Y-90392793D01*
X137761626Y-90460908D01*
X137780093Y-90548651D01*
X137781417Y-90562351D01*
X137782454Y-90658939D01*
X137769007Y-90743602D01*
X137741892Y-90812221D01*
X137727373Y-90834294D01*
X137676799Y-90881011D01*
X137612391Y-90911268D01*
X137540334Y-90923824D01*
X137466815Y-90917439D01*
X137410928Y-90897772D01*
X137362868Y-90864629D01*
X137323588Y-90821175D01*
X137322908Y-90820158D01*
X137306956Y-90793338D01*
X137296590Y-90766368D01*
X137290312Y-90732332D01*
X137286627Y-90684310D01*
X137285003Y-90644931D01*
X137284328Y-90609219D01*
X137410045Y-90609219D01*
X137411274Y-90644770D01*
X137415734Y-90692094D01*
X137423603Y-90722465D01*
X137437793Y-90744072D01*
X137451083Y-90756694D01*
X137498198Y-90783122D01*
X137547495Y-90786653D01*
X137593407Y-90767639D01*
X137616362Y-90746331D01*
X137632904Y-90724859D01*
X137642579Y-90704313D01*
X137646826Y-90677574D01*
X137647080Y-90637523D01*
X137645772Y-90600638D01*
X137642957Y-90547947D01*
X137638495Y-90513772D01*
X137630452Y-90491480D01*
X137616897Y-90474442D01*
X137606155Y-90464703D01*
X137561223Y-90439123D01*
X137512751Y-90437847D01*
X137472106Y-90452999D01*
X137437433Y-90484642D01*
X137416776Y-90536620D01*
X137410045Y-90609219D01*
X137284328Y-90609219D01*
X137283521Y-90566621D01*
X137286052Y-90508056D01*
X137293638Y-90464007D01*
X137307319Y-90429248D01*
X137328135Y-90398551D01*
X137335853Y-90389436D01*
X137384111Y-90344021D01*
X137435872Y-90317493D01*
X137499172Y-90306379D01*
X137530039Y-90305471D01*
X137611739Y-90315148D01*
G36*
X138793301Y-90322614D02*
X138805832Y-90328514D01*
X138849201Y-90360283D01*
X138890210Y-90406646D01*
X138920832Y-90457696D01*
X138929541Y-90481166D01*
X138937488Y-90523091D01*
X138942226Y-90573757D01*
X138942801Y-90594679D01*
X138942871Y-90660693D01*
X138562917Y-90660693D01*
X138571017Y-90695273D01*
X138590896Y-90736170D01*
X138625653Y-90771514D01*
X138667002Y-90794282D01*
X138693351Y-90799010D01*
X138729084Y-90793273D01*
X138771718Y-90778882D01*
X138786201Y-90772262D01*
X138839760Y-90745513D01*
X138885467Y-90780376D01*
X138911842Y-90803955D01*
X138925876Y-90823417D01*
X138926586Y-90829129D01*
X138914049Y-90842973D01*
X138886572Y-90864012D01*
X138861634Y-90880425D01*
X138794336Y-90909930D01*
X138718890Y-90923284D01*
X138644112Y-90919812D01*
X138584505Y-90901663D01*
X138523059Y-90862784D01*
X138479392Y-90811595D01*
X138452074Y-90745367D01*
X138439678Y-90661371D01*
X138438579Y-90622936D01*
X138442978Y-90534861D01*
X138443518Y-90532299D01*
X138569418Y-90532299D01*
X138572885Y-90540558D01*
X138587137Y-90545113D01*
X138616530Y-90547065D01*
X138665425Y-90547517D01*
X138684252Y-90547525D01*
X138741533Y-90546843D01*
X138777859Y-90544364D01*
X138797396Y-90539443D01*
X138804310Y-90531434D01*
X138804555Y-90528862D01*
X138796664Y-90508423D01*
X138776915Y-90479789D01*
X138768425Y-90469763D01*
X138736906Y-90441408D01*
X138704051Y-90430259D01*
X138686349Y-90429327D01*
X138638461Y-90440981D01*
X138598301Y-90472285D01*
X138572827Y-90517752D01*
X138572375Y-90519233D01*
X138569418Y-90532299D01*
X138443518Y-90532299D01*
X138457608Y-90465510D01*
X138483962Y-90410025D01*
X138516193Y-90370639D01*
X138575783Y-90327931D01*
X138645832Y-90305109D01*
X138720339Y-90303046D01*
X138793301Y-90322614D01*
X138793301Y-90322614D01*
G37*
X138793301Y-90322614D02*
X138805832Y-90328514D01*
X138849201Y-90360283D01*
X138890210Y-90406646D01*
X138920832Y-90457696D01*
X138929541Y-90481166D01*
X138937488Y-90523091D01*
X138942226Y-90573757D01*
X138942801Y-90594679D01*
X138942871Y-90660693D01*
X138562917Y-90660693D01*
X138571017Y-90695273D01*
X138590896Y-90736170D01*
X138625653Y-90771514D01*
X138667002Y-90794282D01*
X138693351Y-90799010D01*
X138729084Y-90793273D01*
X138771718Y-90778882D01*
X138786201Y-90772262D01*
X138839760Y-90745513D01*
X138885467Y-90780376D01*
X138911842Y-90803955D01*
X138925876Y-90823417D01*
X138926586Y-90829129D01*
X138914049Y-90842973D01*
X138886572Y-90864012D01*
X138861634Y-90880425D01*
X138794336Y-90909930D01*
X138718890Y-90923284D01*
X138644112Y-90919812D01*
X138584505Y-90901663D01*
X138523059Y-90862784D01*
X138479392Y-90811595D01*
X138452074Y-90745367D01*
X138439678Y-90661371D01*
X138438579Y-90622936D01*
X138442978Y-90534861D01*
X138443518Y-90532299D01*
X138569418Y-90532299D01*
X138572885Y-90540558D01*
X138587137Y-90545113D01*
X138616530Y-90547065D01*
X138665425Y-90547517D01*
X138684252Y-90547525D01*
X138741533Y-90546843D01*
X138777859Y-90544364D01*
X138797396Y-90539443D01*
X138804310Y-90531434D01*
X138804555Y-90528862D01*
X138796664Y-90508423D01*
X138776915Y-90479789D01*
X138768425Y-90469763D01*
X138736906Y-90441408D01*
X138704051Y-90430259D01*
X138686349Y-90429327D01*
X138638461Y-90440981D01*
X138598301Y-90472285D01*
X138572827Y-90517752D01*
X138572375Y-90519233D01*
X138569418Y-90532299D01*
X138443518Y-90532299D01*
X138457608Y-90465510D01*
X138483962Y-90410025D01*
X138516193Y-90370639D01*
X138575783Y-90327931D01*
X138645832Y-90305109D01*
X138720339Y-90303046D01*
X138793301Y-90322614D01*
G36*
X140164017Y-90306452D02*
X140211634Y-90315482D01*
X140261034Y-90334370D01*
X140266312Y-90336777D01*
X140303774Y-90356476D01*
X140329717Y-90374781D01*
X140338103Y-90386508D01*
X140330117Y-90405632D01*
X140310720Y-90433850D01*
X140302110Y-90444384D01*
X140266628Y-90485847D01*
X140220885Y-90458858D01*
X140177350Y-90440878D01*
X140127050Y-90431267D01*
X140078812Y-90430660D01*
X140041467Y-90439691D01*
X140032505Y-90445327D01*
X140015437Y-90471171D01*
X140013363Y-90500941D01*
X140026134Y-90524197D01*
X140033688Y-90528708D01*
X140056325Y-90534309D01*
X140096115Y-90540892D01*
X140145166Y-90547183D01*
X140154215Y-90548170D01*
X140232996Y-90561798D01*
X140290136Y-90584946D01*
X140328030Y-90619752D01*
X140349079Y-90668354D01*
X140355635Y-90727718D01*
X140346577Y-90795198D01*
X140317164Y-90848188D01*
X140267278Y-90886783D01*
X140196800Y-90911081D01*
X140118565Y-90920667D01*
X140054766Y-90920552D01*
X140003016Y-90911845D01*
X139967673Y-90899825D01*
X139923017Y-90878880D01*
X139881747Y-90854574D01*
X139867079Y-90843876D01*
X139829357Y-90813084D01*
X139874852Y-90767049D01*
X139920347Y-90721013D01*
X139972072Y-90755243D01*
X140023952Y-90780952D01*
X140079351Y-90794399D01*
X140132605Y-90795818D01*
X140178049Y-90785443D01*
X140210016Y-90763507D01*
X140220338Y-90744998D01*
X140218789Y-90715314D01*
X140193140Y-90692615D01*
X140143460Y-90676940D01*
X140089031Y-90669695D01*
X140005264Y-90655873D01*
X139943033Y-90629796D01*
X139901507Y-90590699D01*
X139879853Y-90537820D01*
X139876853Y-90475126D01*
X139891671Y-90409642D01*
X139925454Y-90360144D01*
X139978505Y-90326408D01*
X140051126Y-90308207D01*
X140104928Y-90304639D01*
X140164017Y-90306452D01*
X140164017Y-90306452D01*
G37*
X140164017Y-90306452D02*
X140211634Y-90315482D01*
X140261034Y-90334370D01*
X140266312Y-90336777D01*
X140303774Y-90356476D01*
X140329717Y-90374781D01*
X140338103Y-90386508D01*
X140330117Y-90405632D01*
X140310720Y-90433850D01*
X140302110Y-90444384D01*
X140266628Y-90485847D01*
X140220885Y-90458858D01*
X140177350Y-90440878D01*
X140127050Y-90431267D01*
X140078812Y-90430660D01*
X140041467Y-90439691D01*
X140032505Y-90445327D01*
X140015437Y-90471171D01*
X140013363Y-90500941D01*
X140026134Y-90524197D01*
X140033688Y-90528708D01*
X140056325Y-90534309D01*
X140096115Y-90540892D01*
X140145166Y-90547183D01*
X140154215Y-90548170D01*
X140232996Y-90561798D01*
X140290136Y-90584946D01*
X140328030Y-90619752D01*
X140349079Y-90668354D01*
X140355635Y-90727718D01*
X140346577Y-90795198D01*
X140317164Y-90848188D01*
X140267278Y-90886783D01*
X140196800Y-90911081D01*
X140118565Y-90920667D01*
X140054766Y-90920552D01*
X140003016Y-90911845D01*
X139967673Y-90899825D01*
X139923017Y-90878880D01*
X139881747Y-90854574D01*
X139867079Y-90843876D01*
X139829357Y-90813084D01*
X139874852Y-90767049D01*
X139920347Y-90721013D01*
X139972072Y-90755243D01*
X140023952Y-90780952D01*
X140079351Y-90794399D01*
X140132605Y-90795818D01*
X140178049Y-90785443D01*
X140210016Y-90763507D01*
X140220338Y-90744998D01*
X140218789Y-90715314D01*
X140193140Y-90692615D01*
X140143460Y-90676940D01*
X140089031Y-90669695D01*
X140005264Y-90655873D01*
X139943033Y-90629796D01*
X139901507Y-90590699D01*
X139879853Y-90537820D01*
X139876853Y-90475126D01*
X139891671Y-90409642D01*
X139925454Y-90360144D01*
X139978505Y-90326408D01*
X140051126Y-90308207D01*
X140104928Y-90304639D01*
X140164017Y-90306452D01*
G36*
X140760762Y-90316055D02*
X140824363Y-90350692D01*
X140874123Y-90405372D01*
X140897568Y-90449842D01*
X140907634Y-90489121D01*
X140914156Y-90545116D01*
X140916951Y-90609621D01*
X140915836Y-90674429D01*
X140910626Y-90731334D01*
X140904541Y-90761727D01*
X140884014Y-90803306D01*
X140848463Y-90847468D01*
X140805619Y-90886087D01*
X140763211Y-90911034D01*
X140762177Y-90911430D01*
X140709553Y-90922331D01*
X140647188Y-90922601D01*
X140587924Y-90912676D01*
X140565040Y-90904722D01*
X140506102Y-90871300D01*
X140463890Y-90827511D01*
X140436156Y-90769538D01*
X140420651Y-90693565D01*
X140417143Y-90653771D01*
X140417590Y-90603766D01*
X140552376Y-90603766D01*
X140556917Y-90676732D01*
X140569986Y-90732334D01*
X140590756Y-90767861D01*
X140605552Y-90778020D01*
X140643464Y-90785104D01*
X140688527Y-90783007D01*
X140727487Y-90772812D01*
X140737704Y-90767204D01*
X140764659Y-90734538D01*
X140782451Y-90684545D01*
X140790024Y-90623705D01*
X140786325Y-90558497D01*
X140778057Y-90519253D01*
X140754320Y-90473805D01*
X140716849Y-90445396D01*
X140671720Y-90435573D01*
X140625011Y-90445887D01*
X140589132Y-90471112D01*
X140570277Y-90491925D01*
X140559272Y-90512439D01*
X140554026Y-90540203D01*
X140552449Y-90582762D01*
X140552376Y-90603766D01*
X140417590Y-90603766D01*
X140418094Y-90547580D01*
X140435388Y-90460501D01*
X140469029Y-90392530D01*
X140519018Y-90343664D01*
X140585356Y-90313899D01*
X140599601Y-90310448D01*
X140685210Y-90302345D01*
X140760762Y-90316055D01*
X140760762Y-90316055D01*
G37*
X140760762Y-90316055D02*
X140824363Y-90350692D01*
X140874123Y-90405372D01*
X140897568Y-90449842D01*
X140907634Y-90489121D01*
X140914156Y-90545116D01*
X140916951Y-90609621D01*
X140915836Y-90674429D01*
X140910626Y-90731334D01*
X140904541Y-90761727D01*
X140884014Y-90803306D01*
X140848463Y-90847468D01*
X140805619Y-90886087D01*
X140763211Y-90911034D01*
X140762177Y-90911430D01*
X140709553Y-90922331D01*
X140647188Y-90922601D01*
X140587924Y-90912676D01*
X140565040Y-90904722D01*
X140506102Y-90871300D01*
X140463890Y-90827511D01*
X140436156Y-90769538D01*
X140420651Y-90693565D01*
X140417143Y-90653771D01*
X140417590Y-90603766D01*
X140552376Y-90603766D01*
X140556917Y-90676732D01*
X140569986Y-90732334D01*
X140590756Y-90767861D01*
X140605552Y-90778020D01*
X140643464Y-90785104D01*
X140688527Y-90783007D01*
X140727487Y-90772812D01*
X140737704Y-90767204D01*
X140764659Y-90734538D01*
X140782451Y-90684545D01*
X140790024Y-90623705D01*
X140786325Y-90558497D01*
X140778057Y-90519253D01*
X140754320Y-90473805D01*
X140716849Y-90445396D01*
X140671720Y-90435573D01*
X140625011Y-90445887D01*
X140589132Y-90471112D01*
X140570277Y-90491925D01*
X140559272Y-90512439D01*
X140554026Y-90540203D01*
X140552449Y-90582762D01*
X140552376Y-90603766D01*
X140417590Y-90603766D01*
X140418094Y-90547580D01*
X140435388Y-90460501D01*
X140469029Y-90392530D01*
X140519018Y-90343664D01*
X140585356Y-90313899D01*
X140599601Y-90310448D01*
X140685210Y-90302345D01*
X140760762Y-90316055D01*
G36*
X141143367Y-90504342D02*
X141144555Y-90596563D01*
X141148897Y-90666610D01*
X141157558Y-90717381D01*
X141171704Y-90751772D01*
X141192500Y-90772679D01*
X141221110Y-90783000D01*
X141256535Y-90785636D01*
X141293636Y-90782682D01*
X141321818Y-90771889D01*
X141342243Y-90750360D01*
X141356079Y-90715199D01*
X141364491Y-90663510D01*
X141368643Y-90592394D01*
X141369703Y-90504342D01*
X141369703Y-90308614D01*
X141508020Y-90308614D01*
X141508020Y-90912179D01*
X141438862Y-90912179D01*
X141397170Y-90910489D01*
X141375701Y-90904556D01*
X141369703Y-90893293D01*
X141366091Y-90883261D01*
X141351714Y-90885383D01*
X141322736Y-90899580D01*
X141256319Y-90921480D01*
X141185875Y-90919928D01*
X141118377Y-90896147D01*
X141086233Y-90877362D01*
X141061715Y-90857022D01*
X141043804Y-90831573D01*
X141031479Y-90797458D01*
X141023723Y-90751121D01*
X141019516Y-90689007D01*
X141017840Y-90607561D01*
X141017624Y-90544578D01*
X141017624Y-90308614D01*
X141143367Y-90308614D01*
X141143367Y-90504342D01*
X141143367Y-90504342D01*
G37*
X141143367Y-90504342D02*
X141144555Y-90596563D01*
X141148897Y-90666610D01*
X141157558Y-90717381D01*
X141171704Y-90751772D01*
X141192500Y-90772679D01*
X141221110Y-90783000D01*
X141256535Y-90785636D01*
X141293636Y-90782682D01*
X141321818Y-90771889D01*
X141342243Y-90750360D01*
X141356079Y-90715199D01*
X141364491Y-90663510D01*
X141368643Y-90592394D01*
X141369703Y-90504342D01*
X141369703Y-90308614D01*
X141508020Y-90308614D01*
X141508020Y-90912179D01*
X141438862Y-90912179D01*
X141397170Y-90910489D01*
X141375701Y-90904556D01*
X141369703Y-90893293D01*
X141366091Y-90883261D01*
X141351714Y-90885383D01*
X141322736Y-90899580D01*
X141256319Y-90921480D01*
X141185875Y-90919928D01*
X141118377Y-90896147D01*
X141086233Y-90877362D01*
X141061715Y-90857022D01*
X141043804Y-90831573D01*
X141031479Y-90797458D01*
X141023723Y-90751121D01*
X141019516Y-90689007D01*
X141017840Y-90607561D01*
X141017624Y-90544578D01*
X141017624Y-90308614D01*
X141143367Y-90308614D01*
X141143367Y-90504342D01*
G36*
X142367226Y-90313880D02*
X142440080Y-90344830D01*
X142463027Y-90359895D01*
X142492354Y-90383048D01*
X142510764Y-90401253D01*
X142513961Y-90407183D01*
X142504935Y-90420340D01*
X142481837Y-90442667D01*
X142463344Y-90458250D01*
X142412728Y-90498926D01*
X142372760Y-90465295D01*
X142341874Y-90443584D01*
X142311759Y-90436090D01*
X142277292Y-90437920D01*
X142222561Y-90451528D01*
X142184886Y-90479772D01*
X142161991Y-90525433D01*
X142151597Y-90591289D01*
X142151595Y-90591331D01*
X142152494Y-90664939D01*
X142166463Y-90718946D01*
X142194328Y-90755716D01*
X142213325Y-90768168D01*
X142263776Y-90783673D01*
X142317663Y-90783683D01*
X142364546Y-90768638D01*
X142375644Y-90761287D01*
X142403476Y-90742511D01*
X142425236Y-90739434D01*
X142448704Y-90753409D01*
X142474649Y-90778510D01*
X142515716Y-90820880D01*
X142470121Y-90858464D01*
X142399674Y-90900882D01*
X142320233Y-90921785D01*
X142237215Y-90920272D01*
X142182694Y-90906411D01*
X142118970Y-90872135D01*
X142068005Y-90818212D01*
X142044851Y-90780149D01*
X142026099Y-90725536D01*
X142016715Y-90656369D01*
X142016643Y-90581407D01*
X142025824Y-90509409D01*
X142044199Y-90449137D01*
X142047093Y-90442958D01*
X142089952Y-90382351D01*
X142147979Y-90338224D01*
X142216591Y-90311493D01*
X142291201Y-90303073D01*
X142367226Y-90313880D01*
X142367226Y-90313880D01*
G37*
X142367226Y-90313880D02*
X142440080Y-90344830D01*
X142463027Y-90359895D01*
X142492354Y-90383048D01*
X142510764Y-90401253D01*
X142513961Y-90407183D01*
X142504935Y-90420340D01*
X142481837Y-90442667D01*
X142463344Y-90458250D01*
X142412728Y-90498926D01*
X142372760Y-90465295D01*
X142341874Y-90443584D01*
X142311759Y-90436090D01*
X142277292Y-90437920D01*
X142222561Y-90451528D01*
X142184886Y-90479772D01*
X142161991Y-90525433D01*
X142151597Y-90591289D01*
X142151595Y-90591331D01*
X142152494Y-90664939D01*
X142166463Y-90718946D01*
X142194328Y-90755716D01*
X142213325Y-90768168D01*
X142263776Y-90783673D01*
X142317663Y-90783683D01*
X142364546Y-90768638D01*
X142375644Y-90761287D01*
X142403476Y-90742511D01*
X142425236Y-90739434D01*
X142448704Y-90753409D01*
X142474649Y-90778510D01*
X142515716Y-90820880D01*
X142470121Y-90858464D01*
X142399674Y-90900882D01*
X142320233Y-90921785D01*
X142237215Y-90920272D01*
X142182694Y-90906411D01*
X142118970Y-90872135D01*
X142068005Y-90818212D01*
X142044851Y-90780149D01*
X142026099Y-90725536D01*
X142016715Y-90656369D01*
X142016643Y-90581407D01*
X142025824Y-90509409D01*
X142044199Y-90449137D01*
X142047093Y-90442958D01*
X142089952Y-90382351D01*
X142147979Y-90338224D01*
X142216591Y-90311493D01*
X142291201Y-90303073D01*
X142367226Y-90313880D01*
G36*
X142827898Y-90306457D02*
X142860096Y-90314279D01*
X142921825Y-90342921D01*
X142974610Y-90386667D01*
X143011141Y-90439117D01*
X143016160Y-90450893D01*
X143023045Y-90481740D01*
X143027864Y-90527371D01*
X143029505Y-90573492D01*
X143029505Y-90660693D01*
X142847178Y-90660693D01*
X142771979Y-90660978D01*
X142719003Y-90662704D01*
X142685325Y-90667181D01*
X142668020Y-90675720D01*
X142664163Y-90689630D01*
X142670829Y-90710222D01*
X142682770Y-90734315D01*
X142716080Y-90774525D01*
X142762368Y-90794558D01*
X142818944Y-90793905D01*
X142883031Y-90772101D01*
X142938417Y-90745193D01*
X142984375Y-90781532D01*
X143030333Y-90817872D01*
X142987096Y-90857819D01*
X142929374Y-90895563D01*
X142858386Y-90918320D01*
X142782029Y-90924688D01*
X142708199Y-90913268D01*
X142696287Y-90909393D01*
X142631399Y-90875506D01*
X142583130Y-90824986D01*
X142550465Y-90756325D01*
X142532385Y-90668014D01*
X142532175Y-90666121D01*
X142530556Y-90569878D01*
X142537100Y-90535542D01*
X142664852Y-90535542D01*
X142676584Y-90540822D01*
X142708438Y-90544867D01*
X142755397Y-90547176D01*
X142785154Y-90547525D01*
X142840648Y-90547306D01*
X142875346Y-90545916D01*
X142893601Y-90542251D01*
X142899766Y-90535210D01*
X142898195Y-90523690D01*
X142896878Y-90519233D01*
X142874382Y-90477355D01*
X142839003Y-90443604D01*
X142807780Y-90428773D01*
X142766301Y-90429668D01*
X142724269Y-90448164D01*
X142689012Y-90478786D01*
X142667854Y-90516062D01*
X142664852Y-90535542D01*
X142537100Y-90535542D01*
X142546690Y-90485229D01*
X142578698Y-90414191D01*
X142624701Y-90358779D01*
X142682821Y-90321009D01*
X142751180Y-90302896D01*
X142827898Y-90306457D01*
X142827898Y-90306457D01*
G37*
X142827898Y-90306457D02*
X142860096Y-90314279D01*
X142921825Y-90342921D01*
X142974610Y-90386667D01*
X143011141Y-90439117D01*
X143016160Y-90450893D01*
X143023045Y-90481740D01*
X143027864Y-90527371D01*
X143029505Y-90573492D01*
X143029505Y-90660693D01*
X142847178Y-90660693D01*
X142771979Y-90660978D01*
X142719003Y-90662704D01*
X142685325Y-90667181D01*
X142668020Y-90675720D01*
X142664163Y-90689630D01*
X142670829Y-90710222D01*
X142682770Y-90734315D01*
X142716080Y-90774525D01*
X142762368Y-90794558D01*
X142818944Y-90793905D01*
X142883031Y-90772101D01*
X142938417Y-90745193D01*
X142984375Y-90781532D01*
X143030333Y-90817872D01*
X142987096Y-90857819D01*
X142929374Y-90895563D01*
X142858386Y-90918320D01*
X142782029Y-90924688D01*
X142708199Y-90913268D01*
X142696287Y-90909393D01*
X142631399Y-90875506D01*
X142583130Y-90824986D01*
X142550465Y-90756325D01*
X142532385Y-90668014D01*
X142532175Y-90666121D01*
X142530556Y-90569878D01*
X142537100Y-90535542D01*
X142664852Y-90535542D01*
X142676584Y-90540822D01*
X142708438Y-90544867D01*
X142755397Y-90547176D01*
X142785154Y-90547525D01*
X142840648Y-90547306D01*
X142875346Y-90545916D01*
X142893601Y-90542251D01*
X142899766Y-90535210D01*
X142898195Y-90523690D01*
X142896878Y-90519233D01*
X142874382Y-90477355D01*
X142839003Y-90443604D01*
X142807780Y-90428773D01*
X142766301Y-90429668D01*
X142724269Y-90448164D01*
X142689012Y-90478786D01*
X142667854Y-90516062D01*
X142664852Y-90535542D01*
X142537100Y-90535542D01*
X142546690Y-90485229D01*
X142578698Y-90414191D01*
X142624701Y-90358779D01*
X142682821Y-90321009D01*
X142751180Y-90302896D01*
X142827898Y-90306457D01*
G36*
X139395988Y-90319002D02*
X139427283Y-90333950D01*
X139457591Y-90355541D01*
X139480682Y-90380391D01*
X139497500Y-90412087D01*
X139508994Y-90454214D01*
X139516109Y-90510358D01*
X139519793Y-90584106D01*
X139520992Y-90679044D01*
X139521011Y-90688985D01*
X139521287Y-90912179D01*
X139382970Y-90912179D01*
X139382970Y-90706418D01*
X139382872Y-90630189D01*
X139382191Y-90574939D01*
X139380349Y-90536501D01*
X139376767Y-90510706D01*
X139370868Y-90493384D01*
X139362073Y-90480368D01*
X139349820Y-90467507D01*
X139306953Y-90439873D01*
X139260157Y-90434745D01*
X139215576Y-90452217D01*
X139200072Y-90465221D01*
X139188690Y-90477447D01*
X139180519Y-90490540D01*
X139175026Y-90508615D01*
X139171680Y-90535787D01*
X139169949Y-90576170D01*
X139169303Y-90633879D01*
X139169208Y-90704132D01*
X139169208Y-90912179D01*
X139030891Y-90912179D01*
X139030891Y-90308614D01*
X139100050Y-90308614D01*
X139141572Y-90310256D01*
X139162994Y-90316087D01*
X139169205Y-90327461D01*
X139169208Y-90327798D01*
X139172090Y-90338938D01*
X139184801Y-90337674D01*
X139210074Y-90325434D01*
X139267395Y-90307424D01*
X139332963Y-90305421D01*
X139395988Y-90319002D01*
X139395988Y-90319002D01*
G37*
X139395988Y-90319002D02*
X139427283Y-90333950D01*
X139457591Y-90355541D01*
X139480682Y-90380391D01*
X139497500Y-90412087D01*
X139508994Y-90454214D01*
X139516109Y-90510358D01*
X139519793Y-90584106D01*
X139520992Y-90679044D01*
X139521011Y-90688985D01*
X139521287Y-90912179D01*
X139382970Y-90912179D01*
X139382970Y-90706418D01*
X139382872Y-90630189D01*
X139382191Y-90574939D01*
X139380349Y-90536501D01*
X139376767Y-90510706D01*
X139370868Y-90493384D01*
X139362073Y-90480368D01*
X139349820Y-90467507D01*
X139306953Y-90439873D01*
X139260157Y-90434745D01*
X139215576Y-90452217D01*
X139200072Y-90465221D01*
X139188690Y-90477447D01*
X139180519Y-90490540D01*
X139175026Y-90508615D01*
X139171680Y-90535787D01*
X139169949Y-90576170D01*
X139169303Y-90633879D01*
X139169208Y-90704132D01*
X139169208Y-90912179D01*
X139030891Y-90912179D01*
X139030891Y-90308614D01*
X139100050Y-90308614D01*
X139141572Y-90310256D01*
X139162994Y-90316087D01*
X139169205Y-90327461D01*
X139169208Y-90327798D01*
X139172090Y-90338938D01*
X139184801Y-90337674D01*
X139210074Y-90325434D01*
X139267395Y-90307424D01*
X139332963Y-90305421D01*
X139395988Y-90319002D01*
G36*
X141949460Y-90308030D02*
X141992711Y-90321245D01*
X142020558Y-90337941D01*
X142029629Y-90351145D01*
X142027132Y-90366797D01*
X142010931Y-90391385D01*
X141997232Y-90408800D01*
X141968992Y-90440283D01*
X141947775Y-90453529D01*
X141929688Y-90452664D01*
X141876035Y-90439010D01*
X141836630Y-90439630D01*
X141804632Y-90455104D01*
X141793890Y-90464161D01*
X141759505Y-90496027D01*
X141759505Y-90912179D01*
X141621188Y-90912179D01*
X141621188Y-90308614D01*
X141690347Y-90308614D01*
X141731869Y-90310256D01*
X141753291Y-90316087D01*
X141759502Y-90327461D01*
X141759505Y-90327798D01*
X141762439Y-90339713D01*
X141775704Y-90338159D01*
X141794084Y-90329563D01*
X141832046Y-90313568D01*
X141862872Y-90303945D01*
X141902536Y-90301478D01*
X141949460Y-90308030D01*
X141949460Y-90308030D01*
G37*
X141949460Y-90308030D02*
X141992711Y-90321245D01*
X142020558Y-90337941D01*
X142029629Y-90351145D01*
X142027132Y-90366797D01*
X142010931Y-90391385D01*
X141997232Y-90408800D01*
X141968992Y-90440283D01*
X141947775Y-90453529D01*
X141929688Y-90452664D01*
X141876035Y-90439010D01*
X141836630Y-90439630D01*
X141804632Y-90455104D01*
X141793890Y-90464161D01*
X141759505Y-90496027D01*
X141759505Y-90912179D01*
X141621188Y-90912179D01*
X141621188Y-90308614D01*
X141690347Y-90308614D01*
X141731869Y-90310256D01*
X141753291Y-90316087D01*
X141759502Y-90327461D01*
X141759505Y-90327798D01*
X141762439Y-90339713D01*
X141775704Y-90338159D01*
X141794084Y-90329563D01*
X141832046Y-90313568D01*
X141862872Y-90303945D01*
X141902536Y-90301478D01*
X141949460Y-90308030D01*
G36*
X140526964Y-86140018D02*
X140583812Y-86441570D01*
X141003338Y-86614512D01*
X141254984Y-86443395D01*
X141325458Y-86395750D01*
X141389163Y-86353210D01*
X141443126Y-86317715D01*
X141484373Y-86291210D01*
X141509934Y-86275636D01*
X141516895Y-86272278D01*
X141529435Y-86280914D01*
X141556231Y-86304792D01*
X141594280Y-86340859D01*
X141640579Y-86386067D01*
X141692123Y-86437364D01*
X141745909Y-86491701D01*
X141798935Y-86546028D01*
X141848195Y-86597295D01*
X141890687Y-86642451D01*
X141923407Y-86678446D01*
X141943351Y-86702230D01*
X141948119Y-86710190D01*
X141941257Y-86724865D01*
X141922020Y-86757014D01*
X141892430Y-86803492D01*
X141854510Y-86861156D01*
X141810282Y-86926860D01*
X141784654Y-86964336D01*
X141737941Y-87032768D01*
X141696432Y-87094520D01*
X141662140Y-87146519D01*
X141637080Y-87185692D01*
X141623264Y-87208965D01*
X141621188Y-87213855D01*
X141625895Y-87227755D01*
X141638723Y-87260150D01*
X141657738Y-87306485D01*
X141681003Y-87362206D01*
X141706584Y-87422758D01*
X141732545Y-87483586D01*
X141756950Y-87540136D01*
X141777863Y-87587852D01*
X141793349Y-87622181D01*
X141801472Y-87638568D01*
X141801952Y-87639212D01*
X141814707Y-87642341D01*
X141848677Y-87649321D01*
X141900340Y-87659467D01*
X141966176Y-87672092D01*
X142042664Y-87686509D01*
X142087290Y-87694823D01*
X142169021Y-87710384D01*
X142242843Y-87725192D01*
X142305021Y-87738436D01*
X142351822Y-87749305D01*
X142379509Y-87756989D01*
X142385074Y-87759427D01*
X142390526Y-87775930D01*
X142394924Y-87813200D01*
X142398272Y-87866880D01*
X142400574Y-87932612D01*
X142401832Y-88006037D01*
X142402048Y-88082796D01*
X142401227Y-88158532D01*
X142399371Y-88228886D01*
X142396482Y-88289500D01*
X142392565Y-88336016D01*
X142387622Y-88364075D01*
X142384657Y-88369916D01*
X142366934Y-88376917D01*
X142329381Y-88386927D01*
X142276964Y-88398769D01*
X142214652Y-88411267D01*
X142192900Y-88415310D01*
X142088024Y-88434520D01*
X142005180Y-88449991D01*
X141941630Y-88462337D01*
X141894637Y-88472173D01*
X141861463Y-88480114D01*
X141839371Y-88486776D01*
X141825624Y-88492773D01*
X141817484Y-88498719D01*
X141816345Y-88499894D01*
X141804977Y-88518826D01*
X141787635Y-88555669D01*
X141766050Y-88605913D01*
X141741954Y-88665046D01*
X141717079Y-88728556D01*
X141693157Y-88791932D01*
X141671919Y-88850662D01*
X141655097Y-88900235D01*
X141644422Y-88936139D01*
X141641627Y-88953862D01*
X141641860Y-88954483D01*
X141651331Y-88968970D01*
X141672818Y-89000844D01*
X141704063Y-89046789D01*
X141742807Y-89103485D01*
X141786793Y-89167617D01*
X141799319Y-89185842D01*
X141843984Y-89251914D01*
X141883288Y-89312200D01*
X141915088Y-89363235D01*
X141937245Y-89401560D01*
X141947617Y-89423711D01*
X141948119Y-89426432D01*
X141939405Y-89440736D01*
X141915325Y-89469072D01*
X141878976Y-89508396D01*
X141833453Y-89555661D01*
X141781852Y-89607823D01*
X141727267Y-89661835D01*
X141672794Y-89714653D01*
X141621529Y-89763231D01*
X141576567Y-89804523D01*
X141541004Y-89835485D01*
X141517935Y-89853070D01*
X141511554Y-89855941D01*
X141496699Y-89849178D01*
X141466286Y-89830939D01*
X141425268Y-89804297D01*
X141393709Y-89782852D01*
X141336525Y-89743503D01*
X141268806Y-89697171D01*
X141200880Y-89650913D01*
X141164361Y-89626155D01*
X141040752Y-89542547D01*
X140936991Y-89598650D01*
X140889720Y-89623228D01*
X140849523Y-89642331D01*
X140822326Y-89653227D01*
X140815402Y-89654743D01*
X140807077Y-89643549D01*
X140790654Y-89611917D01*
X140767357Y-89562765D01*
X140738414Y-89499010D01*
X140705050Y-89423571D01*
X140668491Y-89339364D01*
X140629964Y-89249308D01*
X140590694Y-89156321D01*
X140551908Y-89063320D01*
X140514830Y-88973223D01*
X140480689Y-88888948D01*
X140450708Y-88813413D01*
X140426116Y-88749534D01*
X140408136Y-88700231D01*
X140397997Y-88668421D01*
X140396366Y-88657496D01*
X140409291Y-88643561D01*
X140437589Y-88620940D01*
X140475346Y-88594333D01*
X140478515Y-88592228D01*
X140576100Y-88514114D01*
X140654786Y-88422982D01*
X140713891Y-88321745D01*
X140752732Y-88213318D01*
X140770628Y-88100614D01*
X140766897Y-87986548D01*
X140740857Y-87874034D01*
X140691825Y-87765985D01*
X140677400Y-87742345D01*
X140602369Y-87646887D01*
X140513730Y-87570232D01*
X140414549Y-87512780D01*
X140307895Y-87474929D01*
X140196836Y-87457078D01*
X140084439Y-87459625D01*
X139973773Y-87482970D01*
X139867906Y-87527510D01*
X139769905Y-87593645D01*
X139739590Y-87620487D01*
X139662438Y-87704512D01*
X139606218Y-87792966D01*
X139567653Y-87892115D01*
X139546174Y-87990303D01*
X139540872Y-88100697D01*
X139558552Y-88211640D01*
X139597419Y-88319381D01*
X139655677Y-88420169D01*
X139731531Y-88510256D01*
X139823183Y-88585892D01*
X139835228Y-88593864D01*
X139873389Y-88619974D01*
X139902399Y-88642595D01*
X139916268Y-88657039D01*
X139916469Y-88657496D01*
X139913492Y-88673121D01*
X139901689Y-88708582D01*
X139882286Y-88760962D01*
X139856512Y-88827345D01*
X139825591Y-88904814D01*
X139790751Y-88990450D01*
X139753217Y-89081337D01*
X139714217Y-89174559D01*
X139674977Y-89267197D01*
X139636724Y-89356335D01*
X139600683Y-89439055D01*
X139568083Y-89512441D01*
X139540148Y-89573575D01*
X139518105Y-89619541D01*
X139503182Y-89647421D01*
X139497172Y-89654743D01*
X139478809Y-89649041D01*
X139444448Y-89633749D01*
X139400016Y-89611599D01*
X139375583Y-89598650D01*
X139271822Y-89542547D01*
X139148213Y-89626155D01*
X139085114Y-89668987D01*
X139016030Y-89716122D01*
X138951293Y-89760503D01*
X138918866Y-89782852D01*
X138873259Y-89813477D01*
X138834640Y-89837747D01*
X138808048Y-89852587D01*
X138799410Y-89855724D01*
X138786839Y-89847261D01*
X138759016Y-89823636D01*
X138718639Y-89787302D01*
X138668405Y-89740711D01*
X138611012Y-89686317D01*
X138574714Y-89651392D01*
X138511210Y-89588996D01*
X138456327Y-89533188D01*
X138412286Y-89486354D01*
X138381305Y-89450882D01*
X138365602Y-89429161D01*
X138364095Y-89424752D01*
X138371086Y-89407985D01*
X138390406Y-89374082D01*
X138419909Y-89326476D01*
X138457455Y-89268599D01*
X138500900Y-89203884D01*
X138513255Y-89185842D01*
X138558273Y-89120267D01*
X138598660Y-89061228D01*
X138632160Y-89012042D01*
X138656514Y-88976028D01*
X138669464Y-88956502D01*
X138670715Y-88954483D01*
X138668844Y-88938922D01*
X138658913Y-88904709D01*
X138642653Y-88856355D01*
X138621795Y-88798371D01*
X138598073Y-88735270D01*
X138573216Y-88671563D01*
X138548958Y-88611761D01*
X138527029Y-88560376D01*
X138509162Y-88521919D01*
X138497087Y-88500902D01*
X138496229Y-88499894D01*
X138488846Y-88493888D01*
X138476375Y-88487948D01*
X138456080Y-88481460D01*
X138425222Y-88473809D01*
X138381066Y-88464380D01*
X138320874Y-88452559D01*
X138241907Y-88437729D01*
X138141430Y-88419277D01*
X138119675Y-88415310D01*
X138055198Y-88402853D01*
X137998989Y-88390666D01*
X137956013Y-88379926D01*
X137931240Y-88371809D01*
X137927918Y-88369916D01*
X137922444Y-88353138D01*
X137917994Y-88315645D01*
X137914572Y-88261794D01*
X137912181Y-88195944D01*
X137910823Y-88122453D01*
X137910501Y-88045680D01*
X137911219Y-87969983D01*
X137912979Y-87899720D01*
X137915784Y-87839250D01*
X137919638Y-87792930D01*
X137924543Y-87765119D01*
X137927500Y-87759427D01*
X137943963Y-87753686D01*
X137981449Y-87744345D01*
X138036225Y-87732215D01*
X138104555Y-87718107D01*
X138182706Y-87702830D01*
X138225284Y-87694823D01*
X138306071Y-87679721D01*
X138378113Y-87666040D01*
X138437889Y-87654467D01*
X138481879Y-87645687D01*
X138506561Y-87640387D01*
X138510623Y-87639212D01*
X138517489Y-87625965D01*
X138532002Y-87594057D01*
X138552229Y-87548047D01*
X138576234Y-87492492D01*
X138602082Y-87431953D01*
X138627840Y-87370986D01*
X138651573Y-87314151D01*
X138671346Y-87266006D01*
X138685224Y-87231110D01*
X138691274Y-87214021D01*
X138691386Y-87213274D01*
X138684528Y-87199793D01*
X138665302Y-87168770D01*
X138635728Y-87123289D01*
X138597827Y-87066432D01*
X138553620Y-87001283D01*
X138527921Y-86963862D01*
X138481093Y-86895247D01*
X138439501Y-86832952D01*
X138405175Y-86780129D01*
X138380143Y-86739927D01*
X138366435Y-86715500D01*
X138364456Y-86710024D01*
X138372966Y-86697278D01*
X138396493Y-86670063D01*
X138432032Y-86631428D01*
X138476577Y-86584423D01*
X138527123Y-86532095D01*
X138580664Y-86477495D01*
X138634195Y-86423670D01*
X138684711Y-86373670D01*
X138729206Y-86330543D01*
X138764675Y-86297339D01*
X138788113Y-86277106D01*
X138795954Y-86272278D01*
X138808720Y-86279067D01*
X138839256Y-86298142D01*
X138884590Y-86327561D01*
X138941756Y-86365381D01*
X139007784Y-86409661D01*
X139057590Y-86443395D01*
X139309236Y-86614512D01*
X139518999Y-86528041D01*
X139728763Y-86441570D01*
X139785611Y-86140018D01*
X139842460Y-85838466D01*
X140470115Y-85838466D01*
X140526964Y-86140018D01*
X140526964Y-86140018D01*
G37*
X140526964Y-86140018D02*
X140583812Y-86441570D01*
X141003338Y-86614512D01*
X141254984Y-86443395D01*
X141325458Y-86395750D01*
X141389163Y-86353210D01*
X141443126Y-86317715D01*
X141484373Y-86291210D01*
X141509934Y-86275636D01*
X141516895Y-86272278D01*
X141529435Y-86280914D01*
X141556231Y-86304792D01*
X141594280Y-86340859D01*
X141640579Y-86386067D01*
X141692123Y-86437364D01*
X141745909Y-86491701D01*
X141798935Y-86546028D01*
X141848195Y-86597295D01*
X141890687Y-86642451D01*
X141923407Y-86678446D01*
X141943351Y-86702230D01*
X141948119Y-86710190D01*
X141941257Y-86724865D01*
X141922020Y-86757014D01*
X141892430Y-86803492D01*
X141854510Y-86861156D01*
X141810282Y-86926860D01*
X141784654Y-86964336D01*
X141737941Y-87032768D01*
X141696432Y-87094520D01*
X141662140Y-87146519D01*
X141637080Y-87185692D01*
X141623264Y-87208965D01*
X141621188Y-87213855D01*
X141625895Y-87227755D01*
X141638723Y-87260150D01*
X141657738Y-87306485D01*
X141681003Y-87362206D01*
X141706584Y-87422758D01*
X141732545Y-87483586D01*
X141756950Y-87540136D01*
X141777863Y-87587852D01*
X141793349Y-87622181D01*
X141801472Y-87638568D01*
X141801952Y-87639212D01*
X141814707Y-87642341D01*
X141848677Y-87649321D01*
X141900340Y-87659467D01*
X141966176Y-87672092D01*
X142042664Y-87686509D01*
X142087290Y-87694823D01*
X142169021Y-87710384D01*
X142242843Y-87725192D01*
X142305021Y-87738436D01*
X142351822Y-87749305D01*
X142379509Y-87756989D01*
X142385074Y-87759427D01*
X142390526Y-87775930D01*
X142394924Y-87813200D01*
X142398272Y-87866880D01*
X142400574Y-87932612D01*
X142401832Y-88006037D01*
X142402048Y-88082796D01*
X142401227Y-88158532D01*
X142399371Y-88228886D01*
X142396482Y-88289500D01*
X142392565Y-88336016D01*
X142387622Y-88364075D01*
X142384657Y-88369916D01*
X142366934Y-88376917D01*
X142329381Y-88386927D01*
X142276964Y-88398769D01*
X142214652Y-88411267D01*
X142192900Y-88415310D01*
X142088024Y-88434520D01*
X142005180Y-88449991D01*
X141941630Y-88462337D01*
X141894637Y-88472173D01*
X141861463Y-88480114D01*
X141839371Y-88486776D01*
X141825624Y-88492773D01*
X141817484Y-88498719D01*
X141816345Y-88499894D01*
X141804977Y-88518826D01*
X141787635Y-88555669D01*
X141766050Y-88605913D01*
X141741954Y-88665046D01*
X141717079Y-88728556D01*
X141693157Y-88791932D01*
X141671919Y-88850662D01*
X141655097Y-88900235D01*
X141644422Y-88936139D01*
X141641627Y-88953862D01*
X141641860Y-88954483D01*
X141651331Y-88968970D01*
X141672818Y-89000844D01*
X141704063Y-89046789D01*
X141742807Y-89103485D01*
X141786793Y-89167617D01*
X141799319Y-89185842D01*
X141843984Y-89251914D01*
X141883288Y-89312200D01*
X141915088Y-89363235D01*
X141937245Y-89401560D01*
X141947617Y-89423711D01*
X141948119Y-89426432D01*
X141939405Y-89440736D01*
X141915325Y-89469072D01*
X141878976Y-89508396D01*
X141833453Y-89555661D01*
X141781852Y-89607823D01*
X141727267Y-89661835D01*
X141672794Y-89714653D01*
X141621529Y-89763231D01*
X141576567Y-89804523D01*
X141541004Y-89835485D01*
X141517935Y-89853070D01*
X141511554Y-89855941D01*
X141496699Y-89849178D01*
X141466286Y-89830939D01*
X141425268Y-89804297D01*
X141393709Y-89782852D01*
X141336525Y-89743503D01*
X141268806Y-89697171D01*
X141200880Y-89650913D01*
X141164361Y-89626155D01*
X141040752Y-89542547D01*
X140936991Y-89598650D01*
X140889720Y-89623228D01*
X140849523Y-89642331D01*
X140822326Y-89653227D01*
X140815402Y-89654743D01*
X140807077Y-89643549D01*
X140790654Y-89611917D01*
X140767357Y-89562765D01*
X140738414Y-89499010D01*
X140705050Y-89423571D01*
X140668491Y-89339364D01*
X140629964Y-89249308D01*
X140590694Y-89156321D01*
X140551908Y-89063320D01*
X140514830Y-88973223D01*
X140480689Y-88888948D01*
X140450708Y-88813413D01*
X140426116Y-88749534D01*
X140408136Y-88700231D01*
X140397997Y-88668421D01*
X140396366Y-88657496D01*
X140409291Y-88643561D01*
X140437589Y-88620940D01*
X140475346Y-88594333D01*
X140478515Y-88592228D01*
X140576100Y-88514114D01*
X140654786Y-88422982D01*
X140713891Y-88321745D01*
X140752732Y-88213318D01*
X140770628Y-88100614D01*
X140766897Y-87986548D01*
X140740857Y-87874034D01*
X140691825Y-87765985D01*
X140677400Y-87742345D01*
X140602369Y-87646887D01*
X140513730Y-87570232D01*
X140414549Y-87512780D01*
X140307895Y-87474929D01*
X140196836Y-87457078D01*
X140084439Y-87459625D01*
X139973773Y-87482970D01*
X139867906Y-87527510D01*
X139769905Y-87593645D01*
X139739590Y-87620487D01*
X139662438Y-87704512D01*
X139606218Y-87792966D01*
X139567653Y-87892115D01*
X139546174Y-87990303D01*
X139540872Y-88100697D01*
X139558552Y-88211640D01*
X139597419Y-88319381D01*
X139655677Y-88420169D01*
X139731531Y-88510256D01*
X139823183Y-88585892D01*
X139835228Y-88593864D01*
X139873389Y-88619974D01*
X139902399Y-88642595D01*
X139916268Y-88657039D01*
X139916469Y-88657496D01*
X139913492Y-88673121D01*
X139901689Y-88708582D01*
X139882286Y-88760962D01*
X139856512Y-88827345D01*
X139825591Y-88904814D01*
X139790751Y-88990450D01*
X139753217Y-89081337D01*
X139714217Y-89174559D01*
X139674977Y-89267197D01*
X139636724Y-89356335D01*
X139600683Y-89439055D01*
X139568083Y-89512441D01*
X139540148Y-89573575D01*
X139518105Y-89619541D01*
X139503182Y-89647421D01*
X139497172Y-89654743D01*
X139478809Y-89649041D01*
X139444448Y-89633749D01*
X139400016Y-89611599D01*
X139375583Y-89598650D01*
X139271822Y-89542547D01*
X139148213Y-89626155D01*
X139085114Y-89668987D01*
X139016030Y-89716122D01*
X138951293Y-89760503D01*
X138918866Y-89782852D01*
X138873259Y-89813477D01*
X138834640Y-89837747D01*
X138808048Y-89852587D01*
X138799410Y-89855724D01*
X138786839Y-89847261D01*
X138759016Y-89823636D01*
X138718639Y-89787302D01*
X138668405Y-89740711D01*
X138611012Y-89686317D01*
X138574714Y-89651392D01*
X138511210Y-89588996D01*
X138456327Y-89533188D01*
X138412286Y-89486354D01*
X138381305Y-89450882D01*
X138365602Y-89429161D01*
X138364095Y-89424752D01*
X138371086Y-89407985D01*
X138390406Y-89374082D01*
X138419909Y-89326476D01*
X138457455Y-89268599D01*
X138500900Y-89203884D01*
X138513255Y-89185842D01*
X138558273Y-89120267D01*
X138598660Y-89061228D01*
X138632160Y-89012042D01*
X138656514Y-88976028D01*
X138669464Y-88956502D01*
X138670715Y-88954483D01*
X138668844Y-88938922D01*
X138658913Y-88904709D01*
X138642653Y-88856355D01*
X138621795Y-88798371D01*
X138598073Y-88735270D01*
X138573216Y-88671563D01*
X138548958Y-88611761D01*
X138527029Y-88560376D01*
X138509162Y-88521919D01*
X138497087Y-88500902D01*
X138496229Y-88499894D01*
X138488846Y-88493888D01*
X138476375Y-88487948D01*
X138456080Y-88481460D01*
X138425222Y-88473809D01*
X138381066Y-88464380D01*
X138320874Y-88452559D01*
X138241907Y-88437729D01*
X138141430Y-88419277D01*
X138119675Y-88415310D01*
X138055198Y-88402853D01*
X137998989Y-88390666D01*
X137956013Y-88379926D01*
X137931240Y-88371809D01*
X137927918Y-88369916D01*
X137922444Y-88353138D01*
X137917994Y-88315645D01*
X137914572Y-88261794D01*
X137912181Y-88195944D01*
X137910823Y-88122453D01*
X137910501Y-88045680D01*
X137911219Y-87969983D01*
X137912979Y-87899720D01*
X137915784Y-87839250D01*
X137919638Y-87792930D01*
X137924543Y-87765119D01*
X137927500Y-87759427D01*
X137943963Y-87753686D01*
X137981449Y-87744345D01*
X138036225Y-87732215D01*
X138104555Y-87718107D01*
X138182706Y-87702830D01*
X138225284Y-87694823D01*
X138306071Y-87679721D01*
X138378113Y-87666040D01*
X138437889Y-87654467D01*
X138481879Y-87645687D01*
X138506561Y-87640387D01*
X138510623Y-87639212D01*
X138517489Y-87625965D01*
X138532002Y-87594057D01*
X138552229Y-87548047D01*
X138576234Y-87492492D01*
X138602082Y-87431953D01*
X138627840Y-87370986D01*
X138651573Y-87314151D01*
X138671346Y-87266006D01*
X138685224Y-87231110D01*
X138691274Y-87214021D01*
X138691386Y-87213274D01*
X138684528Y-87199793D01*
X138665302Y-87168770D01*
X138635728Y-87123289D01*
X138597827Y-87066432D01*
X138553620Y-87001283D01*
X138527921Y-86963862D01*
X138481093Y-86895247D01*
X138439501Y-86832952D01*
X138405175Y-86780129D01*
X138380143Y-86739927D01*
X138366435Y-86715500D01*
X138364456Y-86710024D01*
X138372966Y-86697278D01*
X138396493Y-86670063D01*
X138432032Y-86631428D01*
X138476577Y-86584423D01*
X138527123Y-86532095D01*
X138580664Y-86477495D01*
X138634195Y-86423670D01*
X138684711Y-86373670D01*
X138729206Y-86330543D01*
X138764675Y-86297339D01*
X138788113Y-86277106D01*
X138795954Y-86272278D01*
X138808720Y-86279067D01*
X138839256Y-86298142D01*
X138884590Y-86327561D01*
X138941756Y-86365381D01*
X139007784Y-86409661D01*
X139057590Y-86443395D01*
X139309236Y-86614512D01*
X139518999Y-86528041D01*
X139728763Y-86441570D01*
X139785611Y-86140018D01*
X139842460Y-85838466D01*
X140470115Y-85838466D01*
X140526964Y-86140018D01*
D11*
X131883334Y-67257143D02*
X131835715Y-67304762D01*
X131692858Y-67352381D01*
X131597620Y-67352381D01*
X131454762Y-67304762D01*
X131359524Y-67209524D01*
X131311905Y-67114286D01*
X131264286Y-66923810D01*
X131264286Y-66780952D01*
X131311905Y-66590476D01*
X131359524Y-66495238D01*
X131454762Y-66400000D01*
X131597620Y-66352381D01*
X131692858Y-66352381D01*
X131835715Y-66400000D01*
X131883334Y-66447619D01*
X132359524Y-67352381D02*
X132550000Y-67352381D01*
X132645239Y-67304762D01*
X132692858Y-67257143D01*
X132788096Y-67114286D01*
X132835715Y-66923810D01*
X132835715Y-66542857D01*
X132788096Y-66447619D01*
X132740477Y-66400000D01*
X132645239Y-66352381D01*
X132454762Y-66352381D01*
X132359524Y-66400000D01*
X132311905Y-66447619D01*
X132264286Y-66542857D01*
X132264286Y-66780952D01*
X132311905Y-66876190D01*
X132359524Y-66923810D01*
X132454762Y-66971429D01*
X132645239Y-66971429D01*
X132740477Y-66923810D01*
X132788096Y-66876190D01*
X132835715Y-66780952D01*
X116907143Y-75607143D02*
X116859524Y-75654762D01*
X116716667Y-75702381D01*
X116621429Y-75702381D01*
X116478571Y-75654762D01*
X116383333Y-75559524D01*
X116335714Y-75464286D01*
X116288095Y-75273810D01*
X116288095Y-75130952D01*
X116335714Y-74940476D01*
X116383333Y-74845238D01*
X116478571Y-74750000D01*
X116621429Y-74702381D01*
X116716667Y-74702381D01*
X116859524Y-74750000D01*
X116907143Y-74797619D01*
X117859524Y-75702381D02*
X117288095Y-75702381D01*
X117573809Y-75702381D02*
X117573809Y-74702381D01*
X117478571Y-74845238D01*
X117383333Y-74940476D01*
X117288095Y-74988095D01*
X118240476Y-74797619D02*
X118288095Y-74750000D01*
X118383333Y-74702381D01*
X118621429Y-74702381D01*
X118716667Y-74750000D01*
X118764286Y-74797619D01*
X118811905Y-74892857D01*
X118811905Y-74988095D01*
X118764286Y-75130952D01*
X118192857Y-75702381D01*
X118811905Y-75702381D01*
X124152381Y-50111905D02*
X124961905Y-50111905D01*
X125057143Y-50064286D01*
X125104762Y-50016667D01*
X125152381Y-49921429D01*
X125152381Y-49730952D01*
X125104762Y-49635714D01*
X125057143Y-49588095D01*
X124961905Y-49540476D01*
X124152381Y-49540476D01*
X125152381Y-48540476D02*
X125152381Y-49111905D01*
X125152381Y-48826191D02*
X124152381Y-48826191D01*
X124295238Y-48921429D01*
X124390476Y-49016667D01*
X124438095Y-49111905D01*
X126707143Y-46916666D02*
X126754762Y-46964285D01*
X126802381Y-47107142D01*
X126802381Y-47202380D01*
X126754762Y-47345238D01*
X126659524Y-47440476D01*
X126564286Y-47488095D01*
X126373810Y-47535714D01*
X126230952Y-47535714D01*
X126040476Y-47488095D01*
X125945238Y-47440476D01*
X125850000Y-47345238D01*
X125802381Y-47202380D01*
X125802381Y-47107142D01*
X125850000Y-46964285D01*
X125897619Y-46916666D01*
X126802381Y-45964285D02*
X126802381Y-46535714D01*
X126802381Y-46250000D02*
X125802381Y-46250000D01*
X125945238Y-46345238D01*
X126040476Y-46440476D01*
X126088095Y-46535714D01*
X137407143Y-46916666D02*
X137454762Y-46964285D01*
X137502381Y-47107142D01*
X137502381Y-47202380D01*
X137454762Y-47345238D01*
X137359524Y-47440476D01*
X137264286Y-47488095D01*
X137073810Y-47535714D01*
X136930952Y-47535714D01*
X136740476Y-47488095D01*
X136645238Y-47440476D01*
X136550000Y-47345238D01*
X136502381Y-47202380D01*
X136502381Y-47107142D01*
X136550000Y-46964285D01*
X136597619Y-46916666D01*
X136597619Y-46535714D02*
X136550000Y-46488095D01*
X136502381Y-46392857D01*
X136502381Y-46154761D01*
X136550000Y-46059523D01*
X136597619Y-46011904D01*
X136692857Y-45964285D01*
X136788095Y-45964285D01*
X136930952Y-46011904D01*
X137502381Y-46583333D01*
X137502381Y-45964285D01*
X126333334Y-56057143D02*
X126285715Y-56104762D01*
X126142858Y-56152381D01*
X126047620Y-56152381D01*
X125904762Y-56104762D01*
X125809524Y-56009524D01*
X125761905Y-55914286D01*
X125714286Y-55723810D01*
X125714286Y-55580952D01*
X125761905Y-55390476D01*
X125809524Y-55295238D01*
X125904762Y-55200000D01*
X126047620Y-55152381D01*
X126142858Y-55152381D01*
X126285715Y-55200000D01*
X126333334Y-55247619D01*
X126666667Y-55152381D02*
X127285715Y-55152381D01*
X126952381Y-55533333D01*
X127095239Y-55533333D01*
X127190477Y-55580952D01*
X127238096Y-55628571D01*
X127285715Y-55723810D01*
X127285715Y-55961905D01*
X127238096Y-56057143D01*
X127190477Y-56104762D01*
X127095239Y-56152381D01*
X126809524Y-56152381D01*
X126714286Y-56104762D01*
X126666667Y-56057143D01*
X131283334Y-49407143D02*
X131235715Y-49454762D01*
X131092858Y-49502381D01*
X130997620Y-49502381D01*
X130854762Y-49454762D01*
X130759524Y-49359524D01*
X130711905Y-49264286D01*
X130664286Y-49073810D01*
X130664286Y-48930952D01*
X130711905Y-48740476D01*
X130759524Y-48645238D01*
X130854762Y-48550000D01*
X130997620Y-48502381D01*
X131092858Y-48502381D01*
X131235715Y-48550000D01*
X131283334Y-48597619D01*
X132140477Y-48835714D02*
X132140477Y-49502381D01*
X131902381Y-48454762D02*
X131664286Y-49169048D01*
X132283334Y-49169048D01*
X124957143Y-77266666D02*
X125004762Y-77314285D01*
X125052381Y-77457142D01*
X125052381Y-77552380D01*
X125004762Y-77695238D01*
X124909524Y-77790476D01*
X124814286Y-77838095D01*
X124623810Y-77885714D01*
X124480952Y-77885714D01*
X124290476Y-77838095D01*
X124195238Y-77790476D01*
X124100000Y-77695238D01*
X124052381Y-77552380D01*
X124052381Y-77457142D01*
X124100000Y-77314285D01*
X124147619Y-77266666D01*
X124480952Y-76695238D02*
X124433333Y-76790476D01*
X124385714Y-76838095D01*
X124290476Y-76885714D01*
X124242857Y-76885714D01*
X124147619Y-76838095D01*
X124100000Y-76790476D01*
X124052381Y-76695238D01*
X124052381Y-76504761D01*
X124100000Y-76409523D01*
X124147619Y-76361904D01*
X124242857Y-76314285D01*
X124290476Y-76314285D01*
X124385714Y-76361904D01*
X124433333Y-76409523D01*
X124480952Y-76504761D01*
X124480952Y-76695238D01*
X124528571Y-76790476D01*
X124576190Y-76838095D01*
X124671429Y-76885714D01*
X124861905Y-76885714D01*
X124957143Y-76838095D01*
X125004762Y-76790476D01*
X125052381Y-76695238D01*
X125052381Y-76504761D01*
X125004762Y-76409523D01*
X124957143Y-76361904D01*
X124861905Y-76314285D01*
X124671429Y-76314285D01*
X124576190Y-76361904D01*
X124528571Y-76409523D01*
X124480952Y-76504761D01*
X108916667Y-58202381D02*
X108916667Y-58916667D01*
X108869047Y-59059524D01*
X108773809Y-59154762D01*
X108630952Y-59202381D01*
X108535714Y-59202381D01*
X109345238Y-58297619D02*
X109392857Y-58250000D01*
X109488095Y-58202381D01*
X109726191Y-58202381D01*
X109821429Y-58250000D01*
X109869048Y-58297619D01*
X109916667Y-58392857D01*
X109916667Y-58488095D01*
X109869048Y-58630952D01*
X109297619Y-59202381D01*
X109916667Y-59202381D01*
X127352381Y-77166666D02*
X126876190Y-77500000D01*
X127352381Y-77738095D02*
X126352381Y-77738095D01*
X126352381Y-77357142D01*
X126400000Y-77261904D01*
X126447619Y-77214285D01*
X126542857Y-77166666D01*
X126685714Y-77166666D01*
X126780952Y-77214285D01*
X126828571Y-77261904D01*
X126876190Y-77357142D01*
X126876190Y-77738095D01*
X126352381Y-76833333D02*
X126352381Y-76214285D01*
X126733333Y-76547619D01*
X126733333Y-76404761D01*
X126780952Y-76309523D01*
X126828571Y-76261904D01*
X126923810Y-76214285D01*
X127161905Y-76214285D01*
X127257143Y-76261904D01*
X127304762Y-76309523D01*
X127352381Y-76404761D01*
X127352381Y-76690476D01*
X127304762Y-76785714D01*
X127257143Y-76833333D01*
X126292381Y-43683333D02*
X127006667Y-43683333D01*
X127149524Y-43730953D01*
X127244762Y-43826191D01*
X127292381Y-43969048D01*
X127292381Y-44064286D01*
X127292381Y-42683333D02*
X127292381Y-43254762D01*
X127292381Y-42969048D02*
X126292381Y-42969048D01*
X126435238Y-43064286D01*
X126530476Y-43159524D01*
X126578095Y-43254762D01*
X129502381Y-65666666D02*
X129026190Y-66000000D01*
X129502381Y-66238095D02*
X128502381Y-66238095D01*
X128502381Y-65857142D01*
X128550000Y-65761904D01*
X128597619Y-65714285D01*
X128692857Y-65666666D01*
X128835714Y-65666666D01*
X128930952Y-65714285D01*
X128978571Y-65761904D01*
X129026190Y-65857142D01*
X129026190Y-66238095D01*
X128835714Y-64809523D02*
X129502381Y-64809523D01*
X128454762Y-65047619D02*
X129169048Y-65285714D01*
X129169048Y-64666666D01*
X122607143Y-55691666D02*
X122654762Y-55739285D01*
X122702381Y-55882142D01*
X122702381Y-55977380D01*
X122654762Y-56120238D01*
X122559524Y-56215476D01*
X122464286Y-56263095D01*
X122273810Y-56310714D01*
X122130952Y-56310714D01*
X121940476Y-56263095D01*
X121845238Y-56215476D01*
X121750000Y-56120238D01*
X121702381Y-55977380D01*
X121702381Y-55882142D01*
X121750000Y-55739285D01*
X121797619Y-55691666D01*
X121702381Y-54786904D02*
X121702381Y-55263095D01*
X122178571Y-55310714D01*
X122130952Y-55263095D01*
X122083333Y-55167857D01*
X122083333Y-54929761D01*
X122130952Y-54834523D01*
X122178571Y-54786904D01*
X122273810Y-54739285D01*
X122511905Y-54739285D01*
X122607143Y-54786904D01*
X122654762Y-54834523D01*
X122702381Y-54929761D01*
X122702381Y-55167857D01*
X122654762Y-55263095D01*
X122607143Y-55310714D01*
X137358334Y-52507143D02*
X137310715Y-52554762D01*
X137167858Y-52602381D01*
X137072620Y-52602381D01*
X136929762Y-52554762D01*
X136834524Y-52459524D01*
X136786905Y-52364286D01*
X136739286Y-52173810D01*
X136739286Y-52030952D01*
X136786905Y-51840476D01*
X136834524Y-51745238D01*
X136929762Y-51650000D01*
X137072620Y-51602381D01*
X137167858Y-51602381D01*
X137310715Y-51650000D01*
X137358334Y-51697619D01*
X138215477Y-51602381D02*
X138025000Y-51602381D01*
X137929762Y-51650000D01*
X137882143Y-51697619D01*
X137786905Y-51840476D01*
X137739286Y-52030952D01*
X137739286Y-52411905D01*
X137786905Y-52507143D01*
X137834524Y-52554762D01*
X137929762Y-52602381D01*
X138120239Y-52602381D01*
X138215477Y-52554762D01*
X138263096Y-52507143D01*
X138310715Y-52411905D01*
X138310715Y-52173810D01*
X138263096Y-52078571D01*
X138215477Y-52030952D01*
X138120239Y-51983333D01*
X137929762Y-51983333D01*
X137834524Y-52030952D01*
X137786905Y-52078571D01*
X137739286Y-52173810D01*
X124907143Y-61892857D02*
X124954762Y-61940476D01*
X125002381Y-62083333D01*
X125002381Y-62178571D01*
X124954762Y-62321429D01*
X124859524Y-62416667D01*
X124764286Y-62464286D01*
X124573810Y-62511905D01*
X124430952Y-62511905D01*
X124240476Y-62464286D01*
X124145238Y-62416667D01*
X124050000Y-62321429D01*
X124002381Y-62178571D01*
X124002381Y-62083333D01*
X124050000Y-61940476D01*
X124097619Y-61892857D01*
X125002381Y-60940476D02*
X125002381Y-61511905D01*
X125002381Y-61226191D02*
X124002381Y-61226191D01*
X124145238Y-61321429D01*
X124240476Y-61416667D01*
X124288095Y-61511905D01*
X124002381Y-60321429D02*
X124002381Y-60226190D01*
X124050000Y-60130952D01*
X124097619Y-60083333D01*
X124192857Y-60035714D01*
X124383333Y-59988095D01*
X124621429Y-59988095D01*
X124811905Y-60035714D01*
X124907143Y-60083333D01*
X124954762Y-60130952D01*
X125002381Y-60226190D01*
X125002381Y-60321429D01*
X124954762Y-60416667D01*
X124907143Y-60464286D01*
X124811905Y-60511905D01*
X124621429Y-60559524D01*
X124383333Y-60559524D01*
X124192857Y-60511905D01*
X124097619Y-60464286D01*
X124050000Y-60416667D01*
X124002381Y-60321429D01*
X120407143Y-66892857D02*
X120454762Y-66940476D01*
X120502381Y-67083333D01*
X120502381Y-67178571D01*
X120454762Y-67321429D01*
X120359524Y-67416667D01*
X120264286Y-67464286D01*
X120073810Y-67511905D01*
X119930952Y-67511905D01*
X119740476Y-67464286D01*
X119645238Y-67416667D01*
X119550000Y-67321429D01*
X119502381Y-67178571D01*
X119502381Y-67083333D01*
X119550000Y-66940476D01*
X119597619Y-66892857D01*
X120502381Y-65940476D02*
X120502381Y-66511905D01*
X120502381Y-66226191D02*
X119502381Y-66226191D01*
X119645238Y-66321429D01*
X119740476Y-66416667D01*
X119788095Y-66511905D01*
X120502381Y-64988095D02*
X120502381Y-65559524D01*
X120502381Y-65273810D02*
X119502381Y-65273810D01*
X119645238Y-65369048D01*
X119740476Y-65464286D01*
X119788095Y-65559524D01*
X129888095Y-68902381D02*
X129888095Y-69711905D01*
X129935714Y-69807143D01*
X129983333Y-69854762D01*
X130078571Y-69902381D01*
X130269048Y-69902381D01*
X130364286Y-69854762D01*
X130411905Y-69807143D01*
X130459524Y-69711905D01*
X130459524Y-68902381D01*
X130888095Y-68997619D02*
X130935714Y-68950000D01*
X131030952Y-68902381D01*
X131269048Y-68902381D01*
X131364286Y-68950000D01*
X131411905Y-68997619D01*
X131459524Y-69092857D01*
X131459524Y-69188095D01*
X131411905Y-69330952D01*
X130840476Y-69902381D01*
X131459524Y-69902381D01*
M02*
