M48
;DRILL file {KiCad 4.0.6} date 12/17/18 09:49:24
;FORMAT={-:-/ absolute / metric / decimal}
FMAT,2
METRIC,TZ
T1C0.300
T2C0.400
T3C0.700
T4C0.800
T5C0.900
T6C1.000
T7C1.500
T8C1.700
%
G90
G05
M71
T1
X127.75Y-49.35
X131.55Y-50.45
T2
X119.95Y-75.05
X122.25Y-58.725
X122.95Y-75.05
X124.55Y-65.75
X126.85Y-51.35
X127.85Y-75.05
X129.65Y-63.45
X130.55Y-68.65
X133.35Y-72.515
X140.725Y-52.15
T3
X132.35Y-79.25
T4
X120.05Y-63.75
X120.05Y-68.75
T5
X129.79Y-79.25
T6
X129.17Y-43.35
X131.71Y-43.35
X134.25Y-43.35
T7
X112.25Y-63.75
T8
X109.71Y-61.21
X109.71Y-66.29
X114.79Y-61.21
X114.79Y-66.29
T0
M30
