M48
; DRILL file {KiCad (6.0.7)} date Mon May 22 14:19:34 2023
; FORMAT={-:-/ absolute / inch / decimal}
; #@! TF.CreationDate,2023-05-22T14:19:34+02:00
; #@! TF.GenerationSoftware,Kicad,Pcbnew,(6.0.7)
; #@! TF.FileFunction,Plated,1,2,PTH
FMAT,2
INCH
; #@! TA.AperFunction,Plated,PTH,ViaDrill
T1C0.0118
; #@! TA.AperFunction,Plated,PTH,ComponentDrill
T2C0.0181
; #@! TA.AperFunction,Plated,PTH,ComponentDrill
T3C0.0276
; #@! TA.AperFunction,Plated,PTH,ComponentDrill
T4C0.0295
; #@! TA.AperFunction,Plated,PTH,ComponentDrill
T5C0.0354
%
G90
G05
T1
X7.4134Y-3.9843
X7.4331Y-4.2323
X7.4409Y-4.6063
X7.4528Y-3.9843
X7.4803Y-4.0945
X7.4803Y-4.6063
X7.4865Y-4.4615
X7.4882Y-3.9843
X7.5157Y-4.3622
X7.5197Y-4.6063
X7.5591Y-3.9843
X7.5787Y-4.0945
X7.5787Y-4.3701
X7.5787Y-4.4094
X7.6024Y-3.9843
X7.6181Y-4.3701
X7.6181Y-4.4094
X7.6378Y-3.9843
X7.6575Y-4.3701
X7.6575Y-4.4094
X7.6969Y-4.3701
X7.6969Y-4.4094
X7.7165Y-4.4882
X7.7165Y-4.5276
X7.7165Y-4.5669
X7.7362Y-4.3701
X7.7362Y-4.4094
X7.752Y-3.9606
X7.7559Y-4.4882
X7.7559Y-4.5276
X7.7559Y-4.5669
X7.7913Y-4.0354
X7.7953Y-4.4882
X7.7953Y-4.5276
X7.7953Y-4.5669
X7.8716Y-4.3728
X7.937Y-3.937
X7.9488Y-4.3976
X7.9921Y-4.6063
X8.0027Y-3.9374
X8.0157Y-4.3976
X8.0315Y-4.6063
X8.0394Y-4.2795
X8.0709Y-4.6063
T2
X7.7838Y-3.7843
X8.0588Y-3.7843
T3
X7.7556Y-4.1618
T4
X7.6772Y-4.6496
X7.7559Y-4.6496
X7.8346Y-4.6496
T5
X7.7556Y-4.2626
T0
M30
