G04 #@! TF.GenerationSoftware,KiCad,Pcbnew,(6.0.1)*
G04 #@! TF.CreationDate,2022-09-06T12:24:57+02:00*
G04 #@! TF.ProjectId,SFH203_photodetector,53464832-3033-45f7-9068-6f746f646574,1.5*
G04 #@! TF.SameCoordinates,Original*
G04 #@! TF.FileFunction,Legend,Top*
G04 #@! TF.FilePolarity,Positive*
%FSLAX46Y46*%
G04 Gerber Fmt 4.6, Leading zero omitted, Abs format (unit mm)*
G04 Created by KiCad (PCBNEW (6.0.1)) date 2022-09-06 12:24:57*
%MOMM*%
%LPD*%
G01*
G04 APERTURE LIST*
%ADD10C,0.300000*%
%ADD11C,0.250000*%
%ADD12C,0.150000*%
%ADD13C,0.600000*%
%ADD14C,0.120000*%
%ADD15C,1.000000*%
G04 APERTURE END LIST*
D10*
X150221428Y-71628571D02*
X150721428Y-73128571D01*
X151221428Y-71628571D01*
X151721428Y-72557142D02*
X152864285Y-72557142D01*
D11*
X120598214Y-49449642D02*
X120812500Y-49521071D01*
X121169642Y-49521071D01*
X121312500Y-49449642D01*
X121383928Y-49378214D01*
X121455357Y-49235357D01*
X121455357Y-49092500D01*
X121383928Y-48949642D01*
X121312500Y-48878214D01*
X121169642Y-48806785D01*
X120883928Y-48735357D01*
X120741071Y-48663928D01*
X120669642Y-48592500D01*
X120598214Y-48449642D01*
X120598214Y-48306785D01*
X120669642Y-48163928D01*
X120741071Y-48092500D01*
X120883928Y-48021071D01*
X121241071Y-48021071D01*
X121455357Y-48092500D01*
X122598214Y-48735357D02*
X122098214Y-48735357D01*
X122098214Y-49521071D02*
X122098214Y-48021071D01*
X122812500Y-48021071D01*
X123383928Y-49521071D02*
X123383928Y-48021071D01*
X123383928Y-48735357D02*
X124241071Y-48735357D01*
X124241071Y-49521071D02*
X124241071Y-48021071D01*
X124883928Y-48163928D02*
X124955357Y-48092500D01*
X125098214Y-48021071D01*
X125455357Y-48021071D01*
X125598214Y-48092500D01*
X125669642Y-48163928D01*
X125741071Y-48306785D01*
X125741071Y-48449642D01*
X125669642Y-48663928D01*
X124812500Y-49521071D01*
X125741071Y-49521071D01*
X126669642Y-48021071D02*
X126812500Y-48021071D01*
X126955357Y-48092500D01*
X127026785Y-48163928D01*
X127098214Y-48306785D01*
X127169642Y-48592500D01*
X127169642Y-48949642D01*
X127098214Y-49235357D01*
X127026785Y-49378214D01*
X126955357Y-49449642D01*
X126812500Y-49521071D01*
X126669642Y-49521071D01*
X126526785Y-49449642D01*
X126455357Y-49378214D01*
X126383928Y-49235357D01*
X126312500Y-48949642D01*
X126312500Y-48592500D01*
X126383928Y-48306785D01*
X126455357Y-48163928D01*
X126526785Y-48092500D01*
X126669642Y-48021071D01*
X127669642Y-48021071D02*
X128598214Y-48021071D01*
X128098214Y-48592500D01*
X128312500Y-48592500D01*
X128455357Y-48663928D01*
X128526785Y-48735357D01*
X128598214Y-48878214D01*
X128598214Y-49235357D01*
X128526785Y-49378214D01*
X128455357Y-49449642D01*
X128312500Y-49521071D01*
X127883928Y-49521071D01*
X127741071Y-49449642D01*
X127669642Y-49378214D01*
X128883928Y-49663928D02*
X130026785Y-49663928D01*
X130383928Y-48521071D02*
X130383928Y-50021071D01*
X130383928Y-48592500D02*
X130526785Y-48521071D01*
X130812500Y-48521071D01*
X130955357Y-48592500D01*
X131026785Y-48663928D01*
X131098214Y-48806785D01*
X131098214Y-49235357D01*
X131026785Y-49378214D01*
X130955357Y-49449642D01*
X130812500Y-49521071D01*
X130526785Y-49521071D01*
X130383928Y-49449642D01*
X131741071Y-49521071D02*
X131741071Y-48021071D01*
X132383928Y-49521071D02*
X132383928Y-48735357D01*
X132312500Y-48592500D01*
X132169642Y-48521071D01*
X131955357Y-48521071D01*
X131812500Y-48592500D01*
X131741071Y-48663928D01*
X133312500Y-49521071D02*
X133169642Y-49449642D01*
X133098214Y-49378214D01*
X133026785Y-49235357D01*
X133026785Y-48806785D01*
X133098214Y-48663928D01*
X133169642Y-48592500D01*
X133312500Y-48521071D01*
X133526785Y-48521071D01*
X133669642Y-48592500D01*
X133741071Y-48663928D01*
X133812500Y-48806785D01*
X133812500Y-49235357D01*
X133741071Y-49378214D01*
X133669642Y-49449642D01*
X133526785Y-49521071D01*
X133312500Y-49521071D01*
X134241071Y-48521071D02*
X134812500Y-48521071D01*
X134455357Y-48021071D02*
X134455357Y-49306785D01*
X134526785Y-49449642D01*
X134669642Y-49521071D01*
X134812500Y-49521071D01*
X135526785Y-49521071D02*
X135383928Y-49449642D01*
X135312500Y-49378214D01*
X135241071Y-49235357D01*
X135241071Y-48806785D01*
X135312500Y-48663928D01*
X135383928Y-48592500D01*
X135526785Y-48521071D01*
X135741071Y-48521071D01*
X135883928Y-48592500D01*
X135955357Y-48663928D01*
X136026785Y-48806785D01*
X136026785Y-49235357D01*
X135955357Y-49378214D01*
X135883928Y-49449642D01*
X135741071Y-49521071D01*
X135526785Y-49521071D01*
X137312500Y-49521071D02*
X137312500Y-48021071D01*
X137312500Y-49449642D02*
X137169642Y-49521071D01*
X136883928Y-49521071D01*
X136741071Y-49449642D01*
X136669642Y-49378214D01*
X136598214Y-49235357D01*
X136598214Y-48806785D01*
X136669642Y-48663928D01*
X136741071Y-48592500D01*
X136883928Y-48521071D01*
X137169642Y-48521071D01*
X137312500Y-48592500D01*
X138598214Y-49449642D02*
X138455357Y-49521071D01*
X138169642Y-49521071D01*
X138026785Y-49449642D01*
X137955357Y-49306785D01*
X137955357Y-48735357D01*
X138026785Y-48592500D01*
X138169642Y-48521071D01*
X138455357Y-48521071D01*
X138598214Y-48592500D01*
X138669642Y-48735357D01*
X138669642Y-48878214D01*
X137955357Y-49021071D01*
X139098214Y-48521071D02*
X139669642Y-48521071D01*
X139312500Y-48021071D02*
X139312500Y-49306785D01*
X139383928Y-49449642D01*
X139526785Y-49521071D01*
X139669642Y-49521071D01*
X140741071Y-49449642D02*
X140598214Y-49521071D01*
X140312500Y-49521071D01*
X140169642Y-49449642D01*
X140098214Y-49306785D01*
X140098214Y-48735357D01*
X140169642Y-48592500D01*
X140312500Y-48521071D01*
X140598214Y-48521071D01*
X140741071Y-48592500D01*
X140812500Y-48735357D01*
X140812500Y-48878214D01*
X140098214Y-49021071D01*
X142098214Y-49449642D02*
X141955357Y-49521071D01*
X141669642Y-49521071D01*
X141526785Y-49449642D01*
X141455357Y-49378214D01*
X141383928Y-49235357D01*
X141383928Y-48806785D01*
X141455357Y-48663928D01*
X141526785Y-48592500D01*
X141669642Y-48521071D01*
X141955357Y-48521071D01*
X142098214Y-48592500D01*
X142526785Y-48521071D02*
X143098214Y-48521071D01*
X142741071Y-48021071D02*
X142741071Y-49306785D01*
X142812500Y-49449642D01*
X142955357Y-49521071D01*
X143098214Y-49521071D01*
X143812500Y-49521071D02*
X143669642Y-49449642D01*
X143598214Y-49378214D01*
X143526785Y-49235357D01*
X143526785Y-48806785D01*
X143598214Y-48663928D01*
X143669642Y-48592500D01*
X143812500Y-48521071D01*
X144026785Y-48521071D01*
X144169642Y-48592500D01*
X144241071Y-48663928D01*
X144312500Y-48806785D01*
X144312500Y-49235357D01*
X144241071Y-49378214D01*
X144169642Y-49449642D01*
X144026785Y-49521071D01*
X143812500Y-49521071D01*
X144955357Y-49521071D02*
X144955357Y-48521071D01*
X144955357Y-48806785D02*
X145026785Y-48663928D01*
X145098214Y-48592500D01*
X145241071Y-48521071D01*
X145383928Y-48521071D01*
X120598214Y-50578928D02*
X120669642Y-50507500D01*
X120812500Y-50436071D01*
X121169642Y-50436071D01*
X121312500Y-50507500D01*
X121383928Y-50578928D01*
X121455357Y-50721785D01*
X121455357Y-50864642D01*
X121383928Y-51078928D01*
X120526785Y-51936071D01*
X121455357Y-51936071D01*
X122383928Y-50436071D02*
X122526785Y-50436071D01*
X122669642Y-50507500D01*
X122741071Y-50578928D01*
X122812500Y-50721785D01*
X122883928Y-51007500D01*
X122883928Y-51364642D01*
X122812500Y-51650357D01*
X122741071Y-51793214D01*
X122669642Y-51864642D01*
X122526785Y-51936071D01*
X122383928Y-51936071D01*
X122241071Y-51864642D01*
X122169642Y-51793214D01*
X122098214Y-51650357D01*
X122026785Y-51364642D01*
X122026785Y-51007500D01*
X122098214Y-50721785D01*
X122169642Y-50578928D01*
X122241071Y-50507500D01*
X122383928Y-50436071D01*
X123455357Y-50578928D02*
X123526785Y-50507500D01*
X123669642Y-50436071D01*
X124026785Y-50436071D01*
X124169642Y-50507500D01*
X124241071Y-50578928D01*
X124312500Y-50721785D01*
X124312500Y-50864642D01*
X124241071Y-51078928D01*
X123383928Y-51936071D01*
X124312500Y-51936071D01*
X124883928Y-50578928D02*
X124955357Y-50507500D01*
X125098214Y-50436071D01*
X125455357Y-50436071D01*
X125598214Y-50507500D01*
X125669642Y-50578928D01*
X125741071Y-50721785D01*
X125741071Y-50864642D01*
X125669642Y-51078928D01*
X124812500Y-51936071D01*
X125741071Y-51936071D01*
X126383928Y-51364642D02*
X127526785Y-51364642D01*
X128526785Y-50436071D02*
X128669642Y-50436071D01*
X128812500Y-50507500D01*
X128883928Y-50578928D01*
X128955357Y-50721785D01*
X129026785Y-51007500D01*
X129026785Y-51364642D01*
X128955357Y-51650357D01*
X128883928Y-51793214D01*
X128812500Y-51864642D01*
X128669642Y-51936071D01*
X128526785Y-51936071D01*
X128383928Y-51864642D01*
X128312500Y-51793214D01*
X128241071Y-51650357D01*
X128169642Y-51364642D01*
X128169642Y-51007500D01*
X128241071Y-50721785D01*
X128312500Y-50578928D01*
X128383928Y-50507500D01*
X128526785Y-50436071D01*
X129883928Y-51078928D02*
X129741071Y-51007500D01*
X129669642Y-50936071D01*
X129598214Y-50793214D01*
X129598214Y-50721785D01*
X129669642Y-50578928D01*
X129741071Y-50507500D01*
X129883928Y-50436071D01*
X130169642Y-50436071D01*
X130312500Y-50507500D01*
X130383928Y-50578928D01*
X130455357Y-50721785D01*
X130455357Y-50793214D01*
X130383928Y-50936071D01*
X130312500Y-51007500D01*
X130169642Y-51078928D01*
X129883928Y-51078928D01*
X129741071Y-51150357D01*
X129669642Y-51221785D01*
X129598214Y-51364642D01*
X129598214Y-51650357D01*
X129669642Y-51793214D01*
X129741071Y-51864642D01*
X129883928Y-51936071D01*
X130169642Y-51936071D01*
X130312500Y-51864642D01*
X130383928Y-51793214D01*
X130455357Y-51650357D01*
X130455357Y-51364642D01*
X130383928Y-51221785D01*
X130312500Y-51150357D01*
X130169642Y-51078928D01*
X133098214Y-51936071D02*
X132598214Y-51221785D01*
X132241071Y-51936071D02*
X132241071Y-50436071D01*
X132812500Y-50436071D01*
X132955357Y-50507500D01*
X133026785Y-50578928D01*
X133098214Y-50721785D01*
X133098214Y-50936071D01*
X133026785Y-51078928D01*
X132955357Y-51150357D01*
X132812500Y-51221785D01*
X132241071Y-51221785D01*
X134312500Y-51864642D02*
X134169642Y-51936071D01*
X133883928Y-51936071D01*
X133741071Y-51864642D01*
X133669642Y-51721785D01*
X133669642Y-51150357D01*
X133741071Y-51007500D01*
X133883928Y-50936071D01*
X134169642Y-50936071D01*
X134312500Y-51007500D01*
X134383928Y-51150357D01*
X134383928Y-51293214D01*
X133669642Y-51436071D01*
X134883928Y-50936071D02*
X135241071Y-51936071D01*
X135598214Y-50936071D01*
X136169642Y-51793214D02*
X136241071Y-51864642D01*
X136169642Y-51936071D01*
X136098214Y-51864642D01*
X136169642Y-51793214D01*
X136169642Y-51936071D01*
X138812500Y-51936071D02*
X137955357Y-51936071D01*
X138383928Y-51936071D02*
X138383928Y-50436071D01*
X138241071Y-50650357D01*
X138098214Y-50793214D01*
X137955357Y-50864642D01*
X139455357Y-51793214D02*
X139526785Y-51864642D01*
X139455357Y-51936071D01*
X139383928Y-51864642D01*
X139455357Y-51793214D01*
X139455357Y-51936071D01*
X140883928Y-50436071D02*
X140169642Y-50436071D01*
X140098214Y-51150357D01*
X140169642Y-51078928D01*
X140312500Y-51007500D01*
X140669642Y-51007500D01*
X140812500Y-51078928D01*
X140883928Y-51150357D01*
X140955357Y-51293214D01*
X140955357Y-51650357D01*
X140883928Y-51793214D01*
X140812500Y-51864642D01*
X140669642Y-51936071D01*
X140312500Y-51936071D01*
X140169642Y-51864642D01*
X140098214Y-51793214D01*
D10*
X150021428Y-60028571D02*
X150521428Y-61528571D01*
X151021428Y-60028571D01*
X151521428Y-60957142D02*
X152664285Y-60957142D01*
X152092857Y-61528571D02*
X152092857Y-60385714D01*
D11*
X153050000Y-67964285D02*
X152992857Y-68078571D01*
X152992857Y-68250000D01*
X153050000Y-68421428D01*
X153164285Y-68535714D01*
X153278571Y-68592857D01*
X153507142Y-68650000D01*
X153678571Y-68650000D01*
X153907142Y-68592857D01*
X154021428Y-68535714D01*
X154135714Y-68421428D01*
X154192857Y-68250000D01*
X154192857Y-68135714D01*
X154135714Y-67964285D01*
X154078571Y-67907142D01*
X153678571Y-67907142D01*
X153678571Y-68135714D01*
X154192857Y-67392857D02*
X152992857Y-67392857D01*
X154192857Y-66707142D01*
X152992857Y-66707142D01*
X154192857Y-66135714D02*
X152992857Y-66135714D01*
X152992857Y-65850000D01*
X153050000Y-65678571D01*
X153164285Y-65564285D01*
X153278571Y-65507142D01*
X153507142Y-65450000D01*
X153678571Y-65450000D01*
X153907142Y-65507142D01*
X154021428Y-65564285D01*
X154135714Y-65678571D01*
X154192857Y-65850000D01*
X154192857Y-66135714D01*
D12*
X137607142Y-60716666D02*
X137654761Y-60764285D01*
X137702380Y-60907142D01*
X137702380Y-61002380D01*
X137654761Y-61145238D01*
X137559523Y-61240476D01*
X137464285Y-61288095D01*
X137273809Y-61335714D01*
X137130952Y-61335714D01*
X136940476Y-61288095D01*
X136845238Y-61240476D01*
X136750000Y-61145238D01*
X136702380Y-61002380D01*
X136702380Y-60907142D01*
X136750000Y-60764285D01*
X136797619Y-60716666D01*
X136702380Y-59811904D02*
X136702380Y-60288095D01*
X137178571Y-60335714D01*
X137130952Y-60288095D01*
X137083333Y-60192857D01*
X137083333Y-59954761D01*
X137130952Y-59859523D01*
X137178571Y-59811904D01*
X137273809Y-59764285D01*
X137511904Y-59764285D01*
X137607142Y-59811904D01*
X137654761Y-59859523D01*
X137702380Y-59954761D01*
X137702380Y-60192857D01*
X137654761Y-60288095D01*
X137607142Y-60335714D01*
X139127142Y-73216666D02*
X139174761Y-73264285D01*
X139222380Y-73407142D01*
X139222380Y-73502380D01*
X139174761Y-73645238D01*
X139079523Y-73740476D01*
X138984285Y-73788095D01*
X138793809Y-73835714D01*
X138650952Y-73835714D01*
X138460476Y-73788095D01*
X138365238Y-73740476D01*
X138270000Y-73645238D01*
X138222380Y-73502380D01*
X138222380Y-73407142D01*
X138270000Y-73264285D01*
X138317619Y-73216666D01*
X138222380Y-72359523D02*
X138222380Y-72550000D01*
X138270000Y-72645238D01*
X138317619Y-72692857D01*
X138460476Y-72788095D01*
X138650952Y-72835714D01*
X139031904Y-72835714D01*
X139127142Y-72788095D01*
X139174761Y-72740476D01*
X139222380Y-72645238D01*
X139222380Y-72454761D01*
X139174761Y-72359523D01*
X139127142Y-72311904D01*
X139031904Y-72264285D01*
X138793809Y-72264285D01*
X138698571Y-72311904D01*
X138650952Y-72359523D01*
X138603333Y-72454761D01*
X138603333Y-72645238D01*
X138650952Y-72740476D01*
X138698571Y-72788095D01*
X138793809Y-72835714D01*
X121646542Y-69882366D02*
X121694161Y-69929985D01*
X121741780Y-70072842D01*
X121741780Y-70168080D01*
X121694161Y-70310938D01*
X121598923Y-70406176D01*
X121503685Y-70453795D01*
X121313209Y-70501414D01*
X121170352Y-70501414D01*
X120979876Y-70453795D01*
X120884638Y-70406176D01*
X120789400Y-70310938D01*
X120741780Y-70168080D01*
X120741780Y-70072842D01*
X120789400Y-69929985D01*
X120837019Y-69882366D01*
X121170352Y-69310938D02*
X121122733Y-69406176D01*
X121075114Y-69453795D01*
X120979876Y-69501414D01*
X120932257Y-69501414D01*
X120837019Y-69453795D01*
X120789400Y-69406176D01*
X120741780Y-69310938D01*
X120741780Y-69120461D01*
X120789400Y-69025223D01*
X120837019Y-68977604D01*
X120932257Y-68929985D01*
X120979876Y-68929985D01*
X121075114Y-68977604D01*
X121122733Y-69025223D01*
X121170352Y-69120461D01*
X121170352Y-69310938D01*
X121217971Y-69406176D01*
X121265590Y-69453795D01*
X121360828Y-69501414D01*
X121551304Y-69501414D01*
X121646542Y-69453795D01*
X121694161Y-69406176D01*
X121741780Y-69310938D01*
X121741780Y-69120461D01*
X121694161Y-69025223D01*
X121646542Y-68977604D01*
X121551304Y-68929985D01*
X121360828Y-68929985D01*
X121265590Y-68977604D01*
X121217971Y-69025223D01*
X121170352Y-69120461D01*
X131283333Y-74907142D02*
X131235714Y-74954761D01*
X131092857Y-75002380D01*
X130997619Y-75002380D01*
X130854761Y-74954761D01*
X130759523Y-74859523D01*
X130711904Y-74764285D01*
X130664285Y-74573809D01*
X130664285Y-74430952D01*
X130711904Y-74240476D01*
X130759523Y-74145238D01*
X130854761Y-74050000D01*
X130997619Y-74002380D01*
X131092857Y-74002380D01*
X131235714Y-74050000D01*
X131283333Y-74097619D01*
X131759523Y-75002380D02*
X131950000Y-75002380D01*
X132045238Y-74954761D01*
X132092857Y-74907142D01*
X132188095Y-74764285D01*
X132235714Y-74573809D01*
X132235714Y-74192857D01*
X132188095Y-74097619D01*
X132140476Y-74050000D01*
X132045238Y-74002380D01*
X131854761Y-74002380D01*
X131759523Y-74050000D01*
X131711904Y-74097619D01*
X131664285Y-74192857D01*
X131664285Y-74430952D01*
X131711904Y-74526190D01*
X131759523Y-74573809D01*
X131854761Y-74621428D01*
X132045238Y-74621428D01*
X132140476Y-74573809D01*
X132188095Y-74526190D01*
X132235714Y-74430952D01*
X123907142Y-62507142D02*
X123859523Y-62554761D01*
X123716666Y-62602380D01*
X123621428Y-62602380D01*
X123478571Y-62554761D01*
X123383333Y-62459523D01*
X123335714Y-62364285D01*
X123288095Y-62173809D01*
X123288095Y-62030952D01*
X123335714Y-61840476D01*
X123383333Y-61745238D01*
X123478571Y-61650000D01*
X123621428Y-61602380D01*
X123716666Y-61602380D01*
X123859523Y-61650000D01*
X123907142Y-61697619D01*
X124859523Y-62602380D02*
X124288095Y-62602380D01*
X124573809Y-62602380D02*
X124573809Y-61602380D01*
X124478571Y-61745238D01*
X124383333Y-61840476D01*
X124288095Y-61888095D01*
X125478571Y-61602380D02*
X125573809Y-61602380D01*
X125669047Y-61650000D01*
X125716666Y-61697619D01*
X125764285Y-61792857D01*
X125811904Y-61983333D01*
X125811904Y-62221428D01*
X125764285Y-62411904D01*
X125716666Y-62507142D01*
X125669047Y-62554761D01*
X125573809Y-62602380D01*
X125478571Y-62602380D01*
X125383333Y-62554761D01*
X125335714Y-62507142D01*
X125288095Y-62411904D01*
X125240476Y-62221428D01*
X125240476Y-61983333D01*
X125288095Y-61792857D01*
X125335714Y-61697619D01*
X125383333Y-61650000D01*
X125478571Y-61602380D01*
X119307142Y-66507142D02*
X119259523Y-66554761D01*
X119116666Y-66602380D01*
X119021428Y-66602380D01*
X118878571Y-66554761D01*
X118783333Y-66459523D01*
X118735714Y-66364285D01*
X118688095Y-66173809D01*
X118688095Y-66030952D01*
X118735714Y-65840476D01*
X118783333Y-65745238D01*
X118878571Y-65650000D01*
X119021428Y-65602380D01*
X119116666Y-65602380D01*
X119259523Y-65650000D01*
X119307142Y-65697619D01*
X120259523Y-66602380D02*
X119688095Y-66602380D01*
X119973809Y-66602380D02*
X119973809Y-65602380D01*
X119878571Y-65745238D01*
X119783333Y-65840476D01*
X119688095Y-65888095D01*
X121211904Y-66602380D02*
X120640476Y-66602380D01*
X120926190Y-66602380D02*
X120926190Y-65602380D01*
X120830952Y-65745238D01*
X120735714Y-65840476D01*
X120640476Y-65888095D01*
X131607142Y-65807142D02*
X131559523Y-65854761D01*
X131416666Y-65902380D01*
X131321428Y-65902380D01*
X131178571Y-65854761D01*
X131083333Y-65759523D01*
X131035714Y-65664285D01*
X130988095Y-65473809D01*
X130988095Y-65330952D01*
X131035714Y-65140476D01*
X131083333Y-65045238D01*
X131178571Y-64950000D01*
X131321428Y-64902380D01*
X131416666Y-64902380D01*
X131559523Y-64950000D01*
X131607142Y-64997619D01*
X132559523Y-65902380D02*
X131988095Y-65902380D01*
X132273809Y-65902380D02*
X132273809Y-64902380D01*
X132178571Y-65045238D01*
X132083333Y-65140476D01*
X131988095Y-65188095D01*
X132940476Y-64997619D02*
X132988095Y-64950000D01*
X133083333Y-64902380D01*
X133321428Y-64902380D01*
X133416666Y-64950000D01*
X133464285Y-64997619D01*
X133511904Y-65092857D01*
X133511904Y-65188095D01*
X133464285Y-65330952D01*
X132892857Y-65902380D01*
X133511904Y-65902380D01*
X124273733Y-67818280D02*
X123940400Y-67342090D01*
X123702304Y-67818280D02*
X123702304Y-66818280D01*
X124083257Y-66818280D01*
X124178495Y-66865900D01*
X124226114Y-66913519D01*
X124273733Y-67008757D01*
X124273733Y-67151614D01*
X124226114Y-67246852D01*
X124178495Y-67294471D01*
X124083257Y-67342090D01*
X123702304Y-67342090D01*
X124607066Y-66818280D02*
X125226114Y-66818280D01*
X124892780Y-67199233D01*
X125035638Y-67199233D01*
X125130876Y-67246852D01*
X125178495Y-67294471D01*
X125226114Y-67389709D01*
X125226114Y-67627804D01*
X125178495Y-67723042D01*
X125130876Y-67770661D01*
X125035638Y-67818280D01*
X124749923Y-67818280D01*
X124654685Y-67770661D01*
X124607066Y-67723042D01*
X144107142Y-60716666D02*
X144154761Y-60764285D01*
X144202380Y-60907142D01*
X144202380Y-61002380D01*
X144154761Y-61145238D01*
X144059523Y-61240476D01*
X143964285Y-61288095D01*
X143773809Y-61335714D01*
X143630952Y-61335714D01*
X143440476Y-61288095D01*
X143345238Y-61240476D01*
X143250000Y-61145238D01*
X143202380Y-61002380D01*
X143202380Y-60907142D01*
X143250000Y-60764285D01*
X143297619Y-60716666D01*
X144202380Y-59764285D02*
X144202380Y-60335714D01*
X144202380Y-60050000D02*
X143202380Y-60050000D01*
X143345238Y-60145238D01*
X143440476Y-60240476D01*
X143488095Y-60335714D01*
X146183333Y-76707142D02*
X146135714Y-76754761D01*
X145992857Y-76802380D01*
X145897619Y-76802380D01*
X145754761Y-76754761D01*
X145659523Y-76659523D01*
X145611904Y-76564285D01*
X145564285Y-76373809D01*
X145564285Y-76230952D01*
X145611904Y-76040476D01*
X145659523Y-75945238D01*
X145754761Y-75850000D01*
X145897619Y-75802380D01*
X145992857Y-75802380D01*
X146135714Y-75850000D01*
X146183333Y-75897619D01*
X146564285Y-75897619D02*
X146611904Y-75850000D01*
X146707142Y-75802380D01*
X146945238Y-75802380D01*
X147040476Y-75850000D01*
X147088095Y-75897619D01*
X147135714Y-75992857D01*
X147135714Y-76088095D01*
X147088095Y-76230952D01*
X146516666Y-76802380D01*
X147135714Y-76802380D01*
X140783333Y-64407142D02*
X140735714Y-64454761D01*
X140592857Y-64502380D01*
X140497619Y-64502380D01*
X140354761Y-64454761D01*
X140259523Y-64359523D01*
X140211904Y-64264285D01*
X140164285Y-64073809D01*
X140164285Y-63930952D01*
X140211904Y-63740476D01*
X140259523Y-63645238D01*
X140354761Y-63550000D01*
X140497619Y-63502380D01*
X140592857Y-63502380D01*
X140735714Y-63550000D01*
X140783333Y-63597619D01*
X141116666Y-63502380D02*
X141735714Y-63502380D01*
X141402380Y-63883333D01*
X141545238Y-63883333D01*
X141640476Y-63930952D01*
X141688095Y-63978571D01*
X141735714Y-64073809D01*
X141735714Y-64311904D01*
X141688095Y-64407142D01*
X141640476Y-64454761D01*
X141545238Y-64502380D01*
X141259523Y-64502380D01*
X141164285Y-64454761D01*
X141116666Y-64407142D01*
X143288095Y-63552380D02*
X143288095Y-64361904D01*
X143335714Y-64457142D01*
X143383333Y-64504761D01*
X143478571Y-64552380D01*
X143669047Y-64552380D01*
X143764285Y-64504761D01*
X143811904Y-64457142D01*
X143859523Y-64361904D01*
X143859523Y-63552380D01*
X144859523Y-64552380D02*
X144288095Y-64552380D01*
X144573809Y-64552380D02*
X144573809Y-63552380D01*
X144478571Y-63695238D01*
X144383333Y-63790476D01*
X144288095Y-63838095D01*
X147583333Y-66107142D02*
X147535714Y-66154761D01*
X147392857Y-66202380D01*
X147297619Y-66202380D01*
X147154761Y-66154761D01*
X147059523Y-66059523D01*
X147011904Y-65964285D01*
X146964285Y-65773809D01*
X146964285Y-65630952D01*
X147011904Y-65440476D01*
X147059523Y-65345238D01*
X147154761Y-65250000D01*
X147297619Y-65202380D01*
X147392857Y-65202380D01*
X147535714Y-65250000D01*
X147583333Y-65297619D01*
X148440476Y-65535714D02*
X148440476Y-66202380D01*
X148202380Y-65154761D02*
X147964285Y-65869047D01*
X148583333Y-65869047D01*
X128283333Y-62202380D02*
X127950000Y-61726190D01*
X127711904Y-62202380D02*
X127711904Y-61202380D01*
X128092857Y-61202380D01*
X128188095Y-61250000D01*
X128235714Y-61297619D01*
X128283333Y-61392857D01*
X128283333Y-61535714D01*
X128235714Y-61630952D01*
X128188095Y-61678571D01*
X128092857Y-61726190D01*
X127711904Y-61726190D01*
X129140476Y-61535714D02*
X129140476Y-62202380D01*
X128902380Y-61154761D02*
X128664285Y-61869047D01*
X129283333Y-61869047D01*
D13*
X127007619Y-44043333D02*
X129102857Y-44043333D01*
X126588571Y-45300476D02*
X128055238Y-40900476D01*
X129521904Y-45300476D01*
X130988571Y-45300476D02*
X130988571Y-40900476D01*
X132664761Y-40900476D01*
X133083809Y-41110000D01*
X133293333Y-41319523D01*
X133502857Y-41738571D01*
X133502857Y-42367142D01*
X133293333Y-42786190D01*
X133083809Y-42995714D01*
X132664761Y-43205238D01*
X130988571Y-43205238D01*
X138321904Y-45719523D02*
X137902857Y-45510000D01*
X137483809Y-45090952D01*
X136855238Y-44462380D01*
X136436190Y-44252857D01*
X136017142Y-44252857D01*
X136226666Y-45300476D02*
X135807619Y-45090952D01*
X135388571Y-44671904D01*
X135179047Y-43833809D01*
X135179047Y-42367142D01*
X135388571Y-41529047D01*
X135807619Y-41110000D01*
X136226666Y-40900476D01*
X137064761Y-40900476D01*
X137483809Y-41110000D01*
X137902857Y-41529047D01*
X138112380Y-42367142D01*
X138112380Y-43833809D01*
X137902857Y-44671904D01*
X137483809Y-45090952D01*
X137064761Y-45300476D01*
X136226666Y-45300476D01*
D12*
X111916666Y-68102380D02*
X111916666Y-68816666D01*
X111869047Y-68959523D01*
X111773809Y-69054761D01*
X111630952Y-69102380D01*
X111535714Y-69102380D01*
X112345238Y-68197619D02*
X112392857Y-68150000D01*
X112488095Y-68102380D01*
X112726190Y-68102380D01*
X112821428Y-68150000D01*
X112869047Y-68197619D01*
X112916666Y-68292857D01*
X112916666Y-68388095D01*
X112869047Y-68530952D01*
X112297619Y-69102380D01*
X112916666Y-69102380D01*
X137883333Y-66702380D02*
X137550000Y-66226190D01*
X137311904Y-66702380D02*
X137311904Y-65702380D01*
X137692857Y-65702380D01*
X137788095Y-65750000D01*
X137835714Y-65797619D01*
X137883333Y-65892857D01*
X137883333Y-66035714D01*
X137835714Y-66130952D01*
X137788095Y-66178571D01*
X137692857Y-66226190D01*
X137311904Y-66226190D01*
X138835714Y-66702380D02*
X138264285Y-66702380D01*
X138550000Y-66702380D02*
X138550000Y-65702380D01*
X138454761Y-65845238D01*
X138359523Y-65940476D01*
X138264285Y-65988095D01*
X134816666Y-67502380D02*
X134816666Y-68216666D01*
X134769047Y-68359523D01*
X134673809Y-68454761D01*
X134530952Y-68502380D01*
X134435714Y-68502380D01*
X135292857Y-68502380D02*
X135292857Y-67502380D01*
X135673809Y-67502380D01*
X135769047Y-67550000D01*
X135816666Y-67597619D01*
X135864285Y-67692857D01*
X135864285Y-67835714D01*
X135816666Y-67930952D01*
X135769047Y-67978571D01*
X135673809Y-68026190D01*
X135292857Y-68026190D01*
X136816666Y-68502380D02*
X136245238Y-68502380D01*
X136530952Y-68502380D02*
X136530952Y-67502380D01*
X136435714Y-67645238D01*
X136340476Y-67740476D01*
X136245238Y-67788095D01*
X127288095Y-66952380D02*
X127288095Y-67761904D01*
X127335714Y-67857142D01*
X127383333Y-67904761D01*
X127478571Y-67952380D01*
X127669047Y-67952380D01*
X127764285Y-67904761D01*
X127811904Y-67857142D01*
X127859523Y-67761904D01*
X127859523Y-66952380D01*
X128288095Y-67047619D02*
X128335714Y-67000000D01*
X128430952Y-66952380D01*
X128669047Y-66952380D01*
X128764285Y-67000000D01*
X128811904Y-67047619D01*
X128859523Y-67142857D01*
X128859523Y-67238095D01*
X128811904Y-67380952D01*
X128240476Y-67952380D01*
X128859523Y-67952380D01*
D14*
X138490000Y-61152064D02*
X138490000Y-59947936D01*
X141210000Y-61152064D02*
X141210000Y-59947936D01*
X139690000Y-73652064D02*
X139690000Y-72447936D01*
X142410000Y-73652064D02*
X142410000Y-72447936D01*
X122279400Y-69552921D02*
X122279400Y-69878479D01*
X123299400Y-69552921D02*
X123299400Y-69878479D01*
X128612779Y-74040000D02*
X128287221Y-74040000D01*
X128612779Y-75060000D02*
X128287221Y-75060000D01*
X123840000Y-64491422D02*
X123840000Y-65008578D01*
X125260000Y-64491422D02*
X125260000Y-65008578D01*
X117180000Y-64970000D02*
X122920000Y-64970000D01*
X117180000Y-57530000D02*
X122920000Y-57530000D01*
X122920000Y-64970000D02*
X122920000Y-57530000D01*
X117180000Y-64970000D02*
X117180000Y-57530000D01*
X132187221Y-66540000D02*
X132512779Y-66540000D01*
X132187221Y-67560000D02*
X132512779Y-67560000D01*
X123930400Y-69553121D02*
X123930400Y-69878679D01*
X124950400Y-69553121D02*
X124950400Y-69878679D01*
X147610000Y-61152064D02*
X147610000Y-59947936D01*
X144890000Y-61152064D02*
X144890000Y-59947936D01*
X145090000Y-73752064D02*
X145090000Y-72547936D01*
X147810000Y-73752064D02*
X147810000Y-72547936D01*
X140440000Y-66187221D02*
X140440000Y-66512779D01*
X141460000Y-66187221D02*
X141460000Y-66512779D01*
X142300000Y-65040000D02*
X145550000Y-65040000D01*
X142550000Y-69260000D02*
X145550000Y-69260000D01*
X148260000Y-67787221D02*
X148260000Y-68112779D01*
X147240000Y-67787221D02*
X147240000Y-68112779D01*
X152580000Y-65480000D02*
X152580000Y-70620000D01*
X149920000Y-65480000D02*
X149920000Y-70620000D01*
X149920000Y-65480000D02*
X152580000Y-65480000D01*
X149920000Y-64210000D02*
X149920000Y-62880000D01*
X149920000Y-70620000D02*
X152580000Y-70620000D01*
X149920000Y-62880000D02*
X151250000Y-62880000D01*
X127847936Y-64660000D02*
X129052064Y-64660000D01*
X127847936Y-62840000D02*
X129052064Y-62840000D01*
D15*
X121154000Y-43150000D02*
G75*
G03*
X121154000Y-43150000I-254000J0D01*
G01*
X125154000Y-45150000D02*
G75*
G03*
X125154000Y-45150000I-254000J0D01*
G01*
X123154000Y-43150000D02*
G75*
G03*
X123154000Y-43150000I-254000J0D01*
G01*
X121154000Y-41150000D02*
G75*
G03*
X121154000Y-41150000I-254000J0D01*
G01*
X125154000Y-43150000D02*
G75*
G03*
X125154000Y-43150000I-254000J0D01*
G01*
X121154000Y-45150000D02*
G75*
G03*
X121154000Y-45150000I-254000J0D01*
G01*
X125154000Y-41150000D02*
G75*
G03*
X125154000Y-41150000I-254000J0D01*
G01*
X123154000Y-45150000D02*
G75*
G03*
X123154000Y-45150000I-254000J0D01*
G01*
X123154000Y-41150000D02*
G75*
G03*
X123154000Y-41150000I-254000J0D01*
G01*
D14*
X110650000Y-60150000D02*
X113850000Y-60150000D01*
X115450000Y-65050000D02*
X115450000Y-62450000D01*
X110650000Y-67350000D02*
X113850000Y-67350000D01*
X108570000Y-65550000D02*
X108570000Y-61950000D01*
X137427500Y-68787258D02*
X137427500Y-68312742D01*
X138472500Y-68787258D02*
X138472500Y-68312742D01*
X136050000Y-71850000D02*
X135450000Y-71850000D01*
X134750000Y-71150000D02*
X134750000Y-69750000D01*
X135450000Y-69050000D02*
X136050000Y-69050000D01*
X136750000Y-69750000D02*
X136750000Y-71150000D01*
X136050000Y-71850000D02*
G75*
G03*
X136750000Y-71150000I1J699999D01*
G01*
X136750000Y-69750000D02*
G75*
G03*
X136050000Y-69050000I-699999J1D01*
G01*
X135450000Y-69050000D02*
G75*
G03*
X134750000Y-69750000I-1J-699999D01*
G01*
X134750000Y-71150000D02*
G75*
G03*
X135450000Y-71850000I699999J-1D01*
G01*
X130141200Y-68340000D02*
X132091200Y-68340000D01*
X130141200Y-73460000D02*
X132091200Y-73460000D01*
X130141200Y-73460000D02*
X128191200Y-73460000D01*
X130141200Y-68340000D02*
X126691200Y-68340000D01*
M02*
