%TF.GenerationSoftware,KiCad,Pcbnew,(6.0.7)*%
%TF.CreationDate,2023-08-04T14:01:42+02:00*%
%TF.ProjectId,SFH203_photodetector,53464832-3033-45f7-9068-6f746f646574,2.2.1*%
%TF.SameCoordinates,Original*%
%TF.FileFunction,AssemblyDrawing,Top*%
%FSLAX46Y46*%
G04 Gerber Fmt 4.6, Leading zero omitted, Abs format (unit mm)*
G04 Created by KiCad (PCBNEW (6.0.7)) date 2023-08-04 14:01:42*
%MOMM*%
%LPD*%
G01*
G04 APERTURE LIST*
%ADD10C,0.150000*%
%ADD11C,0.300000*%
%ADD12C,0.060000*%
%ADD13C,0.120000*%
%ADD14C,0.100000*%
G04 APERTURE END LIST*
D10*
X184954642Y-70971071D02*
X184954642Y-69471071D01*
X185526071Y-69471071D01*
X185668928Y-69542500D01*
X185740357Y-69613928D01*
X185811785Y-69756785D01*
X185811785Y-69971071D01*
X185740357Y-70113928D01*
X185668928Y-70185357D01*
X185526071Y-70256785D01*
X184954642Y-70256785D01*
X186668928Y-70971071D02*
X186526071Y-70899642D01*
X186454642Y-70756785D01*
X186454642Y-69471071D01*
X187883214Y-70971071D02*
X187883214Y-70185357D01*
X187811785Y-70042500D01*
X187668928Y-69971071D01*
X187383214Y-69971071D01*
X187240357Y-70042500D01*
X187883214Y-70899642D02*
X187740357Y-70971071D01*
X187383214Y-70971071D01*
X187240357Y-70899642D01*
X187168928Y-70756785D01*
X187168928Y-70613928D01*
X187240357Y-70471071D01*
X187383214Y-70399642D01*
X187740357Y-70399642D01*
X187883214Y-70328214D01*
X189240357Y-70899642D02*
X189097500Y-70971071D01*
X188811785Y-70971071D01*
X188668928Y-70899642D01*
X188597500Y-70828214D01*
X188526071Y-70685357D01*
X188526071Y-70256785D01*
X188597500Y-70113928D01*
X188668928Y-70042500D01*
X188811785Y-69971071D01*
X189097500Y-69971071D01*
X189240357Y-70042500D01*
X190454642Y-70899642D02*
X190311785Y-70971071D01*
X190026071Y-70971071D01*
X189883214Y-70899642D01*
X189811785Y-70756785D01*
X189811785Y-70185357D01*
X189883214Y-70042500D01*
X190026071Y-69971071D01*
X190311785Y-69971071D01*
X190454642Y-70042500D01*
X190526071Y-70185357D01*
X190526071Y-70328214D01*
X189811785Y-70471071D01*
X192883214Y-70899642D02*
X192740357Y-70971071D01*
X192454642Y-70971071D01*
X192311785Y-70899642D01*
X192240357Y-70756785D01*
X192240357Y-70185357D01*
X192311785Y-70042500D01*
X192454642Y-69971071D01*
X192740357Y-69971071D01*
X192883214Y-70042500D01*
X192954642Y-70185357D01*
X192954642Y-70328214D01*
X192240357Y-70471071D01*
X194240357Y-70971071D02*
X194240357Y-69471071D01*
X194240357Y-70899642D02*
X194097500Y-70971071D01*
X193811785Y-70971071D01*
X193668928Y-70899642D01*
X193597500Y-70828214D01*
X193526071Y-70685357D01*
X193526071Y-70256785D01*
X193597500Y-70113928D01*
X193668928Y-70042500D01*
X193811785Y-69971071D01*
X194097500Y-69971071D01*
X194240357Y-70042500D01*
X195597500Y-69971071D02*
X195597500Y-71185357D01*
X195526071Y-71328214D01*
X195454642Y-71399642D01*
X195311785Y-71471071D01*
X195097500Y-71471071D01*
X194954642Y-71399642D01*
X195597500Y-70899642D02*
X195454642Y-70971071D01*
X195168928Y-70971071D01*
X195026071Y-70899642D01*
X194954642Y-70828214D01*
X194883214Y-70685357D01*
X194883214Y-70256785D01*
X194954642Y-70113928D01*
X195026071Y-70042500D01*
X195168928Y-69971071D01*
X195454642Y-69971071D01*
X195597500Y-70042500D01*
X196883214Y-70899642D02*
X196740357Y-70971071D01*
X196454642Y-70971071D01*
X196311785Y-70899642D01*
X196240357Y-70756785D01*
X196240357Y-70185357D01*
X196311785Y-70042500D01*
X196454642Y-69971071D01*
X196740357Y-69971071D01*
X196883214Y-70042500D01*
X196954642Y-70185357D01*
X196954642Y-70328214D01*
X196240357Y-70471071D01*
X197597500Y-70399642D02*
X198740357Y-70399642D01*
X199454642Y-70971071D02*
X199454642Y-69971071D01*
X199454642Y-70113928D02*
X199526071Y-70042500D01*
X199668928Y-69971071D01*
X199883214Y-69971071D01*
X200026071Y-70042500D01*
X200097500Y-70185357D01*
X200097500Y-70971071D01*
X200097500Y-70185357D02*
X200168928Y-70042500D01*
X200311785Y-69971071D01*
X200526071Y-69971071D01*
X200668928Y-70042500D01*
X200740357Y-70185357D01*
X200740357Y-70971071D01*
X201668928Y-70971071D02*
X201526071Y-70899642D01*
X201454642Y-70828214D01*
X201383214Y-70685357D01*
X201383214Y-70256785D01*
X201454642Y-70113928D01*
X201526071Y-70042500D01*
X201668928Y-69971071D01*
X201883214Y-69971071D01*
X202026071Y-70042500D01*
X202097500Y-70113928D01*
X202168928Y-70256785D01*
X202168928Y-70685357D01*
X202097500Y-70828214D01*
X202026071Y-70899642D01*
X201883214Y-70971071D01*
X201668928Y-70971071D01*
X203454642Y-69971071D02*
X203454642Y-70971071D01*
X202811785Y-69971071D02*
X202811785Y-70756785D01*
X202883214Y-70899642D01*
X203026071Y-70971071D01*
X203240357Y-70971071D01*
X203383214Y-70899642D01*
X203454642Y-70828214D01*
X204168928Y-69971071D02*
X204168928Y-70971071D01*
X204168928Y-70113928D02*
X204240357Y-70042500D01*
X204383214Y-69971071D01*
X204597500Y-69971071D01*
X204740357Y-70042500D01*
X204811785Y-70185357D01*
X204811785Y-70971071D01*
X205311785Y-69971071D02*
X205883214Y-69971071D01*
X205526071Y-69471071D02*
X205526071Y-70756785D01*
X205597500Y-70899642D01*
X205740357Y-70971071D01*
X205883214Y-70971071D01*
X207454642Y-70899642D02*
X207668928Y-70971071D01*
X208026071Y-70971071D01*
X208168928Y-70899642D01*
X208240357Y-70828214D01*
X208311785Y-70685357D01*
X208311785Y-70542500D01*
X208240357Y-70399642D01*
X208168928Y-70328214D01*
X208026071Y-70256785D01*
X207740357Y-70185357D01*
X207597500Y-70113928D01*
X207526071Y-70042500D01*
X207454642Y-69899642D01*
X207454642Y-69756785D01*
X207526071Y-69613928D01*
X207597500Y-69542500D01*
X207740357Y-69471071D01*
X208097500Y-69471071D01*
X208311785Y-69542500D01*
X208954642Y-70971071D02*
X208954642Y-69471071D01*
X209454642Y-70542500D01*
X209954642Y-69471071D01*
X209954642Y-70971071D01*
X210597500Y-70542500D02*
X211311785Y-70542500D01*
X210454642Y-70971071D02*
X210954642Y-69471071D01*
X211454642Y-70971071D01*
X213740357Y-70899642D02*
X213597500Y-70971071D01*
X213311785Y-70971071D01*
X213168928Y-70899642D01*
X213097500Y-70828214D01*
X213026071Y-70685357D01*
X213026071Y-70256785D01*
X213097500Y-70113928D01*
X213168928Y-70042500D01*
X213311785Y-69971071D01*
X213597500Y-69971071D01*
X213740357Y-70042500D01*
X214597500Y-70971071D02*
X214454642Y-70899642D01*
X214383214Y-70828214D01*
X214311785Y-70685357D01*
X214311785Y-70256785D01*
X214383214Y-70113928D01*
X214454642Y-70042500D01*
X214597500Y-69971071D01*
X214811785Y-69971071D01*
X214954642Y-70042500D01*
X215026071Y-70113928D01*
X215097500Y-70256785D01*
X215097500Y-70685357D01*
X215026071Y-70828214D01*
X214954642Y-70899642D01*
X214811785Y-70971071D01*
X214597500Y-70971071D01*
X215740357Y-69971071D02*
X215740357Y-70971071D01*
X215740357Y-70113928D02*
X215811785Y-70042500D01*
X215954642Y-69971071D01*
X216168928Y-69971071D01*
X216311785Y-70042500D01*
X216383214Y-70185357D01*
X216383214Y-70971071D01*
X217097500Y-69971071D02*
X217097500Y-70971071D01*
X217097500Y-70113928D02*
X217168928Y-70042500D01*
X217311785Y-69971071D01*
X217526071Y-69971071D01*
X217668928Y-70042500D01*
X217740357Y-70185357D01*
X217740357Y-70971071D01*
X219026071Y-70899642D02*
X218883214Y-70971071D01*
X218597500Y-70971071D01*
X218454642Y-70899642D01*
X218383214Y-70756785D01*
X218383214Y-70185357D01*
X218454642Y-70042500D01*
X218597500Y-69971071D01*
X218883214Y-69971071D01*
X219026071Y-70042500D01*
X219097500Y-70185357D01*
X219097500Y-70328214D01*
X218383214Y-70471071D01*
X220383214Y-70899642D02*
X220240357Y-70971071D01*
X219954642Y-70971071D01*
X219811785Y-70899642D01*
X219740357Y-70828214D01*
X219668928Y-70685357D01*
X219668928Y-70256785D01*
X219740357Y-70113928D01*
X219811785Y-70042500D01*
X219954642Y-69971071D01*
X220240357Y-69971071D01*
X220383214Y-70042500D01*
X220811785Y-69971071D02*
X221383214Y-69971071D01*
X221026071Y-69471071D02*
X221026071Y-70756785D01*
X221097500Y-70899642D01*
X221240357Y-70971071D01*
X221383214Y-70971071D01*
X222097500Y-70971071D02*
X221954642Y-70899642D01*
X221883214Y-70828214D01*
X221811785Y-70685357D01*
X221811785Y-70256785D01*
X221883214Y-70113928D01*
X221954642Y-70042500D01*
X222097500Y-69971071D01*
X222311785Y-69971071D01*
X222454642Y-70042500D01*
X222526071Y-70113928D01*
X222597500Y-70256785D01*
X222597500Y-70685357D01*
X222526071Y-70828214D01*
X222454642Y-70899642D01*
X222311785Y-70971071D01*
X222097500Y-70971071D01*
X223240357Y-70971071D02*
X223240357Y-69971071D01*
X223240357Y-70256785D02*
X223311785Y-70113928D01*
X223383214Y-70042500D01*
X223526071Y-69971071D01*
X223668928Y-69971071D01*
X185597500Y-73314642D02*
X185454642Y-73386071D01*
X185168928Y-73386071D01*
X185026071Y-73314642D01*
X184954642Y-73243214D01*
X184883214Y-73100357D01*
X184883214Y-72671785D01*
X184954642Y-72528928D01*
X185026071Y-72457500D01*
X185168928Y-72386071D01*
X185454642Y-72386071D01*
X185597500Y-72457500D01*
X186811785Y-73314642D02*
X186668928Y-73386071D01*
X186383214Y-73386071D01*
X186240357Y-73314642D01*
X186168928Y-73171785D01*
X186168928Y-72600357D01*
X186240357Y-72457500D01*
X186383214Y-72386071D01*
X186668928Y-72386071D01*
X186811785Y-72457500D01*
X186883214Y-72600357D01*
X186883214Y-72743214D01*
X186168928Y-72886071D01*
X187526071Y-72386071D02*
X187526071Y-73386071D01*
X187526071Y-72528928D02*
X187597500Y-72457500D01*
X187740357Y-72386071D01*
X187954642Y-72386071D01*
X188097500Y-72457500D01*
X188168928Y-72600357D01*
X188168928Y-73386071D01*
X188668928Y-72386071D02*
X189240357Y-72386071D01*
X188883214Y-71886071D02*
X188883214Y-73171785D01*
X188954642Y-73314642D01*
X189097500Y-73386071D01*
X189240357Y-73386071D01*
X190311785Y-73314642D02*
X190168928Y-73386071D01*
X189883214Y-73386071D01*
X189740357Y-73314642D01*
X189668928Y-73171785D01*
X189668928Y-72600357D01*
X189740357Y-72457500D01*
X189883214Y-72386071D01*
X190168928Y-72386071D01*
X190311785Y-72457500D01*
X190383214Y-72600357D01*
X190383214Y-72743214D01*
X189668928Y-72886071D01*
X191026071Y-73386071D02*
X191026071Y-72386071D01*
X191026071Y-72671785D02*
X191097500Y-72528928D01*
X191168928Y-72457500D01*
X191311785Y-72386071D01*
X191454642Y-72386071D01*
X192526071Y-73314642D02*
X192383214Y-73386071D01*
X192097500Y-73386071D01*
X191954642Y-73314642D01*
X191883214Y-73171785D01*
X191883214Y-72600357D01*
X191954642Y-72457500D01*
X192097500Y-72386071D01*
X192383214Y-72386071D01*
X192526071Y-72457500D01*
X192597500Y-72600357D01*
X192597500Y-72743214D01*
X191883214Y-72886071D01*
X193883214Y-73386071D02*
X193883214Y-71886071D01*
X193883214Y-73314642D02*
X193740357Y-73386071D01*
X193454642Y-73386071D01*
X193311785Y-73314642D01*
X193240357Y-73243214D01*
X193168928Y-73100357D01*
X193168928Y-72671785D01*
X193240357Y-72528928D01*
X193311785Y-72457500D01*
X193454642Y-72386071D01*
X193740357Y-72386071D01*
X193883214Y-72457500D01*
X195597500Y-72386071D02*
X195883214Y-73386071D01*
X196168928Y-72671785D01*
X196454642Y-73386071D01*
X196740357Y-72386071D01*
X197311785Y-73386071D02*
X197311785Y-72386071D01*
X197311785Y-71886071D02*
X197240357Y-71957500D01*
X197311785Y-72028928D01*
X197383214Y-71957500D01*
X197311785Y-71886071D01*
X197311785Y-72028928D01*
X197811785Y-72386071D02*
X198383214Y-72386071D01*
X198026071Y-71886071D02*
X198026071Y-73171785D01*
X198097500Y-73314642D01*
X198240357Y-73386071D01*
X198383214Y-73386071D01*
X198883214Y-73386071D02*
X198883214Y-71886071D01*
X199526071Y-73386071D02*
X199526071Y-72600357D01*
X199454642Y-72457500D01*
X199311785Y-72386071D01*
X199097500Y-72386071D01*
X198954642Y-72457500D01*
X198883214Y-72528928D01*
X200240357Y-73386071D02*
X200240357Y-72386071D01*
X200240357Y-71886071D02*
X200168928Y-71957500D01*
X200240357Y-72028928D01*
X200311785Y-71957500D01*
X200240357Y-71886071D01*
X200240357Y-72028928D01*
X200954642Y-72386071D02*
X200954642Y-73386071D01*
X200954642Y-72528928D02*
X201026071Y-72457500D01*
X201168928Y-72386071D01*
X201383214Y-72386071D01*
X201526071Y-72457500D01*
X201597500Y-72600357D01*
X201597500Y-73386071D01*
X203454642Y-72814642D02*
X204597500Y-72814642D01*
X204026071Y-73386071D02*
X204026071Y-72243214D01*
X206383214Y-71814642D02*
X205097500Y-73743214D01*
X206883214Y-72814642D02*
X208026071Y-72814642D01*
X209026071Y-71886071D02*
X209168928Y-71886071D01*
X209311785Y-71957500D01*
X209383214Y-72028928D01*
X209454642Y-72171785D01*
X209526071Y-72457500D01*
X209526071Y-72814642D01*
X209454642Y-73100357D01*
X209383214Y-73243214D01*
X209311785Y-73314642D01*
X209168928Y-73386071D01*
X209026071Y-73386071D01*
X208883214Y-73314642D01*
X208811785Y-73243214D01*
X208740357Y-73100357D01*
X208668928Y-72814642D01*
X208668928Y-72457500D01*
X208740357Y-72171785D01*
X208811785Y-72028928D01*
X208883214Y-71957500D01*
X209026071Y-71886071D01*
X210168928Y-73243214D02*
X210240357Y-73314642D01*
X210168928Y-73386071D01*
X210097500Y-73314642D01*
X210168928Y-73243214D01*
X210168928Y-73386071D01*
X210740357Y-71886071D02*
X211668928Y-71886071D01*
X211168928Y-72457500D01*
X211383214Y-72457500D01*
X211526071Y-72528928D01*
X211597500Y-72600357D01*
X211668928Y-72743214D01*
X211668928Y-73100357D01*
X211597500Y-73243214D01*
X211526071Y-73314642D01*
X211383214Y-73386071D01*
X210954642Y-73386071D01*
X210811785Y-73314642D01*
X210740357Y-73243214D01*
X212311785Y-73386071D02*
X212311785Y-72386071D01*
X212311785Y-72528928D02*
X212383214Y-72457500D01*
X212526071Y-72386071D01*
X212740357Y-72386071D01*
X212883214Y-72457500D01*
X212954642Y-72600357D01*
X212954642Y-73386071D01*
X212954642Y-72600357D02*
X213026071Y-72457500D01*
X213168928Y-72386071D01*
X213383214Y-72386071D01*
X213526071Y-72457500D01*
X213597500Y-72600357D01*
X213597500Y-73386071D01*
X214311785Y-73386071D02*
X214311785Y-72386071D01*
X214311785Y-72528928D02*
X214383214Y-72457500D01*
X214526071Y-72386071D01*
X214740357Y-72386071D01*
X214883214Y-72457500D01*
X214954642Y-72600357D01*
X214954642Y-73386071D01*
X214954642Y-72600357D02*
X215026071Y-72457500D01*
X215168928Y-72386071D01*
X215383214Y-72386071D01*
X215526071Y-72457500D01*
X215597500Y-72600357D01*
X215597500Y-73386071D01*
X217668928Y-73386071D02*
X217526071Y-73314642D01*
X217454642Y-73243214D01*
X217383214Y-73100357D01*
X217383214Y-72671785D01*
X217454642Y-72528928D01*
X217526071Y-72457500D01*
X217668928Y-72386071D01*
X217883214Y-72386071D01*
X218026071Y-72457500D01*
X218097500Y-72528928D01*
X218168928Y-72671785D01*
X218168928Y-73100357D01*
X218097500Y-73243214D01*
X218026071Y-73314642D01*
X217883214Y-73386071D01*
X217668928Y-73386071D01*
X218811785Y-72386071D02*
X218811785Y-73386071D01*
X218811785Y-72528928D02*
X218883214Y-72457500D01*
X219026071Y-72386071D01*
X219240357Y-72386071D01*
X219383214Y-72457500D01*
X219454642Y-72600357D01*
X219454642Y-73386071D01*
X221954642Y-73314642D02*
X221811785Y-73386071D01*
X221526071Y-73386071D01*
X221383214Y-73314642D01*
X221311785Y-73243214D01*
X221240357Y-73100357D01*
X221240357Y-72671785D01*
X221311785Y-72528928D01*
X221383214Y-72457500D01*
X221526071Y-72386071D01*
X221811785Y-72386071D01*
X221954642Y-72457500D01*
X223168928Y-73314642D02*
X223026071Y-73386071D01*
X222740357Y-73386071D01*
X222597500Y-73314642D01*
X222526071Y-73171785D01*
X222526071Y-72600357D01*
X222597500Y-72457500D01*
X222740357Y-72386071D01*
X223026071Y-72386071D01*
X223168928Y-72457500D01*
X223240357Y-72600357D01*
X223240357Y-72743214D01*
X222526071Y-72886071D01*
X223883214Y-72386071D02*
X223883214Y-73386071D01*
X223883214Y-72528928D02*
X223954642Y-72457500D01*
X224097500Y-72386071D01*
X224311785Y-72386071D01*
X224454642Y-72457500D01*
X224526071Y-72600357D01*
X224526071Y-73386071D01*
X225026071Y-72386071D02*
X225597500Y-72386071D01*
X225240357Y-71886071D02*
X225240357Y-73171785D01*
X225311785Y-73314642D01*
X225454642Y-73386071D01*
X225597500Y-73386071D01*
X226097500Y-73386071D02*
X226097500Y-72386071D01*
X226097500Y-72671785D02*
X226168928Y-72528928D01*
X226240357Y-72457500D01*
X226383214Y-72386071D01*
X226526071Y-72386071D01*
X227668928Y-73386071D02*
X227668928Y-72600357D01*
X227597500Y-72457500D01*
X227454642Y-72386071D01*
X227168928Y-72386071D01*
X227026071Y-72457500D01*
X227668928Y-73314642D02*
X227526071Y-73386071D01*
X227168928Y-73386071D01*
X227026071Y-73314642D01*
X226954642Y-73171785D01*
X226954642Y-73028928D01*
X227026071Y-72886071D01*
X227168928Y-72814642D01*
X227526071Y-72814642D01*
X227668928Y-72743214D01*
X228597500Y-73386071D02*
X228454642Y-73314642D01*
X228383214Y-73171785D01*
X228383214Y-71886071D01*
X230311785Y-72386071D02*
X230311785Y-73886071D01*
X230311785Y-72457500D02*
X230454642Y-72386071D01*
X230740357Y-72386071D01*
X230883214Y-72457500D01*
X230954642Y-72528928D01*
X231026071Y-72671785D01*
X231026071Y-73100357D01*
X230954642Y-73243214D01*
X230883214Y-73314642D01*
X230740357Y-73386071D01*
X230454642Y-73386071D01*
X230311785Y-73314642D01*
X232311785Y-73386071D02*
X232311785Y-72600357D01*
X232240357Y-72457500D01*
X232097500Y-72386071D01*
X231811785Y-72386071D01*
X231668928Y-72457500D01*
X232311785Y-73314642D02*
X232168928Y-73386071D01*
X231811785Y-73386071D01*
X231668928Y-73314642D01*
X231597500Y-73171785D01*
X231597500Y-73028928D01*
X231668928Y-72886071D01*
X231811785Y-72814642D01*
X232168928Y-72814642D01*
X232311785Y-72743214D01*
X233668928Y-73386071D02*
X233668928Y-71886071D01*
X233668928Y-73314642D02*
X233526071Y-73386071D01*
X233240357Y-73386071D01*
X233097500Y-73314642D01*
X233026071Y-73243214D01*
X232954642Y-73100357D01*
X232954642Y-72671785D01*
X233026071Y-72528928D01*
X233097500Y-72457500D01*
X233240357Y-72386071D01*
X233526071Y-72386071D01*
X233668928Y-72457500D01*
D11*
X230352142Y-91288571D02*
X230352142Y-89788571D01*
X230852142Y-90860000D01*
X231352142Y-89788571D01*
X231352142Y-91288571D01*
X232709285Y-91288571D02*
X232709285Y-90502857D01*
X232637857Y-90360000D01*
X232495000Y-90288571D01*
X232209285Y-90288571D01*
X232066428Y-90360000D01*
X232709285Y-91217142D02*
X232566428Y-91288571D01*
X232209285Y-91288571D01*
X232066428Y-91217142D01*
X231995000Y-91074285D01*
X231995000Y-90931428D01*
X232066428Y-90788571D01*
X232209285Y-90717142D01*
X232566428Y-90717142D01*
X232709285Y-90645714D01*
X233423571Y-90288571D02*
X233423571Y-91288571D01*
X233423571Y-90431428D02*
X233495000Y-90360000D01*
X233637857Y-90288571D01*
X233852142Y-90288571D01*
X233995000Y-90360000D01*
X234066428Y-90502857D01*
X234066428Y-91288571D01*
X235423571Y-90288571D02*
X235423571Y-91288571D01*
X234780714Y-90288571D02*
X234780714Y-91074285D01*
X234852142Y-91217142D01*
X234995000Y-91288571D01*
X235209285Y-91288571D01*
X235352142Y-91217142D01*
X235423571Y-91145714D01*
X235923571Y-90288571D02*
X236495000Y-90288571D01*
X236137857Y-91288571D02*
X236137857Y-90002857D01*
X236209285Y-89860000D01*
X236352142Y-89788571D01*
X236495000Y-89788571D01*
X237637857Y-91288571D02*
X237637857Y-90502857D01*
X237566428Y-90360000D01*
X237423571Y-90288571D01*
X237137857Y-90288571D01*
X236995000Y-90360000D01*
X237637857Y-91217142D02*
X237495000Y-91288571D01*
X237137857Y-91288571D01*
X236995000Y-91217142D01*
X236923571Y-91074285D01*
X236923571Y-90931428D01*
X236995000Y-90788571D01*
X237137857Y-90717142D01*
X237495000Y-90717142D01*
X237637857Y-90645714D01*
X238995000Y-91217142D02*
X238852142Y-91288571D01*
X238566428Y-91288571D01*
X238423571Y-91217142D01*
X238352142Y-91145714D01*
X238280714Y-91002857D01*
X238280714Y-90574285D01*
X238352142Y-90431428D01*
X238423571Y-90360000D01*
X238566428Y-90288571D01*
X238852142Y-90288571D01*
X238995000Y-90360000D01*
X239423571Y-90288571D02*
X239995000Y-90288571D01*
X239637857Y-89788571D02*
X239637857Y-91074285D01*
X239709285Y-91217142D01*
X239852142Y-91288571D01*
X239995000Y-91288571D01*
X241137857Y-90288571D02*
X241137857Y-91288571D01*
X240495000Y-90288571D02*
X240495000Y-91074285D01*
X240566428Y-91217142D01*
X240709285Y-91288571D01*
X240923571Y-91288571D01*
X241066428Y-91217142D01*
X241137857Y-91145714D01*
X241852142Y-91288571D02*
X241852142Y-90288571D01*
X241852142Y-90574285D02*
X241923571Y-90431428D01*
X241995000Y-90360000D01*
X242137857Y-90288571D01*
X242280714Y-90288571D01*
X242780714Y-91288571D02*
X242780714Y-90288571D01*
X242780714Y-89788571D02*
X242709285Y-89860000D01*
X242780714Y-89931428D01*
X242852142Y-89860000D01*
X242780714Y-89788571D01*
X242780714Y-89931428D01*
X243495000Y-90288571D02*
X243495000Y-91288571D01*
X243495000Y-90431428D02*
X243566428Y-90360000D01*
X243709285Y-90288571D01*
X243923571Y-90288571D01*
X244066428Y-90360000D01*
X244137857Y-90502857D01*
X244137857Y-91288571D01*
X245495000Y-90288571D02*
X245495000Y-91502857D01*
X245423571Y-91645714D01*
X245352142Y-91717142D01*
X245209285Y-91788571D01*
X244995000Y-91788571D01*
X244852142Y-91717142D01*
X245495000Y-91217142D02*
X245352142Y-91288571D01*
X245066428Y-91288571D01*
X244923571Y-91217142D01*
X244852142Y-91145714D01*
X244780714Y-91002857D01*
X244780714Y-90574285D01*
X244852142Y-90431428D01*
X244923571Y-90360000D01*
X245066428Y-90288571D01*
X245352142Y-90288571D01*
X245495000Y-90360000D01*
X247352142Y-91288571D02*
X247352142Y-90288571D01*
X247352142Y-89788571D02*
X247280714Y-89860000D01*
X247352142Y-89931428D01*
X247423571Y-89860000D01*
X247352142Y-89788571D01*
X247352142Y-89931428D01*
X248066428Y-90288571D02*
X248066428Y-91288571D01*
X248066428Y-90431428D02*
X248137857Y-90360000D01*
X248280714Y-90288571D01*
X248495000Y-90288571D01*
X248637857Y-90360000D01*
X248709285Y-90502857D01*
X248709285Y-91288571D01*
X249352142Y-91217142D02*
X249495000Y-91288571D01*
X249780714Y-91288571D01*
X249923571Y-91217142D01*
X249995000Y-91074285D01*
X249995000Y-91002857D01*
X249923571Y-90860000D01*
X249780714Y-90788571D01*
X249566428Y-90788571D01*
X249423571Y-90717142D01*
X249352142Y-90574285D01*
X249352142Y-90502857D01*
X249423571Y-90360000D01*
X249566428Y-90288571D01*
X249780714Y-90288571D01*
X249923571Y-90360000D01*
X250423571Y-90288571D02*
X250995000Y-90288571D01*
X250637857Y-89788571D02*
X250637857Y-91074285D01*
X250709285Y-91217142D01*
X250852142Y-91288571D01*
X250995000Y-91288571D01*
X251495000Y-91288571D02*
X251495000Y-90288571D01*
X251495000Y-90574285D02*
X251566428Y-90431428D01*
X251637857Y-90360000D01*
X251780714Y-90288571D01*
X251923571Y-90288571D01*
X253066428Y-90288571D02*
X253066428Y-91288571D01*
X252423571Y-90288571D02*
X252423571Y-91074285D01*
X252495000Y-91217142D01*
X252637857Y-91288571D01*
X252852142Y-91288571D01*
X252995000Y-91217142D01*
X253066428Y-91145714D01*
X254423571Y-91217142D02*
X254280714Y-91288571D01*
X253995000Y-91288571D01*
X253852142Y-91217142D01*
X253780714Y-91145714D01*
X253709285Y-91002857D01*
X253709285Y-90574285D01*
X253780714Y-90431428D01*
X253852142Y-90360000D01*
X253995000Y-90288571D01*
X254280714Y-90288571D01*
X254423571Y-90360000D01*
X254852142Y-90288571D02*
X255423571Y-90288571D01*
X255066428Y-89788571D02*
X255066428Y-91074285D01*
X255137857Y-91217142D01*
X255280714Y-91288571D01*
X255423571Y-91288571D01*
X255923571Y-91288571D02*
X255923571Y-90288571D01*
X255923571Y-89788571D02*
X255852142Y-89860000D01*
X255923571Y-89931428D01*
X255995000Y-89860000D01*
X255923571Y-89788571D01*
X255923571Y-89931428D01*
X256852142Y-91288571D02*
X256709285Y-91217142D01*
X256637857Y-91145714D01*
X256566428Y-91002857D01*
X256566428Y-90574285D01*
X256637857Y-90431428D01*
X256709285Y-90360000D01*
X256852142Y-90288571D01*
X257066428Y-90288571D01*
X257209285Y-90360000D01*
X257280714Y-90431428D01*
X257352142Y-90574285D01*
X257352142Y-91002857D01*
X257280714Y-91145714D01*
X257209285Y-91217142D01*
X257066428Y-91288571D01*
X256852142Y-91288571D01*
X257995000Y-90288571D02*
X257995000Y-91288571D01*
X257995000Y-90431428D02*
X258066428Y-90360000D01*
X258209285Y-90288571D01*
X258423571Y-90288571D01*
X258566428Y-90360000D01*
X258637857Y-90502857D01*
X258637857Y-91288571D01*
X259280714Y-91217142D02*
X259423571Y-91288571D01*
X259709285Y-91288571D01*
X259852142Y-91217142D01*
X259923571Y-91074285D01*
X259923571Y-91002857D01*
X259852142Y-90860000D01*
X259709285Y-90788571D01*
X259495000Y-90788571D01*
X259352142Y-90717142D01*
X259280714Y-90574285D01*
X259280714Y-90502857D01*
X259352142Y-90360000D01*
X259495000Y-90288571D01*
X259709285Y-90288571D01*
X259852142Y-90360000D01*
X260566428Y-91145714D02*
X260637857Y-91217142D01*
X260566428Y-91288571D01*
X260495000Y-91217142D01*
X260566428Y-91145714D01*
X260566428Y-91288571D01*
X260566428Y-90360000D02*
X260637857Y-90431428D01*
X260566428Y-90502857D01*
X260495000Y-90431428D01*
X260566428Y-90360000D01*
X260566428Y-90502857D01*
X230352142Y-93132142D02*
X231495000Y-93132142D01*
X233352142Y-93703571D02*
X233352142Y-92203571D01*
X233852142Y-93275000D01*
X234352142Y-92203571D01*
X234352142Y-93703571D01*
X235709285Y-93703571D02*
X235709285Y-92917857D01*
X235637857Y-92775000D01*
X235495000Y-92703571D01*
X235209285Y-92703571D01*
X235066428Y-92775000D01*
X235709285Y-93632142D02*
X235566428Y-93703571D01*
X235209285Y-93703571D01*
X235066428Y-93632142D01*
X234995000Y-93489285D01*
X234995000Y-93346428D01*
X235066428Y-93203571D01*
X235209285Y-93132142D01*
X235566428Y-93132142D01*
X235709285Y-93060714D01*
X236209285Y-92703571D02*
X236780714Y-92703571D01*
X236423571Y-92203571D02*
X236423571Y-93489285D01*
X236495000Y-93632142D01*
X236637857Y-93703571D01*
X236780714Y-93703571D01*
X237852142Y-93632142D02*
X237709285Y-93703571D01*
X237423571Y-93703571D01*
X237280714Y-93632142D01*
X237209285Y-93489285D01*
X237209285Y-92917857D01*
X237280714Y-92775000D01*
X237423571Y-92703571D01*
X237709285Y-92703571D01*
X237852142Y-92775000D01*
X237923571Y-92917857D01*
X237923571Y-93060714D01*
X237209285Y-93203571D01*
X238566428Y-93703571D02*
X238566428Y-92703571D01*
X238566428Y-92989285D02*
X238637857Y-92846428D01*
X238709285Y-92775000D01*
X238852142Y-92703571D01*
X238995000Y-92703571D01*
X239495000Y-93703571D02*
X239495000Y-92703571D01*
X239495000Y-92203571D02*
X239423571Y-92275000D01*
X239495000Y-92346428D01*
X239566428Y-92275000D01*
X239495000Y-92203571D01*
X239495000Y-92346428D01*
X240852142Y-93703571D02*
X240852142Y-92917857D01*
X240780714Y-92775000D01*
X240637857Y-92703571D01*
X240352142Y-92703571D01*
X240209285Y-92775000D01*
X240852142Y-93632142D02*
X240709285Y-93703571D01*
X240352142Y-93703571D01*
X240209285Y-93632142D01*
X240137857Y-93489285D01*
X240137857Y-93346428D01*
X240209285Y-93203571D01*
X240352142Y-93132142D01*
X240709285Y-93132142D01*
X240852142Y-93060714D01*
X241780714Y-93703571D02*
X241637857Y-93632142D01*
X241566428Y-93489285D01*
X241566428Y-92203571D01*
X243995000Y-92917857D02*
X243495000Y-92917857D01*
X243495000Y-93703571D02*
X243495000Y-92203571D01*
X244209285Y-92203571D01*
X245637857Y-93703571D02*
X245137857Y-92989285D01*
X244780714Y-93703571D02*
X244780714Y-92203571D01*
X245352142Y-92203571D01*
X245495000Y-92275000D01*
X245566428Y-92346428D01*
X245637857Y-92489285D01*
X245637857Y-92703571D01*
X245566428Y-92846428D01*
X245495000Y-92917857D01*
X245352142Y-92989285D01*
X244780714Y-92989285D01*
X246280714Y-93132142D02*
X247423571Y-93132142D01*
X248780714Y-92703571D02*
X248780714Y-93703571D01*
X248423571Y-92132142D02*
X248066428Y-93203571D01*
X248995000Y-93203571D01*
X230352142Y-95547142D02*
X231495000Y-95547142D01*
X233852142Y-95332857D02*
X233352142Y-95332857D01*
X233352142Y-96118571D02*
X233352142Y-94618571D01*
X234066428Y-94618571D01*
X234637857Y-96118571D02*
X234637857Y-95118571D01*
X234637857Y-94618571D02*
X234566428Y-94690000D01*
X234637857Y-94761428D01*
X234709285Y-94690000D01*
X234637857Y-94618571D01*
X234637857Y-94761428D01*
X235352142Y-95118571D02*
X235352142Y-96118571D01*
X235352142Y-95261428D02*
X235423571Y-95190000D01*
X235566428Y-95118571D01*
X235780714Y-95118571D01*
X235923571Y-95190000D01*
X235995000Y-95332857D01*
X235995000Y-96118571D01*
X236709285Y-96118571D02*
X236709285Y-95118571D01*
X236709285Y-94618571D02*
X236637857Y-94690000D01*
X236709285Y-94761428D01*
X236780714Y-94690000D01*
X236709285Y-94618571D01*
X236709285Y-94761428D01*
X237352142Y-96047142D02*
X237495000Y-96118571D01*
X237780714Y-96118571D01*
X237923571Y-96047142D01*
X237995000Y-95904285D01*
X237995000Y-95832857D01*
X237923571Y-95690000D01*
X237780714Y-95618571D01*
X237566428Y-95618571D01*
X237423571Y-95547142D01*
X237352142Y-95404285D01*
X237352142Y-95332857D01*
X237423571Y-95190000D01*
X237566428Y-95118571D01*
X237780714Y-95118571D01*
X237923571Y-95190000D01*
X238637857Y-96118571D02*
X238637857Y-94618571D01*
X239280714Y-96118571D02*
X239280714Y-95332857D01*
X239209285Y-95190000D01*
X239066428Y-95118571D01*
X238852142Y-95118571D01*
X238709285Y-95190000D01*
X238637857Y-95261428D01*
X240566428Y-96047142D02*
X240423571Y-96118571D01*
X240137857Y-96118571D01*
X239995000Y-96047142D01*
X239923571Y-95904285D01*
X239923571Y-95332857D01*
X239995000Y-95190000D01*
X240137857Y-95118571D01*
X240423571Y-95118571D01*
X240566428Y-95190000D01*
X240637857Y-95332857D01*
X240637857Y-95475714D01*
X239923571Y-95618571D01*
X241923571Y-96118571D02*
X241923571Y-94618571D01*
X241923571Y-96047142D02*
X241780714Y-96118571D01*
X241495000Y-96118571D01*
X241352142Y-96047142D01*
X241280714Y-95975714D01*
X241209285Y-95832857D01*
X241209285Y-95404285D01*
X241280714Y-95261428D01*
X241352142Y-95190000D01*
X241495000Y-95118571D01*
X241780714Y-95118571D01*
X241923571Y-95190000D01*
X243566428Y-95118571D02*
X244137857Y-95118571D01*
X243780714Y-94618571D02*
X243780714Y-95904285D01*
X243852142Y-96047142D01*
X243995000Y-96118571D01*
X244137857Y-96118571D01*
X244637857Y-96118571D02*
X244637857Y-94618571D01*
X245280714Y-96118571D02*
X245280714Y-95332857D01*
X245209285Y-95190000D01*
X245066428Y-95118571D01*
X244852142Y-95118571D01*
X244709285Y-95190000D01*
X244637857Y-95261428D01*
X245995000Y-96118571D02*
X245995000Y-95118571D01*
X245995000Y-94618571D02*
X245923571Y-94690000D01*
X245995000Y-94761428D01*
X246066428Y-94690000D01*
X245995000Y-94618571D01*
X245995000Y-94761428D01*
X247352142Y-96047142D02*
X247209285Y-96118571D01*
X246923571Y-96118571D01*
X246780714Y-96047142D01*
X246709285Y-95975714D01*
X246637857Y-95832857D01*
X246637857Y-95404285D01*
X246709285Y-95261428D01*
X246780714Y-95190000D01*
X246923571Y-95118571D01*
X247209285Y-95118571D01*
X247352142Y-95190000D01*
X247995000Y-96118571D02*
X247995000Y-94618571D01*
X248137857Y-95547142D02*
X248566428Y-96118571D01*
X248566428Y-95118571D02*
X247995000Y-95690000D01*
X249209285Y-95118571D02*
X249209285Y-96118571D01*
X249209285Y-95261428D02*
X249280714Y-95190000D01*
X249423571Y-95118571D01*
X249637857Y-95118571D01*
X249780714Y-95190000D01*
X249852142Y-95332857D01*
X249852142Y-96118571D01*
X251137857Y-96047142D02*
X250995000Y-96118571D01*
X250709285Y-96118571D01*
X250566428Y-96047142D01*
X250495000Y-95904285D01*
X250495000Y-95332857D01*
X250566428Y-95190000D01*
X250709285Y-95118571D01*
X250995000Y-95118571D01*
X251137857Y-95190000D01*
X251209285Y-95332857D01*
X251209285Y-95475714D01*
X250495000Y-95618571D01*
X251780714Y-96047142D02*
X251923571Y-96118571D01*
X252209285Y-96118571D01*
X252352142Y-96047142D01*
X252423571Y-95904285D01*
X252423571Y-95832857D01*
X252352142Y-95690000D01*
X252209285Y-95618571D01*
X251995000Y-95618571D01*
X251852142Y-95547142D01*
X251780714Y-95404285D01*
X251780714Y-95332857D01*
X251852142Y-95190000D01*
X251995000Y-95118571D01*
X252209285Y-95118571D01*
X252352142Y-95190000D01*
X252995000Y-96047142D02*
X253137857Y-96118571D01*
X253423571Y-96118571D01*
X253566428Y-96047142D01*
X253637857Y-95904285D01*
X253637857Y-95832857D01*
X253566428Y-95690000D01*
X253423571Y-95618571D01*
X253209285Y-95618571D01*
X253066428Y-95547142D01*
X252995000Y-95404285D01*
X252995000Y-95332857D01*
X253066428Y-95190000D01*
X253209285Y-95118571D01*
X253423571Y-95118571D01*
X253566428Y-95190000D01*
X254280714Y-95975714D02*
X254352142Y-96047142D01*
X254280714Y-96118571D01*
X254209285Y-96047142D01*
X254280714Y-95975714D01*
X254280714Y-96118571D01*
X254280714Y-95190000D02*
X254352142Y-95261428D01*
X254280714Y-95332857D01*
X254209285Y-95261428D01*
X254280714Y-95190000D01*
X254280714Y-95332857D01*
X256923571Y-96118571D02*
X256066428Y-96118571D01*
X256495000Y-96118571D02*
X256495000Y-94618571D01*
X256352142Y-94832857D01*
X256209285Y-94975714D01*
X256066428Y-95047142D01*
X257566428Y-95975714D02*
X257637857Y-96047142D01*
X257566428Y-96118571D01*
X257495000Y-96047142D01*
X257566428Y-95975714D01*
X257566428Y-96118571D01*
X258995000Y-94618571D02*
X258280714Y-94618571D01*
X258209285Y-95332857D01*
X258280714Y-95261428D01*
X258423571Y-95190000D01*
X258780714Y-95190000D01*
X258923571Y-95261428D01*
X258995000Y-95332857D01*
X259066428Y-95475714D01*
X259066428Y-95832857D01*
X258995000Y-95975714D01*
X258923571Y-96047142D01*
X258780714Y-96118571D01*
X258423571Y-96118571D01*
X258280714Y-96047142D01*
X258209285Y-95975714D01*
X259566428Y-94618571D02*
X260566428Y-94618571D01*
X259923571Y-96118571D01*
X262280714Y-96118571D02*
X262280714Y-95118571D01*
X262280714Y-95261428D02*
X262352142Y-95190000D01*
X262495000Y-95118571D01*
X262709285Y-95118571D01*
X262852142Y-95190000D01*
X262923571Y-95332857D01*
X262923571Y-96118571D01*
X262923571Y-95332857D02*
X262995000Y-95190000D01*
X263137857Y-95118571D01*
X263352142Y-95118571D01*
X263495000Y-95190000D01*
X263566428Y-95332857D01*
X263566428Y-96118571D01*
X264280714Y-96118571D02*
X264280714Y-95118571D01*
X264280714Y-95261428D02*
X264352142Y-95190000D01*
X264495000Y-95118571D01*
X264709285Y-95118571D01*
X264852142Y-95190000D01*
X264923571Y-95332857D01*
X264923571Y-96118571D01*
X264923571Y-95332857D02*
X264995000Y-95190000D01*
X265137857Y-95118571D01*
X265352142Y-95118571D01*
X265495000Y-95190000D01*
X265566428Y-95332857D01*
X265566428Y-96118571D01*
X267423571Y-95261428D02*
X268566428Y-95261428D01*
X267995000Y-95832857D02*
X267995000Y-94690000D01*
X268566428Y-96118571D02*
X267423571Y-96118571D01*
X270709285Y-94618571D02*
X270852142Y-94618571D01*
X270995000Y-94690000D01*
X271066428Y-94761428D01*
X271137857Y-94904285D01*
X271209285Y-95190000D01*
X271209285Y-95547142D01*
X271137857Y-95832857D01*
X271066428Y-95975714D01*
X270995000Y-96047142D01*
X270852142Y-96118571D01*
X270709285Y-96118571D01*
X270566428Y-96047142D01*
X270495000Y-95975714D01*
X270423571Y-95832857D01*
X270352142Y-95547142D01*
X270352142Y-95190000D01*
X270423571Y-94904285D01*
X270495000Y-94761428D01*
X270566428Y-94690000D01*
X270709285Y-94618571D01*
X271852142Y-95975714D02*
X271923571Y-96047142D01*
X271852142Y-96118571D01*
X271780714Y-96047142D01*
X271852142Y-95975714D01*
X271852142Y-96118571D01*
X273352142Y-96118571D02*
X272495000Y-96118571D01*
X272923571Y-96118571D02*
X272923571Y-94618571D01*
X272780714Y-94832857D01*
X272637857Y-94975714D01*
X272495000Y-95047142D01*
X273852142Y-94618571D02*
X274780714Y-94618571D01*
X274280714Y-95190000D01*
X274495000Y-95190000D01*
X274637857Y-95261428D01*
X274709285Y-95332857D01*
X274780714Y-95475714D01*
X274780714Y-95832857D01*
X274709285Y-95975714D01*
X274637857Y-96047142D01*
X274495000Y-96118571D01*
X274066428Y-96118571D01*
X273923571Y-96047142D01*
X273852142Y-95975714D01*
X276566428Y-96118571D02*
X276566428Y-95118571D01*
X276566428Y-95261428D02*
X276637857Y-95190000D01*
X276780714Y-95118571D01*
X276995000Y-95118571D01*
X277137857Y-95190000D01*
X277209285Y-95332857D01*
X277209285Y-96118571D01*
X277209285Y-95332857D02*
X277280714Y-95190000D01*
X277423571Y-95118571D01*
X277637857Y-95118571D01*
X277780714Y-95190000D01*
X277852142Y-95332857D01*
X277852142Y-96118571D01*
X278566428Y-96118571D02*
X278566428Y-95118571D01*
X278566428Y-95261428D02*
X278637857Y-95190000D01*
X278780714Y-95118571D01*
X278995000Y-95118571D01*
X279137857Y-95190000D01*
X279209285Y-95332857D01*
X279209285Y-96118571D01*
X279209285Y-95332857D02*
X279280714Y-95190000D01*
X279423571Y-95118571D01*
X279637857Y-95118571D01*
X279780714Y-95190000D01*
X279852142Y-95332857D01*
X279852142Y-96118571D01*
X230352142Y-97962142D02*
X231495000Y-97962142D01*
X233280714Y-98462142D02*
X233495000Y-98533571D01*
X233852142Y-98533571D01*
X233995000Y-98462142D01*
X234066428Y-98390714D01*
X234137857Y-98247857D01*
X234137857Y-98105000D01*
X234066428Y-97962142D01*
X233995000Y-97890714D01*
X233852142Y-97819285D01*
X233566428Y-97747857D01*
X233423571Y-97676428D01*
X233352142Y-97605000D01*
X233280714Y-97462142D01*
X233280714Y-97319285D01*
X233352142Y-97176428D01*
X233423571Y-97105000D01*
X233566428Y-97033571D01*
X233923571Y-97033571D01*
X234137857Y-97105000D01*
X235423571Y-97533571D02*
X235423571Y-98533571D01*
X234780714Y-97533571D02*
X234780714Y-98319285D01*
X234852142Y-98462142D01*
X234995000Y-98533571D01*
X235209285Y-98533571D01*
X235352142Y-98462142D01*
X235423571Y-98390714D01*
X236137857Y-98533571D02*
X236137857Y-97533571D01*
X236137857Y-97819285D02*
X236209285Y-97676428D01*
X236280714Y-97605000D01*
X236423571Y-97533571D01*
X236566428Y-97533571D01*
X236852142Y-97533571D02*
X237423571Y-97533571D01*
X237066428Y-98533571D02*
X237066428Y-97247857D01*
X237137857Y-97105000D01*
X237280714Y-97033571D01*
X237423571Y-97033571D01*
X238566428Y-98533571D02*
X238566428Y-97747857D01*
X238495000Y-97605000D01*
X238352142Y-97533571D01*
X238066428Y-97533571D01*
X237923571Y-97605000D01*
X238566428Y-98462142D02*
X238423571Y-98533571D01*
X238066428Y-98533571D01*
X237923571Y-98462142D01*
X237852142Y-98319285D01*
X237852142Y-98176428D01*
X237923571Y-98033571D01*
X238066428Y-97962142D01*
X238423571Y-97962142D01*
X238566428Y-97890714D01*
X239923571Y-98462142D02*
X239780714Y-98533571D01*
X239495000Y-98533571D01*
X239352142Y-98462142D01*
X239280714Y-98390714D01*
X239209285Y-98247857D01*
X239209285Y-97819285D01*
X239280714Y-97676428D01*
X239352142Y-97605000D01*
X239495000Y-97533571D01*
X239780714Y-97533571D01*
X239923571Y-97605000D01*
X241137857Y-98462142D02*
X240995000Y-98533571D01*
X240709285Y-98533571D01*
X240566428Y-98462142D01*
X240495000Y-98319285D01*
X240495000Y-97747857D01*
X240566428Y-97605000D01*
X240709285Y-97533571D01*
X240995000Y-97533571D01*
X241137857Y-97605000D01*
X241209285Y-97747857D01*
X241209285Y-97890714D01*
X240495000Y-98033571D01*
X242780714Y-97533571D02*
X243352142Y-97533571D01*
X242995000Y-98533571D02*
X242995000Y-97247857D01*
X243066428Y-97105000D01*
X243209285Y-97033571D01*
X243352142Y-97033571D01*
X243852142Y-98533571D02*
X243852142Y-97533571D01*
X243852142Y-97033571D02*
X243780714Y-97105000D01*
X243852142Y-97176428D01*
X243923571Y-97105000D01*
X243852142Y-97033571D01*
X243852142Y-97176428D01*
X244566428Y-97533571D02*
X244566428Y-98533571D01*
X244566428Y-97676428D02*
X244637857Y-97605000D01*
X244780714Y-97533571D01*
X244995000Y-97533571D01*
X245137857Y-97605000D01*
X245209285Y-97747857D01*
X245209285Y-98533571D01*
X245923571Y-98533571D02*
X245923571Y-97533571D01*
X245923571Y-97033571D02*
X245852142Y-97105000D01*
X245923571Y-97176428D01*
X245995000Y-97105000D01*
X245923571Y-97033571D01*
X245923571Y-97176428D01*
X246566428Y-98462142D02*
X246709285Y-98533571D01*
X246995000Y-98533571D01*
X247137857Y-98462142D01*
X247209285Y-98319285D01*
X247209285Y-98247857D01*
X247137857Y-98105000D01*
X246995000Y-98033571D01*
X246780714Y-98033571D01*
X246637857Y-97962142D01*
X246566428Y-97819285D01*
X246566428Y-97747857D01*
X246637857Y-97605000D01*
X246780714Y-97533571D01*
X246995000Y-97533571D01*
X247137857Y-97605000D01*
X247852142Y-98533571D02*
X247852142Y-97033571D01*
X248495000Y-98533571D02*
X248495000Y-97747857D01*
X248423571Y-97605000D01*
X248280714Y-97533571D01*
X248066428Y-97533571D01*
X247923571Y-97605000D01*
X247852142Y-97676428D01*
X249209285Y-98390714D02*
X249280714Y-98462142D01*
X249209285Y-98533571D01*
X249137857Y-98462142D01*
X249209285Y-98390714D01*
X249209285Y-98533571D01*
X249209285Y-97605000D02*
X249280714Y-97676428D01*
X249209285Y-97747857D01*
X249137857Y-97676428D01*
X249209285Y-97605000D01*
X249209285Y-97747857D01*
X251066428Y-98533571D02*
X251066428Y-97033571D01*
X251066428Y-97747857D02*
X251923571Y-97747857D01*
X251923571Y-98533571D02*
X251923571Y-97033571D01*
X252566428Y-98105000D02*
X253280714Y-98105000D01*
X252423571Y-98533571D02*
X252923571Y-97033571D01*
X253423571Y-98533571D01*
X253852142Y-98462142D02*
X254066428Y-98533571D01*
X254423571Y-98533571D01*
X254566428Y-98462142D01*
X254637857Y-98390714D01*
X254709285Y-98247857D01*
X254709285Y-98105000D01*
X254637857Y-97962142D01*
X254566428Y-97890714D01*
X254423571Y-97819285D01*
X254137857Y-97747857D01*
X253995000Y-97676428D01*
X253923571Y-97605000D01*
X253852142Y-97462142D01*
X253852142Y-97319285D01*
X253923571Y-97176428D01*
X253995000Y-97105000D01*
X254137857Y-97033571D01*
X254495000Y-97033571D01*
X254709285Y-97105000D01*
X256066428Y-98533571D02*
X255352142Y-98533571D01*
X255352142Y-97033571D01*
X257923571Y-98533571D02*
X257780714Y-98462142D01*
X257709285Y-98319285D01*
X257709285Y-97033571D01*
X259066428Y-98462142D02*
X258923571Y-98533571D01*
X258637857Y-98533571D01*
X258495000Y-98462142D01*
X258423571Y-98319285D01*
X258423571Y-97747857D01*
X258495000Y-97605000D01*
X258637857Y-97533571D01*
X258923571Y-97533571D01*
X259066428Y-97605000D01*
X259137857Y-97747857D01*
X259137857Y-97890714D01*
X258423571Y-98033571D01*
X260423571Y-98533571D02*
X260423571Y-97747857D01*
X260352142Y-97605000D01*
X260209285Y-97533571D01*
X259923571Y-97533571D01*
X259780714Y-97605000D01*
X260423571Y-98462142D02*
X260280714Y-98533571D01*
X259923571Y-98533571D01*
X259780714Y-98462142D01*
X259709285Y-98319285D01*
X259709285Y-98176428D01*
X259780714Y-98033571D01*
X259923571Y-97962142D01*
X260280714Y-97962142D01*
X260423571Y-97890714D01*
X261780714Y-98533571D02*
X261780714Y-97033571D01*
X261780714Y-98462142D02*
X261637857Y-98533571D01*
X261352142Y-98533571D01*
X261209285Y-98462142D01*
X261137857Y-98390714D01*
X261066428Y-98247857D01*
X261066428Y-97819285D01*
X261137857Y-97676428D01*
X261209285Y-97605000D01*
X261352142Y-97533571D01*
X261637857Y-97533571D01*
X261780714Y-97605000D01*
X262495000Y-97962142D02*
X263637857Y-97962142D01*
X264137857Y-97533571D02*
X264709285Y-97533571D01*
X264352142Y-98533571D02*
X264352142Y-97247857D01*
X264423571Y-97105000D01*
X264566428Y-97033571D01*
X264709285Y-97033571D01*
X265209285Y-98533571D02*
X265209285Y-97533571D01*
X265209285Y-97819285D02*
X265280714Y-97676428D01*
X265352142Y-97605000D01*
X265495000Y-97533571D01*
X265637857Y-97533571D01*
X266709285Y-98462142D02*
X266566428Y-98533571D01*
X266280714Y-98533571D01*
X266137857Y-98462142D01*
X266066428Y-98319285D01*
X266066428Y-97747857D01*
X266137857Y-97605000D01*
X266280714Y-97533571D01*
X266566428Y-97533571D01*
X266709285Y-97605000D01*
X266780714Y-97747857D01*
X266780714Y-97890714D01*
X266066428Y-98033571D01*
X267995000Y-98462142D02*
X267852142Y-98533571D01*
X267566428Y-98533571D01*
X267423571Y-98462142D01*
X267352142Y-98319285D01*
X267352142Y-97747857D01*
X267423571Y-97605000D01*
X267566428Y-97533571D01*
X267852142Y-97533571D01*
X267995000Y-97605000D01*
X268066428Y-97747857D01*
X268066428Y-97890714D01*
X267352142Y-98033571D01*
X230352142Y-100377142D02*
X231495000Y-100377142D01*
X233352142Y-100948571D02*
X233352142Y-99448571D01*
X233923571Y-99448571D01*
X234066428Y-99520000D01*
X234137857Y-99591428D01*
X234209285Y-99734285D01*
X234209285Y-99948571D01*
X234137857Y-100091428D01*
X234066428Y-100162857D01*
X233923571Y-100234285D01*
X233352142Y-100234285D01*
X235709285Y-100805714D02*
X235637857Y-100877142D01*
X235423571Y-100948571D01*
X235280714Y-100948571D01*
X235066428Y-100877142D01*
X234923571Y-100734285D01*
X234852142Y-100591428D01*
X234780714Y-100305714D01*
X234780714Y-100091428D01*
X234852142Y-99805714D01*
X234923571Y-99662857D01*
X235066428Y-99520000D01*
X235280714Y-99448571D01*
X235423571Y-99448571D01*
X235637857Y-99520000D01*
X235709285Y-99591428D01*
X236852142Y-100162857D02*
X237066428Y-100234285D01*
X237137857Y-100305714D01*
X237209285Y-100448571D01*
X237209285Y-100662857D01*
X237137857Y-100805714D01*
X237066428Y-100877142D01*
X236923571Y-100948571D01*
X236352142Y-100948571D01*
X236352142Y-99448571D01*
X236852142Y-99448571D01*
X236995000Y-99520000D01*
X237066428Y-99591428D01*
X237137857Y-99734285D01*
X237137857Y-99877142D01*
X237066428Y-100020000D01*
X236995000Y-100091428D01*
X236852142Y-100162857D01*
X236352142Y-100162857D01*
X237780714Y-100877142D02*
X237923571Y-100948571D01*
X238209285Y-100948571D01*
X238352142Y-100877142D01*
X238423571Y-100734285D01*
X238423571Y-100662857D01*
X238352142Y-100520000D01*
X238209285Y-100448571D01*
X237995000Y-100448571D01*
X237852142Y-100377142D01*
X237780714Y-100234285D01*
X237780714Y-100162857D01*
X237852142Y-100020000D01*
X237995000Y-99948571D01*
X238209285Y-99948571D01*
X238352142Y-100020000D01*
X240852142Y-100948571D02*
X240852142Y-100162857D01*
X240780714Y-100020000D01*
X240637857Y-99948571D01*
X240352142Y-99948571D01*
X240209285Y-100020000D01*
X240852142Y-100877142D02*
X240709285Y-100948571D01*
X240352142Y-100948571D01*
X240209285Y-100877142D01*
X240137857Y-100734285D01*
X240137857Y-100591428D01*
X240209285Y-100448571D01*
X240352142Y-100377142D01*
X240709285Y-100377142D01*
X240852142Y-100305714D01*
X241566428Y-100948571D02*
X241566428Y-99948571D01*
X241566428Y-100234285D02*
X241637857Y-100091428D01*
X241709285Y-100020000D01*
X241852142Y-99948571D01*
X241995000Y-99948571D01*
X243066428Y-100877142D02*
X242923571Y-100948571D01*
X242637857Y-100948571D01*
X242495000Y-100877142D01*
X242423571Y-100734285D01*
X242423571Y-100162857D01*
X242495000Y-100020000D01*
X242637857Y-99948571D01*
X242923571Y-99948571D01*
X243066428Y-100020000D01*
X243137857Y-100162857D01*
X243137857Y-100305714D01*
X242423571Y-100448571D01*
X244709285Y-99948571D02*
X245280714Y-99948571D01*
X244923571Y-99448571D02*
X244923571Y-100734285D01*
X244995000Y-100877142D01*
X245137857Y-100948571D01*
X245280714Y-100948571D01*
X245995000Y-100948571D02*
X245852142Y-100877142D01*
X245780714Y-100805714D01*
X245709285Y-100662857D01*
X245709285Y-100234285D01*
X245780714Y-100091428D01*
X245852142Y-100020000D01*
X245995000Y-99948571D01*
X246209285Y-99948571D01*
X246352142Y-100020000D01*
X246423571Y-100091428D01*
X246495000Y-100234285D01*
X246495000Y-100662857D01*
X246423571Y-100805714D01*
X246352142Y-100877142D01*
X246209285Y-100948571D01*
X245995000Y-100948571D01*
X248280714Y-100948571D02*
X248280714Y-99448571D01*
X248280714Y-100020000D02*
X248423571Y-99948571D01*
X248709285Y-99948571D01*
X248852142Y-100020000D01*
X248923571Y-100091428D01*
X248995000Y-100234285D01*
X248995000Y-100662857D01*
X248923571Y-100805714D01*
X248852142Y-100877142D01*
X248709285Y-100948571D01*
X248423571Y-100948571D01*
X248280714Y-100877142D01*
X250209285Y-100877142D02*
X250066428Y-100948571D01*
X249780714Y-100948571D01*
X249637857Y-100877142D01*
X249566428Y-100734285D01*
X249566428Y-100162857D01*
X249637857Y-100020000D01*
X249780714Y-99948571D01*
X250066428Y-99948571D01*
X250209285Y-100020000D01*
X250280714Y-100162857D01*
X250280714Y-100305714D01*
X249566428Y-100448571D01*
X252923571Y-100948571D02*
X252423571Y-100234285D01*
X252066428Y-100948571D02*
X252066428Y-99448571D01*
X252637857Y-99448571D01*
X252780714Y-99520000D01*
X252852142Y-99591428D01*
X252923571Y-99734285D01*
X252923571Y-99948571D01*
X252852142Y-100091428D01*
X252780714Y-100162857D01*
X252637857Y-100234285D01*
X252066428Y-100234285D01*
X253780714Y-100948571D02*
X253637857Y-100877142D01*
X253566428Y-100805714D01*
X253495000Y-100662857D01*
X253495000Y-100234285D01*
X253566428Y-100091428D01*
X253637857Y-100020000D01*
X253780714Y-99948571D01*
X253995000Y-99948571D01*
X254137857Y-100020000D01*
X254209285Y-100091428D01*
X254280714Y-100234285D01*
X254280714Y-100662857D01*
X254209285Y-100805714D01*
X254137857Y-100877142D01*
X253995000Y-100948571D01*
X253780714Y-100948571D01*
X254923571Y-100948571D02*
X254923571Y-99448571D01*
X254923571Y-100162857D02*
X255780714Y-100162857D01*
X255780714Y-100948571D02*
X255780714Y-99448571D01*
X256423571Y-100877142D02*
X256637857Y-100948571D01*
X256995000Y-100948571D01*
X257137857Y-100877142D01*
X257209285Y-100805714D01*
X257280714Y-100662857D01*
X257280714Y-100520000D01*
X257209285Y-100377142D01*
X257137857Y-100305714D01*
X256995000Y-100234285D01*
X256709285Y-100162857D01*
X256566428Y-100091428D01*
X256495000Y-100020000D01*
X256423571Y-99877142D01*
X256423571Y-99734285D01*
X256495000Y-99591428D01*
X256566428Y-99520000D01*
X256709285Y-99448571D01*
X257066428Y-99448571D01*
X257280714Y-99520000D01*
X259709285Y-100877142D02*
X259566428Y-100948571D01*
X259280714Y-100948571D01*
X259137857Y-100877142D01*
X259066428Y-100805714D01*
X258995000Y-100662857D01*
X258995000Y-100234285D01*
X259066428Y-100091428D01*
X259137857Y-100020000D01*
X259280714Y-99948571D01*
X259566428Y-99948571D01*
X259709285Y-100020000D01*
X260566428Y-100948571D02*
X260423571Y-100877142D01*
X260352142Y-100805714D01*
X260280714Y-100662857D01*
X260280714Y-100234285D01*
X260352142Y-100091428D01*
X260423571Y-100020000D01*
X260566428Y-99948571D01*
X260780714Y-99948571D01*
X260923571Y-100020000D01*
X260995000Y-100091428D01*
X261066428Y-100234285D01*
X261066428Y-100662857D01*
X260995000Y-100805714D01*
X260923571Y-100877142D01*
X260780714Y-100948571D01*
X260566428Y-100948571D01*
X261709285Y-100948571D02*
X261709285Y-99948571D01*
X261709285Y-100091428D02*
X261780714Y-100020000D01*
X261923571Y-99948571D01*
X262137857Y-99948571D01*
X262280714Y-100020000D01*
X262352142Y-100162857D01*
X262352142Y-100948571D01*
X262352142Y-100162857D02*
X262423571Y-100020000D01*
X262566428Y-99948571D01*
X262780714Y-99948571D01*
X262923571Y-100020000D01*
X262995000Y-100162857D01*
X262995000Y-100948571D01*
X263709285Y-99948571D02*
X263709285Y-101448571D01*
X263709285Y-100020000D02*
X263852142Y-99948571D01*
X264137857Y-99948571D01*
X264280714Y-100020000D01*
X264352142Y-100091428D01*
X264423571Y-100234285D01*
X264423571Y-100662857D01*
X264352142Y-100805714D01*
X264280714Y-100877142D01*
X264137857Y-100948571D01*
X263852142Y-100948571D01*
X263709285Y-100877142D01*
X265280714Y-100948571D02*
X265137857Y-100877142D01*
X265066428Y-100734285D01*
X265066428Y-99448571D01*
X265852142Y-100948571D02*
X265852142Y-99948571D01*
X265852142Y-99448571D02*
X265780714Y-99520000D01*
X265852142Y-99591428D01*
X265923571Y-99520000D01*
X265852142Y-99448571D01*
X265852142Y-99591428D01*
X267209285Y-100948571D02*
X267209285Y-100162857D01*
X267137857Y-100020000D01*
X266995000Y-99948571D01*
X266709285Y-99948571D01*
X266566428Y-100020000D01*
X267209285Y-100877142D02*
X267066428Y-100948571D01*
X266709285Y-100948571D01*
X266566428Y-100877142D01*
X266495000Y-100734285D01*
X266495000Y-100591428D01*
X266566428Y-100448571D01*
X266709285Y-100377142D01*
X267066428Y-100377142D01*
X267209285Y-100305714D01*
X267923571Y-99948571D02*
X267923571Y-100948571D01*
X267923571Y-100091428D02*
X267995000Y-100020000D01*
X268137857Y-99948571D01*
X268352142Y-99948571D01*
X268495000Y-100020000D01*
X268566428Y-100162857D01*
X268566428Y-100948571D01*
X269066428Y-99948571D02*
X269637857Y-99948571D01*
X269280714Y-99448571D02*
X269280714Y-100734285D01*
X269352142Y-100877142D01*
X269495000Y-100948571D01*
X269637857Y-100948571D01*
X230352142Y-102792142D02*
X231495000Y-102792142D01*
X233352142Y-103363571D02*
X233352142Y-101863571D01*
X233709285Y-101863571D01*
X233923571Y-101935000D01*
X234066428Y-102077857D01*
X234137857Y-102220714D01*
X234209285Y-102506428D01*
X234209285Y-102720714D01*
X234137857Y-103006428D01*
X234066428Y-103149285D01*
X233923571Y-103292142D01*
X233709285Y-103363571D01*
X233352142Y-103363571D01*
X235066428Y-103363571D02*
X234923571Y-103292142D01*
X234852142Y-103220714D01*
X234780714Y-103077857D01*
X234780714Y-102649285D01*
X234852142Y-102506428D01*
X234923571Y-102435000D01*
X235066428Y-102363571D01*
X235280714Y-102363571D01*
X235423571Y-102435000D01*
X235495000Y-102506428D01*
X235566428Y-102649285D01*
X235566428Y-103077857D01*
X235495000Y-103220714D01*
X235423571Y-103292142D01*
X235280714Y-103363571D01*
X235066428Y-103363571D01*
X237352142Y-102363571D02*
X237352142Y-103363571D01*
X237352142Y-102506428D02*
X237423571Y-102435000D01*
X237566428Y-102363571D01*
X237780714Y-102363571D01*
X237923571Y-102435000D01*
X237995000Y-102577857D01*
X237995000Y-103363571D01*
X238923571Y-103363571D02*
X238780714Y-103292142D01*
X238709285Y-103220714D01*
X238637857Y-103077857D01*
X238637857Y-102649285D01*
X238709285Y-102506428D01*
X238780714Y-102435000D01*
X238923571Y-102363571D01*
X239137857Y-102363571D01*
X239280714Y-102435000D01*
X239352142Y-102506428D01*
X239423571Y-102649285D01*
X239423571Y-103077857D01*
X239352142Y-103220714D01*
X239280714Y-103292142D01*
X239137857Y-103363571D01*
X238923571Y-103363571D01*
X239852142Y-102363571D02*
X240423571Y-102363571D01*
X240066428Y-101863571D02*
X240066428Y-103149285D01*
X240137857Y-103292142D01*
X240280714Y-103363571D01*
X240423571Y-103363571D01*
X242637857Y-103292142D02*
X242495000Y-103363571D01*
X242209285Y-103363571D01*
X242066428Y-103292142D01*
X241995000Y-103149285D01*
X241995000Y-102577857D01*
X242066428Y-102435000D01*
X242209285Y-102363571D01*
X242495000Y-102363571D01*
X242637857Y-102435000D01*
X242709285Y-102577857D01*
X242709285Y-102720714D01*
X241995000Y-102863571D01*
X243995000Y-103363571D02*
X243995000Y-101863571D01*
X243995000Y-103292142D02*
X243852142Y-103363571D01*
X243566428Y-103363571D01*
X243423571Y-103292142D01*
X243352142Y-103220714D01*
X243280714Y-103077857D01*
X243280714Y-102649285D01*
X243352142Y-102506428D01*
X243423571Y-102435000D01*
X243566428Y-102363571D01*
X243852142Y-102363571D01*
X243995000Y-102435000D01*
X244709285Y-103363571D02*
X244709285Y-102363571D01*
X244709285Y-101863571D02*
X244637857Y-101935000D01*
X244709285Y-102006428D01*
X244780714Y-101935000D01*
X244709285Y-101863571D01*
X244709285Y-102006428D01*
X245209285Y-102363571D02*
X245780714Y-102363571D01*
X245423571Y-101863571D02*
X245423571Y-103149285D01*
X245495000Y-103292142D01*
X245637857Y-103363571D01*
X245780714Y-103363571D01*
X248066428Y-103363571D02*
X248066428Y-102577857D01*
X247995000Y-102435000D01*
X247852142Y-102363571D01*
X247566428Y-102363571D01*
X247423571Y-102435000D01*
X248066428Y-103292142D02*
X247923571Y-103363571D01*
X247566428Y-103363571D01*
X247423571Y-103292142D01*
X247352142Y-103149285D01*
X247352142Y-103006428D01*
X247423571Y-102863571D01*
X247566428Y-102792142D01*
X247923571Y-102792142D01*
X248066428Y-102720714D01*
X248780714Y-103363571D02*
X248780714Y-102363571D01*
X248780714Y-102649285D02*
X248852142Y-102506428D01*
X248923571Y-102435000D01*
X249066428Y-102363571D01*
X249209285Y-102363571D01*
X249495000Y-102363571D02*
X250066428Y-102363571D01*
X249709285Y-101863571D02*
X249709285Y-103149285D01*
X249780714Y-103292142D01*
X249923571Y-103363571D01*
X250066428Y-103363571D01*
X250423571Y-102363571D02*
X250709285Y-103363571D01*
X250995000Y-102649285D01*
X251280714Y-103363571D01*
X251566428Y-102363571D01*
X252352142Y-103363571D02*
X252209285Y-103292142D01*
X252137857Y-103220714D01*
X252066428Y-103077857D01*
X252066428Y-102649285D01*
X252137857Y-102506428D01*
X252209285Y-102435000D01*
X252352142Y-102363571D01*
X252566428Y-102363571D01*
X252709285Y-102435000D01*
X252780714Y-102506428D01*
X252852142Y-102649285D01*
X252852142Y-103077857D01*
X252780714Y-103220714D01*
X252709285Y-103292142D01*
X252566428Y-103363571D01*
X252352142Y-103363571D01*
X253495000Y-103363571D02*
X253495000Y-102363571D01*
X253495000Y-102649285D02*
X253566428Y-102506428D01*
X253637857Y-102435000D01*
X253780714Y-102363571D01*
X253923571Y-102363571D01*
X254423571Y-103363571D02*
X254423571Y-101863571D01*
X254566428Y-102792142D02*
X254995000Y-103363571D01*
X254995000Y-102363571D02*
X254423571Y-102935000D01*
X255709285Y-103292142D02*
X255709285Y-103363571D01*
X255637857Y-103506428D01*
X255566428Y-103577857D01*
X258066428Y-103292142D02*
X257923571Y-103363571D01*
X257637857Y-103363571D01*
X257495000Y-103292142D01*
X257423571Y-103149285D01*
X257423571Y-102577857D01*
X257495000Y-102435000D01*
X257637857Y-102363571D01*
X257923571Y-102363571D01*
X258066428Y-102435000D01*
X258137857Y-102577857D01*
X258137857Y-102720714D01*
X257423571Y-102863571D01*
X258780714Y-103220714D02*
X258852142Y-103292142D01*
X258780714Y-103363571D01*
X258709285Y-103292142D01*
X258780714Y-103220714D01*
X258780714Y-103363571D01*
X260137857Y-102363571D02*
X260137857Y-103577857D01*
X260066428Y-103720714D01*
X259995000Y-103792142D01*
X259852142Y-103863571D01*
X259637857Y-103863571D01*
X259495000Y-103792142D01*
X260137857Y-103292142D02*
X259995000Y-103363571D01*
X259709285Y-103363571D01*
X259566428Y-103292142D01*
X259495000Y-103220714D01*
X259423571Y-103077857D01*
X259423571Y-102649285D01*
X259495000Y-102506428D01*
X259566428Y-102435000D01*
X259709285Y-102363571D01*
X259995000Y-102363571D01*
X260137857Y-102435000D01*
X260852142Y-103220714D02*
X260923571Y-103292142D01*
X260852142Y-103363571D01*
X260780714Y-103292142D01*
X260852142Y-103220714D01*
X260852142Y-103363571D01*
X262495000Y-102363571D02*
X263066428Y-102363571D01*
X262709285Y-101863571D02*
X262709285Y-103149285D01*
X262780714Y-103292142D01*
X262923571Y-103363571D01*
X263066428Y-103363571D01*
X263780714Y-103363571D02*
X263637857Y-103292142D01*
X263566428Y-103220714D01*
X263495000Y-103077857D01*
X263495000Y-102649285D01*
X263566428Y-102506428D01*
X263637857Y-102435000D01*
X263780714Y-102363571D01*
X263995000Y-102363571D01*
X264137857Y-102435000D01*
X264209285Y-102506428D01*
X264280714Y-102649285D01*
X264280714Y-103077857D01*
X264209285Y-103220714D01*
X264137857Y-103292142D01*
X263995000Y-103363571D01*
X263780714Y-103363571D01*
X266709285Y-103363571D02*
X266709285Y-102577857D01*
X266637857Y-102435000D01*
X266495000Y-102363571D01*
X266209285Y-102363571D01*
X266066428Y-102435000D01*
X266709285Y-103292142D02*
X266566428Y-103363571D01*
X266209285Y-103363571D01*
X266066428Y-103292142D01*
X265995000Y-103149285D01*
X265995000Y-103006428D01*
X266066428Y-102863571D01*
X266209285Y-102792142D01*
X266566428Y-102792142D01*
X266709285Y-102720714D01*
X268066428Y-103363571D02*
X268066428Y-101863571D01*
X268066428Y-103292142D02*
X267923571Y-103363571D01*
X267637857Y-103363571D01*
X267495000Y-103292142D01*
X267423571Y-103220714D01*
X267352142Y-103077857D01*
X267352142Y-102649285D01*
X267423571Y-102506428D01*
X267495000Y-102435000D01*
X267637857Y-102363571D01*
X267923571Y-102363571D01*
X268066428Y-102435000D01*
X269423571Y-103363571D02*
X269423571Y-101863571D01*
X269423571Y-103292142D02*
X269280714Y-103363571D01*
X268995000Y-103363571D01*
X268852142Y-103292142D01*
X268780714Y-103220714D01*
X268709285Y-103077857D01*
X268709285Y-102649285D01*
X268780714Y-102506428D01*
X268852142Y-102435000D01*
X268995000Y-102363571D01*
X269280714Y-102363571D01*
X269423571Y-102435000D01*
X271495000Y-103363571D02*
X271352142Y-103292142D01*
X271280714Y-103149285D01*
X271280714Y-101863571D01*
X272280714Y-103363571D02*
X272137857Y-103292142D01*
X272066428Y-103220714D01*
X271995000Y-103077857D01*
X271995000Y-102649285D01*
X272066428Y-102506428D01*
X272137857Y-102435000D01*
X272280714Y-102363571D01*
X272495000Y-102363571D01*
X272637857Y-102435000D01*
X272709285Y-102506428D01*
X272780714Y-102649285D01*
X272780714Y-103077857D01*
X272709285Y-103220714D01*
X272637857Y-103292142D01*
X272495000Y-103363571D01*
X272280714Y-103363571D01*
X274066428Y-102363571D02*
X274066428Y-103577857D01*
X273995000Y-103720714D01*
X273923571Y-103792142D01*
X273780714Y-103863571D01*
X273566428Y-103863571D01*
X273423571Y-103792142D01*
X274066428Y-103292142D02*
X273923571Y-103363571D01*
X273637857Y-103363571D01*
X273495000Y-103292142D01*
X273423571Y-103220714D01*
X273352142Y-103077857D01*
X273352142Y-102649285D01*
X273423571Y-102506428D01*
X273495000Y-102435000D01*
X273637857Y-102363571D01*
X273923571Y-102363571D01*
X274066428Y-102435000D01*
X274995000Y-103363571D02*
X274852142Y-103292142D01*
X274780714Y-103220714D01*
X274709285Y-103077857D01*
X274709285Y-102649285D01*
X274780714Y-102506428D01*
X274852142Y-102435000D01*
X274995000Y-102363571D01*
X275209285Y-102363571D01*
X275352142Y-102435000D01*
X275423571Y-102506428D01*
X275495000Y-102649285D01*
X275495000Y-103077857D01*
X275423571Y-103220714D01*
X275352142Y-103292142D01*
X275209285Y-103363571D01*
X274995000Y-103363571D01*
X276066428Y-103292142D02*
X276209285Y-103363571D01*
X276495000Y-103363571D01*
X276637857Y-103292142D01*
X276709285Y-103149285D01*
X276709285Y-103077857D01*
X276637857Y-102935000D01*
X276495000Y-102863571D01*
X276280714Y-102863571D01*
X276137857Y-102792142D01*
X276066428Y-102649285D01*
X276066428Y-102577857D01*
X276137857Y-102435000D01*
X276280714Y-102363571D01*
X276495000Y-102363571D01*
X276637857Y-102435000D01*
X233995000Y-105778571D02*
X233852142Y-105707142D01*
X233780714Y-105635714D01*
X233709285Y-105492857D01*
X233709285Y-105064285D01*
X233780714Y-104921428D01*
X233852142Y-104850000D01*
X233995000Y-104778571D01*
X234209285Y-104778571D01*
X234352142Y-104850000D01*
X234423571Y-104921428D01*
X234495000Y-105064285D01*
X234495000Y-105492857D01*
X234423571Y-105635714D01*
X234352142Y-105707142D01*
X234209285Y-105778571D01*
X233995000Y-105778571D01*
X235137857Y-105778571D02*
X235137857Y-104778571D01*
X235137857Y-105064285D02*
X235209285Y-104921428D01*
X235280714Y-104850000D01*
X235423571Y-104778571D01*
X235566428Y-104778571D01*
X237423571Y-105778571D02*
X237280714Y-105707142D01*
X237209285Y-105635714D01*
X237137857Y-105492857D01*
X237137857Y-105064285D01*
X237209285Y-104921428D01*
X237280714Y-104850000D01*
X237423571Y-104778571D01*
X237637857Y-104778571D01*
X237780714Y-104850000D01*
X237852142Y-104921428D01*
X237923571Y-105064285D01*
X237923571Y-105492857D01*
X237852142Y-105635714D01*
X237780714Y-105707142D01*
X237637857Y-105778571D01*
X237423571Y-105778571D01*
X238566428Y-105778571D02*
X238566428Y-104778571D01*
X238566428Y-105064285D02*
X238637857Y-104921428D01*
X238709285Y-104850000D01*
X238852142Y-104778571D01*
X238995000Y-104778571D01*
X240137857Y-105778571D02*
X240137857Y-104278571D01*
X240137857Y-105707142D02*
X239995000Y-105778571D01*
X239709285Y-105778571D01*
X239566428Y-105707142D01*
X239495000Y-105635714D01*
X239423571Y-105492857D01*
X239423571Y-105064285D01*
X239495000Y-104921428D01*
X239566428Y-104850000D01*
X239709285Y-104778571D01*
X239995000Y-104778571D01*
X240137857Y-104850000D01*
X241423571Y-105707142D02*
X241280714Y-105778571D01*
X240995000Y-105778571D01*
X240852142Y-105707142D01*
X240780714Y-105564285D01*
X240780714Y-104992857D01*
X240852142Y-104850000D01*
X240995000Y-104778571D01*
X241280714Y-104778571D01*
X241423571Y-104850000D01*
X241495000Y-104992857D01*
X241495000Y-105135714D01*
X240780714Y-105278571D01*
X242137857Y-105778571D02*
X242137857Y-104778571D01*
X242137857Y-105064285D02*
X242209285Y-104921428D01*
X242280714Y-104850000D01*
X242423571Y-104778571D01*
X242566428Y-104778571D01*
X244209285Y-104778571D02*
X244209285Y-105778571D01*
X244209285Y-104921428D02*
X244280714Y-104850000D01*
X244423571Y-104778571D01*
X244637857Y-104778571D01*
X244780714Y-104850000D01*
X244852142Y-104992857D01*
X244852142Y-105778571D01*
X246209285Y-104778571D02*
X246209285Y-105778571D01*
X245566428Y-104778571D02*
X245566428Y-105564285D01*
X245637857Y-105707142D01*
X245780714Y-105778571D01*
X245995000Y-105778571D01*
X246137857Y-105707142D01*
X246209285Y-105635714D01*
X246923571Y-105778571D02*
X246923571Y-104778571D01*
X246923571Y-104921428D02*
X246995000Y-104850000D01*
X247137857Y-104778571D01*
X247352142Y-104778571D01*
X247495000Y-104850000D01*
X247566428Y-104992857D01*
X247566428Y-105778571D01*
X247566428Y-104992857D02*
X247637857Y-104850000D01*
X247780714Y-104778571D01*
X247995000Y-104778571D01*
X248137857Y-104850000D01*
X248209285Y-104992857D01*
X248209285Y-105778571D01*
X248923571Y-105778571D02*
X248923571Y-104278571D01*
X248923571Y-104850000D02*
X249066428Y-104778571D01*
X249352142Y-104778571D01*
X249495000Y-104850000D01*
X249566428Y-104921428D01*
X249637857Y-105064285D01*
X249637857Y-105492857D01*
X249566428Y-105635714D01*
X249495000Y-105707142D01*
X249352142Y-105778571D01*
X249066428Y-105778571D01*
X248923571Y-105707142D01*
X250852142Y-105707142D02*
X250709285Y-105778571D01*
X250423571Y-105778571D01*
X250280714Y-105707142D01*
X250209285Y-105564285D01*
X250209285Y-104992857D01*
X250280714Y-104850000D01*
X250423571Y-104778571D01*
X250709285Y-104778571D01*
X250852142Y-104850000D01*
X250923571Y-104992857D01*
X250923571Y-105135714D01*
X250209285Y-105278571D01*
X251566428Y-105778571D02*
X251566428Y-104778571D01*
X251566428Y-105064285D02*
X251637857Y-104921428D01*
X251709285Y-104850000D01*
X251852142Y-104778571D01*
X251995000Y-104778571D01*
X252423571Y-105707142D02*
X252566428Y-105778571D01*
X252852142Y-105778571D01*
X252995000Y-105707142D01*
X253066428Y-105564285D01*
X253066428Y-105492857D01*
X252995000Y-105350000D01*
X252852142Y-105278571D01*
X252637857Y-105278571D01*
X252495000Y-105207142D01*
X252423571Y-105064285D01*
X252423571Y-104992857D01*
X252495000Y-104850000D01*
X252637857Y-104778571D01*
X252852142Y-104778571D01*
X252995000Y-104850000D01*
X230352142Y-107622142D02*
X231495000Y-107622142D01*
X234209285Y-108050714D02*
X234137857Y-108122142D01*
X233923571Y-108193571D01*
X233780714Y-108193571D01*
X233566428Y-108122142D01*
X233423571Y-107979285D01*
X233352142Y-107836428D01*
X233280714Y-107550714D01*
X233280714Y-107336428D01*
X233352142Y-107050714D01*
X233423571Y-106907857D01*
X233566428Y-106765000D01*
X233780714Y-106693571D01*
X233923571Y-106693571D01*
X234137857Y-106765000D01*
X234209285Y-106836428D01*
X235066428Y-108193571D02*
X234923571Y-108122142D01*
X234852142Y-107979285D01*
X234852142Y-106693571D01*
X236209285Y-108122142D02*
X236066428Y-108193571D01*
X235780714Y-108193571D01*
X235637857Y-108122142D01*
X235566428Y-107979285D01*
X235566428Y-107407857D01*
X235637857Y-107265000D01*
X235780714Y-107193571D01*
X236066428Y-107193571D01*
X236209285Y-107265000D01*
X236280714Y-107407857D01*
X236280714Y-107550714D01*
X235566428Y-107693571D01*
X237566428Y-108193571D02*
X237566428Y-107407857D01*
X237495000Y-107265000D01*
X237352142Y-107193571D01*
X237066428Y-107193571D01*
X236923571Y-107265000D01*
X237566428Y-108122142D02*
X237423571Y-108193571D01*
X237066428Y-108193571D01*
X236923571Y-108122142D01*
X236852142Y-107979285D01*
X236852142Y-107836428D01*
X236923571Y-107693571D01*
X237066428Y-107622142D01*
X237423571Y-107622142D01*
X237566428Y-107550714D01*
X238280714Y-107193571D02*
X238280714Y-108193571D01*
X238280714Y-107336428D02*
X238352142Y-107265000D01*
X238495000Y-107193571D01*
X238709285Y-107193571D01*
X238852142Y-107265000D01*
X238923571Y-107407857D01*
X238923571Y-108193571D01*
X240566428Y-107193571D02*
X241137857Y-107193571D01*
X240780714Y-106693571D02*
X240780714Y-107979285D01*
X240852142Y-108122142D01*
X240995000Y-108193571D01*
X241137857Y-108193571D01*
X241852142Y-108193571D02*
X241709285Y-108122142D01*
X241637857Y-108050714D01*
X241566428Y-107907857D01*
X241566428Y-107479285D01*
X241637857Y-107336428D01*
X241709285Y-107265000D01*
X241852142Y-107193571D01*
X242066428Y-107193571D01*
X242209285Y-107265000D01*
X242280714Y-107336428D01*
X242352142Y-107479285D01*
X242352142Y-107907857D01*
X242280714Y-108050714D01*
X242209285Y-108122142D01*
X242066428Y-108193571D01*
X241852142Y-108193571D01*
X244137857Y-108193571D02*
X244137857Y-107193571D01*
X244137857Y-107336428D02*
X244209285Y-107265000D01*
X244352142Y-107193571D01*
X244566428Y-107193571D01*
X244709285Y-107265000D01*
X244780714Y-107407857D01*
X244780714Y-108193571D01*
X244780714Y-107407857D02*
X244852142Y-107265000D01*
X244995000Y-107193571D01*
X245209285Y-107193571D01*
X245352142Y-107265000D01*
X245423571Y-107407857D01*
X245423571Y-108193571D01*
X246709285Y-108122142D02*
X246566428Y-108193571D01*
X246280714Y-108193571D01*
X246137857Y-108122142D01*
X246066428Y-107979285D01*
X246066428Y-107407857D01*
X246137857Y-107265000D01*
X246280714Y-107193571D01*
X246566428Y-107193571D01*
X246709285Y-107265000D01*
X246780714Y-107407857D01*
X246780714Y-107550714D01*
X246066428Y-107693571D01*
X247995000Y-108122142D02*
X247852142Y-108193571D01*
X247566428Y-108193571D01*
X247423571Y-108122142D01*
X247352142Y-107979285D01*
X247352142Y-107407857D01*
X247423571Y-107265000D01*
X247566428Y-107193571D01*
X247852142Y-107193571D01*
X247995000Y-107265000D01*
X248066428Y-107407857D01*
X248066428Y-107550714D01*
X247352142Y-107693571D01*
X248495000Y-107193571D02*
X249066428Y-107193571D01*
X248709285Y-106693571D02*
X248709285Y-107979285D01*
X248780714Y-108122142D01*
X248923571Y-108193571D01*
X249066428Y-108193571D01*
X250709285Y-108193571D02*
X250709285Y-106693571D01*
X251423571Y-108193571D02*
X251423571Y-106693571D01*
X251995000Y-106693571D01*
X252137857Y-106765000D01*
X252209285Y-106836428D01*
X252280714Y-106979285D01*
X252280714Y-107193571D01*
X252209285Y-107336428D01*
X252137857Y-107407857D01*
X251995000Y-107479285D01*
X251423571Y-107479285D01*
X253780714Y-108050714D02*
X253709285Y-108122142D01*
X253495000Y-108193571D01*
X253352142Y-108193571D01*
X253137857Y-108122142D01*
X252995000Y-107979285D01*
X252923571Y-107836428D01*
X252852142Y-107550714D01*
X252852142Y-107336428D01*
X252923571Y-107050714D01*
X252995000Y-106907857D01*
X253137857Y-106765000D01*
X253352142Y-106693571D01*
X253495000Y-106693571D01*
X253709285Y-106765000D01*
X253780714Y-106836428D01*
X255995000Y-106693571D02*
X255995000Y-107765000D01*
X255923571Y-107979285D01*
X255780714Y-108122142D01*
X255566428Y-108193571D01*
X255423571Y-108193571D01*
X256709285Y-107622142D02*
X257852142Y-107622142D01*
X258495000Y-108122142D02*
X258709285Y-108193571D01*
X259066428Y-108193571D01*
X259209285Y-108122142D01*
X259280714Y-108050714D01*
X259352142Y-107907857D01*
X259352142Y-107765000D01*
X259280714Y-107622142D01*
X259209285Y-107550714D01*
X259066428Y-107479285D01*
X258780714Y-107407857D01*
X258637857Y-107336428D01*
X258566428Y-107265000D01*
X258495000Y-107122142D01*
X258495000Y-106979285D01*
X258566428Y-106836428D01*
X258637857Y-106765000D01*
X258780714Y-106693571D01*
X259137857Y-106693571D01*
X259352142Y-106765000D01*
X259780714Y-106693571D02*
X260637857Y-106693571D01*
X260209285Y-108193571D02*
X260209285Y-106693571D01*
X261137857Y-108193571D02*
X261137857Y-106693571D01*
X261495000Y-106693571D01*
X261709285Y-106765000D01*
X261852142Y-106907857D01*
X261923571Y-107050714D01*
X261995000Y-107336428D01*
X261995000Y-107550714D01*
X261923571Y-107836428D01*
X261852142Y-107979285D01*
X261709285Y-108122142D01*
X261495000Y-108193571D01*
X261137857Y-108193571D01*
X262637857Y-107622142D02*
X263780714Y-107622142D01*
X264780714Y-106693571D02*
X264923571Y-106693571D01*
X265066428Y-106765000D01*
X265137857Y-106836428D01*
X265209285Y-106979285D01*
X265280714Y-107265000D01*
X265280714Y-107622142D01*
X265209285Y-107907857D01*
X265137857Y-108050714D01*
X265066428Y-108122142D01*
X264923571Y-108193571D01*
X264780714Y-108193571D01*
X264637857Y-108122142D01*
X264566428Y-108050714D01*
X264495000Y-107907857D01*
X264423571Y-107622142D01*
X264423571Y-107265000D01*
X264495000Y-106979285D01*
X264566428Y-106836428D01*
X264637857Y-106765000D01*
X264780714Y-106693571D01*
X266209285Y-106693571D02*
X266352142Y-106693571D01*
X266495000Y-106765000D01*
X266566428Y-106836428D01*
X266637857Y-106979285D01*
X266709285Y-107265000D01*
X266709285Y-107622142D01*
X266637857Y-107907857D01*
X266566428Y-108050714D01*
X266495000Y-108122142D01*
X266352142Y-108193571D01*
X266209285Y-108193571D01*
X266066428Y-108122142D01*
X265995000Y-108050714D01*
X265923571Y-107907857D01*
X265852142Y-107622142D01*
X265852142Y-107265000D01*
X265923571Y-106979285D01*
X265995000Y-106836428D01*
X266066428Y-106765000D01*
X266209285Y-106693571D01*
X268137857Y-108193571D02*
X267280714Y-108193571D01*
X267709285Y-108193571D02*
X267709285Y-106693571D01*
X267566428Y-106907857D01*
X267423571Y-107050714D01*
X267280714Y-107122142D01*
X268780714Y-107407857D02*
X269280714Y-107407857D01*
X269495000Y-108193571D02*
X268780714Y-108193571D01*
X268780714Y-106693571D01*
X269495000Y-106693571D01*
X270209285Y-108122142D02*
X270209285Y-108193571D01*
X270137857Y-108336428D01*
X270066428Y-108407857D01*
X272852142Y-108050714D02*
X272780714Y-108122142D01*
X272566428Y-108193571D01*
X272423571Y-108193571D01*
X272209285Y-108122142D01*
X272066428Y-107979285D01*
X271995000Y-107836428D01*
X271923571Y-107550714D01*
X271923571Y-107336428D01*
X271995000Y-107050714D01*
X272066428Y-106907857D01*
X272209285Y-106765000D01*
X272423571Y-106693571D01*
X272566428Y-106693571D01*
X272780714Y-106765000D01*
X272852142Y-106836428D01*
X273709285Y-108193571D02*
X273566428Y-108122142D01*
X273495000Y-107979285D01*
X273495000Y-106693571D01*
X274923571Y-108193571D02*
X274923571Y-107407857D01*
X274852142Y-107265000D01*
X274709285Y-107193571D01*
X274423571Y-107193571D01*
X274280714Y-107265000D01*
X274923571Y-108122142D02*
X274780714Y-108193571D01*
X274423571Y-108193571D01*
X274280714Y-108122142D01*
X274209285Y-107979285D01*
X274209285Y-107836428D01*
X274280714Y-107693571D01*
X274423571Y-107622142D01*
X274780714Y-107622142D01*
X274923571Y-107550714D01*
X275566428Y-108122142D02*
X275709285Y-108193571D01*
X275995000Y-108193571D01*
X276137857Y-108122142D01*
X276209285Y-107979285D01*
X276209285Y-107907857D01*
X276137857Y-107765000D01*
X275995000Y-107693571D01*
X275780714Y-107693571D01*
X275637857Y-107622142D01*
X275566428Y-107479285D01*
X275566428Y-107407857D01*
X275637857Y-107265000D01*
X275780714Y-107193571D01*
X275995000Y-107193571D01*
X276137857Y-107265000D01*
X276780714Y-108122142D02*
X276923571Y-108193571D01*
X277209285Y-108193571D01*
X277352142Y-108122142D01*
X277423571Y-107979285D01*
X277423571Y-107907857D01*
X277352142Y-107765000D01*
X277209285Y-107693571D01*
X276995000Y-107693571D01*
X276852142Y-107622142D01*
X276780714Y-107479285D01*
X276780714Y-107407857D01*
X276852142Y-107265000D01*
X276995000Y-107193571D01*
X277209285Y-107193571D01*
X277352142Y-107265000D01*
X279137857Y-106836428D02*
X279209285Y-106765000D01*
X279352142Y-106693571D01*
X279709285Y-106693571D01*
X279852142Y-106765000D01*
X279923571Y-106836428D01*
X279995000Y-106979285D01*
X279995000Y-107122142D01*
X279923571Y-107336428D01*
X279066428Y-108193571D01*
X279995000Y-108193571D01*
X233995000Y-110608571D02*
X233852142Y-110537142D01*
X233780714Y-110465714D01*
X233709285Y-110322857D01*
X233709285Y-109894285D01*
X233780714Y-109751428D01*
X233852142Y-109680000D01*
X233995000Y-109608571D01*
X234209285Y-109608571D01*
X234352142Y-109680000D01*
X234423571Y-109751428D01*
X234495000Y-109894285D01*
X234495000Y-110322857D01*
X234423571Y-110465714D01*
X234352142Y-110537142D01*
X234209285Y-110608571D01*
X233995000Y-110608571D01*
X235137857Y-110608571D02*
X235137857Y-109608571D01*
X235137857Y-109894285D02*
X235209285Y-109751428D01*
X235280714Y-109680000D01*
X235423571Y-109608571D01*
X235566428Y-109608571D01*
X237209285Y-110608571D02*
X237209285Y-109108571D01*
X237209285Y-109680000D02*
X237352142Y-109608571D01*
X237637857Y-109608571D01*
X237780714Y-109680000D01*
X237852142Y-109751428D01*
X237923571Y-109894285D01*
X237923571Y-110322857D01*
X237852142Y-110465714D01*
X237780714Y-110537142D01*
X237637857Y-110608571D01*
X237352142Y-110608571D01*
X237209285Y-110537142D01*
X239137857Y-110537142D02*
X238995000Y-110608571D01*
X238709285Y-110608571D01*
X238566428Y-110537142D01*
X238495000Y-110394285D01*
X238495000Y-109822857D01*
X238566428Y-109680000D01*
X238709285Y-109608571D01*
X238995000Y-109608571D01*
X239137857Y-109680000D01*
X239209285Y-109822857D01*
X239209285Y-109965714D01*
X238495000Y-110108571D01*
X239637857Y-109608571D02*
X240209285Y-109608571D01*
X239852142Y-109108571D02*
X239852142Y-110394285D01*
X239923571Y-110537142D01*
X240066428Y-110608571D01*
X240209285Y-110608571D01*
X240495000Y-109608571D02*
X241066428Y-109608571D01*
X240709285Y-109108571D02*
X240709285Y-110394285D01*
X240780714Y-110537142D01*
X240923571Y-110608571D01*
X241066428Y-110608571D01*
X242137857Y-110537142D02*
X241995000Y-110608571D01*
X241709285Y-110608571D01*
X241566428Y-110537142D01*
X241495000Y-110394285D01*
X241495000Y-109822857D01*
X241566428Y-109680000D01*
X241709285Y-109608571D01*
X241995000Y-109608571D01*
X242137857Y-109680000D01*
X242209285Y-109822857D01*
X242209285Y-109965714D01*
X241495000Y-110108571D01*
X242852142Y-110608571D02*
X242852142Y-109608571D01*
X242852142Y-109894285D02*
X242923571Y-109751428D01*
X242995000Y-109680000D01*
X243137857Y-109608571D01*
X243280714Y-109608571D01*
X245566428Y-110608571D02*
X245566428Y-109822857D01*
X245495000Y-109680000D01*
X245352142Y-109608571D01*
X245066428Y-109608571D01*
X244923571Y-109680000D01*
X245566428Y-110537142D02*
X245423571Y-110608571D01*
X245066428Y-110608571D01*
X244923571Y-110537142D01*
X244852142Y-110394285D01*
X244852142Y-110251428D01*
X244923571Y-110108571D01*
X245066428Y-110037142D01*
X245423571Y-110037142D01*
X245566428Y-109965714D01*
X246066428Y-109608571D02*
X246637857Y-109608571D01*
X246280714Y-110608571D02*
X246280714Y-109322857D01*
X246352142Y-109180000D01*
X246495000Y-109108571D01*
X246637857Y-109108571D01*
X246923571Y-109608571D02*
X247495000Y-109608571D01*
X247137857Y-109108571D02*
X247137857Y-110394285D01*
X247209285Y-110537142D01*
X247352142Y-110608571D01*
X247495000Y-110608571D01*
X248566428Y-110537142D02*
X248423571Y-110608571D01*
X248137857Y-110608571D01*
X247995000Y-110537142D01*
X247923571Y-110394285D01*
X247923571Y-109822857D01*
X247995000Y-109680000D01*
X248137857Y-109608571D01*
X248423571Y-109608571D01*
X248566428Y-109680000D01*
X248637857Y-109822857D01*
X248637857Y-109965714D01*
X247923571Y-110108571D01*
X249280714Y-110608571D02*
X249280714Y-109608571D01*
X249280714Y-109894285D02*
X249352142Y-109751428D01*
X249423571Y-109680000D01*
X249566428Y-109608571D01*
X249709285Y-109608571D01*
X251995000Y-110608571D02*
X251995000Y-109822857D01*
X251923571Y-109680000D01*
X251780714Y-109608571D01*
X251495000Y-109608571D01*
X251352142Y-109680000D01*
X251995000Y-110537142D02*
X251852142Y-110608571D01*
X251495000Y-110608571D01*
X251352142Y-110537142D01*
X251280714Y-110394285D01*
X251280714Y-110251428D01*
X251352142Y-110108571D01*
X251495000Y-110037142D01*
X251852142Y-110037142D01*
X251995000Y-109965714D01*
X252637857Y-110537142D02*
X252780714Y-110608571D01*
X253066428Y-110608571D01*
X253209285Y-110537142D01*
X253280714Y-110394285D01*
X253280714Y-110322857D01*
X253209285Y-110180000D01*
X253066428Y-110108571D01*
X252852142Y-110108571D01*
X252709285Y-110037142D01*
X252637857Y-109894285D01*
X252637857Y-109822857D01*
X252709285Y-109680000D01*
X252852142Y-109608571D01*
X253066428Y-109608571D01*
X253209285Y-109680000D01*
X253852142Y-110537142D02*
X253995000Y-110608571D01*
X254280714Y-110608571D01*
X254423571Y-110537142D01*
X254495000Y-110394285D01*
X254495000Y-110322857D01*
X254423571Y-110180000D01*
X254280714Y-110108571D01*
X254066428Y-110108571D01*
X253923571Y-110037142D01*
X253852142Y-109894285D01*
X253852142Y-109822857D01*
X253923571Y-109680000D01*
X254066428Y-109608571D01*
X254280714Y-109608571D01*
X254423571Y-109680000D01*
X255709285Y-110537142D02*
X255566428Y-110608571D01*
X255280714Y-110608571D01*
X255137857Y-110537142D01*
X255066428Y-110394285D01*
X255066428Y-109822857D01*
X255137857Y-109680000D01*
X255280714Y-109608571D01*
X255566428Y-109608571D01*
X255709285Y-109680000D01*
X255780714Y-109822857D01*
X255780714Y-109965714D01*
X255066428Y-110108571D01*
X256423571Y-110608571D02*
X256423571Y-109608571D01*
X256423571Y-109751428D02*
X256495000Y-109680000D01*
X256637857Y-109608571D01*
X256852142Y-109608571D01*
X256995000Y-109680000D01*
X257066428Y-109822857D01*
X257066428Y-110608571D01*
X257066428Y-109822857D02*
X257137857Y-109680000D01*
X257280714Y-109608571D01*
X257495000Y-109608571D01*
X257637857Y-109680000D01*
X257709285Y-109822857D01*
X257709285Y-110608571D01*
X258423571Y-110608571D02*
X258423571Y-109108571D01*
X258423571Y-109680000D02*
X258566428Y-109608571D01*
X258852142Y-109608571D01*
X258995000Y-109680000D01*
X259066428Y-109751428D01*
X259137857Y-109894285D01*
X259137857Y-110322857D01*
X259066428Y-110465714D01*
X258995000Y-110537142D01*
X258852142Y-110608571D01*
X258566428Y-110608571D01*
X258423571Y-110537142D01*
X259995000Y-110608571D02*
X259852142Y-110537142D01*
X259780714Y-110394285D01*
X259780714Y-109108571D01*
X260423571Y-109608571D02*
X260780714Y-110608571D01*
X261137857Y-109608571D02*
X260780714Y-110608571D01*
X260637857Y-110965714D01*
X260566428Y-111037142D01*
X260423571Y-111108571D01*
X230852142Y-114652857D02*
X230352142Y-114652857D01*
X230352142Y-115438571D02*
X230352142Y-113938571D01*
X231066428Y-113938571D01*
X231852142Y-115438571D02*
X231709285Y-115367142D01*
X231637857Y-115295714D01*
X231566428Y-115152857D01*
X231566428Y-114724285D01*
X231637857Y-114581428D01*
X231709285Y-114510000D01*
X231852142Y-114438571D01*
X232066428Y-114438571D01*
X232209285Y-114510000D01*
X232280714Y-114581428D01*
X232352142Y-114724285D01*
X232352142Y-115152857D01*
X232280714Y-115295714D01*
X232209285Y-115367142D01*
X232066428Y-115438571D01*
X231852142Y-115438571D01*
X232995000Y-115438571D02*
X232995000Y-114438571D01*
X232995000Y-114724285D02*
X233066428Y-114581428D01*
X233137857Y-114510000D01*
X233280714Y-114438571D01*
X233423571Y-114438571D01*
X235709285Y-115438571D02*
X235709285Y-114652857D01*
X235637857Y-114510000D01*
X235495000Y-114438571D01*
X235209285Y-114438571D01*
X235066428Y-114510000D01*
X235709285Y-115367142D02*
X235566428Y-115438571D01*
X235209285Y-115438571D01*
X235066428Y-115367142D01*
X234995000Y-115224285D01*
X234995000Y-115081428D01*
X235066428Y-114938571D01*
X235209285Y-114867142D01*
X235566428Y-114867142D01*
X235709285Y-114795714D01*
X236352142Y-115367142D02*
X236495000Y-115438571D01*
X236780714Y-115438571D01*
X236923571Y-115367142D01*
X236995000Y-115224285D01*
X236995000Y-115152857D01*
X236923571Y-115010000D01*
X236780714Y-114938571D01*
X236566428Y-114938571D01*
X236423571Y-114867142D01*
X236352142Y-114724285D01*
X236352142Y-114652857D01*
X236423571Y-114510000D01*
X236566428Y-114438571D01*
X236780714Y-114438571D01*
X236923571Y-114510000D01*
X237566428Y-115367142D02*
X237709285Y-115438571D01*
X237995000Y-115438571D01*
X238137857Y-115367142D01*
X238209285Y-115224285D01*
X238209285Y-115152857D01*
X238137857Y-115010000D01*
X237995000Y-114938571D01*
X237780714Y-114938571D01*
X237637857Y-114867142D01*
X237566428Y-114724285D01*
X237566428Y-114652857D01*
X237637857Y-114510000D01*
X237780714Y-114438571D01*
X237995000Y-114438571D01*
X238137857Y-114510000D01*
X239423571Y-115367142D02*
X239280714Y-115438571D01*
X238995000Y-115438571D01*
X238852142Y-115367142D01*
X238780714Y-115224285D01*
X238780714Y-114652857D01*
X238852142Y-114510000D01*
X238995000Y-114438571D01*
X239280714Y-114438571D01*
X239423571Y-114510000D01*
X239495000Y-114652857D01*
X239495000Y-114795714D01*
X238780714Y-114938571D01*
X240137857Y-115438571D02*
X240137857Y-114438571D01*
X240137857Y-114581428D02*
X240209285Y-114510000D01*
X240352142Y-114438571D01*
X240566428Y-114438571D01*
X240709285Y-114510000D01*
X240780714Y-114652857D01*
X240780714Y-115438571D01*
X240780714Y-114652857D02*
X240852142Y-114510000D01*
X240995000Y-114438571D01*
X241209285Y-114438571D01*
X241352142Y-114510000D01*
X241423571Y-114652857D01*
X241423571Y-115438571D01*
X242137857Y-115438571D02*
X242137857Y-113938571D01*
X242137857Y-114510000D02*
X242280714Y-114438571D01*
X242566428Y-114438571D01*
X242709285Y-114510000D01*
X242780714Y-114581428D01*
X242852142Y-114724285D01*
X242852142Y-115152857D01*
X242780714Y-115295714D01*
X242709285Y-115367142D01*
X242566428Y-115438571D01*
X242280714Y-115438571D01*
X242137857Y-115367142D01*
X243709285Y-115438571D02*
X243566428Y-115367142D01*
X243495000Y-115224285D01*
X243495000Y-113938571D01*
X244852142Y-115367142D02*
X244709285Y-115438571D01*
X244423571Y-115438571D01*
X244280714Y-115367142D01*
X244209285Y-115224285D01*
X244209285Y-114652857D01*
X244280714Y-114510000D01*
X244423571Y-114438571D01*
X244709285Y-114438571D01*
X244852142Y-114510000D01*
X244923571Y-114652857D01*
X244923571Y-114795714D01*
X244209285Y-114938571D01*
X246209285Y-115438571D02*
X246209285Y-113938571D01*
X246209285Y-115367142D02*
X246066428Y-115438571D01*
X245780714Y-115438571D01*
X245637857Y-115367142D01*
X245566428Y-115295714D01*
X245495000Y-115152857D01*
X245495000Y-114724285D01*
X245566428Y-114581428D01*
X245637857Y-114510000D01*
X245780714Y-114438571D01*
X246066428Y-114438571D01*
X246209285Y-114510000D01*
X248066428Y-115438571D02*
X248066428Y-113938571D01*
X248637857Y-113938571D01*
X248780714Y-114010000D01*
X248852142Y-114081428D01*
X248923571Y-114224285D01*
X248923571Y-114438571D01*
X248852142Y-114581428D01*
X248780714Y-114652857D01*
X248637857Y-114724285D01*
X248066428Y-114724285D01*
X250423571Y-115295714D02*
X250352142Y-115367142D01*
X250137857Y-115438571D01*
X249995000Y-115438571D01*
X249780714Y-115367142D01*
X249637857Y-115224285D01*
X249566428Y-115081428D01*
X249495000Y-114795714D01*
X249495000Y-114581428D01*
X249566428Y-114295714D01*
X249637857Y-114152857D01*
X249780714Y-114010000D01*
X249995000Y-113938571D01*
X250137857Y-113938571D01*
X250352142Y-114010000D01*
X250423571Y-114081428D01*
X251566428Y-114652857D02*
X251780714Y-114724285D01*
X251852142Y-114795714D01*
X251923571Y-114938571D01*
X251923571Y-115152857D01*
X251852142Y-115295714D01*
X251780714Y-115367142D01*
X251637857Y-115438571D01*
X251066428Y-115438571D01*
X251066428Y-113938571D01*
X251566428Y-113938571D01*
X251709285Y-114010000D01*
X251780714Y-114081428D01*
X251852142Y-114224285D01*
X251852142Y-114367142D01*
X251780714Y-114510000D01*
X251709285Y-114581428D01*
X251566428Y-114652857D01*
X251066428Y-114652857D01*
X252495000Y-115367142D02*
X252637857Y-115438571D01*
X252923571Y-115438571D01*
X253066428Y-115367142D01*
X253137857Y-115224285D01*
X253137857Y-115152857D01*
X253066428Y-115010000D01*
X252923571Y-114938571D01*
X252709285Y-114938571D01*
X252566428Y-114867142D01*
X252495000Y-114724285D01*
X252495000Y-114652857D01*
X252566428Y-114510000D01*
X252709285Y-114438571D01*
X252923571Y-114438571D01*
X253066428Y-114510000D01*
X253852142Y-115367142D02*
X253852142Y-115438571D01*
X253780714Y-115581428D01*
X253709285Y-115652857D01*
X256280714Y-114438571D02*
X256280714Y-115438571D01*
X255637857Y-114438571D02*
X255637857Y-115224285D01*
X255709285Y-115367142D01*
X255852142Y-115438571D01*
X256066428Y-115438571D01*
X256209285Y-115367142D01*
X256280714Y-115295714D01*
X256923571Y-115367142D02*
X257066428Y-115438571D01*
X257352142Y-115438571D01*
X257495000Y-115367142D01*
X257566428Y-115224285D01*
X257566428Y-115152857D01*
X257495000Y-115010000D01*
X257352142Y-114938571D01*
X257137857Y-114938571D01*
X256995000Y-114867142D01*
X256923571Y-114724285D01*
X256923571Y-114652857D01*
X256995000Y-114510000D01*
X257137857Y-114438571D01*
X257352142Y-114438571D01*
X257495000Y-114510000D01*
X258780714Y-115367142D02*
X258637857Y-115438571D01*
X258352142Y-115438571D01*
X258209285Y-115367142D01*
X258137857Y-115224285D01*
X258137857Y-114652857D01*
X258209285Y-114510000D01*
X258352142Y-114438571D01*
X258637857Y-114438571D01*
X258780714Y-114510000D01*
X258852142Y-114652857D01*
X258852142Y-114795714D01*
X258137857Y-114938571D01*
X260423571Y-114438571D02*
X260995000Y-114438571D01*
X260637857Y-113938571D02*
X260637857Y-115224285D01*
X260709285Y-115367142D01*
X260852142Y-115438571D01*
X260995000Y-115438571D01*
X261495000Y-115438571D02*
X261495000Y-113938571D01*
X262137857Y-115438571D02*
X262137857Y-114652857D01*
X262066428Y-114510000D01*
X261923571Y-114438571D01*
X261709285Y-114438571D01*
X261566428Y-114510000D01*
X261495000Y-114581428D01*
X263423571Y-115367142D02*
X263280714Y-115438571D01*
X262995000Y-115438571D01*
X262852142Y-115367142D01*
X262780714Y-115224285D01*
X262780714Y-114652857D01*
X262852142Y-114510000D01*
X262995000Y-114438571D01*
X263280714Y-114438571D01*
X263423571Y-114510000D01*
X263495000Y-114652857D01*
X263495000Y-114795714D01*
X262780714Y-114938571D01*
X230137857Y-116853571D02*
X230709285Y-116853571D01*
X230352142Y-117853571D02*
X230352142Y-116567857D01*
X230423571Y-116425000D01*
X230566428Y-116353571D01*
X230709285Y-116353571D01*
X231423571Y-117853571D02*
X231280714Y-117782142D01*
X231209285Y-117710714D01*
X231137857Y-117567857D01*
X231137857Y-117139285D01*
X231209285Y-116996428D01*
X231280714Y-116925000D01*
X231423571Y-116853571D01*
X231637857Y-116853571D01*
X231780714Y-116925000D01*
X231852142Y-116996428D01*
X231923571Y-117139285D01*
X231923571Y-117567857D01*
X231852142Y-117710714D01*
X231780714Y-117782142D01*
X231637857Y-117853571D01*
X231423571Y-117853571D01*
X232780714Y-117853571D02*
X232637857Y-117782142D01*
X232566428Y-117639285D01*
X232566428Y-116353571D01*
X233566428Y-117853571D02*
X233423571Y-117782142D01*
X233352142Y-117639285D01*
X233352142Y-116353571D01*
X234352142Y-117853571D02*
X234209285Y-117782142D01*
X234137857Y-117710714D01*
X234066428Y-117567857D01*
X234066428Y-117139285D01*
X234137857Y-116996428D01*
X234209285Y-116925000D01*
X234352142Y-116853571D01*
X234566428Y-116853571D01*
X234709285Y-116925000D01*
X234780714Y-116996428D01*
X234852142Y-117139285D01*
X234852142Y-117567857D01*
X234780714Y-117710714D01*
X234709285Y-117782142D01*
X234566428Y-117853571D01*
X234352142Y-117853571D01*
X235352142Y-116853571D02*
X235637857Y-117853571D01*
X235923571Y-117139285D01*
X236209285Y-117853571D01*
X236495000Y-116853571D01*
X237066428Y-117853571D02*
X237066428Y-116853571D01*
X237066428Y-116353571D02*
X236995000Y-116425000D01*
X237066428Y-116496428D01*
X237137857Y-116425000D01*
X237066428Y-116353571D01*
X237066428Y-116496428D01*
X237780714Y-116853571D02*
X237780714Y-117853571D01*
X237780714Y-116996428D02*
X237852142Y-116925000D01*
X237995000Y-116853571D01*
X238209285Y-116853571D01*
X238352142Y-116925000D01*
X238423571Y-117067857D01*
X238423571Y-117853571D01*
X239780714Y-116853571D02*
X239780714Y-118067857D01*
X239709285Y-118210714D01*
X239637857Y-118282142D01*
X239495000Y-118353571D01*
X239280714Y-118353571D01*
X239137857Y-118282142D01*
X239780714Y-117782142D02*
X239637857Y-117853571D01*
X239352142Y-117853571D01*
X239209285Y-117782142D01*
X239137857Y-117710714D01*
X239066428Y-117567857D01*
X239066428Y-117139285D01*
X239137857Y-116996428D01*
X239209285Y-116925000D01*
X239352142Y-116853571D01*
X239637857Y-116853571D01*
X239780714Y-116925000D01*
X241423571Y-116353571D02*
X242280714Y-116353571D01*
X241852142Y-117853571D02*
X241852142Y-116353571D01*
X242709285Y-117425000D02*
X243423571Y-117425000D01*
X242566428Y-117853571D02*
X243066428Y-116353571D01*
X243566428Y-117853571D01*
X244923571Y-117853571D02*
X244423571Y-117139285D01*
X244066428Y-117853571D02*
X244066428Y-116353571D01*
X244637857Y-116353571D01*
X244780714Y-116425000D01*
X244852142Y-116496428D01*
X244923571Y-116639285D01*
X244923571Y-116853571D01*
X244852142Y-116996428D01*
X244780714Y-117067857D01*
X244637857Y-117139285D01*
X244066428Y-117139285D01*
X245566428Y-117853571D02*
X245566428Y-116353571D01*
X247137857Y-117710714D02*
X247066428Y-117782142D01*
X246852142Y-117853571D01*
X246709285Y-117853571D01*
X246495000Y-117782142D01*
X246352142Y-117639285D01*
X246280714Y-117496428D01*
X246209285Y-117210714D01*
X246209285Y-116996428D01*
X246280714Y-116710714D01*
X246352142Y-116567857D01*
X246495000Y-116425000D01*
X246709285Y-116353571D01*
X246852142Y-116353571D01*
X247066428Y-116425000D01*
X247137857Y-116496428D01*
X249566428Y-117782142D02*
X249423571Y-117853571D01*
X249137857Y-117853571D01*
X248995000Y-117782142D01*
X248923571Y-117710714D01*
X248852142Y-117567857D01*
X248852142Y-117139285D01*
X248923571Y-116996428D01*
X248995000Y-116925000D01*
X249137857Y-116853571D01*
X249423571Y-116853571D01*
X249566428Y-116925000D01*
X250423571Y-117853571D02*
X250280714Y-117782142D01*
X250209285Y-117710714D01*
X250137857Y-117567857D01*
X250137857Y-117139285D01*
X250209285Y-116996428D01*
X250280714Y-116925000D01*
X250423571Y-116853571D01*
X250637857Y-116853571D01*
X250780714Y-116925000D01*
X250852142Y-116996428D01*
X250923571Y-117139285D01*
X250923571Y-117567857D01*
X250852142Y-117710714D01*
X250780714Y-117782142D01*
X250637857Y-117853571D01*
X250423571Y-117853571D01*
X252209285Y-117853571D02*
X252209285Y-116353571D01*
X252209285Y-117782142D02*
X252066428Y-117853571D01*
X251780714Y-117853571D01*
X251637857Y-117782142D01*
X251566428Y-117710714D01*
X251495000Y-117567857D01*
X251495000Y-117139285D01*
X251566428Y-116996428D01*
X251637857Y-116925000D01*
X251780714Y-116853571D01*
X252066428Y-116853571D01*
X252209285Y-116925000D01*
X253495000Y-117782142D02*
X253352142Y-117853571D01*
X253066428Y-117853571D01*
X252923571Y-117782142D01*
X252852142Y-117639285D01*
X252852142Y-117067857D01*
X252923571Y-116925000D01*
X253066428Y-116853571D01*
X253352142Y-116853571D01*
X253495000Y-116925000D01*
X253566428Y-117067857D01*
X253566428Y-117210714D01*
X252852142Y-117353571D01*
X255137857Y-116853571D02*
X255709285Y-116853571D01*
X255352142Y-117853571D02*
X255352142Y-116567857D01*
X255423571Y-116425000D01*
X255566428Y-116353571D01*
X255709285Y-116353571D01*
X256423571Y-117853571D02*
X256280714Y-117782142D01*
X256209285Y-117710714D01*
X256137857Y-117567857D01*
X256137857Y-117139285D01*
X256209285Y-116996428D01*
X256280714Y-116925000D01*
X256423571Y-116853571D01*
X256637857Y-116853571D01*
X256780714Y-116925000D01*
X256852142Y-116996428D01*
X256923571Y-117139285D01*
X256923571Y-117567857D01*
X256852142Y-117710714D01*
X256780714Y-117782142D01*
X256637857Y-117853571D01*
X256423571Y-117853571D01*
X257566428Y-117853571D02*
X257566428Y-116853571D01*
X257566428Y-117139285D02*
X257637857Y-116996428D01*
X257709285Y-116925000D01*
X257852142Y-116853571D01*
X257995000Y-116853571D01*
X259566428Y-117782142D02*
X259709285Y-117853571D01*
X259995000Y-117853571D01*
X260137857Y-117782142D01*
X260209285Y-117639285D01*
X260209285Y-117567857D01*
X260137857Y-117425000D01*
X259995000Y-117353571D01*
X259780714Y-117353571D01*
X259637857Y-117282142D01*
X259566428Y-117139285D01*
X259566428Y-117067857D01*
X259637857Y-116925000D01*
X259780714Y-116853571D01*
X259995000Y-116853571D01*
X260137857Y-116925000D01*
X260852142Y-117853571D02*
X260852142Y-116353571D01*
X261495000Y-117853571D02*
X261495000Y-117067857D01*
X261423571Y-116925000D01*
X261280714Y-116853571D01*
X261066428Y-116853571D01*
X260923571Y-116925000D01*
X260852142Y-116996428D01*
X262209285Y-117853571D02*
X262209285Y-116853571D01*
X262209285Y-116353571D02*
X262137857Y-116425000D01*
X262209285Y-116496428D01*
X262280714Y-116425000D01*
X262209285Y-116353571D01*
X262209285Y-116496428D01*
X262923571Y-116853571D02*
X262923571Y-118353571D01*
X262923571Y-116925000D02*
X263066428Y-116853571D01*
X263352142Y-116853571D01*
X263495000Y-116925000D01*
X263566428Y-116996428D01*
X263637857Y-117139285D01*
X263637857Y-117567857D01*
X263566428Y-117710714D01*
X263495000Y-117782142D01*
X263352142Y-117853571D01*
X263066428Y-117853571D01*
X262923571Y-117782142D01*
X264280714Y-116853571D02*
X264280714Y-118353571D01*
X264280714Y-116925000D02*
X264423571Y-116853571D01*
X264709285Y-116853571D01*
X264852142Y-116925000D01*
X264923571Y-116996428D01*
X264995000Y-117139285D01*
X264995000Y-117567857D01*
X264923571Y-117710714D01*
X264852142Y-117782142D01*
X264709285Y-117853571D01*
X264423571Y-117853571D01*
X264280714Y-117782142D01*
X265637857Y-117853571D02*
X265637857Y-116853571D01*
X265637857Y-116353571D02*
X265566428Y-116425000D01*
X265637857Y-116496428D01*
X265709285Y-116425000D01*
X265637857Y-116353571D01*
X265637857Y-116496428D01*
X266352142Y-116853571D02*
X266352142Y-117853571D01*
X266352142Y-116996428D02*
X266423571Y-116925000D01*
X266566428Y-116853571D01*
X266780714Y-116853571D01*
X266923571Y-116925000D01*
X266995000Y-117067857D01*
X266995000Y-117853571D01*
X268352142Y-116853571D02*
X268352142Y-118067857D01*
X268280714Y-118210714D01*
X268209285Y-118282142D01*
X268066428Y-118353571D01*
X267852142Y-118353571D01*
X267709285Y-118282142D01*
X268352142Y-117782142D02*
X268209285Y-117853571D01*
X267923571Y-117853571D01*
X267780714Y-117782142D01*
X267709285Y-117710714D01*
X267637857Y-117567857D01*
X267637857Y-117139285D01*
X267709285Y-116996428D01*
X267780714Y-116925000D01*
X267923571Y-116853571D01*
X268209285Y-116853571D01*
X268352142Y-116925000D01*
X269066428Y-117710714D02*
X269137857Y-117782142D01*
X269066428Y-117853571D01*
X268995000Y-117782142D01*
X269066428Y-117710714D01*
X269066428Y-117853571D01*
X269066428Y-116925000D02*
X269137857Y-116996428D01*
X269066428Y-117067857D01*
X268995000Y-116996428D01*
X269066428Y-116925000D01*
X269066428Y-117067857D01*
X230423571Y-120268571D02*
X230709285Y-120268571D01*
X230852142Y-120197142D01*
X230923571Y-120125714D01*
X231066428Y-119911428D01*
X231137857Y-119625714D01*
X231137857Y-119054285D01*
X231066428Y-118911428D01*
X230995000Y-118840000D01*
X230852142Y-118768571D01*
X230566428Y-118768571D01*
X230423571Y-118840000D01*
X230352142Y-118911428D01*
X230280714Y-119054285D01*
X230280714Y-119411428D01*
X230352142Y-119554285D01*
X230423571Y-119625714D01*
X230566428Y-119697142D01*
X230852142Y-119697142D01*
X230995000Y-119625714D01*
X231066428Y-119554285D01*
X231137857Y-119411428D01*
X232066428Y-118768571D02*
X232209285Y-118768571D01*
X232352142Y-118840000D01*
X232423571Y-118911428D01*
X232495000Y-119054285D01*
X232566428Y-119340000D01*
X232566428Y-119697142D01*
X232495000Y-119982857D01*
X232423571Y-120125714D01*
X232352142Y-120197142D01*
X232209285Y-120268571D01*
X232066428Y-120268571D01*
X231923571Y-120197142D01*
X231852142Y-120125714D01*
X231780714Y-119982857D01*
X231709285Y-119697142D01*
X231709285Y-119340000D01*
X231780714Y-119054285D01*
X231852142Y-118911428D01*
X231923571Y-118840000D01*
X232066428Y-118768571D01*
X233066428Y-118768571D02*
X233995000Y-118768571D01*
X233495000Y-119340000D01*
X233709285Y-119340000D01*
X233852142Y-119411428D01*
X233923571Y-119482857D01*
X233995000Y-119625714D01*
X233995000Y-119982857D01*
X233923571Y-120125714D01*
X233852142Y-120197142D01*
X233709285Y-120268571D01*
X233280714Y-120268571D01*
X233137857Y-120197142D01*
X233066428Y-120125714D01*
X234923571Y-118768571D02*
X235066428Y-118768571D01*
X235209285Y-118840000D01*
X235280714Y-118911428D01*
X235352142Y-119054285D01*
X235423571Y-119340000D01*
X235423571Y-119697142D01*
X235352142Y-119982857D01*
X235280714Y-120125714D01*
X235209285Y-120197142D01*
X235066428Y-120268571D01*
X234923571Y-120268571D01*
X234780714Y-120197142D01*
X234709285Y-120125714D01*
X234637857Y-119982857D01*
X234566428Y-119697142D01*
X234566428Y-119340000D01*
X234637857Y-119054285D01*
X234709285Y-118911428D01*
X234780714Y-118840000D01*
X234923571Y-118768571D01*
X236709285Y-119268571D02*
X236709285Y-120268571D01*
X236352142Y-118697142D02*
X235995000Y-119768571D01*
X236923571Y-119768571D01*
X237780714Y-118768571D02*
X237923571Y-118768571D01*
X238066428Y-118840000D01*
X238137857Y-118911428D01*
X238209285Y-119054285D01*
X238280714Y-119340000D01*
X238280714Y-119697142D01*
X238209285Y-119982857D01*
X238137857Y-120125714D01*
X238066428Y-120197142D01*
X237923571Y-120268571D01*
X237780714Y-120268571D01*
X237637857Y-120197142D01*
X237566428Y-120125714D01*
X237495000Y-119982857D01*
X237423571Y-119697142D01*
X237423571Y-119340000D01*
X237495000Y-119054285D01*
X237566428Y-118911428D01*
X237637857Y-118840000D01*
X237780714Y-118768571D01*
X239209285Y-118768571D02*
X239352142Y-118768571D01*
X239495000Y-118840000D01*
X239566428Y-118911428D01*
X239637857Y-119054285D01*
X239709285Y-119340000D01*
X239709285Y-119697142D01*
X239637857Y-119982857D01*
X239566428Y-120125714D01*
X239495000Y-120197142D01*
X239352142Y-120268571D01*
X239209285Y-120268571D01*
X239066428Y-120197142D01*
X238995000Y-120125714D01*
X238923571Y-119982857D01*
X238852142Y-119697142D01*
X238852142Y-119340000D01*
X238923571Y-119054285D01*
X238995000Y-118911428D01*
X239066428Y-118840000D01*
X239209285Y-118768571D01*
X240637857Y-118768571D02*
X240780714Y-118768571D01*
X240923571Y-118840000D01*
X240995000Y-118911428D01*
X241066428Y-119054285D01*
X241137857Y-119340000D01*
X241137857Y-119697142D01*
X241066428Y-119982857D01*
X240995000Y-120125714D01*
X240923571Y-120197142D01*
X240780714Y-120268571D01*
X240637857Y-120268571D01*
X240495000Y-120197142D01*
X240423571Y-120125714D01*
X240352142Y-119982857D01*
X240280714Y-119697142D01*
X240280714Y-119340000D01*
X240352142Y-119054285D01*
X240423571Y-118911428D01*
X240495000Y-118840000D01*
X240637857Y-118768571D01*
D10*
%TO.C,C3*%
X202661904Y-112677619D02*
X202709523Y-112630000D01*
X202804761Y-112582380D01*
X203042857Y-112582380D01*
X203138095Y-112630000D01*
X203185714Y-112677619D01*
X203233333Y-112772857D01*
X203233333Y-112868095D01*
X203185714Y-113010952D01*
X202614285Y-113582380D01*
X203233333Y-113582380D01*
X203661904Y-112915714D02*
X203661904Y-113915714D01*
X203661904Y-112963333D02*
X203757142Y-112915714D01*
X203947619Y-112915714D01*
X204042857Y-112963333D01*
X204090476Y-113010952D01*
X204138095Y-113106190D01*
X204138095Y-113391904D01*
X204090476Y-113487142D01*
X204042857Y-113534761D01*
X203947619Y-113582380D01*
X203757142Y-113582380D01*
X203661904Y-113534761D01*
D12*
X203333333Y-111842857D02*
X203314285Y-111861904D01*
X203257142Y-111880952D01*
X203219047Y-111880952D01*
X203161904Y-111861904D01*
X203123809Y-111823809D01*
X203104761Y-111785714D01*
X203085714Y-111709523D01*
X203085714Y-111652380D01*
X203104761Y-111576190D01*
X203123809Y-111538095D01*
X203161904Y-111500000D01*
X203219047Y-111480952D01*
X203257142Y-111480952D01*
X203314285Y-111500000D01*
X203333333Y-111519047D01*
X203466666Y-111480952D02*
X203714285Y-111480952D01*
X203580952Y-111633333D01*
X203638095Y-111633333D01*
X203676190Y-111652380D01*
X203695238Y-111671428D01*
X203714285Y-111709523D01*
X203714285Y-111804761D01*
X203695238Y-111842857D01*
X203676190Y-111861904D01*
X203638095Y-111880952D01*
X203523809Y-111880952D01*
X203485714Y-111861904D01*
X203466666Y-111842857D01*
D10*
%TO.C,J1*%
X196666666Y-115052380D02*
X196666666Y-115766666D01*
X196619047Y-115909523D01*
X196523809Y-116004761D01*
X196380952Y-116052380D01*
X196285714Y-116052380D01*
X197666666Y-116052380D02*
X197095238Y-116052380D01*
X197380952Y-116052380D02*
X197380952Y-115052380D01*
X197285714Y-115195238D01*
X197190476Y-115290476D01*
X197095238Y-115338095D01*
%TO.C,C4*%
X197580952Y-105782380D02*
X197009523Y-105782380D01*
X197295238Y-105782380D02*
X197295238Y-104782380D01*
X197200000Y-104925238D01*
X197104761Y-105020476D01*
X197009523Y-105068095D01*
X198200000Y-104782380D02*
X198295238Y-104782380D01*
X198390476Y-104830000D01*
X198438095Y-104877619D01*
X198485714Y-104972857D01*
X198533333Y-105163333D01*
X198533333Y-105401428D01*
X198485714Y-105591904D01*
X198438095Y-105687142D01*
X198390476Y-105734761D01*
X198295238Y-105782380D01*
X198200000Y-105782380D01*
X198104761Y-105734761D01*
X198057142Y-105687142D01*
X198009523Y-105591904D01*
X197961904Y-105401428D01*
X197961904Y-105163333D01*
X198009523Y-104972857D01*
X198057142Y-104877619D01*
X198104761Y-104830000D01*
X198200000Y-104782380D01*
X199152380Y-104782380D02*
X199247619Y-104782380D01*
X199342857Y-104830000D01*
X199390476Y-104877619D01*
X199438095Y-104972857D01*
X199485714Y-105163333D01*
X199485714Y-105401428D01*
X199438095Y-105591904D01*
X199390476Y-105687142D01*
X199342857Y-105734761D01*
X199247619Y-105782380D01*
X199152380Y-105782380D01*
X199057142Y-105734761D01*
X199009523Y-105687142D01*
X198961904Y-105591904D01*
X198914285Y-105401428D01*
X198914285Y-105163333D01*
X198961904Y-104972857D01*
X199009523Y-104877619D01*
X199057142Y-104830000D01*
X199152380Y-104782380D01*
X199914285Y-105115714D02*
X199914285Y-105782380D01*
X199914285Y-105210952D02*
X199961904Y-105163333D01*
X200057142Y-105115714D01*
X200200000Y-105115714D01*
X200295238Y-105163333D01*
X200342857Y-105258571D01*
X200342857Y-105782380D01*
D12*
X198633333Y-104042857D02*
X198614285Y-104061904D01*
X198557142Y-104080952D01*
X198519047Y-104080952D01*
X198461904Y-104061904D01*
X198423809Y-104023809D01*
X198404761Y-103985714D01*
X198385714Y-103909523D01*
X198385714Y-103852380D01*
X198404761Y-103776190D01*
X198423809Y-103738095D01*
X198461904Y-103700000D01*
X198519047Y-103680952D01*
X198557142Y-103680952D01*
X198614285Y-103700000D01*
X198633333Y-103719047D01*
X198976190Y-103814285D02*
X198976190Y-104080952D01*
X198880952Y-103661904D02*
X198785714Y-103947619D01*
X199033333Y-103947619D01*
D10*
%TO.C,C8*%
X195652380Y-101967857D02*
X195652380Y-102539285D01*
X195652380Y-102253571D02*
X194652380Y-102253571D01*
X194795238Y-102348809D01*
X194890476Y-102444047D01*
X194938095Y-102539285D01*
X194652380Y-101348809D02*
X194652380Y-101253571D01*
X194700000Y-101158333D01*
X194747619Y-101110714D01*
X194842857Y-101063095D01*
X195033333Y-101015476D01*
X195271428Y-101015476D01*
X195461904Y-101063095D01*
X195557142Y-101110714D01*
X195604761Y-101158333D01*
X195652380Y-101253571D01*
X195652380Y-101348809D01*
X195604761Y-101444047D01*
X195557142Y-101491666D01*
X195461904Y-101539285D01*
X195271428Y-101586904D01*
X195033333Y-101586904D01*
X194842857Y-101539285D01*
X194747619Y-101491666D01*
X194700000Y-101444047D01*
X194652380Y-101348809D01*
X194985714Y-100158333D02*
X195652380Y-100158333D01*
X194985714Y-100586904D02*
X195509523Y-100586904D01*
X195604761Y-100539285D01*
X195652380Y-100444047D01*
X195652380Y-100301190D01*
X195604761Y-100205952D01*
X195557142Y-100158333D01*
D13*
X193185714Y-101458333D02*
X193223809Y-101496428D01*
X193261904Y-101610714D01*
X193261904Y-101686904D01*
X193223809Y-101801190D01*
X193147619Y-101877380D01*
X193071428Y-101915476D01*
X192919047Y-101953571D01*
X192804761Y-101953571D01*
X192652380Y-101915476D01*
X192576190Y-101877380D01*
X192500000Y-101801190D01*
X192461904Y-101686904D01*
X192461904Y-101610714D01*
X192500000Y-101496428D01*
X192538095Y-101458333D01*
X192804761Y-101001190D02*
X192766666Y-101077380D01*
X192728571Y-101115476D01*
X192652380Y-101153571D01*
X192614285Y-101153571D01*
X192538095Y-101115476D01*
X192500000Y-101077380D01*
X192461904Y-101001190D01*
X192461904Y-100848809D01*
X192500000Y-100772619D01*
X192538095Y-100734523D01*
X192614285Y-100696428D01*
X192652380Y-100696428D01*
X192728571Y-100734523D01*
X192766666Y-100772619D01*
X192804761Y-100848809D01*
X192804761Y-101001190D01*
X192842857Y-101077380D01*
X192880952Y-101115476D01*
X192957142Y-101153571D01*
X193109523Y-101153571D01*
X193185714Y-101115476D01*
X193223809Y-101077380D01*
X193261904Y-101001190D01*
X193261904Y-100848809D01*
X193223809Y-100772619D01*
X193185714Y-100734523D01*
X193109523Y-100696428D01*
X192957142Y-100696428D01*
X192880952Y-100734523D01*
X192842857Y-100772619D01*
X192804761Y-100848809D01*
D10*
%TO.C,C7*%
X188557142Y-104822380D02*
X187985714Y-104822380D01*
X188271428Y-104822380D02*
X188271428Y-103822380D01*
X188176190Y-103965238D01*
X188080952Y-104060476D01*
X187985714Y-104108095D01*
X189176190Y-103822380D02*
X189271428Y-103822380D01*
X189366666Y-103870000D01*
X189414285Y-103917619D01*
X189461904Y-104012857D01*
X189509523Y-104203333D01*
X189509523Y-104441428D01*
X189461904Y-104631904D01*
X189414285Y-104727142D01*
X189366666Y-104774761D01*
X189271428Y-104822380D01*
X189176190Y-104822380D01*
X189080952Y-104774761D01*
X189033333Y-104727142D01*
X188985714Y-104631904D01*
X188938095Y-104441428D01*
X188938095Y-104203333D01*
X188985714Y-104012857D01*
X189033333Y-103917619D01*
X189080952Y-103870000D01*
X189176190Y-103822380D01*
X189938095Y-104155714D02*
X189938095Y-104822380D01*
X189938095Y-104250952D02*
X189985714Y-104203333D01*
X190080952Y-104155714D01*
X190223809Y-104155714D01*
X190319047Y-104203333D01*
X190366666Y-104298571D01*
X190366666Y-104822380D01*
D12*
X189133333Y-105942857D02*
X189114285Y-105961904D01*
X189057142Y-105980952D01*
X189019047Y-105980952D01*
X188961904Y-105961904D01*
X188923809Y-105923809D01*
X188904761Y-105885714D01*
X188885714Y-105809523D01*
X188885714Y-105752380D01*
X188904761Y-105676190D01*
X188923809Y-105638095D01*
X188961904Y-105600000D01*
X189019047Y-105580952D01*
X189057142Y-105580952D01*
X189114285Y-105600000D01*
X189133333Y-105619047D01*
X189266666Y-105580952D02*
X189533333Y-105580952D01*
X189361904Y-105980952D01*
D10*
%TO.C,R3*%
X202666666Y-97522380D02*
X202095238Y-97522380D01*
X202380952Y-97522380D02*
X202380952Y-96522380D01*
X202285714Y-96665238D01*
X202190476Y-96760476D01*
X202095238Y-96808095D01*
X203095238Y-97427142D02*
X203142857Y-97474761D01*
X203095238Y-97522380D01*
X203047619Y-97474761D01*
X203095238Y-97427142D01*
X203095238Y-97522380D01*
X203523809Y-96617619D02*
X203571428Y-96570000D01*
X203666666Y-96522380D01*
X203904761Y-96522380D01*
X204000000Y-96570000D01*
X204047619Y-96617619D01*
X204095238Y-96712857D01*
X204095238Y-96808095D01*
X204047619Y-96950952D01*
X203476190Y-97522380D01*
X204095238Y-97522380D01*
X204523809Y-97522380D02*
X204523809Y-96522380D01*
X204619047Y-97141428D02*
X204904761Y-97522380D01*
X204904761Y-96855714D02*
X204523809Y-97236666D01*
D12*
X203433333Y-98680952D02*
X203300000Y-98490476D01*
X203204761Y-98680952D02*
X203204761Y-98280952D01*
X203357142Y-98280952D01*
X203395238Y-98300000D01*
X203414285Y-98319047D01*
X203433333Y-98357142D01*
X203433333Y-98414285D01*
X203414285Y-98452380D01*
X203395238Y-98471428D01*
X203357142Y-98490476D01*
X203204761Y-98490476D01*
X203566666Y-98280952D02*
X203814285Y-98280952D01*
X203680952Y-98433333D01*
X203738095Y-98433333D01*
X203776190Y-98452380D01*
X203795238Y-98471428D01*
X203814285Y-98509523D01*
X203814285Y-98604761D01*
X203795238Y-98642857D01*
X203776190Y-98661904D01*
X203738095Y-98680952D01*
X203623809Y-98680952D01*
X203585714Y-98661904D01*
X203566666Y-98642857D01*
D10*
%TO.C,R4*%
X198500000Y-99905714D02*
X198500000Y-100572380D01*
X198261904Y-99524761D02*
X198023809Y-100239047D01*
X198642857Y-100239047D01*
X199071428Y-100572380D02*
X199261904Y-100572380D01*
X199357142Y-100524761D01*
X199404761Y-100477142D01*
X199500000Y-100334285D01*
X199547619Y-100143809D01*
X199547619Y-99762857D01*
X199500000Y-99667619D01*
X199452380Y-99620000D01*
X199357142Y-99572380D01*
X199166666Y-99572380D01*
X199071428Y-99620000D01*
X199023809Y-99667619D01*
X198976190Y-99762857D01*
X198976190Y-100000952D01*
X199023809Y-100096190D01*
X199071428Y-100143809D01*
X199166666Y-100191428D01*
X199357142Y-100191428D01*
X199452380Y-100143809D01*
X199500000Y-100096190D01*
X199547619Y-100000952D01*
X199976190Y-100477142D02*
X200023809Y-100524761D01*
X199976190Y-100572380D01*
X199928571Y-100524761D01*
X199976190Y-100477142D01*
X199976190Y-100572380D01*
X200500000Y-100572380D02*
X200690476Y-100572380D01*
X200785714Y-100524761D01*
X200833333Y-100477142D01*
X200928571Y-100334285D01*
X200976190Y-100143809D01*
X200976190Y-99762857D01*
X200928571Y-99667619D01*
X200880952Y-99620000D01*
X200785714Y-99572380D01*
X200595238Y-99572380D01*
X200500000Y-99620000D01*
X200452380Y-99667619D01*
X200404761Y-99762857D01*
X200404761Y-100000952D01*
X200452380Y-100096190D01*
X200500000Y-100143809D01*
X200595238Y-100191428D01*
X200785714Y-100191428D01*
X200880952Y-100143809D01*
X200928571Y-100096190D01*
X200976190Y-100000952D01*
D13*
X199366666Y-98661904D02*
X199100000Y-98280952D01*
X198909523Y-98661904D02*
X198909523Y-97861904D01*
X199214285Y-97861904D01*
X199290476Y-97900000D01*
X199328571Y-97938095D01*
X199366666Y-98014285D01*
X199366666Y-98128571D01*
X199328571Y-98204761D01*
X199290476Y-98242857D01*
X199214285Y-98280952D01*
X198909523Y-98280952D01*
X200052380Y-98128571D02*
X200052380Y-98661904D01*
X199861904Y-97823809D02*
X199671428Y-98395238D01*
X200166666Y-98395238D01*
D10*
%TO.C,U2*%
X187502380Y-114347619D02*
X187502380Y-114823809D01*
X186502380Y-114823809D01*
X186502380Y-114157142D02*
X186502380Y-113585714D01*
X187502380Y-113871428D02*
X186502380Y-113871428D01*
X186502380Y-113347619D02*
X186502380Y-112728571D01*
X186883333Y-113061904D01*
X186883333Y-112919047D01*
X186930952Y-112823809D01*
X186978571Y-112776190D01*
X187073809Y-112728571D01*
X187311904Y-112728571D01*
X187407142Y-112776190D01*
X187454761Y-112823809D01*
X187502380Y-112919047D01*
X187502380Y-113204761D01*
X187454761Y-113300000D01*
X187407142Y-113347619D01*
X186502380Y-112109523D02*
X186502380Y-112014285D01*
X186550000Y-111919047D01*
X186597619Y-111871428D01*
X186692857Y-111823809D01*
X186883333Y-111776190D01*
X187121428Y-111776190D01*
X187311904Y-111823809D01*
X187407142Y-111871428D01*
X187454761Y-111919047D01*
X187502380Y-112014285D01*
X187502380Y-112109523D01*
X187454761Y-112204761D01*
X187407142Y-112252380D01*
X187311904Y-112300000D01*
X187121428Y-112347619D01*
X186883333Y-112347619D01*
X186692857Y-112300000D01*
X186597619Y-112252380D01*
X186550000Y-112204761D01*
X186502380Y-112109523D01*
X186502380Y-111442857D02*
X186502380Y-110823809D01*
X186883333Y-111157142D01*
X186883333Y-111014285D01*
X186930952Y-110919047D01*
X186978571Y-110871428D01*
X187073809Y-110823809D01*
X187311904Y-110823809D01*
X187407142Y-110871428D01*
X187454761Y-110919047D01*
X187502380Y-111014285D01*
X187502380Y-111300000D01*
X187454761Y-111395238D01*
X187407142Y-111442857D01*
X186597619Y-110442857D02*
X186550000Y-110395238D01*
X186502380Y-110300000D01*
X186502380Y-110061904D01*
X186550000Y-109966666D01*
X186597619Y-109919047D01*
X186692857Y-109871428D01*
X186788095Y-109871428D01*
X186930952Y-109919047D01*
X187502380Y-110490476D01*
X187502380Y-109871428D01*
X187121428Y-109442857D02*
X187121428Y-108680952D01*
X187502380Y-107680952D02*
X187502380Y-108252380D01*
X187502380Y-107966666D02*
X186502380Y-107966666D01*
X186645238Y-108061904D01*
X186740476Y-108157142D01*
X186788095Y-108252380D01*
X186597619Y-107300000D02*
X186550000Y-107252380D01*
X186502380Y-107157142D01*
X186502380Y-106919047D01*
X186550000Y-106823809D01*
X186597619Y-106776190D01*
X186692857Y-106728571D01*
X186788095Y-106728571D01*
X186930952Y-106776190D01*
X187502380Y-107347619D01*
X187502380Y-106728571D01*
D14*
X189716666Y-111333333D02*
X190283333Y-111333333D01*
X190350000Y-111300000D01*
X190383333Y-111266666D01*
X190416666Y-111200000D01*
X190416666Y-111066666D01*
X190383333Y-111000000D01*
X190350000Y-110966666D01*
X190283333Y-110933333D01*
X189716666Y-110933333D01*
X189783333Y-110633333D02*
X189750000Y-110600000D01*
X189716666Y-110533333D01*
X189716666Y-110366666D01*
X189750000Y-110300000D01*
X189783333Y-110266666D01*
X189850000Y-110233333D01*
X189916666Y-110233333D01*
X190016666Y-110266666D01*
X190416666Y-110666666D01*
X190416666Y-110233333D01*
D10*
%TO.C,C5*%
X201282380Y-107519047D02*
X201282380Y-108090476D01*
X201282380Y-107804761D02*
X200282380Y-107804761D01*
X200425238Y-107900000D01*
X200520476Y-107995238D01*
X200568095Y-108090476D01*
X200282380Y-106900000D02*
X200282380Y-106804761D01*
X200330000Y-106709523D01*
X200377619Y-106661904D01*
X200472857Y-106614285D01*
X200663333Y-106566666D01*
X200901428Y-106566666D01*
X201091904Y-106614285D01*
X201187142Y-106661904D01*
X201234761Y-106709523D01*
X201282380Y-106804761D01*
X201282380Y-106900000D01*
X201234761Y-106995238D01*
X201187142Y-107042857D01*
X201091904Y-107090476D01*
X200901428Y-107138095D01*
X200663333Y-107138095D01*
X200472857Y-107090476D01*
X200377619Y-107042857D01*
X200330000Y-106995238D01*
X200282380Y-106900000D01*
X200282380Y-105947619D02*
X200282380Y-105852380D01*
X200330000Y-105757142D01*
X200377619Y-105709523D01*
X200472857Y-105661904D01*
X200663333Y-105614285D01*
X200901428Y-105614285D01*
X201091904Y-105661904D01*
X201187142Y-105709523D01*
X201234761Y-105757142D01*
X201282380Y-105852380D01*
X201282380Y-105947619D01*
X201234761Y-106042857D01*
X201187142Y-106090476D01*
X201091904Y-106138095D01*
X200901428Y-106185714D01*
X200663333Y-106185714D01*
X200472857Y-106138095D01*
X200377619Y-106090476D01*
X200330000Y-106042857D01*
X200282380Y-105947619D01*
X200615714Y-105185714D02*
X201282380Y-105185714D01*
X200710952Y-105185714D02*
X200663333Y-105138095D01*
X200615714Y-105042857D01*
X200615714Y-104900000D01*
X200663333Y-104804761D01*
X200758571Y-104757142D01*
X201282380Y-104757142D01*
D12*
X199542857Y-106466666D02*
X199561904Y-106485714D01*
X199580952Y-106542857D01*
X199580952Y-106580952D01*
X199561904Y-106638095D01*
X199523809Y-106676190D01*
X199485714Y-106695238D01*
X199409523Y-106714285D01*
X199352380Y-106714285D01*
X199276190Y-106695238D01*
X199238095Y-106676190D01*
X199200000Y-106638095D01*
X199180952Y-106580952D01*
X199180952Y-106542857D01*
X199200000Y-106485714D01*
X199219047Y-106466666D01*
X199180952Y-106104761D02*
X199180952Y-106295238D01*
X199371428Y-106314285D01*
X199352380Y-106295238D01*
X199333333Y-106257142D01*
X199333333Y-106161904D01*
X199352380Y-106123809D01*
X199371428Y-106104761D01*
X199409523Y-106085714D01*
X199504761Y-106085714D01*
X199542857Y-106104761D01*
X199561904Y-106123809D01*
X199580952Y-106161904D01*
X199580952Y-106257142D01*
X199561904Y-106295238D01*
X199542857Y-106314285D01*
D10*
%TO.C,C1*%
X202152380Y-117555357D02*
X202152380Y-118126785D01*
X202152380Y-117841071D02*
X201152380Y-117841071D01*
X201295238Y-117936309D01*
X201390476Y-118031547D01*
X201438095Y-118126785D01*
X201152380Y-116936309D02*
X201152380Y-116841071D01*
X201200000Y-116745833D01*
X201247619Y-116698214D01*
X201342857Y-116650595D01*
X201533333Y-116602976D01*
X201771428Y-116602976D01*
X201961904Y-116650595D01*
X202057142Y-116698214D01*
X202104761Y-116745833D01*
X202152380Y-116841071D01*
X202152380Y-116936309D01*
X202104761Y-117031547D01*
X202057142Y-117079166D01*
X201961904Y-117126785D01*
X201771428Y-117174404D01*
X201533333Y-117174404D01*
X201342857Y-117126785D01*
X201247619Y-117079166D01*
X201200000Y-117031547D01*
X201152380Y-116936309D01*
X201485714Y-115745833D02*
X202152380Y-115745833D01*
X201485714Y-116174404D02*
X202009523Y-116174404D01*
X202104761Y-116126785D01*
X202152380Y-116031547D01*
X202152380Y-115888690D01*
X202104761Y-115793452D01*
X202057142Y-115745833D01*
D13*
X204085714Y-117045833D02*
X204123809Y-117083928D01*
X204161904Y-117198214D01*
X204161904Y-117274404D01*
X204123809Y-117388690D01*
X204047619Y-117464880D01*
X203971428Y-117502976D01*
X203819047Y-117541071D01*
X203704761Y-117541071D01*
X203552380Y-117502976D01*
X203476190Y-117464880D01*
X203400000Y-117388690D01*
X203361904Y-117274404D01*
X203361904Y-117198214D01*
X203400000Y-117083928D01*
X203438095Y-117045833D01*
X204161904Y-116283928D02*
X204161904Y-116741071D01*
X204161904Y-116512500D02*
X203361904Y-116512500D01*
X203476190Y-116588690D01*
X203552380Y-116664880D01*
X203590476Y-116741071D01*
D10*
%TO.C,J4*%
X195404761Y-96949285D02*
X195452380Y-96806428D01*
X195452380Y-96568333D01*
X195404761Y-96473095D01*
X195357142Y-96425476D01*
X195261904Y-96377857D01*
X195166666Y-96377857D01*
X195071428Y-96425476D01*
X195023809Y-96473095D01*
X194976190Y-96568333D01*
X194928571Y-96758809D01*
X194880952Y-96854047D01*
X194833333Y-96901666D01*
X194738095Y-96949285D01*
X194642857Y-96949285D01*
X194547619Y-96901666D01*
X194500000Y-96854047D01*
X194452380Y-96758809D01*
X194452380Y-96520714D01*
X194500000Y-96377857D01*
X195452380Y-95949285D02*
X194785714Y-95949285D01*
X194452380Y-95949285D02*
X194500000Y-95996904D01*
X194547619Y-95949285D01*
X194500000Y-95901666D01*
X194452380Y-95949285D01*
X194547619Y-95949285D01*
X194785714Y-95044523D02*
X195595238Y-95044523D01*
X195690476Y-95092142D01*
X195738095Y-95139761D01*
X195785714Y-95235000D01*
X195785714Y-95377857D01*
X195738095Y-95473095D01*
X195404761Y-95044523D02*
X195452380Y-95139761D01*
X195452380Y-95330238D01*
X195404761Y-95425476D01*
X195357142Y-95473095D01*
X195261904Y-95520714D01*
X194976190Y-95520714D01*
X194880952Y-95473095D01*
X194833333Y-95425476D01*
X194785714Y-95330238D01*
X194785714Y-95139761D01*
X194833333Y-95044523D01*
X194785714Y-94568333D02*
X195452380Y-94568333D01*
X194880952Y-94568333D02*
X194833333Y-94520714D01*
X194785714Y-94425476D01*
X194785714Y-94282619D01*
X194833333Y-94187380D01*
X194928571Y-94139761D01*
X195452380Y-94139761D01*
X195452380Y-93235000D02*
X194928571Y-93235000D01*
X194833333Y-93282619D01*
X194785714Y-93377857D01*
X194785714Y-93568333D01*
X194833333Y-93663571D01*
X195404761Y-93235000D02*
X195452380Y-93330238D01*
X195452380Y-93568333D01*
X195404761Y-93663571D01*
X195309523Y-93711190D01*
X195214285Y-93711190D01*
X195119047Y-93663571D01*
X195071428Y-93568333D01*
X195071428Y-93330238D01*
X195023809Y-93235000D01*
X195452380Y-92615952D02*
X195404761Y-92711190D01*
X195309523Y-92758809D01*
X194452380Y-92758809D01*
X195452380Y-91330238D02*
X195404761Y-91425476D01*
X195357142Y-91473095D01*
X195261904Y-91520714D01*
X194976190Y-91520714D01*
X194880952Y-91473095D01*
X194833333Y-91425476D01*
X194785714Y-91330238D01*
X194785714Y-91187380D01*
X194833333Y-91092142D01*
X194880952Y-91044523D01*
X194976190Y-90996904D01*
X195261904Y-90996904D01*
X195357142Y-91044523D01*
X195404761Y-91092142D01*
X195452380Y-91187380D01*
X195452380Y-91330238D01*
X194785714Y-90139761D02*
X195452380Y-90139761D01*
X194785714Y-90568333D02*
X195309523Y-90568333D01*
X195404761Y-90520714D01*
X195452380Y-90425476D01*
X195452380Y-90282619D01*
X195404761Y-90187380D01*
X195357142Y-90139761D01*
X194785714Y-89806428D02*
X194785714Y-89425476D01*
X194452380Y-89663571D02*
X195309523Y-89663571D01*
X195404761Y-89615952D01*
X195452380Y-89520714D01*
X195452380Y-89425476D01*
X200652380Y-84373333D02*
X201366666Y-84373333D01*
X201509523Y-84420952D01*
X201604761Y-84516190D01*
X201652380Y-84659047D01*
X201652380Y-84754285D01*
X200985714Y-83468571D02*
X201652380Y-83468571D01*
X200604761Y-83706666D02*
X201319047Y-83944761D01*
X201319047Y-83325714D01*
%TO.C,U1*%
X206566666Y-108166666D02*
X206566666Y-107690476D01*
X206852380Y-108261904D02*
X205852380Y-107928571D01*
X206852380Y-107595238D01*
X206852380Y-107261904D02*
X205852380Y-107261904D01*
X205852380Y-107023809D01*
X205900000Y-106880952D01*
X205995238Y-106785714D01*
X206090476Y-106738095D01*
X206280952Y-106690476D01*
X206423809Y-106690476D01*
X206614285Y-106738095D01*
X206709523Y-106785714D01*
X206804761Y-106880952D01*
X206852380Y-107023809D01*
X206852380Y-107261904D01*
X206566666Y-106309523D02*
X206566666Y-105833333D01*
X206852380Y-106404761D02*
X205852380Y-106071428D01*
X206852380Y-105738095D01*
X206185714Y-104976190D02*
X206852380Y-104976190D01*
X205804761Y-105214285D02*
X206519047Y-105452380D01*
X206519047Y-104833333D01*
X206280952Y-104309523D02*
X206233333Y-104404761D01*
X206185714Y-104452380D01*
X206090476Y-104500000D01*
X206042857Y-104500000D01*
X205947619Y-104452380D01*
X205900000Y-104404761D01*
X205852380Y-104309523D01*
X205852380Y-104119047D01*
X205900000Y-104023809D01*
X205947619Y-103976190D01*
X206042857Y-103928571D01*
X206090476Y-103928571D01*
X206185714Y-103976190D01*
X206233333Y-104023809D01*
X206280952Y-104119047D01*
X206280952Y-104309523D01*
X206328571Y-104404761D01*
X206376190Y-104452380D01*
X206471428Y-104500000D01*
X206661904Y-104500000D01*
X206757142Y-104452380D01*
X206804761Y-104404761D01*
X206852380Y-104309523D01*
X206852380Y-104119047D01*
X206804761Y-104023809D01*
X206757142Y-103976190D01*
X206661904Y-103928571D01*
X206471428Y-103928571D01*
X206376190Y-103976190D01*
X206328571Y-104023809D01*
X206280952Y-104119047D01*
X206852380Y-103452380D02*
X206852380Y-103261904D01*
X206804761Y-103166666D01*
X206757142Y-103119047D01*
X206614285Y-103023809D01*
X206423809Y-102976190D01*
X206042857Y-102976190D01*
X205947619Y-103023809D01*
X205900000Y-103071428D01*
X205852380Y-103166666D01*
X205852380Y-103357142D01*
X205900000Y-103452380D01*
X205947619Y-103500000D01*
X206042857Y-103547619D01*
X206280952Y-103547619D01*
X206376190Y-103500000D01*
X206423809Y-103452380D01*
X206471428Y-103357142D01*
X206471428Y-103166666D01*
X206423809Y-103071428D01*
X206376190Y-103023809D01*
X206280952Y-102976190D01*
X206280952Y-102404761D02*
X206233333Y-102500000D01*
X206185714Y-102547619D01*
X206090476Y-102595238D01*
X206042857Y-102595238D01*
X205947619Y-102547619D01*
X205900000Y-102500000D01*
X205852380Y-102404761D01*
X205852380Y-102214285D01*
X205900000Y-102119047D01*
X205947619Y-102071428D01*
X206042857Y-102023809D01*
X206090476Y-102023809D01*
X206185714Y-102071428D01*
X206233333Y-102119047D01*
X206280952Y-102214285D01*
X206280952Y-102404761D01*
X206328571Y-102500000D01*
X206376190Y-102547619D01*
X206471428Y-102595238D01*
X206661904Y-102595238D01*
X206757142Y-102547619D01*
X206804761Y-102500000D01*
X206852380Y-102404761D01*
X206852380Y-102214285D01*
X206804761Y-102119047D01*
X206757142Y-102071428D01*
X206661904Y-102023809D01*
X206471428Y-102023809D01*
X206376190Y-102071428D01*
X206328571Y-102119047D01*
X206280952Y-102214285D01*
X206471428Y-101595238D02*
X206471428Y-100833333D01*
X205947619Y-100404761D02*
X205900000Y-100357142D01*
X205852380Y-100261904D01*
X205852380Y-100023809D01*
X205900000Y-99928571D01*
X205947619Y-99880952D01*
X206042857Y-99833333D01*
X206138095Y-99833333D01*
X206280952Y-99880952D01*
X206852380Y-100452380D01*
X206852380Y-99833333D01*
X202463333Y-104746666D02*
X203256666Y-104746666D01*
X203350000Y-104700000D01*
X203396666Y-104653333D01*
X203443333Y-104560000D01*
X203443333Y-104373333D01*
X203396666Y-104280000D01*
X203350000Y-104233333D01*
X203256666Y-104186666D01*
X202463333Y-104186666D01*
X203443333Y-103206666D02*
X203443333Y-103766666D01*
X203443333Y-103486666D02*
X202463333Y-103486666D01*
X202603333Y-103580000D01*
X202696666Y-103673333D01*
X202743333Y-103766666D01*
%TO.C,R2*%
X197414285Y-98622380D02*
X198033333Y-98622380D01*
X197700000Y-99003333D01*
X197842857Y-99003333D01*
X197938095Y-99050952D01*
X197985714Y-99098571D01*
X198033333Y-99193809D01*
X198033333Y-99431904D01*
X197985714Y-99527142D01*
X197938095Y-99574761D01*
X197842857Y-99622380D01*
X197557142Y-99622380D01*
X197461904Y-99574761D01*
X197414285Y-99527142D01*
X198652380Y-98622380D02*
X198747619Y-98622380D01*
X198842857Y-98670000D01*
X198890476Y-98717619D01*
X198938095Y-98812857D01*
X198985714Y-99003333D01*
X198985714Y-99241428D01*
X198938095Y-99431904D01*
X198890476Y-99527142D01*
X198842857Y-99574761D01*
X198747619Y-99622380D01*
X198652380Y-99622380D01*
X198557142Y-99574761D01*
X198509523Y-99527142D01*
X198461904Y-99431904D01*
X198414285Y-99241428D01*
X198414285Y-99003333D01*
X198461904Y-98812857D01*
X198509523Y-98717619D01*
X198557142Y-98670000D01*
X198652380Y-98622380D01*
X199604761Y-98622380D02*
X199700000Y-98622380D01*
X199795238Y-98670000D01*
X199842857Y-98717619D01*
X199890476Y-98812857D01*
X199938095Y-99003333D01*
X199938095Y-99241428D01*
X199890476Y-99431904D01*
X199842857Y-99527142D01*
X199795238Y-99574761D01*
X199700000Y-99622380D01*
X199604761Y-99622380D01*
X199509523Y-99574761D01*
X199461904Y-99527142D01*
X199414285Y-99431904D01*
X199366666Y-99241428D01*
X199366666Y-99003333D01*
X199414285Y-98812857D01*
X199461904Y-98717619D01*
X199509523Y-98670000D01*
X199604761Y-98622380D01*
D12*
X198633333Y-100780952D02*
X198500000Y-100590476D01*
X198404761Y-100780952D02*
X198404761Y-100380952D01*
X198557142Y-100380952D01*
X198595238Y-100400000D01*
X198614285Y-100419047D01*
X198633333Y-100457142D01*
X198633333Y-100514285D01*
X198614285Y-100552380D01*
X198595238Y-100571428D01*
X198557142Y-100590476D01*
X198404761Y-100590476D01*
X198785714Y-100419047D02*
X198804761Y-100400000D01*
X198842857Y-100380952D01*
X198938095Y-100380952D01*
X198976190Y-100400000D01*
X198995238Y-100419047D01*
X199014285Y-100457142D01*
X199014285Y-100495238D01*
X198995238Y-100552380D01*
X198766666Y-100780952D01*
X199014285Y-100780952D01*
D10*
%TO.C,C6*%
X190157142Y-106522380D02*
X189585714Y-106522380D01*
X189871428Y-106522380D02*
X189871428Y-105522380D01*
X189776190Y-105665238D01*
X189680952Y-105760476D01*
X189585714Y-105808095D01*
X190776190Y-105522380D02*
X190871428Y-105522380D01*
X190966666Y-105570000D01*
X191014285Y-105617619D01*
X191061904Y-105712857D01*
X191109523Y-105903333D01*
X191109523Y-106141428D01*
X191061904Y-106331904D01*
X191014285Y-106427142D01*
X190966666Y-106474761D01*
X190871428Y-106522380D01*
X190776190Y-106522380D01*
X190680952Y-106474761D01*
X190633333Y-106427142D01*
X190585714Y-106331904D01*
X190538095Y-106141428D01*
X190538095Y-105903333D01*
X190585714Y-105712857D01*
X190633333Y-105617619D01*
X190680952Y-105570000D01*
X190776190Y-105522380D01*
X191538095Y-105855714D02*
X191538095Y-106522380D01*
X191538095Y-105950952D02*
X191585714Y-105903333D01*
X191680952Y-105855714D01*
X191823809Y-105855714D01*
X191919047Y-105903333D01*
X191966666Y-105998571D01*
X191966666Y-106522380D01*
D12*
X190733333Y-107642857D02*
X190714285Y-107661904D01*
X190657142Y-107680952D01*
X190619047Y-107680952D01*
X190561904Y-107661904D01*
X190523809Y-107623809D01*
X190504761Y-107585714D01*
X190485714Y-107509523D01*
X190485714Y-107452380D01*
X190504761Y-107376190D01*
X190523809Y-107338095D01*
X190561904Y-107300000D01*
X190619047Y-107280952D01*
X190657142Y-107280952D01*
X190714285Y-107300000D01*
X190733333Y-107319047D01*
X191076190Y-107280952D02*
X191000000Y-107280952D01*
X190961904Y-107300000D01*
X190942857Y-107319047D01*
X190904761Y-107376190D01*
X190885714Y-107452380D01*
X190885714Y-107604761D01*
X190904761Y-107642857D01*
X190923809Y-107661904D01*
X190961904Y-107680952D01*
X191038095Y-107680952D01*
X191076190Y-107661904D01*
X191095238Y-107642857D01*
X191114285Y-107604761D01*
X191114285Y-107509523D01*
X191095238Y-107471428D01*
X191076190Y-107452380D01*
X191038095Y-107433333D01*
X190961904Y-107433333D01*
X190923809Y-107452380D01*
X190904761Y-107471428D01*
X190885714Y-107509523D01*
D10*
%TO.C,R1*%
X202804761Y-111282380D02*
X202233333Y-111282380D01*
X202519047Y-111282380D02*
X202519047Y-110282380D01*
X202423809Y-110425238D01*
X202328571Y-110520476D01*
X202233333Y-110568095D01*
X203423809Y-110282380D02*
X203519047Y-110282380D01*
X203614285Y-110330000D01*
X203661904Y-110377619D01*
X203709523Y-110472857D01*
X203757142Y-110663333D01*
X203757142Y-110901428D01*
X203709523Y-111091904D01*
X203661904Y-111187142D01*
X203614285Y-111234761D01*
X203519047Y-111282380D01*
X203423809Y-111282380D01*
X203328571Y-111234761D01*
X203280952Y-111187142D01*
X203233333Y-111091904D01*
X203185714Y-110901428D01*
X203185714Y-110663333D01*
X203233333Y-110472857D01*
X203280952Y-110377619D01*
X203328571Y-110330000D01*
X203423809Y-110282380D01*
X204185714Y-111282380D02*
X204185714Y-110282380D01*
X204280952Y-110901428D02*
X204566666Y-111282380D01*
X204566666Y-110615714D02*
X204185714Y-110996666D01*
D12*
X203333333Y-109580952D02*
X203200000Y-109390476D01*
X203104761Y-109580952D02*
X203104761Y-109180952D01*
X203257142Y-109180952D01*
X203295238Y-109200000D01*
X203314285Y-109219047D01*
X203333333Y-109257142D01*
X203333333Y-109314285D01*
X203314285Y-109352380D01*
X203295238Y-109371428D01*
X203257142Y-109390476D01*
X203104761Y-109390476D01*
X203714285Y-109580952D02*
X203485714Y-109580952D01*
X203600000Y-109580952D02*
X203600000Y-109180952D01*
X203561904Y-109238095D01*
X203523809Y-109276190D01*
X203485714Y-109295238D01*
D10*
%TO.C,C9*%
X187452380Y-101967857D02*
X187452380Y-102539285D01*
X187452380Y-102253571D02*
X186452380Y-102253571D01*
X186595238Y-102348809D01*
X186690476Y-102444047D01*
X186738095Y-102539285D01*
X186452380Y-101348809D02*
X186452380Y-101253571D01*
X186500000Y-101158333D01*
X186547619Y-101110714D01*
X186642857Y-101063095D01*
X186833333Y-101015476D01*
X187071428Y-101015476D01*
X187261904Y-101063095D01*
X187357142Y-101110714D01*
X187404761Y-101158333D01*
X187452380Y-101253571D01*
X187452380Y-101348809D01*
X187404761Y-101444047D01*
X187357142Y-101491666D01*
X187261904Y-101539285D01*
X187071428Y-101586904D01*
X186833333Y-101586904D01*
X186642857Y-101539285D01*
X186547619Y-101491666D01*
X186500000Y-101444047D01*
X186452380Y-101348809D01*
X186785714Y-100158333D02*
X187452380Y-100158333D01*
X186785714Y-100586904D02*
X187309523Y-100586904D01*
X187404761Y-100539285D01*
X187452380Y-100444047D01*
X187452380Y-100301190D01*
X187404761Y-100205952D01*
X187357142Y-100158333D01*
D13*
X189585714Y-101458333D02*
X189623809Y-101496428D01*
X189661904Y-101610714D01*
X189661904Y-101686904D01*
X189623809Y-101801190D01*
X189547619Y-101877380D01*
X189471428Y-101915476D01*
X189319047Y-101953571D01*
X189204761Y-101953571D01*
X189052380Y-101915476D01*
X188976190Y-101877380D01*
X188900000Y-101801190D01*
X188861904Y-101686904D01*
X188861904Y-101610714D01*
X188900000Y-101496428D01*
X188938095Y-101458333D01*
X189661904Y-101077380D02*
X189661904Y-100925000D01*
X189623809Y-100848809D01*
X189585714Y-100810714D01*
X189471428Y-100734523D01*
X189319047Y-100696428D01*
X189014285Y-100696428D01*
X188938095Y-100734523D01*
X188900000Y-100772619D01*
X188861904Y-100848809D01*
X188861904Y-101001190D01*
X188900000Y-101077380D01*
X188938095Y-101115476D01*
X189014285Y-101153571D01*
X189204761Y-101153571D01*
X189280952Y-101115476D01*
X189319047Y-101077380D01*
X189357142Y-101001190D01*
X189357142Y-100848809D01*
X189319047Y-100772619D01*
X189280952Y-100734523D01*
X189204761Y-100696428D01*
D10*
%TO.C,C2*%
X192752380Y-117642857D02*
X192752380Y-118214285D01*
X192752380Y-117928571D02*
X191752380Y-117928571D01*
X191895238Y-118023809D01*
X191990476Y-118119047D01*
X192038095Y-118214285D01*
X191752380Y-117023809D02*
X191752380Y-116928571D01*
X191800000Y-116833333D01*
X191847619Y-116785714D01*
X191942857Y-116738095D01*
X192133333Y-116690476D01*
X192371428Y-116690476D01*
X192561904Y-116738095D01*
X192657142Y-116785714D01*
X192704761Y-116833333D01*
X192752380Y-116928571D01*
X192752380Y-117023809D01*
X192704761Y-117119047D01*
X192657142Y-117166666D01*
X192561904Y-117214285D01*
X192371428Y-117261904D01*
X192133333Y-117261904D01*
X191942857Y-117214285D01*
X191847619Y-117166666D01*
X191800000Y-117119047D01*
X191752380Y-117023809D01*
X192085714Y-115833333D02*
X192752380Y-115833333D01*
X192085714Y-116261904D02*
X192609523Y-116261904D01*
X192704761Y-116214285D01*
X192752380Y-116119047D01*
X192752380Y-115976190D01*
X192704761Y-115880952D01*
X192657142Y-115833333D01*
D13*
X190285714Y-117133333D02*
X190323809Y-117171428D01*
X190361904Y-117285714D01*
X190361904Y-117361904D01*
X190323809Y-117476190D01*
X190247619Y-117552380D01*
X190171428Y-117590476D01*
X190019047Y-117628571D01*
X189904761Y-117628571D01*
X189752380Y-117590476D01*
X189676190Y-117552380D01*
X189600000Y-117476190D01*
X189561904Y-117361904D01*
X189561904Y-117285714D01*
X189600000Y-117171428D01*
X189638095Y-117133333D01*
X189638095Y-116828571D02*
X189600000Y-116790476D01*
X189561904Y-116714285D01*
X189561904Y-116523809D01*
X189600000Y-116447619D01*
X189638095Y-116409523D01*
X189714285Y-116371428D01*
X189790476Y-116371428D01*
X189904761Y-116409523D01*
X190361904Y-116866666D01*
X190361904Y-116371428D01*
D14*
%TO.C,C3*%
X202600000Y-111300000D02*
X204200000Y-111300000D01*
X202600000Y-112100000D02*
X202600000Y-111300000D01*
X204200000Y-112100000D02*
X202600000Y-112100000D01*
X204200000Y-111300000D02*
X204200000Y-112100000D01*
%TO.C,J1*%
X200250000Y-117850000D02*
X200250000Y-119450000D01*
X193050000Y-119450000D02*
X193750000Y-119450000D01*
X193750000Y-117850000D02*
X200250000Y-117850000D01*
X199500000Y-116725000D02*
X198500000Y-116725000D01*
X200250000Y-119450000D02*
X200950000Y-119450000D01*
X199000000Y-117225000D02*
X199500000Y-116725000D01*
X193750000Y-119450000D02*
X193750000Y-117850000D01*
X193050000Y-111850000D02*
X193050000Y-119450000D01*
X200950000Y-119450000D02*
X200950000Y-111850000D01*
X198500000Y-116725000D02*
X199000000Y-117225000D01*
X200950000Y-111850000D02*
X193050000Y-111850000D01*
%TO.C,C4*%
X199500000Y-104300000D02*
X197900000Y-104300000D01*
X197900000Y-103500000D02*
X199500000Y-103500000D01*
X197900000Y-104300000D02*
X197900000Y-103500000D01*
X199500000Y-103500000D02*
X199500000Y-104300000D01*
%TO.C,C8*%
X194150000Y-102925000D02*
X191650000Y-102925000D01*
X191650000Y-102925000D02*
X191650000Y-99725000D01*
X191650000Y-99725000D02*
X194150000Y-99725000D01*
X194150000Y-99725000D02*
X194150000Y-102925000D01*
%TO.C,C7*%
X190000000Y-105400000D02*
X190000000Y-106200000D01*
X190000000Y-106200000D02*
X188400000Y-106200000D01*
X188400000Y-106200000D02*
X188400000Y-105400000D01*
X188400000Y-105400000D02*
X190000000Y-105400000D01*
%TO.C,R3*%
X202700000Y-98912500D02*
X202700000Y-98087500D01*
X202700000Y-98087500D02*
X204300000Y-98087500D01*
X204300000Y-98912500D02*
X202700000Y-98912500D01*
X204300000Y-98087500D02*
X204300000Y-98912500D01*
%TO.C,R4*%
X201100000Y-97500000D02*
X201100000Y-99100000D01*
X201100000Y-99100000D02*
X197900000Y-99100000D01*
X197900000Y-97500000D02*
X201100000Y-97500000D01*
X197900000Y-99100000D02*
X197900000Y-97500000D01*
%TO.C,U2*%
X192100000Y-112300000D02*
X188100000Y-112300000D01*
X191100000Y-109300000D02*
X192100000Y-110300000D01*
X188100000Y-112300000D02*
X188100000Y-109300000D01*
X188100000Y-109300000D02*
X191100000Y-109300000D01*
X192100000Y-110300000D02*
X192100000Y-112300000D01*
%TO.C,C5*%
X199800000Y-107200000D02*
X199000000Y-107200000D01*
X199000000Y-107200000D02*
X199000000Y-105600000D01*
X199800000Y-105600000D02*
X199800000Y-107200000D01*
X199000000Y-105600000D02*
X199800000Y-105600000D01*
%TO.C,C1*%
X205250000Y-115312500D02*
X205250000Y-118512500D01*
X202750000Y-118512500D02*
X202750000Y-115312500D01*
X202750000Y-115312500D02*
X205250000Y-115312500D01*
X205250000Y-118512500D02*
X202750000Y-118512500D01*
%TO.C,J4*%
X199045000Y-91040000D02*
X199045000Y-94850000D01*
X199045000Y-91040000D02*
X203355000Y-91040000D01*
X201200000Y-90235000D02*
X201835000Y-91040000D01*
X198560000Y-78590000D02*
X203840000Y-78590000D01*
X198025000Y-94850000D02*
X198025000Y-90020000D01*
X200950000Y-96035000D02*
X201200000Y-95535000D01*
X204375000Y-94850000D02*
X203355000Y-94850000D01*
X201450000Y-96035000D02*
X200950000Y-96035000D01*
X198025000Y-94850000D02*
X199045000Y-94850000D01*
X200565000Y-91040000D02*
X200565000Y-94850000D01*
X203355000Y-91040000D02*
X203355000Y-94850000D01*
X201835000Y-91040000D02*
X201835000Y-94850000D01*
X200565000Y-94850000D02*
X201835000Y-94850000D01*
X198025000Y-90020000D02*
X204375000Y-90020000D01*
X201200000Y-95535000D02*
X201450000Y-96035000D01*
X200565000Y-91040000D02*
X201200000Y-90235000D01*
X204375000Y-90020000D02*
X204375000Y-94850000D01*
X198560000Y-78590000D02*
X198560000Y-90020000D01*
X203840000Y-78590000D02*
X203840000Y-90020000D01*
%TO.C,U1*%
X201525000Y-105950000D02*
X200550000Y-104975000D01*
X200550000Y-104975000D02*
X200550000Y-102050000D01*
X200550000Y-102050000D02*
X205450000Y-102050000D01*
X205450000Y-102050000D02*
X205450000Y-105950000D01*
X205450000Y-105950000D02*
X201525000Y-105950000D01*
%TO.C,R2*%
X199500000Y-101012500D02*
X197900000Y-101012500D01*
X199500000Y-100187500D02*
X199500000Y-101012500D01*
X197900000Y-101012500D02*
X197900000Y-100187500D01*
X197900000Y-100187500D02*
X199500000Y-100187500D01*
%TO.C,C6*%
X190000000Y-107100000D02*
X191600000Y-107100000D01*
X191600000Y-107900000D02*
X190000000Y-107900000D01*
X190000000Y-107900000D02*
X190000000Y-107100000D01*
X191600000Y-107100000D02*
X191600000Y-107900000D01*
%TO.C,R1*%
X204200000Y-108987500D02*
X204200000Y-109812500D01*
X202600000Y-108987500D02*
X204200000Y-108987500D01*
X202600000Y-109812500D02*
X202600000Y-108987500D01*
X204200000Y-109812500D02*
X202600000Y-109812500D01*
%TO.C,C9*%
X188050000Y-99725000D02*
X190550000Y-99725000D01*
X188050000Y-102925000D02*
X188050000Y-99725000D01*
X190550000Y-99725000D02*
X190550000Y-102925000D01*
X190550000Y-102925000D02*
X188050000Y-102925000D01*
%TO.C,C2*%
X191250000Y-118600000D02*
X188750000Y-118600000D01*
X191250000Y-115400000D02*
X191250000Y-118600000D01*
X188750000Y-118600000D02*
X188750000Y-115400000D01*
X188750000Y-115400000D02*
X191250000Y-115400000D01*
%TD*%
M02*
