%TF.GenerationSoftware,KiCad,Pcbnew,(6.0.7)*%
%TF.CreationDate,2022-11-17T15:53:31+01:00*%
%TF.ProjectId,SFH203_photodetector,53464832-3033-45f7-9068-6f746f646574,2.0*%
%TF.SameCoordinates,Original*%
%TF.FileFunction,Copper,L2,Bot*%
%TF.FilePolarity,Positive*%
%FSLAX46Y46*%
G04 Gerber Fmt 4.6, Leading zero omitted, Abs format (unit mm)*
G04 Created by KiCad (PCBNEW (6.0.7)) date 2022-11-17 15:53:31*
%MOMM*%
%LPD*%
G01*
G04 APERTURE LIST*
G04 Aperture macros list*
%AMFreePoly0*
4,1,22,0.500000,-0.750000,0.000000,-0.750000,0.000000,-0.745033,-0.079941,-0.743568,-0.215256,-0.701293,-0.333266,-0.622738,-0.424486,-0.514219,-0.481581,-0.384460,-0.499164,-0.250000,-0.500000,-0.250000,-0.500000,0.250000,-0.499164,0.250000,-0.499963,0.256109,-0.478152,0.396186,-0.417904,0.524511,-0.324060,0.630769,-0.204165,0.706417,-0.067858,0.745374,0.000000,0.744959,0.000000,0.750000,
0.500000,0.750000,0.500000,-0.750000,0.500000,-0.750000,$1*%
%AMFreePoly1*
4,1,20,0.000000,0.744959,0.073905,0.744508,0.209726,0.703889,0.328688,0.626782,0.421226,0.519385,0.479903,0.390333,0.500000,0.250000,0.500000,-0.250000,0.499851,-0.262216,0.476331,-0.402017,0.414519,-0.529596,0.319384,-0.634700,0.198574,-0.708877,0.061801,-0.746166,0.000000,-0.745033,0.000000,-0.750000,-0.500000,-0.750000,-0.500000,0.750000,0.000000,0.750000,0.000000,0.744959,
0.000000,0.744959,$1*%
G04 Aperture macros list end*
%TA.AperFunction,ComponentPad*%
%ADD10C,0.800000*%
%TD*%
%TA.AperFunction,ComponentPad*%
%ADD11C,5.400000*%
%TD*%
%TA.AperFunction,SMDPad,CuDef*%
%ADD12R,0.460000X0.890000*%
%TD*%
%TA.AperFunction,ComponentPad*%
%ADD13C,0.970000*%
%TD*%
%TA.AperFunction,SMDPad,CuDef*%
%ADD14R,2.665000X4.190000*%
%TD*%
%TA.AperFunction,SMDPad,CuDef*%
%ADD15FreePoly0,90.000000*%
%TD*%
%TA.AperFunction,SMDPad,CuDef*%
%ADD16FreePoly1,90.000000*%
%TD*%
%TA.AperFunction,ComponentPad*%
%ADD17C,1.300000*%
%TD*%
%TA.AperFunction,ComponentPad*%
%ADD18C,1.100000*%
%TD*%
%TA.AperFunction,ViaPad*%
%ADD19C,0.600000*%
%TD*%
%TA.AperFunction,Conductor*%
%ADD20C,0.200000*%
%TD*%
%TA.AperFunction,Conductor*%
%ADD21C,0.500000*%
%TD*%
G04 APERTURE END LIST*
D10*
%TO.P,H2,1,1*%
%TO.N,GND*%
X192025000Y-117000000D03*
X190000000Y-119025000D03*
X191431891Y-118431891D03*
D11*
X190000000Y-117000000D03*
D10*
X190000000Y-114975000D03*
X188568109Y-118431891D03*
X191431891Y-115568109D03*
X187975000Y-117000000D03*
X188568109Y-115568109D03*
%TD*%
%TO.P,H1,1,1*%
%TO.N,GND*%
X202568109Y-115568109D03*
X201975000Y-117000000D03*
X205431891Y-115568109D03*
X202568109Y-118431891D03*
X204000000Y-114975000D03*
D11*
X204000000Y-117000000D03*
D10*
X205431891Y-118431891D03*
X204000000Y-119025000D03*
X206025000Y-117000000D03*
%TD*%
D12*
%TO.P,J4,2,Ext*%
%TO.N,GNDS*%
X195900000Y-95665000D03*
D13*
X195900000Y-96110000D03*
X202885000Y-96110000D03*
D14*
X202885000Y-93125000D03*
D12*
X202885000Y-95665000D03*
D14*
X195900000Y-93125000D03*
%TD*%
D15*
%TO.P,JP1,1,A*%
%TO.N,GND*%
X199400000Y-97800000D03*
D16*
%TO.P,JP1,2,B*%
%TO.N,GNDS*%
X199400000Y-96500000D03*
%TD*%
D17*
%TO.P,D1,1,K*%
%TO.N,Net-(C3-Pad2)*%
X196992500Y-108270000D03*
D18*
%TO.P,D1,2,A*%
%TO.N,V-*%
X196992500Y-105710000D03*
%TD*%
D19*
%TO.N,GNDS*%
X205600000Y-96000000D03*
X205600000Y-95000000D03*
X205600000Y-94000000D03*
X205600000Y-93000000D03*
X205600000Y-92000000D03*
X205600000Y-91000000D03*
%TO.N,GND*%
X192500000Y-93000000D03*
X191000000Y-93000000D03*
X189500000Y-93000000D03*
X188000000Y-93000000D03*
X192500000Y-92000000D03*
X191000000Y-92000000D03*
X189500000Y-92000000D03*
X188000000Y-92000000D03*
X192500000Y-91000000D03*
X191000000Y-91000000D03*
X189500000Y-91000000D03*
X188000000Y-91000000D03*
X197900000Y-102500000D03*
X190900000Y-106500000D03*
X199937414Y-111069305D03*
X192025000Y-112975000D03*
X193400000Y-97700000D03*
X191125000Y-112975000D03*
X189200000Y-97800000D03*
%TO.N,Net-(C3-Pad1)*%
X203600000Y-111700000D03*
X201900000Y-111700000D03*
%TO.N,V+*%
X199268209Y-104914738D03*
X191800000Y-110000000D03*
%TO.N,Net-(C6-Pad2)*%
X189100000Y-107400000D03*
X191200000Y-109300000D03*
%TO.N,Net-(C7-Pad1)*%
X194500000Y-103800000D03*
X191776089Y-103776089D03*
%TO.N,GNDS*%
X204200000Y-108700000D03*
%TO.N,Net-(R2-Pad1)*%
X201600000Y-100000000D03*
X203268475Y-100009782D03*
%TD*%
D20*
%TO.N,Net-(C3-Pad1)*%
X203600000Y-111700000D02*
X201900000Y-111700000D01*
D21*
%TO.N,V+*%
X192300000Y-110000000D02*
X193900000Y-111600000D01*
X191800000Y-110000000D02*
X192300000Y-110000000D01*
X193900000Y-111600000D02*
X198400000Y-111600000D01*
X198400000Y-111600000D02*
X199268209Y-110731791D01*
X199268209Y-110731791D02*
X199268209Y-104914738D01*
D20*
%TO.N,Net-(C6-Pad2)*%
X191000000Y-109300000D02*
X189100000Y-107400000D01*
X191200000Y-109300000D02*
X191000000Y-109300000D01*
%TO.N,Net-(C7-Pad1)*%
X191800000Y-103800000D02*
X191776089Y-103776089D01*
X194500000Y-103800000D02*
X191800000Y-103800000D01*
D21*
%TO.N,GNDS*%
X204800000Y-108700000D02*
X204200000Y-108700000D01*
X205900000Y-107600000D02*
X204800000Y-108700000D01*
X205900000Y-97427500D02*
X205900000Y-107600000D01*
X204457500Y-95985000D02*
X205900000Y-97427500D01*
D20*
%TO.N,Net-(R2-Pad1)*%
X203258693Y-100000000D02*
X203268475Y-100009782D01*
X201600000Y-100000000D02*
X203258693Y-100000000D01*
%TD*%
%TA.AperFunction,Conductor*%
%TO.N,GND*%
G36*
X194139063Y-90528502D02*
G01*
X194185556Y-90582158D01*
X194195660Y-90652432D01*
X194171768Y-90710065D01*
X194116885Y-90783295D01*
X194065755Y-90919684D01*
X194059000Y-90981866D01*
X194059000Y-95051403D01*
X194038998Y-95119524D01*
X193985342Y-95166017D01*
X193969460Y-95171940D01*
X193968988Y-95172156D01*
X193960343Y-95174694D01*
X193952764Y-95179564D01*
X193952761Y-95179566D01*
X193892175Y-95218503D01*
X193837388Y-95253712D01*
X193783732Y-95300205D01*
X193780792Y-95303598D01*
X193693919Y-95403854D01*
X193693917Y-95403857D01*
X193688018Y-95410665D01*
X193627302Y-95543614D01*
X193607300Y-95611735D01*
X193586500Y-95756404D01*
X193586500Y-96874973D01*
X193597816Y-96982180D01*
X193608800Y-97033632D01*
X193642248Y-97136113D01*
X193720311Y-97259677D01*
X193766387Y-97313692D01*
X193876102Y-97410260D01*
X194008577Y-97472004D01*
X194012887Y-97473306D01*
X194012890Y-97473307D01*
X194072232Y-97491232D01*
X194072236Y-97491233D01*
X194076540Y-97492533D01*
X194136778Y-97501671D01*
X194216592Y-97513779D01*
X194216595Y-97513779D01*
X194221043Y-97514454D01*
X194225547Y-97514489D01*
X194225548Y-97514489D01*
X195300471Y-97522821D01*
X195304474Y-97522852D01*
X195308440Y-97522377D01*
X195308444Y-97522377D01*
X195429561Y-97507878D01*
X195429568Y-97507877D01*
X195433525Y-97507403D01*
X195456350Y-97501671D01*
X195491007Y-97492968D01*
X195491012Y-97492966D01*
X195494892Y-97491992D01*
X195615939Y-97444631D01*
X195732940Y-97357036D01*
X195736121Y-97353854D01*
X195739525Y-97350905D01*
X195739547Y-97350931D01*
X195749375Y-97342415D01*
X195760162Y-97334340D01*
X195760167Y-97334336D01*
X195763768Y-97331640D01*
X195810905Y-97284503D01*
X195873217Y-97250477D01*
X195944032Y-97255542D01*
X195989095Y-97284503D01*
X196033509Y-97328917D01*
X196033540Y-97328886D01*
X196036460Y-97331104D01*
X196062263Y-97357636D01*
X196089855Y-97382124D01*
X196149751Y-97427885D01*
X196155923Y-97430762D01*
X196155927Y-97430764D01*
X196229335Y-97464978D01*
X196282226Y-97489629D01*
X196286536Y-97490931D01*
X196286539Y-97490932D01*
X196345881Y-97508857D01*
X196345885Y-97508858D01*
X196350189Y-97510158D01*
X196427618Y-97521904D01*
X196490240Y-97531404D01*
X196490243Y-97531404D01*
X196494691Y-97532079D01*
X196499195Y-97532114D01*
X196499196Y-97532114D01*
X197105398Y-97536813D01*
X198147393Y-97544891D01*
X198222479Y-97539959D01*
X198258955Y-97534859D01*
X198261220Y-97534371D01*
X198261225Y-97534370D01*
X198325852Y-97520443D01*
X198325853Y-97520443D01*
X198332520Y-97519006D01*
X198395112Y-97490421D01*
X198465384Y-97480317D01*
X198488300Y-97487045D01*
X198488420Y-97486636D01*
X198497068Y-97489175D01*
X198505266Y-97492919D01*
X198650000Y-97513729D01*
X199111047Y-97513729D01*
X199111047Y-97513727D01*
X199114015Y-97513318D01*
X199210438Y-97514497D01*
X199214723Y-97513937D01*
X199221760Y-97513729D01*
X199611047Y-97513729D01*
X199611047Y-97513727D01*
X199614015Y-97513318D01*
X199710438Y-97514497D01*
X199714723Y-97513937D01*
X199721760Y-97513729D01*
X200150000Y-97513729D01*
X200168214Y-97512426D01*
X200216375Y-97508982D01*
X200216377Y-97508982D01*
X200223111Y-97508500D01*
X200296418Y-97486975D01*
X200367412Y-97486975D01*
X200385144Y-97493667D01*
X200441639Y-97519999D01*
X200441654Y-97520005D01*
X200445729Y-97521904D01*
X200450039Y-97523206D01*
X200450042Y-97523207D01*
X200509384Y-97541132D01*
X200509388Y-97541133D01*
X200513692Y-97542433D01*
X200597514Y-97555149D01*
X200653743Y-97563679D01*
X200653746Y-97563679D01*
X200658194Y-97564354D01*
X200662698Y-97564389D01*
X200662699Y-97564389D01*
X202256025Y-97576741D01*
X202256026Y-97576741D01*
X202260029Y-97576772D01*
X202347198Y-97566338D01*
X202385087Y-97561803D01*
X202385090Y-97561802D01*
X202389062Y-97561327D01*
X202450423Y-97545920D01*
X202526463Y-97516174D01*
X202563537Y-97501671D01*
X202563538Y-97501670D01*
X202571461Y-97498571D01*
X202579012Y-97492919D01*
X202684864Y-97413680D01*
X202688467Y-97410983D01*
X202738670Y-97360781D01*
X202780572Y-97304808D01*
X202837408Y-97262262D01*
X202908224Y-97257198D01*
X202970536Y-97291224D01*
X202987960Y-97313019D01*
X202997296Y-97327796D01*
X202997302Y-97327804D01*
X202999707Y-97331611D01*
X203045783Y-97385626D01*
X203049154Y-97388593D01*
X203049157Y-97388596D01*
X203089096Y-97423748D01*
X203155501Y-97482195D01*
X203287976Y-97543939D01*
X203355937Y-97564467D01*
X203360371Y-97565140D01*
X203360377Y-97565141D01*
X203495985Y-97585712D01*
X203495988Y-97585712D01*
X203500436Y-97586387D01*
X203504940Y-97586422D01*
X203504941Y-97586422D01*
X204946197Y-97597595D01*
X205014160Y-97618124D01*
X205034315Y-97634496D01*
X205104595Y-97704776D01*
X205138621Y-97767088D01*
X205141500Y-97793871D01*
X205141500Y-107233629D01*
X205121498Y-107301750D01*
X205104595Y-107322724D01*
X204540668Y-107886651D01*
X204478356Y-107920677D01*
X204409307Y-107916255D01*
X204385790Y-107907881D01*
X204378802Y-107907048D01*
X204378799Y-107907047D01*
X204255698Y-107892368D01*
X204205680Y-107886404D01*
X204198677Y-107887140D01*
X204198676Y-107887140D01*
X204032288Y-107904628D01*
X204032286Y-107904629D01*
X204025288Y-107905364D01*
X203853579Y-107963818D01*
X203847575Y-107967512D01*
X203705095Y-108055166D01*
X203705092Y-108055168D01*
X203699088Y-108058862D01*
X203694053Y-108063793D01*
X203694050Y-108063795D01*
X203634242Y-108122364D01*
X203569493Y-108185771D01*
X203471235Y-108338238D01*
X203468826Y-108344858D01*
X203468824Y-108344861D01*
X203411812Y-108501500D01*
X203409197Y-108508685D01*
X203386463Y-108688640D01*
X203404163Y-108869160D01*
X203461418Y-109041273D01*
X203555380Y-109196424D01*
X203560269Y-109201487D01*
X203560270Y-109201488D01*
X203636468Y-109280393D01*
X203681382Y-109326902D01*
X203717086Y-109350266D01*
X203827065Y-109422234D01*
X203833159Y-109426222D01*
X203839763Y-109428678D01*
X203839765Y-109428679D01*
X203996558Y-109486990D01*
X203996560Y-109486990D01*
X204003168Y-109489448D01*
X204086995Y-109500633D01*
X204175980Y-109512507D01*
X204175984Y-109512507D01*
X204182961Y-109513438D01*
X204189972Y-109512800D01*
X204189976Y-109512800D01*
X204332459Y-109499832D01*
X204363600Y-109496998D01*
X204370302Y-109494820D01*
X204370304Y-109494820D01*
X204463105Y-109464667D01*
X204502041Y-109458500D01*
X204732930Y-109458500D01*
X204751880Y-109459933D01*
X204766115Y-109462099D01*
X204766119Y-109462099D01*
X204773349Y-109463199D01*
X204780641Y-109462606D01*
X204780644Y-109462606D01*
X204826018Y-109458915D01*
X204836233Y-109458500D01*
X204844293Y-109458500D01*
X204857583Y-109456951D01*
X204872507Y-109455211D01*
X204876882Y-109454778D01*
X204942339Y-109449454D01*
X204942342Y-109449453D01*
X204949637Y-109448860D01*
X204956601Y-109446604D01*
X204962560Y-109445413D01*
X204968415Y-109444029D01*
X204975681Y-109443182D01*
X205044327Y-109418265D01*
X205048455Y-109416848D01*
X205110936Y-109396607D01*
X205110938Y-109396606D01*
X205117899Y-109394351D01*
X205124154Y-109390555D01*
X205129628Y-109388049D01*
X205135058Y-109385330D01*
X205141937Y-109382833D01*
X205149623Y-109377794D01*
X205202976Y-109342814D01*
X205206680Y-109340477D01*
X205269107Y-109302595D01*
X205277484Y-109295197D01*
X205277508Y-109295224D01*
X205280500Y-109292571D01*
X205283733Y-109289868D01*
X205289852Y-109285856D01*
X205343128Y-109229617D01*
X205345506Y-109227175D01*
X206276405Y-108296276D01*
X206338717Y-108262250D01*
X206409532Y-108267315D01*
X206466368Y-108309862D01*
X206491179Y-108376382D01*
X206491500Y-108385371D01*
X206491500Y-114820792D01*
X206471498Y-114888913D01*
X206430446Y-114928764D01*
X201916401Y-119442809D01*
X201915468Y-119441876D01*
X201881253Y-119476089D01*
X201820870Y-119491500D01*
X192178835Y-119491500D01*
X192110714Y-119471498D01*
X192072288Y-119431498D01*
X189641922Y-117001132D01*
X190364408Y-117001132D01*
X190364539Y-117002965D01*
X190368790Y-117009580D01*
X192430699Y-119071489D01*
X192444643Y-119079103D01*
X192445423Y-119079048D01*
X192453470Y-119073696D01*
X192458932Y-119067880D01*
X192463454Y-119062491D01*
X192674113Y-118780896D01*
X192678003Y-118775042D01*
X192855962Y-118471719D01*
X192859176Y-118465465D01*
X193002214Y-118144195D01*
X193004711Y-118137620D01*
X193111048Y-117802405D01*
X193112794Y-117795603D01*
X193181100Y-117450635D01*
X193182081Y-117443654D01*
X193211619Y-117091898D01*
X193211833Y-117087529D01*
X193213025Y-117002178D01*
X193212934Y-116997828D01*
X193210744Y-116958666D01*
X200787406Y-116958666D01*
X200802133Y-117310021D01*
X200802818Y-117317013D01*
X200856620Y-117664559D01*
X200858080Y-117671426D01*
X200950288Y-118010807D01*
X200952502Y-118017463D01*
X201081970Y-118344462D01*
X201084909Y-118350823D01*
X201250019Y-118661347D01*
X201253653Y-118667348D01*
X201452339Y-118957523D01*
X201456633Y-118963098D01*
X201547208Y-119068030D01*
X201560251Y-119076447D01*
X201570282Y-119070508D01*
X203627978Y-117012812D01*
X203635592Y-116998868D01*
X203635461Y-116997035D01*
X203631210Y-116990420D01*
X201570595Y-114929805D01*
X201556651Y-114922191D01*
X201556342Y-114922213D01*
X201547671Y-114928068D01*
X201512436Y-114966654D01*
X201507992Y-114972103D01*
X201301287Y-115256608D01*
X201297470Y-115262530D01*
X201123771Y-115568297D01*
X201120641Y-115574602D01*
X200982101Y-115897838D01*
X200979699Y-115904439D01*
X200878055Y-116241099D01*
X200876400Y-116247942D01*
X200812918Y-116593824D01*
X200812035Y-116600819D01*
X200787504Y-116951621D01*
X200787406Y-116958666D01*
X193210744Y-116958666D01*
X193193227Y-116645352D01*
X193192445Y-116638380D01*
X193133794Y-116291612D01*
X193132241Y-116284776D01*
X193035300Y-115946704D01*
X193032997Y-115940091D01*
X192898976Y-115614930D01*
X192895947Y-115608610D01*
X192726521Y-115300424D01*
X192722795Y-115294462D01*
X192520076Y-115007090D01*
X192515715Y-115001588D01*
X192453394Y-114931394D01*
X192440004Y-114923015D01*
X192430446Y-114928764D01*
X190372022Y-116987188D01*
X190364408Y-117001132D01*
X189641922Y-117001132D01*
X187557783Y-114916993D01*
X187558582Y-114916194D01*
X187523912Y-114881524D01*
X187508500Y-114821139D01*
X187508500Y-114560178D01*
X187923338Y-114560178D01*
X187929184Y-114569974D01*
X189987188Y-116627978D01*
X190001132Y-116635592D01*
X190002965Y-116635461D01*
X190009580Y-116631210D01*
X192069714Y-114571076D01*
X192075665Y-114560178D01*
X201923338Y-114560178D01*
X201929184Y-114569974D01*
X203987188Y-116627978D01*
X204001132Y-116635592D01*
X204002965Y-116635461D01*
X204009580Y-116631210D01*
X206069714Y-114571076D01*
X206077328Y-114557132D01*
X206077323Y-114557057D01*
X206071217Y-114548081D01*
X206015933Y-114498303D01*
X206010445Y-114493891D01*
X205724508Y-114289180D01*
X205718561Y-114285407D01*
X205411586Y-114113844D01*
X205405268Y-114110762D01*
X205081073Y-113974484D01*
X205074437Y-113972121D01*
X204737084Y-113872832D01*
X204730241Y-113871226D01*
X204383898Y-113810157D01*
X204376927Y-113809326D01*
X204025949Y-113787244D01*
X204018918Y-113787195D01*
X203667651Y-113804374D01*
X203660673Y-113805108D01*
X203313519Y-113861335D01*
X203306651Y-113862845D01*
X202967935Y-113957417D01*
X202961279Y-113959683D01*
X202635212Y-114091422D01*
X202628857Y-114094412D01*
X202319501Y-114261681D01*
X202313512Y-114265365D01*
X202024731Y-114466073D01*
X202019200Y-114470394D01*
X201931736Y-114546964D01*
X201923338Y-114560178D01*
X192075665Y-114560178D01*
X192077328Y-114557132D01*
X192077323Y-114557057D01*
X192071217Y-114548081D01*
X192015933Y-114498303D01*
X192010445Y-114493891D01*
X191724508Y-114289180D01*
X191718561Y-114285407D01*
X191411586Y-114113844D01*
X191405268Y-114110762D01*
X191081073Y-113974484D01*
X191074437Y-113972121D01*
X190737084Y-113872832D01*
X190730241Y-113871226D01*
X190383898Y-113810157D01*
X190376927Y-113809326D01*
X190025949Y-113787244D01*
X190018918Y-113787195D01*
X189667651Y-113804374D01*
X189660673Y-113805108D01*
X189313519Y-113861335D01*
X189306651Y-113862845D01*
X188967935Y-113957417D01*
X188961279Y-113959683D01*
X188635212Y-114091422D01*
X188628857Y-114094412D01*
X188319501Y-114261681D01*
X188313512Y-114265365D01*
X188024731Y-114466073D01*
X188019200Y-114470394D01*
X187931736Y-114546964D01*
X187923338Y-114560178D01*
X187508500Y-114560178D01*
X187508500Y-107388640D01*
X188286463Y-107388640D01*
X188304163Y-107569160D01*
X188361418Y-107741273D01*
X188365065Y-107747295D01*
X188365066Y-107747297D01*
X188449817Y-107887238D01*
X188455380Y-107896424D01*
X188460269Y-107901487D01*
X188460270Y-107901488D01*
X188478801Y-107920677D01*
X188581382Y-108026902D01*
X188733159Y-108126222D01*
X188739763Y-108128678D01*
X188739765Y-108128679D01*
X188896558Y-108186990D01*
X188896560Y-108186990D01*
X188903168Y-108189448D01*
X188910153Y-108190380D01*
X188910157Y-108190381D01*
X188972547Y-108198706D01*
X189005986Y-108203167D01*
X189070862Y-108232003D01*
X189078416Y-108238965D01*
X190430732Y-109591281D01*
X190454135Y-109629167D01*
X190456240Y-109628194D01*
X190459193Y-109634585D01*
X190461418Y-109641273D01*
X190555380Y-109796424D01*
X190681382Y-109926902D01*
X190833159Y-110026222D01*
X190839763Y-110028678D01*
X190839771Y-110028682D01*
X190922293Y-110059372D01*
X190979170Y-110101864D01*
X191000079Y-110155667D01*
X191002010Y-110155256D01*
X191003476Y-110162150D01*
X191004163Y-110169160D01*
X191061418Y-110341273D01*
X191155380Y-110496424D01*
X191281382Y-110626902D01*
X191287278Y-110630760D01*
X191427120Y-110722270D01*
X191433159Y-110726222D01*
X191439763Y-110728678D01*
X191439765Y-110728679D01*
X191596558Y-110786990D01*
X191596560Y-110786990D01*
X191603168Y-110789448D01*
X191679822Y-110799676D01*
X191775980Y-110812507D01*
X191775984Y-110812507D01*
X191782961Y-110813438D01*
X191789972Y-110812800D01*
X191789976Y-110812800D01*
X191960473Y-110797283D01*
X192030126Y-110811028D01*
X192060988Y-110833669D01*
X193316230Y-112088911D01*
X193328616Y-112103323D01*
X193337149Y-112114918D01*
X193337154Y-112114923D01*
X193341492Y-112120818D01*
X193347070Y-112125557D01*
X193347073Y-112125560D01*
X193381768Y-112155035D01*
X193389284Y-112161965D01*
X193394980Y-112167661D01*
X193397841Y-112169924D01*
X193397846Y-112169929D01*
X193417266Y-112185293D01*
X193420667Y-112188082D01*
X193476285Y-112235333D01*
X193482798Y-112238659D01*
X193487837Y-112242020D01*
X193492979Y-112245196D01*
X193498716Y-112249734D01*
X193564875Y-112280655D01*
X193568769Y-112282558D01*
X193633808Y-112315769D01*
X193640917Y-112317508D01*
X193646551Y-112319604D01*
X193652321Y-112321523D01*
X193658950Y-112324622D01*
X193666113Y-112326112D01*
X193666116Y-112326113D01*
X193716830Y-112336661D01*
X193730435Y-112339491D01*
X193734701Y-112340457D01*
X193805610Y-112357808D01*
X193811212Y-112358156D01*
X193811215Y-112358156D01*
X193816764Y-112358500D01*
X193816762Y-112358535D01*
X193820734Y-112358775D01*
X193824955Y-112359152D01*
X193832115Y-112360641D01*
X193909542Y-112358546D01*
X193912950Y-112358500D01*
X198332930Y-112358500D01*
X198351880Y-112359933D01*
X198366115Y-112362099D01*
X198366119Y-112362099D01*
X198373349Y-112363199D01*
X198380641Y-112362606D01*
X198380644Y-112362606D01*
X198426018Y-112358915D01*
X198436233Y-112358500D01*
X198444293Y-112358500D01*
X198461680Y-112356473D01*
X198472507Y-112355211D01*
X198476882Y-112354778D01*
X198542339Y-112349454D01*
X198542342Y-112349453D01*
X198549637Y-112348860D01*
X198556601Y-112346604D01*
X198562560Y-112345413D01*
X198568415Y-112344029D01*
X198575681Y-112343182D01*
X198644327Y-112318265D01*
X198648455Y-112316848D01*
X198710936Y-112296607D01*
X198710938Y-112296606D01*
X198717899Y-112294351D01*
X198724154Y-112290555D01*
X198729628Y-112288049D01*
X198735058Y-112285330D01*
X198741937Y-112282833D01*
X198748058Y-112278820D01*
X198802976Y-112242814D01*
X198806680Y-112240477D01*
X198869107Y-112202595D01*
X198877484Y-112195197D01*
X198877508Y-112195224D01*
X198880500Y-112192571D01*
X198883733Y-112189868D01*
X198889852Y-112185856D01*
X198943128Y-112129617D01*
X198945506Y-112127175D01*
X199384041Y-111688640D01*
X201086463Y-111688640D01*
X201104163Y-111869160D01*
X201161418Y-112041273D01*
X201165065Y-112047295D01*
X201165066Y-112047297D01*
X201249463Y-112186653D01*
X201255380Y-112196424D01*
X201260269Y-112201487D01*
X201260270Y-112201488D01*
X201306861Y-112249734D01*
X201381382Y-112326902D01*
X201533159Y-112426222D01*
X201539763Y-112428678D01*
X201539765Y-112428679D01*
X201696558Y-112486990D01*
X201696560Y-112486990D01*
X201703168Y-112489448D01*
X201786995Y-112500633D01*
X201875980Y-112512507D01*
X201875984Y-112512507D01*
X201882961Y-112513438D01*
X201889972Y-112512800D01*
X201889976Y-112512800D01*
X202032459Y-112499832D01*
X202063600Y-112496998D01*
X202070302Y-112494820D01*
X202070304Y-112494820D01*
X202229409Y-112443124D01*
X202229412Y-112443123D01*
X202236108Y-112440947D01*
X202391912Y-112348069D01*
X202397013Y-112343212D01*
X202402626Y-112338951D01*
X202403385Y-112339952D01*
X202460090Y-112310762D01*
X202483860Y-112308500D01*
X203015699Y-112308500D01*
X203084692Y-112329068D01*
X203101325Y-112339952D01*
X203233159Y-112426222D01*
X203239763Y-112428678D01*
X203239765Y-112428679D01*
X203396558Y-112486990D01*
X203396560Y-112486990D01*
X203403168Y-112489448D01*
X203486995Y-112500633D01*
X203575980Y-112512507D01*
X203575984Y-112512507D01*
X203582961Y-112513438D01*
X203589972Y-112512800D01*
X203589976Y-112512800D01*
X203732459Y-112499832D01*
X203763600Y-112496998D01*
X203770302Y-112494820D01*
X203770304Y-112494820D01*
X203929409Y-112443124D01*
X203929412Y-112443123D01*
X203936108Y-112440947D01*
X204032513Y-112383478D01*
X204085860Y-112351677D01*
X204085862Y-112351676D01*
X204091912Y-112348069D01*
X204223266Y-112222982D01*
X204323643Y-112071902D01*
X204388055Y-111902338D01*
X204389035Y-111895366D01*
X204412748Y-111726639D01*
X204412748Y-111726636D01*
X204413299Y-111722717D01*
X204413616Y-111700000D01*
X204393397Y-111519745D01*
X204391080Y-111513091D01*
X204336064Y-111355106D01*
X204336062Y-111355103D01*
X204333745Y-111348448D01*
X204297410Y-111290299D01*
X204241359Y-111200598D01*
X204237626Y-111194624D01*
X204223941Y-111180843D01*
X204114778Y-111070915D01*
X204114774Y-111070912D01*
X204109815Y-111065918D01*
X204098697Y-111058862D01*
X204002766Y-110997983D01*
X203956666Y-110968727D01*
X203927463Y-110958328D01*
X203792425Y-110910243D01*
X203792420Y-110910242D01*
X203785790Y-110907881D01*
X203778802Y-110907048D01*
X203778799Y-110907047D01*
X203655698Y-110892368D01*
X203605680Y-110886404D01*
X203598677Y-110887140D01*
X203598676Y-110887140D01*
X203432288Y-110904628D01*
X203432286Y-110904629D01*
X203425288Y-110905364D01*
X203253579Y-110963818D01*
X203099088Y-111058862D01*
X203094054Y-111063791D01*
X203092776Y-111064790D01*
X203026782Y-111090967D01*
X203015204Y-111091500D01*
X202484751Y-111091500D01*
X202416630Y-111071498D01*
X202412157Y-111068276D01*
X202409815Y-111065918D01*
X202398697Y-111058862D01*
X202302766Y-110997983D01*
X202256666Y-110968727D01*
X202227463Y-110958328D01*
X202092425Y-110910243D01*
X202092420Y-110910242D01*
X202085790Y-110907881D01*
X202078802Y-110907048D01*
X202078799Y-110907047D01*
X201955698Y-110892368D01*
X201905680Y-110886404D01*
X201898677Y-110887140D01*
X201898676Y-110887140D01*
X201732288Y-110904628D01*
X201732286Y-110904629D01*
X201725288Y-110905364D01*
X201553579Y-110963818D01*
X201519197Y-110984970D01*
X201405095Y-111055166D01*
X201405092Y-111055168D01*
X201399088Y-111058862D01*
X201394053Y-111063793D01*
X201394050Y-111063795D01*
X201294698Y-111161088D01*
X201269493Y-111185771D01*
X201171235Y-111338238D01*
X201168826Y-111344858D01*
X201168824Y-111344861D01*
X201111606Y-111502066D01*
X201109197Y-111508685D01*
X201086463Y-111688640D01*
X199384041Y-111688640D01*
X199757120Y-111315561D01*
X199771532Y-111303175D01*
X199783127Y-111294642D01*
X199783132Y-111294637D01*
X199789027Y-111290299D01*
X199793766Y-111284721D01*
X199793769Y-111284718D01*
X199823244Y-111250023D01*
X199830174Y-111242507D01*
X199835869Y-111236812D01*
X199853490Y-111214540D01*
X199856281Y-111211136D01*
X199898800Y-111161088D01*
X199898801Y-111161086D01*
X199903542Y-111155506D01*
X199906870Y-111148990D01*
X199910237Y-111143941D01*
X199913404Y-111138812D01*
X199917943Y-111133075D01*
X199948864Y-111066916D01*
X199950770Y-111063016D01*
X199952891Y-111058862D01*
X199983978Y-110997983D01*
X199985717Y-110990875D01*
X199987816Y-110985232D01*
X199989733Y-110979469D01*
X199992831Y-110972841D01*
X200007696Y-110901374D01*
X200008666Y-110897090D01*
X200011281Y-110886404D01*
X200026017Y-110826181D01*
X200026709Y-110815027D01*
X200026745Y-110815029D01*
X200026984Y-110811036D01*
X200027358Y-110806844D01*
X200028849Y-110799676D01*
X200026755Y-110722270D01*
X200026709Y-110718863D01*
X200026709Y-105218005D01*
X200034921Y-105173261D01*
X200053764Y-105123658D01*
X200053765Y-105123656D01*
X200056264Y-105117076D01*
X200057244Y-105110104D01*
X200080957Y-104941377D01*
X200080957Y-104941374D01*
X200081508Y-104937455D01*
X200081825Y-104914738D01*
X200061606Y-104734483D01*
X200059289Y-104727829D01*
X200004273Y-104569844D01*
X200004271Y-104569841D01*
X200001954Y-104563186D01*
X199916401Y-104426271D01*
X199909568Y-104415336D01*
X199905835Y-104409362D01*
X199900873Y-104404365D01*
X199782987Y-104285653D01*
X199782983Y-104285650D01*
X199778024Y-104280656D01*
X199766906Y-104273600D01*
X199718747Y-104243038D01*
X199624875Y-104183465D01*
X199573901Y-104165314D01*
X199460634Y-104124981D01*
X199460629Y-104124980D01*
X199453999Y-104122619D01*
X199447011Y-104121786D01*
X199447008Y-104121785D01*
X199323907Y-104107106D01*
X199273889Y-104101142D01*
X199266886Y-104101878D01*
X199266885Y-104101878D01*
X199100497Y-104119366D01*
X199100495Y-104119367D01*
X199093497Y-104120102D01*
X198921788Y-104178556D01*
X198915784Y-104182250D01*
X198773304Y-104269904D01*
X198773301Y-104269906D01*
X198767297Y-104273600D01*
X198762262Y-104278531D01*
X198762259Y-104278533D01*
X198711908Y-104327841D01*
X198637702Y-104400509D01*
X198539444Y-104552976D01*
X198537035Y-104559596D01*
X198537033Y-104559599D01*
X198497541Y-104668102D01*
X198477406Y-104723423D01*
X198454672Y-104903378D01*
X198472372Y-105083898D01*
X198474596Y-105090583D01*
X198503267Y-105176771D01*
X198509709Y-105216543D01*
X198509709Y-110365420D01*
X198489707Y-110433541D01*
X198472804Y-110454515D01*
X198122724Y-110804595D01*
X198060412Y-110838621D01*
X198033629Y-110841500D01*
X194266371Y-110841500D01*
X194198250Y-110821498D01*
X194177276Y-110804595D01*
X192883770Y-109511089D01*
X192871384Y-109496677D01*
X192862851Y-109485082D01*
X192862846Y-109485077D01*
X192858508Y-109479182D01*
X192852930Y-109474443D01*
X192852927Y-109474440D01*
X192818232Y-109444965D01*
X192810716Y-109438035D01*
X192805021Y-109432340D01*
X192792247Y-109422234D01*
X192782749Y-109414719D01*
X192779345Y-109411928D01*
X192729297Y-109369409D01*
X192729295Y-109369408D01*
X192723715Y-109364667D01*
X192717199Y-109361339D01*
X192712150Y-109357972D01*
X192707021Y-109354805D01*
X192701284Y-109350266D01*
X192635125Y-109319345D01*
X192631225Y-109317439D01*
X192566192Y-109284231D01*
X192559084Y-109282492D01*
X192553441Y-109280393D01*
X192547678Y-109278476D01*
X192541050Y-109275378D01*
X192469583Y-109260513D01*
X192465299Y-109259543D01*
X192394390Y-109242192D01*
X192388788Y-109241844D01*
X192388785Y-109241844D01*
X192383236Y-109241500D01*
X192383238Y-109241464D01*
X192379245Y-109241225D01*
X192375053Y-109240851D01*
X192367885Y-109239360D01*
X192301675Y-109241151D01*
X192290479Y-109241454D01*
X192287072Y-109241500D01*
X192119711Y-109241500D01*
X192051590Y-109221498D01*
X192005097Y-109167842D01*
X191994496Y-109129542D01*
X191994182Y-109126745D01*
X191993397Y-109119745D01*
X191985262Y-109096384D01*
X191936064Y-108955106D01*
X191936062Y-108955103D01*
X191933745Y-108948448D01*
X191837626Y-108794624D01*
X191832664Y-108789627D01*
X191714778Y-108670915D01*
X191714774Y-108670912D01*
X191709815Y-108665918D01*
X191697925Y-108658372D01*
X191650538Y-108628300D01*
X191556666Y-108568727D01*
X191495860Y-108547075D01*
X191392425Y-108510243D01*
X191392420Y-108510242D01*
X191385790Y-108507881D01*
X191378802Y-108507048D01*
X191378799Y-108507047D01*
X191255698Y-108492368D01*
X191205680Y-108486404D01*
X191198677Y-108487140D01*
X191198676Y-108487140D01*
X191121817Y-108495218D01*
X191051979Y-108482446D01*
X191019552Y-108459003D01*
X190800093Y-108239544D01*
X195829436Y-108239544D01*
X195843361Y-108452006D01*
X195844782Y-108457602D01*
X195844783Y-108457607D01*
X195894351Y-108652777D01*
X195895772Y-108658372D01*
X195898189Y-108663615D01*
X195958585Y-108794624D01*
X195984911Y-108851731D01*
X196107796Y-109025609D01*
X196260309Y-109174181D01*
X196265105Y-109177386D01*
X196265108Y-109177388D01*
X196358153Y-109239558D01*
X196437343Y-109292471D01*
X196442646Y-109294749D01*
X196442649Y-109294751D01*
X196616421Y-109369409D01*
X196632970Y-109376519D01*
X196681062Y-109387401D01*
X196835001Y-109422234D01*
X196835006Y-109422235D01*
X196840638Y-109423509D01*
X196846409Y-109423736D01*
X196846411Y-109423736D01*
X196907752Y-109426146D01*
X197053391Y-109431869D01*
X197059100Y-109431041D01*
X197059104Y-109431041D01*
X197258390Y-109402145D01*
X197258394Y-109402144D01*
X197264105Y-109401316D01*
X197465723Y-109332876D01*
X197651493Y-109228840D01*
X197815193Y-109092693D01*
X197951340Y-108928993D01*
X198055376Y-108743223D01*
X198123816Y-108541605D01*
X198128364Y-108510243D01*
X198153837Y-108334561D01*
X198153837Y-108334559D01*
X198154369Y-108330891D01*
X198155963Y-108270000D01*
X198136481Y-108057976D01*
X198110967Y-107967512D01*
X198080254Y-107858611D01*
X198080253Y-107858609D01*
X198078686Y-107853052D01*
X198026534Y-107747297D01*
X197987070Y-107667273D01*
X197984515Y-107662092D01*
X197857122Y-107491491D01*
X197700771Y-107346963D01*
X197520701Y-107233347D01*
X197322941Y-107154449D01*
X197317281Y-107153323D01*
X197317277Y-107153322D01*
X197119782Y-107114038D01*
X197119780Y-107114038D01*
X197114115Y-107112911D01*
X197108340Y-107112835D01*
X197108336Y-107112835D01*
X197001661Y-107111439D01*
X196901216Y-107110124D01*
X196895519Y-107111103D01*
X196895518Y-107111103D01*
X196697064Y-107145203D01*
X196697061Y-107145204D01*
X196691374Y-107146181D01*
X196491616Y-107219875D01*
X196308634Y-107328739D01*
X196148554Y-107469125D01*
X196016738Y-107636333D01*
X196014049Y-107641444D01*
X196014047Y-107641447D01*
X195965042Y-107734590D01*
X195917600Y-107824762D01*
X195915886Y-107830283D01*
X195915884Y-107830287D01*
X195887817Y-107920677D01*
X195854461Y-108028102D01*
X195829436Y-108239544D01*
X190800093Y-108239544D01*
X189938888Y-107378339D01*
X189904862Y-107316027D01*
X189902768Y-107303289D01*
X189894182Y-107226744D01*
X189893397Y-107219745D01*
X189891080Y-107213091D01*
X189836064Y-107055106D01*
X189836062Y-107055103D01*
X189833745Y-107048448D01*
X189737626Y-106894624D01*
X189723941Y-106880843D01*
X189614778Y-106770915D01*
X189614774Y-106770912D01*
X189609815Y-106765918D01*
X189598697Y-106758862D01*
X189511138Y-106703296D01*
X189456666Y-106668727D01*
X189427463Y-106658328D01*
X189292425Y-106610243D01*
X189292420Y-106610242D01*
X189285790Y-106607881D01*
X189278802Y-106607048D01*
X189278799Y-106607047D01*
X189155698Y-106592368D01*
X189105680Y-106586404D01*
X189098677Y-106587140D01*
X189098676Y-106587140D01*
X188932288Y-106604628D01*
X188932286Y-106604629D01*
X188925288Y-106605364D01*
X188753579Y-106663818D01*
X188716600Y-106686568D01*
X188605095Y-106755166D01*
X188605092Y-106755168D01*
X188599088Y-106758862D01*
X188594053Y-106763793D01*
X188594050Y-106763795D01*
X188474525Y-106880843D01*
X188469493Y-106885771D01*
X188371235Y-107038238D01*
X188368826Y-107044858D01*
X188368824Y-107044861D01*
X188311606Y-107202066D01*
X188309197Y-107208685D01*
X188286463Y-107388640D01*
X187508500Y-107388640D01*
X187508500Y-105695150D01*
X195928982Y-105695150D01*
X195946352Y-105902004D01*
X196003569Y-106101545D01*
X196006387Y-106107027D01*
X196006388Y-106107031D01*
X196095635Y-106280686D01*
X196098455Y-106286173D01*
X196227394Y-106448854D01*
X196232081Y-106452843D01*
X196232084Y-106452846D01*
X196264278Y-106480245D01*
X196385476Y-106583392D01*
X196566680Y-106684664D01*
X196764103Y-106748810D01*
X196970225Y-106773389D01*
X196976360Y-106772917D01*
X196976362Y-106772917D01*
X197171055Y-106757936D01*
X197171060Y-106757935D01*
X197177196Y-106757463D01*
X197183126Y-106755807D01*
X197183128Y-106755807D01*
X197277164Y-106729552D01*
X197377132Y-106701640D01*
X197442289Y-106668727D01*
X197556916Y-106610825D01*
X197556918Y-106610824D01*
X197562417Y-106608046D01*
X197725995Y-106480245D01*
X197861633Y-106323106D01*
X197964167Y-106142614D01*
X198029690Y-105945644D01*
X198055707Y-105739698D01*
X198056122Y-105710000D01*
X198035865Y-105503408D01*
X197975868Y-105304685D01*
X197918151Y-105196136D01*
X197881309Y-105126847D01*
X197881308Y-105126845D01*
X197878413Y-105121401D01*
X197829583Y-105061529D01*
X197751110Y-104965311D01*
X197751107Y-104965308D01*
X197747215Y-104960536D01*
X197740270Y-104954790D01*
X197592018Y-104832145D01*
X197592019Y-104832145D01*
X197587270Y-104828217D01*
X197581853Y-104825288D01*
X197581850Y-104825286D01*
X197410090Y-104732416D01*
X197410085Y-104732414D01*
X197404670Y-104729486D01*
X197206371Y-104668102D01*
X197200246Y-104667458D01*
X197200245Y-104667458D01*
X197006054Y-104647048D01*
X197006052Y-104647048D01*
X196999925Y-104646404D01*
X196914015Y-104654223D01*
X196799336Y-104664659D01*
X196799333Y-104664660D01*
X196793197Y-104665218D01*
X196787291Y-104666956D01*
X196787287Y-104666957D01*
X196639432Y-104710473D01*
X196594060Y-104723827D01*
X196410100Y-104819999D01*
X196248323Y-104950071D01*
X196244365Y-104954788D01*
X196244363Y-104954790D01*
X196239542Y-104960536D01*
X196114891Y-105109089D01*
X196111927Y-105114481D01*
X196111924Y-105114485D01*
X196017854Y-105285598D01*
X196014887Y-105290995D01*
X195952121Y-105488861D01*
X195951435Y-105494978D01*
X195951434Y-105494982D01*
X195950489Y-105503408D01*
X195928982Y-105695150D01*
X187508500Y-105695150D01*
X187508500Y-103764729D01*
X190962552Y-103764729D01*
X190980252Y-103945249D01*
X191037507Y-104117362D01*
X191041154Y-104123384D01*
X191041155Y-104123386D01*
X191079829Y-104187244D01*
X191131469Y-104272513D01*
X191136358Y-104277576D01*
X191136359Y-104277577D01*
X191144158Y-104285653D01*
X191257471Y-104402991D01*
X191409248Y-104502311D01*
X191415852Y-104504767D01*
X191415854Y-104504768D01*
X191572647Y-104563079D01*
X191572649Y-104563079D01*
X191579257Y-104565537D01*
X191663084Y-104576722D01*
X191752069Y-104588596D01*
X191752073Y-104588596D01*
X191759050Y-104589527D01*
X191766061Y-104588889D01*
X191766065Y-104588889D01*
X191908548Y-104575921D01*
X191939689Y-104573087D01*
X191946391Y-104570909D01*
X191946393Y-104570909D01*
X192105498Y-104519213D01*
X192105501Y-104519212D01*
X192112197Y-104517036D01*
X192264458Y-104426270D01*
X192328973Y-104408500D01*
X193915699Y-104408500D01*
X193984692Y-104429068D01*
X194133159Y-104526222D01*
X194139763Y-104528678D01*
X194139765Y-104528679D01*
X194296558Y-104586990D01*
X194296560Y-104586990D01*
X194303168Y-104589448D01*
X194386995Y-104600633D01*
X194475980Y-104612507D01*
X194475984Y-104612507D01*
X194482961Y-104613438D01*
X194489972Y-104612800D01*
X194489976Y-104612800D01*
X194632459Y-104599832D01*
X194663600Y-104596998D01*
X194670302Y-104594820D01*
X194670304Y-104594820D01*
X194829409Y-104543124D01*
X194829412Y-104543123D01*
X194836108Y-104540947D01*
X194991912Y-104448069D01*
X195123266Y-104322982D01*
X195223643Y-104171902D01*
X195288055Y-104002338D01*
X195296078Y-103945249D01*
X195312748Y-103826639D01*
X195312748Y-103826636D01*
X195313299Y-103822717D01*
X195313616Y-103800000D01*
X195293397Y-103619745D01*
X195233745Y-103448448D01*
X195137626Y-103294624D01*
X195100196Y-103256932D01*
X195014778Y-103170915D01*
X195014774Y-103170912D01*
X195009815Y-103165918D01*
X194998697Y-103158862D01*
X194950538Y-103128300D01*
X194856666Y-103068727D01*
X194786104Y-103043601D01*
X194692425Y-103010243D01*
X194692420Y-103010242D01*
X194685790Y-103007881D01*
X194678802Y-103007048D01*
X194678799Y-103007047D01*
X194555698Y-102992368D01*
X194505680Y-102986404D01*
X194498677Y-102987140D01*
X194498676Y-102987140D01*
X194332288Y-103004628D01*
X194332286Y-103004629D01*
X194325288Y-103005364D01*
X194153579Y-103063818D01*
X193999088Y-103158862D01*
X193994054Y-103163791D01*
X193992776Y-103164790D01*
X193926782Y-103190967D01*
X193915204Y-103191500D01*
X192387502Y-103191500D01*
X192319381Y-103171498D01*
X192298098Y-103154285D01*
X192290872Y-103147009D01*
X192290868Y-103147006D01*
X192285904Y-103142007D01*
X192274786Y-103134951D01*
X192226627Y-103104389D01*
X192132755Y-103044816D01*
X192103552Y-103034417D01*
X191968514Y-102986332D01*
X191968509Y-102986331D01*
X191961879Y-102983970D01*
X191954891Y-102983137D01*
X191954888Y-102983136D01*
X191831787Y-102968457D01*
X191781769Y-102962493D01*
X191774766Y-102963229D01*
X191774765Y-102963229D01*
X191608377Y-102980717D01*
X191608375Y-102980718D01*
X191601377Y-102981453D01*
X191429668Y-103039907D01*
X191386666Y-103066362D01*
X191281184Y-103131255D01*
X191281181Y-103131257D01*
X191275177Y-103134951D01*
X191270142Y-103139882D01*
X191270139Y-103139884D01*
X191237856Y-103171498D01*
X191145582Y-103261860D01*
X191047324Y-103414327D01*
X191044915Y-103420947D01*
X191044913Y-103420950D01*
X190987695Y-103578155D01*
X190985286Y-103584774D01*
X190962552Y-103764729D01*
X187508500Y-103764729D01*
X187508500Y-99988640D01*
X200786463Y-99988640D01*
X200804163Y-100169160D01*
X200861418Y-100341273D01*
X200865065Y-100347295D01*
X200865066Y-100347297D01*
X200885892Y-100381684D01*
X200955380Y-100496424D01*
X201081382Y-100626902D01*
X201233159Y-100726222D01*
X201239763Y-100728678D01*
X201239765Y-100728679D01*
X201396558Y-100786990D01*
X201396560Y-100786990D01*
X201403168Y-100789448D01*
X201483464Y-100800162D01*
X201575980Y-100812507D01*
X201575984Y-100812507D01*
X201582961Y-100813438D01*
X201589972Y-100812800D01*
X201589976Y-100812800D01*
X201739075Y-100799230D01*
X201763600Y-100796998D01*
X201770302Y-100794820D01*
X201770304Y-100794820D01*
X201929409Y-100743124D01*
X201929412Y-100743123D01*
X201936108Y-100740947D01*
X202091912Y-100648069D01*
X202097013Y-100643212D01*
X202102626Y-100638951D01*
X202103385Y-100639952D01*
X202160090Y-100610762D01*
X202183860Y-100608500D01*
X202671658Y-100608500D01*
X202739779Y-100628502D01*
X202747180Y-100633912D01*
X202749857Y-100636684D01*
X202755753Y-100640542D01*
X202886686Y-100726222D01*
X202901634Y-100736004D01*
X202908238Y-100738460D01*
X202908240Y-100738461D01*
X203065033Y-100796772D01*
X203065035Y-100796772D01*
X203071643Y-100799230D01*
X203155470Y-100810415D01*
X203244455Y-100822289D01*
X203244459Y-100822289D01*
X203251436Y-100823220D01*
X203258447Y-100822582D01*
X203258451Y-100822582D01*
X203400934Y-100809614D01*
X203432075Y-100806780D01*
X203438777Y-100804602D01*
X203438779Y-100804602D01*
X203597884Y-100752906D01*
X203597887Y-100752905D01*
X203604583Y-100750729D01*
X203760387Y-100657851D01*
X203891741Y-100532764D01*
X203992118Y-100381684D01*
X204056530Y-100212120D01*
X204081774Y-100032499D01*
X204082091Y-100009782D01*
X204061872Y-99829527D01*
X204002220Y-99658230D01*
X203906101Y-99504406D01*
X203901139Y-99499409D01*
X203783253Y-99380697D01*
X203783249Y-99380694D01*
X203778290Y-99375700D01*
X203767172Y-99368644D01*
X203719013Y-99338082D01*
X203625141Y-99278509D01*
X203577506Y-99261547D01*
X203460900Y-99220025D01*
X203460895Y-99220024D01*
X203454265Y-99217663D01*
X203447277Y-99216830D01*
X203447274Y-99216829D01*
X203324173Y-99202150D01*
X203274155Y-99196186D01*
X203267152Y-99196922D01*
X203267151Y-99196922D01*
X203100763Y-99214410D01*
X203100761Y-99214411D01*
X203093763Y-99215146D01*
X202922054Y-99273600D01*
X202767563Y-99368644D01*
X202766875Y-99367525D01*
X202707781Y-99390967D01*
X202696200Y-99391500D01*
X202184751Y-99391500D01*
X202116630Y-99371498D01*
X202112157Y-99368276D01*
X202109815Y-99365918D01*
X202098697Y-99358862D01*
X202050538Y-99328300D01*
X201956666Y-99268727D01*
X201927463Y-99258328D01*
X201792425Y-99210243D01*
X201792420Y-99210242D01*
X201785790Y-99207881D01*
X201778802Y-99207048D01*
X201778799Y-99207047D01*
X201655698Y-99192368D01*
X201605680Y-99186404D01*
X201598677Y-99187140D01*
X201598676Y-99187140D01*
X201432288Y-99204628D01*
X201432286Y-99204629D01*
X201425288Y-99205364D01*
X201253579Y-99263818D01*
X201223557Y-99282288D01*
X201105095Y-99355166D01*
X201105092Y-99355168D01*
X201099088Y-99358862D01*
X201094053Y-99363793D01*
X201094050Y-99363795D01*
X201065759Y-99391500D01*
X200969493Y-99485771D01*
X200871235Y-99638238D01*
X200868826Y-99644858D01*
X200868824Y-99644861D01*
X200863958Y-99658230D01*
X200809197Y-99808685D01*
X200786463Y-99988640D01*
X187508500Y-99988640D01*
X187508500Y-91053250D01*
X187510246Y-91032345D01*
X187512770Y-91017344D01*
X187512770Y-91017341D01*
X187513576Y-91012552D01*
X187513729Y-91000000D01*
X187513040Y-90995188D01*
X187512723Y-90990327D01*
X187513008Y-90990308D01*
X187512607Y-90963549D01*
X187519234Y-90904736D01*
X187525513Y-90877229D01*
X187552485Y-90800147D01*
X187564727Y-90774726D01*
X187608178Y-90705574D01*
X187625770Y-90683515D01*
X187683515Y-90625770D01*
X187705574Y-90608178D01*
X187774726Y-90564727D01*
X187800147Y-90552485D01*
X187877228Y-90525513D01*
X187904736Y-90519234D01*
X187960226Y-90512982D01*
X187975868Y-90513077D01*
X187975879Y-90512200D01*
X187984851Y-90512310D01*
X187993724Y-90513691D01*
X188002626Y-90512527D01*
X188002628Y-90512527D01*
X188017677Y-90510559D01*
X188025286Y-90509564D01*
X188041621Y-90508500D01*
X194070942Y-90508500D01*
X194139063Y-90528502D01*
G37*
%TD.AperFunction*%
%TA.AperFunction,Conductor*%
G36*
X204985191Y-117642083D02*
G01*
X205030254Y-117671044D01*
X206192738Y-118833528D01*
X206226764Y-118895840D01*
X206221699Y-118966655D01*
X206192738Y-119011718D01*
X206011718Y-119192738D01*
X205949406Y-119226764D01*
X205878591Y-119221699D01*
X205833528Y-119192738D01*
X204671044Y-118030254D01*
X204637018Y-117967942D01*
X204642083Y-117897127D01*
X204671044Y-117852064D01*
X204852064Y-117671044D01*
X204914376Y-117637018D01*
X204985191Y-117642083D01*
G37*
%TD.AperFunction*%
%TA.AperFunction,Conductor*%
G36*
X189102873Y-117642083D02*
G01*
X189147936Y-117671044D01*
X189328956Y-117852064D01*
X189362982Y-117914376D01*
X189357917Y-117985191D01*
X189328956Y-118030254D01*
X188166472Y-119192738D01*
X188104160Y-119226764D01*
X188033345Y-119221699D01*
X187988282Y-119192738D01*
X187807262Y-119011718D01*
X187773236Y-118949406D01*
X187778301Y-118878591D01*
X187807262Y-118833528D01*
X188969746Y-117671044D01*
X189032058Y-117637018D01*
X189102873Y-117642083D01*
G37*
%TD.AperFunction*%
%TD*%
%TA.AperFunction,Conductor*%
%TO.N,GNDS*%
G36*
X201124688Y-90528502D02*
G01*
X201171181Y-90582158D01*
X201181285Y-90652432D01*
X201157393Y-90710065D01*
X201107714Y-90776352D01*
X201099176Y-90791946D01*
X201054022Y-90912394D01*
X201050395Y-90927649D01*
X201044869Y-90978514D01*
X201044500Y-90985328D01*
X201044500Y-92852885D01*
X201048975Y-92868124D01*
X201050365Y-92869329D01*
X201058048Y-92871000D01*
X204707384Y-92871000D01*
X204722623Y-92866525D01*
X204723828Y-92865135D01*
X204725499Y-92857452D01*
X204725499Y-90985331D01*
X204725129Y-90978510D01*
X204719605Y-90927648D01*
X204715979Y-90912396D01*
X204670824Y-90791946D01*
X204662286Y-90776352D01*
X204612607Y-90710065D01*
X204587759Y-90643559D01*
X204602812Y-90574176D01*
X204652986Y-90523946D01*
X204713433Y-90508500D01*
X205950633Y-90508500D01*
X205970018Y-90510000D01*
X205984852Y-90512310D01*
X205984855Y-90512310D01*
X205993724Y-90513691D01*
X206002626Y-90512527D01*
X206002750Y-90512511D01*
X206033192Y-90512240D01*
X206046070Y-90513691D01*
X206095264Y-90519234D01*
X206122771Y-90525513D01*
X206199853Y-90552485D01*
X206225274Y-90564727D01*
X206294426Y-90608178D01*
X206316485Y-90625770D01*
X206374230Y-90683515D01*
X206391822Y-90705574D01*
X206435273Y-90774726D01*
X206447515Y-90800147D01*
X206474487Y-90877228D01*
X206480766Y-90904736D01*
X206487018Y-90960226D01*
X206486923Y-90975868D01*
X206487800Y-90975879D01*
X206487690Y-90984851D01*
X206486309Y-90993724D01*
X206487473Y-91002626D01*
X206487473Y-91002628D01*
X206490436Y-91025283D01*
X206491500Y-91041621D01*
X206491500Y-96969078D01*
X206471498Y-97037199D01*
X206417842Y-97083692D01*
X206364524Y-97095074D01*
X203504417Y-97072902D01*
X203436456Y-97052374D01*
X203390380Y-96998359D01*
X203385989Y-96987132D01*
X203377387Y-96961597D01*
X202897812Y-96482022D01*
X202883868Y-96474408D01*
X202882035Y-96474539D01*
X202875420Y-96478790D01*
X202398481Y-96955729D01*
X202375574Y-96997678D01*
X202325371Y-97047880D01*
X202264010Y-97063287D01*
X202024655Y-97061431D01*
X200662175Y-97050869D01*
X200594212Y-97030340D01*
X200557154Y-96992994D01*
X200543122Y-96971159D01*
X200543120Y-96971156D01*
X200538250Y-96963579D01*
X200495372Y-96926425D01*
X200434555Y-96873726D01*
X200434552Y-96873724D01*
X200427743Y-96867824D01*
X200294734Y-96807081D01*
X200150000Y-96786271D01*
X199729481Y-96786271D01*
X199718223Y-96785767D01*
X199714249Y-96785411D01*
X199668627Y-96781318D01*
X199666205Y-96781288D01*
X199666198Y-96781288D01*
X199662884Y-96781248D01*
X199656285Y-96781167D01*
X199585620Y-96785767D01*
X199581964Y-96786005D01*
X199573779Y-96786271D01*
X199229481Y-96786271D01*
X199218223Y-96785767D01*
X199214249Y-96785411D01*
X199168627Y-96781318D01*
X199166205Y-96781288D01*
X199166198Y-96781288D01*
X199162884Y-96781248D01*
X199156285Y-96781167D01*
X199085620Y-96785767D01*
X199081964Y-96786005D01*
X199073779Y-96786271D01*
X198650000Y-96786271D01*
X198641024Y-96786913D01*
X198583627Y-96791018D01*
X198583626Y-96791018D01*
X198576889Y-96791500D01*
X198497382Y-96814845D01*
X198445235Y-96830157D01*
X198445233Y-96830158D01*
X198436589Y-96832696D01*
X198429010Y-96837567D01*
X198321159Y-96906878D01*
X198321156Y-96906880D01*
X198313579Y-96911750D01*
X198247575Y-96987923D01*
X198187850Y-97026306D01*
X198151374Y-97031406D01*
X196498672Y-97018594D01*
X196430709Y-96998065D01*
X196403117Y-96973577D01*
X196396608Y-96965818D01*
X195912812Y-96482022D01*
X195898868Y-96474408D01*
X195897035Y-96474539D01*
X195890420Y-96478790D01*
X195400669Y-96968541D01*
X195397951Y-96965823D01*
X195369821Y-96993956D01*
X195308454Y-97009367D01*
X194225023Y-97000969D01*
X194157060Y-96980440D01*
X194110984Y-96926425D01*
X194100000Y-96874973D01*
X194100000Y-95756404D01*
X194120002Y-95688283D01*
X194173658Y-95641790D01*
X194243932Y-95631686D01*
X194301564Y-95655577D01*
X194313852Y-95664787D01*
X194329446Y-95673324D01*
X194449894Y-95718478D01*
X194465149Y-95722105D01*
X194516014Y-95727631D01*
X194522828Y-95728000D01*
X194807211Y-95728000D01*
X194875332Y-95748002D01*
X194921825Y-95801658D01*
X194931929Y-95871932D01*
X194927312Y-95892102D01*
X194925861Y-95896677D01*
X194923313Y-95908664D01*
X194902979Y-96089943D01*
X194902808Y-96102212D01*
X194918071Y-96283982D01*
X194920286Y-96296047D01*
X194970565Y-96471391D01*
X194975083Y-96482803D01*
X195032286Y-96594107D01*
X195042007Y-96604328D01*
X195048806Y-96601984D01*
X195742978Y-95907812D01*
X195748206Y-95898237D01*
X196051300Y-95898237D01*
X196054538Y-95905328D01*
X196745659Y-96596449D01*
X196758039Y-96603209D01*
X196764773Y-96598168D01*
X196808494Y-96521207D01*
X196813487Y-96509991D01*
X196871062Y-96336914D01*
X196873782Y-96324942D01*
X196896973Y-96141364D01*
X196897465Y-96134335D01*
X196897756Y-96113505D01*
X196897463Y-96106512D01*
X196879403Y-95922325D01*
X196877020Y-95910290D01*
X196871020Y-95890417D01*
X196870479Y-95819423D01*
X196908406Y-95759406D01*
X196972761Y-95729422D01*
X196991642Y-95727999D01*
X197277169Y-95727999D01*
X197283990Y-95727629D01*
X197334852Y-95722105D01*
X197350104Y-95718479D01*
X197470554Y-95673324D01*
X197486149Y-95664786D01*
X197588224Y-95588285D01*
X197600785Y-95575724D01*
X197677286Y-95473649D01*
X197685824Y-95458054D01*
X197730978Y-95337606D01*
X197734605Y-95322351D01*
X197740131Y-95271486D01*
X197740500Y-95264672D01*
X197740500Y-95264669D01*
X201044501Y-95264669D01*
X201044871Y-95271490D01*
X201050395Y-95322352D01*
X201054021Y-95337604D01*
X201099176Y-95458054D01*
X201107714Y-95473649D01*
X201184215Y-95575724D01*
X201196776Y-95588285D01*
X201298851Y-95664786D01*
X201314446Y-95673324D01*
X201434894Y-95718478D01*
X201450149Y-95722105D01*
X201501014Y-95727631D01*
X201507828Y-95728000D01*
X201792211Y-95728000D01*
X201860332Y-95748002D01*
X201906825Y-95801658D01*
X201916929Y-95871932D01*
X201912312Y-95892102D01*
X201910861Y-95896677D01*
X201908313Y-95908664D01*
X201887979Y-96089943D01*
X201887808Y-96102212D01*
X201903071Y-96283982D01*
X201905286Y-96296047D01*
X201955565Y-96471391D01*
X201960083Y-96482803D01*
X202017286Y-96594107D01*
X202027007Y-96604328D01*
X202033806Y-96601984D01*
X202727978Y-95907812D01*
X202733206Y-95898237D01*
X203036300Y-95898237D01*
X203039538Y-95905328D01*
X203730659Y-96596449D01*
X203743039Y-96603209D01*
X203749773Y-96598168D01*
X203793494Y-96521207D01*
X203798487Y-96509991D01*
X203856062Y-96336914D01*
X203858782Y-96324942D01*
X203881973Y-96141364D01*
X203882465Y-96134335D01*
X203882756Y-96113505D01*
X203882463Y-96106512D01*
X203864403Y-95922325D01*
X203862020Y-95910290D01*
X203856020Y-95890417D01*
X203855479Y-95819423D01*
X203893406Y-95759406D01*
X203957761Y-95729422D01*
X203976642Y-95727999D01*
X204262169Y-95727999D01*
X204268990Y-95727629D01*
X204319852Y-95722105D01*
X204335104Y-95718479D01*
X204455554Y-95673324D01*
X204471149Y-95664786D01*
X204573224Y-95588285D01*
X204585785Y-95575724D01*
X204662286Y-95473649D01*
X204670824Y-95458054D01*
X204715978Y-95337606D01*
X204719605Y-95322351D01*
X204725131Y-95271486D01*
X204725500Y-95264672D01*
X204725500Y-93397115D01*
X204721025Y-93381876D01*
X204719635Y-93380671D01*
X204711952Y-93379000D01*
X203157115Y-93379000D01*
X203141876Y-93383475D01*
X203140671Y-93384865D01*
X203139000Y-93392548D01*
X203139000Y-95416885D01*
X203143475Y-95432124D01*
X203144865Y-95433329D01*
X203152548Y-95435000D01*
X203537000Y-95435000D01*
X203605121Y-95455002D01*
X203651614Y-95508658D01*
X203663000Y-95561000D01*
X203663000Y-95769000D01*
X203642998Y-95837121D01*
X203589342Y-95883614D01*
X203537000Y-95895000D01*
X203047325Y-95895000D01*
X203036300Y-95898237D01*
X202733206Y-95898237D01*
X202733487Y-95897723D01*
X202726186Y-95895000D01*
X202233000Y-95895000D01*
X202164879Y-95874998D01*
X202118386Y-95821342D01*
X202107000Y-95769000D01*
X202107000Y-95561000D01*
X202127002Y-95492879D01*
X202180658Y-95446386D01*
X202233000Y-95435000D01*
X202612885Y-95435000D01*
X202628124Y-95430525D01*
X202629329Y-95429135D01*
X202631000Y-95421452D01*
X202631000Y-93397115D01*
X202626525Y-93381876D01*
X202625135Y-93380671D01*
X202617452Y-93379000D01*
X201062616Y-93379000D01*
X201047377Y-93383475D01*
X201046172Y-93384865D01*
X201044501Y-93392548D01*
X201044501Y-95264669D01*
X197740500Y-95264669D01*
X197740500Y-93397115D01*
X197736025Y-93381876D01*
X197734635Y-93380671D01*
X197726952Y-93379000D01*
X196172115Y-93379000D01*
X196156876Y-93383475D01*
X196155671Y-93384865D01*
X196154000Y-93392548D01*
X196154000Y-95416885D01*
X196158475Y-95432124D01*
X196159865Y-95433329D01*
X196167548Y-95435000D01*
X196552000Y-95435000D01*
X196620121Y-95455002D01*
X196666614Y-95508658D01*
X196678000Y-95561000D01*
X196678000Y-95769000D01*
X196657998Y-95837121D01*
X196604342Y-95883614D01*
X196552000Y-95895000D01*
X196062325Y-95895000D01*
X196051300Y-95898237D01*
X195748206Y-95898237D01*
X195748487Y-95897723D01*
X195741186Y-95895000D01*
X195248000Y-95895000D01*
X195179879Y-95874998D01*
X195133386Y-95821342D01*
X195122000Y-95769000D01*
X195122000Y-95561000D01*
X195142002Y-95492879D01*
X195195658Y-95446386D01*
X195248000Y-95435000D01*
X195627885Y-95435000D01*
X195643124Y-95430525D01*
X195644329Y-95429135D01*
X195646000Y-95421452D01*
X195646000Y-92997000D01*
X195666002Y-92928879D01*
X195719658Y-92882386D01*
X195772000Y-92871000D01*
X197722384Y-92871000D01*
X197737623Y-92866525D01*
X197738828Y-92865135D01*
X197740499Y-92857452D01*
X197740499Y-90985331D01*
X197740129Y-90978510D01*
X197734605Y-90927648D01*
X197730979Y-90912396D01*
X197685824Y-90791946D01*
X197677286Y-90776352D01*
X197627607Y-90710065D01*
X197602759Y-90643559D01*
X197617812Y-90574176D01*
X197667986Y-90523946D01*
X197728433Y-90508500D01*
X201056567Y-90508500D01*
X201124688Y-90528502D01*
G37*
%TD.AperFunction*%
%TD*%
M02*
