G04 #@! TF.GenerationSoftware,KiCad,Pcbnew,(5.1.2)-1*
G04 #@! TF.CreationDate,2020-10-01T12:47:08+02:00*
G04 #@! TF.ProjectId,SFH203_photodetector,53464832-3033-45f7-9068-6f746f646574,1.4*
G04 #@! TF.SameCoordinates,Original*
G04 #@! TF.FileFunction,Other,Fab,Top*
%FSLAX46Y46*%
G04 Gerber Fmt 4.6, Leading zero omitted, Abs format (unit mm)*
G04 Created by KiCad (PCBNEW (5.1.2)-1) date 2020-10-01 12:47:08*
%MOMM*%
%LPD*%
G04 APERTURE LIST*
%ADD10C,0.100000*%
%ADD11C,0.150000*%
%ADD12C,0.060000*%
%ADD13C,0.120000*%
%ADD14C,0.135000*%
%ADD15C,0.080000*%
G04 APERTURE END LIST*
D10*
X142550000Y-66150000D02*
X143550000Y-65150000D01*
X142550000Y-69150000D02*
X142550000Y-66150000D01*
X145550000Y-69150000D02*
X142550000Y-69150000D01*
X145550000Y-65150000D02*
X145550000Y-69150000D01*
X143550000Y-65150000D02*
X145550000Y-65150000D01*
X147350000Y-68750000D02*
X147350000Y-67150000D01*
X148150000Y-68750000D02*
X147350000Y-68750000D01*
X148150000Y-67150000D02*
X148150000Y-68750000D01*
X147350000Y-67150000D02*
X148150000Y-67150000D01*
X147700000Y-71550000D02*
X147700000Y-74750000D01*
X145200000Y-71550000D02*
X147700000Y-71550000D01*
X145200000Y-74750000D02*
X145200000Y-71550000D01*
X147700000Y-74750000D02*
X145200000Y-74750000D01*
X147500000Y-62150000D02*
X145000000Y-62150000D01*
X145000000Y-62150000D02*
X145000000Y-58950000D01*
X145000000Y-58950000D02*
X147500000Y-58950000D01*
X147500000Y-58950000D02*
X147500000Y-62150000D01*
D11*
X131600000Y-75600000D02*
X128700000Y-75600000D01*
X128700000Y-75600000D02*
X128700000Y-70700000D01*
X128700000Y-70700000D02*
X132600000Y-70700000D01*
X132600000Y-70700000D02*
X132600000Y-74600000D01*
X132600000Y-74600000D02*
X131600000Y-75600000D01*
D10*
X140550000Y-65550000D02*
X141350000Y-65550000D01*
X141350000Y-65550000D02*
X141350000Y-67150000D01*
X141350000Y-67150000D02*
X140550000Y-67150000D01*
X140550000Y-67150000D02*
X140550000Y-65550000D01*
X141100000Y-58950000D02*
X141100000Y-62150000D01*
X138600000Y-58950000D02*
X141100000Y-58950000D01*
X138600000Y-62150000D02*
X138600000Y-58950000D01*
X141100000Y-62150000D02*
X138600000Y-62150000D01*
X142300000Y-74650000D02*
X139800000Y-74650000D01*
X139800000Y-74650000D02*
X139800000Y-71450000D01*
X139800000Y-71450000D02*
X142300000Y-71450000D01*
X142300000Y-71450000D02*
X142300000Y-74650000D01*
X124350000Y-78450000D02*
X125150000Y-78450000D01*
X125150000Y-78450000D02*
X125150000Y-80050000D01*
X125150000Y-80050000D02*
X124350000Y-80050000D01*
X124350000Y-80050000D02*
X124350000Y-78450000D01*
X135350000Y-69450000D02*
X136150000Y-69450000D01*
X136150000Y-69450000D02*
X136150000Y-71050000D01*
X136150000Y-71050000D02*
X135350000Y-71050000D01*
X135350000Y-71050000D02*
X135350000Y-69450000D01*
X123950000Y-63750000D02*
X125150000Y-63750000D01*
X125150000Y-63750000D02*
X125150000Y-65750000D01*
X125150000Y-65750000D02*
X123950000Y-65750000D01*
X123950000Y-65750000D02*
X123950000Y-63750000D01*
X122800000Y-62650000D02*
X117300000Y-62650000D01*
X117300000Y-62650000D02*
X117300000Y-69850000D01*
X117300000Y-69850000D02*
X122800000Y-69850000D01*
X122800000Y-69850000D02*
X122800000Y-62650000D01*
X125050000Y-74150000D02*
X123450000Y-74150000D01*
X125050000Y-73350000D02*
X125050000Y-74150000D01*
X123450000Y-73350000D02*
X125050000Y-73350000D01*
X123450000Y-74150000D02*
X123450000Y-73350000D01*
X150615000Y-62940000D02*
X152520000Y-62940000D01*
X152520000Y-62940000D02*
X152520000Y-70560000D01*
X152520000Y-70560000D02*
X149980000Y-70560000D01*
X149980000Y-70560000D02*
X149980000Y-63575000D01*
X149980000Y-63575000D02*
X150615000Y-62940000D01*
X126350000Y-78450000D02*
X127150000Y-78450000D01*
X127150000Y-78450000D02*
X127150000Y-80050000D01*
X127150000Y-80050000D02*
X126350000Y-80050000D01*
X126350000Y-80050000D02*
X126350000Y-78450000D01*
X126450000Y-63600000D02*
X128050000Y-63600000D01*
X128050000Y-63600000D02*
X128050000Y-66800000D01*
X128050000Y-66800000D02*
X126450000Y-66800000D01*
X126450000Y-66800000D02*
X126450000Y-63600000D01*
X108300000Y-67250000D02*
X108300000Y-60250000D01*
X108300000Y-67250000D02*
X115300000Y-67250000D01*
X115300000Y-67250000D02*
X115300000Y-60250000D01*
X108300000Y-60250000D02*
X115300000Y-60250000D01*
X95750000Y-66750000D02*
X95750000Y-60750000D01*
X95750000Y-66750000D02*
X107180000Y-66750000D01*
X95750000Y-60750000D02*
X107180000Y-60750000D01*
X108300000Y-59850000D02*
X107180000Y-59850000D01*
X107180000Y-59850000D02*
X107180000Y-67650000D01*
X107180000Y-67650000D02*
X108300000Y-67650000D01*
X108300000Y-67650000D02*
X108300000Y-59850000D01*
X106250000Y-66750000D02*
X105550000Y-60750000D01*
X105250000Y-66750000D02*
X104550000Y-60750000D01*
X104250000Y-66750000D02*
X103550000Y-60750000D01*
X103250000Y-66750000D02*
X102550000Y-60750000D01*
X102250000Y-66750000D02*
X101550000Y-60750000D01*
X101250000Y-66750000D02*
X100550000Y-60750000D01*
X100250000Y-66750000D02*
X99550000Y-60750000D01*
X99250000Y-66750000D02*
X98550000Y-60750000D01*
X98250000Y-66750000D02*
X97550000Y-60750000D01*
X143516666Y-66766666D02*
X143516666Y-67333333D01*
X143550000Y-67400000D01*
X143583333Y-67433333D01*
X143650000Y-67466666D01*
X143783333Y-67466666D01*
X143850000Y-67433333D01*
X143883333Y-67400000D01*
X143916666Y-67333333D01*
X143916666Y-66766666D01*
X144616666Y-67466666D02*
X144216666Y-67466666D01*
X144416666Y-67466666D02*
X144416666Y-66766666D01*
X144350000Y-66866666D01*
X144283333Y-66933333D01*
X144216666Y-66966666D01*
D12*
X147892857Y-68016666D02*
X147911904Y-68035714D01*
X147930952Y-68092857D01*
X147930952Y-68130952D01*
X147911904Y-68188095D01*
X147873809Y-68226190D01*
X147835714Y-68245238D01*
X147759523Y-68264285D01*
X147702380Y-68264285D01*
X147626190Y-68245238D01*
X147588095Y-68226190D01*
X147550000Y-68188095D01*
X147530952Y-68130952D01*
X147530952Y-68092857D01*
X147550000Y-68035714D01*
X147569047Y-68016666D01*
X147664285Y-67673809D02*
X147930952Y-67673809D01*
X147511904Y-67769047D02*
X147797619Y-67864285D01*
X147797619Y-67616666D01*
D13*
X146735714Y-73283333D02*
X146773809Y-73321428D01*
X146811904Y-73435714D01*
X146811904Y-73511904D01*
X146773809Y-73626190D01*
X146697619Y-73702380D01*
X146621428Y-73740476D01*
X146469047Y-73778571D01*
X146354761Y-73778571D01*
X146202380Y-73740476D01*
X146126190Y-73702380D01*
X146050000Y-73626190D01*
X146011904Y-73511904D01*
X146011904Y-73435714D01*
X146050000Y-73321428D01*
X146088095Y-73283333D01*
X146088095Y-72978571D02*
X146050000Y-72940476D01*
X146011904Y-72864285D01*
X146011904Y-72673809D01*
X146050000Y-72597619D01*
X146088095Y-72559523D01*
X146164285Y-72521428D01*
X146240476Y-72521428D01*
X146354761Y-72559523D01*
X146811904Y-73016666D01*
X146811904Y-72521428D01*
X146535714Y-60683333D02*
X146573809Y-60721428D01*
X146611904Y-60835714D01*
X146611904Y-60911904D01*
X146573809Y-61026190D01*
X146497619Y-61102380D01*
X146421428Y-61140476D01*
X146269047Y-61178571D01*
X146154761Y-61178571D01*
X146002380Y-61140476D01*
X145926190Y-61102380D01*
X145850000Y-61026190D01*
X145811904Y-60911904D01*
X145811904Y-60835714D01*
X145850000Y-60721428D01*
X145888095Y-60683333D01*
X146611904Y-59921428D02*
X146611904Y-60378571D01*
X146611904Y-60150000D02*
X145811904Y-60150000D01*
X145926190Y-60226190D01*
X146002380Y-60302380D01*
X146040476Y-60378571D01*
D14*
X129964285Y-72657142D02*
X129964285Y-73385714D01*
X130007142Y-73471428D01*
X130050000Y-73514285D01*
X130135714Y-73557142D01*
X130307142Y-73557142D01*
X130392857Y-73514285D01*
X130435714Y-73471428D01*
X130478571Y-73385714D01*
X130478571Y-72657142D01*
X130864285Y-72742857D02*
X130907142Y-72700000D01*
X130992857Y-72657142D01*
X131207142Y-72657142D01*
X131292857Y-72700000D01*
X131335714Y-72742857D01*
X131378571Y-72828571D01*
X131378571Y-72914285D01*
X131335714Y-73042857D01*
X130821428Y-73557142D01*
X131378571Y-73557142D01*
D12*
X141092857Y-66416666D02*
X141111904Y-66435714D01*
X141130952Y-66492857D01*
X141130952Y-66530952D01*
X141111904Y-66588095D01*
X141073809Y-66626190D01*
X141035714Y-66645238D01*
X140959523Y-66664285D01*
X140902380Y-66664285D01*
X140826190Y-66645238D01*
X140788095Y-66626190D01*
X140750000Y-66588095D01*
X140730952Y-66530952D01*
X140730952Y-66492857D01*
X140750000Y-66435714D01*
X140769047Y-66416666D01*
X140730952Y-66283333D02*
X140730952Y-66035714D01*
X140883333Y-66169047D01*
X140883333Y-66111904D01*
X140902380Y-66073809D01*
X140921428Y-66054761D01*
X140959523Y-66035714D01*
X141054761Y-66035714D01*
X141092857Y-66054761D01*
X141111904Y-66073809D01*
X141130952Y-66111904D01*
X141130952Y-66226190D01*
X141111904Y-66264285D01*
X141092857Y-66283333D01*
D13*
X140135714Y-60683333D02*
X140173809Y-60721428D01*
X140211904Y-60835714D01*
X140211904Y-60911904D01*
X140173809Y-61026190D01*
X140097619Y-61102380D01*
X140021428Y-61140476D01*
X139869047Y-61178571D01*
X139754761Y-61178571D01*
X139602380Y-61140476D01*
X139526190Y-61102380D01*
X139450000Y-61026190D01*
X139411904Y-60911904D01*
X139411904Y-60835714D01*
X139450000Y-60721428D01*
X139488095Y-60683333D01*
X139411904Y-59959523D02*
X139411904Y-60340476D01*
X139792857Y-60378571D01*
X139754761Y-60340476D01*
X139716666Y-60264285D01*
X139716666Y-60073809D01*
X139754761Y-59997619D01*
X139792857Y-59959523D01*
X139869047Y-59921428D01*
X140059523Y-59921428D01*
X140135714Y-59959523D01*
X140173809Y-59997619D01*
X140211904Y-60073809D01*
X140211904Y-60264285D01*
X140173809Y-60340476D01*
X140135714Y-60378571D01*
X141335714Y-73183333D02*
X141373809Y-73221428D01*
X141411904Y-73335714D01*
X141411904Y-73411904D01*
X141373809Y-73526190D01*
X141297619Y-73602380D01*
X141221428Y-73640476D01*
X141069047Y-73678571D01*
X140954761Y-73678571D01*
X140802380Y-73640476D01*
X140726190Y-73602380D01*
X140650000Y-73526190D01*
X140611904Y-73411904D01*
X140611904Y-73335714D01*
X140650000Y-73221428D01*
X140688095Y-73183333D01*
X140611904Y-72497619D02*
X140611904Y-72650000D01*
X140650000Y-72726190D01*
X140688095Y-72764285D01*
X140802380Y-72840476D01*
X140954761Y-72878571D01*
X141259523Y-72878571D01*
X141335714Y-72840476D01*
X141373809Y-72802380D01*
X141411904Y-72726190D01*
X141411904Y-72573809D01*
X141373809Y-72497619D01*
X141335714Y-72459523D01*
X141259523Y-72421428D01*
X141069047Y-72421428D01*
X140992857Y-72459523D01*
X140954761Y-72497619D01*
X140916666Y-72573809D01*
X140916666Y-72726190D01*
X140954761Y-72802380D01*
X140992857Y-72840476D01*
X141069047Y-72878571D01*
D12*
X124892857Y-79316666D02*
X124911904Y-79335714D01*
X124930952Y-79392857D01*
X124930952Y-79430952D01*
X124911904Y-79488095D01*
X124873809Y-79526190D01*
X124835714Y-79545238D01*
X124759523Y-79564285D01*
X124702380Y-79564285D01*
X124626190Y-79545238D01*
X124588095Y-79526190D01*
X124550000Y-79488095D01*
X124530952Y-79430952D01*
X124530952Y-79392857D01*
X124550000Y-79335714D01*
X124569047Y-79316666D01*
X124702380Y-79088095D02*
X124683333Y-79126190D01*
X124664285Y-79145238D01*
X124626190Y-79164285D01*
X124607142Y-79164285D01*
X124569047Y-79145238D01*
X124550000Y-79126190D01*
X124530952Y-79088095D01*
X124530952Y-79011904D01*
X124550000Y-78973809D01*
X124569047Y-78954761D01*
X124607142Y-78935714D01*
X124626190Y-78935714D01*
X124664285Y-78954761D01*
X124683333Y-78973809D01*
X124702380Y-79011904D01*
X124702380Y-79088095D01*
X124721428Y-79126190D01*
X124740476Y-79145238D01*
X124778571Y-79164285D01*
X124854761Y-79164285D01*
X124892857Y-79145238D01*
X124911904Y-79126190D01*
X124930952Y-79088095D01*
X124930952Y-79011904D01*
X124911904Y-78973809D01*
X124892857Y-78954761D01*
X124854761Y-78935714D01*
X124778571Y-78935714D01*
X124740476Y-78954761D01*
X124721428Y-78973809D01*
X124702380Y-79011904D01*
X135892857Y-70316666D02*
X135911904Y-70335714D01*
X135930952Y-70392857D01*
X135930952Y-70430952D01*
X135911904Y-70488095D01*
X135873809Y-70526190D01*
X135835714Y-70545238D01*
X135759523Y-70564285D01*
X135702380Y-70564285D01*
X135626190Y-70545238D01*
X135588095Y-70526190D01*
X135550000Y-70488095D01*
X135530952Y-70430952D01*
X135530952Y-70392857D01*
X135550000Y-70335714D01*
X135569047Y-70316666D01*
X135930952Y-70126190D02*
X135930952Y-70050000D01*
X135911904Y-70011904D01*
X135892857Y-69992857D01*
X135835714Y-69954761D01*
X135759523Y-69935714D01*
X135607142Y-69935714D01*
X135569047Y-69954761D01*
X135550000Y-69973809D01*
X135530952Y-70011904D01*
X135530952Y-70088095D01*
X135550000Y-70126190D01*
X135569047Y-70145238D01*
X135607142Y-70164285D01*
X135702380Y-70164285D01*
X135740476Y-70145238D01*
X135759523Y-70126190D01*
X135778571Y-70088095D01*
X135778571Y-70011904D01*
X135759523Y-69973809D01*
X135740476Y-69954761D01*
X135702380Y-69935714D01*
D15*
X124728571Y-65071428D02*
X124752380Y-65095238D01*
X124776190Y-65166666D01*
X124776190Y-65214285D01*
X124752380Y-65285714D01*
X124704761Y-65333333D01*
X124657142Y-65357142D01*
X124561904Y-65380952D01*
X124490476Y-65380952D01*
X124395238Y-65357142D01*
X124347619Y-65333333D01*
X124300000Y-65285714D01*
X124276190Y-65214285D01*
X124276190Y-65166666D01*
X124300000Y-65095238D01*
X124323809Y-65071428D01*
X124776190Y-64595238D02*
X124776190Y-64880952D01*
X124776190Y-64738095D02*
X124276190Y-64738095D01*
X124347619Y-64785714D01*
X124395238Y-64833333D01*
X124419047Y-64880952D01*
X124276190Y-64285714D02*
X124276190Y-64238095D01*
X124300000Y-64190476D01*
X124323809Y-64166666D01*
X124371428Y-64142857D01*
X124466666Y-64119047D01*
X124585714Y-64119047D01*
X124680952Y-64142857D01*
X124728571Y-64166666D01*
X124752380Y-64190476D01*
X124776190Y-64238095D01*
X124776190Y-64285714D01*
X124752380Y-64333333D01*
X124728571Y-64357142D01*
X124680952Y-64380952D01*
X124585714Y-64404761D01*
X124466666Y-64404761D01*
X124371428Y-64380952D01*
X124323809Y-64357142D01*
X124300000Y-64333333D01*
X124276190Y-64285714D01*
D11*
X120407142Y-66892857D02*
X120454761Y-66940476D01*
X120502380Y-67083333D01*
X120502380Y-67178571D01*
X120454761Y-67321428D01*
X120359523Y-67416666D01*
X120264285Y-67464285D01*
X120073809Y-67511904D01*
X119930952Y-67511904D01*
X119740476Y-67464285D01*
X119645238Y-67416666D01*
X119550000Y-67321428D01*
X119502380Y-67178571D01*
X119502380Y-67083333D01*
X119550000Y-66940476D01*
X119597619Y-66892857D01*
X120502380Y-65940476D02*
X120502380Y-66511904D01*
X120502380Y-66226190D02*
X119502380Y-66226190D01*
X119645238Y-66321428D01*
X119740476Y-66416666D01*
X119788095Y-66511904D01*
X120502380Y-64988095D02*
X120502380Y-65559523D01*
X120502380Y-65273809D02*
X119502380Y-65273809D01*
X119645238Y-65369047D01*
X119740476Y-65464285D01*
X119788095Y-65559523D01*
D12*
X123992857Y-73892857D02*
X123973809Y-73911904D01*
X123916666Y-73930952D01*
X123878571Y-73930952D01*
X123821428Y-73911904D01*
X123783333Y-73873809D01*
X123764285Y-73835714D01*
X123745238Y-73759523D01*
X123745238Y-73702380D01*
X123764285Y-73626190D01*
X123783333Y-73588095D01*
X123821428Y-73550000D01*
X123878571Y-73530952D01*
X123916666Y-73530952D01*
X123973809Y-73550000D01*
X123992857Y-73569047D01*
X124373809Y-73930952D02*
X124145238Y-73930952D01*
X124259523Y-73930952D02*
X124259523Y-73530952D01*
X124221428Y-73588095D01*
X124183333Y-73626190D01*
X124145238Y-73645238D01*
X124526190Y-73569047D02*
X124545238Y-73550000D01*
X124583333Y-73530952D01*
X124678571Y-73530952D01*
X124716666Y-73550000D01*
X124735714Y-73569047D01*
X124754761Y-73607142D01*
X124754761Y-73645238D01*
X124735714Y-73702380D01*
X124507142Y-73930952D01*
X124754761Y-73930952D01*
D11*
X110788095Y-49952380D02*
X110788095Y-48952380D01*
X110788095Y-49428571D02*
X111359523Y-49428571D01*
X111359523Y-49952380D02*
X111359523Y-48952380D01*
X112359523Y-49952380D02*
X111788095Y-49952380D01*
X112073809Y-49952380D02*
X112073809Y-48952380D01*
X111978571Y-49095238D01*
X111883333Y-49190476D01*
X111788095Y-49238095D01*
X150738095Y-82102380D02*
X150738095Y-81102380D01*
X150738095Y-81578571D02*
X151309523Y-81578571D01*
X151309523Y-82102380D02*
X151309523Y-81102380D01*
X151738095Y-81197619D02*
X151785714Y-81150000D01*
X151880952Y-81102380D01*
X152119047Y-81102380D01*
X152214285Y-81150000D01*
X152261904Y-81197619D01*
X152309523Y-81292857D01*
X152309523Y-81388095D01*
X152261904Y-81530952D01*
X151690476Y-82102380D01*
X152309523Y-82102380D01*
X150702380Y-67083333D02*
X151416666Y-67083333D01*
X151559523Y-67130952D01*
X151654761Y-67226190D01*
X151702380Y-67369047D01*
X151702380Y-67464285D01*
X151702380Y-66083333D02*
X151702380Y-66654761D01*
X151702380Y-66369047D02*
X150702380Y-66369047D01*
X150845238Y-66464285D01*
X150940476Y-66559523D01*
X150988095Y-66654761D01*
D12*
X126930952Y-79316666D02*
X126740476Y-79450000D01*
X126930952Y-79545238D02*
X126530952Y-79545238D01*
X126530952Y-79392857D01*
X126550000Y-79354761D01*
X126569047Y-79335714D01*
X126607142Y-79316666D01*
X126664285Y-79316666D01*
X126702380Y-79335714D01*
X126721428Y-79354761D01*
X126740476Y-79392857D01*
X126740476Y-79545238D01*
X126530952Y-79183333D02*
X126530952Y-78935714D01*
X126683333Y-79069047D01*
X126683333Y-79011904D01*
X126702380Y-78973809D01*
X126721428Y-78954761D01*
X126759523Y-78935714D01*
X126854761Y-78935714D01*
X126892857Y-78954761D01*
X126911904Y-78973809D01*
X126930952Y-79011904D01*
X126930952Y-79126190D01*
X126911904Y-79164285D01*
X126892857Y-79183333D01*
D13*
X127611904Y-65333333D02*
X127230952Y-65600000D01*
X127611904Y-65790476D02*
X126811904Y-65790476D01*
X126811904Y-65485714D01*
X126850000Y-65409523D01*
X126888095Y-65371428D01*
X126964285Y-65333333D01*
X127078571Y-65333333D01*
X127154761Y-65371428D01*
X127192857Y-65409523D01*
X127230952Y-65485714D01*
X127230952Y-65790476D01*
X127078571Y-64647619D02*
X127611904Y-64647619D01*
X126773809Y-64838095D02*
X127345238Y-65028571D01*
X127345238Y-64533333D01*
D11*
X111702380Y-64083333D02*
X112416666Y-64083333D01*
X112559523Y-64130952D01*
X112654761Y-64226190D01*
X112702380Y-64369047D01*
X112702380Y-64464285D01*
X111797619Y-63654761D02*
X111750000Y-63607142D01*
X111702380Y-63511904D01*
X111702380Y-63273809D01*
X111750000Y-63178571D01*
X111797619Y-63130952D01*
X111892857Y-63083333D01*
X111988095Y-63083333D01*
X112130952Y-63130952D01*
X112702380Y-63702380D01*
X112702380Y-63083333D01*
M02*
