M48
; DRILL file {KiCad (6.0.7)} date Thu Nov 17 15:53:35 2022
; FORMAT={-:-/ absolute / inch / decimal}
; #@! TF.CreationDate,2022-11-17T15:53:35+01:00
; #@! TF.GenerationSoftware,Kicad,Pcbnew,(6.0.7)
; #@! TF.FileFunction,Plated,1,2,PTH
FMAT,2
INCH
; #@! TA.AperFunction,Plated,PTH,ViaDrill
T1C0.0118
; #@! TA.AperFunction,Plated,PTH,ComponentDrill
T2C0.0181
; #@! TA.AperFunction,Plated,PTH,ComponentDrill
T3C0.0197
; #@! TA.AperFunction,Plated,PTH,ComponentDrill
T4C0.0276
; #@! TA.AperFunction,Plated,PTH,ComponentDrill
T5C0.0354
; #@! TA.AperFunction,Plated,PTH,ComponentDrill
T6C0.1063
%
G90
G05
T1
X7.4016Y-3.5827
X7.4016Y-3.622
X7.4016Y-3.6614
X7.4449Y-4.2283
X7.4488Y-3.8504
X7.4606Y-3.5827
X7.4606Y-3.622
X7.4606Y-3.6614
X7.5157Y-4.1929
X7.5197Y-3.5827
X7.5197Y-3.622
X7.5197Y-3.6614
X7.5246Y-4.4478
X7.5276Y-4.3031
X7.5502Y-4.0857
X7.5512Y-4.3307
X7.56Y-4.4478
X7.5787Y-3.5827
X7.5787Y-3.622
X7.5787Y-3.6614
X7.6142Y-3.8465
X7.6575Y-4.0866
X7.7913Y-4.0354
X7.8452Y-4.1305
X7.8716Y-4.3728
X7.937Y-3.937
X7.9488Y-4.3976
X8.0027Y-3.9374
X8.0157Y-4.3976
X8.0394Y-4.2795
X8.0945Y-3.5827
X8.0945Y-3.622
X8.0945Y-3.6614
X8.0945Y-3.7008
X8.0945Y-3.7402
X8.0945Y-3.7795
T2
X7.7126Y-3.7839
X7.9876Y-3.7839
T3
X7.4006Y-4.6063
X7.4239Y-4.5499
X7.4239Y-4.6627
X7.4803Y-4.5266
X7.4803Y-4.686
X7.5367Y-4.5499
X7.5367Y-4.6627
X7.56Y-4.6063
X7.9518Y-4.6063
X7.9751Y-4.5499
X7.9751Y-4.6627
X8.0315Y-4.5266
X8.0315Y-4.686
X8.0879Y-4.5499
X8.0879Y-4.6627
X8.1112Y-4.6063
T4
X7.7556Y-4.1618
T5
X7.7556Y-4.2626
T6
X7.4803Y-4.6063
X8.0315Y-4.6063
T0
M30
