%TF.GenerationSoftware,KiCad,Pcbnew,(6.0.7)*%
%TF.CreationDate,2023-05-02T12:44:59+02:00*%
%TF.ProjectId,SFH203_photodetector,53464832-3033-45f7-9068-6f746f646574,2.0*%
%TF.SameCoordinates,Original*%
%TF.FileFunction,Legend,Top*%
%TF.FilePolarity,Positive*%
%FSLAX46Y46*%
G04 Gerber Fmt 4.6, Leading zero omitted, Abs format (unit mm)*
G04 Created by KiCad (PCBNEW (6.0.7)) date 2023-05-02 12:44:59*
%MOMM*%
%LPD*%
G01*
G04 APERTURE LIST*
%ADD10C,0.150000*%
%ADD11C,0.120000*%
G04 APERTURE END LIST*
D10*
%TO.C,J1*%
X196666666Y-120102380D02*
X196666666Y-120816666D01*
X196619047Y-120959523D01*
X196523809Y-121054761D01*
X196380952Y-121102380D01*
X196285714Y-121102380D01*
X197666666Y-121102380D02*
X197095238Y-121102380D01*
X197380952Y-121102380D02*
X197380952Y-120102380D01*
X197285714Y-120245238D01*
X197190476Y-120340476D01*
X197095238Y-120388095D01*
%TO.C,C3*%
X204133333Y-110757142D02*
X204085714Y-110804761D01*
X203942857Y-110852380D01*
X203847619Y-110852380D01*
X203704761Y-110804761D01*
X203609523Y-110709523D01*
X203561904Y-110614285D01*
X203514285Y-110423809D01*
X203514285Y-110280952D01*
X203561904Y-110090476D01*
X203609523Y-109995238D01*
X203704761Y-109900000D01*
X203847619Y-109852380D01*
X203942857Y-109852380D01*
X204085714Y-109900000D01*
X204133333Y-109947619D01*
X204466666Y-109852380D02*
X205085714Y-109852380D01*
X204752380Y-110233333D01*
X204895238Y-110233333D01*
X204990476Y-110280952D01*
X205038095Y-110328571D01*
X205085714Y-110423809D01*
X205085714Y-110661904D01*
X205038095Y-110757142D01*
X204990476Y-110804761D01*
X204895238Y-110852380D01*
X204609523Y-110852380D01*
X204514285Y-110804761D01*
X204466666Y-110757142D01*
%TO.C,C4*%
X196857142Y-103966666D02*
X196904761Y-104014285D01*
X196952380Y-104157142D01*
X196952380Y-104252380D01*
X196904761Y-104395238D01*
X196809523Y-104490476D01*
X196714285Y-104538095D01*
X196523809Y-104585714D01*
X196380952Y-104585714D01*
X196190476Y-104538095D01*
X196095238Y-104490476D01*
X196000000Y-104395238D01*
X195952380Y-104252380D01*
X195952380Y-104157142D01*
X196000000Y-104014285D01*
X196047619Y-103966666D01*
X196285714Y-103109523D02*
X196952380Y-103109523D01*
X195904761Y-103347619D02*
X196619047Y-103585714D01*
X196619047Y-102966666D01*
%TO.C,C8*%
X191933333Y-93357142D02*
X191885714Y-93404761D01*
X191742857Y-93452380D01*
X191647619Y-93452380D01*
X191504761Y-93404761D01*
X191409523Y-93309523D01*
X191361904Y-93214285D01*
X191314285Y-93023809D01*
X191314285Y-92880952D01*
X191361904Y-92690476D01*
X191409523Y-92595238D01*
X191504761Y-92500000D01*
X191647619Y-92452380D01*
X191742857Y-92452380D01*
X191885714Y-92500000D01*
X191933333Y-92547619D01*
X192504761Y-92880952D02*
X192409523Y-92833333D01*
X192361904Y-92785714D01*
X192314285Y-92690476D01*
X192314285Y-92642857D01*
X192361904Y-92547619D01*
X192409523Y-92500000D01*
X192504761Y-92452380D01*
X192695238Y-92452380D01*
X192790476Y-92500000D01*
X192838095Y-92547619D01*
X192885714Y-92642857D01*
X192885714Y-92690476D01*
X192838095Y-92785714D01*
X192790476Y-92833333D01*
X192695238Y-92880952D01*
X192504761Y-92880952D01*
X192409523Y-92928571D01*
X192361904Y-92976190D01*
X192314285Y-93071428D01*
X192314285Y-93261904D01*
X192361904Y-93357142D01*
X192409523Y-93404761D01*
X192504761Y-93452380D01*
X192695238Y-93452380D01*
X192790476Y-93404761D01*
X192838095Y-93357142D01*
X192885714Y-93261904D01*
X192885714Y-93071428D01*
X192838095Y-92976190D01*
X192790476Y-92928571D01*
X192695238Y-92880952D01*
%TO.C,C7*%
X187883333Y-96757142D02*
X187835714Y-96804761D01*
X187692857Y-96852380D01*
X187597619Y-96852380D01*
X187454761Y-96804761D01*
X187359523Y-96709523D01*
X187311904Y-96614285D01*
X187264285Y-96423809D01*
X187264285Y-96280952D01*
X187311904Y-96090476D01*
X187359523Y-95995238D01*
X187454761Y-95900000D01*
X187597619Y-95852380D01*
X187692857Y-95852380D01*
X187835714Y-95900000D01*
X187883333Y-95947619D01*
X188216666Y-95852380D02*
X188883333Y-95852380D01*
X188454761Y-96852380D01*
%TO.C,R3*%
X206152380Y-98766666D02*
X205676190Y-99100000D01*
X206152380Y-99338095D02*
X205152380Y-99338095D01*
X205152380Y-98957142D01*
X205200000Y-98861904D01*
X205247619Y-98814285D01*
X205342857Y-98766666D01*
X205485714Y-98766666D01*
X205580952Y-98814285D01*
X205628571Y-98861904D01*
X205676190Y-98957142D01*
X205676190Y-99338095D01*
X205152380Y-98433333D02*
X205152380Y-97814285D01*
X205533333Y-98147619D01*
X205533333Y-98004761D01*
X205580952Y-97909523D01*
X205628571Y-97861904D01*
X205723809Y-97814285D01*
X205961904Y-97814285D01*
X206057142Y-97861904D01*
X206104761Y-97909523D01*
X206152380Y-98004761D01*
X206152380Y-98290476D01*
X206104761Y-98385714D01*
X206057142Y-98433333D01*
%TO.C,R4*%
X197052380Y-98566666D02*
X196576190Y-98900000D01*
X197052380Y-99138095D02*
X196052380Y-99138095D01*
X196052380Y-98757142D01*
X196100000Y-98661904D01*
X196147619Y-98614285D01*
X196242857Y-98566666D01*
X196385714Y-98566666D01*
X196480952Y-98614285D01*
X196528571Y-98661904D01*
X196576190Y-98757142D01*
X196576190Y-99138095D01*
X196385714Y-97709523D02*
X197052380Y-97709523D01*
X196004761Y-97947619D02*
X196719047Y-98185714D01*
X196719047Y-97566666D01*
%TO.C,U2*%
X189138095Y-100252380D02*
X189138095Y-101061904D01*
X189185714Y-101157142D01*
X189233333Y-101204761D01*
X189328571Y-101252380D01*
X189519047Y-101252380D01*
X189614285Y-101204761D01*
X189661904Y-101157142D01*
X189709523Y-101061904D01*
X189709523Y-100252380D01*
X190138095Y-100347619D02*
X190185714Y-100300000D01*
X190280952Y-100252380D01*
X190519047Y-100252380D01*
X190614285Y-100300000D01*
X190661904Y-100347619D01*
X190709523Y-100442857D01*
X190709523Y-100538095D01*
X190661904Y-100680952D01*
X190090476Y-101252380D01*
X190709523Y-101252380D01*
%TO.C,C5*%
X199033333Y-106857142D02*
X198985714Y-106904761D01*
X198842857Y-106952380D01*
X198747619Y-106952380D01*
X198604761Y-106904761D01*
X198509523Y-106809523D01*
X198461904Y-106714285D01*
X198414285Y-106523809D01*
X198414285Y-106380952D01*
X198461904Y-106190476D01*
X198509523Y-106095238D01*
X198604761Y-106000000D01*
X198747619Y-105952380D01*
X198842857Y-105952380D01*
X198985714Y-106000000D01*
X199033333Y-106047619D01*
X199938095Y-105952380D02*
X199461904Y-105952380D01*
X199414285Y-106428571D01*
X199461904Y-106380952D01*
X199557142Y-106333333D01*
X199795238Y-106333333D01*
X199890476Y-106380952D01*
X199938095Y-106428571D01*
X199985714Y-106523809D01*
X199985714Y-106761904D01*
X199938095Y-106857142D01*
X199890476Y-106904761D01*
X199795238Y-106952380D01*
X199557142Y-106952380D01*
X199461904Y-106904761D01*
X199414285Y-106857142D01*
%TO.C,C1*%
X192457142Y-110366666D02*
X192504761Y-110414285D01*
X192552380Y-110557142D01*
X192552380Y-110652380D01*
X192504761Y-110795238D01*
X192409523Y-110890476D01*
X192314285Y-110938095D01*
X192123809Y-110985714D01*
X191980952Y-110985714D01*
X191790476Y-110938095D01*
X191695238Y-110890476D01*
X191600000Y-110795238D01*
X191552380Y-110652380D01*
X191552380Y-110557142D01*
X191600000Y-110414285D01*
X191647619Y-110366666D01*
X192552380Y-109414285D02*
X192552380Y-109985714D01*
X192552380Y-109700000D02*
X191552380Y-109700000D01*
X191695238Y-109795238D01*
X191790476Y-109890476D01*
X191838095Y-109985714D01*
%TO.C,U1*%
X198638095Y-101752380D02*
X198638095Y-102561904D01*
X198685714Y-102657142D01*
X198733333Y-102704761D01*
X198828571Y-102752380D01*
X199019047Y-102752380D01*
X199114285Y-102704761D01*
X199161904Y-102657142D01*
X199209523Y-102561904D01*
X199209523Y-101752380D01*
X200209523Y-102752380D02*
X199638095Y-102752380D01*
X199923809Y-102752380D02*
X199923809Y-101752380D01*
X199828571Y-101895238D01*
X199733333Y-101990476D01*
X199638095Y-102038095D01*
%TO.C,R2*%
X196852380Y-100766666D02*
X196376190Y-101100000D01*
X196852380Y-101338095D02*
X195852380Y-101338095D01*
X195852380Y-100957142D01*
X195900000Y-100861904D01*
X195947619Y-100814285D01*
X196042857Y-100766666D01*
X196185714Y-100766666D01*
X196280952Y-100814285D01*
X196328571Y-100861904D01*
X196376190Y-100957142D01*
X196376190Y-101338095D01*
X195947619Y-100385714D02*
X195900000Y-100338095D01*
X195852380Y-100242857D01*
X195852380Y-100004761D01*
X195900000Y-99909523D01*
X195947619Y-99861904D01*
X196042857Y-99814285D01*
X196138095Y-99814285D01*
X196280952Y-99861904D01*
X196852380Y-100433333D01*
X196852380Y-99814285D01*
%TO.C,C6*%
X194533333Y-101157142D02*
X194485714Y-101204761D01*
X194342857Y-101252380D01*
X194247619Y-101252380D01*
X194104761Y-101204761D01*
X194009523Y-101109523D01*
X193961904Y-101014285D01*
X193914285Y-100823809D01*
X193914285Y-100680952D01*
X193961904Y-100490476D01*
X194009523Y-100395238D01*
X194104761Y-100300000D01*
X194247619Y-100252380D01*
X194342857Y-100252380D01*
X194485714Y-100300000D01*
X194533333Y-100347619D01*
X195390476Y-100252380D02*
X195200000Y-100252380D01*
X195104761Y-100300000D01*
X195057142Y-100347619D01*
X194961904Y-100490476D01*
X194914285Y-100680952D01*
X194914285Y-101061904D01*
X194961904Y-101157142D01*
X195009523Y-101204761D01*
X195104761Y-101252380D01*
X195295238Y-101252380D01*
X195390476Y-101204761D01*
X195438095Y-101157142D01*
X195485714Y-101061904D01*
X195485714Y-100823809D01*
X195438095Y-100728571D01*
X195390476Y-100680952D01*
X195295238Y-100633333D01*
X195104761Y-100633333D01*
X195009523Y-100680952D01*
X194961904Y-100728571D01*
X194914285Y-100823809D01*
%TO.C,R1*%
X204133333Y-109152380D02*
X203800000Y-108676190D01*
X203561904Y-109152380D02*
X203561904Y-108152380D01*
X203942857Y-108152380D01*
X204038095Y-108200000D01*
X204085714Y-108247619D01*
X204133333Y-108342857D01*
X204133333Y-108485714D01*
X204085714Y-108580952D01*
X204038095Y-108628571D01*
X203942857Y-108676190D01*
X203561904Y-108676190D01*
X205085714Y-109152380D02*
X204514285Y-109152380D01*
X204800000Y-109152380D02*
X204800000Y-108152380D01*
X204704761Y-108295238D01*
X204609523Y-108390476D01*
X204514285Y-108438095D01*
%TO.C,C9*%
X188733333Y-93357142D02*
X188685714Y-93404761D01*
X188542857Y-93452380D01*
X188447619Y-93452380D01*
X188304761Y-93404761D01*
X188209523Y-93309523D01*
X188161904Y-93214285D01*
X188114285Y-93023809D01*
X188114285Y-92880952D01*
X188161904Y-92690476D01*
X188209523Y-92595238D01*
X188304761Y-92500000D01*
X188447619Y-92452380D01*
X188542857Y-92452380D01*
X188685714Y-92500000D01*
X188733333Y-92547619D01*
X189209523Y-93452380D02*
X189400000Y-93452380D01*
X189495238Y-93404761D01*
X189542857Y-93357142D01*
X189638095Y-93214285D01*
X189685714Y-93023809D01*
X189685714Y-92642857D01*
X189638095Y-92547619D01*
X189590476Y-92500000D01*
X189495238Y-92452380D01*
X189304761Y-92452380D01*
X189209523Y-92500000D01*
X189161904Y-92547619D01*
X189114285Y-92642857D01*
X189114285Y-92880952D01*
X189161904Y-92976190D01*
X189209523Y-93023809D01*
X189304761Y-93071428D01*
X189495238Y-93071428D01*
X189590476Y-93023809D01*
X189638095Y-92976190D01*
X189685714Y-92880952D01*
%TO.C,C2*%
X192557142Y-104366666D02*
X192604761Y-104414285D01*
X192652380Y-104557142D01*
X192652380Y-104652380D01*
X192604761Y-104795238D01*
X192509523Y-104890476D01*
X192414285Y-104938095D01*
X192223809Y-104985714D01*
X192080952Y-104985714D01*
X191890476Y-104938095D01*
X191795238Y-104890476D01*
X191700000Y-104795238D01*
X191652380Y-104652380D01*
X191652380Y-104557142D01*
X191700000Y-104414285D01*
X191747619Y-104366666D01*
X191747619Y-103985714D02*
X191700000Y-103938095D01*
X191652380Y-103842857D01*
X191652380Y-103604761D01*
X191700000Y-103509523D01*
X191747619Y-103461904D01*
X191842857Y-103414285D01*
X191938095Y-103414285D01*
X192080952Y-103461904D01*
X192652380Y-104033333D01*
X192652380Y-103414285D01*
D11*
%TO.C,J4*%
X199392500Y-96335000D02*
X199142500Y-96835000D01*
X199142500Y-96835000D02*
X199642500Y-96835000D01*
X199642500Y-96835000D02*
X199392500Y-96335000D01*
%TO.C,J1*%
X201060000Y-111740000D02*
X192940000Y-111740000D01*
X201060000Y-119560000D02*
X201060000Y-111740000D01*
X198500000Y-111740000D02*
X198500000Y-116100000D01*
X199300000Y-114000000D02*
X199300000Y-115600000D01*
X200300000Y-114000000D02*
X199300000Y-114000000D01*
X199860000Y-117960000D02*
X199860000Y-119175000D01*
X199300000Y-114000000D02*
X199300000Y-111740000D01*
X200140000Y-117960000D02*
X200140000Y-119560000D01*
X199800000Y-114000000D02*
X199800000Y-111740000D01*
X193860000Y-117960000D02*
X194140000Y-117960000D01*
X200140000Y-119560000D02*
X201060000Y-119560000D01*
X200300000Y-115600000D02*
X200300000Y-114000000D01*
X194700000Y-115600000D02*
X193700000Y-115600000D01*
X201060000Y-117960000D02*
X200140000Y-117960000D01*
X193700000Y-115600000D02*
X193700000Y-114000000D01*
X198500000Y-116100000D02*
X195500000Y-116100000D01*
X194700000Y-114000000D02*
X194700000Y-115600000D01*
X192940000Y-111740000D02*
X192940000Y-119560000D01*
X195500000Y-116100000D02*
X195500000Y-111740000D01*
X192940000Y-117960000D02*
X193860000Y-117960000D01*
X193860000Y-119560000D02*
X193860000Y-117960000D01*
X199860000Y-117960000D02*
X200140000Y-117960000D01*
X199300000Y-115600000D02*
X200300000Y-115600000D01*
X192940000Y-119560000D02*
X193860000Y-119560000D01*
X193700000Y-114000000D02*
X194700000Y-114000000D01*
%TO.C,C3*%
X201659420Y-110910000D02*
X201940580Y-110910000D01*
X201659420Y-109890000D02*
X201940580Y-109890000D01*
%TO.C,C4*%
X198559420Y-104410000D02*
X198840580Y-104410000D01*
X198559420Y-103390000D02*
X198840580Y-103390000D01*
%TO.C,C8*%
X193560000Y-93711252D02*
X193560000Y-92288748D01*
X190840000Y-93711252D02*
X190840000Y-92288748D01*
%TO.C,C7*%
X187540000Y-98740580D02*
X187540000Y-98459420D01*
X188560000Y-98740580D02*
X188560000Y-98459420D01*
%TO.C,R3*%
X203737258Y-99022500D02*
X203262742Y-99022500D01*
X203737258Y-97977500D02*
X203262742Y-97977500D01*
%TO.C,R4*%
X198772936Y-97390000D02*
X200227064Y-97390000D01*
X198772936Y-99210000D02*
X200227064Y-99210000D01*
%TO.C,U2*%
X189240000Y-96600000D02*
X189240000Y-99600000D01*
X193460000Y-96350000D02*
X193460000Y-99600000D01*
%TO.C,C5*%
X199810000Y-108740580D02*
X199810000Y-108459420D01*
X198790000Y-108740580D02*
X198790000Y-108459420D01*
%TO.C,C1*%
X188340000Y-109488748D02*
X188340000Y-110911252D01*
X191060000Y-109488748D02*
X191060000Y-110911252D01*
%TO.C,U1*%
X200440000Y-104000000D02*
X200440000Y-102050000D01*
X205560000Y-104000000D02*
X205560000Y-105950000D01*
X205560000Y-104000000D02*
X205560000Y-102050000D01*
X200440000Y-104000000D02*
X200440000Y-107450000D01*
%TO.C,R2*%
X198937258Y-100077500D02*
X198462742Y-100077500D01*
X198937258Y-101122500D02*
X198462742Y-101122500D01*
%TO.C,C6*%
X194290000Y-98359420D02*
X194290000Y-98640580D01*
X195310000Y-98359420D02*
X195310000Y-98640580D01*
%TO.C,R1*%
X201562742Y-108077500D02*
X202037258Y-108077500D01*
X201562742Y-109122500D02*
X202037258Y-109122500D01*
%TO.C,C9*%
X190360000Y-92288748D02*
X190360000Y-93711252D01*
X187640000Y-92288748D02*
X187640000Y-93711252D01*
%TO.C,C2*%
X188290000Y-104811252D02*
X188290000Y-103388748D01*
X191010000Y-104811252D02*
X191010000Y-103388748D01*
%TD*%
M02*
