G04 #@! TF.GenerationSoftware,KiCad,Pcbnew,(5.1.2)-1*
G04 #@! TF.CreationDate,2020-10-01T12:47:08+02:00*
G04 #@! TF.ProjectId,SFH203_photodetector,53464832-3033-45f7-9068-6f746f646574,1.4*
G04 #@! TF.SameCoordinates,Original*
G04 #@! TF.FileFunction,Copper,L2,Bot*
G04 #@! TF.FilePolarity,Positive*
%FSLAX46Y46*%
G04 Gerber Fmt 4.6, Leading zero omitted, Abs format (unit mm)*
G04 Created by KiCad (PCBNEW (5.1.2)-1) date 2020-10-01 12:47:08*
%MOMM*%
%LPD*%
G04 APERTURE LIST*
%ADD10C,1.300000*%
%ADD11C,1.100000*%
%ADD12C,1.600000*%
%ADD13R,1.700000X1.700000*%
%ADD14O,1.700000X1.700000*%
%ADD15C,2.250000*%
%ADD16C,0.600000*%
%ADD17C,0.500000*%
%ADD18C,0.200000*%
%ADD19C,0.254000*%
G04 APERTURE END LIST*
D10*
X129790000Y-79250000D03*
D11*
X132350000Y-79250000D03*
D12*
X120050000Y-63750000D03*
X120050000Y-68750000D03*
D13*
X151250000Y-64210000D03*
D14*
X151250000Y-66750000D03*
X151250000Y-69290000D03*
D15*
X112250000Y-63750000D03*
X114790000Y-61210000D03*
X109710000Y-61210000D03*
X109710000Y-66290000D03*
X114790000Y-66290000D03*
D16*
X144050000Y-66350000D03*
X141550000Y-59150000D03*
X144550000Y-59150000D03*
X142650000Y-74450000D03*
X148150000Y-74550000D03*
X124050000Y-72650000D03*
X134915000Y-72515000D03*
X136850000Y-69950000D03*
X123350000Y-65450000D03*
X126850000Y-69550000D03*
X124950000Y-70050000D03*
X147750000Y-69750000D03*
X141550000Y-69349982D03*
D17*
X125450000Y-69550000D02*
X124950000Y-70050000D01*
X126850000Y-69550000D02*
X125450000Y-69550000D01*
D18*
X147750000Y-69750000D02*
X141950018Y-69750000D01*
X141950018Y-69750000D02*
X141550000Y-69349982D01*
D19*
G36*
X145195701Y-38999069D02*
G01*
X145624415Y-39128505D01*
X146019831Y-39338751D01*
X146366878Y-39621796D01*
X146652337Y-39966857D01*
X146865338Y-40360794D01*
X146997767Y-40788601D01*
X147048000Y-41266536D01*
X147048001Y-49734480D01*
X147050519Y-49760043D01*
X147103523Y-50481828D01*
X147106201Y-50498183D01*
X147106722Y-50514751D01*
X147121034Y-50594294D01*
X147328554Y-51458676D01*
X147335599Y-51479609D01*
X147340191Y-51501214D01*
X147368363Y-51576965D01*
X147725672Y-52390935D01*
X147736310Y-52410284D01*
X147744657Y-52430740D01*
X147785798Y-52500305D01*
X148281601Y-53238139D01*
X148295501Y-53255304D01*
X148307336Y-53273953D01*
X148360146Y-53335133D01*
X148978773Y-53973506D01*
X148995490Y-53987936D01*
X149010442Y-54004196D01*
X149073251Y-54055058D01*
X149795147Y-54573793D01*
X149814157Y-54585035D01*
X149831751Y-54598390D01*
X149902574Y-54637325D01*
X150704921Y-55020025D01*
X150725624Y-55027724D01*
X150745302Y-55037751D01*
X150821901Y-55063529D01*
X151679337Y-55298097D01*
X151701068Y-55302007D01*
X151722219Y-55308393D01*
X151802172Y-55320199D01*
X152687596Y-55399221D01*
X152712795Y-55399221D01*
X153001952Y-55427573D01*
X153244299Y-55500741D01*
X153467820Y-55619591D01*
X153664006Y-55779595D01*
X153825369Y-55974651D01*
X153945776Y-56197339D01*
X154020638Y-56439179D01*
X154049658Y-56715284D01*
X154048754Y-56757373D01*
X154048065Y-56764239D01*
X153999061Y-83615029D01*
X153971914Y-83891892D01*
X153901671Y-84124550D01*
X153787572Y-84339140D01*
X153633969Y-84527476D01*
X153446703Y-84682396D01*
X153232917Y-84797988D01*
X152997601Y-84870831D01*
X152767556Y-84897181D01*
X152520712Y-84892053D01*
X152519477Y-84892137D01*
X152518245Y-84892006D01*
X152437491Y-84895266D01*
X151560539Y-84981426D01*
X151538840Y-84985530D01*
X151516808Y-84987114D01*
X151437907Y-85004622D01*
X150590071Y-85244715D01*
X150569434Y-85252600D01*
X150548036Y-85258059D01*
X150473483Y-85289262D01*
X149681564Y-85675700D01*
X149662656Y-85687111D01*
X149642558Y-85696275D01*
X149574709Y-85740188D01*
X148863738Y-86260754D01*
X148847149Y-86275334D01*
X148828991Y-86287912D01*
X148769990Y-86343146D01*
X148162439Y-86981388D01*
X148148696Y-86998673D01*
X148133051Y-87014269D01*
X148084764Y-87079078D01*
X147599839Y-87814821D01*
X147589373Y-87834268D01*
X147576738Y-87852387D01*
X147540691Y-87924722D01*
X147193718Y-88734711D01*
X147186863Y-88755698D01*
X147177634Y-88775773D01*
X147154966Y-88853349D01*
X146956913Y-89711978D01*
X146953882Y-89733853D01*
X146948355Y-89755241D01*
X146939783Y-89835605D01*
X146898406Y-90685048D01*
X146843040Y-91089134D01*
X146722643Y-91438755D01*
X146536633Y-91758330D01*
X146292092Y-92035688D01*
X145998335Y-92260268D01*
X145666556Y-92423510D01*
X145304001Y-92520644D01*
X144971201Y-92548000D01*
X117784337Y-92548000D01*
X117304299Y-92500931D01*
X116875584Y-92371495D01*
X116480169Y-92161249D01*
X116133122Y-91878204D01*
X115847664Y-91533145D01*
X115634661Y-91139204D01*
X115502233Y-90711399D01*
X115452000Y-90233463D01*
X115452000Y-81715520D01*
X115449478Y-81689917D01*
X115396477Y-80968172D01*
X115393799Y-80951817D01*
X115393278Y-80935249D01*
X115378966Y-80855707D01*
X115171446Y-79991324D01*
X115164401Y-79970391D01*
X115159809Y-79948786D01*
X115131637Y-79873035D01*
X114774328Y-79059064D01*
X114763689Y-79039712D01*
X114755343Y-79019260D01*
X114714202Y-78949695D01*
X114218399Y-78211861D01*
X114204499Y-78194696D01*
X114192664Y-78176047D01*
X114139855Y-78114867D01*
X113521227Y-77476494D01*
X113504510Y-77462064D01*
X113489558Y-77445804D01*
X113426749Y-77394942D01*
X112704853Y-76876207D01*
X112685843Y-76864965D01*
X112668249Y-76851610D01*
X112597426Y-76812675D01*
X111795079Y-76429975D01*
X111774373Y-76422275D01*
X111754697Y-76412249D01*
X111678099Y-76386471D01*
X110820663Y-76151903D01*
X110798932Y-76147993D01*
X110777781Y-76141607D01*
X110697828Y-76129801D01*
X109815484Y-76051054D01*
X109804735Y-76050000D01*
X128023000Y-76050000D01*
X128023000Y-82450000D01*
X128025440Y-82474776D01*
X128032667Y-82498601D01*
X128044403Y-82520557D01*
X128060197Y-82539803D01*
X128079443Y-82555597D01*
X128101399Y-82567333D01*
X128125224Y-82574560D01*
X128150000Y-82577000D01*
X134350000Y-82577000D01*
X134374776Y-82574560D01*
X134398601Y-82567333D01*
X134420557Y-82555597D01*
X134439803Y-82539803D01*
X134455597Y-82520557D01*
X134467333Y-82498601D01*
X134474560Y-82474776D01*
X134477000Y-82450000D01*
X134477000Y-81376489D01*
X148423000Y-81376489D01*
X148423000Y-81923511D01*
X148529718Y-82460021D01*
X148739054Y-82965403D01*
X149042963Y-83420234D01*
X149429766Y-83807037D01*
X149884597Y-84110946D01*
X150389979Y-84320282D01*
X150926489Y-84427000D01*
X151473511Y-84427000D01*
X152010021Y-84320282D01*
X152515403Y-84110946D01*
X152970234Y-83807037D01*
X153357037Y-83420234D01*
X153660946Y-82965403D01*
X153870282Y-82460021D01*
X153977000Y-81923511D01*
X153977000Y-81376489D01*
X153870282Y-80839979D01*
X153660946Y-80334597D01*
X153357037Y-79879766D01*
X152970234Y-79492963D01*
X152515403Y-79189054D01*
X152010021Y-78979718D01*
X151473511Y-78873000D01*
X150926489Y-78873000D01*
X150389979Y-78979718D01*
X149884597Y-79189054D01*
X149429766Y-79492963D01*
X149042963Y-79879766D01*
X148739054Y-80334597D01*
X148529718Y-80839979D01*
X148423000Y-81376489D01*
X134477000Y-81376489D01*
X134477000Y-76050000D01*
X134474560Y-76025224D01*
X134467333Y-76001399D01*
X134455597Y-75979443D01*
X134439803Y-75960197D01*
X134420557Y-75944403D01*
X134398601Y-75932667D01*
X134374776Y-75925440D01*
X134350000Y-75923000D01*
X128150000Y-75923000D01*
X128125224Y-75925440D01*
X128101399Y-75932667D01*
X128079443Y-75944403D01*
X128060197Y-75960197D01*
X128044403Y-75979443D01*
X128032667Y-76001399D01*
X128025440Y-76025224D01*
X128023000Y-76050000D01*
X109804735Y-76050000D01*
X109498536Y-76019977D01*
X109256654Y-75946949D01*
X109033562Y-75828328D01*
X108837756Y-75668632D01*
X108676701Y-75473950D01*
X108556524Y-75251686D01*
X108481809Y-75010323D01*
X108452000Y-74726710D01*
X108452000Y-69742702D01*
X119236903Y-69742702D01*
X119308486Y-69986671D01*
X119563996Y-70107571D01*
X119838184Y-70176300D01*
X120120512Y-70190217D01*
X120400130Y-70148787D01*
X120666292Y-70053603D01*
X120791514Y-69986671D01*
X120799721Y-69958699D01*
X124023000Y-69958699D01*
X124023000Y-70141301D01*
X124058624Y-70320396D01*
X124128504Y-70489099D01*
X124229952Y-70640928D01*
X124359072Y-70770048D01*
X124510901Y-70871496D01*
X124679604Y-70941376D01*
X124858699Y-70977000D01*
X125041301Y-70977000D01*
X125220396Y-70941376D01*
X125389099Y-70871496D01*
X125540928Y-70770048D01*
X125670048Y-70640928D01*
X125771496Y-70489099D01*
X125785872Y-70454393D01*
X125813265Y-70427000D01*
X126544898Y-70427000D01*
X126579604Y-70441376D01*
X126758699Y-70477000D01*
X126941301Y-70477000D01*
X127120396Y-70441376D01*
X127289099Y-70371496D01*
X127440928Y-70270048D01*
X127570048Y-70140928D01*
X127671496Y-69989099D01*
X127741376Y-69820396D01*
X127777000Y-69641301D01*
X127777000Y-69458699D01*
X127741376Y-69279604D01*
X127732710Y-69258681D01*
X140623000Y-69258681D01*
X140623000Y-69441283D01*
X140658624Y-69620378D01*
X140728504Y-69789081D01*
X140829952Y-69940910D01*
X140959072Y-70070030D01*
X141110901Y-70171478D01*
X141279604Y-70241358D01*
X141442163Y-70273693D01*
X141544165Y-70357403D01*
X141650630Y-70414310D01*
X141670461Y-70424910D01*
X141807500Y-70466480D01*
X141950018Y-70480517D01*
X141985726Y-70477000D01*
X147169476Y-70477000D01*
X147310901Y-70571496D01*
X147479604Y-70641376D01*
X147658699Y-70677000D01*
X147841301Y-70677000D01*
X148020396Y-70641376D01*
X148189099Y-70571496D01*
X148340928Y-70470048D01*
X148470048Y-70340928D01*
X148571496Y-70189099D01*
X148641376Y-70020396D01*
X148677000Y-69841301D01*
X148677000Y-69658699D01*
X148641376Y-69479604D01*
X148571496Y-69310901D01*
X148557531Y-69290000D01*
X149765854Y-69290000D01*
X149794371Y-69579543D01*
X149878828Y-69857958D01*
X150015978Y-70114547D01*
X150200550Y-70339450D01*
X150425453Y-70524022D01*
X150682042Y-70661172D01*
X150960457Y-70745629D01*
X151177444Y-70767000D01*
X151322556Y-70767000D01*
X151539543Y-70745629D01*
X151817958Y-70661172D01*
X152074547Y-70524022D01*
X152299450Y-70339450D01*
X152484022Y-70114547D01*
X152621172Y-69857958D01*
X152705629Y-69579543D01*
X152734146Y-69290000D01*
X152705629Y-69000457D01*
X152621172Y-68722042D01*
X152484022Y-68465453D01*
X152299450Y-68240550D01*
X152074547Y-68055978D01*
X152006451Y-68019580D01*
X152131355Y-67945178D01*
X152347588Y-67750269D01*
X152521641Y-67516920D01*
X152646825Y-67254099D01*
X152691476Y-67106890D01*
X152570155Y-66877000D01*
X151377000Y-66877000D01*
X151377000Y-66897000D01*
X151123000Y-66897000D01*
X151123000Y-66877000D01*
X149929845Y-66877000D01*
X149808524Y-67106890D01*
X149853175Y-67254099D01*
X149978359Y-67516920D01*
X150152412Y-67750269D01*
X150368645Y-67945178D01*
X150493549Y-68019580D01*
X150425453Y-68055978D01*
X150200550Y-68240550D01*
X150015978Y-68465453D01*
X149878828Y-68722042D01*
X149794371Y-69000457D01*
X149765854Y-69290000D01*
X148557531Y-69290000D01*
X148470048Y-69159072D01*
X148340928Y-69029952D01*
X148189099Y-68928504D01*
X148020396Y-68858624D01*
X147841301Y-68823000D01*
X147658699Y-68823000D01*
X147479604Y-68858624D01*
X147310901Y-68928504D01*
X147169476Y-69023000D01*
X142417937Y-69023000D01*
X142371496Y-68910883D01*
X142270048Y-68759054D01*
X142140928Y-68629934D01*
X141989099Y-68528486D01*
X141820396Y-68458606D01*
X141641301Y-68422982D01*
X141458699Y-68422982D01*
X141279604Y-68458606D01*
X141110901Y-68528486D01*
X140959072Y-68629934D01*
X140829952Y-68759054D01*
X140728504Y-68910883D01*
X140658624Y-69079586D01*
X140623000Y-69258681D01*
X127732710Y-69258681D01*
X127671496Y-69110901D01*
X127570048Y-68959072D01*
X127440928Y-68829952D01*
X127289099Y-68728504D01*
X127120396Y-68658624D01*
X126941301Y-68623000D01*
X126758699Y-68623000D01*
X126579604Y-68658624D01*
X126544898Y-68673000D01*
X125493079Y-68673000D01*
X125450000Y-68668757D01*
X125278077Y-68685690D01*
X125158242Y-68722042D01*
X125112763Y-68735838D01*
X124960408Y-68817273D01*
X124826867Y-68926867D01*
X124799403Y-68960332D01*
X124545607Y-69214128D01*
X124510901Y-69228504D01*
X124359072Y-69329952D01*
X124229952Y-69459072D01*
X124128504Y-69610901D01*
X124058624Y-69779604D01*
X124023000Y-69958699D01*
X120799721Y-69958699D01*
X120863097Y-69742702D01*
X120050000Y-68929605D01*
X119236903Y-69742702D01*
X108452000Y-69742702D01*
X108452000Y-68820512D01*
X118609783Y-68820512D01*
X118651213Y-69100130D01*
X118746397Y-69366292D01*
X118813329Y-69491514D01*
X119057298Y-69563097D01*
X119870395Y-68750000D01*
X120229605Y-68750000D01*
X121042702Y-69563097D01*
X121286671Y-69491514D01*
X121407571Y-69236004D01*
X121476300Y-68961816D01*
X121490217Y-68679488D01*
X121448787Y-68399870D01*
X121353603Y-68133708D01*
X121286671Y-68008486D01*
X121042702Y-67936903D01*
X120229605Y-68750000D01*
X119870395Y-68750000D01*
X119057298Y-67936903D01*
X118813329Y-68008486D01*
X118692429Y-68263996D01*
X118623700Y-68538184D01*
X118609783Y-68820512D01*
X108452000Y-68820512D01*
X108452000Y-67514531D01*
X108665074Y-67514531D01*
X108775921Y-67791714D01*
X109086840Y-67945089D01*
X109421705Y-68034860D01*
X109767650Y-68057576D01*
X110111380Y-68012366D01*
X110439685Y-67900966D01*
X110644079Y-67791714D01*
X110754926Y-67514531D01*
X113745074Y-67514531D01*
X113855921Y-67791714D01*
X114166840Y-67945089D01*
X114501705Y-68034860D01*
X114847650Y-68057576D01*
X115191380Y-68012366D01*
X115519685Y-67900966D01*
X115724079Y-67791714D01*
X115737842Y-67757298D01*
X119236903Y-67757298D01*
X120050000Y-68570395D01*
X120863097Y-67757298D01*
X120791514Y-67513329D01*
X120536004Y-67392429D01*
X120261816Y-67323700D01*
X119979488Y-67309783D01*
X119699870Y-67351213D01*
X119433708Y-67446397D01*
X119308486Y-67513329D01*
X119236903Y-67757298D01*
X115737842Y-67757298D01*
X115834926Y-67514531D01*
X114790000Y-66469605D01*
X113745074Y-67514531D01*
X110754926Y-67514531D01*
X109710000Y-66469605D01*
X108665074Y-67514531D01*
X108452000Y-67514531D01*
X108452000Y-67321542D01*
X108485469Y-67334926D01*
X109530395Y-66290000D01*
X109889605Y-66290000D01*
X110934531Y-67334926D01*
X111211714Y-67224079D01*
X111365089Y-66913160D01*
X111454860Y-66578295D01*
X111470004Y-66347650D01*
X113022424Y-66347650D01*
X113067634Y-66691380D01*
X113179034Y-67019685D01*
X113288286Y-67224079D01*
X113565469Y-67334926D01*
X114610395Y-66290000D01*
X114969605Y-66290000D01*
X116014531Y-67334926D01*
X116291714Y-67224079D01*
X116445089Y-66913160D01*
X116534860Y-66578295D01*
X116557576Y-66232350D01*
X116512366Y-65888620D01*
X116400966Y-65560315D01*
X116291714Y-65355921D01*
X116014531Y-65245074D01*
X114969605Y-66290000D01*
X114610395Y-66290000D01*
X113565469Y-65245074D01*
X113288286Y-65355921D01*
X113134911Y-65666840D01*
X113045140Y-66001705D01*
X113022424Y-66347650D01*
X111470004Y-66347650D01*
X111477576Y-66232350D01*
X111432366Y-65888620D01*
X111320966Y-65560315D01*
X111211714Y-65355921D01*
X110934531Y-65245074D01*
X109889605Y-66290000D01*
X109530395Y-66290000D01*
X108485469Y-65245074D01*
X108452000Y-65258458D01*
X108452000Y-65065469D01*
X108665074Y-65065469D01*
X109710000Y-66110395D01*
X110754926Y-65065469D01*
X110644079Y-64788286D01*
X110333160Y-64634911D01*
X109998295Y-64545140D01*
X109652350Y-64522424D01*
X109308620Y-64567634D01*
X108980315Y-64679034D01*
X108775921Y-64788286D01*
X108665074Y-65065469D01*
X108452000Y-65065469D01*
X108452000Y-63577443D01*
X110498000Y-63577443D01*
X110498000Y-63922557D01*
X110565329Y-64261039D01*
X110697398Y-64579883D01*
X110889133Y-64866835D01*
X111133165Y-65110867D01*
X111420117Y-65302602D01*
X111738961Y-65434671D01*
X112077443Y-65502000D01*
X112422557Y-65502000D01*
X112761039Y-65434671D01*
X113079883Y-65302602D01*
X113366835Y-65110867D01*
X113412233Y-65065469D01*
X113745074Y-65065469D01*
X114790000Y-66110395D01*
X115834926Y-65065469D01*
X115724079Y-64788286D01*
X115413160Y-64634911D01*
X115078295Y-64545140D01*
X114732350Y-64522424D01*
X114388620Y-64567634D01*
X114060315Y-64679034D01*
X113855921Y-64788286D01*
X113745074Y-65065469D01*
X113412233Y-65065469D01*
X113610867Y-64866835D01*
X113802602Y-64579883D01*
X113934671Y-64261039D01*
X114002000Y-63922557D01*
X114002000Y-63609453D01*
X118623000Y-63609453D01*
X118623000Y-63890547D01*
X118677838Y-64166241D01*
X118785409Y-64425938D01*
X118941576Y-64659660D01*
X119140340Y-64858424D01*
X119374062Y-65014591D01*
X119633759Y-65122162D01*
X119909453Y-65177000D01*
X120190547Y-65177000D01*
X120466241Y-65122162D01*
X120725938Y-65014591D01*
X120959660Y-64858424D01*
X121158424Y-64659660D01*
X121314591Y-64425938D01*
X121422162Y-64166241D01*
X121477000Y-63890547D01*
X121477000Y-63609453D01*
X121427382Y-63360000D01*
X149769967Y-63360000D01*
X149769967Y-65060000D01*
X149782073Y-65182913D01*
X149817925Y-65301103D01*
X149876147Y-65410028D01*
X149954499Y-65505501D01*
X150049972Y-65583853D01*
X150158897Y-65642075D01*
X150243406Y-65667710D01*
X150152412Y-65749731D01*
X149978359Y-65983080D01*
X149853175Y-66245901D01*
X149808524Y-66393110D01*
X149929845Y-66623000D01*
X151123000Y-66623000D01*
X151123000Y-66603000D01*
X151377000Y-66603000D01*
X151377000Y-66623000D01*
X152570155Y-66623000D01*
X152691476Y-66393110D01*
X152646825Y-66245901D01*
X152521641Y-65983080D01*
X152347588Y-65749731D01*
X152256594Y-65667710D01*
X152341103Y-65642075D01*
X152450028Y-65583853D01*
X152545501Y-65505501D01*
X152623853Y-65410028D01*
X152682075Y-65301103D01*
X152717927Y-65182913D01*
X152730033Y-65060000D01*
X152730033Y-63360000D01*
X152717927Y-63237087D01*
X152682075Y-63118897D01*
X152623853Y-63009972D01*
X152545501Y-62914499D01*
X152450028Y-62836147D01*
X152341103Y-62777925D01*
X152222913Y-62742073D01*
X152100000Y-62729967D01*
X150400000Y-62729967D01*
X150277087Y-62742073D01*
X150158897Y-62777925D01*
X150049972Y-62836147D01*
X149954499Y-62914499D01*
X149876147Y-63009972D01*
X149817925Y-63118897D01*
X149782073Y-63237087D01*
X149769967Y-63360000D01*
X121427382Y-63360000D01*
X121422162Y-63333759D01*
X121314591Y-63074062D01*
X121158424Y-62840340D01*
X120959660Y-62641576D01*
X120725938Y-62485409D01*
X120466241Y-62377838D01*
X120190547Y-62323000D01*
X119909453Y-62323000D01*
X119633759Y-62377838D01*
X119374062Y-62485409D01*
X119140340Y-62641576D01*
X118941576Y-62840340D01*
X118785409Y-63074062D01*
X118677838Y-63333759D01*
X118623000Y-63609453D01*
X114002000Y-63609453D01*
X114002000Y-63577443D01*
X113934671Y-63238961D01*
X113802602Y-62920117D01*
X113610867Y-62633165D01*
X113412233Y-62434531D01*
X113745074Y-62434531D01*
X113855921Y-62711714D01*
X114166840Y-62865089D01*
X114501705Y-62954860D01*
X114847650Y-62977576D01*
X115191380Y-62932366D01*
X115519685Y-62820966D01*
X115724079Y-62711714D01*
X115834926Y-62434531D01*
X114790000Y-61389605D01*
X113745074Y-62434531D01*
X113412233Y-62434531D01*
X113366835Y-62389133D01*
X113079883Y-62197398D01*
X112761039Y-62065329D01*
X112422557Y-61998000D01*
X112077443Y-61998000D01*
X111738961Y-62065329D01*
X111420117Y-62197398D01*
X111133165Y-62389133D01*
X110889133Y-62633165D01*
X110697398Y-62920117D01*
X110565329Y-63238961D01*
X110498000Y-63577443D01*
X108452000Y-63577443D01*
X108452000Y-62434531D01*
X108665074Y-62434531D01*
X108775921Y-62711714D01*
X109086840Y-62865089D01*
X109421705Y-62954860D01*
X109767650Y-62977576D01*
X110111380Y-62932366D01*
X110439685Y-62820966D01*
X110644079Y-62711714D01*
X110754926Y-62434531D01*
X109710000Y-61389605D01*
X108665074Y-62434531D01*
X108452000Y-62434531D01*
X108452000Y-62241542D01*
X108485469Y-62254926D01*
X109530395Y-61210000D01*
X109889605Y-61210000D01*
X110934531Y-62254926D01*
X111211714Y-62144079D01*
X111365089Y-61833160D01*
X111454860Y-61498295D01*
X111470004Y-61267650D01*
X113022424Y-61267650D01*
X113067634Y-61611380D01*
X113179034Y-61939685D01*
X113288286Y-62144079D01*
X113565469Y-62254926D01*
X114610395Y-61210000D01*
X114969605Y-61210000D01*
X116014531Y-62254926D01*
X116291714Y-62144079D01*
X116445089Y-61833160D01*
X116534860Y-61498295D01*
X116557576Y-61152350D01*
X116512366Y-60808620D01*
X116400966Y-60480315D01*
X116291714Y-60275921D01*
X116014531Y-60165074D01*
X114969605Y-61210000D01*
X114610395Y-61210000D01*
X113565469Y-60165074D01*
X113288286Y-60275921D01*
X113134911Y-60586840D01*
X113045140Y-60921705D01*
X113022424Y-61267650D01*
X111470004Y-61267650D01*
X111477576Y-61152350D01*
X111432366Y-60808620D01*
X111320966Y-60480315D01*
X111211714Y-60275921D01*
X110934531Y-60165074D01*
X109889605Y-61210000D01*
X109530395Y-61210000D01*
X108485469Y-60165074D01*
X108452000Y-60178458D01*
X108452000Y-59985469D01*
X108665074Y-59985469D01*
X109710000Y-61030395D01*
X110754926Y-59985469D01*
X113745074Y-59985469D01*
X114790000Y-61030395D01*
X115834926Y-59985469D01*
X115724079Y-59708286D01*
X115413160Y-59554911D01*
X115078295Y-59465140D01*
X114732350Y-59442424D01*
X114388620Y-59487634D01*
X114060315Y-59599034D01*
X113855921Y-59708286D01*
X113745074Y-59985469D01*
X110754926Y-59985469D01*
X110644079Y-59708286D01*
X110333160Y-59554911D01*
X109998295Y-59465140D01*
X109652350Y-59442424D01*
X109308620Y-59487634D01*
X108980315Y-59599034D01*
X108775921Y-59708286D01*
X108665074Y-59985469D01*
X108452000Y-59985469D01*
X108452000Y-49226489D01*
X108473000Y-49226489D01*
X108473000Y-49773511D01*
X108579718Y-50310021D01*
X108789054Y-50815403D01*
X109092963Y-51270234D01*
X109479766Y-51657037D01*
X109934597Y-51960946D01*
X110439979Y-52170282D01*
X110976489Y-52277000D01*
X111523511Y-52277000D01*
X112060021Y-52170282D01*
X112565403Y-51960946D01*
X113020234Y-51657037D01*
X113407037Y-51270234D01*
X113710946Y-50815403D01*
X113920282Y-50310021D01*
X114027000Y-49773511D01*
X114027000Y-49226489D01*
X113920282Y-48689979D01*
X113710946Y-48184597D01*
X113407037Y-47729766D01*
X113020234Y-47342963D01*
X112565403Y-47039054D01*
X112060021Y-46829718D01*
X111523511Y-46723000D01*
X110976489Y-46723000D01*
X110439979Y-46829718D01*
X109934597Y-47039054D01*
X109479766Y-47342963D01*
X109092963Y-47729766D01*
X108789054Y-48184597D01*
X108579718Y-48689979D01*
X108473000Y-49226489D01*
X108452000Y-49226489D01*
X108452000Y-47800389D01*
X108453158Y-47793190D01*
X108453694Y-47783404D01*
X108469050Y-47462269D01*
X108529908Y-47217041D01*
X108637239Y-46988305D01*
X108786956Y-46784771D01*
X108973359Y-46614189D01*
X109189337Y-46483067D01*
X109426672Y-46396391D01*
X109700501Y-46353694D01*
X109762848Y-46351919D01*
X109835833Y-46351334D01*
X109848238Y-46350127D01*
X109903817Y-46347487D01*
X110787859Y-46254272D01*
X110809532Y-46250012D01*
X110831550Y-46248272D01*
X110910324Y-46230203D01*
X111763886Y-45981911D01*
X111784461Y-45973881D01*
X111805824Y-45968269D01*
X111880154Y-45936536D01*
X112676258Y-45541015D01*
X112695085Y-45529469D01*
X112715118Y-45520162D01*
X112782653Y-45475767D01*
X113496135Y-44945519D01*
X113512619Y-44930822D01*
X113530687Y-44918115D01*
X113589293Y-44862462D01*
X114197600Y-44214248D01*
X114211217Y-44196870D01*
X114226754Y-44181159D01*
X114274578Y-44116007D01*
X114758483Y-43370315D01*
X114768809Y-43350796D01*
X114781316Y-43332586D01*
X114816848Y-43259995D01*
X115161054Y-42440396D01*
X115167761Y-42419355D01*
X115176845Y-42399219D01*
X115198960Y-42321484D01*
X115392587Y-41453885D01*
X115408836Y-41330140D01*
X115408099Y-41314617D01*
X115447738Y-40842142D01*
X115571598Y-40410072D01*
X115777017Y-40010296D01*
X116056177Y-39658031D01*
X116398440Y-39366699D01*
X116790771Y-39147394D01*
X117218229Y-39008469D01*
X117691493Y-38952000D01*
X144715662Y-38952000D01*
X145195701Y-38999069D01*
X145195701Y-38999069D01*
G37*
X145195701Y-38999069D02*
X145624415Y-39128505D01*
X146019831Y-39338751D01*
X146366878Y-39621796D01*
X146652337Y-39966857D01*
X146865338Y-40360794D01*
X146997767Y-40788601D01*
X147048000Y-41266536D01*
X147048001Y-49734480D01*
X147050519Y-49760043D01*
X147103523Y-50481828D01*
X147106201Y-50498183D01*
X147106722Y-50514751D01*
X147121034Y-50594294D01*
X147328554Y-51458676D01*
X147335599Y-51479609D01*
X147340191Y-51501214D01*
X147368363Y-51576965D01*
X147725672Y-52390935D01*
X147736310Y-52410284D01*
X147744657Y-52430740D01*
X147785798Y-52500305D01*
X148281601Y-53238139D01*
X148295501Y-53255304D01*
X148307336Y-53273953D01*
X148360146Y-53335133D01*
X148978773Y-53973506D01*
X148995490Y-53987936D01*
X149010442Y-54004196D01*
X149073251Y-54055058D01*
X149795147Y-54573793D01*
X149814157Y-54585035D01*
X149831751Y-54598390D01*
X149902574Y-54637325D01*
X150704921Y-55020025D01*
X150725624Y-55027724D01*
X150745302Y-55037751D01*
X150821901Y-55063529D01*
X151679337Y-55298097D01*
X151701068Y-55302007D01*
X151722219Y-55308393D01*
X151802172Y-55320199D01*
X152687596Y-55399221D01*
X152712795Y-55399221D01*
X153001952Y-55427573D01*
X153244299Y-55500741D01*
X153467820Y-55619591D01*
X153664006Y-55779595D01*
X153825369Y-55974651D01*
X153945776Y-56197339D01*
X154020638Y-56439179D01*
X154049658Y-56715284D01*
X154048754Y-56757373D01*
X154048065Y-56764239D01*
X153999061Y-83615029D01*
X153971914Y-83891892D01*
X153901671Y-84124550D01*
X153787572Y-84339140D01*
X153633969Y-84527476D01*
X153446703Y-84682396D01*
X153232917Y-84797988D01*
X152997601Y-84870831D01*
X152767556Y-84897181D01*
X152520712Y-84892053D01*
X152519477Y-84892137D01*
X152518245Y-84892006D01*
X152437491Y-84895266D01*
X151560539Y-84981426D01*
X151538840Y-84985530D01*
X151516808Y-84987114D01*
X151437907Y-85004622D01*
X150590071Y-85244715D01*
X150569434Y-85252600D01*
X150548036Y-85258059D01*
X150473483Y-85289262D01*
X149681564Y-85675700D01*
X149662656Y-85687111D01*
X149642558Y-85696275D01*
X149574709Y-85740188D01*
X148863738Y-86260754D01*
X148847149Y-86275334D01*
X148828991Y-86287912D01*
X148769990Y-86343146D01*
X148162439Y-86981388D01*
X148148696Y-86998673D01*
X148133051Y-87014269D01*
X148084764Y-87079078D01*
X147599839Y-87814821D01*
X147589373Y-87834268D01*
X147576738Y-87852387D01*
X147540691Y-87924722D01*
X147193718Y-88734711D01*
X147186863Y-88755698D01*
X147177634Y-88775773D01*
X147154966Y-88853349D01*
X146956913Y-89711978D01*
X146953882Y-89733853D01*
X146948355Y-89755241D01*
X146939783Y-89835605D01*
X146898406Y-90685048D01*
X146843040Y-91089134D01*
X146722643Y-91438755D01*
X146536633Y-91758330D01*
X146292092Y-92035688D01*
X145998335Y-92260268D01*
X145666556Y-92423510D01*
X145304001Y-92520644D01*
X144971201Y-92548000D01*
X117784337Y-92548000D01*
X117304299Y-92500931D01*
X116875584Y-92371495D01*
X116480169Y-92161249D01*
X116133122Y-91878204D01*
X115847664Y-91533145D01*
X115634661Y-91139204D01*
X115502233Y-90711399D01*
X115452000Y-90233463D01*
X115452000Y-81715520D01*
X115449478Y-81689917D01*
X115396477Y-80968172D01*
X115393799Y-80951817D01*
X115393278Y-80935249D01*
X115378966Y-80855707D01*
X115171446Y-79991324D01*
X115164401Y-79970391D01*
X115159809Y-79948786D01*
X115131637Y-79873035D01*
X114774328Y-79059064D01*
X114763689Y-79039712D01*
X114755343Y-79019260D01*
X114714202Y-78949695D01*
X114218399Y-78211861D01*
X114204499Y-78194696D01*
X114192664Y-78176047D01*
X114139855Y-78114867D01*
X113521227Y-77476494D01*
X113504510Y-77462064D01*
X113489558Y-77445804D01*
X113426749Y-77394942D01*
X112704853Y-76876207D01*
X112685843Y-76864965D01*
X112668249Y-76851610D01*
X112597426Y-76812675D01*
X111795079Y-76429975D01*
X111774373Y-76422275D01*
X111754697Y-76412249D01*
X111678099Y-76386471D01*
X110820663Y-76151903D01*
X110798932Y-76147993D01*
X110777781Y-76141607D01*
X110697828Y-76129801D01*
X109815484Y-76051054D01*
X109804735Y-76050000D01*
X128023000Y-76050000D01*
X128023000Y-82450000D01*
X128025440Y-82474776D01*
X128032667Y-82498601D01*
X128044403Y-82520557D01*
X128060197Y-82539803D01*
X128079443Y-82555597D01*
X128101399Y-82567333D01*
X128125224Y-82574560D01*
X128150000Y-82577000D01*
X134350000Y-82577000D01*
X134374776Y-82574560D01*
X134398601Y-82567333D01*
X134420557Y-82555597D01*
X134439803Y-82539803D01*
X134455597Y-82520557D01*
X134467333Y-82498601D01*
X134474560Y-82474776D01*
X134477000Y-82450000D01*
X134477000Y-81376489D01*
X148423000Y-81376489D01*
X148423000Y-81923511D01*
X148529718Y-82460021D01*
X148739054Y-82965403D01*
X149042963Y-83420234D01*
X149429766Y-83807037D01*
X149884597Y-84110946D01*
X150389979Y-84320282D01*
X150926489Y-84427000D01*
X151473511Y-84427000D01*
X152010021Y-84320282D01*
X152515403Y-84110946D01*
X152970234Y-83807037D01*
X153357037Y-83420234D01*
X153660946Y-82965403D01*
X153870282Y-82460021D01*
X153977000Y-81923511D01*
X153977000Y-81376489D01*
X153870282Y-80839979D01*
X153660946Y-80334597D01*
X153357037Y-79879766D01*
X152970234Y-79492963D01*
X152515403Y-79189054D01*
X152010021Y-78979718D01*
X151473511Y-78873000D01*
X150926489Y-78873000D01*
X150389979Y-78979718D01*
X149884597Y-79189054D01*
X149429766Y-79492963D01*
X149042963Y-79879766D01*
X148739054Y-80334597D01*
X148529718Y-80839979D01*
X148423000Y-81376489D01*
X134477000Y-81376489D01*
X134477000Y-76050000D01*
X134474560Y-76025224D01*
X134467333Y-76001399D01*
X134455597Y-75979443D01*
X134439803Y-75960197D01*
X134420557Y-75944403D01*
X134398601Y-75932667D01*
X134374776Y-75925440D01*
X134350000Y-75923000D01*
X128150000Y-75923000D01*
X128125224Y-75925440D01*
X128101399Y-75932667D01*
X128079443Y-75944403D01*
X128060197Y-75960197D01*
X128044403Y-75979443D01*
X128032667Y-76001399D01*
X128025440Y-76025224D01*
X128023000Y-76050000D01*
X109804735Y-76050000D01*
X109498536Y-76019977D01*
X109256654Y-75946949D01*
X109033562Y-75828328D01*
X108837756Y-75668632D01*
X108676701Y-75473950D01*
X108556524Y-75251686D01*
X108481809Y-75010323D01*
X108452000Y-74726710D01*
X108452000Y-69742702D01*
X119236903Y-69742702D01*
X119308486Y-69986671D01*
X119563996Y-70107571D01*
X119838184Y-70176300D01*
X120120512Y-70190217D01*
X120400130Y-70148787D01*
X120666292Y-70053603D01*
X120791514Y-69986671D01*
X120799721Y-69958699D01*
X124023000Y-69958699D01*
X124023000Y-70141301D01*
X124058624Y-70320396D01*
X124128504Y-70489099D01*
X124229952Y-70640928D01*
X124359072Y-70770048D01*
X124510901Y-70871496D01*
X124679604Y-70941376D01*
X124858699Y-70977000D01*
X125041301Y-70977000D01*
X125220396Y-70941376D01*
X125389099Y-70871496D01*
X125540928Y-70770048D01*
X125670048Y-70640928D01*
X125771496Y-70489099D01*
X125785872Y-70454393D01*
X125813265Y-70427000D01*
X126544898Y-70427000D01*
X126579604Y-70441376D01*
X126758699Y-70477000D01*
X126941301Y-70477000D01*
X127120396Y-70441376D01*
X127289099Y-70371496D01*
X127440928Y-70270048D01*
X127570048Y-70140928D01*
X127671496Y-69989099D01*
X127741376Y-69820396D01*
X127777000Y-69641301D01*
X127777000Y-69458699D01*
X127741376Y-69279604D01*
X127732710Y-69258681D01*
X140623000Y-69258681D01*
X140623000Y-69441283D01*
X140658624Y-69620378D01*
X140728504Y-69789081D01*
X140829952Y-69940910D01*
X140959072Y-70070030D01*
X141110901Y-70171478D01*
X141279604Y-70241358D01*
X141442163Y-70273693D01*
X141544165Y-70357403D01*
X141650630Y-70414310D01*
X141670461Y-70424910D01*
X141807500Y-70466480D01*
X141950018Y-70480517D01*
X141985726Y-70477000D01*
X147169476Y-70477000D01*
X147310901Y-70571496D01*
X147479604Y-70641376D01*
X147658699Y-70677000D01*
X147841301Y-70677000D01*
X148020396Y-70641376D01*
X148189099Y-70571496D01*
X148340928Y-70470048D01*
X148470048Y-70340928D01*
X148571496Y-70189099D01*
X148641376Y-70020396D01*
X148677000Y-69841301D01*
X148677000Y-69658699D01*
X148641376Y-69479604D01*
X148571496Y-69310901D01*
X148557531Y-69290000D01*
X149765854Y-69290000D01*
X149794371Y-69579543D01*
X149878828Y-69857958D01*
X150015978Y-70114547D01*
X150200550Y-70339450D01*
X150425453Y-70524022D01*
X150682042Y-70661172D01*
X150960457Y-70745629D01*
X151177444Y-70767000D01*
X151322556Y-70767000D01*
X151539543Y-70745629D01*
X151817958Y-70661172D01*
X152074547Y-70524022D01*
X152299450Y-70339450D01*
X152484022Y-70114547D01*
X152621172Y-69857958D01*
X152705629Y-69579543D01*
X152734146Y-69290000D01*
X152705629Y-69000457D01*
X152621172Y-68722042D01*
X152484022Y-68465453D01*
X152299450Y-68240550D01*
X152074547Y-68055978D01*
X152006451Y-68019580D01*
X152131355Y-67945178D01*
X152347588Y-67750269D01*
X152521641Y-67516920D01*
X152646825Y-67254099D01*
X152691476Y-67106890D01*
X152570155Y-66877000D01*
X151377000Y-66877000D01*
X151377000Y-66897000D01*
X151123000Y-66897000D01*
X151123000Y-66877000D01*
X149929845Y-66877000D01*
X149808524Y-67106890D01*
X149853175Y-67254099D01*
X149978359Y-67516920D01*
X150152412Y-67750269D01*
X150368645Y-67945178D01*
X150493549Y-68019580D01*
X150425453Y-68055978D01*
X150200550Y-68240550D01*
X150015978Y-68465453D01*
X149878828Y-68722042D01*
X149794371Y-69000457D01*
X149765854Y-69290000D01*
X148557531Y-69290000D01*
X148470048Y-69159072D01*
X148340928Y-69029952D01*
X148189099Y-68928504D01*
X148020396Y-68858624D01*
X147841301Y-68823000D01*
X147658699Y-68823000D01*
X147479604Y-68858624D01*
X147310901Y-68928504D01*
X147169476Y-69023000D01*
X142417937Y-69023000D01*
X142371496Y-68910883D01*
X142270048Y-68759054D01*
X142140928Y-68629934D01*
X141989099Y-68528486D01*
X141820396Y-68458606D01*
X141641301Y-68422982D01*
X141458699Y-68422982D01*
X141279604Y-68458606D01*
X141110901Y-68528486D01*
X140959072Y-68629934D01*
X140829952Y-68759054D01*
X140728504Y-68910883D01*
X140658624Y-69079586D01*
X140623000Y-69258681D01*
X127732710Y-69258681D01*
X127671496Y-69110901D01*
X127570048Y-68959072D01*
X127440928Y-68829952D01*
X127289099Y-68728504D01*
X127120396Y-68658624D01*
X126941301Y-68623000D01*
X126758699Y-68623000D01*
X126579604Y-68658624D01*
X126544898Y-68673000D01*
X125493079Y-68673000D01*
X125450000Y-68668757D01*
X125278077Y-68685690D01*
X125158242Y-68722042D01*
X125112763Y-68735838D01*
X124960408Y-68817273D01*
X124826867Y-68926867D01*
X124799403Y-68960332D01*
X124545607Y-69214128D01*
X124510901Y-69228504D01*
X124359072Y-69329952D01*
X124229952Y-69459072D01*
X124128504Y-69610901D01*
X124058624Y-69779604D01*
X124023000Y-69958699D01*
X120799721Y-69958699D01*
X120863097Y-69742702D01*
X120050000Y-68929605D01*
X119236903Y-69742702D01*
X108452000Y-69742702D01*
X108452000Y-68820512D01*
X118609783Y-68820512D01*
X118651213Y-69100130D01*
X118746397Y-69366292D01*
X118813329Y-69491514D01*
X119057298Y-69563097D01*
X119870395Y-68750000D01*
X120229605Y-68750000D01*
X121042702Y-69563097D01*
X121286671Y-69491514D01*
X121407571Y-69236004D01*
X121476300Y-68961816D01*
X121490217Y-68679488D01*
X121448787Y-68399870D01*
X121353603Y-68133708D01*
X121286671Y-68008486D01*
X121042702Y-67936903D01*
X120229605Y-68750000D01*
X119870395Y-68750000D01*
X119057298Y-67936903D01*
X118813329Y-68008486D01*
X118692429Y-68263996D01*
X118623700Y-68538184D01*
X118609783Y-68820512D01*
X108452000Y-68820512D01*
X108452000Y-67514531D01*
X108665074Y-67514531D01*
X108775921Y-67791714D01*
X109086840Y-67945089D01*
X109421705Y-68034860D01*
X109767650Y-68057576D01*
X110111380Y-68012366D01*
X110439685Y-67900966D01*
X110644079Y-67791714D01*
X110754926Y-67514531D01*
X113745074Y-67514531D01*
X113855921Y-67791714D01*
X114166840Y-67945089D01*
X114501705Y-68034860D01*
X114847650Y-68057576D01*
X115191380Y-68012366D01*
X115519685Y-67900966D01*
X115724079Y-67791714D01*
X115737842Y-67757298D01*
X119236903Y-67757298D01*
X120050000Y-68570395D01*
X120863097Y-67757298D01*
X120791514Y-67513329D01*
X120536004Y-67392429D01*
X120261816Y-67323700D01*
X119979488Y-67309783D01*
X119699870Y-67351213D01*
X119433708Y-67446397D01*
X119308486Y-67513329D01*
X119236903Y-67757298D01*
X115737842Y-67757298D01*
X115834926Y-67514531D01*
X114790000Y-66469605D01*
X113745074Y-67514531D01*
X110754926Y-67514531D01*
X109710000Y-66469605D01*
X108665074Y-67514531D01*
X108452000Y-67514531D01*
X108452000Y-67321542D01*
X108485469Y-67334926D01*
X109530395Y-66290000D01*
X109889605Y-66290000D01*
X110934531Y-67334926D01*
X111211714Y-67224079D01*
X111365089Y-66913160D01*
X111454860Y-66578295D01*
X111470004Y-66347650D01*
X113022424Y-66347650D01*
X113067634Y-66691380D01*
X113179034Y-67019685D01*
X113288286Y-67224079D01*
X113565469Y-67334926D01*
X114610395Y-66290000D01*
X114969605Y-66290000D01*
X116014531Y-67334926D01*
X116291714Y-67224079D01*
X116445089Y-66913160D01*
X116534860Y-66578295D01*
X116557576Y-66232350D01*
X116512366Y-65888620D01*
X116400966Y-65560315D01*
X116291714Y-65355921D01*
X116014531Y-65245074D01*
X114969605Y-66290000D01*
X114610395Y-66290000D01*
X113565469Y-65245074D01*
X113288286Y-65355921D01*
X113134911Y-65666840D01*
X113045140Y-66001705D01*
X113022424Y-66347650D01*
X111470004Y-66347650D01*
X111477576Y-66232350D01*
X111432366Y-65888620D01*
X111320966Y-65560315D01*
X111211714Y-65355921D01*
X110934531Y-65245074D01*
X109889605Y-66290000D01*
X109530395Y-66290000D01*
X108485469Y-65245074D01*
X108452000Y-65258458D01*
X108452000Y-65065469D01*
X108665074Y-65065469D01*
X109710000Y-66110395D01*
X110754926Y-65065469D01*
X110644079Y-64788286D01*
X110333160Y-64634911D01*
X109998295Y-64545140D01*
X109652350Y-64522424D01*
X109308620Y-64567634D01*
X108980315Y-64679034D01*
X108775921Y-64788286D01*
X108665074Y-65065469D01*
X108452000Y-65065469D01*
X108452000Y-63577443D01*
X110498000Y-63577443D01*
X110498000Y-63922557D01*
X110565329Y-64261039D01*
X110697398Y-64579883D01*
X110889133Y-64866835D01*
X111133165Y-65110867D01*
X111420117Y-65302602D01*
X111738961Y-65434671D01*
X112077443Y-65502000D01*
X112422557Y-65502000D01*
X112761039Y-65434671D01*
X113079883Y-65302602D01*
X113366835Y-65110867D01*
X113412233Y-65065469D01*
X113745074Y-65065469D01*
X114790000Y-66110395D01*
X115834926Y-65065469D01*
X115724079Y-64788286D01*
X115413160Y-64634911D01*
X115078295Y-64545140D01*
X114732350Y-64522424D01*
X114388620Y-64567634D01*
X114060315Y-64679034D01*
X113855921Y-64788286D01*
X113745074Y-65065469D01*
X113412233Y-65065469D01*
X113610867Y-64866835D01*
X113802602Y-64579883D01*
X113934671Y-64261039D01*
X114002000Y-63922557D01*
X114002000Y-63609453D01*
X118623000Y-63609453D01*
X118623000Y-63890547D01*
X118677838Y-64166241D01*
X118785409Y-64425938D01*
X118941576Y-64659660D01*
X119140340Y-64858424D01*
X119374062Y-65014591D01*
X119633759Y-65122162D01*
X119909453Y-65177000D01*
X120190547Y-65177000D01*
X120466241Y-65122162D01*
X120725938Y-65014591D01*
X120959660Y-64858424D01*
X121158424Y-64659660D01*
X121314591Y-64425938D01*
X121422162Y-64166241D01*
X121477000Y-63890547D01*
X121477000Y-63609453D01*
X121427382Y-63360000D01*
X149769967Y-63360000D01*
X149769967Y-65060000D01*
X149782073Y-65182913D01*
X149817925Y-65301103D01*
X149876147Y-65410028D01*
X149954499Y-65505501D01*
X150049972Y-65583853D01*
X150158897Y-65642075D01*
X150243406Y-65667710D01*
X150152412Y-65749731D01*
X149978359Y-65983080D01*
X149853175Y-66245901D01*
X149808524Y-66393110D01*
X149929845Y-66623000D01*
X151123000Y-66623000D01*
X151123000Y-66603000D01*
X151377000Y-66603000D01*
X151377000Y-66623000D01*
X152570155Y-66623000D01*
X152691476Y-66393110D01*
X152646825Y-66245901D01*
X152521641Y-65983080D01*
X152347588Y-65749731D01*
X152256594Y-65667710D01*
X152341103Y-65642075D01*
X152450028Y-65583853D01*
X152545501Y-65505501D01*
X152623853Y-65410028D01*
X152682075Y-65301103D01*
X152717927Y-65182913D01*
X152730033Y-65060000D01*
X152730033Y-63360000D01*
X152717927Y-63237087D01*
X152682075Y-63118897D01*
X152623853Y-63009972D01*
X152545501Y-62914499D01*
X152450028Y-62836147D01*
X152341103Y-62777925D01*
X152222913Y-62742073D01*
X152100000Y-62729967D01*
X150400000Y-62729967D01*
X150277087Y-62742073D01*
X150158897Y-62777925D01*
X150049972Y-62836147D01*
X149954499Y-62914499D01*
X149876147Y-63009972D01*
X149817925Y-63118897D01*
X149782073Y-63237087D01*
X149769967Y-63360000D01*
X121427382Y-63360000D01*
X121422162Y-63333759D01*
X121314591Y-63074062D01*
X121158424Y-62840340D01*
X120959660Y-62641576D01*
X120725938Y-62485409D01*
X120466241Y-62377838D01*
X120190547Y-62323000D01*
X119909453Y-62323000D01*
X119633759Y-62377838D01*
X119374062Y-62485409D01*
X119140340Y-62641576D01*
X118941576Y-62840340D01*
X118785409Y-63074062D01*
X118677838Y-63333759D01*
X118623000Y-63609453D01*
X114002000Y-63609453D01*
X114002000Y-63577443D01*
X113934671Y-63238961D01*
X113802602Y-62920117D01*
X113610867Y-62633165D01*
X113412233Y-62434531D01*
X113745074Y-62434531D01*
X113855921Y-62711714D01*
X114166840Y-62865089D01*
X114501705Y-62954860D01*
X114847650Y-62977576D01*
X115191380Y-62932366D01*
X115519685Y-62820966D01*
X115724079Y-62711714D01*
X115834926Y-62434531D01*
X114790000Y-61389605D01*
X113745074Y-62434531D01*
X113412233Y-62434531D01*
X113366835Y-62389133D01*
X113079883Y-62197398D01*
X112761039Y-62065329D01*
X112422557Y-61998000D01*
X112077443Y-61998000D01*
X111738961Y-62065329D01*
X111420117Y-62197398D01*
X111133165Y-62389133D01*
X110889133Y-62633165D01*
X110697398Y-62920117D01*
X110565329Y-63238961D01*
X110498000Y-63577443D01*
X108452000Y-63577443D01*
X108452000Y-62434531D01*
X108665074Y-62434531D01*
X108775921Y-62711714D01*
X109086840Y-62865089D01*
X109421705Y-62954860D01*
X109767650Y-62977576D01*
X110111380Y-62932366D01*
X110439685Y-62820966D01*
X110644079Y-62711714D01*
X110754926Y-62434531D01*
X109710000Y-61389605D01*
X108665074Y-62434531D01*
X108452000Y-62434531D01*
X108452000Y-62241542D01*
X108485469Y-62254926D01*
X109530395Y-61210000D01*
X109889605Y-61210000D01*
X110934531Y-62254926D01*
X111211714Y-62144079D01*
X111365089Y-61833160D01*
X111454860Y-61498295D01*
X111470004Y-61267650D01*
X113022424Y-61267650D01*
X113067634Y-61611380D01*
X113179034Y-61939685D01*
X113288286Y-62144079D01*
X113565469Y-62254926D01*
X114610395Y-61210000D01*
X114969605Y-61210000D01*
X116014531Y-62254926D01*
X116291714Y-62144079D01*
X116445089Y-61833160D01*
X116534860Y-61498295D01*
X116557576Y-61152350D01*
X116512366Y-60808620D01*
X116400966Y-60480315D01*
X116291714Y-60275921D01*
X116014531Y-60165074D01*
X114969605Y-61210000D01*
X114610395Y-61210000D01*
X113565469Y-60165074D01*
X113288286Y-60275921D01*
X113134911Y-60586840D01*
X113045140Y-60921705D01*
X113022424Y-61267650D01*
X111470004Y-61267650D01*
X111477576Y-61152350D01*
X111432366Y-60808620D01*
X111320966Y-60480315D01*
X111211714Y-60275921D01*
X110934531Y-60165074D01*
X109889605Y-61210000D01*
X109530395Y-61210000D01*
X108485469Y-60165074D01*
X108452000Y-60178458D01*
X108452000Y-59985469D01*
X108665074Y-59985469D01*
X109710000Y-61030395D01*
X110754926Y-59985469D01*
X113745074Y-59985469D01*
X114790000Y-61030395D01*
X115834926Y-59985469D01*
X115724079Y-59708286D01*
X115413160Y-59554911D01*
X115078295Y-59465140D01*
X114732350Y-59442424D01*
X114388620Y-59487634D01*
X114060315Y-59599034D01*
X113855921Y-59708286D01*
X113745074Y-59985469D01*
X110754926Y-59985469D01*
X110644079Y-59708286D01*
X110333160Y-59554911D01*
X109998295Y-59465140D01*
X109652350Y-59442424D01*
X109308620Y-59487634D01*
X108980315Y-59599034D01*
X108775921Y-59708286D01*
X108665074Y-59985469D01*
X108452000Y-59985469D01*
X108452000Y-49226489D01*
X108473000Y-49226489D01*
X108473000Y-49773511D01*
X108579718Y-50310021D01*
X108789054Y-50815403D01*
X109092963Y-51270234D01*
X109479766Y-51657037D01*
X109934597Y-51960946D01*
X110439979Y-52170282D01*
X110976489Y-52277000D01*
X111523511Y-52277000D01*
X112060021Y-52170282D01*
X112565403Y-51960946D01*
X113020234Y-51657037D01*
X113407037Y-51270234D01*
X113710946Y-50815403D01*
X113920282Y-50310021D01*
X114027000Y-49773511D01*
X114027000Y-49226489D01*
X113920282Y-48689979D01*
X113710946Y-48184597D01*
X113407037Y-47729766D01*
X113020234Y-47342963D01*
X112565403Y-47039054D01*
X112060021Y-46829718D01*
X111523511Y-46723000D01*
X110976489Y-46723000D01*
X110439979Y-46829718D01*
X109934597Y-47039054D01*
X109479766Y-47342963D01*
X109092963Y-47729766D01*
X108789054Y-48184597D01*
X108579718Y-48689979D01*
X108473000Y-49226489D01*
X108452000Y-49226489D01*
X108452000Y-47800389D01*
X108453158Y-47793190D01*
X108453694Y-47783404D01*
X108469050Y-47462269D01*
X108529908Y-47217041D01*
X108637239Y-46988305D01*
X108786956Y-46784771D01*
X108973359Y-46614189D01*
X109189337Y-46483067D01*
X109426672Y-46396391D01*
X109700501Y-46353694D01*
X109762848Y-46351919D01*
X109835833Y-46351334D01*
X109848238Y-46350127D01*
X109903817Y-46347487D01*
X110787859Y-46254272D01*
X110809532Y-46250012D01*
X110831550Y-46248272D01*
X110910324Y-46230203D01*
X111763886Y-45981911D01*
X111784461Y-45973881D01*
X111805824Y-45968269D01*
X111880154Y-45936536D01*
X112676258Y-45541015D01*
X112695085Y-45529469D01*
X112715118Y-45520162D01*
X112782653Y-45475767D01*
X113496135Y-44945519D01*
X113512619Y-44930822D01*
X113530687Y-44918115D01*
X113589293Y-44862462D01*
X114197600Y-44214248D01*
X114211217Y-44196870D01*
X114226754Y-44181159D01*
X114274578Y-44116007D01*
X114758483Y-43370315D01*
X114768809Y-43350796D01*
X114781316Y-43332586D01*
X114816848Y-43259995D01*
X115161054Y-42440396D01*
X115167761Y-42419355D01*
X115176845Y-42399219D01*
X115198960Y-42321484D01*
X115392587Y-41453885D01*
X115408836Y-41330140D01*
X115408099Y-41314617D01*
X115447738Y-40842142D01*
X115571598Y-40410072D01*
X115777017Y-40010296D01*
X116056177Y-39658031D01*
X116398440Y-39366699D01*
X116790771Y-39147394D01*
X117218229Y-39008469D01*
X117691493Y-38952000D01*
X144715662Y-38952000D01*
X145195701Y-38999069D01*
M02*
