G04 #@! TF.GenerationSoftware,KiCad,Pcbnew,(6.0.7)*
G04 #@! TF.CreationDate,2022-11-17T14:55:24+01:00*
G04 #@! TF.ProjectId,SFH203_photodetector,53464832-3033-45f7-9068-6f746f646574,1.6*
G04 #@! TF.SameCoordinates,Original*
G04 #@! TF.FileFunction,Copper,L2,Bot*
G04 #@! TF.FilePolarity,Positive*
%FSLAX46Y46*%
G04 Gerber Fmt 4.6, Leading zero omitted, Abs format (unit mm)*
G04 Created by KiCad (PCBNEW (6.0.7)) date 2022-11-17 14:55:24*
%MOMM*%
%LPD*%
G01*
G04 APERTURE LIST*
G04 #@! TA.AperFunction,ComponentPad*
%ADD10C,1.600000*%
G04 #@! TD*
G04 #@! TA.AperFunction,ComponentPad*
%ADD11R,1.700000X1.700000*%
G04 #@! TD*
G04 #@! TA.AperFunction,ComponentPad*
%ADD12O,1.700000X1.700000*%
G04 #@! TD*
G04 #@! TA.AperFunction,ComponentPad*
%ADD13C,2.250000*%
G04 #@! TD*
G04 #@! TA.AperFunction,ComponentPad*
%ADD14C,1.300000*%
G04 #@! TD*
G04 #@! TA.AperFunction,ComponentPad*
%ADD15C,1.100000*%
G04 #@! TD*
G04 #@! TA.AperFunction,ViaPad*
%ADD16C,0.600000*%
G04 #@! TD*
G04 #@! TA.AperFunction,Conductor*
%ADD17C,0.500000*%
G04 #@! TD*
G04 #@! TA.AperFunction,Conductor*
%ADD18C,0.200000*%
G04 #@! TD*
G04 #@! TA.AperFunction,Conductor*
%ADD19C,0.250000*%
G04 #@! TD*
G04 APERTURE END LIST*
D10*
X120050000Y-63750000D03*
X120050000Y-58750000D03*
D11*
X151250000Y-64210000D03*
D12*
X151250000Y-66750000D03*
X151250000Y-69290000D03*
D13*
X112250000Y-63750000D03*
X114790000Y-61210000D03*
X114790000Y-66290000D03*
X109710000Y-66290000D03*
X109710000Y-61210000D03*
D14*
X129790000Y-79250000D03*
D15*
X132350000Y-79250000D03*
D16*
X130250000Y-67050000D03*
X123350000Y-65450000D03*
X141550000Y-59150000D03*
X144050000Y-66350000D03*
X148150000Y-74550000D03*
X130450000Y-74550000D03*
X136550000Y-67750000D03*
X142650000Y-74450000D03*
X125850000Y-71528400D03*
X144550000Y-59150000D03*
X134550000Y-67050000D03*
X139050000Y-65550000D03*
X141550000Y-69349982D03*
X147750000Y-69750000D03*
X136450000Y-64550000D03*
X134750000Y-64550000D03*
D17*
X134550000Y-67050000D02*
X135150000Y-67050000D01*
X135150000Y-67050000D02*
X135850000Y-66350000D01*
X135850000Y-66350000D02*
X138250000Y-66350000D01*
X138250000Y-66350000D02*
X139050000Y-65550000D01*
D18*
X141950018Y-69750000D02*
X141550000Y-69349982D01*
X147750000Y-69750000D02*
X141950018Y-69750000D01*
D19*
X134750000Y-64550000D02*
X136450000Y-64550000D01*
G04 #@! TA.AperFunction,Conductor*
G36*
X144720643Y-38752000D02*
G01*
X144734950Y-38754228D01*
X144734953Y-38754228D01*
X144743823Y-38755609D01*
X144752724Y-38754445D01*
X144752730Y-38754445D01*
X144760558Y-38753421D01*
X144784503Y-38752587D01*
X145043674Y-38768264D01*
X145058778Y-38770098D01*
X145340672Y-38821757D01*
X145355445Y-38825398D01*
X145629066Y-38910662D01*
X145643284Y-38916054D01*
X145682551Y-38933727D01*
X145904624Y-39033674D01*
X145918097Y-39040745D01*
X146163358Y-39189011D01*
X146175879Y-39197654D01*
X146401476Y-39374397D01*
X146412865Y-39384487D01*
X146615513Y-39587135D01*
X146625603Y-39598524D01*
X146802346Y-39824121D01*
X146810989Y-39836642D01*
X146959255Y-40081903D01*
X146966325Y-40095374D01*
X146984473Y-40135696D01*
X147083944Y-40356712D01*
X147089340Y-40370939D01*
X147174602Y-40644555D01*
X147178243Y-40659328D01*
X147229902Y-40941223D01*
X147231736Y-40956327D01*
X147246981Y-41208356D01*
X147245787Y-41233726D01*
X147245772Y-41234952D01*
X147244391Y-41243823D01*
X147245555Y-41252725D01*
X147245555Y-41252728D01*
X147248436Y-41274756D01*
X147249500Y-41291093D01*
X147249500Y-49651259D01*
X147248000Y-49670643D01*
X147244391Y-49693823D01*
X147245199Y-49700000D01*
X147244797Y-49700000D01*
X147263600Y-50154616D01*
X147319881Y-50606127D01*
X147413255Y-51051447D01*
X147414002Y-51053956D01*
X147539603Y-51475842D01*
X147543084Y-51487536D01*
X147544028Y-51489955D01*
X147544031Y-51489964D01*
X147707532Y-51908981D01*
X147708482Y-51911415D01*
X147709628Y-51913759D01*
X147907170Y-52317840D01*
X147907176Y-52317852D01*
X147908318Y-52320187D01*
X147909650Y-52322423D01*
X147909652Y-52322426D01*
X148139893Y-52708820D01*
X148139900Y-52708831D01*
X148141229Y-52711061D01*
X148405621Y-53081366D01*
X148407299Y-53083347D01*
X148698005Y-53426583D01*
X148698012Y-53426590D01*
X148699691Y-53428573D01*
X149021427Y-53750309D01*
X149023410Y-53751988D01*
X149023417Y-53751995D01*
X149054041Y-53777932D01*
X149368634Y-54044379D01*
X149738939Y-54308771D01*
X149741169Y-54310100D01*
X149741180Y-54310107D01*
X149989553Y-54458105D01*
X150129813Y-54541682D01*
X150132148Y-54542824D01*
X150132160Y-54542830D01*
X150484913Y-54715279D01*
X150538585Y-54741518D01*
X150541014Y-54742466D01*
X150541019Y-54742468D01*
X150960036Y-54905969D01*
X150960045Y-54905972D01*
X150962464Y-54906916D01*
X151398553Y-55036745D01*
X151843873Y-55130119D01*
X152295384Y-55186400D01*
X152604321Y-55199178D01*
X152725769Y-55204201D01*
X152731820Y-55204597D01*
X152732855Y-55204690D01*
X152737646Y-55205496D01*
X152744169Y-55205576D01*
X152744430Y-55205616D01*
X152744687Y-55205582D01*
X152750000Y-55205647D01*
X152760599Y-55204129D01*
X152787591Y-55203187D01*
X152843010Y-55207213D01*
X152961656Y-55215834D01*
X152980019Y-55218539D01*
X153105582Y-55246614D01*
X153177454Y-55262684D01*
X153195214Y-55268056D01*
X153279834Y-55300627D01*
X153384024Y-55340731D01*
X153400802Y-55348653D01*
X153576889Y-55448280D01*
X153592315Y-55458578D01*
X153751852Y-55582993D01*
X153765608Y-55595454D01*
X153905129Y-55741950D01*
X153916906Y-55756299D01*
X154033386Y-55921700D01*
X154042927Y-55937622D01*
X154133847Y-56118348D01*
X154140944Y-56135498D01*
X154204327Y-56327620D01*
X154208829Y-56345630D01*
X154243296Y-56544981D01*
X154245102Y-56563453D01*
X154249156Y-56734037D01*
X154247636Y-56750822D01*
X154247712Y-56750827D01*
X154247154Y-56759783D01*
X154245331Y-56768577D01*
X154249023Y-56814583D01*
X154249050Y-56814922D01*
X154249454Y-56825220D01*
X154200848Y-83458109D01*
X154200587Y-83600931D01*
X154199086Y-83620089D01*
X154196770Y-83634960D01*
X154196770Y-83634964D01*
X154195389Y-83643833D01*
X154196553Y-83652736D01*
X154196553Y-83652740D01*
X154197199Y-83657684D01*
X154197886Y-83683740D01*
X154183973Y-83863455D01*
X154180980Y-83882674D01*
X154134040Y-84081552D01*
X154128124Y-84100080D01*
X154051139Y-84289354D01*
X154042442Y-84306752D01*
X153937243Y-84481925D01*
X153925973Y-84497776D01*
X153795064Y-84654677D01*
X153781487Y-84668605D01*
X153628000Y-84803479D01*
X153612443Y-84815152D01*
X153440015Y-84924805D01*
X153422846Y-84933944D01*
X153235604Y-85015750D01*
X153217233Y-85022138D01*
X153019632Y-85074152D01*
X153000497Y-85077637D01*
X152834946Y-85094728D01*
X152827181Y-85095093D01*
X152825858Y-85095010D01*
X152822637Y-85095307D01*
X152820885Y-85095389D01*
X152803947Y-85095238D01*
X152803946Y-85095238D01*
X152799655Y-85095200D01*
X152793583Y-85094413D01*
X152789579Y-85095041D01*
X152789167Y-85094926D01*
X152789165Y-85095106D01*
X152374858Y-85091412D01*
X152374851Y-85091412D01*
X152372245Y-85091389D01*
X152369651Y-85091582D01*
X152369643Y-85091582D01*
X151969530Y-85121312D01*
X151919882Y-85125001D01*
X151665654Y-85165310D01*
X151474458Y-85195624D01*
X151474450Y-85195626D01*
X151471868Y-85196035D01*
X151469334Y-85196656D01*
X151469329Y-85196657D01*
X151251581Y-85250019D01*
X151031294Y-85304003D01*
X151028825Y-85304830D01*
X151028813Y-85304834D01*
X150727370Y-85405869D01*
X150601200Y-85448158D01*
X150598800Y-85449191D01*
X150598795Y-85449193D01*
X150561433Y-85465276D01*
X150184552Y-85627508D01*
X150182262Y-85628728D01*
X150182252Y-85628733D01*
X150145096Y-85648531D01*
X149784224Y-85840814D01*
X149782014Y-85842239D01*
X149405177Y-86085186D01*
X149405166Y-86085194D01*
X149402977Y-86086605D01*
X149400909Y-86088196D01*
X149400906Y-86088198D01*
X149348374Y-86128610D01*
X149043443Y-86363185D01*
X148708100Y-86668648D01*
X148399262Y-87000884D01*
X148119060Y-87357604D01*
X147869426Y-87736345D01*
X147652083Y-88134496D01*
X147599287Y-88253809D01*
X147469591Y-88546911D01*
X147469587Y-88546922D01*
X147468530Y-88549310D01*
X147320032Y-88977924D01*
X147207615Y-89417384D01*
X147132054Y-89864656D01*
X147093870Y-90316656D01*
X147093384Y-90722747D01*
X147092930Y-90722746D01*
X147093154Y-90723923D01*
X147093082Y-90724294D01*
X147093378Y-90727521D01*
X147093369Y-90735197D01*
X147093357Y-90745150D01*
X147093205Y-90751188D01*
X147093111Y-90753103D01*
X147092497Y-90757935D01*
X147092634Y-90762804D01*
X147092836Y-90769995D01*
X147092228Y-90786400D01*
X147071416Y-90989169D01*
X147068757Y-91005026D01*
X147011358Y-91250203D01*
X147006701Y-91265593D01*
X146918544Y-91501466D01*
X146911966Y-91516134D01*
X146827708Y-91675879D01*
X146794494Y-91738850D01*
X146786101Y-91752565D01*
X146641209Y-91958524D01*
X146631137Y-91971057D01*
X146461208Y-92156876D01*
X146449625Y-92168022D01*
X146415244Y-92197119D01*
X146257413Y-92330689D01*
X146244506Y-92340269D01*
X146203969Y-92366518D01*
X146033137Y-92477137D01*
X146019110Y-92484998D01*
X145792036Y-92593831D01*
X145777122Y-92599841D01*
X145544095Y-92676869D01*
X145538038Y-92678871D01*
X145522480Y-92682933D01*
X145275276Y-92730871D01*
X145259329Y-92732918D01*
X145111288Y-92742384D01*
X145041416Y-92746851D01*
X145018569Y-92745815D01*
X145015047Y-92745772D01*
X145006177Y-92744391D01*
X144997275Y-92745555D01*
X144997272Y-92745555D01*
X144975244Y-92748436D01*
X144958907Y-92749500D01*
X117798741Y-92749500D01*
X117779357Y-92748000D01*
X117765050Y-92745772D01*
X117765047Y-92745772D01*
X117756177Y-92744391D01*
X117747276Y-92745555D01*
X117747270Y-92745555D01*
X117739442Y-92746579D01*
X117715497Y-92747413D01*
X117456326Y-92731736D01*
X117441222Y-92729902D01*
X117159328Y-92678243D01*
X117144555Y-92674602D01*
X117132967Y-92670991D01*
X116870934Y-92589338D01*
X116856716Y-92583946D01*
X116595374Y-92466325D01*
X116581903Y-92459255D01*
X116336642Y-92310989D01*
X116324121Y-92302346D01*
X116098524Y-92125603D01*
X116087135Y-92115513D01*
X115884487Y-91912865D01*
X115874397Y-91901476D01*
X115697654Y-91675879D01*
X115689011Y-91663358D01*
X115540745Y-91418097D01*
X115533674Y-91404624D01*
X115416056Y-91143288D01*
X115410660Y-91129061D01*
X115325398Y-90855445D01*
X115321757Y-90840672D01*
X115270098Y-90558778D01*
X115268264Y-90543673D01*
X115253239Y-90295272D01*
X115254474Y-90272021D01*
X115254254Y-90272001D01*
X115254689Y-90267152D01*
X115255496Y-90262354D01*
X115255647Y-90250000D01*
X115251773Y-90222949D01*
X115250500Y-90205087D01*
X115250500Y-82450000D01*
X128150000Y-82450000D01*
X134350000Y-82450000D01*
X134350000Y-81696346D01*
X148544867Y-81696346D01*
X148570307Y-82019579D01*
X148634948Y-82337304D01*
X148737829Y-82644782D01*
X148877415Y-82937430D01*
X149051625Y-83210885D01*
X149257863Y-83461072D01*
X149493054Y-83684259D01*
X149753691Y-83877121D01*
X149763506Y-83882674D01*
X150032532Y-84034882D01*
X150032536Y-84034884D01*
X150035889Y-84036781D01*
X150335442Y-84160860D01*
X150647883Y-84247507D01*
X150968555Y-84295432D01*
X150971853Y-84295576D01*
X151083257Y-84300440D01*
X151083261Y-84300440D01*
X151084633Y-84300500D01*
X151282354Y-84300500D01*
X151523629Y-84285743D01*
X151527412Y-84285042D01*
X151527419Y-84285041D01*
X151729931Y-84247507D01*
X151842433Y-84226656D01*
X152055785Y-84159386D01*
X152147987Y-84130315D01*
X152147990Y-84130314D01*
X152151659Y-84129157D01*
X152155156Y-84127563D01*
X152155162Y-84127561D01*
X152443191Y-83996299D01*
X152443195Y-83996297D01*
X152446699Y-83994700D01*
X152723153Y-83825289D01*
X152726157Y-83822899D01*
X152726162Y-83822896D01*
X152850027Y-83724369D01*
X152976901Y-83623449D01*
X152979595Y-83620708D01*
X152979599Y-83620704D01*
X153201463Y-83394932D01*
X153204159Y-83392189D01*
X153290945Y-83279088D01*
X153399205Y-83138001D01*
X153399210Y-83137993D01*
X153401540Y-83134957D01*
X153566101Y-82855589D01*
X153695389Y-82558247D01*
X153729191Y-82444135D01*
X153786382Y-82251058D01*
X153787476Y-82247366D01*
X153840990Y-81927579D01*
X153855133Y-81603654D01*
X153836635Y-81368621D01*
X153829995Y-81284256D01*
X153829995Y-81284253D01*
X153829693Y-81280421D01*
X153765052Y-80962696D01*
X153662171Y-80655218D01*
X153522585Y-80362570D01*
X153348375Y-80089115D01*
X153142137Y-79838928D01*
X152906946Y-79615741D01*
X152646309Y-79422879D01*
X152505210Y-79343049D01*
X152367468Y-79265118D01*
X152367464Y-79265116D01*
X152364111Y-79263219D01*
X152064558Y-79139140D01*
X151752117Y-79052493D01*
X151431445Y-79004568D01*
X151428147Y-79004424D01*
X151316743Y-78999560D01*
X151316739Y-78999560D01*
X151315367Y-78999500D01*
X151117646Y-78999500D01*
X150876371Y-79014257D01*
X150872588Y-79014958D01*
X150872581Y-79014959D01*
X150716969Y-79043800D01*
X150557567Y-79073344D01*
X150385572Y-79127574D01*
X150252013Y-79169685D01*
X150252010Y-79169686D01*
X150248341Y-79170843D01*
X150244844Y-79172437D01*
X150244838Y-79172439D01*
X149956809Y-79303701D01*
X149956805Y-79303703D01*
X149953301Y-79305300D01*
X149676847Y-79474711D01*
X149673843Y-79477101D01*
X149673838Y-79477104D01*
X149644740Y-79500250D01*
X149423099Y-79676551D01*
X149420405Y-79679292D01*
X149420401Y-79679296D01*
X149305515Y-79796206D01*
X149195841Y-79907811D01*
X149151992Y-79964956D01*
X149000795Y-80161999D01*
X149000790Y-80162007D01*
X148998460Y-80165043D01*
X148833899Y-80444411D01*
X148704611Y-80741753D01*
X148703517Y-80745447D01*
X148703515Y-80745452D01*
X148674362Y-80843873D01*
X148612524Y-81052634D01*
X148559010Y-81372421D01*
X148544867Y-81696346D01*
X134350000Y-81696346D01*
X134350000Y-76050000D01*
X128150000Y-76050000D01*
X128150000Y-82450000D01*
X115250500Y-82450000D01*
X115250500Y-81802576D01*
X115252246Y-81781671D01*
X115254689Y-81767148D01*
X115255496Y-81762354D01*
X115255647Y-81750000D01*
X115255023Y-81745641D01*
X115236400Y-81295384D01*
X115180119Y-80843873D01*
X115086745Y-80398553D01*
X114956916Y-79962464D01*
X114935591Y-79907811D01*
X114792468Y-79541019D01*
X114792466Y-79541014D01*
X114791518Y-79538585D01*
X114734025Y-79420980D01*
X114592830Y-79132160D01*
X114592824Y-79132148D01*
X114591682Y-79129813D01*
X114558034Y-79073344D01*
X114360107Y-78741180D01*
X114360100Y-78741169D01*
X114358771Y-78738939D01*
X114094379Y-78368634D01*
X114022810Y-78284133D01*
X113801995Y-78023417D01*
X113801988Y-78023410D01*
X113800309Y-78021427D01*
X113478573Y-77699691D01*
X113476590Y-77698012D01*
X113476583Y-77698005D01*
X113133347Y-77407299D01*
X113131366Y-77405621D01*
X112761061Y-77141229D01*
X112758831Y-77139900D01*
X112758820Y-77139893D01*
X112372426Y-76909652D01*
X112372423Y-76909650D01*
X112370187Y-76908318D01*
X112367852Y-76907176D01*
X112367840Y-76907170D01*
X111963759Y-76709628D01*
X111961415Y-76708482D01*
X111958986Y-76707534D01*
X111958981Y-76707532D01*
X111539964Y-76544031D01*
X111539955Y-76544028D01*
X111537536Y-76543084D01*
X111101447Y-76413255D01*
X110656127Y-76319881D01*
X110204616Y-76263600D01*
X109785057Y-76246247D01*
X109774227Y-76245799D01*
X109768182Y-76245404D01*
X109767157Y-76245312D01*
X109762354Y-76244504D01*
X109756438Y-76244432D01*
X109756177Y-76244391D01*
X109755915Y-76244425D01*
X109750000Y-76244353D01*
X109745192Y-76245042D01*
X109745187Y-76245042D01*
X109739409Y-76245870D01*
X109712555Y-76246822D01*
X109545590Y-76234880D01*
X109527796Y-76232322D01*
X109506927Y-76227782D01*
X109336343Y-76190674D01*
X109319098Y-76185610D01*
X109135526Y-76117140D01*
X109119174Y-76109673D01*
X108947217Y-76015778D01*
X108932093Y-76006058D01*
X108775247Y-75888644D01*
X108761661Y-75876871D01*
X108623129Y-75738339D01*
X108611356Y-75724753D01*
X108493942Y-75567907D01*
X108484222Y-75552783D01*
X108390327Y-75380826D01*
X108382860Y-75364474D01*
X108314390Y-75180902D01*
X108309324Y-75163652D01*
X108267678Y-74972204D01*
X108265120Y-74954410D01*
X108253685Y-74794537D01*
X108254758Y-74772044D01*
X108254253Y-74771999D01*
X108254688Y-74767159D01*
X108255496Y-74762354D01*
X108255647Y-74750000D01*
X108251773Y-74722949D01*
X108250500Y-74705087D01*
X108250500Y-69338735D01*
X140744514Y-69338735D01*
X140762039Y-69517468D01*
X140818726Y-69687878D01*
X140822373Y-69693900D01*
X140869971Y-69772493D01*
X140911759Y-69841494D01*
X141036514Y-69970681D01*
X141186789Y-70069018D01*
X141355116Y-70131618D01*
X141362097Y-70132549D01*
X141362099Y-70132550D01*
X141453026Y-70144682D01*
X141517903Y-70173518D01*
X141518509Y-70174076D01*
X141521736Y-70178282D01*
X141604139Y-70241512D01*
X141647177Y-70274536D01*
X141793256Y-70335044D01*
X141950018Y-70355682D01*
X141958206Y-70354604D01*
X141981191Y-70351578D01*
X141997637Y-70350500D01*
X147168085Y-70350500D01*
X147237078Y-70371068D01*
X147386789Y-70469036D01*
X147555116Y-70531636D01*
X147562097Y-70532567D01*
X147562099Y-70532568D01*
X147726149Y-70554457D01*
X147726153Y-70554457D01*
X147733130Y-70555388D01*
X147740142Y-70554750D01*
X147740146Y-70554750D01*
X147904960Y-70539751D01*
X147904961Y-70539751D01*
X147911981Y-70539112D01*
X148082782Y-70483615D01*
X148120924Y-70460878D01*
X148230992Y-70395265D01*
X148230994Y-70395264D01*
X148237044Y-70391657D01*
X148367099Y-70267807D01*
X148384570Y-70241512D01*
X148448903Y-70144682D01*
X148466483Y-70118222D01*
X148486640Y-70065158D01*
X148527757Y-69956919D01*
X148527758Y-69956914D01*
X148530257Y-69950336D01*
X148555251Y-69772493D01*
X148555565Y-69750000D01*
X148535546Y-69571528D01*
X148476485Y-69401927D01*
X148406545Y-69290000D01*
X149894341Y-69290000D01*
X149914937Y-69525408D01*
X149916361Y-69530722D01*
X149916361Y-69530723D01*
X149956681Y-69681199D01*
X149976097Y-69753663D01*
X149978419Y-69758643D01*
X149978420Y-69758645D01*
X150070878Y-69956919D01*
X150075965Y-69967829D01*
X150211505Y-70161401D01*
X150378599Y-70328495D01*
X150383107Y-70331652D01*
X150383110Y-70331654D01*
X150473956Y-70395265D01*
X150572170Y-70464035D01*
X150577152Y-70466358D01*
X150577157Y-70466361D01*
X150781355Y-70561580D01*
X150786337Y-70563903D01*
X150791645Y-70565325D01*
X150791647Y-70565326D01*
X151009277Y-70623639D01*
X151014592Y-70625063D01*
X151250000Y-70645659D01*
X151485408Y-70625063D01*
X151490723Y-70623639D01*
X151708353Y-70565326D01*
X151708355Y-70565325D01*
X151713663Y-70563903D01*
X151718645Y-70561580D01*
X151922843Y-70466361D01*
X151922848Y-70466358D01*
X151927830Y-70464035D01*
X152026044Y-70395265D01*
X152116890Y-70331654D01*
X152116893Y-70331652D01*
X152121401Y-70328495D01*
X152288495Y-70161401D01*
X152424035Y-69967829D01*
X152429123Y-69956919D01*
X152521580Y-69758645D01*
X152521581Y-69758643D01*
X152523903Y-69753663D01*
X152543320Y-69681199D01*
X152583639Y-69530723D01*
X152583639Y-69530722D01*
X152585063Y-69525408D01*
X152605659Y-69290000D01*
X152585063Y-69054592D01*
X152575481Y-69018832D01*
X152525326Y-68831647D01*
X152525325Y-68831645D01*
X152523903Y-68826337D01*
X152475331Y-68722175D01*
X152426358Y-68617152D01*
X152426356Y-68617149D01*
X152424035Y-68612171D01*
X152288495Y-68418599D01*
X152121401Y-68251505D01*
X152116893Y-68248348D01*
X152116890Y-68248346D01*
X151945336Y-68128223D01*
X151901008Y-68072766D01*
X151893699Y-68002147D01*
X151925730Y-67938786D01*
X151948019Y-67920860D01*
X151947737Y-67920465D01*
X152125328Y-67793792D01*
X152133200Y-67787139D01*
X152284052Y-67636812D01*
X152290730Y-67628965D01*
X152415003Y-67456020D01*
X152420313Y-67447183D01*
X152514670Y-67256267D01*
X152518469Y-67246672D01*
X152580377Y-67042910D01*
X152582555Y-67032837D01*
X152583986Y-67021962D01*
X152581775Y-67007778D01*
X152568617Y-67004000D01*
X149933225Y-67004000D01*
X149919694Y-67007973D01*
X149918257Y-67017966D01*
X149948565Y-67152446D01*
X149951645Y-67162275D01*
X150031770Y-67359603D01*
X150036413Y-67368794D01*
X150147694Y-67550388D01*
X150153777Y-67558699D01*
X150293213Y-67719667D01*
X150300580Y-67726883D01*
X150464434Y-67862916D01*
X150472876Y-67868828D01*
X150549612Y-67913669D01*
X150598335Y-67965308D01*
X150611406Y-68035091D01*
X150584674Y-68100863D01*
X150558312Y-68125669D01*
X150378599Y-68251505D01*
X150211505Y-68418599D01*
X150075965Y-68612171D01*
X150073644Y-68617149D01*
X150073642Y-68617152D01*
X150024669Y-68722175D01*
X149976097Y-68826337D01*
X149974675Y-68831645D01*
X149974674Y-68831647D01*
X149924519Y-69018832D01*
X149914937Y-69054592D01*
X149894341Y-69290000D01*
X148406545Y-69290000D01*
X148381316Y-69249625D01*
X148299813Y-69167551D01*
X148259733Y-69127190D01*
X148259729Y-69127187D01*
X148254770Y-69122193D01*
X148243761Y-69115206D01*
X148196860Y-69085442D01*
X148103136Y-69025963D01*
X148054257Y-69008558D01*
X147940586Y-68968081D01*
X147940581Y-68968080D01*
X147933951Y-68965719D01*
X147926965Y-68964886D01*
X147926961Y-68964885D01*
X147799177Y-68949648D01*
X147755624Y-68944455D01*
X147748621Y-68945191D01*
X147748620Y-68945191D01*
X147584025Y-68962490D01*
X147584021Y-68962491D01*
X147577017Y-68963227D01*
X147570346Y-68965498D01*
X147413677Y-69018832D01*
X147413674Y-69018833D01*
X147407007Y-69021103D01*
X147401009Y-69024793D01*
X147401007Y-69024794D01*
X147361211Y-69049277D01*
X147254045Y-69115206D01*
X147249010Y-69120136D01*
X147245615Y-69122789D01*
X147179621Y-69148967D01*
X147168041Y-69149500D01*
X142417425Y-69149500D01*
X142349304Y-69129498D01*
X142302811Y-69075842D01*
X142298433Y-69064936D01*
X142278801Y-69008558D01*
X142278799Y-69008553D01*
X142276485Y-69001909D01*
X142181316Y-68849607D01*
X142117771Y-68785617D01*
X142059733Y-68727172D01*
X142059729Y-68727169D01*
X142054770Y-68722175D01*
X142043761Y-68715188D01*
X141996860Y-68685424D01*
X141903136Y-68625945D01*
X141851803Y-68607666D01*
X141740586Y-68568063D01*
X141740581Y-68568062D01*
X141733951Y-68565701D01*
X141726965Y-68564868D01*
X141726961Y-68564867D01*
X141599177Y-68549630D01*
X141555624Y-68544437D01*
X141548621Y-68545173D01*
X141548620Y-68545173D01*
X141384025Y-68562472D01*
X141384021Y-68562473D01*
X141377017Y-68563209D01*
X141370346Y-68565480D01*
X141213677Y-68618814D01*
X141213674Y-68618815D01*
X141207007Y-68621085D01*
X141201009Y-68624775D01*
X141201007Y-68624776D01*
X141130526Y-68668137D01*
X141054045Y-68715188D01*
X141049014Y-68720114D01*
X141049011Y-68720117D01*
X141041807Y-68727172D01*
X140925732Y-68840841D01*
X140921913Y-68846766D01*
X140921912Y-68846768D01*
X140858957Y-68944455D01*
X140828446Y-68991799D01*
X140826037Y-68998419D01*
X140826035Y-68998422D01*
X140817780Y-69021103D01*
X140767022Y-69160560D01*
X140744514Y-69338735D01*
X108250500Y-69338735D01*
X108250500Y-67614471D01*
X108750884Y-67614471D01*
X108754570Y-67619740D01*
X108962121Y-67746927D01*
X108970915Y-67751408D01*
X109199242Y-67845984D01*
X109208627Y-67849033D01*
X109448940Y-67906728D01*
X109458687Y-67908271D01*
X109705070Y-67927662D01*
X109714930Y-67927662D01*
X109961313Y-67908271D01*
X109971060Y-67906728D01*
X110211373Y-67849033D01*
X110220758Y-67845984D01*
X110449085Y-67751408D01*
X110457879Y-67746927D01*
X110663928Y-67620660D01*
X110667968Y-67614471D01*
X113830884Y-67614471D01*
X113834570Y-67619740D01*
X114042121Y-67746927D01*
X114050915Y-67751408D01*
X114279242Y-67845984D01*
X114288627Y-67849033D01*
X114528940Y-67906728D01*
X114538687Y-67908271D01*
X114785070Y-67927662D01*
X114794930Y-67927662D01*
X115041313Y-67908271D01*
X115051060Y-67906728D01*
X115291373Y-67849033D01*
X115300758Y-67845984D01*
X115529085Y-67751408D01*
X115537879Y-67746927D01*
X115743928Y-67620660D01*
X115749190Y-67612599D01*
X115743183Y-67602393D01*
X114802812Y-66662022D01*
X114788868Y-66654408D01*
X114787035Y-66654539D01*
X114780420Y-66658790D01*
X113838276Y-67600934D01*
X113830884Y-67614471D01*
X110667968Y-67614471D01*
X110669190Y-67612599D01*
X110663183Y-67602393D01*
X109722812Y-66662022D01*
X109708868Y-66654408D01*
X109707035Y-66654539D01*
X109700420Y-66658790D01*
X108758276Y-67600934D01*
X108750884Y-67614471D01*
X108250500Y-67614471D01*
X108250500Y-67375366D01*
X108270502Y-67307245D01*
X108324158Y-67260752D01*
X108377394Y-67249369D01*
X108386980Y-67249437D01*
X108397607Y-67243183D01*
X109337978Y-66302812D01*
X109344356Y-66291132D01*
X110074408Y-66291132D01*
X110074539Y-66292965D01*
X110078790Y-66299580D01*
X111020934Y-67241724D01*
X111034471Y-67249116D01*
X111039740Y-67245430D01*
X111166927Y-67037879D01*
X111171408Y-67029085D01*
X111265984Y-66800758D01*
X111269033Y-66791373D01*
X111326728Y-66551060D01*
X111328271Y-66541313D01*
X111347662Y-66294930D01*
X113152338Y-66294930D01*
X113171729Y-66541313D01*
X113173272Y-66551060D01*
X113230967Y-66791373D01*
X113234016Y-66800758D01*
X113328592Y-67029085D01*
X113333073Y-67037879D01*
X113459340Y-67243928D01*
X113467401Y-67249190D01*
X113477607Y-67243183D01*
X114417978Y-66302812D01*
X114424356Y-66291132D01*
X115154408Y-66291132D01*
X115154539Y-66292965D01*
X115158790Y-66299580D01*
X116100934Y-67241724D01*
X116114471Y-67249116D01*
X116119740Y-67245430D01*
X116246391Y-67038753D01*
X133744514Y-67038753D01*
X133762039Y-67217486D01*
X133764262Y-67224168D01*
X133764262Y-67224169D01*
X133812372Y-67368794D01*
X133818726Y-67387896D01*
X133911759Y-67541512D01*
X133916648Y-67546575D01*
X133916649Y-67546576D01*
X133942005Y-67572833D01*
X134036514Y-67670699D01*
X134186789Y-67769036D01*
X134355116Y-67831636D01*
X134362097Y-67832567D01*
X134362099Y-67832568D01*
X134526149Y-67854457D01*
X134526153Y-67854457D01*
X134533130Y-67855388D01*
X134540142Y-67854750D01*
X134540146Y-67854750D01*
X134704960Y-67839751D01*
X134704961Y-67839751D01*
X134711981Y-67839112D01*
X134811836Y-67806667D01*
X134850772Y-67800500D01*
X135083546Y-67800500D01*
X135102496Y-67801933D01*
X135116396Y-67804048D01*
X135116400Y-67804048D01*
X135123630Y-67805148D01*
X135130922Y-67804555D01*
X135130925Y-67804555D01*
X135175675Y-67800915D01*
X135185889Y-67800500D01*
X135193822Y-67800500D01*
X135203118Y-67799416D01*
X135221736Y-67797246D01*
X135226111Y-67796813D01*
X135263251Y-67793792D01*
X135298059Y-67790961D01*
X135305021Y-67788706D01*
X135310816Y-67787548D01*
X135316558Y-67786191D01*
X135323828Y-67785343D01*
X135391736Y-67760694D01*
X135395864Y-67759277D01*
X135457583Y-67739283D01*
X135457585Y-67739282D01*
X135464546Y-67737027D01*
X135470800Y-67733232D01*
X135476179Y-67730769D01*
X135481455Y-67728127D01*
X135488331Y-67725631D01*
X135548709Y-67686046D01*
X135552419Y-67683705D01*
X135609361Y-67649152D01*
X135609368Y-67649147D01*
X135614160Y-67646239D01*
X135622452Y-67638915D01*
X135622474Y-67638940D01*
X135625569Y-67636194D01*
X135628563Y-67633691D01*
X135634685Y-67629677D01*
X135687384Y-67574047D01*
X135689761Y-67571606D01*
X136123962Y-67137405D01*
X136186274Y-67103379D01*
X136213057Y-67100500D01*
X138183546Y-67100500D01*
X138202496Y-67101933D01*
X138216396Y-67104048D01*
X138216400Y-67104048D01*
X138223630Y-67105148D01*
X138230922Y-67104555D01*
X138230925Y-67104555D01*
X138275675Y-67100915D01*
X138285889Y-67100500D01*
X138293822Y-67100500D01*
X138303118Y-67099416D01*
X138321736Y-67097246D01*
X138326111Y-67096813D01*
X138356274Y-67094360D01*
X138398059Y-67090961D01*
X138405021Y-67088706D01*
X138410816Y-67087548D01*
X138416558Y-67086191D01*
X138423828Y-67085343D01*
X138491736Y-67060694D01*
X138495864Y-67059277D01*
X138557583Y-67039283D01*
X138557585Y-67039282D01*
X138564546Y-67037027D01*
X138570800Y-67033232D01*
X138576179Y-67030769D01*
X138581455Y-67028127D01*
X138588331Y-67025631D01*
X138648709Y-66986046D01*
X138652419Y-66983705D01*
X138709361Y-66949152D01*
X138709368Y-66949147D01*
X138714160Y-66946239D01*
X138722452Y-66938915D01*
X138722474Y-66938940D01*
X138725569Y-66936194D01*
X138728563Y-66933691D01*
X138734685Y-66929677D01*
X138787364Y-66874068D01*
X138789741Y-66871626D01*
X139359234Y-66302134D01*
X139383812Y-66283001D01*
X139530992Y-66195265D01*
X139530994Y-66195264D01*
X139537044Y-66191657D01*
X139667099Y-66067807D01*
X139766483Y-65918222D01*
X139819277Y-65779242D01*
X139827757Y-65756919D01*
X139827758Y-65756914D01*
X139830257Y-65750336D01*
X139835038Y-65716315D01*
X139854700Y-65576416D01*
X139854700Y-65576411D01*
X139855251Y-65572493D01*
X139855565Y-65550000D01*
X139835546Y-65371528D01*
X139829926Y-65355388D01*
X139804932Y-65283615D01*
X139776485Y-65201927D01*
X139760269Y-65175975D01*
X139685049Y-65055599D01*
X139681316Y-65049625D01*
X139597805Y-64965529D01*
X139559733Y-64927190D01*
X139559729Y-64927187D01*
X139554770Y-64922193D01*
X139543761Y-64915206D01*
X139484208Y-64877413D01*
X139403136Y-64825963D01*
X139373352Y-64815357D01*
X139240586Y-64768081D01*
X139240581Y-64768080D01*
X139233951Y-64765719D01*
X139226965Y-64764886D01*
X139226961Y-64764885D01*
X139099177Y-64749648D01*
X139055624Y-64744455D01*
X139048621Y-64745191D01*
X139048620Y-64745191D01*
X138884025Y-64762490D01*
X138884021Y-64762491D01*
X138877017Y-64763227D01*
X138870346Y-64765498D01*
X138713677Y-64818832D01*
X138713674Y-64818833D01*
X138707007Y-64821103D01*
X138701009Y-64824793D01*
X138701007Y-64824794D01*
X138687550Y-64833073D01*
X138554045Y-64915206D01*
X138549014Y-64920132D01*
X138549011Y-64920135D01*
X138491209Y-64976739D01*
X138425732Y-65040859D01*
X138421913Y-65046784D01*
X138421912Y-65046786D01*
X138338652Y-65175981D01*
X138328446Y-65191817D01*
X138326037Y-65198436D01*
X138322902Y-65204751D01*
X138321400Y-65204005D01*
X138298180Y-65240453D01*
X137976038Y-65562595D01*
X137913726Y-65596621D01*
X137886943Y-65599500D01*
X136525524Y-65599500D01*
X136457403Y-65579498D01*
X136447852Y-65568476D01*
X136384841Y-65598029D01*
X136365644Y-65599500D01*
X135916454Y-65599500D01*
X135897504Y-65598067D01*
X135883604Y-65595952D01*
X135883600Y-65595952D01*
X135876370Y-65594852D01*
X135869078Y-65595445D01*
X135869075Y-65595445D01*
X135824325Y-65599085D01*
X135814111Y-65599500D01*
X135806178Y-65599500D01*
X135796882Y-65600584D01*
X135778264Y-65602754D01*
X135773889Y-65603187D01*
X135743726Y-65605640D01*
X135701941Y-65609039D01*
X135694979Y-65611294D01*
X135689184Y-65612452D01*
X135683442Y-65613809D01*
X135676172Y-65614657D01*
X135608264Y-65639306D01*
X135604136Y-65640723D01*
X135542417Y-65660717D01*
X135542415Y-65660718D01*
X135535454Y-65662973D01*
X135529200Y-65666768D01*
X135523821Y-65669231D01*
X135518545Y-65671873D01*
X135511669Y-65674369D01*
X135477618Y-65696694D01*
X135451267Y-65713970D01*
X135447554Y-65716312D01*
X135385840Y-65753762D01*
X135381641Y-65757470D01*
X135381636Y-65757474D01*
X135377548Y-65761085D01*
X135377526Y-65761060D01*
X135374435Y-65763803D01*
X135371439Y-65766308D01*
X135365315Y-65770323D01*
X135360281Y-65775637D01*
X135312617Y-65825952D01*
X135310239Y-65828394D01*
X134892749Y-66245884D01*
X134830437Y-66279910D01*
X134761389Y-66275489D01*
X134740584Y-66268081D01*
X134740585Y-66268081D01*
X134733951Y-66265719D01*
X134726965Y-66264886D01*
X134726961Y-66264885D01*
X134599177Y-66249648D01*
X134555624Y-66244455D01*
X134548621Y-66245191D01*
X134548620Y-66245191D01*
X134384025Y-66262490D01*
X134384021Y-66262491D01*
X134377017Y-66263227D01*
X134370346Y-66265498D01*
X134213677Y-66318832D01*
X134213674Y-66318833D01*
X134207007Y-66321103D01*
X134054045Y-66415206D01*
X134049014Y-66420132D01*
X134049011Y-66420135D01*
X133986883Y-66480976D01*
X133925732Y-66540859D01*
X133921913Y-66546784D01*
X133921912Y-66546786D01*
X133852470Y-66654539D01*
X133828446Y-66691817D01*
X133767022Y-66860578D01*
X133744514Y-67038753D01*
X116246391Y-67038753D01*
X116246927Y-67037879D01*
X116251408Y-67029085D01*
X116345984Y-66800758D01*
X116349033Y-66791373D01*
X116406728Y-66551060D01*
X116408271Y-66541313D01*
X116427662Y-66294930D01*
X116427662Y-66285070D01*
X116408271Y-66038687D01*
X116406728Y-66028940D01*
X116349033Y-65788627D01*
X116345984Y-65779242D01*
X116251408Y-65550915D01*
X116246927Y-65542121D01*
X116120660Y-65336072D01*
X116112599Y-65330810D01*
X116102393Y-65336817D01*
X115162022Y-66277188D01*
X115154408Y-66291132D01*
X114424356Y-66291132D01*
X114425592Y-66288868D01*
X114425461Y-66287035D01*
X114421210Y-66280420D01*
X113479066Y-65338276D01*
X113465529Y-65330884D01*
X113460260Y-65334570D01*
X113333073Y-65542121D01*
X113328592Y-65550915D01*
X113234016Y-65779242D01*
X113230967Y-65788627D01*
X113173272Y-66028940D01*
X113171729Y-66038687D01*
X113152338Y-66285070D01*
X113152338Y-66294930D01*
X111347662Y-66294930D01*
X111347662Y-66285070D01*
X111328271Y-66038687D01*
X111326728Y-66028940D01*
X111269033Y-65788627D01*
X111265984Y-65779242D01*
X111171408Y-65550915D01*
X111166927Y-65542121D01*
X111040660Y-65336072D01*
X111032599Y-65330810D01*
X111022393Y-65336817D01*
X110082022Y-66277188D01*
X110074408Y-66291132D01*
X109344356Y-66291132D01*
X109345592Y-66288868D01*
X109345461Y-66287035D01*
X109341210Y-66280420D01*
X108399066Y-65338276D01*
X108384799Y-65330485D01*
X108316114Y-65315543D01*
X108265912Y-65265341D01*
X108250500Y-65204956D01*
X108250500Y-64967401D01*
X108750810Y-64967401D01*
X108756817Y-64977607D01*
X109697188Y-65917978D01*
X109711132Y-65925592D01*
X109712965Y-65925461D01*
X109719580Y-65921210D01*
X110661724Y-64979066D01*
X110669116Y-64965529D01*
X110665430Y-64960260D01*
X110457879Y-64833073D01*
X110449085Y-64828592D01*
X110220758Y-64734016D01*
X110211373Y-64730967D01*
X109971060Y-64673272D01*
X109961313Y-64671729D01*
X109714930Y-64652338D01*
X109705070Y-64652338D01*
X109458687Y-64671729D01*
X109448940Y-64673272D01*
X109208627Y-64730967D01*
X109199242Y-64734016D01*
X108970915Y-64828592D01*
X108962121Y-64833073D01*
X108756072Y-64959340D01*
X108750810Y-64967401D01*
X108250500Y-64967401D01*
X108250500Y-63750000D01*
X110619474Y-63750000D01*
X110639548Y-64005070D01*
X110640702Y-64009877D01*
X110640703Y-64009883D01*
X110651679Y-64055599D01*
X110699278Y-64253860D01*
X110701171Y-64258431D01*
X110701172Y-64258433D01*
X110762810Y-64407239D01*
X110797191Y-64490243D01*
X110930877Y-64708399D01*
X111097044Y-64902956D01*
X111291601Y-65069123D01*
X111509757Y-65202809D01*
X111514327Y-65204702D01*
X111514331Y-65204704D01*
X111741567Y-65298828D01*
X111746140Y-65300722D01*
X111807873Y-65315543D01*
X111990117Y-65359297D01*
X111990123Y-65359298D01*
X111994930Y-65360452D01*
X112250000Y-65380526D01*
X112505070Y-65360452D01*
X112509877Y-65359298D01*
X112509883Y-65359297D01*
X112692127Y-65315543D01*
X112753860Y-65300722D01*
X112758433Y-65298828D01*
X112985669Y-65204704D01*
X112985673Y-65204702D01*
X112990243Y-65202809D01*
X113208399Y-65069123D01*
X113327500Y-64967401D01*
X113830810Y-64967401D01*
X113836817Y-64977607D01*
X114777188Y-65917978D01*
X114791132Y-65925592D01*
X114792965Y-65925461D01*
X114799580Y-65921210D01*
X115741724Y-64979066D01*
X115749116Y-64965529D01*
X115745430Y-64960260D01*
X115537879Y-64833073D01*
X115529085Y-64828592D01*
X115300758Y-64734016D01*
X115291373Y-64730967D01*
X115051060Y-64673272D01*
X115041313Y-64671729D01*
X114794930Y-64652338D01*
X114785070Y-64652338D01*
X114538687Y-64671729D01*
X114528940Y-64673272D01*
X114288627Y-64730967D01*
X114279242Y-64734016D01*
X114050915Y-64828592D01*
X114042121Y-64833073D01*
X113836072Y-64959340D01*
X113830810Y-64967401D01*
X113327500Y-64967401D01*
X113402956Y-64902956D01*
X113569123Y-64708399D01*
X113702809Y-64490243D01*
X113737191Y-64407239D01*
X113798828Y-64258433D01*
X113798829Y-64258431D01*
X113800722Y-64253860D01*
X113848321Y-64055599D01*
X113859297Y-64009883D01*
X113859298Y-64009877D01*
X113860452Y-64005070D01*
X113880526Y-63750000D01*
X118744532Y-63750000D01*
X118764365Y-63976692D01*
X118765789Y-63982005D01*
X118765789Y-63982007D01*
X118783147Y-64046786D01*
X118823261Y-64196496D01*
X118825583Y-64201476D01*
X118825584Y-64201478D01*
X118847767Y-64249048D01*
X118919432Y-64402734D01*
X119049953Y-64589139D01*
X119210861Y-64750047D01*
X119397266Y-64880568D01*
X119402244Y-64882889D01*
X119402247Y-64882891D01*
X119598522Y-64974416D01*
X119603504Y-64976739D01*
X119608812Y-64978161D01*
X119608814Y-64978162D01*
X119817993Y-65034211D01*
X119817995Y-65034211D01*
X119823308Y-65035635D01*
X120050000Y-65055468D01*
X120276692Y-65035635D01*
X120282005Y-65034211D01*
X120282007Y-65034211D01*
X120491186Y-64978162D01*
X120491188Y-64978161D01*
X120496496Y-64976739D01*
X120501478Y-64974416D01*
X120697753Y-64882891D01*
X120697756Y-64882889D01*
X120702734Y-64880568D01*
X120889139Y-64750047D01*
X121050047Y-64589139D01*
X121085327Y-64538753D01*
X133944514Y-64538753D01*
X133945201Y-64545760D01*
X133945201Y-64545763D01*
X133946005Y-64553963D01*
X133962039Y-64717486D01*
X133964262Y-64724168D01*
X133964262Y-64724169D01*
X133977010Y-64762490D01*
X134018726Y-64887896D01*
X134022373Y-64893918D01*
X134038251Y-64920135D01*
X134111759Y-65041512D01*
X134116648Y-65046575D01*
X134116649Y-65046576D01*
X134131482Y-65061936D01*
X134236514Y-65170699D01*
X134386789Y-65269036D01*
X134555116Y-65331636D01*
X134562097Y-65332567D01*
X134562099Y-65332568D01*
X134726149Y-65354457D01*
X134726153Y-65354457D01*
X134733130Y-65355388D01*
X134740142Y-65354750D01*
X134740146Y-65354750D01*
X134904960Y-65339751D01*
X134904961Y-65339751D01*
X134911981Y-65339112D01*
X135082782Y-65283615D01*
X135234337Y-65193271D01*
X135298853Y-65175500D01*
X135906289Y-65175500D01*
X135975282Y-65196068D01*
X135987411Y-65204005D01*
X136086789Y-65269036D01*
X136255116Y-65331636D01*
X136262097Y-65332567D01*
X136262099Y-65332568D01*
X136382308Y-65348607D01*
X136447185Y-65377443D01*
X136448429Y-65379337D01*
X136490026Y-65352604D01*
X136514105Y-65348019D01*
X136604960Y-65339751D01*
X136604961Y-65339751D01*
X136611981Y-65339112D01*
X136782782Y-65283615D01*
X136813714Y-65265176D01*
X136930992Y-65195265D01*
X136930994Y-65195264D01*
X136937044Y-65191657D01*
X137067099Y-65067807D01*
X137075616Y-65054989D01*
X137129148Y-64974416D01*
X137166483Y-64918222D01*
X137198828Y-64833073D01*
X137227757Y-64756919D01*
X137227758Y-64756914D01*
X137230257Y-64750336D01*
X137236151Y-64708399D01*
X137254700Y-64576416D01*
X137254700Y-64576411D01*
X137255251Y-64572493D01*
X137255565Y-64550000D01*
X137235546Y-64371528D01*
X137229427Y-64353955D01*
X137178803Y-64208584D01*
X137176485Y-64201927D01*
X137081316Y-64049625D01*
X137003448Y-63971212D01*
X136959733Y-63927190D01*
X136959729Y-63927187D01*
X136954770Y-63922193D01*
X136943761Y-63915206D01*
X136896860Y-63885442D01*
X136803136Y-63825963D01*
X136773352Y-63815357D01*
X136640586Y-63768081D01*
X136640581Y-63768080D01*
X136633951Y-63765719D01*
X136626965Y-63764886D01*
X136626961Y-63764885D01*
X136499177Y-63749648D01*
X136455624Y-63744455D01*
X136448621Y-63745191D01*
X136448620Y-63745191D01*
X136284025Y-63762490D01*
X136284021Y-63762491D01*
X136277017Y-63763227D01*
X136270346Y-63765498D01*
X136113677Y-63818832D01*
X136113674Y-63818833D01*
X136107007Y-63821103D01*
X136101009Y-63824793D01*
X136101007Y-63824794D01*
X135969305Y-63905818D01*
X135903283Y-63924500D01*
X135295011Y-63924500D01*
X135227497Y-63904885D01*
X135226704Y-63904382D01*
X135103136Y-63825963D01*
X135073352Y-63815357D01*
X134940586Y-63768081D01*
X134940581Y-63768080D01*
X134933951Y-63765719D01*
X134926965Y-63764886D01*
X134926961Y-63764885D01*
X134799177Y-63749648D01*
X134755624Y-63744455D01*
X134748621Y-63745191D01*
X134748620Y-63745191D01*
X134584025Y-63762490D01*
X134584021Y-63762491D01*
X134577017Y-63763227D01*
X134570346Y-63765498D01*
X134413677Y-63818832D01*
X134413674Y-63818833D01*
X134407007Y-63821103D01*
X134401009Y-63824793D01*
X134401007Y-63824794D01*
X134330526Y-63868154D01*
X134254045Y-63915206D01*
X134249014Y-63920132D01*
X134249011Y-63920135D01*
X134244554Y-63924500D01*
X134125732Y-64040859D01*
X134121913Y-64046784D01*
X134121912Y-64046786D01*
X134032265Y-64185891D01*
X134028446Y-64191817D01*
X134026037Y-64198437D01*
X134026035Y-64198440D01*
X134005864Y-64253860D01*
X133967022Y-64360578D01*
X133944514Y-64538753D01*
X121085327Y-64538753D01*
X121180568Y-64402734D01*
X121252234Y-64249048D01*
X121274416Y-64201478D01*
X121274417Y-64201476D01*
X121276739Y-64196496D01*
X121316854Y-64046786D01*
X121334211Y-63982007D01*
X121334211Y-63982005D01*
X121335635Y-63976692D01*
X121355468Y-63750000D01*
X121335635Y-63523308D01*
X121279183Y-63312624D01*
X121279183Y-63312623D01*
X149899500Y-63312623D01*
X149899501Y-65107376D01*
X149906149Y-65168580D01*
X149956474Y-65302824D01*
X149961854Y-65310003D01*
X149961856Y-65310006D01*
X150014418Y-65380138D01*
X150042454Y-65417546D01*
X150049635Y-65422928D01*
X150149994Y-65498144D01*
X150149997Y-65498146D01*
X150157176Y-65503526D01*
X150240845Y-65534892D01*
X150276972Y-65548435D01*
X150333737Y-65591076D01*
X150358437Y-65657638D01*
X150343230Y-65726986D01*
X150323837Y-65753468D01*
X150194590Y-65888717D01*
X150188104Y-65896727D01*
X150068098Y-66072649D01*
X150063000Y-66081623D01*
X149973338Y-66274783D01*
X149969775Y-66284470D01*
X149914389Y-66484183D01*
X149915912Y-66492607D01*
X149928292Y-66496000D01*
X152568344Y-66496000D01*
X152581875Y-66492027D01*
X152583180Y-66482947D01*
X152541214Y-66315875D01*
X152537894Y-66306124D01*
X152452972Y-66110814D01*
X152448105Y-66101739D01*
X152332426Y-65922926D01*
X152326136Y-65914757D01*
X152179328Y-65753418D01*
X152180287Y-65752545D01*
X152147215Y-65696694D01*
X152149811Y-65625745D01*
X152190353Y-65567462D01*
X152225100Y-65547658D01*
X152239870Y-65542121D01*
X152342824Y-65503526D01*
X152350003Y-65498146D01*
X152350006Y-65498144D01*
X152450365Y-65422928D01*
X152457546Y-65417546D01*
X152485582Y-65380138D01*
X152538144Y-65310006D01*
X152538146Y-65310003D01*
X152543526Y-65302824D01*
X152578854Y-65208584D01*
X152591079Y-65175975D01*
X152591079Y-65175973D01*
X152593851Y-65168580D01*
X152600500Y-65107377D01*
X152600499Y-63312624D01*
X152600085Y-63308814D01*
X152594705Y-63259278D01*
X152594704Y-63259274D01*
X152593851Y-63251420D01*
X152543526Y-63117176D01*
X152538146Y-63109997D01*
X152538144Y-63109994D01*
X152462928Y-63009635D01*
X152457546Y-63002454D01*
X152450365Y-62997072D01*
X152350006Y-62921856D01*
X152350003Y-62921854D01*
X152342824Y-62916474D01*
X152253439Y-62882966D01*
X152215975Y-62868921D01*
X152215973Y-62868921D01*
X152208580Y-62866149D01*
X152200730Y-62865296D01*
X152200729Y-62865296D01*
X152150774Y-62859869D01*
X152150773Y-62859869D01*
X152147377Y-62859500D01*
X151250132Y-62859500D01*
X150352624Y-62859501D01*
X150349230Y-62859870D01*
X150349224Y-62859870D01*
X150299278Y-62865295D01*
X150299274Y-62865296D01*
X150291420Y-62866149D01*
X150157176Y-62916474D01*
X150149997Y-62921854D01*
X150149994Y-62921856D01*
X150049635Y-62997072D01*
X150042454Y-63002454D01*
X150037072Y-63009635D01*
X149961856Y-63109994D01*
X149961854Y-63109997D01*
X149956474Y-63117176D01*
X149953324Y-63125580D01*
X149909843Y-63241567D01*
X149906149Y-63251420D01*
X149899500Y-63312623D01*
X121279183Y-63312623D01*
X121278162Y-63308814D01*
X121278161Y-63308812D01*
X121276739Y-63303504D01*
X121252452Y-63251420D01*
X121182891Y-63102247D01*
X121182889Y-63102244D01*
X121180568Y-63097266D01*
X121050047Y-62910861D01*
X120889139Y-62749953D01*
X120702734Y-62619432D01*
X120697756Y-62617111D01*
X120697753Y-62617109D01*
X120501478Y-62525584D01*
X120501476Y-62525583D01*
X120496496Y-62523261D01*
X120491188Y-62521839D01*
X120491186Y-62521838D01*
X120282007Y-62465789D01*
X120282005Y-62465789D01*
X120276692Y-62464365D01*
X120050000Y-62444532D01*
X119823308Y-62464365D01*
X119817995Y-62465789D01*
X119817993Y-62465789D01*
X119608814Y-62521838D01*
X119608812Y-62521839D01*
X119603504Y-62523261D01*
X119598524Y-62525583D01*
X119598522Y-62525584D01*
X119402247Y-62617109D01*
X119402244Y-62617111D01*
X119397266Y-62619432D01*
X119210861Y-62749953D01*
X119049953Y-62910861D01*
X118919432Y-63097266D01*
X118917111Y-63102244D01*
X118917109Y-63102247D01*
X118847548Y-63251420D01*
X118823261Y-63303504D01*
X118821839Y-63308812D01*
X118821838Y-63308814D01*
X118820817Y-63312624D01*
X118764365Y-63523308D01*
X118744532Y-63750000D01*
X113880526Y-63750000D01*
X113860452Y-63494930D01*
X113859298Y-63490123D01*
X113859297Y-63490117D01*
X113803876Y-63259278D01*
X113800722Y-63246140D01*
X113798828Y-63241567D01*
X113704704Y-63014331D01*
X113704702Y-63014327D01*
X113702809Y-63009757D01*
X113569123Y-62791601D01*
X113402956Y-62597044D01*
X113329692Y-62534471D01*
X113830884Y-62534471D01*
X113834570Y-62539740D01*
X114042121Y-62666927D01*
X114050915Y-62671408D01*
X114279242Y-62765984D01*
X114288627Y-62769033D01*
X114528940Y-62826728D01*
X114538687Y-62828271D01*
X114785070Y-62847662D01*
X114794930Y-62847662D01*
X115041313Y-62828271D01*
X115051060Y-62826728D01*
X115291373Y-62769033D01*
X115300758Y-62765984D01*
X115529085Y-62671408D01*
X115537879Y-62666927D01*
X115743928Y-62540660D01*
X115749190Y-62532599D01*
X115743183Y-62522393D01*
X114802812Y-61582022D01*
X114788868Y-61574408D01*
X114787035Y-61574539D01*
X114780420Y-61578790D01*
X113838276Y-62520934D01*
X113830884Y-62534471D01*
X113329692Y-62534471D01*
X113208399Y-62430877D01*
X112990243Y-62297191D01*
X112985673Y-62295298D01*
X112985669Y-62295296D01*
X112758433Y-62201172D01*
X112758431Y-62201171D01*
X112753860Y-62199278D01*
X112629282Y-62169369D01*
X112509883Y-62140703D01*
X112509877Y-62140702D01*
X112505070Y-62139548D01*
X112250000Y-62119474D01*
X111994930Y-62139548D01*
X111990123Y-62140702D01*
X111990117Y-62140703D01*
X111870718Y-62169369D01*
X111746140Y-62199278D01*
X111741569Y-62201171D01*
X111741567Y-62201172D01*
X111514331Y-62295296D01*
X111514327Y-62295298D01*
X111509757Y-62297191D01*
X111291601Y-62430877D01*
X111097044Y-62597044D01*
X110930877Y-62791601D01*
X110797191Y-63009757D01*
X110795298Y-63014327D01*
X110795296Y-63014331D01*
X110701172Y-63241567D01*
X110699278Y-63246140D01*
X110696124Y-63259278D01*
X110640703Y-63490117D01*
X110640702Y-63490123D01*
X110639548Y-63494930D01*
X110619474Y-63750000D01*
X108250500Y-63750000D01*
X108250500Y-62534471D01*
X108750884Y-62534471D01*
X108754570Y-62539740D01*
X108962121Y-62666927D01*
X108970915Y-62671408D01*
X109199242Y-62765984D01*
X109208627Y-62769033D01*
X109448940Y-62826728D01*
X109458687Y-62828271D01*
X109705070Y-62847662D01*
X109714930Y-62847662D01*
X109961313Y-62828271D01*
X109971060Y-62826728D01*
X110211373Y-62769033D01*
X110220758Y-62765984D01*
X110449085Y-62671408D01*
X110457879Y-62666927D01*
X110663928Y-62540660D01*
X110669190Y-62532599D01*
X110663183Y-62522393D01*
X109722812Y-61582022D01*
X109708868Y-61574408D01*
X109707035Y-61574539D01*
X109700420Y-61578790D01*
X108758276Y-62520934D01*
X108750884Y-62534471D01*
X108250500Y-62534471D01*
X108250500Y-62295366D01*
X108270502Y-62227245D01*
X108324158Y-62180752D01*
X108377394Y-62169369D01*
X108386980Y-62169437D01*
X108397607Y-62163183D01*
X109337978Y-61222812D01*
X109344356Y-61211132D01*
X110074408Y-61211132D01*
X110074539Y-61212965D01*
X110078790Y-61219580D01*
X111020934Y-62161724D01*
X111034471Y-62169116D01*
X111039740Y-62165430D01*
X111166927Y-61957879D01*
X111171408Y-61949085D01*
X111265984Y-61720758D01*
X111269033Y-61711373D01*
X111326728Y-61471060D01*
X111328271Y-61461313D01*
X111347662Y-61214930D01*
X113152338Y-61214930D01*
X113171729Y-61461313D01*
X113173272Y-61471060D01*
X113230967Y-61711373D01*
X113234016Y-61720758D01*
X113328592Y-61949085D01*
X113333073Y-61957879D01*
X113459340Y-62163928D01*
X113467401Y-62169190D01*
X113477607Y-62163183D01*
X114417978Y-61222812D01*
X114424356Y-61211132D01*
X115154408Y-61211132D01*
X115154539Y-61212965D01*
X115158790Y-61219580D01*
X116100934Y-62161724D01*
X116114471Y-62169116D01*
X116119740Y-62165430D01*
X116246927Y-61957879D01*
X116251408Y-61949085D01*
X116345984Y-61720758D01*
X116349033Y-61711373D01*
X116406728Y-61471060D01*
X116408271Y-61461313D01*
X116427662Y-61214930D01*
X116427662Y-61205070D01*
X116408271Y-60958687D01*
X116406728Y-60948940D01*
X116349033Y-60708627D01*
X116345984Y-60699242D01*
X116251408Y-60470915D01*
X116246927Y-60462121D01*
X116120660Y-60256072D01*
X116112599Y-60250810D01*
X116102393Y-60256817D01*
X115162022Y-61197188D01*
X115154408Y-61211132D01*
X114424356Y-61211132D01*
X114425592Y-61208868D01*
X114425461Y-61207035D01*
X114421210Y-61200420D01*
X113479066Y-60258276D01*
X113465529Y-60250884D01*
X113460260Y-60254570D01*
X113333073Y-60462121D01*
X113328592Y-60470915D01*
X113234016Y-60699242D01*
X113230967Y-60708627D01*
X113173272Y-60948940D01*
X113171729Y-60958687D01*
X113152338Y-61205070D01*
X113152338Y-61214930D01*
X111347662Y-61214930D01*
X111347662Y-61205070D01*
X111328271Y-60958687D01*
X111326728Y-60948940D01*
X111269033Y-60708627D01*
X111265984Y-60699242D01*
X111171408Y-60470915D01*
X111166927Y-60462121D01*
X111040660Y-60256072D01*
X111032599Y-60250810D01*
X111022393Y-60256817D01*
X110082022Y-61197188D01*
X110074408Y-61211132D01*
X109344356Y-61211132D01*
X109345592Y-61208868D01*
X109345461Y-61207035D01*
X109341210Y-61200420D01*
X108399066Y-60258276D01*
X108384799Y-60250485D01*
X108316114Y-60235543D01*
X108265912Y-60185341D01*
X108250500Y-60124956D01*
X108250500Y-59887401D01*
X108750810Y-59887401D01*
X108756817Y-59897607D01*
X109697188Y-60837978D01*
X109711132Y-60845592D01*
X109712965Y-60845461D01*
X109719580Y-60841210D01*
X110661724Y-59899066D01*
X110668094Y-59887401D01*
X113830810Y-59887401D01*
X113836817Y-59897607D01*
X114777188Y-60837978D01*
X114791132Y-60845592D01*
X114792965Y-60845461D01*
X114799580Y-60841210D01*
X115741724Y-59899066D01*
X115749116Y-59885529D01*
X115745430Y-59880260D01*
X115673305Y-59836062D01*
X119328493Y-59836062D01*
X119337789Y-59848077D01*
X119388994Y-59883931D01*
X119398489Y-59889414D01*
X119595947Y-59981490D01*
X119606239Y-59985236D01*
X119816688Y-60041625D01*
X119827481Y-60043528D01*
X120044525Y-60062517D01*
X120055475Y-60062517D01*
X120272519Y-60043528D01*
X120283312Y-60041625D01*
X120493761Y-59985236D01*
X120504053Y-59981490D01*
X120701511Y-59889414D01*
X120711006Y-59883931D01*
X120763048Y-59847491D01*
X120771424Y-59837012D01*
X120764356Y-59823566D01*
X120062812Y-59122022D01*
X120048868Y-59114408D01*
X120047035Y-59114539D01*
X120040420Y-59118790D01*
X119334923Y-59824287D01*
X119328493Y-59836062D01*
X115673305Y-59836062D01*
X115537879Y-59753073D01*
X115529085Y-59748592D01*
X115300758Y-59654016D01*
X115291373Y-59650967D01*
X115051060Y-59593272D01*
X115041313Y-59591729D01*
X114794930Y-59572338D01*
X114785070Y-59572338D01*
X114538687Y-59591729D01*
X114528940Y-59593272D01*
X114288627Y-59650967D01*
X114279242Y-59654016D01*
X114050915Y-59748592D01*
X114042121Y-59753073D01*
X113836072Y-59879340D01*
X113830810Y-59887401D01*
X110668094Y-59887401D01*
X110669116Y-59885529D01*
X110665430Y-59880260D01*
X110457879Y-59753073D01*
X110449085Y-59748592D01*
X110220758Y-59654016D01*
X110211373Y-59650967D01*
X109971060Y-59593272D01*
X109961313Y-59591729D01*
X109714930Y-59572338D01*
X109705070Y-59572338D01*
X109458687Y-59591729D01*
X109448940Y-59593272D01*
X109208627Y-59650967D01*
X109199242Y-59654016D01*
X108970915Y-59748592D01*
X108962121Y-59753073D01*
X108756072Y-59879340D01*
X108750810Y-59887401D01*
X108250500Y-59887401D01*
X108250500Y-58755475D01*
X118737483Y-58755475D01*
X118756472Y-58972519D01*
X118758375Y-58983312D01*
X118814764Y-59193761D01*
X118818510Y-59204053D01*
X118910586Y-59401511D01*
X118916069Y-59411006D01*
X118952509Y-59463048D01*
X118962988Y-59471424D01*
X118976434Y-59464356D01*
X119677978Y-58762812D01*
X119684356Y-58751132D01*
X120414408Y-58751132D01*
X120414539Y-58752965D01*
X120418790Y-58759580D01*
X121124287Y-59465077D01*
X121136062Y-59471507D01*
X121148077Y-59462211D01*
X121183931Y-59411006D01*
X121189414Y-59401511D01*
X121281490Y-59204053D01*
X121285236Y-59193761D01*
X121341625Y-58983312D01*
X121343528Y-58972519D01*
X121362517Y-58755475D01*
X121362517Y-58744525D01*
X121343528Y-58527481D01*
X121341625Y-58516688D01*
X121285236Y-58306239D01*
X121281490Y-58295947D01*
X121189414Y-58098489D01*
X121183931Y-58088994D01*
X121147491Y-58036952D01*
X121137012Y-58028576D01*
X121123566Y-58035644D01*
X120422022Y-58737188D01*
X120414408Y-58751132D01*
X119684356Y-58751132D01*
X119685592Y-58748868D01*
X119685461Y-58747035D01*
X119681210Y-58740420D01*
X118975713Y-58034923D01*
X118963938Y-58028493D01*
X118951923Y-58037789D01*
X118916069Y-58088994D01*
X118910586Y-58098489D01*
X118818510Y-58295947D01*
X118814764Y-58306239D01*
X118758375Y-58516688D01*
X118756472Y-58527481D01*
X118737483Y-58744525D01*
X118737483Y-58755475D01*
X108250500Y-58755475D01*
X108250500Y-57662988D01*
X119328576Y-57662988D01*
X119335644Y-57676434D01*
X120037188Y-58377978D01*
X120051132Y-58385592D01*
X120052965Y-58385461D01*
X120059580Y-58381210D01*
X120765077Y-57675713D01*
X120771507Y-57663938D01*
X120762211Y-57651923D01*
X120711006Y-57616069D01*
X120701511Y-57610586D01*
X120504053Y-57518510D01*
X120493761Y-57514764D01*
X120283312Y-57458375D01*
X120272519Y-57456472D01*
X120055475Y-57437483D01*
X120044525Y-57437483D01*
X119827481Y-57456472D01*
X119816688Y-57458375D01*
X119606239Y-57514764D01*
X119595947Y-57518510D01*
X119398489Y-57610586D01*
X119388994Y-57616069D01*
X119336952Y-57652509D01*
X119328576Y-57662988D01*
X108250500Y-57662988D01*
X108250500Y-49546346D01*
X108594867Y-49546346D01*
X108620307Y-49869579D01*
X108684948Y-50187304D01*
X108787829Y-50494782D01*
X108927415Y-50787430D01*
X109101625Y-51060885D01*
X109307863Y-51311072D01*
X109543054Y-51534259D01*
X109803691Y-51727121D01*
X109944790Y-51806951D01*
X110082532Y-51884882D01*
X110082536Y-51884884D01*
X110085889Y-51886781D01*
X110089450Y-51888256D01*
X110089452Y-51888257D01*
X110208551Y-51937589D01*
X110385442Y-52010860D01*
X110697883Y-52097507D01*
X111018555Y-52145432D01*
X111021853Y-52145576D01*
X111133257Y-52150440D01*
X111133261Y-52150440D01*
X111134633Y-52150500D01*
X111332354Y-52150500D01*
X111573629Y-52135743D01*
X111577412Y-52135042D01*
X111577419Y-52135041D01*
X111779931Y-52097507D01*
X111892433Y-52076656D01*
X112105785Y-52009386D01*
X112197987Y-51980315D01*
X112197990Y-51980314D01*
X112201659Y-51979157D01*
X112205156Y-51977563D01*
X112205162Y-51977561D01*
X112493191Y-51846299D01*
X112493195Y-51846297D01*
X112496699Y-51844700D01*
X112773153Y-51675289D01*
X112776157Y-51672899D01*
X112776162Y-51672896D01*
X112900027Y-51574369D01*
X113026901Y-51473449D01*
X113029595Y-51470708D01*
X113029599Y-51470704D01*
X113251463Y-51244932D01*
X113254159Y-51242189D01*
X113340945Y-51129088D01*
X113449205Y-50988001D01*
X113449210Y-50987993D01*
X113451540Y-50984957D01*
X113616101Y-50705589D01*
X113745389Y-50408247D01*
X113837476Y-50097366D01*
X113890990Y-49777579D01*
X113905133Y-49453654D01*
X113879693Y-49130421D01*
X113815052Y-48812696D01*
X113712171Y-48505218D01*
X113572585Y-48212570D01*
X113398375Y-47939115D01*
X113192137Y-47688928D01*
X112956946Y-47465741D01*
X112696309Y-47272879D01*
X112555210Y-47193049D01*
X112417468Y-47115118D01*
X112417464Y-47115116D01*
X112414111Y-47113219D01*
X112114558Y-46989140D01*
X111802117Y-46902493D01*
X111481445Y-46854568D01*
X111478147Y-46854424D01*
X111366743Y-46849560D01*
X111366739Y-46849560D01*
X111365367Y-46849500D01*
X111167646Y-46849500D01*
X110926371Y-46864257D01*
X110922588Y-46864958D01*
X110922581Y-46864959D01*
X110796582Y-46888312D01*
X110607567Y-46923344D01*
X110422930Y-46981560D01*
X110302013Y-47019685D01*
X110302010Y-47019686D01*
X110298341Y-47020843D01*
X110294844Y-47022437D01*
X110294838Y-47022439D01*
X110006809Y-47153701D01*
X110006805Y-47153703D01*
X110003301Y-47155300D01*
X110000022Y-47157310D01*
X110000019Y-47157311D01*
X109773306Y-47296241D01*
X109726847Y-47324711D01*
X109723843Y-47327101D01*
X109723838Y-47327104D01*
X109599973Y-47425631D01*
X109473099Y-47526551D01*
X109470405Y-47529292D01*
X109470401Y-47529296D01*
X109355515Y-47646206D01*
X109245841Y-47757811D01*
X109159055Y-47870912D01*
X109050795Y-48011999D01*
X109050790Y-48012007D01*
X109048460Y-48015043D01*
X108883899Y-48294411D01*
X108754611Y-48591753D01*
X108662524Y-48902634D01*
X108609010Y-49222421D01*
X108594867Y-49546346D01*
X108250500Y-49546346D01*
X108250500Y-47783521D01*
X108251203Y-47770228D01*
X108254362Y-47740453D01*
X108254362Y-47740452D01*
X108255309Y-47731525D01*
X108252719Y-47717194D01*
X108250749Y-47691653D01*
X108255165Y-47514037D01*
X108256987Y-47495593D01*
X108291635Y-47296241D01*
X108296141Y-47278269D01*
X108359664Y-47086146D01*
X108366761Y-47069025D01*
X108457776Y-46888312D01*
X108467307Y-46872418D01*
X108583850Y-46707006D01*
X108595608Y-46692684D01*
X108735158Y-46546157D01*
X108748890Y-46533715D01*
X108908423Y-46409248D01*
X108923835Y-46398953D01*
X108965721Y-46375231D01*
X109099897Y-46299239D01*
X109116645Y-46291319D01*
X109305449Y-46218506D01*
X109323175Y-46213130D01*
X109520610Y-46168804D01*
X109538935Y-46166086D01*
X109659563Y-46157190D01*
X109705678Y-46153789D01*
X109727943Y-46154825D01*
X109727994Y-46154253D01*
X109732842Y-46154688D01*
X109737646Y-46155496D01*
X109743562Y-46155568D01*
X109743823Y-46155609D01*
X109744085Y-46155575D01*
X109750000Y-46155647D01*
X109754825Y-46154956D01*
X109759665Y-46154641D01*
X109759669Y-46154695D01*
X109764130Y-46154287D01*
X110189989Y-46137240D01*
X110627162Y-46084518D01*
X110629616Y-46084021D01*
X110629619Y-46084020D01*
X111056257Y-45997522D01*
X111056258Y-45997522D01*
X111058723Y-45997022D01*
X111061144Y-45996326D01*
X111061151Y-45996324D01*
X111340006Y-45916124D01*
X111481910Y-45875312D01*
X111894015Y-45720167D01*
X112011243Y-45664968D01*
X112290115Y-45533658D01*
X112290127Y-45533652D01*
X112292401Y-45532581D01*
X112294587Y-45531329D01*
X112294593Y-45531326D01*
X112508311Y-45408935D01*
X112674519Y-45313752D01*
X112676602Y-45312327D01*
X112676611Y-45312321D01*
X113035855Y-45066498D01*
X113035859Y-45066495D01*
X113037924Y-45065082D01*
X113039864Y-45063513D01*
X113378342Y-44789739D01*
X113378353Y-44789729D01*
X113380292Y-44788161D01*
X113699430Y-44484762D01*
X113993297Y-44156826D01*
X114088008Y-44032408D01*
X114258481Y-43808462D01*
X114260013Y-43806450D01*
X114294978Y-43751976D01*
X114496509Y-43438001D01*
X114496516Y-43437989D01*
X114497871Y-43435878D01*
X114667553Y-43118234D01*
X114704161Y-43049705D01*
X114704166Y-43049694D01*
X114705349Y-43047480D01*
X114881120Y-42643741D01*
X115024058Y-42227245D01*
X115133250Y-41800657D01*
X115203034Y-41395523D01*
X115204711Y-41388477D01*
X115204540Y-41388439D01*
X115205601Y-41383695D01*
X115207027Y-41379039D01*
X115208785Y-41366810D01*
X115208501Y-41342483D01*
X115209711Y-41323533D01*
X115211841Y-41308326D01*
X115211841Y-41308323D01*
X115213086Y-41299436D01*
X115210637Y-41282697D01*
X115209437Y-41258802D01*
X115221083Y-40999784D01*
X115222674Y-40984707D01*
X115269785Y-40702355D01*
X115273175Y-40687579D01*
X115308813Y-40566263D01*
X115353860Y-40412917D01*
X115358995Y-40398671D01*
X115472083Y-40135692D01*
X115478897Y-40122154D01*
X115498503Y-40088424D01*
X115534152Y-40027091D01*
X115622748Y-39874666D01*
X115631141Y-39862041D01*
X115803673Y-39633623D01*
X115813522Y-39622097D01*
X116012242Y-39416051D01*
X116023404Y-39405792D01*
X116084841Y-39355795D01*
X116245424Y-39225112D01*
X116257737Y-39216267D01*
X116499860Y-39063554D01*
X116513147Y-39056252D01*
X116560820Y-39033674D01*
X116771860Y-38933725D01*
X116785917Y-38928076D01*
X117057482Y-38837505D01*
X117072117Y-38833585D01*
X117352576Y-38776290D01*
X117367584Y-38774154D01*
X117396698Y-38771787D01*
X117446705Y-38767721D01*
X117618645Y-38753742D01*
X117645131Y-38754437D01*
X117645513Y-38754434D01*
X117654405Y-38755628D01*
X117678697Y-38751933D01*
X117697644Y-38750500D01*
X144701259Y-38750500D01*
X144720643Y-38752000D01*
G37*
G04 #@! TD.AperFunction*
M02*
