%TF.GenerationSoftware,KiCad,Pcbnew,(6.0.7)*%
%TF.CreationDate,2023-06-20T10:51:48+02:00*%
%TF.ProjectId,SFH203_photodetector,53464832-3033-45f7-9068-6f746f646574,2.2.1*%
%TF.SameCoordinates,Original*%
%TF.FileFunction,Legend,Bot*%
%TF.FilePolarity,Positive*%
%FSLAX46Y46*%
G04 Gerber Fmt 4.6, Leading zero omitted, Abs format (unit mm)*
G04 Created by KiCad (PCBNEW (6.0.7)) date 2023-06-20 10:51:48*
%MOMM*%
%LPD*%
G01*
G04 APERTURE LIST*
%ADD10C,0.200000*%
%ADD11C,0.300000*%
%ADD12C,0.150000*%
%ADD13C,0.250000*%
%ADD14C,0.120000*%
%ADD15C,0.100000*%
G04 APERTURE END LIST*
D10*
X202294761Y-97220476D02*
X202342380Y-97363333D01*
X202342380Y-97601428D01*
X202294761Y-97696666D01*
X202247142Y-97744285D01*
X202151904Y-97791904D01*
X202056666Y-97791904D01*
X201961428Y-97744285D01*
X201913809Y-97696666D01*
X201866190Y-97601428D01*
X201818571Y-97410952D01*
X201770952Y-97315714D01*
X201723333Y-97268095D01*
X201628095Y-97220476D01*
X201532857Y-97220476D01*
X201437619Y-97268095D01*
X201390000Y-97315714D01*
X201342380Y-97410952D01*
X201342380Y-97649047D01*
X201390000Y-97791904D01*
X201818571Y-98553809D02*
X201818571Y-98220476D01*
X202342380Y-98220476D02*
X201342380Y-98220476D01*
X201342380Y-98696666D01*
X202342380Y-99077619D02*
X201342380Y-99077619D01*
X201818571Y-99077619D02*
X201818571Y-99649047D01*
X202342380Y-99649047D02*
X201342380Y-99649047D01*
X201437619Y-100077619D02*
X201390000Y-100125238D01*
X201342380Y-100220476D01*
X201342380Y-100458571D01*
X201390000Y-100553809D01*
X201437619Y-100601428D01*
X201532857Y-100649047D01*
X201628095Y-100649047D01*
X201770952Y-100601428D01*
X202342380Y-100030000D01*
X202342380Y-100649047D01*
X201342380Y-101268095D02*
X201342380Y-101363333D01*
X201390000Y-101458571D01*
X201437619Y-101506190D01*
X201532857Y-101553809D01*
X201723333Y-101601428D01*
X201961428Y-101601428D01*
X202151904Y-101553809D01*
X202247142Y-101506190D01*
X202294761Y-101458571D01*
X202342380Y-101363333D01*
X202342380Y-101268095D01*
X202294761Y-101172857D01*
X202247142Y-101125238D01*
X202151904Y-101077619D01*
X201961428Y-101030000D01*
X201723333Y-101030000D01*
X201532857Y-101077619D01*
X201437619Y-101125238D01*
X201390000Y-101172857D01*
X201342380Y-101268095D01*
X201342380Y-101934761D02*
X201342380Y-102553809D01*
X201723333Y-102220476D01*
X201723333Y-102363333D01*
X201770952Y-102458571D01*
X201818571Y-102506190D01*
X201913809Y-102553809D01*
X202151904Y-102553809D01*
X202247142Y-102506190D01*
X202294761Y-102458571D01*
X202342380Y-102363333D01*
X202342380Y-102077619D01*
X202294761Y-101982380D01*
X202247142Y-101934761D01*
X201675714Y-103744285D02*
X202675714Y-103744285D01*
X201723333Y-103744285D02*
X201675714Y-103839523D01*
X201675714Y-104030000D01*
X201723333Y-104125238D01*
X201770952Y-104172857D01*
X201866190Y-104220476D01*
X202151904Y-104220476D01*
X202247142Y-104172857D01*
X202294761Y-104125238D01*
X202342380Y-104030000D01*
X202342380Y-103839523D01*
X202294761Y-103744285D01*
X202342380Y-104649047D02*
X201342380Y-104649047D01*
X202342380Y-105077619D02*
X201818571Y-105077619D01*
X201723333Y-105030000D01*
X201675714Y-104934761D01*
X201675714Y-104791904D01*
X201723333Y-104696666D01*
X201770952Y-104649047D01*
X202342380Y-105696666D02*
X202294761Y-105601428D01*
X202247142Y-105553809D01*
X202151904Y-105506190D01*
X201866190Y-105506190D01*
X201770952Y-105553809D01*
X201723333Y-105601428D01*
X201675714Y-105696666D01*
X201675714Y-105839523D01*
X201723333Y-105934761D01*
X201770952Y-105982380D01*
X201866190Y-106030000D01*
X202151904Y-106030000D01*
X202247142Y-105982380D01*
X202294761Y-105934761D01*
X202342380Y-105839523D01*
X202342380Y-105696666D01*
X201675714Y-106315714D02*
X201675714Y-106696666D01*
X201342380Y-106458571D02*
X202199523Y-106458571D01*
X202294761Y-106506190D01*
X202342380Y-106601428D01*
X202342380Y-106696666D01*
X202342380Y-107172857D02*
X202294761Y-107077619D01*
X202247142Y-107030000D01*
X202151904Y-106982380D01*
X201866190Y-106982380D01*
X201770952Y-107030000D01*
X201723333Y-107077619D01*
X201675714Y-107172857D01*
X201675714Y-107315714D01*
X201723333Y-107410952D01*
X201770952Y-107458571D01*
X201866190Y-107506190D01*
X202151904Y-107506190D01*
X202247142Y-107458571D01*
X202294761Y-107410952D01*
X202342380Y-107315714D01*
X202342380Y-107172857D01*
X202342380Y-108363333D02*
X201342380Y-108363333D01*
X202294761Y-108363333D02*
X202342380Y-108268095D01*
X202342380Y-108077619D01*
X202294761Y-107982380D01*
X202247142Y-107934761D01*
X202151904Y-107887142D01*
X201866190Y-107887142D01*
X201770952Y-107934761D01*
X201723333Y-107982380D01*
X201675714Y-108077619D01*
X201675714Y-108268095D01*
X201723333Y-108363333D01*
X202294761Y-109220476D02*
X202342380Y-109125238D01*
X202342380Y-108934761D01*
X202294761Y-108839523D01*
X202199523Y-108791904D01*
X201818571Y-108791904D01*
X201723333Y-108839523D01*
X201675714Y-108934761D01*
X201675714Y-109125238D01*
X201723333Y-109220476D01*
X201818571Y-109268095D01*
X201913809Y-109268095D01*
X202009047Y-108791904D01*
X201675714Y-109553809D02*
X201675714Y-109934761D01*
X201342380Y-109696666D02*
X202199523Y-109696666D01*
X202294761Y-109744285D01*
X202342380Y-109839523D01*
X202342380Y-109934761D01*
X202294761Y-110649047D02*
X202342380Y-110553809D01*
X202342380Y-110363333D01*
X202294761Y-110268095D01*
X202199523Y-110220476D01*
X201818571Y-110220476D01*
X201723333Y-110268095D01*
X201675714Y-110363333D01*
X201675714Y-110553809D01*
X201723333Y-110649047D01*
X201818571Y-110696666D01*
X201913809Y-110696666D01*
X202009047Y-110220476D01*
X202294761Y-111553809D02*
X202342380Y-111458571D01*
X202342380Y-111268095D01*
X202294761Y-111172857D01*
X202247142Y-111125238D01*
X202151904Y-111077619D01*
X201866190Y-111077619D01*
X201770952Y-111125238D01*
X201723333Y-111172857D01*
X201675714Y-111268095D01*
X201675714Y-111458571D01*
X201723333Y-111553809D01*
X201675714Y-111839523D02*
X201675714Y-112220476D01*
X201342380Y-111982380D02*
X202199523Y-111982380D01*
X202294761Y-112030000D01*
X202342380Y-112125238D01*
X202342380Y-112220476D01*
X202342380Y-112696666D02*
X202294761Y-112601428D01*
X202247142Y-112553809D01*
X202151904Y-112506190D01*
X201866190Y-112506190D01*
X201770952Y-112553809D01*
X201723333Y-112601428D01*
X201675714Y-112696666D01*
X201675714Y-112839523D01*
X201723333Y-112934761D01*
X201770952Y-112982380D01*
X201866190Y-113030000D01*
X202151904Y-113030000D01*
X202247142Y-112982380D01*
X202294761Y-112934761D01*
X202342380Y-112839523D01*
X202342380Y-112696666D01*
X202342380Y-113458571D02*
X201675714Y-113458571D01*
X201866190Y-113458571D02*
X201770952Y-113506190D01*
X201723333Y-113553809D01*
X201675714Y-113649047D01*
X201675714Y-113744285D01*
X202952380Y-97458571D02*
X202952380Y-97553809D01*
X203000000Y-97649047D01*
X203047619Y-97696666D01*
X203142857Y-97744285D01*
X203333333Y-97791904D01*
X203571428Y-97791904D01*
X203761904Y-97744285D01*
X203857142Y-97696666D01*
X203904761Y-97649047D01*
X203952380Y-97553809D01*
X203952380Y-97458571D01*
X203904761Y-97363333D01*
X203857142Y-97315714D01*
X203761904Y-97268095D01*
X203571428Y-97220476D01*
X203333333Y-97220476D01*
X203142857Y-97268095D01*
X203047619Y-97315714D01*
X203000000Y-97363333D01*
X202952380Y-97458571D01*
X202952380Y-98696666D02*
X202952380Y-98220476D01*
X203428571Y-98172857D01*
X203380952Y-98220476D01*
X203333333Y-98315714D01*
X203333333Y-98553809D01*
X203380952Y-98649047D01*
X203428571Y-98696666D01*
X203523809Y-98744285D01*
X203761904Y-98744285D01*
X203857142Y-98696666D01*
X203904761Y-98649047D01*
X203952380Y-98553809D01*
X203952380Y-98315714D01*
X203904761Y-98220476D01*
X203857142Y-98172857D01*
X202904761Y-99887142D02*
X204190476Y-99030000D01*
X203047619Y-100172857D02*
X203000000Y-100220476D01*
X202952380Y-100315714D01*
X202952380Y-100553809D01*
X203000000Y-100649047D01*
X203047619Y-100696666D01*
X203142857Y-100744285D01*
X203238095Y-100744285D01*
X203380952Y-100696666D01*
X203952380Y-100125238D01*
X203952380Y-100744285D01*
X202952380Y-101363333D02*
X202952380Y-101458571D01*
X203000000Y-101553809D01*
X203047619Y-101601428D01*
X203142857Y-101649047D01*
X203333333Y-101696666D01*
X203571428Y-101696666D01*
X203761904Y-101649047D01*
X203857142Y-101601428D01*
X203904761Y-101553809D01*
X203952380Y-101458571D01*
X203952380Y-101363333D01*
X203904761Y-101268095D01*
X203857142Y-101220476D01*
X203761904Y-101172857D01*
X203571428Y-101125238D01*
X203333333Y-101125238D01*
X203142857Y-101172857D01*
X203047619Y-101220476D01*
X203000000Y-101268095D01*
X202952380Y-101363333D01*
X203047619Y-102077619D02*
X203000000Y-102125238D01*
X202952380Y-102220476D01*
X202952380Y-102458571D01*
X203000000Y-102553809D01*
X203047619Y-102601428D01*
X203142857Y-102649047D01*
X203238095Y-102649047D01*
X203380952Y-102601428D01*
X203952380Y-102030000D01*
X203952380Y-102649047D01*
X202952380Y-102982380D02*
X202952380Y-103601428D01*
X203333333Y-103268095D01*
X203333333Y-103410952D01*
X203380952Y-103506190D01*
X203428571Y-103553809D01*
X203523809Y-103601428D01*
X203761904Y-103601428D01*
X203857142Y-103553809D01*
X203904761Y-103506190D01*
X203952380Y-103410952D01*
X203952380Y-103125238D01*
X203904761Y-103030000D01*
X203857142Y-102982380D01*
X203952380Y-105363333D02*
X203476190Y-105030000D01*
X203952380Y-104791904D02*
X202952380Y-104791904D01*
X202952380Y-105172857D01*
X203000000Y-105268095D01*
X203047619Y-105315714D01*
X203142857Y-105363333D01*
X203285714Y-105363333D01*
X203380952Y-105315714D01*
X203428571Y-105268095D01*
X203476190Y-105172857D01*
X203476190Y-104791904D01*
X203904761Y-106172857D02*
X203952380Y-106077619D01*
X203952380Y-105887142D01*
X203904761Y-105791904D01*
X203809523Y-105744285D01*
X203428571Y-105744285D01*
X203333333Y-105791904D01*
X203285714Y-105887142D01*
X203285714Y-106077619D01*
X203333333Y-106172857D01*
X203428571Y-106220476D01*
X203523809Y-106220476D01*
X203619047Y-105744285D01*
X203285714Y-106553809D02*
X203952380Y-106791904D01*
X203285714Y-107030000D01*
X203857142Y-107410952D02*
X203904761Y-107458571D01*
X203952380Y-107410952D01*
X203904761Y-107363333D01*
X203857142Y-107410952D01*
X203952380Y-107410952D01*
X203047619Y-108601428D02*
X203000000Y-108649047D01*
X202952380Y-108744285D01*
X202952380Y-108982380D01*
X203000000Y-109077619D01*
X203047619Y-109125238D01*
X203142857Y-109172857D01*
X203238095Y-109172857D01*
X203380952Y-109125238D01*
X203952380Y-108553809D01*
X203952380Y-109172857D01*
X203857142Y-109601428D02*
X203904761Y-109649047D01*
X203952380Y-109601428D01*
X203904761Y-109553809D01*
X203857142Y-109601428D01*
X203952380Y-109601428D01*
X203047619Y-110030000D02*
X203000000Y-110077619D01*
X202952380Y-110172857D01*
X202952380Y-110410952D01*
X203000000Y-110506190D01*
X203047619Y-110553809D01*
X203142857Y-110601428D01*
X203238095Y-110601428D01*
X203380952Y-110553809D01*
X203952380Y-109982380D01*
X203952380Y-110601428D01*
X204562380Y-97125238D02*
X204562380Y-97696666D01*
X205562380Y-97410952D02*
X204562380Y-97410952D01*
X205562380Y-98030000D02*
X204895714Y-98030000D01*
X204562380Y-98030000D02*
X204610000Y-97982380D01*
X204657619Y-98030000D01*
X204610000Y-98077619D01*
X204562380Y-98030000D01*
X204657619Y-98030000D01*
X205562380Y-98649047D02*
X205514761Y-98553809D01*
X205419523Y-98506190D01*
X204562380Y-98506190D01*
X205562380Y-99030000D02*
X204895714Y-99030000D01*
X204990952Y-99030000D02*
X204943333Y-99077619D01*
X204895714Y-99172857D01*
X204895714Y-99315714D01*
X204943333Y-99410952D01*
X205038571Y-99458571D01*
X205562380Y-99458571D01*
X205038571Y-99458571D02*
X204943333Y-99506190D01*
X204895714Y-99601428D01*
X204895714Y-99744285D01*
X204943333Y-99839523D01*
X205038571Y-99887142D01*
X205562380Y-99887142D01*
X205562380Y-100791904D02*
X205038571Y-100791904D01*
X204943333Y-100744285D01*
X204895714Y-100649047D01*
X204895714Y-100458571D01*
X204943333Y-100363333D01*
X205514761Y-100791904D02*
X205562380Y-100696666D01*
X205562380Y-100458571D01*
X205514761Y-100363333D01*
X205419523Y-100315714D01*
X205324285Y-100315714D01*
X205229047Y-100363333D01*
X205181428Y-100458571D01*
X205181428Y-100696666D01*
X205133809Y-100791904D01*
X204895714Y-101268095D02*
X205562380Y-101268095D01*
X204990952Y-101268095D02*
X204943333Y-101315714D01*
X204895714Y-101410952D01*
X204895714Y-101553809D01*
X204943333Y-101649047D01*
X205038571Y-101696666D01*
X205562380Y-101696666D01*
X205562380Y-102934761D02*
X204562380Y-102934761D01*
X204562380Y-103315714D01*
X204610000Y-103410952D01*
X204657619Y-103458571D01*
X204752857Y-103506190D01*
X204895714Y-103506190D01*
X204990952Y-103458571D01*
X205038571Y-103410952D01*
X205086190Y-103315714D01*
X205086190Y-102934761D01*
X205562380Y-103934761D02*
X204895714Y-103934761D01*
X205086190Y-103934761D02*
X204990952Y-103982380D01*
X204943333Y-104030000D01*
X204895714Y-104125238D01*
X204895714Y-104220476D01*
X205514761Y-104934761D02*
X205562380Y-104839523D01*
X205562380Y-104649047D01*
X205514761Y-104553809D01*
X205419523Y-104506190D01*
X205038571Y-104506190D01*
X204943333Y-104553809D01*
X204895714Y-104649047D01*
X204895714Y-104839523D01*
X204943333Y-104934761D01*
X205038571Y-104982380D01*
X205133809Y-104982380D01*
X205229047Y-104506190D01*
X204895714Y-105839523D02*
X205562380Y-105839523D01*
X204895714Y-105410952D02*
X205419523Y-105410952D01*
X205514761Y-105458571D01*
X205562380Y-105553809D01*
X205562380Y-105696666D01*
X205514761Y-105791904D01*
X205467142Y-105839523D01*
X205514761Y-106268095D02*
X205562380Y-106363333D01*
X205562380Y-106553809D01*
X205514761Y-106649047D01*
X205419523Y-106696666D01*
X205371904Y-106696666D01*
X205276666Y-106649047D01*
X205229047Y-106553809D01*
X205229047Y-106410952D01*
X205181428Y-106315714D01*
X205086190Y-106268095D01*
X205038571Y-106268095D01*
X204943333Y-106315714D01*
X204895714Y-106410952D01*
X204895714Y-106553809D01*
X204943333Y-106649047D01*
X205514761Y-107553809D02*
X205562380Y-107458571D01*
X205562380Y-107268095D01*
X205514761Y-107172857D01*
X205467142Y-107125238D01*
X205371904Y-107077619D01*
X205086190Y-107077619D01*
X204990952Y-107125238D01*
X204943333Y-107172857D01*
X204895714Y-107268095D01*
X204895714Y-107458571D01*
X204943333Y-107553809D01*
X205562380Y-107982380D02*
X204562380Y-107982380D01*
X205562380Y-108410952D02*
X205038571Y-108410952D01*
X204943333Y-108363333D01*
X204895714Y-108268095D01*
X204895714Y-108125238D01*
X204943333Y-108030000D01*
X204990952Y-107982380D01*
X205562380Y-109030000D02*
X205514761Y-108934761D01*
X205467142Y-108887142D01*
X205371904Y-108839523D01*
X205086190Y-108839523D01*
X204990952Y-108887142D01*
X204943333Y-108934761D01*
X204895714Y-109030000D01*
X204895714Y-109172857D01*
X204943333Y-109268095D01*
X204990952Y-109315714D01*
X205086190Y-109363333D01*
X205371904Y-109363333D01*
X205467142Y-109315714D01*
X205514761Y-109268095D01*
X205562380Y-109172857D01*
X205562380Y-109030000D01*
X204895714Y-109649047D02*
X204895714Y-110030000D01*
X205562380Y-109791904D02*
X204705238Y-109791904D01*
X204610000Y-109839523D01*
X204562380Y-109934761D01*
X204562380Y-110030000D01*
X204895714Y-110220476D02*
X204895714Y-110601428D01*
X205562380Y-110363333D02*
X204705238Y-110363333D01*
X204610000Y-110410952D01*
X204562380Y-110506190D01*
X204562380Y-110601428D01*
D11*
%TO.C,LOGO1*%
X190066666Y-103673809D02*
X190066666Y-104721428D01*
X190695238Y-103464285D02*
X188495238Y-104197619D01*
X190695238Y-104930952D01*
X190695238Y-105664285D02*
X188495238Y-105664285D01*
X188495238Y-106502380D01*
X188600000Y-106711904D01*
X188704761Y-106816666D01*
X188914285Y-106921428D01*
X189228571Y-106921428D01*
X189438095Y-106816666D01*
X189542857Y-106711904D01*
X189647619Y-106502380D01*
X189647619Y-105664285D01*
X190904761Y-109330952D02*
X190800000Y-109121428D01*
X190590476Y-108911904D01*
X190276190Y-108597619D01*
X190171428Y-108388095D01*
X190171428Y-108178571D01*
X190695238Y-108283333D02*
X190590476Y-108073809D01*
X190380952Y-107864285D01*
X189961904Y-107759523D01*
X189228571Y-107759523D01*
X188809523Y-107864285D01*
X188600000Y-108073809D01*
X188495238Y-108283333D01*
X188495238Y-108702380D01*
X188600000Y-108911904D01*
X188809523Y-109121428D01*
X189228571Y-109226190D01*
X189961904Y-109226190D01*
X190380952Y-109121428D01*
X190590476Y-108911904D01*
X190695238Y-108702380D01*
X190695238Y-108283333D01*
D12*
%TO.C,D1*%
X196738095Y-110752380D02*
X196738095Y-109752380D01*
X196500000Y-109752380D01*
X196357142Y-109800000D01*
X196261904Y-109895238D01*
X196214285Y-109990476D01*
X196166666Y-110180952D01*
X196166666Y-110323809D01*
X196214285Y-110514285D01*
X196261904Y-110609523D01*
X196357142Y-110704761D01*
X196500000Y-110752380D01*
X196738095Y-110752380D01*
X195214285Y-110752380D02*
X195785714Y-110752380D01*
X195500000Y-110752380D02*
X195500000Y-109752380D01*
X195595238Y-109895238D01*
X195690476Y-109990476D01*
X195785714Y-110038095D01*
D13*
%TO.C,LOGO1*%
X189825000Y-101700000D02*
G75*
G03*
X189825000Y-101700000I-125000J0D01*
G01*
X188825000Y-100700000D02*
G75*
G03*
X188825000Y-100700000I-125000J0D01*
G01*
X190825000Y-101700000D02*
G75*
G03*
X190825000Y-101700000I-125000J0D01*
G01*
X190825000Y-100700000D02*
G75*
G03*
X190825000Y-100700000I-125000J0D01*
G01*
X189825000Y-102700000D02*
G75*
G03*
X189825000Y-102700000I-125000J0D01*
G01*
X189825000Y-100700000D02*
G75*
G03*
X189825000Y-100700000I-125000J0D01*
G01*
X188825000Y-102700000D02*
G75*
G03*
X188825000Y-102700000I-125000J0D01*
G01*
X190825000Y-102700000D02*
G75*
G03*
X190825000Y-102700000I-125000J0D01*
G01*
X188825000Y-101700000D02*
G75*
G03*
X188825000Y-101700000I-125000J0D01*
G01*
D14*
%TO.C,D1*%
X200672500Y-104970000D02*
X199912500Y-105730000D01*
X199532500Y-105100000D02*
X199782500Y-105100000D01*
D15*
X198792500Y-109420000D02*
X195192500Y-109420000D01*
D14*
X199912500Y-105730000D02*
X200162500Y-105730000D01*
X200292500Y-104330000D02*
X199532500Y-105100000D01*
X199912500Y-105730000D02*
X199912500Y-105480000D01*
X199532500Y-105100000D02*
X199532500Y-104840000D01*
X198792500Y-109400000D02*
G75*
G03*
X195202560Y-109407512I-1800000J2400000D01*
G01*
%TD*%
M02*
