M48
; DRILL file {KiCad 5.1.6} date Wed Sep 30 00:16:55 2020
; FORMAT={-:-/ absolute / metric / decimal}
; #@! TF.CreationDate,2020-09-30T00:16:55+02:00
; #@! TF.GenerationSoftware,Kicad,Pcbnew,5.1.6
; #@! TF.FileFunction,Plated,1,2,PTH
FMAT,2
METRIC
T1C0.300
T2C0.400
T3C0.700
T4C0.800
T5C0.900
T6C1.000
T7C1.500
T8C1.700
%
G90
G05
T1
X123.35Y-65.45
X134.915Y-72.515
X141.55Y-59.15
X141.55Y-69.35
X142.65Y-74.45
X144.05Y-66.35
X144.55Y-59.15
X147.75Y-69.75
X148.15Y-74.55
T2
X124.05Y-72.65
X124.95Y-70.05
X126.85Y-69.55
X136.85Y-69.95
T3
X132.35Y-79.25
T4
X120.05Y-63.75
X120.05Y-68.75
T5
X129.79Y-79.25
T6
X151.25Y-64.21
X151.25Y-66.75
X151.25Y-69.29
T7
X112.25Y-63.75
T8
X109.71Y-61.21
X109.71Y-66.29
X114.79Y-61.21
X114.79Y-66.29
T0
M30
