G04 #@! TF.GenerationSoftware,KiCad,Pcbnew,(6.0.1)*
G04 #@! TF.CreationDate,2022-09-05T01:03:02+02:00*
G04 #@! TF.ProjectId,SFH203_photodetector,53464832-3033-45f7-9068-6f746f646574,1.5*
G04 #@! TF.SameCoordinates,Original*
G04 #@! TF.FileFunction,Copper,L1,Top*
G04 #@! TF.FilePolarity,Positive*
%FSLAX46Y46*%
G04 Gerber Fmt 4.6, Leading zero omitted, Abs format (unit mm)*
G04 Created by KiCad (PCBNEW (6.0.1)) date 2022-09-05 01:03:02*
%MOMM*%
%LPD*%
G01*
G04 APERTURE LIST*
G04 Aperture macros list*
%AMRoundRect*
0 Rectangle with rounded corners*
0 $1 Rounding radius*
0 $2 $3 $4 $5 $6 $7 $8 $9 X,Y pos of 4 corners*
0 Add a 4 corners polygon primitive as box body*
4,1,4,$2,$3,$4,$5,$6,$7,$8,$9,$2,$3,0*
0 Add four circle primitives for the rounded corners*
1,1,$1+$1,$2,$3*
1,1,$1+$1,$4,$5*
1,1,$1+$1,$6,$7*
1,1,$1+$1,$8,$9*
0 Add four rect primitives between the rounded corners*
20,1,$1+$1,$2,$3,$4,$5,0*
20,1,$1+$1,$4,$5,$6,$7,0*
20,1,$1+$1,$6,$7,$8,$9,0*
20,1,$1+$1,$8,$9,$2,$3,0*%
%AMFreePoly0*
4,1,38,0.670671,0.870970,0.751777,0.816777,0.805970,0.735671,0.825000,0.640000,0.825000,-0.640000,0.805970,-0.735671,0.751777,-0.816777,0.670671,-0.870970,0.575000,-0.890000,-0.780000,-0.890000,-0.880000,-0.915000,-1.750000,-0.915000,-1.750000,-0.665000,-1.075500,-0.665000,-1.075436,-0.664844,-1.075387,-0.664683,-1.075364,-0.664671,-1.075354,-0.664646,-1.075199,-0.664582,-1.075050,-0.664502,
-1.025101,-0.659508,-0.977199,-0.644539,-0.935281,-0.621584,-0.897355,-0.590644,-0.866421,-0.551727,-0.844465,-0.510809,-0.830492,-0.463901,-0.825497,-0.414950,-0.825420,-0.414807,-0.825354,-0.414646,-0.825329,-0.414636,-0.825316,-0.414612,-0.825157,-0.414565,-0.825000,-0.414500,-0.825000,0.640000,-0.575000,0.890000,0.575000,0.890000,0.670671,0.870970,0.670671,0.870970,$1*%
%AMFreePoly1*
4,1,25,0.670671,0.515970,0.751777,0.461777,0.805970,0.380671,0.825000,0.285000,0.825000,0.270000,1.750000,0.270000,1.750000,0.020000,0.825000,0.020000,0.825000,-0.285000,0.805970,-0.380671,0.751777,-0.461777,0.670671,-0.515970,0.575000,-0.535000,-0.575000,-0.535000,-0.670671,-0.515970,-0.751777,-0.461777,-0.805970,-0.380671,-0.825000,-0.285000,-0.825000,0.285000,-0.805970,0.380671,
-0.751777,0.461777,-0.670671,0.515970,-0.575000,0.535000,0.575000,0.535000,0.670671,0.515970,0.670671,0.515970,$1*%
G04 Aperture macros list end*
G04 #@! TA.AperFunction,SMDPad,CuDef*
%ADD10RoundRect,0.250000X1.075000X-0.375000X1.075000X0.375000X-1.075000X0.375000X-1.075000X-0.375000X0*%
G04 #@! TD*
G04 #@! TA.AperFunction,SMDPad,CuDef*
%ADD11RoundRect,0.218750X-0.256250X0.218750X-0.256250X-0.218750X0.256250X-0.218750X0.256250X0.218750X0*%
G04 #@! TD*
G04 #@! TA.AperFunction,SMDPad,CuDef*
%ADD12RoundRect,0.218750X0.218750X0.256250X-0.218750X0.256250X-0.218750X-0.256250X0.218750X-0.256250X0*%
G04 #@! TD*
G04 #@! TA.AperFunction,SMDPad,CuDef*
%ADD13RoundRect,0.243750X-0.456250X0.243750X-0.456250X-0.243750X0.456250X-0.243750X0.456250X0.243750X0*%
G04 #@! TD*
G04 #@! TA.AperFunction,ComponentPad*
%ADD14C,1.600000*%
G04 #@! TD*
G04 #@! TA.AperFunction,SMDPad,CuDef*
%ADD15RoundRect,0.218750X-0.218750X-0.256250X0.218750X-0.256250X0.218750X0.256250X-0.218750X0.256250X0*%
G04 #@! TD*
G04 #@! TA.AperFunction,SMDPad,CuDef*
%ADD16R,0.700000X0.250000*%
G04 #@! TD*
G04 #@! TA.AperFunction,SMDPad,CuDef*
%ADD17FreePoly0,0.000000*%
G04 #@! TD*
G04 #@! TA.AperFunction,SMDPad,CuDef*
%ADD18FreePoly1,0.000000*%
G04 #@! TD*
G04 #@! TA.AperFunction,ComponentPad*
%ADD19R,1.700000X1.700000*%
G04 #@! TD*
G04 #@! TA.AperFunction,ComponentPad*
%ADD20O,1.700000X1.700000*%
G04 #@! TD*
G04 #@! TA.AperFunction,SMDPad,CuDef*
%ADD21RoundRect,0.250000X-0.375000X-0.625000X0.375000X-0.625000X0.375000X0.625000X-0.375000X0.625000X0*%
G04 #@! TD*
G04 #@! TA.AperFunction,ComponentPad*
%ADD22C,2.250000*%
G04 #@! TD*
G04 #@! TA.AperFunction,SMDPad,CuDef*
%ADD23RoundRect,0.150000X-0.825000X-0.150000X0.825000X-0.150000X0.825000X0.150000X-0.825000X0.150000X0*%
G04 #@! TD*
G04 #@! TA.AperFunction,SMDPad,CuDef*
%ADD24R,2.410000X3.810000*%
G04 #@! TD*
G04 #@! TA.AperFunction,ComponentPad*
%ADD25C,1.300000*%
G04 #@! TD*
G04 #@! TA.AperFunction,ComponentPad*
%ADD26C,1.100000*%
G04 #@! TD*
G04 #@! TA.AperFunction,ViaPad*
%ADD27C,0.600000*%
G04 #@! TD*
G04 #@! TA.AperFunction,Conductor*
%ADD28C,0.500000*%
G04 #@! TD*
G04 #@! TA.AperFunction,Conductor*
%ADD29C,0.200000*%
G04 #@! TD*
G04 #@! TA.AperFunction,Conductor*
%ADD30C,0.250000*%
G04 #@! TD*
G04 APERTURE END LIST*
D10*
X139850000Y-61950000D03*
X139850000Y-59150000D03*
X141050000Y-74450000D03*
X141050000Y-71650000D03*
D11*
X122789400Y-68928200D03*
X122789400Y-70503200D03*
D12*
X129237500Y-74550000D03*
X127662500Y-74550000D03*
D13*
X124550000Y-63812500D03*
X124550000Y-65687500D03*
D14*
X120050000Y-63750000D03*
X120050000Y-58750000D03*
D15*
X131562500Y-67050000D03*
X133137500Y-67050000D03*
D11*
X124440400Y-68928400D03*
X124440400Y-70503400D03*
D10*
X146250000Y-61950000D03*
X146250000Y-59150000D03*
X146450000Y-74550000D03*
X146450000Y-71750000D03*
D11*
X140950000Y-65562500D03*
X140950000Y-67137500D03*
D16*
X142650000Y-65650000D03*
X142650000Y-66150000D03*
X142650000Y-66650000D03*
D17*
X144050000Y-66360000D03*
D16*
X142650000Y-67650000D03*
X142650000Y-68150000D03*
X142650000Y-68650000D03*
X145450000Y-68650000D03*
D18*
X144050000Y-68295000D03*
D16*
X145450000Y-67650000D03*
X145450000Y-67150000D03*
X145450000Y-66650000D03*
X145450000Y-66150000D03*
X145450000Y-65650000D03*
D11*
X147750000Y-67162500D03*
X147750000Y-68737500D03*
D19*
X151250000Y-64210000D03*
D20*
X151250000Y-66750000D03*
X151250000Y-69290000D03*
D21*
X127050000Y-63750000D03*
X129850000Y-63750000D03*
D22*
X112250000Y-63750000D03*
X114790000Y-61210000D03*
X114790000Y-66290000D03*
X109710000Y-66290000D03*
X109710000Y-61210000D03*
D23*
X127666200Y-68995000D03*
X127666200Y-70265000D03*
X127666200Y-71535000D03*
X127666200Y-72805000D03*
X132616200Y-72805000D03*
X132616200Y-71535000D03*
X132616200Y-70265000D03*
X132616200Y-68995000D03*
D24*
X130141200Y-70900000D03*
D25*
X129790000Y-79250000D03*
D26*
X132350000Y-79250000D03*
D27*
X136850000Y-67250000D03*
X134350000Y-67250000D03*
X136050000Y-70250000D03*
X134650000Y-70250000D03*
X130250000Y-67050000D03*
X130450000Y-74550000D03*
X125850000Y-71528400D03*
X123350000Y-65450000D03*
X141550000Y-59150000D03*
X144050000Y-66350000D03*
X148150000Y-74550000D03*
X142650000Y-74450000D03*
X144550000Y-59150000D03*
X141550000Y-69349982D03*
X147750000Y-69750000D03*
D28*
X140937500Y-65550000D02*
X140950000Y-65562500D01*
X139050000Y-65550000D02*
X140937500Y-65550000D01*
X137350000Y-67250000D02*
X139050000Y-65550000D01*
X134150000Y-67050000D02*
X134350000Y-67250000D01*
X136850000Y-67250000D02*
X137350000Y-67250000D01*
X133137500Y-67050000D02*
X134150000Y-67050000D01*
D29*
X133750000Y-63750000D02*
X129850000Y-63750000D01*
X136050000Y-66050000D02*
X133750000Y-63750000D01*
X136050000Y-70250000D02*
X136050000Y-66050000D01*
X134250000Y-70250000D02*
X134650000Y-70250000D01*
X134150000Y-70350000D02*
X134250000Y-70250000D01*
X134150000Y-70350000D02*
X134065000Y-70265000D01*
X134350000Y-70550000D02*
X134150000Y-70350000D01*
X134065000Y-70265000D02*
X132616200Y-70265000D01*
X134350000Y-71250000D02*
X134350000Y-70550000D01*
X134065000Y-71535000D02*
X134350000Y-71250000D01*
X132616200Y-71535000D02*
X134065000Y-71535000D01*
D30*
X134495000Y-72805000D02*
X132616200Y-72805000D01*
X135350000Y-71950000D02*
X134495000Y-72805000D01*
X135350000Y-67050000D02*
X135350000Y-71950000D01*
X133850000Y-65550000D02*
X135350000Y-67050000D01*
X127250000Y-65550000D02*
X133850000Y-65550000D01*
X124440400Y-68359600D02*
X127250000Y-65550000D01*
X124440400Y-68928400D02*
X124440400Y-68359600D01*
D28*
X133137500Y-68473700D02*
X132616200Y-68995000D01*
X133137500Y-67050000D02*
X133137500Y-68473700D01*
X131562500Y-67050000D02*
X130250000Y-67050000D01*
D29*
X124440400Y-76015600D02*
X124440400Y-70503400D01*
X125380200Y-76955400D02*
X124440400Y-76015600D01*
X129790000Y-78200000D02*
X128545400Y-76955400D01*
X129790000Y-79250000D02*
X129790000Y-78200000D01*
X128545400Y-76955400D02*
X125380200Y-76955400D01*
D28*
X129237500Y-74550000D02*
X130450000Y-74550000D01*
X131450000Y-74050000D02*
X131450000Y-75550000D01*
X130141200Y-72741200D02*
X131450000Y-74050000D01*
X130141200Y-70900000D02*
X130141200Y-72741200D01*
X128150000Y-75550000D02*
X131450000Y-75550000D01*
X131450000Y-75550000D02*
X133950000Y-75550000D01*
X137850000Y-71650000D02*
X133950000Y-75550000D01*
X141050000Y-71650000D02*
X137850000Y-71650000D01*
X127662500Y-75062500D02*
X128150000Y-75550000D01*
X127662500Y-74550000D02*
X127662500Y-75062500D01*
X127666200Y-72805000D02*
X127666200Y-74546300D01*
X127666200Y-74546300D02*
X127662500Y-74550000D01*
D30*
X127666200Y-68995000D02*
X124507000Y-68995000D01*
D29*
X125650000Y-70528400D02*
X124465400Y-70528400D01*
X125913400Y-70265000D02*
X125650000Y-70528400D01*
X127666200Y-70265000D02*
X125913400Y-70265000D01*
X127666200Y-71535000D02*
X125856600Y-71535000D01*
X145450000Y-66650000D02*
X146000000Y-66650000D01*
D30*
X145450000Y-65650000D02*
X145450000Y-64750000D01*
D29*
X146350000Y-66300000D02*
X146350000Y-66000000D01*
X146350000Y-66000000D02*
X146000000Y-65650000D01*
X146000000Y-65650000D02*
X145450000Y-65650000D01*
X146000000Y-66650000D02*
X146350000Y-66300000D01*
X142077506Y-67122494D02*
X143287506Y-67122494D01*
D28*
X146450000Y-74550000D02*
X148150000Y-74550000D01*
D29*
X144050000Y-66360000D02*
X144050000Y-66350000D01*
X141850000Y-67550000D02*
X141850000Y-67350000D01*
X141950000Y-67650000D02*
X141850000Y-67550000D01*
D28*
X124550000Y-65687500D02*
X123587500Y-65687500D01*
D29*
X142650000Y-67650000D02*
X141950000Y-67650000D01*
X143287506Y-67122494D02*
X144050000Y-66360000D01*
D28*
X141050000Y-74450000D02*
X142650000Y-74450000D01*
X123587500Y-65687500D02*
X123350000Y-65450000D01*
X146250000Y-59150000D02*
X144550000Y-59150000D01*
X139850000Y-59150000D02*
X141550000Y-59150000D01*
D29*
X141850000Y-67350000D02*
X142077506Y-67122494D01*
X142050000Y-66650000D02*
X141562500Y-67137500D01*
X142650000Y-66650000D02*
X142050000Y-66650000D01*
X141562500Y-67137500D02*
X140950000Y-67137500D01*
X142650000Y-65650000D02*
X141037500Y-65650000D01*
D28*
X140950000Y-65562500D02*
X140950000Y-63050000D01*
D29*
X141037500Y-65650000D02*
X140950000Y-65562500D01*
D28*
X140950000Y-63050000D02*
X139850000Y-61950000D01*
D29*
X138150000Y-71650000D02*
X138150000Y-74652081D01*
D28*
X141050000Y-69849982D02*
X141550000Y-69349982D01*
D29*
X133552081Y-79250000D02*
X132350000Y-79250000D01*
X142650000Y-68650000D02*
X142249982Y-68650000D01*
X141550000Y-69349982D02*
X142249982Y-68650000D01*
X147750000Y-68737500D02*
X147750000Y-69750000D01*
X138150000Y-74652081D02*
X133552081Y-79250000D01*
D28*
X141050000Y-71650000D02*
X141050000Y-69849982D01*
D29*
X145450000Y-67150000D02*
X146050000Y-67150000D01*
X146950000Y-67050000D02*
X147062500Y-67162500D01*
X147062500Y-67162500D02*
X147750000Y-67162500D01*
X146050000Y-67150000D02*
X146150000Y-67050000D01*
X146150000Y-67050000D02*
X146950000Y-67050000D01*
X124440400Y-70503400D02*
X122789600Y-70503400D01*
D30*
X124440400Y-68928400D02*
X122789600Y-68928400D01*
D28*
X119850000Y-63750000D02*
X124550000Y-63750000D01*
X112250000Y-63750000D02*
X119850000Y-63750000D01*
X124550000Y-63750000D02*
X127250000Y-63750000D01*
D29*
X144050000Y-68295000D02*
X144705000Y-68295000D01*
X145450000Y-67650000D02*
X146150000Y-67650000D01*
X144705000Y-68295000D02*
X144850000Y-68150000D01*
X146150000Y-67650000D02*
X146250000Y-67750000D01*
X144850000Y-68150000D02*
X146150000Y-68150000D01*
X146250000Y-67850000D02*
X146250000Y-68050000D01*
X143905000Y-68150000D02*
X144050000Y-68295000D01*
X146250000Y-68050000D02*
X146150000Y-68150000D01*
X146250000Y-67750000D02*
X146250000Y-67850000D01*
X142650000Y-68150000D02*
X143905000Y-68150000D01*
G04 #@! TA.AperFunction,Conductor*
G36*
X149981084Y-67269685D02*
G01*
X150026427Y-67321595D01*
X150075965Y-67427829D01*
X150079072Y-67432266D01*
X150079073Y-67432268D01*
X150208399Y-67616966D01*
X150208403Y-67616970D01*
X150211505Y-67621401D01*
X150378599Y-67788495D01*
X150383038Y-67791604D01*
X150383039Y-67791604D01*
X150558579Y-67914519D01*
X150602204Y-67969096D01*
X150609398Y-68038594D01*
X150577875Y-68100949D01*
X150544712Y-68126084D01*
X150528385Y-68134583D01*
X150519804Y-68139987D01*
X150349368Y-68267954D01*
X150341780Y-68274691D01*
X150194532Y-68428778D01*
X150188153Y-68436655D01*
X150068050Y-68612719D01*
X150063035Y-68621547D01*
X149973301Y-68814864D01*
X149969799Y-68824382D01*
X149914338Y-69024366D01*
X149915838Y-69032660D01*
X149928025Y-69036000D01*
X152568629Y-69036000D01*
X152581946Y-69032090D01*
X152583232Y-69023151D01*
X152541193Y-68855790D01*
X152537930Y-68846207D01*
X152452940Y-68650741D01*
X152448149Y-68641805D01*
X152332378Y-68462852D01*
X152326194Y-68454822D01*
X152182751Y-68297180D01*
X152175333Y-68290263D01*
X152008076Y-68158172D01*
X151999625Y-68152557D01*
X151951055Y-68125744D01*
X151901878Y-68076111D01*
X151887341Y-68007771D01*
X151912060Y-67942420D01*
X151939860Y-67915612D01*
X152116961Y-67791604D01*
X152116962Y-67791604D01*
X152121401Y-67788495D01*
X152288495Y-67621401D01*
X152291597Y-67616970D01*
X152291601Y-67616966D01*
X152420927Y-67432268D01*
X152420928Y-67432266D01*
X152424035Y-67427829D01*
X152473573Y-67321595D01*
X152519745Y-67269156D01*
X152585955Y-67250000D01*
X154106701Y-67250000D01*
X154173740Y-67269685D01*
X154219495Y-67322489D01*
X154230701Y-67374225D01*
X154215552Y-75675178D01*
X154213816Y-76626226D01*
X154194009Y-76693230D01*
X154141122Y-76738888D01*
X154089816Y-76750000D01*
X142374000Y-76750000D01*
X142306961Y-76730315D01*
X142261206Y-76677511D01*
X142250000Y-76626000D01*
X142250000Y-75663838D01*
X142269685Y-75596799D01*
X142322489Y-75551044D01*
X142334736Y-75546219D01*
X142445529Y-75509256D01*
X142496273Y-75477855D01*
X142588220Y-75420957D01*
X142588224Y-75420954D01*
X142594345Y-75417166D01*
X142657069Y-75354332D01*
X142712894Y-75298410D01*
X142712894Y-75298409D01*
X142717984Y-75293311D01*
X142721766Y-75287176D01*
X142722658Y-75286046D01*
X142779655Y-75245634D01*
X142798385Y-75241625D01*
X142798284Y-75241135D01*
X142805079Y-75239740D01*
X142811981Y-75239112D01*
X142982782Y-75183615D01*
X143137044Y-75091657D01*
X143143029Y-75085958D01*
X143259687Y-74974866D01*
X144624500Y-74974866D01*
X144635359Y-75079519D01*
X144637507Y-75085956D01*
X144637507Y-75085958D01*
X144688464Y-75238695D01*
X144690744Y-75245529D01*
X144715817Y-75286046D01*
X144779043Y-75388220D01*
X144779046Y-75388224D01*
X144782834Y-75394345D01*
X144906689Y-75517984D01*
X145055666Y-75609814D01*
X145221772Y-75664910D01*
X145276316Y-75670498D01*
X145321987Y-75675178D01*
X145321995Y-75675178D01*
X145325134Y-75675500D01*
X147574866Y-75675500D01*
X147679519Y-75664641D01*
X147685956Y-75662493D01*
X147685958Y-75662493D01*
X147838695Y-75611536D01*
X147845529Y-75609256D01*
X147900078Y-75575500D01*
X147988220Y-75520957D01*
X147988224Y-75520954D01*
X147994345Y-75517166D01*
X148117984Y-75393311D01*
X148118197Y-75393524D01*
X148171911Y-75355440D01*
X148200990Y-75349213D01*
X148262225Y-75343640D01*
X148311981Y-75339112D01*
X148482782Y-75283615D01*
X148637044Y-75191657D01*
X148685483Y-75145529D01*
X148762080Y-75072587D01*
X148762082Y-75072585D01*
X148767099Y-75067807D01*
X148866483Y-74918222D01*
X148930257Y-74750336D01*
X148955251Y-74572493D01*
X148955565Y-74550000D01*
X148935546Y-74371528D01*
X148876485Y-74201927D01*
X148781316Y-74049625D01*
X148718043Y-73985909D01*
X148659653Y-73927110D01*
X148659652Y-73927109D01*
X148654770Y-73922193D01*
X148503136Y-73825963D01*
X148482121Y-73818480D01*
X148340479Y-73768043D01*
X148340475Y-73768042D01*
X148333951Y-73765719D01*
X148196687Y-73749351D01*
X148132451Y-73721868D01*
X148118212Y-73707345D01*
X148117166Y-73705655D01*
X147993311Y-73582016D01*
X147844334Y-73490186D01*
X147678228Y-73435090D01*
X147623684Y-73429502D01*
X147578013Y-73424822D01*
X147578005Y-73424822D01*
X147574866Y-73424500D01*
X145325134Y-73424500D01*
X145220481Y-73435359D01*
X145214044Y-73437507D01*
X145214042Y-73437507D01*
X145091962Y-73478236D01*
X145054471Y-73490744D01*
X145003727Y-73522145D01*
X144911780Y-73579043D01*
X144911776Y-73579046D01*
X144905655Y-73582834D01*
X144782016Y-73706689D01*
X144778237Y-73712820D01*
X144778236Y-73712821D01*
X144771570Y-73723636D01*
X144690186Y-73855666D01*
X144635090Y-74021772D01*
X144631634Y-74055503D01*
X144626878Y-74101927D01*
X144624500Y-74125134D01*
X144624500Y-74974866D01*
X143259687Y-74974866D01*
X143262080Y-74972587D01*
X143262082Y-74972585D01*
X143267099Y-74967807D01*
X143366483Y-74818222D01*
X143430257Y-74650336D01*
X143455251Y-74472493D01*
X143455565Y-74450000D01*
X143435546Y-74271528D01*
X143376485Y-74101927D01*
X143281316Y-73949625D01*
X143154770Y-73822193D01*
X143003136Y-73725963D01*
X142966229Y-73712821D01*
X142840479Y-73668043D01*
X142840475Y-73668042D01*
X142833951Y-73665719D01*
X142820684Y-73664137D01*
X142807124Y-73662520D01*
X142742888Y-73635035D01*
X142724631Y-73616415D01*
X142720952Y-73611773D01*
X142717166Y-73605655D01*
X142712076Y-73600574D01*
X142712073Y-73600570D01*
X142598409Y-73487105D01*
X142598408Y-73487105D01*
X142593311Y-73482016D01*
X142444334Y-73390186D01*
X142437499Y-73387919D01*
X142437497Y-73387918D01*
X142334961Y-73353907D01*
X142277528Y-73314118D01*
X142250724Y-73249594D01*
X142250000Y-73236213D01*
X142250000Y-72863838D01*
X142269685Y-72796799D01*
X142322489Y-72751044D01*
X142334736Y-72746219D01*
X142445529Y-72709256D01*
X142496273Y-72677855D01*
X142588220Y-72620957D01*
X142588224Y-72620954D01*
X142594345Y-72617166D01*
X142717984Y-72493311D01*
X142809814Y-72344334D01*
X142864910Y-72178228D01*
X142865531Y-72172165D01*
X144617001Y-72172165D01*
X144617331Y-72178541D01*
X144627268Y-72274318D01*
X144630114Y-72287494D01*
X144681627Y-72441900D01*
X144687698Y-72454859D01*
X144773126Y-72592909D01*
X144782016Y-72604125D01*
X144896906Y-72718816D01*
X144908145Y-72727692D01*
X145046348Y-72812881D01*
X145059307Y-72818924D01*
X145213814Y-72870172D01*
X145226980Y-72872994D01*
X145321490Y-72882678D01*
X145327798Y-72883000D01*
X146178170Y-72883000D01*
X146193169Y-72878596D01*
X146194356Y-72877226D01*
X146196000Y-72869668D01*
X146196000Y-72865169D01*
X146704000Y-72865169D01*
X146708404Y-72880168D01*
X146709774Y-72881355D01*
X146717332Y-72882999D01*
X147572165Y-72882999D01*
X147578541Y-72882669D01*
X147674318Y-72872732D01*
X147687494Y-72869886D01*
X147841900Y-72818373D01*
X147854859Y-72812302D01*
X147992909Y-72726874D01*
X148004125Y-72717984D01*
X148118816Y-72603094D01*
X148127692Y-72591855D01*
X148212881Y-72453652D01*
X148218924Y-72440693D01*
X148270172Y-72286186D01*
X148272994Y-72273020D01*
X148282678Y-72178510D01*
X148283000Y-72172202D01*
X148283000Y-72021830D01*
X148278596Y-72006831D01*
X148277226Y-72005644D01*
X148269668Y-72004000D01*
X146721830Y-72004000D01*
X146706831Y-72008404D01*
X146705644Y-72009774D01*
X146704000Y-72017332D01*
X146704000Y-72865169D01*
X146196000Y-72865169D01*
X146196000Y-72021830D01*
X146191596Y-72006831D01*
X146190226Y-72005644D01*
X146182668Y-72004000D01*
X144634831Y-72004000D01*
X144619832Y-72008404D01*
X144618645Y-72009774D01*
X144617001Y-72017332D01*
X144617001Y-72172165D01*
X142865531Y-72172165D01*
X142875500Y-72074866D01*
X142875500Y-71478170D01*
X144617000Y-71478170D01*
X144621404Y-71493169D01*
X144622774Y-71494356D01*
X144630332Y-71496000D01*
X146178170Y-71496000D01*
X146193169Y-71491596D01*
X146194356Y-71490226D01*
X146196000Y-71482668D01*
X146196000Y-70634831D01*
X146191596Y-70619832D01*
X146190226Y-70618645D01*
X146182668Y-70617001D01*
X145327835Y-70617001D01*
X145321459Y-70617331D01*
X145225682Y-70627268D01*
X145212506Y-70630114D01*
X145058100Y-70681627D01*
X145045141Y-70687698D01*
X144907091Y-70773126D01*
X144895875Y-70782016D01*
X144781184Y-70896906D01*
X144772308Y-70908145D01*
X144687119Y-71046348D01*
X144681076Y-71059307D01*
X144629828Y-71213814D01*
X144627006Y-71226980D01*
X144617322Y-71321490D01*
X144617000Y-71327798D01*
X144617000Y-71478170D01*
X142875500Y-71478170D01*
X142875500Y-71225134D01*
X142864641Y-71120481D01*
X142839909Y-71046348D01*
X142811536Y-70961305D01*
X142809256Y-70954471D01*
X142772996Y-70895875D01*
X142720957Y-70811780D01*
X142720954Y-70811776D01*
X142717166Y-70805655D01*
X142593311Y-70682016D01*
X142444334Y-70590186D01*
X142437499Y-70587919D01*
X142437497Y-70587918D01*
X142334961Y-70553907D01*
X142277528Y-70514118D01*
X142250724Y-70449594D01*
X142250000Y-70436213D01*
X142250000Y-69778584D01*
X142263533Y-69722644D01*
X142266483Y-69718204D01*
X142330257Y-69550318D01*
X142345963Y-69438565D01*
X142374786Y-69374918D01*
X142381075Y-69368142D01*
X142437398Y-69311819D01*
X142498721Y-69278334D01*
X142525079Y-69275500D01*
X143012143Y-69275499D01*
X143047376Y-69275499D01*
X143108580Y-69268851D01*
X143242824Y-69218526D01*
X143249889Y-69213231D01*
X143249891Y-69213230D01*
X143350481Y-69137841D01*
X143357546Y-69132546D01*
X143391083Y-69087798D01*
X143438230Y-69024891D01*
X143438231Y-69024889D01*
X143443526Y-69017824D01*
X143449895Y-69000836D01*
X143458368Y-68978232D01*
X143493851Y-68883580D01*
X143500500Y-68822377D01*
X143500499Y-68477624D01*
X143495841Y-68434742D01*
X143498480Y-68392665D01*
X143502092Y-68377477D01*
X143507637Y-68326427D01*
X143508000Y-68319729D01*
X143508000Y-68292830D01*
X143503596Y-68277831D01*
X143502226Y-68276644D01*
X143481641Y-68272166D01*
X143482174Y-68269715D01*
X143433135Y-68255315D01*
X143400926Y-68225336D01*
X143400177Y-68224336D01*
X143375743Y-68158879D01*
X143390577Y-68090602D01*
X143400177Y-68075664D01*
X143400927Y-68074663D01*
X143456871Y-68032807D01*
X143474256Y-68029673D01*
X143505168Y-68020596D01*
X143506355Y-68019226D01*
X143507999Y-68011668D01*
X143507999Y-67980274D01*
X143507636Y-67973569D01*
X143502092Y-67922523D01*
X143498717Y-67908330D01*
X143502361Y-67838555D01*
X143543149Y-67781827D01*
X143608131Y-67756156D01*
X143619354Y-67755647D01*
X144473415Y-67755647D01*
X144540454Y-67775332D01*
X144586209Y-67828136D01*
X144596690Y-67866258D01*
X144597908Y-67877477D01*
X144601478Y-67892488D01*
X144646727Y-68013190D01*
X144655127Y-68028532D01*
X144695114Y-68081888D01*
X144719567Y-68147339D01*
X144704753Y-68215620D01*
X144695114Y-68230619D01*
X144662084Y-68274691D01*
X144656474Y-68282176D01*
X144606149Y-68416420D01*
X144599500Y-68477623D01*
X144599501Y-68822376D01*
X144606149Y-68883580D01*
X144642109Y-68979504D01*
X144650106Y-69000836D01*
X144656474Y-69017824D01*
X144661769Y-69024889D01*
X144661770Y-69024891D01*
X144708917Y-69087798D01*
X144742454Y-69132546D01*
X144749519Y-69137841D01*
X144850109Y-69213230D01*
X144850111Y-69213231D01*
X144857176Y-69218526D01*
X144991420Y-69268851D01*
X145052623Y-69275500D01*
X145449940Y-69275500D01*
X145847376Y-69275499D01*
X145908580Y-69268851D01*
X146042824Y-69218526D01*
X146049889Y-69213231D01*
X146049891Y-69213230D01*
X146150481Y-69137841D01*
X146157546Y-69132546D01*
X146191083Y-69087798D01*
X146241635Y-69050000D01*
X146250000Y-69050000D01*
X146250000Y-69023031D01*
X146257891Y-68979504D01*
X146291122Y-68890861D01*
X146291123Y-68890856D01*
X146293851Y-68883580D01*
X146294690Y-68875855D01*
X146294691Y-68875852D01*
X146300137Y-68825714D01*
X146300500Y-68822377D01*
X146300499Y-68477624D01*
X146293851Y-68416420D01*
X146276699Y-68370665D01*
X146272845Y-68360386D01*
X146257891Y-68320495D01*
X146250000Y-68276969D01*
X146250000Y-68044400D01*
X146257891Y-68000872D01*
X146298524Y-67892485D01*
X146302091Y-67877482D01*
X146307637Y-67826427D01*
X146308000Y-67819729D01*
X146308000Y-67774500D01*
X146327685Y-67707461D01*
X146380489Y-67661706D01*
X146432000Y-67650500D01*
X146669952Y-67650500D01*
X146736991Y-67670185D01*
X146745438Y-67676124D01*
X146753211Y-67682089D01*
X146753215Y-67682091D01*
X146759659Y-67687036D01*
X146826876Y-67714878D01*
X146884865Y-67764188D01*
X146926242Y-67831052D01*
X146931341Y-67836142D01*
X146957535Y-67862291D01*
X146991073Y-67923585D01*
X146986149Y-67993281D01*
X146957687Y-68037653D01*
X146925457Y-68069939D01*
X146921677Y-68076072D01*
X146921675Y-68076074D01*
X146912720Y-68090602D01*
X146837451Y-68212713D01*
X146835186Y-68219542D01*
X146835185Y-68219544D01*
X146811668Y-68290445D01*
X146784650Y-68371902D01*
X146783960Y-68378638D01*
X146783959Y-68378642D01*
X146774822Y-68467819D01*
X146774500Y-68470965D01*
X146774501Y-69004034D01*
X146784907Y-69104335D01*
X146837986Y-69263432D01*
X146845454Y-69275500D01*
X146922451Y-69399927D01*
X146922454Y-69399931D01*
X146926242Y-69406052D01*
X146931342Y-69411143D01*
X146931345Y-69411147D01*
X146941447Y-69421232D01*
X146974985Y-69482526D01*
X146970642Y-69547230D01*
X146971024Y-69547322D01*
X146970487Y-69549543D01*
X146970362Y-69551400D01*
X146969395Y-69554058D01*
X146967022Y-69560578D01*
X146944514Y-69738753D01*
X146950146Y-69796193D01*
X146960293Y-69899675D01*
X146962039Y-69917486D01*
X147018726Y-70087896D01*
X147022319Y-70093829D01*
X147022320Y-70093831D01*
X147072544Y-70176760D01*
X147111759Y-70241512D01*
X147236514Y-70370699D01*
X147242313Y-70374493D01*
X147242312Y-70374493D01*
X147264849Y-70389241D01*
X147310167Y-70442421D01*
X147319539Y-70511659D01*
X147289991Y-70574973D01*
X147230903Y-70612261D01*
X147196951Y-70617000D01*
X146721830Y-70617000D01*
X146706831Y-70621404D01*
X146705644Y-70622774D01*
X146704000Y-70630332D01*
X146704000Y-71478170D01*
X146708404Y-71493169D01*
X146709774Y-71494356D01*
X146717332Y-71496000D01*
X148265169Y-71496000D01*
X148280168Y-71491596D01*
X148281355Y-71490226D01*
X148282999Y-71482668D01*
X148282999Y-71327835D01*
X148282669Y-71321459D01*
X148272732Y-71225682D01*
X148269886Y-71212506D01*
X148218373Y-71058100D01*
X148212302Y-71045141D01*
X148126874Y-70907091D01*
X148117984Y-70895875D01*
X148003094Y-70781184D01*
X147991856Y-70772308D01*
X147944740Y-70743266D01*
X147898000Y-70691331D01*
X147886758Y-70622372D01*
X147914583Y-70558282D01*
X147971488Y-70519777D01*
X148015138Y-70505594D01*
X148082782Y-70483615D01*
X148237044Y-70391657D01*
X148297864Y-70333739D01*
X148362080Y-70272587D01*
X148362082Y-70272585D01*
X148367099Y-70267807D01*
X148466483Y-70118222D01*
X148530257Y-69950336D01*
X148555251Y-69772493D01*
X148555565Y-69750000D01*
X148535546Y-69571528D01*
X148530747Y-69557748D01*
X149918208Y-69557748D01*
X149948580Y-69692517D01*
X149951618Y-69702209D01*
X150031800Y-69899675D01*
X150036374Y-69908730D01*
X150147731Y-70090448D01*
X150153725Y-70098639D01*
X150293270Y-70259734D01*
X150300515Y-70266829D01*
X150464497Y-70402969D01*
X150472813Y-70408791D01*
X150656820Y-70516317D01*
X150665976Y-70520703D01*
X150865077Y-70596732D01*
X150874816Y-70599562D01*
X150978532Y-70620663D01*
X150992357Y-70619487D01*
X150996000Y-70609301D01*
X150996000Y-70608802D01*
X151504000Y-70608802D01*
X151508001Y-70622427D01*
X151521200Y-70624429D01*
X151528269Y-70623523D01*
X151538182Y-70621416D01*
X151742332Y-70560168D01*
X151751768Y-70556470D01*
X151943168Y-70462703D01*
X151951877Y-70457512D01*
X152125402Y-70333739D01*
X152133135Y-70327203D01*
X152284103Y-70176760D01*
X152290687Y-70169024D01*
X152415050Y-69995955D01*
X152420278Y-69987254D01*
X152514707Y-69796193D01*
X152518444Y-69786753D01*
X152580402Y-69582829D01*
X152582544Y-69572918D01*
X152584024Y-69561676D01*
X152581847Y-69547719D01*
X152568898Y-69544000D01*
X151521830Y-69544000D01*
X151506831Y-69548404D01*
X151505644Y-69549774D01*
X151504000Y-69557332D01*
X151504000Y-70608802D01*
X150996000Y-70608802D01*
X150996000Y-69561830D01*
X150991596Y-69546831D01*
X150990226Y-69545644D01*
X150982668Y-69544000D01*
X149932940Y-69544000D01*
X149919623Y-69547910D01*
X149918208Y-69557748D01*
X148530747Y-69557748D01*
X148528210Y-69550462D01*
X148524753Y-69480679D01*
X148557553Y-69422080D01*
X148574543Y-69405061D01*
X148662549Y-69262287D01*
X148705583Y-69132546D01*
X148713218Y-69109526D01*
X148713218Y-69109525D01*
X148715350Y-69103098D01*
X148720791Y-69050000D01*
X148725178Y-69007181D01*
X148725178Y-69007174D01*
X148725500Y-69004035D01*
X148725499Y-68470966D01*
X148715093Y-68370665D01*
X148698100Y-68319729D01*
X148664294Y-68218402D01*
X148662014Y-68211568D01*
X148607684Y-68123772D01*
X148577548Y-68075072D01*
X148577546Y-68075070D01*
X148573758Y-68068948D01*
X148560148Y-68055361D01*
X148542465Y-68037709D01*
X148508927Y-67976415D01*
X148513851Y-67906719D01*
X148542313Y-67862347D01*
X148569449Y-67835164D01*
X148569450Y-67835163D01*
X148574543Y-67830061D01*
X148579280Y-67822377D01*
X148625407Y-67747544D01*
X148662549Y-67687287D01*
X148666779Y-67674536D01*
X148713218Y-67534526D01*
X148713218Y-67534525D01*
X148715350Y-67528098D01*
X148725500Y-67429035D01*
X148725500Y-67374000D01*
X148745185Y-67306961D01*
X148797989Y-67261206D01*
X148849500Y-67250000D01*
X149914045Y-67250000D01*
X149981084Y-67269685D01*
G37*
G04 #@! TD.AperFunction*
G04 #@! TA.AperFunction,Conductor*
G36*
X144720681Y-38751500D02*
G01*
X144734956Y-38753723D01*
X144734959Y-38753723D01*
X144743829Y-38755104D01*
X144760539Y-38752919D01*
X144784479Y-38752086D01*
X145043735Y-38767768D01*
X145058839Y-38769602D01*
X145340791Y-38821272D01*
X145355564Y-38824913D01*
X145629243Y-38910195D01*
X145643447Y-38915581D01*
X145904879Y-39033241D01*
X145918321Y-39040297D01*
X146163638Y-39188597D01*
X146176160Y-39197240D01*
X146401812Y-39374027D01*
X146413200Y-39384117D01*
X146615883Y-39586800D01*
X146625973Y-39598188D01*
X146802760Y-39823840D01*
X146811402Y-39836361D01*
X146959703Y-40081679D01*
X146966759Y-40095121D01*
X147084419Y-40356553D01*
X147089807Y-40370762D01*
X147175087Y-40644436D01*
X147178728Y-40659209D01*
X147230398Y-40941161D01*
X147232232Y-40956265D01*
X147247482Y-41208381D01*
X147246293Y-41233657D01*
X147246277Y-41234958D01*
X147244896Y-41243829D01*
X147246060Y-41252731D01*
X147246060Y-41252734D01*
X147248936Y-41274725D01*
X147250000Y-41291062D01*
X147250000Y-49651297D01*
X147248500Y-49670681D01*
X147244896Y-49693829D01*
X147245703Y-49700000D01*
X147245298Y-49700000D01*
X147264099Y-50154575D01*
X147320375Y-50606044D01*
X147413740Y-51051324D01*
X147543558Y-51487374D01*
X147708941Y-51911214D01*
X147710087Y-51913558D01*
X147907611Y-52317602D01*
X147907617Y-52317614D01*
X147908759Y-52319949D01*
X147910091Y-52322185D01*
X147910093Y-52322188D01*
X148140312Y-52708546D01*
X148140319Y-52708557D01*
X148141648Y-52710787D01*
X148406017Y-53081058D01*
X148700059Y-53428233D01*
X149021767Y-53749941D01*
X149368942Y-54043983D01*
X149371057Y-54045493D01*
X149674299Y-54262004D01*
X149739213Y-54308352D01*
X149741443Y-54309681D01*
X149741454Y-54309688D01*
X149991291Y-54458558D01*
X150130051Y-54541241D01*
X150132386Y-54542383D01*
X150132398Y-54542389D01*
X150485332Y-54714927D01*
X150538786Y-54741059D01*
X150541215Y-54742007D01*
X150541220Y-54742009D01*
X150960198Y-54905495D01*
X150960207Y-54905498D01*
X150962626Y-54906442D01*
X151398676Y-55036260D01*
X151843956Y-55129625D01*
X152295425Y-55185901D01*
X152495620Y-55194181D01*
X152725881Y-55203705D01*
X152731926Y-55204100D01*
X152732859Y-55204184D01*
X152737658Y-55204991D01*
X152744171Y-55205071D01*
X152744432Y-55205111D01*
X152744689Y-55205077D01*
X152750000Y-55205142D01*
X152760572Y-55203628D01*
X152787563Y-55202686D01*
X152961731Y-55215341D01*
X152980088Y-55218046D01*
X153177594Y-55262209D01*
X153195359Y-55267582D01*
X153384229Y-55340280D01*
X153401008Y-55348202D01*
X153555442Y-55435579D01*
X153577151Y-55447862D01*
X153592589Y-55458167D01*
X153752182Y-55582625D01*
X153765939Y-55595088D01*
X153905506Y-55741635D01*
X153917282Y-55755982D01*
X154033810Y-55921449D01*
X154043351Y-55937372D01*
X154134301Y-56118158D01*
X154141398Y-56135308D01*
X154204805Y-56327503D01*
X154209307Y-56345512D01*
X154243788Y-56544935D01*
X154245594Y-56563408D01*
X154249651Y-56734114D01*
X154248135Y-56750856D01*
X154248216Y-56750861D01*
X154247659Y-56759813D01*
X154245835Y-56768610D01*
X154249520Y-56814533D01*
X154249550Y-56814904D01*
X154249954Y-56825203D01*
X154232509Y-66383580D01*
X154232070Y-66624230D01*
X154211943Y-66692314D01*
X154158203Y-66738709D01*
X154106070Y-66750000D01*
X152721117Y-66750000D01*
X152652996Y-66729998D01*
X152606503Y-66676342D01*
X152595596Y-66634982D01*
X152585542Y-66520072D01*
X152585063Y-66514592D01*
X152579532Y-66493948D01*
X152525326Y-66291647D01*
X152525325Y-66291645D01*
X152523903Y-66286337D01*
X152521317Y-66280792D01*
X152426358Y-66077152D01*
X152426356Y-66077149D01*
X152424035Y-66072171D01*
X152288495Y-65878599D01*
X152174712Y-65764816D01*
X152140686Y-65702504D01*
X152145751Y-65631689D01*
X152188298Y-65574853D01*
X152219578Y-65557739D01*
X152338052Y-65513325D01*
X152353649Y-65504786D01*
X152455724Y-65428285D01*
X152468285Y-65415724D01*
X152544786Y-65313649D01*
X152553324Y-65298054D01*
X152598478Y-65177606D01*
X152602105Y-65162351D01*
X152607631Y-65111486D01*
X152608000Y-65104672D01*
X152608000Y-64482115D01*
X152603525Y-64466876D01*
X152602135Y-64465671D01*
X152594452Y-64464000D01*
X149910116Y-64464000D01*
X149894877Y-64468475D01*
X149893672Y-64469865D01*
X149892001Y-64477548D01*
X149892001Y-65104669D01*
X149892371Y-65111490D01*
X149897895Y-65162352D01*
X149901521Y-65177604D01*
X149946676Y-65298054D01*
X149955214Y-65313649D01*
X150031715Y-65415724D01*
X150044276Y-65428285D01*
X150146351Y-65504786D01*
X150161948Y-65513325D01*
X150280422Y-65557739D01*
X150337187Y-65600380D01*
X150361887Y-65666942D01*
X150346680Y-65736291D01*
X150325288Y-65764816D01*
X150211505Y-65878599D01*
X150075965Y-66072171D01*
X150073644Y-66077149D01*
X150073642Y-66077152D01*
X149978683Y-66280792D01*
X149976097Y-66286337D01*
X149974675Y-66291645D01*
X149974674Y-66291647D01*
X149920468Y-66493948D01*
X149914937Y-66514592D01*
X149914458Y-66520072D01*
X149904404Y-66634982D01*
X149878540Y-66701100D01*
X149821037Y-66742740D01*
X149778883Y-66750000D01*
X148790649Y-66750000D01*
X148722528Y-66729998D01*
X148676035Y-66676342D01*
X148671126Y-66663878D01*
X148664333Y-66643519D01*
X148662014Y-66636568D01*
X148573758Y-66493948D01*
X148455061Y-66375457D01*
X148312287Y-66287451D01*
X148293909Y-66281355D01*
X148159622Y-66236814D01*
X148159623Y-66236814D01*
X148153098Y-66234650D01*
X148146265Y-66233950D01*
X148146261Y-66233949D01*
X148093654Y-66228559D01*
X148054035Y-66224500D01*
X147752345Y-66224500D01*
X147445966Y-66224501D01*
X147345665Y-66234907D01*
X147339134Y-66237086D01*
X147339129Y-66237087D01*
X147215876Y-66278208D01*
X147144927Y-66280792D01*
X147083843Y-66244609D01*
X147052018Y-66181144D01*
X147050000Y-66158684D01*
X147050000Y-64950000D01*
X142552190Y-64950000D01*
X142484069Y-64929998D01*
X142463095Y-64913095D01*
X142286905Y-64736905D01*
X142252879Y-64674593D01*
X142250000Y-64647810D01*
X142250000Y-63937885D01*
X149892000Y-63937885D01*
X149896475Y-63953124D01*
X149897865Y-63954329D01*
X149905548Y-63956000D01*
X150977885Y-63956000D01*
X150993124Y-63951525D01*
X150994329Y-63950135D01*
X150996000Y-63942452D01*
X150996000Y-63937885D01*
X151504000Y-63937885D01*
X151508475Y-63953124D01*
X151509865Y-63954329D01*
X151517548Y-63956000D01*
X152589884Y-63956000D01*
X152605123Y-63951525D01*
X152606328Y-63950135D01*
X152607999Y-63942452D01*
X152607999Y-63315331D01*
X152607629Y-63308510D01*
X152602105Y-63257648D01*
X152598479Y-63242396D01*
X152553324Y-63121946D01*
X152544786Y-63106351D01*
X152468285Y-63004276D01*
X152455724Y-62991715D01*
X152353649Y-62915214D01*
X152338054Y-62906676D01*
X152217606Y-62861522D01*
X152202351Y-62857895D01*
X152151486Y-62852369D01*
X152144672Y-62852000D01*
X151522115Y-62852000D01*
X151506876Y-62856475D01*
X151505671Y-62857865D01*
X151504000Y-62865548D01*
X151504000Y-63937885D01*
X150996000Y-63937885D01*
X150996000Y-62870116D01*
X150991525Y-62854877D01*
X150990135Y-62853672D01*
X150982452Y-62852001D01*
X150355331Y-62852001D01*
X150348510Y-62852371D01*
X150297648Y-62857895D01*
X150282396Y-62861521D01*
X150161946Y-62906676D01*
X150146351Y-62915214D01*
X150044276Y-62991715D01*
X150031715Y-63004276D01*
X149955214Y-63106351D01*
X149946676Y-63121946D01*
X149901522Y-63242394D01*
X149897895Y-63257649D01*
X149892369Y-63308514D01*
X149892000Y-63315328D01*
X149892000Y-63937885D01*
X142250000Y-63937885D01*
X142250000Y-62372095D01*
X144417001Y-62372095D01*
X144417338Y-62378614D01*
X144427257Y-62474206D01*
X144430149Y-62487600D01*
X144481588Y-62641784D01*
X144487761Y-62654962D01*
X144573063Y-62792807D01*
X144582099Y-62804208D01*
X144696829Y-62918739D01*
X144708240Y-62927751D01*
X144846243Y-63012816D01*
X144859424Y-63018963D01*
X145013710Y-63070138D01*
X145027086Y-63073005D01*
X145121438Y-63082672D01*
X145127854Y-63083000D01*
X145977885Y-63083000D01*
X145993124Y-63078525D01*
X145994329Y-63077135D01*
X145996000Y-63069452D01*
X145996000Y-63064884D01*
X146504000Y-63064884D01*
X146508475Y-63080123D01*
X146509865Y-63081328D01*
X146517548Y-63082999D01*
X147372095Y-63082999D01*
X147378614Y-63082662D01*
X147474206Y-63072743D01*
X147487600Y-63069851D01*
X147641784Y-63018412D01*
X147654962Y-63012239D01*
X147792807Y-62926937D01*
X147804208Y-62917901D01*
X147918739Y-62803171D01*
X147927751Y-62791760D01*
X148012816Y-62653757D01*
X148018963Y-62640576D01*
X148070138Y-62486290D01*
X148073005Y-62472914D01*
X148082672Y-62378562D01*
X148083000Y-62372146D01*
X148083000Y-62222115D01*
X148078525Y-62206876D01*
X148077135Y-62205671D01*
X148069452Y-62204000D01*
X146522115Y-62204000D01*
X146506876Y-62208475D01*
X146505671Y-62209865D01*
X146504000Y-62217548D01*
X146504000Y-63064884D01*
X145996000Y-63064884D01*
X145996000Y-62222115D01*
X145991525Y-62206876D01*
X145990135Y-62205671D01*
X145982452Y-62204000D01*
X144435116Y-62204000D01*
X144419877Y-62208475D01*
X144418672Y-62209865D01*
X144417001Y-62217548D01*
X144417001Y-62372095D01*
X142250000Y-62372095D01*
X142250000Y-61677885D01*
X144417000Y-61677885D01*
X144421475Y-61693124D01*
X144422865Y-61694329D01*
X144430548Y-61696000D01*
X145977885Y-61696000D01*
X145993124Y-61691525D01*
X145994329Y-61690135D01*
X145996000Y-61682452D01*
X145996000Y-61677885D01*
X146504000Y-61677885D01*
X146508475Y-61693124D01*
X146509865Y-61694329D01*
X146517548Y-61696000D01*
X148064884Y-61696000D01*
X148080123Y-61691525D01*
X148081328Y-61690135D01*
X148082999Y-61682452D01*
X148082999Y-61527905D01*
X148082662Y-61521386D01*
X148072743Y-61425794D01*
X148069851Y-61412400D01*
X148018412Y-61258216D01*
X148012239Y-61245038D01*
X147926937Y-61107193D01*
X147917901Y-61095792D01*
X147803171Y-60981261D01*
X147791760Y-60972249D01*
X147653757Y-60887184D01*
X147640576Y-60881037D01*
X147486290Y-60829862D01*
X147472914Y-60826995D01*
X147378562Y-60817328D01*
X147372145Y-60817000D01*
X146522115Y-60817000D01*
X146506876Y-60821475D01*
X146505671Y-60822865D01*
X146504000Y-60830548D01*
X146504000Y-61677885D01*
X145996000Y-61677885D01*
X145996000Y-60835116D01*
X145991525Y-60819877D01*
X145990135Y-60818672D01*
X145982452Y-60817001D01*
X145127905Y-60817001D01*
X145121386Y-60817338D01*
X145025794Y-60827257D01*
X145012400Y-60830149D01*
X144858216Y-60881588D01*
X144845038Y-60887761D01*
X144707193Y-60973063D01*
X144695792Y-60982099D01*
X144581261Y-61096829D01*
X144572249Y-61108240D01*
X144487184Y-61246243D01*
X144481037Y-61259424D01*
X144429862Y-61413710D01*
X144426995Y-61427086D01*
X144417328Y-61521438D01*
X144417000Y-61527855D01*
X144417000Y-61677885D01*
X142250000Y-61677885D01*
X142250000Y-59579059D01*
X142263707Y-59522400D01*
X142266483Y-59518222D01*
X142295907Y-59440763D01*
X142327757Y-59356919D01*
X142327758Y-59356914D01*
X142330257Y-59350336D01*
X142335859Y-59310476D01*
X142354700Y-59176416D01*
X142354700Y-59176411D01*
X142355251Y-59172493D01*
X142355565Y-59150000D01*
X142354303Y-59138753D01*
X143744514Y-59138753D01*
X143745201Y-59145760D01*
X143745201Y-59145763D01*
X143746005Y-59153963D01*
X143762039Y-59317486D01*
X143764262Y-59324168D01*
X143764262Y-59324169D01*
X143772967Y-59350336D01*
X143818726Y-59487896D01*
X143822373Y-59493918D01*
X143869449Y-59571649D01*
X143911759Y-59641512D01*
X144036514Y-59770699D01*
X144186789Y-59869036D01*
X144355116Y-59931636D01*
X144362097Y-59932567D01*
X144362099Y-59932568D01*
X144504933Y-59951626D01*
X144569810Y-59980462D01*
X144582123Y-59993195D01*
X144582834Y-59994345D01*
X144706689Y-60117984D01*
X144855666Y-60209814D01*
X144862614Y-60212119D01*
X144862615Y-60212119D01*
X145015241Y-60262744D01*
X145015243Y-60262745D01*
X145021772Y-60264910D01*
X145125134Y-60275500D01*
X147374866Y-60275500D01*
X147378112Y-60275163D01*
X147378116Y-60275163D01*
X147472661Y-60265353D01*
X147472665Y-60265352D01*
X147479519Y-60264641D01*
X147486055Y-60262460D01*
X147486057Y-60262460D01*
X147638581Y-60211574D01*
X147645529Y-60209256D01*
X147794345Y-60117166D01*
X147917984Y-59993311D01*
X148009814Y-59844334D01*
X148031607Y-59778632D01*
X148062744Y-59684759D01*
X148062745Y-59684757D01*
X148064910Y-59678228D01*
X148075500Y-59574866D01*
X148075500Y-58725134D01*
X148075163Y-58721884D01*
X148065353Y-58627339D01*
X148065352Y-58627335D01*
X148064641Y-58620481D01*
X148009256Y-58454471D01*
X147917166Y-58305655D01*
X147793311Y-58182016D01*
X147644334Y-58090186D01*
X147637385Y-58087881D01*
X147484759Y-58037256D01*
X147484757Y-58037255D01*
X147478228Y-58035090D01*
X147374866Y-58024500D01*
X145125134Y-58024500D01*
X145121888Y-58024837D01*
X145121884Y-58024837D01*
X145027339Y-58034647D01*
X145027335Y-58034648D01*
X145020481Y-58035359D01*
X145013945Y-58037540D01*
X145013943Y-58037540D01*
X144874860Y-58083942D01*
X144854471Y-58090744D01*
X144705655Y-58182834D01*
X144700482Y-58188016D01*
X144587188Y-58301507D01*
X144587184Y-58301512D01*
X144582016Y-58306689D01*
X144581528Y-58306201D01*
X144528052Y-58344118D01*
X144500256Y-58350274D01*
X144446415Y-58355933D01*
X144384025Y-58362490D01*
X144384021Y-58362491D01*
X144377017Y-58363227D01*
X144370346Y-58365498D01*
X144213677Y-58418832D01*
X144213674Y-58418833D01*
X144207007Y-58421103D01*
X144201009Y-58424793D01*
X144201007Y-58424794D01*
X144152768Y-58454471D01*
X144054045Y-58515206D01*
X144049014Y-58520132D01*
X144049011Y-58520135D01*
X143997761Y-58570323D01*
X143925732Y-58640859D01*
X143921913Y-58646784D01*
X143921912Y-58646786D01*
X143832265Y-58785891D01*
X143828446Y-58791817D01*
X143826037Y-58798437D01*
X143826035Y-58798440D01*
X143797734Y-58876198D01*
X143767022Y-58960578D01*
X143744514Y-59138753D01*
X142354303Y-59138753D01*
X142335546Y-58971528D01*
X142329427Y-58953955D01*
X142278803Y-58808584D01*
X142276485Y-58801927D01*
X142270168Y-58791817D01*
X142269146Y-58790181D01*
X142250000Y-58723412D01*
X142250000Y-38876000D01*
X142270002Y-38807879D01*
X142323658Y-38761386D01*
X142376000Y-38750000D01*
X144701297Y-38750000D01*
X144720681Y-38751500D01*
G37*
G04 #@! TD.AperFunction*
M02*
