%TF.GenerationSoftware,KiCad,Pcbnew,(6.0.7)*%
%TF.CreationDate,2022-11-17T15:53:31+01:00*%
%TF.ProjectId,SFH203_photodetector,53464832-3033-45f7-9068-6f746f646574,2.0*%
%TF.SameCoordinates,Original*%
%TF.FileFunction,Copper,L1,Top*%
%TF.FilePolarity,Positive*%
%FSLAX46Y46*%
G04 Gerber Fmt 4.6, Leading zero omitted, Abs format (unit mm)*
G04 Created by KiCad (PCBNEW (6.0.7)) date 2022-11-17 15:53:31*
%MOMM*%
%LPD*%
G01*
G04 APERTURE LIST*
G04 Aperture macros list*
%AMRoundRect*
0 Rectangle with rounded corners*
0 $1 Rounding radius*
0 $2 $3 $4 $5 $6 $7 $8 $9 X,Y pos of 4 corners*
0 Add a 4 corners polygon primitive as box body*
4,1,4,$2,$3,$4,$5,$6,$7,$8,$9,$2,$3,0*
0 Add four circle primitives for the rounded corners*
1,1,$1+$1,$2,$3*
1,1,$1+$1,$4,$5*
1,1,$1+$1,$6,$7*
1,1,$1+$1,$8,$9*
0 Add four rect primitives between the rounded corners*
20,1,$1+$1,$2,$3,$4,$5,0*
20,1,$1+$1,$4,$5,$6,$7,0*
20,1,$1+$1,$6,$7,$8,$9,0*
20,1,$1+$1,$8,$9,$2,$3,0*%
%AMFreePoly0*
4,1,38,0.670671,0.870970,0.751777,0.816777,0.805970,0.735671,0.825000,0.640000,0.825000,-0.640000,0.805970,-0.735671,0.751777,-0.816777,0.670671,-0.870970,0.575000,-0.890000,-0.780000,-0.890000,-0.880000,-0.915000,-1.750000,-0.915000,-1.750000,-0.665000,-1.075500,-0.665000,-1.075436,-0.664844,-1.075387,-0.664683,-1.075364,-0.664671,-1.075354,-0.664646,-1.075199,-0.664582,-1.075050,-0.664502,
-1.025101,-0.659508,-0.977199,-0.644539,-0.935281,-0.621584,-0.897355,-0.590644,-0.866421,-0.551727,-0.844465,-0.510809,-0.830492,-0.463901,-0.825497,-0.414950,-0.825420,-0.414807,-0.825354,-0.414646,-0.825329,-0.414636,-0.825316,-0.414612,-0.825157,-0.414565,-0.825000,-0.414500,-0.825000,0.640000,-0.575000,0.890000,0.575000,0.890000,0.670671,0.870970,0.670671,0.870970,$1*%
%AMFreePoly1*
4,1,25,0.670671,0.515970,0.751777,0.461777,0.805970,0.380671,0.825000,0.285000,0.825000,0.270000,1.750000,0.270000,1.750000,0.020000,0.825000,0.020000,0.825000,-0.285000,0.805970,-0.380671,0.751777,-0.461777,0.670671,-0.515970,0.575000,-0.535000,-0.575000,-0.535000,-0.670671,-0.515970,-0.751777,-0.461777,-0.805970,-0.380671,-0.825000,-0.285000,-0.825000,0.285000,-0.805970,0.380671,
-0.751777,0.461777,-0.670671,0.515970,-0.575000,0.535000,0.575000,0.535000,0.670671,0.515970,0.670671,0.515970,$1*%
G04 Aperture macros list end*
%TA.AperFunction,ComponentPad*%
%ADD10C,0.800000*%
%TD*%
%TA.AperFunction,ComponentPad*%
%ADD11C,5.400000*%
%TD*%
%TA.AperFunction,SMDPad,CuDef*%
%ADD12RoundRect,0.225000X-0.225000X-0.250000X0.225000X-0.250000X0.225000X0.250000X-0.225000X0.250000X0*%
%TD*%
%TA.AperFunction,SMDPad,CuDef*%
%ADD13RoundRect,0.250000X0.250000X0.750000X-0.250000X0.750000X-0.250000X-0.750000X0.250000X-0.750000X0*%
%TD*%
%TA.AperFunction,SMDPad,CuDef*%
%ADD14RoundRect,0.250000X-1.100000X0.325000X-1.100000X-0.325000X1.100000X-0.325000X1.100000X0.325000X0*%
%TD*%
%TA.AperFunction,SMDPad,CuDef*%
%ADD15RoundRect,0.225000X-0.250000X0.225000X-0.250000X-0.225000X0.250000X-0.225000X0.250000X0.225000X0*%
%TD*%
%TA.AperFunction,SMDPad,CuDef*%
%ADD16RoundRect,0.200000X0.200000X0.275000X-0.200000X0.275000X-0.200000X-0.275000X0.200000X-0.275000X0*%
%TD*%
%TA.AperFunction,SMDPad,CuDef*%
%ADD17RoundRect,0.250000X-0.312500X-0.625000X0.312500X-0.625000X0.312500X0.625000X-0.312500X0.625000X0*%
%TD*%
%TA.AperFunction,SMDPad,CuDef*%
%ADD18R,0.250000X0.700000*%
%TD*%
%TA.AperFunction,SMDPad,CuDef*%
%ADD19FreePoly0,90.000000*%
%TD*%
%TA.AperFunction,SMDPad,CuDef*%
%ADD20FreePoly1,90.000000*%
%TD*%
%TA.AperFunction,SMDPad,CuDef*%
%ADD21RoundRect,0.225000X0.250000X-0.225000X0.250000X0.225000X-0.250000X0.225000X-0.250000X-0.225000X0*%
%TD*%
%TA.AperFunction,SMDPad,CuDef*%
%ADD22RoundRect,0.250000X1.100000X-0.325000X1.100000X0.325000X-1.100000X0.325000X-1.100000X-0.325000X0*%
%TD*%
%TA.AperFunction,SMDPad,CuDef*%
%ADD23R,1.780000X4.190000*%
%TD*%
%TA.AperFunction,SMDPad,CuDef*%
%ADD24R,0.460000X0.890000*%
%TD*%
%TA.AperFunction,ComponentPad*%
%ADD25C,0.970000*%
%TD*%
%TA.AperFunction,SMDPad,CuDef*%
%ADD26R,2.665000X4.190000*%
%TD*%
%TA.AperFunction,SMDPad,CuDef*%
%ADD27RoundRect,0.150000X0.150000X-0.825000X0.150000X0.825000X-0.150000X0.825000X-0.150000X-0.825000X0*%
%TD*%
%TA.AperFunction,SMDPad,CuDef*%
%ADD28R,3.810000X2.410000*%
%TD*%
%TA.AperFunction,SMDPad,CuDef*%
%ADD29RoundRect,0.200000X-0.200000X-0.275000X0.200000X-0.275000X0.200000X0.275000X-0.200000X0.275000X0*%
%TD*%
%TA.AperFunction,ComponentPad*%
%ADD30C,1.300000*%
%TD*%
%TA.AperFunction,ComponentPad*%
%ADD31C,1.100000*%
%TD*%
%TA.AperFunction,ViaPad*%
%ADD32C,0.600000*%
%TD*%
%TA.AperFunction,Conductor*%
%ADD33C,0.500000*%
%TD*%
%TA.AperFunction,Conductor*%
%ADD34C,0.200000*%
%TD*%
G04 APERTURE END LIST*
D10*
%TO.P,H2,1,1*%
%TO.N,GND*%
X192025000Y-117000000D03*
X190000000Y-119025000D03*
X191431891Y-118431891D03*
D11*
X190000000Y-117000000D03*
D10*
X190000000Y-114975000D03*
X188568109Y-118431891D03*
X191431891Y-115568109D03*
X187975000Y-117000000D03*
X188568109Y-115568109D03*
%TD*%
%TO.P,H1,1,1*%
%TO.N,GND*%
X202568109Y-115568109D03*
X201975000Y-117000000D03*
X205431891Y-115568109D03*
X202568109Y-118431891D03*
X204000000Y-114975000D03*
D11*
X204000000Y-117000000D03*
D10*
X205431891Y-118431891D03*
X204000000Y-119025000D03*
X206025000Y-117000000D03*
%TD*%
D12*
%TO.P,C3,1*%
%TO.N,Net-(C3-Pad1)*%
X201025000Y-110400000D03*
%TO.P,C3,2*%
%TO.N,Net-(C3-Pad2)*%
X202575000Y-110400000D03*
%TD*%
D13*
%TO.P,J2,1,Pin_1*%
%TO.N,GND*%
X190200000Y-95100000D03*
%TD*%
D12*
%TO.P,C4,1*%
%TO.N,GND*%
X197925000Y-103900000D03*
%TO.P,C4,2*%
%TO.N,V+*%
X199475000Y-103900000D03*
%TD*%
D14*
%TO.P,C8,1*%
%TO.N,V+*%
X189200000Y-110025000D03*
%TO.P,C8,2*%
%TO.N,GND*%
X189200000Y-112975000D03*
%TD*%
D15*
%TO.P,C7,1*%
%TO.N,Net-(C7-Pad1)*%
X195000000Y-105225000D03*
%TO.P,C7,2*%
%TO.N,V-*%
X195000000Y-106775000D03*
%TD*%
D16*
%TO.P,R3,1*%
%TO.N,Net-(R2-Pad1)*%
X204325000Y-98500000D03*
%TO.P,R3,2*%
%TO.N,Net-(R3-Pad2)*%
X202675000Y-98500000D03*
%TD*%
D17*
%TO.P,R4,1*%
%TO.N,Net-(J4-Pad1)*%
X198037500Y-98300000D03*
%TO.P,R4,2*%
%TO.N,Net-(R3-Pad2)*%
X200962500Y-98300000D03*
%TD*%
D18*
%TO.P,U2,1,OUTP*%
%TO.N,V+*%
X190200000Y-107900000D03*
%TO.P,U2,2,NC*%
%TO.N,unconnected-(U2-Pad2)*%
X190700000Y-107900000D03*
%TO.P,U2,3,BYPP*%
%TO.N,Net-(C6-Pad2)*%
X191200000Y-107900000D03*
D19*
%TO.P,U2,4,GND*%
%TO.N,GND*%
X190910000Y-106500000D03*
D18*
%TO.P,U2,5,GND*%
X192200000Y-107900000D03*
%TO.P,U2,6,INN*%
%TO.N,Net-(C2-Pad2)*%
X192700000Y-107900000D03*
%TO.P,U2,7,OUTN*%
%TO.N,V-*%
X193200000Y-107900000D03*
%TO.P,U2,8,NC*%
%TO.N,unconnected-(U2-Pad8)*%
X193200000Y-105100000D03*
D20*
%TO.P,U2,9,INN*%
%TO.N,Net-(C2-Pad2)*%
X192845000Y-106500000D03*
D18*
%TO.P,U2,10,~{SHDNN}*%
X192200000Y-105100000D03*
%TO.P,U2,11,BYPN*%
%TO.N,Net-(C7-Pad1)*%
X191700000Y-105100000D03*
%TO.P,U2,12,~{SHDNP}*%
%TO.N,Net-(C1-Pad1)*%
X191200000Y-105100000D03*
%TO.P,U2,13,NC*%
%TO.N,unconnected-(U2-Pad13)*%
X190700000Y-105100000D03*
%TO.P,U2,14,INP*%
%TO.N,Net-(C1-Pad1)*%
X190200000Y-105100000D03*
%TD*%
D21*
%TO.P,C5,1*%
%TO.N,GND*%
X199300000Y-109375000D03*
%TO.P,C5,2*%
%TO.N,V-*%
X199300000Y-107825000D03*
%TD*%
D22*
%TO.P,C1,1*%
%TO.N,Net-(C1-Pad1)*%
X189200000Y-101975000D03*
%TO.P,C1,2*%
%TO.N,GND*%
X189200000Y-99025000D03*
%TD*%
D23*
%TO.P,J4,1,In*%
%TO.N,Net-(J4-Pad1)*%
X199392500Y-93125000D03*
D24*
%TO.P,J4,2,Ext*%
%TO.N,GNDS*%
X195900000Y-95665000D03*
D25*
X195900000Y-96110000D03*
X202885000Y-96110000D03*
D24*
X202885000Y-95665000D03*
D26*
X195900000Y-93125000D03*
X202885000Y-93125000D03*
%TD*%
D27*
%TO.P,U1,1*%
%TO.N,Net-(C3-Pad1)*%
X201095000Y-106475000D03*
%TO.P,U1,2,-*%
%TO.N,Net-(C3-Pad2)*%
X202365000Y-106475000D03*
%TO.P,U1,3,+*%
%TO.N,GNDS*%
X203635000Y-106475000D03*
%TO.P,U1,4,V-*%
%TO.N,V-*%
X204905000Y-106475000D03*
%TO.P,U1,5,+*%
%TO.N,Net-(C3-Pad1)*%
X204905000Y-101525000D03*
%TO.P,U1,6,-*%
%TO.N,Net-(R2-Pad1)*%
X203635000Y-101525000D03*
%TO.P,U1,7*%
%TO.N,Net-(R3-Pad2)*%
X202365000Y-101525000D03*
%TO.P,U1,8,V+*%
%TO.N,V+*%
X201095000Y-101525000D03*
D28*
%TO.P,U1,9,EP*%
%TO.N,V-*%
X203000000Y-104000000D03*
%TD*%
D16*
%TO.P,R2,1*%
%TO.N,Net-(R2-Pad1)*%
X199525000Y-100600000D03*
%TO.P,R2,2*%
%TO.N,GNDS*%
X197875000Y-100600000D03*
%TD*%
D21*
%TO.P,C6,1*%
%TO.N,V+*%
X188200000Y-106775000D03*
%TO.P,C6,2*%
%TO.N,Net-(C6-Pad2)*%
X188200000Y-105225000D03*
%TD*%
D29*
%TO.P,R1,1*%
%TO.N,Net-(C3-Pad1)*%
X200975000Y-108600000D03*
%TO.P,R1,2*%
%TO.N,Net-(C3-Pad2)*%
X202625000Y-108600000D03*
%TD*%
D22*
%TO.P,C9,1*%
%TO.N,GND*%
X194000000Y-112975000D03*
%TO.P,C9,2*%
%TO.N,V-*%
X194000000Y-110025000D03*
%TD*%
D13*
%TO.P,J3,1,Pin_1*%
%TO.N,Net-(C2-Pad2)*%
X192200000Y-95100000D03*
%TD*%
%TO.P,J1,1,Pin_1*%
%TO.N,Net-(C1-Pad1)*%
X188300000Y-95000000D03*
%TD*%
D14*
%TO.P,C2,1*%
%TO.N,GND*%
X193400000Y-99025000D03*
%TO.P,C2,2*%
%TO.N,Net-(C2-Pad2)*%
X193400000Y-101975000D03*
%TD*%
D30*
%TO.P,D1,1,K*%
%TO.N,Net-(C3-Pad2)*%
X196992500Y-108270000D03*
D31*
%TO.P,D1,2,A*%
%TO.N,V-*%
X196992500Y-105710000D03*
%TD*%
D32*
%TO.N,GNDS*%
X205600000Y-96000000D03*
X205600000Y-95000000D03*
X205600000Y-94000000D03*
X205600000Y-93000000D03*
X205600000Y-92000000D03*
X205600000Y-91000000D03*
%TO.N,GND*%
X192500000Y-93000000D03*
X191000000Y-93000000D03*
X189500000Y-93000000D03*
X188000000Y-93000000D03*
X192500000Y-92000000D03*
X191000000Y-92000000D03*
X189500000Y-92000000D03*
X188000000Y-92000000D03*
X192500000Y-91000000D03*
X191000000Y-91000000D03*
X189500000Y-91000000D03*
X188000000Y-91000000D03*
X197900000Y-102500000D03*
X190900000Y-106500000D03*
X199937414Y-111069305D03*
X192025000Y-112975000D03*
X193400000Y-97700000D03*
X191125000Y-112975000D03*
X189200000Y-97800000D03*
%TO.N,Net-(C3-Pad1)*%
X203600000Y-111700000D03*
X201900000Y-111700000D03*
%TO.N,V+*%
X199268209Y-104914738D03*
X191800000Y-110000000D03*
%TO.N,Net-(C6-Pad2)*%
X189100000Y-107400000D03*
X191200000Y-109300000D03*
%TO.N,Net-(C7-Pad1)*%
X194500000Y-103800000D03*
X191776089Y-103776089D03*
%TO.N,GNDS*%
X204200000Y-108700000D03*
%TO.N,Net-(R2-Pad1)*%
X201600000Y-100000000D03*
X203268475Y-100009782D03*
%TD*%
D33*
%TO.N,V-*%
X199300000Y-106000000D02*
X199300000Y-107825000D01*
X199400000Y-105900000D02*
X199300000Y-106000000D01*
%TO.N,Net-(C2-Pad2)*%
X194925000Y-101975000D02*
X193400000Y-101975000D01*
X192900000Y-95100000D02*
X195800000Y-98000000D01*
X195800000Y-101100000D02*
X194925000Y-101975000D01*
X192200000Y-95100000D02*
X192900000Y-95100000D01*
X195800000Y-98000000D02*
X195800000Y-101100000D01*
%TO.N,GND*%
X193400000Y-99025000D02*
X193400000Y-97700000D01*
%TO.N,Net-(C1-Pad1)*%
X190425000Y-101975000D02*
X189200000Y-101975000D01*
X191300000Y-101100000D02*
X190425000Y-101975000D01*
X191300000Y-98300000D02*
X191300000Y-101100000D01*
X189900000Y-96900000D02*
X191300000Y-98300000D01*
X188700000Y-96900000D02*
X189900000Y-96900000D01*
X188300000Y-95000000D02*
X188300000Y-96500000D01*
X188300000Y-96500000D02*
X188700000Y-96900000D01*
D34*
X190200000Y-105100000D02*
X190200000Y-104400000D01*
D33*
X189200000Y-101975000D02*
X189200000Y-102200000D01*
D34*
X191200000Y-104400000D02*
X191200000Y-105100000D01*
D33*
X189200000Y-102200000D02*
X190700000Y-103700000D01*
D34*
X190900000Y-104100000D02*
X191200000Y-104400000D01*
X190500000Y-104100000D02*
X190700000Y-104100000D01*
X190700000Y-104100000D02*
X190900000Y-104100000D01*
D33*
X190700000Y-103700000D02*
X190700000Y-104100000D01*
D34*
X190200000Y-104400000D02*
X190500000Y-104100000D01*
D33*
%TO.N,GND*%
X199300000Y-110431891D02*
X199937414Y-111069305D01*
D34*
X191700000Y-107290000D02*
X190910000Y-106500000D01*
D33*
X189200000Y-112975000D02*
X191125000Y-112975000D01*
X191125000Y-112975000D02*
X192025000Y-112975000D01*
X190200000Y-94700000D02*
X190200000Y-92500000D01*
D34*
X192200000Y-107900000D02*
X192200000Y-108700000D01*
X192200000Y-108700000D02*
X192100000Y-108800000D01*
D33*
X199300000Y-109375000D02*
X199300000Y-110431891D01*
D34*
X191700000Y-108600000D02*
X191700000Y-107290000D01*
D33*
X189200000Y-99025000D02*
X189200000Y-97800000D01*
X197925000Y-102525000D02*
X197900000Y-102500000D01*
X197925000Y-103900000D02*
X197925000Y-102525000D01*
D34*
X192100000Y-108800000D02*
X191900000Y-108800000D01*
D33*
X192025000Y-112975000D02*
X194000000Y-112975000D01*
D34*
X191900000Y-108800000D02*
X191700000Y-108600000D01*
%TO.N,Net-(C2-Pad2)*%
X192700000Y-107900000D02*
X192700000Y-106645000D01*
X192300000Y-104100000D02*
X192200000Y-104200000D01*
X192600000Y-104100000D02*
X192500000Y-104100000D01*
D33*
X193400000Y-103200000D02*
X192500000Y-104100000D01*
D34*
X192845000Y-106500000D02*
X192700000Y-106355000D01*
X192700000Y-106355000D02*
X192700000Y-104200000D01*
X192500000Y-104100000D02*
X192300000Y-104100000D01*
X192700000Y-106645000D02*
X192845000Y-106500000D01*
D33*
X193400000Y-101975000D02*
X193400000Y-103200000D01*
D34*
X192700000Y-104200000D02*
X192600000Y-104100000D01*
X192200000Y-104200000D02*
X192200000Y-105100000D01*
%TO.N,Net-(C3-Pad1)*%
X200975000Y-107825000D02*
X201100000Y-107700000D01*
X206100000Y-109200000D02*
X203600000Y-111700000D01*
X200975000Y-108600000D02*
X200975000Y-107825000D01*
X201100000Y-107700000D02*
X201100000Y-106480000D01*
X205625000Y-101525000D02*
X206100000Y-102000000D01*
X206100000Y-102000000D02*
X206100000Y-109200000D01*
X201900000Y-111700000D02*
X201300000Y-111700000D01*
X201025000Y-108650000D02*
X200975000Y-108600000D01*
X204905000Y-101525000D02*
X205625000Y-101525000D01*
X201025000Y-111425000D02*
X201025000Y-110400000D01*
X201300000Y-111700000D02*
X201025000Y-111425000D01*
X201025000Y-110400000D02*
X201025000Y-108650000D01*
X201100000Y-106480000D02*
X201095000Y-106475000D01*
%TO.N,Net-(C3-Pad2)*%
X202100000Y-112600000D02*
X200100000Y-112600000D01*
X202700000Y-112000000D02*
X202100000Y-112600000D01*
X202700000Y-110525000D02*
X202700000Y-112000000D01*
X202625000Y-107925000D02*
X202625000Y-108600000D01*
X200100000Y-112600000D02*
X197000000Y-109500000D01*
X202365000Y-106475000D02*
X202365000Y-107665000D01*
X202575000Y-110400000D02*
X202575000Y-108650000D01*
X202575000Y-110400000D02*
X202700000Y-110525000D01*
X197000000Y-109500000D02*
X197000000Y-108500000D01*
X202365000Y-107665000D02*
X202625000Y-107925000D01*
X202575000Y-108650000D02*
X202625000Y-108600000D01*
D33*
%TO.N,V+*%
X189750000Y-109050000D02*
X190000000Y-108800000D01*
X191750000Y-110050000D02*
X191800000Y-110000000D01*
X191500000Y-110050000D02*
X191750000Y-110050000D01*
X189200000Y-109600000D02*
X189750000Y-109050000D01*
D34*
X190200000Y-108600000D02*
X190000000Y-108800000D01*
D33*
X199385262Y-104914738D02*
X199600000Y-104700000D01*
X189200000Y-110025000D02*
X189225000Y-110050000D01*
X200675000Y-101525000D02*
X199475000Y-102725000D01*
D34*
X190200000Y-107900000D02*
X190200000Y-108600000D01*
D33*
X199475000Y-102725000D02*
X199475000Y-103900000D01*
X189200000Y-110025000D02*
X189200000Y-109600000D01*
D34*
X188200000Y-106775000D02*
X188200000Y-107500000D01*
D33*
X201095000Y-101525000D02*
X200675000Y-101525000D01*
X189225000Y-110050000D02*
X191500000Y-110050000D01*
X199600000Y-104025000D02*
X199475000Y-103900000D01*
D34*
X188200000Y-107500000D02*
X189750000Y-109050000D01*
D33*
X199268209Y-104914738D02*
X199385262Y-104914738D01*
X199600000Y-104700000D02*
X199600000Y-104025000D01*
%TO.N,V-*%
X194000000Y-109400000D02*
X193500000Y-108900000D01*
X195000000Y-106775000D02*
X195000000Y-109025000D01*
X195000000Y-106775000D02*
X195525000Y-106775000D01*
X196400000Y-105900000D02*
X199400000Y-105900000D01*
D34*
X204400000Y-104000000D02*
X203000000Y-104000000D01*
D33*
X195000000Y-109025000D02*
X194000000Y-110025000D01*
X199400000Y-105900000D02*
X200475000Y-104825000D01*
X194000000Y-110025000D02*
X194000000Y-109400000D01*
D34*
X204905000Y-106475000D02*
X204905000Y-104505000D01*
X204905000Y-104505000D02*
X204400000Y-104000000D01*
D33*
X200475000Y-104825000D02*
X202175000Y-104825000D01*
D34*
X193200000Y-108600000D02*
X193500000Y-108900000D01*
X193200000Y-107900000D02*
X193200000Y-108600000D01*
D33*
X202175000Y-104825000D02*
X203000000Y-104000000D01*
X195525000Y-106775000D02*
X196400000Y-105900000D01*
D34*
%TO.N,Net-(C6-Pad2)*%
X191200000Y-107900000D02*
X191200000Y-109300000D01*
X189100000Y-107400000D02*
X189100000Y-106125000D01*
X189100000Y-106125000D02*
X188200000Y-105225000D01*
%TO.N,Net-(C7-Pad1)*%
X191776089Y-103776089D02*
X191700000Y-103852178D01*
X195000000Y-104300000D02*
X194500000Y-103800000D01*
X195000000Y-105225000D02*
X195000000Y-104300000D01*
X191700000Y-103852178D02*
X191700000Y-105100000D01*
%TO.N,Net-(J4-Pad1)*%
X199392500Y-97607500D02*
X199392500Y-93000000D01*
X198237500Y-98300000D02*
X198700000Y-98300000D01*
X198700000Y-98300000D02*
X199392500Y-97607500D01*
D33*
%TO.N,GNDS*%
X196600000Y-96685000D02*
X196600000Y-99325000D01*
X196600000Y-99325000D02*
X197875000Y-100600000D01*
X195900000Y-95985000D02*
X196600000Y-96685000D01*
X203635000Y-108135000D02*
X204200000Y-108700000D01*
X203635000Y-106475000D02*
X203635000Y-108135000D01*
D34*
%TO.N,Net-(R2-Pad1)*%
X204400000Y-98575000D02*
X204325000Y-98500000D01*
X203635000Y-101525000D02*
X203635000Y-100435000D01*
X203635000Y-100365000D02*
X204400000Y-99600000D01*
X200100000Y-100600000D02*
X200700000Y-100000000D01*
X203635000Y-100376307D02*
X203635000Y-100435000D01*
X199525000Y-100600000D02*
X200100000Y-100600000D01*
X204400000Y-99600000D02*
X204400000Y-98575000D01*
X203635000Y-100435000D02*
X203635000Y-100365000D01*
X200700000Y-100000000D02*
X201600000Y-100000000D01*
X203268475Y-100009782D02*
X203635000Y-100376307D01*
%TO.N,Net-(R3-Pad2)*%
X201900000Y-98300000D02*
X202200000Y-98600000D01*
X202675000Y-99925000D02*
X202675000Y-98500000D01*
X202365000Y-101525000D02*
X202365000Y-100235000D01*
X201162500Y-98300000D02*
X201900000Y-98300000D01*
X202365000Y-100235000D02*
X202675000Y-99925000D01*
X202200000Y-98600000D02*
X202575000Y-98600000D01*
X202575000Y-98600000D02*
X202675000Y-98500000D01*
%TD*%
%TA.AperFunction,Conductor*%
%TO.N,GND*%
G36*
X193042121Y-90528502D02*
G01*
X193088614Y-90582158D01*
X193100000Y-90634500D01*
X193100000Y-93633931D01*
X193079998Y-93702052D01*
X193026342Y-93748545D01*
X192956068Y-93758649D01*
X192907886Y-93741192D01*
X192824317Y-93689679D01*
X192778968Y-93661725D01*
X192778966Y-93661724D01*
X192772738Y-93657885D01*
X192692995Y-93631436D01*
X192611389Y-93604368D01*
X192611387Y-93604368D01*
X192604861Y-93602203D01*
X192598025Y-93601503D01*
X192598022Y-93601502D01*
X192554969Y-93597091D01*
X192500400Y-93591500D01*
X191899600Y-93591500D01*
X191896354Y-93591837D01*
X191896350Y-93591837D01*
X191800692Y-93601762D01*
X191800688Y-93601763D01*
X191793834Y-93602474D01*
X191787298Y-93604655D01*
X191787296Y-93604655D01*
X191770928Y-93610116D01*
X191626054Y-93658450D01*
X191475652Y-93751522D01*
X191470479Y-93756704D01*
X191464176Y-93763018D01*
X191401893Y-93797097D01*
X191375003Y-93800000D01*
X191024113Y-93800000D01*
X190955992Y-93779998D01*
X190935095Y-93763173D01*
X190928171Y-93756261D01*
X190916760Y-93747249D01*
X190778757Y-93662184D01*
X190765576Y-93656037D01*
X190611290Y-93604862D01*
X190597914Y-93601995D01*
X190503562Y-93592328D01*
X190497145Y-93592000D01*
X190472115Y-93592000D01*
X190456876Y-93596475D01*
X190455671Y-93597865D01*
X190454000Y-93605548D01*
X190454000Y-93800000D01*
X189946000Y-93800000D01*
X189946000Y-93610116D01*
X189941525Y-93594877D01*
X189940135Y-93593672D01*
X189932452Y-93592001D01*
X189902905Y-93592001D01*
X189896386Y-93592338D01*
X189800794Y-93602257D01*
X189787400Y-93605149D01*
X189633216Y-93656588D01*
X189620038Y-93662761D01*
X189482192Y-93748064D01*
X189470795Y-93757097D01*
X189464883Y-93763019D01*
X189402600Y-93797098D01*
X189375711Y-93800000D01*
X189224995Y-93800000D01*
X189156874Y-93779998D01*
X189135977Y-93763173D01*
X189129891Y-93757097D01*
X189023303Y-93650695D01*
X188957472Y-93610116D01*
X188878968Y-93561725D01*
X188878966Y-93561724D01*
X188872738Y-93557885D01*
X188712254Y-93504655D01*
X188711389Y-93504368D01*
X188711387Y-93504368D01*
X188704861Y-93502203D01*
X188698025Y-93501503D01*
X188698022Y-93501502D01*
X188654969Y-93497091D01*
X188600400Y-93491500D01*
X187999600Y-93491500D01*
X187996354Y-93491837D01*
X187996350Y-93491837D01*
X187900692Y-93501762D01*
X187900688Y-93501763D01*
X187893834Y-93502474D01*
X187887298Y-93504655D01*
X187887296Y-93504655D01*
X187849356Y-93517313D01*
X187726054Y-93558450D01*
X187700802Y-93574077D01*
X187632352Y-93592914D01*
X187564582Y-93571753D01*
X187519011Y-93517313D01*
X187508500Y-93466932D01*
X187508500Y-91053250D01*
X187510246Y-91032345D01*
X187512770Y-91017344D01*
X187512770Y-91017341D01*
X187513576Y-91012552D01*
X187513729Y-91000000D01*
X187513040Y-90995188D01*
X187512723Y-90990327D01*
X187513008Y-90990308D01*
X187512607Y-90963549D01*
X187519234Y-90904736D01*
X187525513Y-90877229D01*
X187552485Y-90800147D01*
X187564727Y-90774726D01*
X187608178Y-90705574D01*
X187625770Y-90683515D01*
X187683515Y-90625770D01*
X187705574Y-90608178D01*
X187774726Y-90564727D01*
X187800147Y-90552485D01*
X187877228Y-90525513D01*
X187904736Y-90519234D01*
X187960226Y-90512982D01*
X187975868Y-90513077D01*
X187975879Y-90512200D01*
X187984851Y-90512310D01*
X187993724Y-90513691D01*
X188002626Y-90512527D01*
X188002628Y-90512527D01*
X188017677Y-90510559D01*
X188025286Y-90509564D01*
X188041621Y-90508500D01*
X192974000Y-90508500D01*
X193042121Y-90528502D01*
G37*
%TD.AperFunction*%
%TD*%
%TA.AperFunction,Conductor*%
%TO.N,GNDS*%
G36*
X201124688Y-90528502D02*
G01*
X201171181Y-90582158D01*
X201181285Y-90652432D01*
X201157393Y-90710065D01*
X201107714Y-90776352D01*
X201099176Y-90791946D01*
X201054022Y-90912394D01*
X201050395Y-90927649D01*
X201044869Y-90978514D01*
X201044500Y-90985328D01*
X201044500Y-92852885D01*
X201048975Y-92868124D01*
X201050365Y-92869329D01*
X201058048Y-92871000D01*
X204707384Y-92871000D01*
X204722623Y-92866525D01*
X204723828Y-92865135D01*
X204725499Y-92857452D01*
X204725499Y-90985331D01*
X204725129Y-90978510D01*
X204719605Y-90927648D01*
X204715979Y-90912396D01*
X204670824Y-90791946D01*
X204662286Y-90776352D01*
X204612607Y-90710065D01*
X204587759Y-90643559D01*
X204602812Y-90574176D01*
X204652986Y-90523946D01*
X204713433Y-90508500D01*
X205950633Y-90508500D01*
X205970018Y-90510000D01*
X205984852Y-90512310D01*
X205984855Y-90512310D01*
X205993724Y-90513691D01*
X206002626Y-90512527D01*
X206002750Y-90512511D01*
X206033192Y-90512240D01*
X206046070Y-90513691D01*
X206095264Y-90519234D01*
X206122771Y-90525513D01*
X206199853Y-90552485D01*
X206225274Y-90564727D01*
X206294426Y-90608178D01*
X206316485Y-90625770D01*
X206374230Y-90683515D01*
X206391822Y-90705574D01*
X206435273Y-90774726D01*
X206447515Y-90800147D01*
X206474487Y-90877228D01*
X206480766Y-90904736D01*
X206487018Y-90960226D01*
X206486923Y-90975868D01*
X206487800Y-90975879D01*
X206487690Y-90984851D01*
X206486309Y-90993724D01*
X206487473Y-91002626D01*
X206487473Y-91002628D01*
X206490436Y-91025283D01*
X206491500Y-91041621D01*
X206491500Y-96969078D01*
X206471498Y-97037199D01*
X206417842Y-97083692D01*
X206364524Y-97095074D01*
X203504417Y-97072902D01*
X203436456Y-97052374D01*
X203390380Y-96998359D01*
X203385989Y-96987132D01*
X203377387Y-96961597D01*
X202897812Y-96482022D01*
X202883868Y-96474408D01*
X202882035Y-96474539D01*
X202875420Y-96478790D01*
X202398481Y-96955729D01*
X202375574Y-96997678D01*
X202325371Y-97047880D01*
X202264010Y-97063287D01*
X201756535Y-97059353D01*
X201691396Y-97040617D01*
X201603968Y-96986725D01*
X201603966Y-96986724D01*
X201597738Y-96982885D01*
X201515865Y-96955729D01*
X201436389Y-96929368D01*
X201436387Y-96929368D01*
X201429861Y-96927203D01*
X201423025Y-96926503D01*
X201423022Y-96926502D01*
X201379969Y-96922091D01*
X201325400Y-96916500D01*
X200599600Y-96916500D01*
X200596354Y-96916837D01*
X200596350Y-96916837D01*
X200500692Y-96926762D01*
X200500688Y-96926763D01*
X200493834Y-96927474D01*
X200487298Y-96929655D01*
X200487296Y-96929655D01*
X200391555Y-96961597D01*
X200326054Y-96983450D01*
X200292665Y-97004112D01*
X200253532Y-97028328D01*
X200186252Y-97047180D01*
X200126023Y-97046713D01*
X200058059Y-97026184D01*
X200011984Y-96972169D01*
X200001000Y-96920717D01*
X200001000Y-95854500D01*
X200021002Y-95786379D01*
X200074658Y-95739886D01*
X200127000Y-95728500D01*
X200330634Y-95728500D01*
X200392816Y-95721745D01*
X200529205Y-95670615D01*
X200645761Y-95583261D01*
X200733115Y-95466705D01*
X200784245Y-95330316D01*
X200791000Y-95268134D01*
X200791000Y-95264669D01*
X201044501Y-95264669D01*
X201044871Y-95271490D01*
X201050395Y-95322352D01*
X201054021Y-95337604D01*
X201099176Y-95458054D01*
X201107714Y-95473649D01*
X201184215Y-95575724D01*
X201196776Y-95588285D01*
X201298851Y-95664786D01*
X201314446Y-95673324D01*
X201434894Y-95718478D01*
X201450149Y-95722105D01*
X201501014Y-95727631D01*
X201507828Y-95728000D01*
X201792211Y-95728000D01*
X201860332Y-95748002D01*
X201906825Y-95801658D01*
X201916929Y-95871932D01*
X201912312Y-95892102D01*
X201910861Y-95896677D01*
X201908313Y-95908664D01*
X201887979Y-96089943D01*
X201887808Y-96102212D01*
X201903071Y-96283982D01*
X201905286Y-96296047D01*
X201955565Y-96471391D01*
X201960083Y-96482803D01*
X202017286Y-96594107D01*
X202027007Y-96604328D01*
X202033806Y-96601984D01*
X202727978Y-95907812D01*
X202733206Y-95898237D01*
X203036300Y-95898237D01*
X203039538Y-95905328D01*
X203730659Y-96596449D01*
X203743039Y-96603209D01*
X203749773Y-96598168D01*
X203793494Y-96521207D01*
X203798487Y-96509991D01*
X203856062Y-96336914D01*
X203858782Y-96324942D01*
X203881973Y-96141364D01*
X203882465Y-96134335D01*
X203882756Y-96113505D01*
X203882463Y-96106512D01*
X203864403Y-95922325D01*
X203862020Y-95910290D01*
X203856020Y-95890417D01*
X203855479Y-95819423D01*
X203893406Y-95759406D01*
X203957761Y-95729422D01*
X203976642Y-95727999D01*
X204262169Y-95727999D01*
X204268990Y-95727629D01*
X204319852Y-95722105D01*
X204335104Y-95718479D01*
X204455554Y-95673324D01*
X204471149Y-95664786D01*
X204573224Y-95588285D01*
X204585785Y-95575724D01*
X204662286Y-95473649D01*
X204670824Y-95458054D01*
X204715978Y-95337606D01*
X204719605Y-95322351D01*
X204725131Y-95271486D01*
X204725500Y-95264672D01*
X204725500Y-93397115D01*
X204721025Y-93381876D01*
X204719635Y-93380671D01*
X204711952Y-93379000D01*
X203157115Y-93379000D01*
X203141876Y-93383475D01*
X203140671Y-93384865D01*
X203139000Y-93392548D01*
X203139000Y-95416885D01*
X203143475Y-95432124D01*
X203144865Y-95433329D01*
X203152548Y-95435000D01*
X203537000Y-95435000D01*
X203605121Y-95455002D01*
X203651614Y-95508658D01*
X203663000Y-95561000D01*
X203663000Y-95769000D01*
X203642998Y-95837121D01*
X203589342Y-95883614D01*
X203537000Y-95895000D01*
X203047325Y-95895000D01*
X203036300Y-95898237D01*
X202733206Y-95898237D01*
X202733487Y-95897723D01*
X202726186Y-95895000D01*
X202233000Y-95895000D01*
X202164879Y-95874998D01*
X202118386Y-95821342D01*
X202107000Y-95769000D01*
X202107000Y-95561000D01*
X202127002Y-95492879D01*
X202180658Y-95446386D01*
X202233000Y-95435000D01*
X202612885Y-95435000D01*
X202628124Y-95430525D01*
X202629329Y-95429135D01*
X202631000Y-95421452D01*
X202631000Y-93397115D01*
X202626525Y-93381876D01*
X202625135Y-93380671D01*
X202617452Y-93379000D01*
X201062616Y-93379000D01*
X201047377Y-93383475D01*
X201046172Y-93384865D01*
X201044501Y-93392548D01*
X201044501Y-95264669D01*
X200791000Y-95264669D01*
X200791000Y-90981866D01*
X200784245Y-90919684D01*
X200733115Y-90783295D01*
X200678232Y-90710065D01*
X200653384Y-90643559D01*
X200668437Y-90574176D01*
X200718611Y-90523946D01*
X200779058Y-90508500D01*
X201056567Y-90508500D01*
X201124688Y-90528502D01*
G37*
%TD.AperFunction*%
%TA.AperFunction,Conductor*%
G36*
X198074063Y-90528502D02*
G01*
X198120556Y-90582158D01*
X198130660Y-90652432D01*
X198106768Y-90710065D01*
X198051885Y-90783295D01*
X198000755Y-90919684D01*
X197994000Y-90981866D01*
X197994000Y-95268134D01*
X198000755Y-95330316D01*
X198051885Y-95466705D01*
X198139239Y-95583261D01*
X198255795Y-95670615D01*
X198392184Y-95721745D01*
X198454366Y-95728500D01*
X198658000Y-95728500D01*
X198726121Y-95748502D01*
X198772614Y-95802158D01*
X198784000Y-95854500D01*
X198784000Y-96845247D01*
X198763998Y-96913368D01*
X198710342Y-96959861D01*
X198640068Y-96969965D01*
X198618335Y-96964841D01*
X198504861Y-96927203D01*
X198498025Y-96926503D01*
X198498022Y-96926502D01*
X198454969Y-96922091D01*
X198400400Y-96916500D01*
X197674600Y-96916500D01*
X197671354Y-96916837D01*
X197671350Y-96916837D01*
X197575692Y-96926762D01*
X197575688Y-96926763D01*
X197568834Y-96927474D01*
X197562298Y-96929655D01*
X197562296Y-96929655D01*
X197466555Y-96961597D01*
X197401054Y-96983450D01*
X197364718Y-97005936D01*
X197297440Y-97024786D01*
X196498672Y-97018594D01*
X196430709Y-96998065D01*
X196403117Y-96973577D01*
X196396608Y-96965818D01*
X195629885Y-96199095D01*
X195595859Y-96136783D01*
X195600924Y-96065968D01*
X195629885Y-96020905D01*
X195742978Y-95907812D01*
X195748206Y-95898237D01*
X196051300Y-95898237D01*
X196054538Y-95905328D01*
X196745659Y-96596449D01*
X196758039Y-96603209D01*
X196764773Y-96598168D01*
X196808494Y-96521207D01*
X196813487Y-96509991D01*
X196871062Y-96336914D01*
X196873782Y-96324942D01*
X196896973Y-96141364D01*
X196897465Y-96134335D01*
X196897756Y-96113505D01*
X196897463Y-96106512D01*
X196879403Y-95922325D01*
X196877020Y-95910290D01*
X196871020Y-95890417D01*
X196870479Y-95819423D01*
X196908406Y-95759406D01*
X196972761Y-95729422D01*
X196991642Y-95727999D01*
X197277169Y-95727999D01*
X197283990Y-95727629D01*
X197334852Y-95722105D01*
X197350104Y-95718479D01*
X197470554Y-95673324D01*
X197486149Y-95664786D01*
X197588224Y-95588285D01*
X197600785Y-95575724D01*
X197677286Y-95473649D01*
X197685824Y-95458054D01*
X197730978Y-95337606D01*
X197734605Y-95322351D01*
X197740131Y-95271486D01*
X197740500Y-95264672D01*
X197740500Y-93397115D01*
X197736025Y-93381876D01*
X197734635Y-93380671D01*
X197726952Y-93379000D01*
X196172115Y-93379000D01*
X196156876Y-93383475D01*
X196155671Y-93384865D01*
X196154000Y-93392548D01*
X196154000Y-95416885D01*
X196158475Y-95432124D01*
X196159865Y-95433329D01*
X196167548Y-95435000D01*
X196552000Y-95435000D01*
X196620121Y-95455002D01*
X196666614Y-95508658D01*
X196678000Y-95561000D01*
X196678000Y-95769000D01*
X196657998Y-95837121D01*
X196604342Y-95883614D01*
X196552000Y-95895000D01*
X196062325Y-95895000D01*
X196051300Y-95898237D01*
X195748206Y-95898237D01*
X195748487Y-95897723D01*
X195741186Y-95895000D01*
X195248000Y-95895000D01*
X195179879Y-95874998D01*
X195133386Y-95821342D01*
X195122000Y-95769000D01*
X195122000Y-95561000D01*
X195142002Y-95492879D01*
X195195658Y-95446386D01*
X195248000Y-95435000D01*
X195627885Y-95435000D01*
X195643124Y-95430525D01*
X195644329Y-95429135D01*
X195646000Y-95421452D01*
X195646000Y-92997000D01*
X195666002Y-92928879D01*
X195719658Y-92882386D01*
X195772000Y-92871000D01*
X197722384Y-92871000D01*
X197737623Y-92866525D01*
X197738828Y-92865135D01*
X197740499Y-92857452D01*
X197740499Y-90985331D01*
X197740129Y-90978510D01*
X197734605Y-90927648D01*
X197730979Y-90912396D01*
X197685824Y-90791946D01*
X197677286Y-90776352D01*
X197627607Y-90710065D01*
X197602759Y-90643559D01*
X197617812Y-90574176D01*
X197667986Y-90523946D01*
X197728433Y-90508500D01*
X198005942Y-90508500D01*
X198074063Y-90528502D01*
G37*
%TD.AperFunction*%
%TD*%
M02*
