%TF.GenerationSoftware,KiCad,Pcbnew,(6.0.7)*%
%TF.CreationDate,2023-06-20T09:13:34+02:00*%
%TF.ProjectId,SFH203_photodetector,53464832-3033-45f7-9068-6f746f646574,2.2.1*%
%TF.SameCoordinates,Original*%
%TF.FileFunction,AssemblyDrawing,Bot*%
%FSLAX46Y46*%
G04 Gerber Fmt 4.6, Leading zero omitted, Abs format (unit mm)*
G04 Created by KiCad (PCBNEW (6.0.7)) date 2023-06-20 09:13:34*
%MOMM*%
%LPD*%
G01*
G04 APERTURE LIST*
%ADD10C,0.150000*%
%ADD11C,0.100000*%
G04 APERTURE END LIST*
D10*
%TO.C,LOGO1*%
X193232380Y-97819047D02*
X193232380Y-97342857D01*
X192232380Y-97342857D01*
X193232380Y-98295238D02*
X193184761Y-98200000D01*
X193137142Y-98152380D01*
X193041904Y-98104761D01*
X192756190Y-98104761D01*
X192660952Y-98152380D01*
X192613333Y-98200000D01*
X192565714Y-98295238D01*
X192565714Y-98438095D01*
X192613333Y-98533333D01*
X192660952Y-98580952D01*
X192756190Y-98628571D01*
X193041904Y-98628571D01*
X193137142Y-98580952D01*
X193184761Y-98533333D01*
X193232380Y-98438095D01*
X193232380Y-98295238D01*
X192565714Y-99485714D02*
X193375238Y-99485714D01*
X193470476Y-99438095D01*
X193518095Y-99390476D01*
X193565714Y-99295238D01*
X193565714Y-99152380D01*
X193518095Y-99057142D01*
X193184761Y-99485714D02*
X193232380Y-99390476D01*
X193232380Y-99200000D01*
X193184761Y-99104761D01*
X193137142Y-99057142D01*
X193041904Y-99009523D01*
X192756190Y-99009523D01*
X192660952Y-99057142D01*
X192613333Y-99104761D01*
X192565714Y-99200000D01*
X192565714Y-99390476D01*
X192613333Y-99485714D01*
X193232380Y-100104761D02*
X193184761Y-100009523D01*
X193137142Y-99961904D01*
X193041904Y-99914285D01*
X192756190Y-99914285D01*
X192660952Y-99961904D01*
X192613333Y-100009523D01*
X192565714Y-100104761D01*
X192565714Y-100247619D01*
X192613333Y-100342857D01*
X192660952Y-100390476D01*
X192756190Y-100438095D01*
X193041904Y-100438095D01*
X193137142Y-100390476D01*
X193184761Y-100342857D01*
X193232380Y-100247619D01*
X193232380Y-100104761D01*
X193327619Y-100628571D02*
X193327619Y-101390476D01*
X192946666Y-101580952D02*
X192946666Y-102057142D01*
X193232380Y-101485714D02*
X192232380Y-101819047D01*
X193232380Y-102152380D01*
X193232380Y-102485714D02*
X192232380Y-102485714D01*
X192232380Y-102866666D01*
X192280000Y-102961904D01*
X192327619Y-103009523D01*
X192422857Y-103057142D01*
X192565714Y-103057142D01*
X192660952Y-103009523D01*
X192708571Y-102961904D01*
X192756190Y-102866666D01*
X192756190Y-102485714D01*
X193327619Y-104152380D02*
X193280000Y-104057142D01*
X193184761Y-103961904D01*
X193041904Y-103819047D01*
X192994285Y-103723809D01*
X192994285Y-103628571D01*
X193232380Y-103676190D02*
X193184761Y-103580952D01*
X193089523Y-103485714D01*
X192899047Y-103438095D01*
X192565714Y-103438095D01*
X192375238Y-103485714D01*
X192280000Y-103580952D01*
X192232380Y-103676190D01*
X192232380Y-103866666D01*
X192280000Y-103961904D01*
X192375238Y-104057142D01*
X192565714Y-104104761D01*
X192899047Y-104104761D01*
X193089523Y-104057142D01*
X193184761Y-103961904D01*
X193232380Y-103866666D01*
X193232380Y-103676190D01*
%TO.C,D1*%
X201677261Y-103787142D02*
X201724880Y-103930000D01*
X201724880Y-104168095D01*
X201677261Y-104263333D01*
X201629642Y-104310952D01*
X201534404Y-104358571D01*
X201439166Y-104358571D01*
X201343928Y-104310952D01*
X201296309Y-104263333D01*
X201248690Y-104168095D01*
X201201071Y-103977619D01*
X201153452Y-103882380D01*
X201105833Y-103834761D01*
X201010595Y-103787142D01*
X200915357Y-103787142D01*
X200820119Y-103834761D01*
X200772500Y-103882380D01*
X200724880Y-103977619D01*
X200724880Y-104215714D01*
X200772500Y-104358571D01*
X201201071Y-105120476D02*
X201201071Y-104787142D01*
X201724880Y-104787142D02*
X200724880Y-104787142D01*
X200724880Y-105263333D01*
X201724880Y-105644285D02*
X200724880Y-105644285D01*
X201201071Y-105644285D02*
X201201071Y-106215714D01*
X201724880Y-106215714D02*
X200724880Y-106215714D01*
X200820119Y-106644285D02*
X200772500Y-106691904D01*
X200724880Y-106787142D01*
X200724880Y-107025238D01*
X200772500Y-107120476D01*
X200820119Y-107168095D01*
X200915357Y-107215714D01*
X201010595Y-107215714D01*
X201153452Y-107168095D01*
X201724880Y-106596666D01*
X201724880Y-107215714D01*
X200724880Y-107834761D02*
X200724880Y-107930000D01*
X200772500Y-108025238D01*
X200820119Y-108072857D01*
X200915357Y-108120476D01*
X201105833Y-108168095D01*
X201343928Y-108168095D01*
X201534404Y-108120476D01*
X201629642Y-108072857D01*
X201677261Y-108025238D01*
X201724880Y-107930000D01*
X201724880Y-107834761D01*
X201677261Y-107739523D01*
X201629642Y-107691904D01*
X201534404Y-107644285D01*
X201343928Y-107596666D01*
X201105833Y-107596666D01*
X200915357Y-107644285D01*
X200820119Y-107691904D01*
X200772500Y-107739523D01*
X200724880Y-107834761D01*
X200724880Y-108501428D02*
X200724880Y-109120476D01*
X201105833Y-108787142D01*
X201105833Y-108930000D01*
X201153452Y-109025238D01*
X201201071Y-109072857D01*
X201296309Y-109120476D01*
X201534404Y-109120476D01*
X201629642Y-109072857D01*
X201677261Y-109025238D01*
X201724880Y-108930000D01*
X201724880Y-108644285D01*
X201677261Y-108549047D01*
X201629642Y-108501428D01*
X200724880Y-109739523D02*
X200724880Y-109834761D01*
X200772500Y-109930000D01*
X200820119Y-109977619D01*
X200915357Y-110025238D01*
X201105833Y-110072857D01*
X201343928Y-110072857D01*
X201534404Y-110025238D01*
X201629642Y-109977619D01*
X201677261Y-109930000D01*
X201724880Y-109834761D01*
X201724880Y-109739523D01*
X201677261Y-109644285D01*
X201629642Y-109596666D01*
X201534404Y-109549047D01*
X201343928Y-109501428D01*
X201105833Y-109501428D01*
X200915357Y-109549047D01*
X200820119Y-109596666D01*
X200772500Y-109644285D01*
X200724880Y-109739523D01*
D11*
X198692500Y-109300000D02*
X195292500Y-109300000D01*
X198692500Y-109300000D02*
G75*
G03*
X195270041Y-109283229I-1700000J2300000D01*
G01*
%TD*%
M02*
