%TF.GenerationSoftware,KiCad,Pcbnew,(6.0.7)*%
%TF.CreationDate,2023-05-04T10:43:00+02:00*%
%TF.ProjectId,SFH203_photodetector,53464832-3033-45f7-9068-6f746f646574,2.1*%
%TF.SameCoordinates,Original*%
%TF.FileFunction,Copper,L2,Bot*%
%TF.FilePolarity,Positive*%
%FSLAX46Y46*%
G04 Gerber Fmt 4.6, Leading zero omitted, Abs format (unit mm)*
G04 Created by KiCad (PCBNEW (6.0.7)) date 2023-05-04 10:43:00*
%MOMM*%
%LPD*%
G01*
G04 APERTURE LIST*
G04 Aperture macros list*
%AMRoundRect*
0 Rectangle with rounded corners*
0 $1 Rounding radius*
0 $2 $3 $4 $5 $6 $7 $8 $9 X,Y pos of 4 corners*
0 Add a 4 corners polygon primitive as box body*
4,1,4,$2,$3,$4,$5,$6,$7,$8,$9,$2,$3,0*
0 Add four circle primitives for the rounded corners*
1,1,$1+$1,$2,$3*
1,1,$1+$1,$4,$5*
1,1,$1+$1,$6,$7*
1,1,$1+$1,$8,$9*
0 Add four rect primitives between the rounded corners*
20,1,$1+$1,$2,$3,$4,$5,0*
20,1,$1+$1,$4,$5,$6,$7,0*
20,1,$1+$1,$6,$7,$8,$9,0*
20,1,$1+$1,$8,$9,$2,$3,0*%
G04 Aperture macros list end*
%TA.AperFunction,ComponentPad*%
%ADD10RoundRect,0.250000X0.350000X0.625000X-0.350000X0.625000X-0.350000X-0.625000X0.350000X-0.625000X0*%
%TD*%
%TA.AperFunction,ComponentPad*%
%ADD11O,1.200000X1.750000*%
%TD*%
%TA.AperFunction,SMDPad,CuDef*%
%ADD12R,1.500000X5.080000*%
%TD*%
%TA.AperFunction,ComponentPad*%
%ADD13C,1.300000*%
%TD*%
%TA.AperFunction,ComponentPad*%
%ADD14C,1.100000*%
%TD*%
%TA.AperFunction,ViaPad*%
%ADD15C,0.600000*%
%TD*%
%TA.AperFunction,Conductor*%
%ADD16C,0.200000*%
%TD*%
%TA.AperFunction,Conductor*%
%ADD17C,0.500000*%
%TD*%
G04 APERTURE END LIST*
D10*
%TO.P,J1,1,Pin_1*%
%TO.N,Net-(C1-Pad1)*%
X199000000Y-118100000D03*
D11*
%TO.P,J1,2,Pin_2*%
%TO.N,GND*%
X197000000Y-118100000D03*
%TO.P,J1,3,Pin_3*%
%TO.N,Net-(C2-Pad2)*%
X195000000Y-118100000D03*
%TD*%
D12*
%TO.P,J4,2,Ext*%
%TO.N,GND*%
X203642500Y-93125000D03*
X195142500Y-93125000D03*
%TD*%
D13*
%TO.P,D1,1,K*%
%TO.N,Net-(C3-Pad2)*%
X196992500Y-108270000D03*
D14*
%TO.P,D1,2,A*%
%TO.N,V-*%
X196992500Y-105710000D03*
%TD*%
D15*
%TO.N,GND*%
X193000000Y-91000000D03*
X193000000Y-92000000D03*
X193000000Y-93000000D03*
X193000000Y-94000000D03*
X193000000Y-95000000D03*
X197000000Y-95000000D03*
X197000000Y-94000000D03*
X197000000Y-93000000D03*
X197000000Y-92000000D03*
X197000000Y-91000000D03*
%TO.N,V-*%
X192500000Y-104000000D03*
X190000000Y-104000000D03*
%TO.N,GND*%
X192500000Y-112000000D03*
X193500000Y-112000000D03*
X194500000Y-112000000D03*
X195500000Y-112000000D03*
X196500000Y-112000000D03*
X196500000Y-111000000D03*
X195500000Y-111000000D03*
X194500000Y-111000000D03*
X193500000Y-111000000D03*
X192500000Y-111000000D03*
%TO.N,Net-(C7-Pad1)*%
X190156626Y-113322639D03*
X188800000Y-107500000D03*
%TO.N,GND*%
X205600000Y-92000000D03*
X196000000Y-116000000D03*
X193000000Y-97900000D03*
X198000000Y-114000000D03*
X198000000Y-116000000D03*
X197000000Y-116000000D03*
X205600000Y-96000000D03*
X197900000Y-102500000D03*
X188200000Y-97900000D03*
X204000000Y-117000000D03*
X190100000Y-97900000D03*
X190900000Y-110800000D03*
X193900000Y-97900000D03*
X189000000Y-117000000D03*
X197000000Y-114000000D03*
X196000000Y-115000000D03*
X205000000Y-117000000D03*
X205600000Y-91000000D03*
X191900000Y-97900000D03*
X204200000Y-108700000D03*
X198000000Y-115000000D03*
X203000000Y-117000000D03*
X205600000Y-93000000D03*
X189200000Y-97900000D03*
X199937414Y-111069305D03*
X190000000Y-117000000D03*
X197000000Y-115000000D03*
X205600000Y-95000000D03*
X205600000Y-94000000D03*
X196000000Y-114000000D03*
X196900000Y-100600000D03*
X191000000Y-117000000D03*
%TO.N,Net-(C3-Pad1)*%
X203600000Y-111700000D03*
X201900000Y-111700000D03*
%TO.N,Net-(R2-Pad1)*%
X201600000Y-100000000D03*
X203268475Y-100009782D03*
%TD*%
D16*
%TO.N,Net-(C7-Pad1)*%
X187700000Y-113000000D02*
X188022639Y-113322639D01*
X187700000Y-108100000D02*
X187700000Y-113000000D01*
X188300000Y-107500000D02*
X187700000Y-108100000D01*
X188022639Y-113322639D02*
X190156626Y-113322639D01*
X188800000Y-107500000D02*
X188300000Y-107500000D01*
D17*
%TO.N,V-*%
X190000000Y-104000000D02*
X192500000Y-104000000D01*
D16*
%TO.N,Net-(C3-Pad1)*%
X203600000Y-111700000D02*
X201900000Y-111700000D01*
%TO.N,Net-(R2-Pad1)*%
X203258693Y-100000000D02*
X203268475Y-100009782D01*
X201600000Y-100000000D02*
X203258693Y-100000000D01*
%TD*%
%TA.AperFunction,Conductor*%
%TO.N,GND*%
G36*
X193826621Y-90528502D02*
G01*
X193873114Y-90582158D01*
X193884500Y-90634500D01*
X193884500Y-92852885D01*
X193888975Y-92868124D01*
X193890365Y-92869329D01*
X193898048Y-92871000D01*
X196382384Y-92871000D01*
X196397623Y-92866525D01*
X196398828Y-92865135D01*
X196400499Y-92857452D01*
X196400499Y-90634500D01*
X196420501Y-90566379D01*
X196474157Y-90519886D01*
X196526499Y-90508500D01*
X202258500Y-90508500D01*
X202326621Y-90528502D01*
X202373114Y-90582158D01*
X202384500Y-90634500D01*
X202384500Y-92852885D01*
X202388975Y-92868124D01*
X202390365Y-92869329D01*
X202398048Y-92871000D01*
X204882384Y-92871000D01*
X204897623Y-92866525D01*
X204898828Y-92865135D01*
X204900499Y-92857452D01*
X204900499Y-90634500D01*
X204920501Y-90566379D01*
X204974157Y-90519886D01*
X205026499Y-90508500D01*
X205950633Y-90508500D01*
X205970018Y-90510000D01*
X205984852Y-90512310D01*
X205984855Y-90512310D01*
X205993724Y-90513691D01*
X206002626Y-90512527D01*
X206002750Y-90512511D01*
X206033192Y-90512240D01*
X206040621Y-90513077D01*
X206095264Y-90519234D01*
X206122771Y-90525513D01*
X206199853Y-90552485D01*
X206225274Y-90564727D01*
X206294426Y-90608178D01*
X206316485Y-90625770D01*
X206374230Y-90683515D01*
X206391822Y-90705574D01*
X206435273Y-90774726D01*
X206447515Y-90800147D01*
X206474487Y-90877228D01*
X206480766Y-90904736D01*
X206487018Y-90960226D01*
X206486923Y-90975868D01*
X206487800Y-90975879D01*
X206487690Y-90984851D01*
X206486309Y-90993724D01*
X206487473Y-91002626D01*
X206487473Y-91002628D01*
X206490436Y-91025283D01*
X206491500Y-91041621D01*
X206491500Y-118950633D01*
X206490000Y-118970018D01*
X206489809Y-118971249D01*
X206486309Y-118993724D01*
X206487473Y-119002626D01*
X206487489Y-119002750D01*
X206487760Y-119033193D01*
X206480766Y-119095264D01*
X206474487Y-119122771D01*
X206447515Y-119199853D01*
X206435273Y-119225274D01*
X206391822Y-119294426D01*
X206374230Y-119316485D01*
X206316485Y-119374230D01*
X206294426Y-119391822D01*
X206225274Y-119435273D01*
X206199853Y-119447515D01*
X206122772Y-119474487D01*
X206095264Y-119480766D01*
X206039774Y-119487018D01*
X206024132Y-119486923D01*
X206024121Y-119487800D01*
X206015149Y-119487690D01*
X206006276Y-119486309D01*
X205997374Y-119487473D01*
X205997372Y-119487473D01*
X205986385Y-119488910D01*
X205974714Y-119490436D01*
X205958379Y-119491500D01*
X199960435Y-119491500D01*
X199892314Y-119471498D01*
X199845821Y-119417842D01*
X199835717Y-119347568D01*
X199865211Y-119282988D01*
X199871262Y-119276482D01*
X199944134Y-119203483D01*
X199949305Y-119198303D01*
X199986565Y-119137857D01*
X200038275Y-119053968D01*
X200038276Y-119053966D01*
X200042115Y-119047738D01*
X200097797Y-118879861D01*
X200108500Y-118775400D01*
X200108500Y-117424600D01*
X200097526Y-117318834D01*
X200093749Y-117307511D01*
X200043868Y-117158002D01*
X200041550Y-117151054D01*
X199948478Y-117000652D01*
X199823303Y-116875695D01*
X199817072Y-116871854D01*
X199678968Y-116786725D01*
X199678966Y-116786724D01*
X199672738Y-116782885D01*
X199564005Y-116746820D01*
X199511389Y-116729368D01*
X199511387Y-116729368D01*
X199504861Y-116727203D01*
X199498025Y-116726503D01*
X199498022Y-116726502D01*
X199454969Y-116722091D01*
X199400400Y-116716500D01*
X198599600Y-116716500D01*
X198596354Y-116716837D01*
X198596350Y-116716837D01*
X198500692Y-116726762D01*
X198500688Y-116726763D01*
X198493834Y-116727474D01*
X198487298Y-116729655D01*
X198487296Y-116729655D01*
X198423117Y-116751067D01*
X198326054Y-116783450D01*
X198175652Y-116876522D01*
X198050695Y-117001697D01*
X198046853Y-117007929D01*
X198046852Y-117007931D01*
X198018645Y-117053690D01*
X197965873Y-117101183D01*
X197895801Y-117112605D01*
X197830677Y-117084331D01*
X197812298Y-117065403D01*
X197809738Y-117062144D01*
X197801501Y-117053494D01*
X197650877Y-116922788D01*
X197641153Y-116915853D01*
X197468533Y-116815990D01*
X197457669Y-116811016D01*
X197269273Y-116745593D01*
X197268284Y-116745352D01*
X197257992Y-116746820D01*
X197254000Y-116760385D01*
X197254000Y-118228000D01*
X197233998Y-118296121D01*
X197180342Y-118342614D01*
X197128000Y-118354000D01*
X196872000Y-118354000D01*
X196803879Y-118333998D01*
X196757386Y-118280342D01*
X196746000Y-118228000D01*
X196746000Y-116764598D01*
X196742027Y-116751067D01*
X196732601Y-116749712D01*
X196643463Y-116771194D01*
X196632168Y-116775083D01*
X196450618Y-116857629D01*
X196440276Y-116863576D01*
X196277603Y-116978968D01*
X196268575Y-116986761D01*
X196130658Y-117130831D01*
X196123259Y-117140200D01*
X196105582Y-117167577D01*
X196051828Y-117213955D01*
X195981532Y-117223909D01*
X195917015Y-117194278D01*
X195900644Y-117177063D01*
X195864084Y-117130520D01*
X195806396Y-117057080D01*
X195801865Y-117053148D01*
X195801862Y-117053145D01*
X195651167Y-116922379D01*
X195646637Y-116918448D01*
X195641451Y-116915448D01*
X195641447Y-116915445D01*
X195468742Y-116815533D01*
X195463546Y-116812527D01*
X195263729Y-116743139D01*
X195257794Y-116742278D01*
X195257792Y-116742278D01*
X195060336Y-116713648D01*
X195060333Y-116713648D01*
X195054396Y-116712787D01*
X194843101Y-116722567D01*
X194730466Y-116749712D01*
X194643299Y-116770719D01*
X194643297Y-116770720D01*
X194637466Y-116772125D01*
X194632008Y-116774607D01*
X194632004Y-116774608D01*
X194540990Y-116815990D01*
X194444913Y-116859674D01*
X194272389Y-116982054D01*
X194126119Y-117134850D01*
X194011380Y-117312548D01*
X193932314Y-117508737D01*
X193891772Y-117716337D01*
X193891500Y-117721899D01*
X193891500Y-118427846D01*
X193906548Y-118585566D01*
X193966092Y-118788534D01*
X193968836Y-118793861D01*
X193968836Y-118793862D01*
X194058319Y-118967603D01*
X194062942Y-118976580D01*
X194193604Y-119142920D01*
X194340439Y-119270337D01*
X194378778Y-119330088D01*
X194378728Y-119401085D01*
X194340302Y-119460783D01*
X194275700Y-119490230D01*
X194257857Y-119491500D01*
X188051603Y-119491500D01*
X188031343Y-119489860D01*
X188009897Y-119486366D01*
X188000988Y-119487467D01*
X188000986Y-119487467D01*
X188000793Y-119487491D01*
X187970412Y-119487555D01*
X187969675Y-119487467D01*
X187907241Y-119480018D01*
X187879897Y-119473603D01*
X187801806Y-119445791D01*
X187776561Y-119433476D01*
X187706574Y-119389056D01*
X187684686Y-119371456D01*
X187626277Y-119312634D01*
X187608834Y-119290624D01*
X187564907Y-119220324D01*
X187552773Y-119194998D01*
X187525510Y-119116704D01*
X187519289Y-119089319D01*
X187514761Y-119048946D01*
X187512948Y-119032781D01*
X187513291Y-119017031D01*
X187512200Y-119017018D01*
X187512310Y-119008044D01*
X187513691Y-118999173D01*
X187512527Y-118990270D01*
X187512527Y-118990265D01*
X187509564Y-118967603D01*
X187508500Y-118951267D01*
X187508500Y-113950626D01*
X187528502Y-113882505D01*
X187582158Y-113836012D01*
X187652432Y-113825908D01*
X187701223Y-113846460D01*
X187702062Y-113845007D01*
X187709210Y-113849134D01*
X187715764Y-113854163D01*
X187863789Y-113915477D01*
X187982754Y-113931139D01*
X187982759Y-113931139D01*
X187982768Y-113931140D01*
X188014451Y-113935311D01*
X188022639Y-113936389D01*
X188054332Y-113932217D01*
X188070775Y-113931139D01*
X189572325Y-113931139D01*
X189641318Y-113951707D01*
X189789785Y-114048861D01*
X189796389Y-114051317D01*
X189796391Y-114051318D01*
X189953184Y-114109629D01*
X189953186Y-114109629D01*
X189959794Y-114112087D01*
X190043621Y-114123272D01*
X190132606Y-114135146D01*
X190132610Y-114135146D01*
X190139587Y-114136077D01*
X190146598Y-114135439D01*
X190146602Y-114135439D01*
X190289085Y-114122471D01*
X190320226Y-114119637D01*
X190326928Y-114117459D01*
X190326930Y-114117459D01*
X190486035Y-114065763D01*
X190486038Y-114065762D01*
X190492734Y-114063586D01*
X190648538Y-113970708D01*
X190779892Y-113845621D01*
X190880269Y-113694541D01*
X190944681Y-113524977D01*
X190969925Y-113345356D01*
X190970242Y-113322639D01*
X190950023Y-113142384D01*
X190890371Y-112971087D01*
X190794252Y-112817263D01*
X190789290Y-112812266D01*
X190671404Y-112693554D01*
X190671400Y-112693551D01*
X190666441Y-112688557D01*
X190655323Y-112681501D01*
X190590685Y-112640481D01*
X190513292Y-112591366D01*
X190484089Y-112580967D01*
X190349051Y-112532882D01*
X190349046Y-112532881D01*
X190342416Y-112530520D01*
X190335428Y-112529687D01*
X190335425Y-112529686D01*
X190199163Y-112513438D01*
X190162306Y-112509043D01*
X190155303Y-112509779D01*
X190155302Y-112509779D01*
X189988914Y-112527267D01*
X189988912Y-112527268D01*
X189981914Y-112528003D01*
X189810205Y-112586457D01*
X189655714Y-112681501D01*
X189650680Y-112686430D01*
X189649402Y-112687429D01*
X189583408Y-112713606D01*
X189571830Y-112714139D01*
X188434500Y-112714139D01*
X188366379Y-112694137D01*
X188319886Y-112640481D01*
X188308500Y-112588139D01*
X188308500Y-111688640D01*
X201086463Y-111688640D01*
X201104163Y-111869160D01*
X201161418Y-112041273D01*
X201165065Y-112047295D01*
X201165066Y-112047297D01*
X201175978Y-112065314D01*
X201255380Y-112196424D01*
X201381382Y-112326902D01*
X201533159Y-112426222D01*
X201539763Y-112428678D01*
X201539765Y-112428679D01*
X201696558Y-112486990D01*
X201696560Y-112486990D01*
X201703168Y-112489448D01*
X201786995Y-112500633D01*
X201875980Y-112512507D01*
X201875984Y-112512507D01*
X201882961Y-112513438D01*
X201889972Y-112512800D01*
X201889976Y-112512800D01*
X202032459Y-112499832D01*
X202063600Y-112496998D01*
X202070302Y-112494820D01*
X202070304Y-112494820D01*
X202229409Y-112443124D01*
X202229412Y-112443123D01*
X202236108Y-112440947D01*
X202391912Y-112348069D01*
X202397013Y-112343212D01*
X202402626Y-112338951D01*
X202403385Y-112339952D01*
X202460090Y-112310762D01*
X202483860Y-112308500D01*
X203015699Y-112308500D01*
X203084692Y-112329068D01*
X203101325Y-112339952D01*
X203233159Y-112426222D01*
X203239763Y-112428678D01*
X203239765Y-112428679D01*
X203396558Y-112486990D01*
X203396560Y-112486990D01*
X203403168Y-112489448D01*
X203486995Y-112500633D01*
X203575980Y-112512507D01*
X203575984Y-112512507D01*
X203582961Y-112513438D01*
X203589972Y-112512800D01*
X203589976Y-112512800D01*
X203732459Y-112499832D01*
X203763600Y-112496998D01*
X203770302Y-112494820D01*
X203770304Y-112494820D01*
X203929409Y-112443124D01*
X203929412Y-112443123D01*
X203936108Y-112440947D01*
X204091912Y-112348069D01*
X204223266Y-112222982D01*
X204323643Y-112071902D01*
X204388055Y-111902338D01*
X204389035Y-111895366D01*
X204412748Y-111726639D01*
X204412748Y-111726636D01*
X204413299Y-111722717D01*
X204413616Y-111700000D01*
X204393397Y-111519745D01*
X204391080Y-111513091D01*
X204336064Y-111355106D01*
X204336062Y-111355103D01*
X204333745Y-111348448D01*
X204237626Y-111194624D01*
X204223941Y-111180843D01*
X204114778Y-111070915D01*
X204114774Y-111070912D01*
X204109815Y-111065918D01*
X204098697Y-111058862D01*
X204050538Y-111028300D01*
X203956666Y-110968727D01*
X203927463Y-110958328D01*
X203792425Y-110910243D01*
X203792420Y-110910242D01*
X203785790Y-110907881D01*
X203778802Y-110907048D01*
X203778799Y-110907047D01*
X203655698Y-110892368D01*
X203605680Y-110886404D01*
X203598677Y-110887140D01*
X203598676Y-110887140D01*
X203432288Y-110904628D01*
X203432286Y-110904629D01*
X203425288Y-110905364D01*
X203253579Y-110963818D01*
X203099088Y-111058862D01*
X203094054Y-111063791D01*
X203092776Y-111064790D01*
X203026782Y-111090967D01*
X203015204Y-111091500D01*
X202484751Y-111091500D01*
X202416630Y-111071498D01*
X202412157Y-111068276D01*
X202409815Y-111065918D01*
X202398697Y-111058862D01*
X202350538Y-111028300D01*
X202256666Y-110968727D01*
X202227463Y-110958328D01*
X202092425Y-110910243D01*
X202092420Y-110910242D01*
X202085790Y-110907881D01*
X202078802Y-110907048D01*
X202078799Y-110907047D01*
X201955698Y-110892368D01*
X201905680Y-110886404D01*
X201898677Y-110887140D01*
X201898676Y-110887140D01*
X201732288Y-110904628D01*
X201732286Y-110904629D01*
X201725288Y-110905364D01*
X201553579Y-110963818D01*
X201547575Y-110967512D01*
X201405095Y-111055166D01*
X201405092Y-111055168D01*
X201399088Y-111058862D01*
X201394053Y-111063793D01*
X201394050Y-111063795D01*
X201365759Y-111091500D01*
X201269493Y-111185771D01*
X201171235Y-111338238D01*
X201168826Y-111344858D01*
X201168824Y-111344861D01*
X201111606Y-111502066D01*
X201109197Y-111508685D01*
X201086463Y-111688640D01*
X188308500Y-111688640D01*
X188308500Y-109900000D01*
X193800000Y-109900000D01*
X200200000Y-109900000D01*
X200200000Y-103700000D01*
X193800000Y-103700000D01*
X193800000Y-109900000D01*
X188308500Y-109900000D01*
X188308500Y-108404239D01*
X188328502Y-108336118D01*
X188345405Y-108315144D01*
X188376811Y-108283738D01*
X188439123Y-108249712D01*
X188509825Y-108254735D01*
X188596563Y-108286992D01*
X188596566Y-108286993D01*
X188603168Y-108289448D01*
X188610149Y-108290379D01*
X188610151Y-108290380D01*
X188775980Y-108312507D01*
X188775984Y-108312507D01*
X188782961Y-108313438D01*
X188789972Y-108312800D01*
X188789976Y-108312800D01*
X188932459Y-108299832D01*
X188963600Y-108296998D01*
X188970302Y-108294820D01*
X188970304Y-108294820D01*
X189129409Y-108243124D01*
X189129412Y-108243123D01*
X189136108Y-108240947D01*
X189291912Y-108148069D01*
X189423266Y-108022982D01*
X189523643Y-107871902D01*
X189588055Y-107702338D01*
X189613299Y-107522717D01*
X189613616Y-107500000D01*
X189593397Y-107319745D01*
X189569068Y-107249882D01*
X189536064Y-107155106D01*
X189536062Y-107155103D01*
X189533745Y-107148448D01*
X189530009Y-107142469D01*
X189441359Y-107000598D01*
X189437626Y-106994624D01*
X189408522Y-106965316D01*
X189314778Y-106870915D01*
X189314774Y-106870912D01*
X189309815Y-106865918D01*
X189298697Y-106858862D01*
X189250538Y-106828300D01*
X189156666Y-106768727D01*
X189127463Y-106758328D01*
X188992425Y-106710243D01*
X188992420Y-106710242D01*
X188985790Y-106707881D01*
X188978802Y-106707048D01*
X188978799Y-106707047D01*
X188855698Y-106692368D01*
X188805680Y-106686404D01*
X188798677Y-106687140D01*
X188798676Y-106687140D01*
X188632288Y-106704628D01*
X188632286Y-106704629D01*
X188625288Y-106705364D01*
X188453579Y-106763818D01*
X188447575Y-106767512D01*
X188305090Y-106855169D01*
X188305087Y-106855171D01*
X188299088Y-106858862D01*
X188294056Y-106863790D01*
X188288502Y-106868129D01*
X188287098Y-106866332D01*
X188233982Y-106894605D01*
X188224959Y-106896128D01*
X188176211Y-106902546D01*
X188160543Y-106904609D01*
X188160542Y-106904609D01*
X188149337Y-106906084D01*
X188149336Y-106906084D01*
X188141149Y-106907162D01*
X187993124Y-106968476D01*
X187986573Y-106973503D01*
X187986571Y-106973504D01*
X187951262Y-107000598D01*
X187897928Y-107041523D01*
X187897925Y-107041526D01*
X187866013Y-107066013D01*
X187860983Y-107072568D01*
X187846548Y-107091379D01*
X187835681Y-107103770D01*
X187723595Y-107215856D01*
X187661283Y-107249882D01*
X187590468Y-107244817D01*
X187533632Y-107202270D01*
X187508821Y-107135750D01*
X187508500Y-107126761D01*
X187508500Y-103988640D01*
X189186463Y-103988640D01*
X189204163Y-104169160D01*
X189261418Y-104341273D01*
X189265065Y-104347295D01*
X189265066Y-104347297D01*
X189275978Y-104365314D01*
X189355380Y-104496424D01*
X189481382Y-104626902D01*
X189633159Y-104726222D01*
X189639763Y-104728678D01*
X189639765Y-104728679D01*
X189796558Y-104786990D01*
X189796560Y-104786990D01*
X189803168Y-104789448D01*
X189886995Y-104800633D01*
X189975980Y-104812507D01*
X189975984Y-104812507D01*
X189982961Y-104813438D01*
X189989972Y-104812800D01*
X189989976Y-104812800D01*
X190132459Y-104799832D01*
X190163600Y-104796998D01*
X190170302Y-104794820D01*
X190170304Y-104794820D01*
X190263105Y-104764667D01*
X190302041Y-104758500D01*
X192197282Y-104758500D01*
X192241202Y-104766403D01*
X192296558Y-104786990D01*
X192296560Y-104786991D01*
X192303168Y-104789448D01*
X192386995Y-104800633D01*
X192475980Y-104812507D01*
X192475984Y-104812507D01*
X192482961Y-104813438D01*
X192489972Y-104812800D01*
X192489976Y-104812800D01*
X192632459Y-104799832D01*
X192663600Y-104796998D01*
X192670302Y-104794820D01*
X192670304Y-104794820D01*
X192829409Y-104743124D01*
X192829412Y-104743123D01*
X192836108Y-104740947D01*
X192991912Y-104648069D01*
X193123266Y-104522982D01*
X193223643Y-104371902D01*
X193288055Y-104202338D01*
X193289035Y-104195366D01*
X193312748Y-104026639D01*
X193312748Y-104026636D01*
X193313299Y-104022717D01*
X193313616Y-104000000D01*
X193293397Y-103819745D01*
X193291080Y-103813091D01*
X193236064Y-103655106D01*
X193236062Y-103655103D01*
X193233745Y-103648448D01*
X193137626Y-103494624D01*
X193123941Y-103480843D01*
X193014778Y-103370915D01*
X193014774Y-103370912D01*
X193009815Y-103365918D01*
X192998697Y-103358862D01*
X192950538Y-103328300D01*
X192856666Y-103268727D01*
X192827463Y-103258328D01*
X192692425Y-103210243D01*
X192692420Y-103210242D01*
X192685790Y-103207881D01*
X192678802Y-103207048D01*
X192678799Y-103207047D01*
X192555698Y-103192368D01*
X192505680Y-103186404D01*
X192498677Y-103187140D01*
X192498676Y-103187140D01*
X192332288Y-103204628D01*
X192332286Y-103204629D01*
X192325288Y-103205364D01*
X192240585Y-103234199D01*
X192238884Y-103234778D01*
X192198279Y-103241500D01*
X190301966Y-103241500D01*
X190259699Y-103234199D01*
X190192424Y-103210243D01*
X190192422Y-103210242D01*
X190185790Y-103207881D01*
X190178802Y-103207048D01*
X190178799Y-103207047D01*
X190055698Y-103192368D01*
X190005680Y-103186404D01*
X189998677Y-103187140D01*
X189998676Y-103187140D01*
X189832288Y-103204628D01*
X189832286Y-103204629D01*
X189825288Y-103205364D01*
X189653579Y-103263818D01*
X189647575Y-103267512D01*
X189505095Y-103355166D01*
X189505092Y-103355168D01*
X189499088Y-103358862D01*
X189494053Y-103363793D01*
X189494050Y-103363795D01*
X189374525Y-103480843D01*
X189369493Y-103485771D01*
X189271235Y-103638238D01*
X189268826Y-103644858D01*
X189268824Y-103644861D01*
X189243824Y-103713548D01*
X189209197Y-103808685D01*
X189186463Y-103988640D01*
X187508500Y-103988640D01*
X187508500Y-99988640D01*
X200786463Y-99988640D01*
X200804163Y-100169160D01*
X200861418Y-100341273D01*
X200865065Y-100347295D01*
X200865066Y-100347297D01*
X200885892Y-100381684D01*
X200955380Y-100496424D01*
X201081382Y-100626902D01*
X201233159Y-100726222D01*
X201239763Y-100728678D01*
X201239765Y-100728679D01*
X201396558Y-100786990D01*
X201396560Y-100786990D01*
X201403168Y-100789448D01*
X201483464Y-100800162D01*
X201575980Y-100812507D01*
X201575984Y-100812507D01*
X201582961Y-100813438D01*
X201589972Y-100812800D01*
X201589976Y-100812800D01*
X201739075Y-100799230D01*
X201763600Y-100796998D01*
X201770302Y-100794820D01*
X201770304Y-100794820D01*
X201929409Y-100743124D01*
X201929412Y-100743123D01*
X201936108Y-100740947D01*
X202091912Y-100648069D01*
X202097013Y-100643212D01*
X202102626Y-100638951D01*
X202103385Y-100639952D01*
X202160090Y-100610762D01*
X202183860Y-100608500D01*
X202671658Y-100608500D01*
X202739779Y-100628502D01*
X202747180Y-100633912D01*
X202749857Y-100636684D01*
X202755753Y-100640542D01*
X202886686Y-100726222D01*
X202901634Y-100736004D01*
X202908238Y-100738460D01*
X202908240Y-100738461D01*
X203065033Y-100796772D01*
X203065035Y-100796772D01*
X203071643Y-100799230D01*
X203155470Y-100810415D01*
X203244455Y-100822289D01*
X203244459Y-100822289D01*
X203251436Y-100823220D01*
X203258447Y-100822582D01*
X203258451Y-100822582D01*
X203400934Y-100809614D01*
X203432075Y-100806780D01*
X203438777Y-100804602D01*
X203438779Y-100804602D01*
X203597884Y-100752906D01*
X203597887Y-100752905D01*
X203604583Y-100750729D01*
X203760387Y-100657851D01*
X203891741Y-100532764D01*
X203992118Y-100381684D01*
X204056530Y-100212120D01*
X204081774Y-100032499D01*
X204082091Y-100009782D01*
X204061872Y-99829527D01*
X204002220Y-99658230D01*
X203906101Y-99504406D01*
X203901139Y-99499409D01*
X203783253Y-99380697D01*
X203783249Y-99380694D01*
X203778290Y-99375700D01*
X203767172Y-99368644D01*
X203719013Y-99338082D01*
X203625141Y-99278509D01*
X203577506Y-99261547D01*
X203460900Y-99220025D01*
X203460895Y-99220024D01*
X203454265Y-99217663D01*
X203447277Y-99216830D01*
X203447274Y-99216829D01*
X203324173Y-99202150D01*
X203274155Y-99196186D01*
X203267152Y-99196922D01*
X203267151Y-99196922D01*
X203100763Y-99214410D01*
X203100761Y-99214411D01*
X203093763Y-99215146D01*
X202922054Y-99273600D01*
X202767563Y-99368644D01*
X202766875Y-99367525D01*
X202707781Y-99390967D01*
X202696200Y-99391500D01*
X202184751Y-99391500D01*
X202116630Y-99371498D01*
X202112157Y-99368276D01*
X202109815Y-99365918D01*
X202098697Y-99358862D01*
X202050538Y-99328300D01*
X201956666Y-99268727D01*
X201927463Y-99258328D01*
X201792425Y-99210243D01*
X201792420Y-99210242D01*
X201785790Y-99207881D01*
X201778802Y-99207048D01*
X201778799Y-99207047D01*
X201655698Y-99192368D01*
X201605680Y-99186404D01*
X201598677Y-99187140D01*
X201598676Y-99187140D01*
X201432288Y-99204628D01*
X201432286Y-99204629D01*
X201425288Y-99205364D01*
X201253579Y-99263818D01*
X201223557Y-99282288D01*
X201105095Y-99355166D01*
X201105092Y-99355168D01*
X201099088Y-99358862D01*
X201094053Y-99363793D01*
X201094050Y-99363795D01*
X201065759Y-99391500D01*
X200969493Y-99485771D01*
X200871235Y-99638238D01*
X200868826Y-99644858D01*
X200868824Y-99644861D01*
X200863958Y-99658230D01*
X200809197Y-99808685D01*
X200786463Y-99988640D01*
X187508500Y-99988640D01*
X187508500Y-95709669D01*
X193884501Y-95709669D01*
X193884871Y-95716490D01*
X193890395Y-95767352D01*
X193894021Y-95782604D01*
X193939176Y-95903054D01*
X193947714Y-95918649D01*
X194024215Y-96020724D01*
X194036776Y-96033285D01*
X194138851Y-96109786D01*
X194154446Y-96118324D01*
X194274894Y-96163478D01*
X194290149Y-96167105D01*
X194341014Y-96172631D01*
X194347828Y-96173000D01*
X194870385Y-96173000D01*
X194885624Y-96168525D01*
X194886829Y-96167135D01*
X194888500Y-96159452D01*
X194888500Y-96154884D01*
X195396500Y-96154884D01*
X195400975Y-96170123D01*
X195402365Y-96171328D01*
X195410048Y-96172999D01*
X195937169Y-96172999D01*
X195943990Y-96172629D01*
X195994852Y-96167105D01*
X196010104Y-96163479D01*
X196130554Y-96118324D01*
X196146149Y-96109786D01*
X196248224Y-96033285D01*
X196260785Y-96020724D01*
X196337286Y-95918649D01*
X196345824Y-95903054D01*
X196390978Y-95782606D01*
X196394605Y-95767351D01*
X196400131Y-95716486D01*
X196400500Y-95709672D01*
X196400500Y-95709669D01*
X202384501Y-95709669D01*
X202384871Y-95716490D01*
X202390395Y-95767352D01*
X202394021Y-95782604D01*
X202439176Y-95903054D01*
X202447714Y-95918649D01*
X202524215Y-96020724D01*
X202536776Y-96033285D01*
X202638851Y-96109786D01*
X202654446Y-96118324D01*
X202774894Y-96163478D01*
X202790149Y-96167105D01*
X202841014Y-96172631D01*
X202847828Y-96173000D01*
X203370385Y-96173000D01*
X203385624Y-96168525D01*
X203386829Y-96167135D01*
X203388500Y-96159452D01*
X203388500Y-96154884D01*
X203896500Y-96154884D01*
X203900975Y-96170123D01*
X203902365Y-96171328D01*
X203910048Y-96172999D01*
X204437169Y-96172999D01*
X204443990Y-96172629D01*
X204494852Y-96167105D01*
X204510104Y-96163479D01*
X204630554Y-96118324D01*
X204646149Y-96109786D01*
X204748224Y-96033285D01*
X204760785Y-96020724D01*
X204837286Y-95918649D01*
X204845824Y-95903054D01*
X204890978Y-95782606D01*
X204894605Y-95767351D01*
X204900131Y-95716486D01*
X204900500Y-95709672D01*
X204900500Y-93397115D01*
X204896025Y-93381876D01*
X204894635Y-93380671D01*
X204886952Y-93379000D01*
X203914615Y-93379000D01*
X203899376Y-93383475D01*
X203898171Y-93384865D01*
X203896500Y-93392548D01*
X203896500Y-96154884D01*
X203388500Y-96154884D01*
X203388500Y-93397115D01*
X203384025Y-93381876D01*
X203382635Y-93380671D01*
X203374952Y-93379000D01*
X202402616Y-93379000D01*
X202387377Y-93383475D01*
X202386172Y-93384865D01*
X202384501Y-93392548D01*
X202384501Y-95709669D01*
X196400500Y-95709669D01*
X196400500Y-93397115D01*
X196396025Y-93381876D01*
X196394635Y-93380671D01*
X196386952Y-93379000D01*
X195414615Y-93379000D01*
X195399376Y-93383475D01*
X195398171Y-93384865D01*
X195396500Y-93392548D01*
X195396500Y-96154884D01*
X194888500Y-96154884D01*
X194888500Y-93397115D01*
X194884025Y-93381876D01*
X194882635Y-93380671D01*
X194874952Y-93379000D01*
X193902616Y-93379000D01*
X193887377Y-93383475D01*
X193886172Y-93384865D01*
X193884501Y-93392548D01*
X193884501Y-95709669D01*
X187508500Y-95709669D01*
X187508500Y-91053250D01*
X187510246Y-91032345D01*
X187512770Y-91017344D01*
X187512770Y-91017341D01*
X187513576Y-91012552D01*
X187513729Y-91000000D01*
X187513040Y-90995188D01*
X187512723Y-90990327D01*
X187513008Y-90990308D01*
X187512607Y-90963549D01*
X187519234Y-90904736D01*
X187525513Y-90877229D01*
X187552485Y-90800147D01*
X187564727Y-90774726D01*
X187608178Y-90705574D01*
X187625770Y-90683515D01*
X187683515Y-90625770D01*
X187705574Y-90608178D01*
X187774726Y-90564727D01*
X187800147Y-90552485D01*
X187877228Y-90525513D01*
X187904736Y-90519234D01*
X187960226Y-90512982D01*
X187975868Y-90513077D01*
X187975879Y-90512200D01*
X187984851Y-90512310D01*
X187993724Y-90513691D01*
X188002626Y-90512527D01*
X188002628Y-90512527D01*
X188017951Y-90510523D01*
X188025286Y-90509564D01*
X188041621Y-90508500D01*
X193758500Y-90508500D01*
X193826621Y-90528502D01*
G37*
%TD.AperFunction*%
%TD*%
M02*
