M48
; DRILL file {KiCad (6.0.1)} date Mon Sep  5 01:03:09 2022
; FORMAT={-:-/ absolute / inch / decimal}
; #@! TF.CreationDate,2022-09-05T01:03:09+02:00
; #@! TF.GenerationSoftware,Kicad,Pcbnew,(6.0.1)
; #@! TF.FileFunction,Plated,1,2,PTH
FMAT,2
INCH
; #@! TA.AperFunction,Plated,PTH,ViaDrill
T1C0.0118
; #@! TA.AperFunction,Plated,PTH,ComponentDrill
T2C0.0276
; #@! TA.AperFunction,Plated,PTH,ComponentDrill
T3C0.0315
; #@! TA.AperFunction,Plated,PTH,ComponentDrill
T4C0.0354
; #@! TA.AperFunction,Plated,PTH,ComponentDrill
T5C0.0394
; #@! TA.AperFunction,Plated,PTH,ComponentDrill
T6C0.0591
%
G90
G05
T1
X4.8563Y-2.5768
X4.9547Y-2.8161
X5.128Y-2.6398
X5.1358Y-2.935
X5.2894Y-2.6476
X5.3012Y-2.7657
X5.3563Y-2.7657
X5.3878Y-2.6476
X5.5728Y-2.3287
X5.5728Y-2.7303
X5.6161Y-2.9311
X5.6713Y-2.6122
X5.6909Y-2.3287
X5.8169Y-2.7461
X5.8327Y-2.935
T2
X5.2106Y-3.1201
T3
X4.7264Y-2.313
X4.7264Y-2.5098
T4
X5.1098Y-3.1201
T5
X5.9547Y-2.528
X5.9547Y-2.628
X5.9547Y-2.728
T6
X4.3193Y-2.4098
X4.3193Y-2.6098
X4.4193Y-2.5098
X4.5193Y-2.4098
X4.5193Y-2.6098
T0
M30
