G04 #@! TF.GenerationSoftware,KiCad,Pcbnew,(6.0.1)*
G04 #@! TF.CreationDate,2022-09-05T01:03:02+02:00*
G04 #@! TF.ProjectId,SFH203_photodetector,53464832-3033-45f7-9068-6f746f646574,1.5*
G04 #@! TF.SameCoordinates,Original*
G04 #@! TF.FileFunction,Copper,L2,Bot*
G04 #@! TF.FilePolarity,Positive*
%FSLAX46Y46*%
G04 Gerber Fmt 4.6, Leading zero omitted, Abs format (unit mm)*
G04 Created by KiCad (PCBNEW (6.0.1)) date 2022-09-05 01:03:02*
%MOMM*%
%LPD*%
G01*
G04 APERTURE LIST*
G04 #@! TA.AperFunction,ComponentPad*
%ADD10C,1.600000*%
G04 #@! TD*
G04 #@! TA.AperFunction,ComponentPad*
%ADD11R,1.700000X1.700000*%
G04 #@! TD*
G04 #@! TA.AperFunction,ComponentPad*
%ADD12O,1.700000X1.700000*%
G04 #@! TD*
G04 #@! TA.AperFunction,ComponentPad*
%ADD13C,2.250000*%
G04 #@! TD*
G04 #@! TA.AperFunction,ComponentPad*
%ADD14C,1.300000*%
G04 #@! TD*
G04 #@! TA.AperFunction,ComponentPad*
%ADD15C,1.100000*%
G04 #@! TD*
G04 #@! TA.AperFunction,ViaPad*
%ADD16C,0.600000*%
G04 #@! TD*
G04 #@! TA.AperFunction,Conductor*
%ADD17C,0.500000*%
G04 #@! TD*
G04 #@! TA.AperFunction,Conductor*
%ADD18C,0.200000*%
G04 #@! TD*
G04 APERTURE END LIST*
D10*
X120050000Y-63750000D03*
X120050000Y-58750000D03*
D11*
X151250000Y-64210000D03*
D12*
X151250000Y-66750000D03*
X151250000Y-69290000D03*
D13*
X112250000Y-63750000D03*
X114790000Y-61210000D03*
X114790000Y-66290000D03*
X109710000Y-66290000D03*
X109710000Y-61210000D03*
D14*
X129790000Y-79250000D03*
D15*
X132350000Y-79250000D03*
D16*
X136850000Y-67250000D03*
X134350000Y-67250000D03*
X136050000Y-70250000D03*
X134650000Y-70250000D03*
X130250000Y-67050000D03*
X130450000Y-74550000D03*
X125850000Y-71528400D03*
X123350000Y-65450000D03*
X141550000Y-59150000D03*
X144050000Y-66350000D03*
X148150000Y-74550000D03*
X142650000Y-74450000D03*
X144550000Y-59150000D03*
X141550000Y-69349982D03*
X147750000Y-69750000D03*
D17*
X134350000Y-67250000D02*
X136850000Y-67250000D01*
D18*
X134650000Y-70250000D02*
X136050000Y-70250000D01*
X141950018Y-69750000D02*
X141550000Y-69349982D01*
X147750000Y-69750000D02*
X141950018Y-69750000D01*
G04 #@! TA.AperFunction,Conductor*
G36*
X144720681Y-38751500D02*
G01*
X144734956Y-38753723D01*
X144734959Y-38753723D01*
X144743829Y-38755104D01*
X144760539Y-38752919D01*
X144784479Y-38752086D01*
X145043735Y-38767768D01*
X145058839Y-38769602D01*
X145340791Y-38821272D01*
X145355564Y-38824913D01*
X145629243Y-38910195D01*
X145643447Y-38915581D01*
X145904879Y-39033241D01*
X145918321Y-39040297D01*
X146163638Y-39188597D01*
X146176159Y-39197239D01*
X146205132Y-39219938D01*
X146401812Y-39374027D01*
X146413200Y-39384117D01*
X146615883Y-39586800D01*
X146625973Y-39598188D01*
X146802760Y-39823840D01*
X146811402Y-39836361D01*
X146959703Y-40081679D01*
X146966759Y-40095121D01*
X147084419Y-40356553D01*
X147089807Y-40370762D01*
X147175087Y-40644436D01*
X147178728Y-40659209D01*
X147230398Y-40941161D01*
X147232232Y-40956265D01*
X147247482Y-41208381D01*
X147246293Y-41233657D01*
X147246277Y-41234958D01*
X147244896Y-41243829D01*
X147246060Y-41252731D01*
X147246060Y-41252734D01*
X147248936Y-41274725D01*
X147250000Y-41291062D01*
X147250000Y-49651297D01*
X147248500Y-49670681D01*
X147244896Y-49693829D01*
X147245703Y-49700000D01*
X147245298Y-49700000D01*
X147264099Y-50154575D01*
X147320375Y-50606044D01*
X147413740Y-51051324D01*
X147414487Y-51053833D01*
X147491071Y-51311072D01*
X147543558Y-51487374D01*
X147544502Y-51489793D01*
X147544505Y-51489802D01*
X147682202Y-51842689D01*
X147708941Y-51911214D01*
X147710087Y-51913558D01*
X147907611Y-52317602D01*
X147907617Y-52317614D01*
X147908759Y-52319949D01*
X147910091Y-52322185D01*
X147910093Y-52322188D01*
X148140312Y-52708546D01*
X148140319Y-52708557D01*
X148141648Y-52710787D01*
X148406017Y-53081058D01*
X148700059Y-53428233D01*
X149021767Y-53749941D01*
X149368942Y-54043983D01*
X149371057Y-54045493D01*
X149674299Y-54262004D01*
X149739213Y-54308352D01*
X149741443Y-54309681D01*
X149741454Y-54309688D01*
X149991291Y-54458558D01*
X150130051Y-54541241D01*
X150132386Y-54542383D01*
X150132398Y-54542389D01*
X150485332Y-54714927D01*
X150538786Y-54741059D01*
X150541215Y-54742007D01*
X150541220Y-54742009D01*
X150960198Y-54905495D01*
X150960207Y-54905498D01*
X150962626Y-54906442D01*
X151398676Y-55036260D01*
X151843956Y-55129625D01*
X152295425Y-55185901D01*
X152495620Y-55194181D01*
X152725881Y-55203705D01*
X152731926Y-55204100D01*
X152732859Y-55204184D01*
X152737658Y-55204991D01*
X152744171Y-55205071D01*
X152744432Y-55205111D01*
X152744689Y-55205077D01*
X152750000Y-55205142D01*
X152760572Y-55203628D01*
X152787563Y-55202686D01*
X152961731Y-55215341D01*
X152980088Y-55218046D01*
X153177594Y-55262209D01*
X153195359Y-55267582D01*
X153384229Y-55340280D01*
X153401008Y-55348202D01*
X153555442Y-55435579D01*
X153577151Y-55447862D01*
X153592589Y-55458167D01*
X153752182Y-55582625D01*
X153765939Y-55595088D01*
X153905506Y-55741635D01*
X153917282Y-55755982D01*
X154033810Y-55921449D01*
X154043351Y-55937372D01*
X154134301Y-56118158D01*
X154141398Y-56135308D01*
X154204805Y-56327503D01*
X154209307Y-56345512D01*
X154243788Y-56544935D01*
X154245594Y-56563408D01*
X154249651Y-56734114D01*
X154248135Y-56750856D01*
X154248216Y-56750861D01*
X154247659Y-56759813D01*
X154245835Y-56768610D01*
X154249520Y-56814533D01*
X154249550Y-56814904D01*
X154249954Y-56825203D01*
X154201348Y-83458109D01*
X154201087Y-83600972D01*
X154199586Y-83620130D01*
X154197275Y-83634967D01*
X154197275Y-83634973D01*
X154195894Y-83643842D01*
X154197701Y-83657663D01*
X154198389Y-83683720D01*
X154184468Y-83863543D01*
X154181475Y-83882760D01*
X154155056Y-83994700D01*
X154134519Y-84081713D01*
X154128603Y-84100241D01*
X154051586Y-84289599D01*
X154042890Y-84306996D01*
X153937654Y-84482235D01*
X153926384Y-84498087D01*
X153795425Y-84655052D01*
X153781849Y-84668980D01*
X153628300Y-84803913D01*
X153612743Y-84815585D01*
X153440248Y-84925286D01*
X153423080Y-84934426D01*
X153235766Y-85016266D01*
X153217404Y-85022653D01*
X153019710Y-85074696D01*
X153000580Y-85078180D01*
X152835116Y-85095266D01*
X152828242Y-85095666D01*
X152825837Y-85095515D01*
X152821251Y-85095937D01*
X152820037Y-85095940D01*
X152809415Y-85095846D01*
X152800097Y-85095763D01*
X152793578Y-85094918D01*
X152789356Y-85095581D01*
X152788839Y-85095436D01*
X152788837Y-85095662D01*
X152374877Y-85091968D01*
X152374869Y-85091968D01*
X152372264Y-85091945D01*
X152369670Y-85092138D01*
X152369661Y-85092138D01*
X151922555Y-85125355D01*
X151919944Y-85125549D01*
X151471973Y-85196573D01*
X151190460Y-85265559D01*
X151033986Y-85303903D01*
X151033978Y-85303905D01*
X151031441Y-85304527D01*
X150601386Y-85448665D01*
X150598977Y-85449702D01*
X150598969Y-85449705D01*
X150563609Y-85464926D01*
X150184777Y-85627995D01*
X149784485Y-85841278D01*
X149403274Y-86087043D01*
X149043772Y-86363595D01*
X149041838Y-86365357D01*
X149041834Y-86365360D01*
X148800125Y-86585529D01*
X148708459Y-86669026D01*
X148399650Y-87001229D01*
X148398037Y-87003283D01*
X148398028Y-87003293D01*
X148121083Y-87355862D01*
X148119472Y-87357913D01*
X147869861Y-87736617D01*
X147652537Y-88134729D01*
X147651476Y-88137127D01*
X147470052Y-88547121D01*
X147470047Y-88547133D01*
X147468999Y-88549502D01*
X147320515Y-88978075D01*
X147208107Y-89417492D01*
X147132552Y-89864721D01*
X147094370Y-90316678D01*
X147093883Y-90722798D01*
X147093427Y-90722797D01*
X147093652Y-90723980D01*
X147093586Y-90724319D01*
X147093877Y-90727493D01*
X147093868Y-90735209D01*
X147093856Y-90745265D01*
X147093704Y-90751304D01*
X147093616Y-90753093D01*
X147093002Y-90757926D01*
X147093139Y-90762794D01*
X147093341Y-90769968D01*
X147092732Y-90786378D01*
X147071909Y-90989252D01*
X147069251Y-91005109D01*
X147011836Y-91250348D01*
X147007179Y-91265738D01*
X146919001Y-91501667D01*
X146912422Y-91516339D01*
X146794917Y-91739115D01*
X146786524Y-91752828D01*
X146641599Y-91958837D01*
X146631529Y-91971368D01*
X146490146Y-92125973D01*
X146461555Y-92157237D01*
X146449972Y-92168383D01*
X146291188Y-92302760D01*
X146257711Y-92331091D01*
X146244804Y-92340671D01*
X146205316Y-92366241D01*
X146033375Y-92477578D01*
X146019361Y-92485432D01*
X145792217Y-92594299D01*
X145777315Y-92600304D01*
X145544222Y-92677354D01*
X145538165Y-92679356D01*
X145522607Y-92683418D01*
X145275340Y-92731368D01*
X145259392Y-92733415D01*
X145041391Y-92747353D01*
X145018608Y-92746321D01*
X145015045Y-92746277D01*
X145006171Y-92744896D01*
X144997269Y-92746060D01*
X144997266Y-92746060D01*
X144975275Y-92748936D01*
X144958938Y-92750000D01*
X117798703Y-92750000D01*
X117779319Y-92748500D01*
X117765044Y-92746277D01*
X117765041Y-92746277D01*
X117756171Y-92744896D01*
X117739461Y-92747081D01*
X117715521Y-92747914D01*
X117456265Y-92732232D01*
X117441161Y-92730398D01*
X117159209Y-92678728D01*
X117144436Y-92675087D01*
X117027313Y-92638590D01*
X116870757Y-92589805D01*
X116856553Y-92584419D01*
X116595121Y-92466759D01*
X116581679Y-92459703D01*
X116336361Y-92311402D01*
X116323840Y-92302760D01*
X116098188Y-92125973D01*
X116086800Y-92115883D01*
X115884117Y-91913200D01*
X115874027Y-91901812D01*
X115697240Y-91676160D01*
X115688597Y-91663638D01*
X115599551Y-91516339D01*
X115540297Y-91418321D01*
X115533241Y-91404879D01*
X115415581Y-91143447D01*
X115410193Y-91129238D01*
X115369069Y-90997264D01*
X115324913Y-90855564D01*
X115321272Y-90840791D01*
X115269602Y-90558839D01*
X115267768Y-90543735D01*
X115252518Y-90291619D01*
X115253707Y-90266343D01*
X115253723Y-90265042D01*
X115255104Y-90256171D01*
X115251064Y-90225275D01*
X115250000Y-90208938D01*
X115250000Y-82450000D01*
X128150000Y-82450000D01*
X134350000Y-82450000D01*
X134350000Y-81696346D01*
X148544867Y-81696346D01*
X148570307Y-82019579D01*
X148634948Y-82337304D01*
X148737829Y-82644782D01*
X148877415Y-82937430D01*
X149051625Y-83210885D01*
X149257863Y-83461072D01*
X149493054Y-83684259D01*
X149753691Y-83877121D01*
X149763660Y-83882761D01*
X150032532Y-84034882D01*
X150032536Y-84034884D01*
X150035889Y-84036781D01*
X150335442Y-84160860D01*
X150647883Y-84247507D01*
X150968555Y-84295432D01*
X150971853Y-84295576D01*
X151083257Y-84300440D01*
X151083261Y-84300440D01*
X151084633Y-84300500D01*
X151282354Y-84300500D01*
X151523629Y-84285743D01*
X151527412Y-84285042D01*
X151527419Y-84285041D01*
X151729931Y-84247507D01*
X151842433Y-84226656D01*
X152055785Y-84159386D01*
X152147987Y-84130315D01*
X152147990Y-84130314D01*
X152151659Y-84129157D01*
X152155156Y-84127563D01*
X152155162Y-84127561D01*
X152443191Y-83996299D01*
X152443195Y-83996297D01*
X152446699Y-83994700D01*
X152723153Y-83825289D01*
X152726157Y-83822899D01*
X152726162Y-83822896D01*
X152850027Y-83724369D01*
X152976901Y-83623449D01*
X152979595Y-83620708D01*
X152979599Y-83620704D01*
X153201463Y-83394932D01*
X153204159Y-83392189D01*
X153290945Y-83279088D01*
X153399205Y-83138001D01*
X153399210Y-83137993D01*
X153401540Y-83134957D01*
X153566101Y-82855589D01*
X153695389Y-82558247D01*
X153729191Y-82444135D01*
X153786382Y-82251058D01*
X153787476Y-82247366D01*
X153840990Y-81927579D01*
X153855133Y-81603654D01*
X153829693Y-81280421D01*
X153765052Y-80962696D01*
X153662171Y-80655218D01*
X153522585Y-80362570D01*
X153348375Y-80089115D01*
X153142137Y-79838928D01*
X152906946Y-79615741D01*
X152646309Y-79422879D01*
X152505210Y-79343049D01*
X152367468Y-79265118D01*
X152367464Y-79265116D01*
X152364111Y-79263219D01*
X152064558Y-79139140D01*
X151752117Y-79052493D01*
X151431445Y-79004568D01*
X151428147Y-79004424D01*
X151316743Y-78999560D01*
X151316739Y-78999560D01*
X151315367Y-78999500D01*
X151117646Y-78999500D01*
X150876371Y-79014257D01*
X150872588Y-79014958D01*
X150872581Y-79014959D01*
X150716969Y-79043800D01*
X150557567Y-79073344D01*
X150384817Y-79127812D01*
X150252013Y-79169685D01*
X150252010Y-79169686D01*
X150248341Y-79170843D01*
X150244844Y-79172437D01*
X150244838Y-79172439D01*
X149956809Y-79303701D01*
X149956805Y-79303703D01*
X149953301Y-79305300D01*
X149676847Y-79474711D01*
X149673843Y-79477101D01*
X149673838Y-79477104D01*
X149549973Y-79575631D01*
X149423099Y-79676551D01*
X149420405Y-79679292D01*
X149420401Y-79679296D01*
X149305515Y-79796206D01*
X149195841Y-79907811D01*
X149155643Y-79960198D01*
X149000795Y-80161999D01*
X149000790Y-80162007D01*
X148998460Y-80165043D01*
X148833899Y-80444411D01*
X148704611Y-80741753D01*
X148612524Y-81052634D01*
X148559010Y-81372421D01*
X148544867Y-81696346D01*
X134350000Y-81696346D01*
X134350000Y-76050000D01*
X128150000Y-76050000D01*
X128150000Y-82450000D01*
X115250000Y-82450000D01*
X115250000Y-81802534D01*
X115251746Y-81781630D01*
X115254184Y-81767139D01*
X115254184Y-81767138D01*
X115254991Y-81762342D01*
X115255142Y-81750000D01*
X115254844Y-81747923D01*
X115255355Y-81745646D01*
X115254523Y-81745680D01*
X115248490Y-81599819D01*
X115235901Y-81295425D01*
X115179625Y-80843956D01*
X115086260Y-80398676D01*
X114995065Y-80092359D01*
X114957184Y-79965118D01*
X114957183Y-79965116D01*
X114956442Y-79962626D01*
X114845887Y-79679296D01*
X114792009Y-79541220D01*
X114792007Y-79541215D01*
X114791059Y-79538786D01*
X114676133Y-79303701D01*
X114592389Y-79132398D01*
X114592383Y-79132386D01*
X114591241Y-79130051D01*
X114545641Y-79053524D01*
X114359688Y-78741454D01*
X114359681Y-78741443D01*
X114358352Y-78739213D01*
X114093983Y-78368942D01*
X113799941Y-78021767D01*
X113478233Y-77700059D01*
X113131058Y-77406017D01*
X112919634Y-77255063D01*
X112762912Y-77143165D01*
X112762908Y-77143163D01*
X112760787Y-77141648D01*
X112758557Y-77140319D01*
X112758546Y-77140312D01*
X112372188Y-76910093D01*
X112372185Y-76910091D01*
X112369949Y-76908759D01*
X112367614Y-76907617D01*
X112367602Y-76907611D01*
X111963558Y-76710087D01*
X111961214Y-76708941D01*
X111958785Y-76707993D01*
X111958780Y-76707991D01*
X111539802Y-76544505D01*
X111539793Y-76544502D01*
X111537374Y-76543558D01*
X111101324Y-76413740D01*
X110656044Y-76320375D01*
X110204575Y-76264099D01*
X109987822Y-76255134D01*
X109774118Y-76246295D01*
X109768074Y-76245900D01*
X109767141Y-76245816D01*
X109762342Y-76245009D01*
X109756432Y-76244937D01*
X109756171Y-76244896D01*
X109755909Y-76244930D01*
X109750000Y-76244858D01*
X109740840Y-76246170D01*
X109739429Y-76246372D01*
X109712576Y-76247324D01*
X109545518Y-76235375D01*
X109527724Y-76232817D01*
X109506708Y-76228245D01*
X109336202Y-76191154D01*
X109318957Y-76186090D01*
X109135318Y-76117595D01*
X109118966Y-76110128D01*
X108946946Y-76016199D01*
X108931822Y-76006479D01*
X108774920Y-75889023D01*
X108761334Y-75877250D01*
X108622750Y-75738666D01*
X108610977Y-75725080D01*
X108493521Y-75568178D01*
X108483801Y-75553054D01*
X108389872Y-75381034D01*
X108382405Y-75364682D01*
X108313910Y-75181043D01*
X108308844Y-75163793D01*
X108267183Y-74972276D01*
X108264625Y-74954482D01*
X108252928Y-74790945D01*
X108253632Y-74774018D01*
X108253613Y-74774018D01*
X108253723Y-74765042D01*
X108255104Y-74756171D01*
X108251064Y-74725275D01*
X108250000Y-74708938D01*
X108250000Y-70238753D01*
X133844514Y-70238753D01*
X133845201Y-70245760D01*
X133845201Y-70245763D01*
X133848207Y-70276416D01*
X133862039Y-70417486D01*
X133864262Y-70424168D01*
X133864262Y-70424169D01*
X133910745Y-70563903D01*
X133918726Y-70587896D01*
X134011759Y-70741512D01*
X134136514Y-70870699D01*
X134286789Y-70969036D01*
X134455116Y-71031636D01*
X134462097Y-71032567D01*
X134462099Y-71032568D01*
X134626149Y-71054457D01*
X134626153Y-71054457D01*
X134633130Y-71055388D01*
X134640142Y-71054750D01*
X134640146Y-71054750D01*
X134804960Y-71039751D01*
X134804961Y-71039751D01*
X134811981Y-71039112D01*
X134982782Y-70983615D01*
X135013714Y-70965176D01*
X135130992Y-70895265D01*
X135130994Y-70895264D01*
X135137044Y-70891657D01*
X135142143Y-70886801D01*
X135142146Y-70886799D01*
X135143769Y-70885253D01*
X135145053Y-70884592D01*
X135147758Y-70882539D01*
X135148119Y-70883014D01*
X135206895Y-70852762D01*
X135230660Y-70850500D01*
X135468085Y-70850500D01*
X135537078Y-70871068D01*
X135686789Y-70969036D01*
X135855116Y-71031636D01*
X135862097Y-71032567D01*
X135862099Y-71032568D01*
X136026149Y-71054457D01*
X136026153Y-71054457D01*
X136033130Y-71055388D01*
X136040142Y-71054750D01*
X136040146Y-71054750D01*
X136204960Y-71039751D01*
X136204961Y-71039751D01*
X136211981Y-71039112D01*
X136382782Y-70983615D01*
X136413714Y-70965176D01*
X136530992Y-70895265D01*
X136530994Y-70895264D01*
X136537044Y-70891657D01*
X136667099Y-70767807D01*
X136684570Y-70741512D01*
X136748572Y-70645180D01*
X136766483Y-70618222D01*
X136787999Y-70561580D01*
X136827757Y-70456919D01*
X136827758Y-70456914D01*
X136830257Y-70450336D01*
X136838504Y-70391657D01*
X136854700Y-70276416D01*
X136854700Y-70276411D01*
X136855251Y-70272493D01*
X136855565Y-70250000D01*
X136835546Y-70071528D01*
X136829427Y-70053955D01*
X136801003Y-69972334D01*
X136776485Y-69901927D01*
X136681316Y-69749625D01*
X136613366Y-69681199D01*
X136559733Y-69627190D01*
X136559729Y-69627187D01*
X136554770Y-69622193D01*
X136543761Y-69615206D01*
X136464450Y-69564874D01*
X136403136Y-69525963D01*
X136359593Y-69510458D01*
X136240586Y-69468081D01*
X136240581Y-69468080D01*
X136233951Y-69465719D01*
X136226965Y-69464886D01*
X136226961Y-69464885D01*
X136099177Y-69449648D01*
X136055624Y-69444455D01*
X136048621Y-69445191D01*
X136048620Y-69445191D01*
X135884025Y-69462490D01*
X135884021Y-69462491D01*
X135877017Y-69463227D01*
X135870346Y-69465498D01*
X135713677Y-69518832D01*
X135713674Y-69518833D01*
X135707007Y-69521103D01*
X135701009Y-69524793D01*
X135701007Y-69524794D01*
X135691370Y-69530723D01*
X135554045Y-69615206D01*
X135549012Y-69620135D01*
X135545615Y-69622789D01*
X135479621Y-69648967D01*
X135468041Y-69649500D01*
X135231851Y-69649500D01*
X135163730Y-69629498D01*
X135157740Y-69625183D01*
X135154770Y-69622193D01*
X135148822Y-69618418D01*
X135148818Y-69618415D01*
X135063432Y-69564228D01*
X135003136Y-69525963D01*
X134959593Y-69510458D01*
X134840586Y-69468081D01*
X134840581Y-69468080D01*
X134833951Y-69465719D01*
X134826965Y-69464886D01*
X134826961Y-69464885D01*
X134699177Y-69449648D01*
X134655624Y-69444455D01*
X134648621Y-69445191D01*
X134648620Y-69445191D01*
X134484025Y-69462490D01*
X134484021Y-69462491D01*
X134477017Y-69463227D01*
X134470346Y-69465498D01*
X134313677Y-69518832D01*
X134313674Y-69518833D01*
X134307007Y-69521103D01*
X134301009Y-69524793D01*
X134301007Y-69524794D01*
X134291370Y-69530723D01*
X134154045Y-69615206D01*
X134149014Y-69620132D01*
X134149011Y-69620135D01*
X134146301Y-69622789D01*
X134025732Y-69740859D01*
X134021913Y-69746784D01*
X134021912Y-69746786D01*
X133960877Y-69841494D01*
X133928446Y-69891817D01*
X133867022Y-70060578D01*
X133844514Y-70238753D01*
X108250000Y-70238753D01*
X108250000Y-69338735D01*
X140744514Y-69338735D01*
X140762039Y-69517468D01*
X140764262Y-69524150D01*
X140764262Y-69524151D01*
X140805960Y-69649500D01*
X140818726Y-69687878D01*
X140822373Y-69693900D01*
X140869971Y-69772493D01*
X140911759Y-69841494D01*
X140916648Y-69846557D01*
X140916649Y-69846558D01*
X140964348Y-69895951D01*
X141036514Y-69970681D01*
X141186789Y-70069018D01*
X141355116Y-70131618D01*
X141362097Y-70132549D01*
X141362099Y-70132550D01*
X141453026Y-70144682D01*
X141517903Y-70173518D01*
X141518509Y-70174076D01*
X141521736Y-70178282D01*
X141600544Y-70238753D01*
X141647177Y-70274536D01*
X141793256Y-70335044D01*
X141950018Y-70355682D01*
X141958206Y-70354604D01*
X141981191Y-70351578D01*
X141997637Y-70350500D01*
X147168085Y-70350500D01*
X147237078Y-70371068D01*
X147386789Y-70469036D01*
X147555116Y-70531636D01*
X147562097Y-70532567D01*
X147562099Y-70532568D01*
X147726149Y-70554457D01*
X147726153Y-70554457D01*
X147733130Y-70555388D01*
X147740142Y-70554750D01*
X147740146Y-70554750D01*
X147904960Y-70539751D01*
X147904961Y-70539751D01*
X147911981Y-70539112D01*
X148082782Y-70483615D01*
X148120924Y-70460878D01*
X148230992Y-70395265D01*
X148230994Y-70395264D01*
X148237044Y-70391657D01*
X148367099Y-70267807D01*
X148381547Y-70246062D01*
X148448903Y-70144682D01*
X148466483Y-70118222D01*
X148490896Y-70053955D01*
X148527757Y-69956919D01*
X148527758Y-69956914D01*
X148530257Y-69950336D01*
X148536125Y-69908584D01*
X148554700Y-69776416D01*
X148554700Y-69776411D01*
X148555251Y-69772493D01*
X148555565Y-69750000D01*
X148535546Y-69571528D01*
X148476485Y-69401927D01*
X148406545Y-69290000D01*
X149894341Y-69290000D01*
X149914937Y-69525408D01*
X149916361Y-69530722D01*
X149916361Y-69530723D01*
X149956681Y-69681199D01*
X149976097Y-69753663D01*
X149978419Y-69758643D01*
X149978420Y-69758645D01*
X150070878Y-69956919D01*
X150075965Y-69967829D01*
X150211505Y-70161401D01*
X150378599Y-70328495D01*
X150383107Y-70331652D01*
X150383110Y-70331654D01*
X150562007Y-70456919D01*
X150572170Y-70464035D01*
X150577152Y-70466358D01*
X150577157Y-70466361D01*
X150781355Y-70561580D01*
X150786337Y-70563903D01*
X150791645Y-70565325D01*
X150791647Y-70565326D01*
X151009277Y-70623639D01*
X151014592Y-70625063D01*
X151250000Y-70645659D01*
X151485408Y-70625063D01*
X151490723Y-70623639D01*
X151708353Y-70565326D01*
X151708355Y-70565325D01*
X151713663Y-70563903D01*
X151718645Y-70561580D01*
X151922843Y-70466361D01*
X151922848Y-70466358D01*
X151927830Y-70464035D01*
X151937993Y-70456919D01*
X152116890Y-70331654D01*
X152116893Y-70331652D01*
X152121401Y-70328495D01*
X152288495Y-70161401D01*
X152424035Y-69967829D01*
X152429123Y-69956919D01*
X152521580Y-69758645D01*
X152521581Y-69758643D01*
X152523903Y-69753663D01*
X152543320Y-69681199D01*
X152583639Y-69530723D01*
X152583639Y-69530722D01*
X152585063Y-69525408D01*
X152605659Y-69290000D01*
X152585063Y-69054592D01*
X152575481Y-69018832D01*
X152525326Y-68831647D01*
X152525325Y-68831645D01*
X152523903Y-68826337D01*
X152475331Y-68722175D01*
X152426358Y-68617152D01*
X152426356Y-68617149D01*
X152424035Y-68612171D01*
X152288495Y-68418599D01*
X152121401Y-68251505D01*
X152116893Y-68248348D01*
X152116890Y-68248346D01*
X151945336Y-68128223D01*
X151901008Y-68072766D01*
X151893699Y-68002147D01*
X151925730Y-67938786D01*
X151948019Y-67920860D01*
X151947737Y-67920465D01*
X152125328Y-67793792D01*
X152133200Y-67787139D01*
X152284052Y-67636812D01*
X152290730Y-67628965D01*
X152415003Y-67456020D01*
X152420313Y-67447183D01*
X152514670Y-67256267D01*
X152518469Y-67246672D01*
X152580377Y-67042910D01*
X152582555Y-67032837D01*
X152583986Y-67021962D01*
X152581775Y-67007778D01*
X152568617Y-67004000D01*
X149933225Y-67004000D01*
X149919694Y-67007973D01*
X149918257Y-67017966D01*
X149948565Y-67152446D01*
X149951645Y-67162275D01*
X150031770Y-67359603D01*
X150036413Y-67368794D01*
X150147694Y-67550388D01*
X150153777Y-67558699D01*
X150293213Y-67719667D01*
X150300580Y-67726883D01*
X150464434Y-67862916D01*
X150472876Y-67868828D01*
X150549612Y-67913669D01*
X150598335Y-67965308D01*
X150611406Y-68035091D01*
X150584674Y-68100863D01*
X150558312Y-68125669D01*
X150378599Y-68251505D01*
X150211505Y-68418599D01*
X150075965Y-68612171D01*
X150073644Y-68617149D01*
X150073642Y-68617152D01*
X150024669Y-68722175D01*
X149976097Y-68826337D01*
X149974675Y-68831645D01*
X149974674Y-68831647D01*
X149924519Y-69018832D01*
X149914937Y-69054592D01*
X149894341Y-69290000D01*
X148406545Y-69290000D01*
X148381316Y-69249625D01*
X148299813Y-69167551D01*
X148259733Y-69127190D01*
X148259729Y-69127187D01*
X148254770Y-69122193D01*
X148243761Y-69115206D01*
X148196860Y-69085442D01*
X148103136Y-69025963D01*
X148054257Y-69008558D01*
X147940586Y-68968081D01*
X147940581Y-68968080D01*
X147933951Y-68965719D01*
X147926965Y-68964886D01*
X147926961Y-68964885D01*
X147799177Y-68949648D01*
X147755624Y-68944455D01*
X147748621Y-68945191D01*
X147748620Y-68945191D01*
X147584025Y-68962490D01*
X147584021Y-68962491D01*
X147577017Y-68963227D01*
X147570346Y-68965498D01*
X147413677Y-69018832D01*
X147413674Y-69018833D01*
X147407007Y-69021103D01*
X147401009Y-69024793D01*
X147401007Y-69024794D01*
X147361211Y-69049277D01*
X147254045Y-69115206D01*
X147249010Y-69120136D01*
X147245615Y-69122789D01*
X147179621Y-69148967D01*
X147168041Y-69149500D01*
X142417425Y-69149500D01*
X142349304Y-69129498D01*
X142302811Y-69075842D01*
X142298433Y-69064936D01*
X142278801Y-69008558D01*
X142278799Y-69008553D01*
X142276485Y-69001909D01*
X142181316Y-68849607D01*
X142117771Y-68785617D01*
X142059733Y-68727172D01*
X142059729Y-68727169D01*
X142054770Y-68722175D01*
X142043761Y-68715188D01*
X141996860Y-68685424D01*
X141903136Y-68625945D01*
X141851803Y-68607666D01*
X141740586Y-68568063D01*
X141740581Y-68568062D01*
X141733951Y-68565701D01*
X141726965Y-68564868D01*
X141726961Y-68564867D01*
X141599177Y-68549630D01*
X141555624Y-68544437D01*
X141548621Y-68545173D01*
X141548620Y-68545173D01*
X141384025Y-68562472D01*
X141384021Y-68562473D01*
X141377017Y-68563209D01*
X141370346Y-68565480D01*
X141213677Y-68618814D01*
X141213674Y-68618815D01*
X141207007Y-68621085D01*
X141201009Y-68624775D01*
X141201007Y-68624776D01*
X141130526Y-68668137D01*
X141054045Y-68715188D01*
X141049014Y-68720114D01*
X141049011Y-68720117D01*
X141041807Y-68727172D01*
X140925732Y-68840841D01*
X140921913Y-68846766D01*
X140921912Y-68846768D01*
X140858957Y-68944455D01*
X140828446Y-68991799D01*
X140826037Y-68998419D01*
X140826035Y-68998422D01*
X140817780Y-69021103D01*
X140767022Y-69160560D01*
X140744514Y-69338735D01*
X108250000Y-69338735D01*
X108250000Y-67614471D01*
X108750884Y-67614471D01*
X108754570Y-67619740D01*
X108962121Y-67746927D01*
X108970915Y-67751408D01*
X109199242Y-67845984D01*
X109208627Y-67849033D01*
X109448940Y-67906728D01*
X109458687Y-67908271D01*
X109705070Y-67927662D01*
X109714930Y-67927662D01*
X109961313Y-67908271D01*
X109971060Y-67906728D01*
X110211373Y-67849033D01*
X110220758Y-67845984D01*
X110449085Y-67751408D01*
X110457879Y-67746927D01*
X110663928Y-67620660D01*
X110667968Y-67614471D01*
X113830884Y-67614471D01*
X113834570Y-67619740D01*
X114042121Y-67746927D01*
X114050915Y-67751408D01*
X114279242Y-67845984D01*
X114288627Y-67849033D01*
X114528940Y-67906728D01*
X114538687Y-67908271D01*
X114785070Y-67927662D01*
X114794930Y-67927662D01*
X115041313Y-67908271D01*
X115051060Y-67906728D01*
X115291373Y-67849033D01*
X115300758Y-67845984D01*
X115529085Y-67751408D01*
X115537879Y-67746927D01*
X115743928Y-67620660D01*
X115749190Y-67612599D01*
X115743183Y-67602393D01*
X114802812Y-66662022D01*
X114788868Y-66654408D01*
X114787035Y-66654539D01*
X114780420Y-66658790D01*
X113838276Y-67600934D01*
X113830884Y-67614471D01*
X110667968Y-67614471D01*
X110669190Y-67612599D01*
X110663183Y-67602393D01*
X109722812Y-66662022D01*
X109708868Y-66654408D01*
X109707035Y-66654539D01*
X109700420Y-66658790D01*
X108758276Y-67600934D01*
X108750884Y-67614471D01*
X108250000Y-67614471D01*
X108250000Y-67375362D01*
X108270002Y-67307241D01*
X108323658Y-67260748D01*
X108376895Y-67249365D01*
X108386981Y-67249437D01*
X108397607Y-67243183D01*
X109337978Y-66302812D01*
X109344356Y-66291132D01*
X110074408Y-66291132D01*
X110074539Y-66292965D01*
X110078790Y-66299580D01*
X111020934Y-67241724D01*
X111034471Y-67249116D01*
X111039740Y-67245430D01*
X111166927Y-67037879D01*
X111171408Y-67029085D01*
X111265984Y-66800758D01*
X111269033Y-66791373D01*
X111326728Y-66551060D01*
X111328271Y-66541313D01*
X111347662Y-66294930D01*
X113152338Y-66294930D01*
X113171729Y-66541313D01*
X113173272Y-66551060D01*
X113230967Y-66791373D01*
X113234016Y-66800758D01*
X113328592Y-67029085D01*
X113333073Y-67037879D01*
X113459340Y-67243928D01*
X113467401Y-67249190D01*
X113477607Y-67243183D01*
X114417978Y-66302812D01*
X114424356Y-66291132D01*
X115154408Y-66291132D01*
X115154539Y-66292965D01*
X115158790Y-66299580D01*
X116100934Y-67241724D01*
X116114471Y-67249116D01*
X116119740Y-67245430D01*
X116123832Y-67238753D01*
X133544514Y-67238753D01*
X133545201Y-67245760D01*
X133545201Y-67245763D01*
X133547434Y-67268532D01*
X133562039Y-67417486D01*
X133564262Y-67424168D01*
X133564262Y-67424169D01*
X133609014Y-67558699D01*
X133618726Y-67587896D01*
X133622373Y-67593918D01*
X133648351Y-67636812D01*
X133711759Y-67741512D01*
X133836514Y-67870699D01*
X133986789Y-67969036D01*
X134155116Y-68031636D01*
X134162097Y-68032567D01*
X134162099Y-68032568D01*
X134326149Y-68054457D01*
X134326153Y-68054457D01*
X134333130Y-68055388D01*
X134340142Y-68054750D01*
X134340146Y-68054750D01*
X134504960Y-68039751D01*
X134504961Y-68039751D01*
X134511981Y-68039112D01*
X134611836Y-68006667D01*
X134650772Y-68000500D01*
X136548721Y-68000500D01*
X136592641Y-68008402D01*
X136655116Y-68031636D01*
X136662097Y-68032567D01*
X136662099Y-68032568D01*
X136826149Y-68054457D01*
X136826153Y-68054457D01*
X136833130Y-68055388D01*
X136840142Y-68054750D01*
X136840146Y-68054750D01*
X137004960Y-68039751D01*
X137004961Y-68039751D01*
X137011981Y-68039112D01*
X137182782Y-67983615D01*
X137207239Y-67969036D01*
X137330992Y-67895265D01*
X137330994Y-67895264D01*
X137337044Y-67891657D01*
X137467099Y-67767807D01*
X137477995Y-67751408D01*
X137562582Y-67624093D01*
X137566483Y-67618222D01*
X137592251Y-67550388D01*
X137627757Y-67456919D01*
X137627758Y-67456914D01*
X137630257Y-67450336D01*
X137655251Y-67272493D01*
X137655565Y-67250000D01*
X137635546Y-67071528D01*
X137629427Y-67053955D01*
X137578803Y-66908584D01*
X137576485Y-66901927D01*
X137513268Y-66800758D01*
X137485049Y-66755599D01*
X137481316Y-66749625D01*
X137391113Y-66658790D01*
X137359733Y-66627190D01*
X137359729Y-66627187D01*
X137354770Y-66622193D01*
X137343761Y-66615206D01*
X137242682Y-66551060D01*
X137203136Y-66525963D01*
X137173352Y-66515357D01*
X137040586Y-66468081D01*
X137040581Y-66468080D01*
X137033951Y-66465719D01*
X137026965Y-66464886D01*
X137026961Y-66464885D01*
X136899177Y-66449648D01*
X136855624Y-66444455D01*
X136848621Y-66445191D01*
X136848620Y-66445191D01*
X136802160Y-66450074D01*
X136677017Y-66463227D01*
X136591913Y-66492199D01*
X136590212Y-66492778D01*
X136549606Y-66499500D01*
X134650582Y-66499500D01*
X134608315Y-66492199D01*
X134540585Y-66468081D01*
X134540583Y-66468080D01*
X134533951Y-66465719D01*
X134526965Y-66464886D01*
X134526961Y-66464885D01*
X134399177Y-66449648D01*
X134355624Y-66444455D01*
X134348621Y-66445191D01*
X134348620Y-66445191D01*
X134184025Y-66462490D01*
X134184021Y-66462491D01*
X134177017Y-66463227D01*
X134170346Y-66465498D01*
X134013677Y-66518832D01*
X134013674Y-66518833D01*
X134007007Y-66521103D01*
X134001009Y-66524793D01*
X134001007Y-66524794D01*
X133974156Y-66541313D01*
X133854045Y-66615206D01*
X133849014Y-66620132D01*
X133849011Y-66620135D01*
X133841807Y-66627190D01*
X133725732Y-66740859D01*
X133721913Y-66746784D01*
X133721912Y-66746786D01*
X133632265Y-66885891D01*
X133628446Y-66891817D01*
X133567022Y-67060578D01*
X133544514Y-67238753D01*
X116123832Y-67238753D01*
X116246927Y-67037879D01*
X116251408Y-67029085D01*
X116345984Y-66800758D01*
X116349033Y-66791373D01*
X116406728Y-66551060D01*
X116408271Y-66541313D01*
X116427662Y-66294930D01*
X116427662Y-66285070D01*
X116408271Y-66038687D01*
X116406728Y-66028940D01*
X116349033Y-65788627D01*
X116345984Y-65779242D01*
X116251408Y-65550915D01*
X116246927Y-65542121D01*
X116120660Y-65336072D01*
X116112599Y-65330810D01*
X116102393Y-65336817D01*
X115162022Y-66277188D01*
X115154408Y-66291132D01*
X114424356Y-66291132D01*
X114425592Y-66288868D01*
X114425461Y-66287035D01*
X114421210Y-66280420D01*
X113479066Y-65338276D01*
X113465529Y-65330884D01*
X113460260Y-65334570D01*
X113333073Y-65542121D01*
X113328592Y-65550915D01*
X113234016Y-65779242D01*
X113230967Y-65788627D01*
X113173272Y-66028940D01*
X113171729Y-66038687D01*
X113152338Y-66285070D01*
X113152338Y-66294930D01*
X111347662Y-66294930D01*
X111347662Y-66285070D01*
X111328271Y-66038687D01*
X111326728Y-66028940D01*
X111269033Y-65788627D01*
X111265984Y-65779242D01*
X111171408Y-65550915D01*
X111166927Y-65542121D01*
X111040660Y-65336072D01*
X111032599Y-65330810D01*
X111022393Y-65336817D01*
X110082022Y-66277188D01*
X110074408Y-66291132D01*
X109344356Y-66291132D01*
X109345592Y-66288868D01*
X109345461Y-66287035D01*
X109341210Y-66280420D01*
X108399066Y-65338276D01*
X108385122Y-65330662D01*
X108384989Y-65330671D01*
X108315615Y-65315580D01*
X108265413Y-65265378D01*
X108250000Y-65204992D01*
X108250000Y-64967401D01*
X108750810Y-64967401D01*
X108756817Y-64977607D01*
X109697188Y-65917978D01*
X109711132Y-65925592D01*
X109712965Y-65925461D01*
X109719580Y-65921210D01*
X110661724Y-64979066D01*
X110669116Y-64965529D01*
X110665430Y-64960260D01*
X110457879Y-64833073D01*
X110449085Y-64828592D01*
X110220758Y-64734016D01*
X110211373Y-64730967D01*
X109971060Y-64673272D01*
X109961313Y-64671729D01*
X109714930Y-64652338D01*
X109705070Y-64652338D01*
X109458687Y-64671729D01*
X109448940Y-64673272D01*
X109208627Y-64730967D01*
X109199242Y-64734016D01*
X108970915Y-64828592D01*
X108962121Y-64833073D01*
X108756072Y-64959340D01*
X108750810Y-64967401D01*
X108250000Y-64967401D01*
X108250000Y-63750000D01*
X110619474Y-63750000D01*
X110639548Y-64005070D01*
X110640702Y-64009877D01*
X110640703Y-64009883D01*
X110678147Y-64165843D01*
X110699278Y-64253860D01*
X110701171Y-64258431D01*
X110701172Y-64258433D01*
X110762810Y-64407239D01*
X110797191Y-64490243D01*
X110930877Y-64708399D01*
X111097044Y-64902956D01*
X111291601Y-65069123D01*
X111509757Y-65202809D01*
X111514327Y-65204702D01*
X111514331Y-65204704D01*
X111741567Y-65298828D01*
X111746140Y-65300722D01*
X111834157Y-65321853D01*
X111990117Y-65359297D01*
X111990123Y-65359298D01*
X111994930Y-65360452D01*
X112250000Y-65380526D01*
X112505070Y-65360452D01*
X112509877Y-65359298D01*
X112509883Y-65359297D01*
X112665843Y-65321853D01*
X112753860Y-65300722D01*
X112758433Y-65298828D01*
X112985669Y-65204704D01*
X112985673Y-65204702D01*
X112990243Y-65202809D01*
X113208399Y-65069123D01*
X113327500Y-64967401D01*
X113830810Y-64967401D01*
X113836817Y-64977607D01*
X114777188Y-65917978D01*
X114791132Y-65925592D01*
X114792965Y-65925461D01*
X114799580Y-65921210D01*
X115741724Y-64979066D01*
X115749116Y-64965529D01*
X115745430Y-64960260D01*
X115537879Y-64833073D01*
X115529085Y-64828592D01*
X115300758Y-64734016D01*
X115291373Y-64730967D01*
X115051060Y-64673272D01*
X115041313Y-64671729D01*
X114794930Y-64652338D01*
X114785070Y-64652338D01*
X114538687Y-64671729D01*
X114528940Y-64673272D01*
X114288627Y-64730967D01*
X114279242Y-64734016D01*
X114050915Y-64828592D01*
X114042121Y-64833073D01*
X113836072Y-64959340D01*
X113830810Y-64967401D01*
X113327500Y-64967401D01*
X113402956Y-64902956D01*
X113569123Y-64708399D01*
X113702809Y-64490243D01*
X113737191Y-64407239D01*
X113798828Y-64258433D01*
X113798829Y-64258431D01*
X113800722Y-64253860D01*
X113821853Y-64165843D01*
X113859297Y-64009883D01*
X113859298Y-64009877D01*
X113860452Y-64005070D01*
X113880526Y-63750000D01*
X118744532Y-63750000D01*
X118764365Y-63976692D01*
X118823261Y-64196496D01*
X118825583Y-64201476D01*
X118825584Y-64201478D01*
X118847767Y-64249048D01*
X118919432Y-64402734D01*
X119049953Y-64589139D01*
X119210861Y-64750047D01*
X119397266Y-64880568D01*
X119402244Y-64882889D01*
X119402247Y-64882891D01*
X119598522Y-64974416D01*
X119603504Y-64976739D01*
X119608812Y-64978161D01*
X119608814Y-64978162D01*
X119817993Y-65034211D01*
X119817995Y-65034211D01*
X119823308Y-65035635D01*
X120050000Y-65055468D01*
X120276692Y-65035635D01*
X120282005Y-65034211D01*
X120282007Y-65034211D01*
X120491186Y-64978162D01*
X120491188Y-64978161D01*
X120496496Y-64976739D01*
X120501478Y-64974416D01*
X120697753Y-64882891D01*
X120697756Y-64882889D01*
X120702734Y-64880568D01*
X120889139Y-64750047D01*
X121050047Y-64589139D01*
X121180568Y-64402734D01*
X121252234Y-64249048D01*
X121274416Y-64201478D01*
X121274417Y-64201476D01*
X121276739Y-64196496D01*
X121335635Y-63976692D01*
X121355468Y-63750000D01*
X121335635Y-63523308D01*
X121279183Y-63312624D01*
X121279183Y-63312623D01*
X149899500Y-63312623D01*
X149899501Y-65107376D01*
X149906149Y-65168580D01*
X149956474Y-65302824D01*
X149961854Y-65310003D01*
X149961856Y-65310006D01*
X149983044Y-65338276D01*
X150042454Y-65417546D01*
X150049635Y-65422928D01*
X150149994Y-65498144D01*
X150149997Y-65498146D01*
X150157176Y-65503526D01*
X150240845Y-65534892D01*
X150276972Y-65548435D01*
X150333737Y-65591076D01*
X150358437Y-65657638D01*
X150343230Y-65726986D01*
X150323837Y-65753468D01*
X150194590Y-65888717D01*
X150188104Y-65896727D01*
X150068098Y-66072649D01*
X150063000Y-66081623D01*
X149973338Y-66274783D01*
X149969775Y-66284470D01*
X149914389Y-66484183D01*
X149915912Y-66492607D01*
X149928292Y-66496000D01*
X152568344Y-66496000D01*
X152581875Y-66492027D01*
X152583180Y-66482947D01*
X152541214Y-66315875D01*
X152537894Y-66306124D01*
X152452972Y-66110814D01*
X152448105Y-66101739D01*
X152332426Y-65922926D01*
X152326136Y-65914757D01*
X152179328Y-65753418D01*
X152180287Y-65752545D01*
X152147215Y-65696694D01*
X152149811Y-65625745D01*
X152190353Y-65567462D01*
X152225100Y-65547658D01*
X152239870Y-65542121D01*
X152342824Y-65503526D01*
X152350003Y-65498146D01*
X152350006Y-65498144D01*
X152450365Y-65422928D01*
X152457546Y-65417546D01*
X152516956Y-65338276D01*
X152538144Y-65310006D01*
X152538146Y-65310003D01*
X152543526Y-65302824D01*
X152593851Y-65168580D01*
X152600500Y-65107377D01*
X152600499Y-63312624D01*
X152600085Y-63308814D01*
X152594705Y-63259278D01*
X152594704Y-63259274D01*
X152593851Y-63251420D01*
X152543526Y-63117176D01*
X152538146Y-63109997D01*
X152538144Y-63109994D01*
X152462928Y-63009635D01*
X152457546Y-63002454D01*
X152450365Y-62997072D01*
X152350006Y-62921856D01*
X152350003Y-62921854D01*
X152342824Y-62916474D01*
X152253439Y-62882966D01*
X152215975Y-62868921D01*
X152215973Y-62868921D01*
X152208580Y-62866149D01*
X152200730Y-62865296D01*
X152200729Y-62865296D01*
X152150774Y-62859869D01*
X152150773Y-62859869D01*
X152147377Y-62859500D01*
X151250132Y-62859500D01*
X150352624Y-62859501D01*
X150349230Y-62859870D01*
X150349224Y-62859870D01*
X150299278Y-62865295D01*
X150299274Y-62865296D01*
X150291420Y-62866149D01*
X150157176Y-62916474D01*
X150149997Y-62921854D01*
X150149994Y-62921856D01*
X150049635Y-62997072D01*
X150042454Y-63002454D01*
X150037072Y-63009635D01*
X149961856Y-63109994D01*
X149961854Y-63109997D01*
X149956474Y-63117176D01*
X149953324Y-63125580D01*
X149909843Y-63241567D01*
X149906149Y-63251420D01*
X149899500Y-63312623D01*
X121279183Y-63312623D01*
X121278162Y-63308814D01*
X121278161Y-63308812D01*
X121276739Y-63303504D01*
X121252452Y-63251420D01*
X121182891Y-63102247D01*
X121182889Y-63102244D01*
X121180568Y-63097266D01*
X121050047Y-62910861D01*
X120889139Y-62749953D01*
X120702734Y-62619432D01*
X120697756Y-62617111D01*
X120697753Y-62617109D01*
X120501478Y-62525584D01*
X120501476Y-62525583D01*
X120496496Y-62523261D01*
X120491188Y-62521839D01*
X120491186Y-62521838D01*
X120282007Y-62465789D01*
X120282005Y-62465789D01*
X120276692Y-62464365D01*
X120050000Y-62444532D01*
X119823308Y-62464365D01*
X119817995Y-62465789D01*
X119817993Y-62465789D01*
X119608814Y-62521838D01*
X119608812Y-62521839D01*
X119603504Y-62523261D01*
X119598524Y-62525583D01*
X119598522Y-62525584D01*
X119402247Y-62617109D01*
X119402244Y-62617111D01*
X119397266Y-62619432D01*
X119210861Y-62749953D01*
X119049953Y-62910861D01*
X118919432Y-63097266D01*
X118917111Y-63102244D01*
X118917109Y-63102247D01*
X118847548Y-63251420D01*
X118823261Y-63303504D01*
X118821839Y-63308812D01*
X118821838Y-63308814D01*
X118820817Y-63312624D01*
X118764365Y-63523308D01*
X118744532Y-63750000D01*
X113880526Y-63750000D01*
X113860452Y-63494930D01*
X113859298Y-63490123D01*
X113859297Y-63490117D01*
X113803876Y-63259278D01*
X113800722Y-63246140D01*
X113798828Y-63241567D01*
X113704704Y-63014331D01*
X113704702Y-63014327D01*
X113702809Y-63009757D01*
X113569123Y-62791601D01*
X113402956Y-62597044D01*
X113329692Y-62534471D01*
X113830884Y-62534471D01*
X113834570Y-62539740D01*
X114042121Y-62666927D01*
X114050915Y-62671408D01*
X114279242Y-62765984D01*
X114288627Y-62769033D01*
X114528940Y-62826728D01*
X114538687Y-62828271D01*
X114785070Y-62847662D01*
X114794930Y-62847662D01*
X115041313Y-62828271D01*
X115051060Y-62826728D01*
X115291373Y-62769033D01*
X115300758Y-62765984D01*
X115529085Y-62671408D01*
X115537879Y-62666927D01*
X115743928Y-62540660D01*
X115749190Y-62532599D01*
X115743183Y-62522393D01*
X114802812Y-61582022D01*
X114788868Y-61574408D01*
X114787035Y-61574539D01*
X114780420Y-61578790D01*
X113838276Y-62520934D01*
X113830884Y-62534471D01*
X113329692Y-62534471D01*
X113208399Y-62430877D01*
X112990243Y-62297191D01*
X112985673Y-62295298D01*
X112985669Y-62295296D01*
X112758433Y-62201172D01*
X112758431Y-62201171D01*
X112753860Y-62199278D01*
X112629565Y-62169437D01*
X112509883Y-62140703D01*
X112509877Y-62140702D01*
X112505070Y-62139548D01*
X112250000Y-62119474D01*
X111994930Y-62139548D01*
X111990123Y-62140702D01*
X111990117Y-62140703D01*
X111870435Y-62169437D01*
X111746140Y-62199278D01*
X111741569Y-62201171D01*
X111741567Y-62201172D01*
X111514331Y-62295296D01*
X111514327Y-62295298D01*
X111509757Y-62297191D01*
X111291601Y-62430877D01*
X111097044Y-62597044D01*
X110930877Y-62791601D01*
X110797191Y-63009757D01*
X110795298Y-63014327D01*
X110795296Y-63014331D01*
X110701172Y-63241567D01*
X110699278Y-63246140D01*
X110696124Y-63259278D01*
X110640703Y-63490117D01*
X110640702Y-63490123D01*
X110639548Y-63494930D01*
X110619474Y-63750000D01*
X108250000Y-63750000D01*
X108250000Y-62534471D01*
X108750884Y-62534471D01*
X108754570Y-62539740D01*
X108962121Y-62666927D01*
X108970915Y-62671408D01*
X109199242Y-62765984D01*
X109208627Y-62769033D01*
X109448940Y-62826728D01*
X109458687Y-62828271D01*
X109705070Y-62847662D01*
X109714930Y-62847662D01*
X109961313Y-62828271D01*
X109971060Y-62826728D01*
X110211373Y-62769033D01*
X110220758Y-62765984D01*
X110449085Y-62671408D01*
X110457879Y-62666927D01*
X110663928Y-62540660D01*
X110669190Y-62532599D01*
X110663183Y-62522393D01*
X109722812Y-61582022D01*
X109708868Y-61574408D01*
X109707035Y-61574539D01*
X109700420Y-61578790D01*
X108758276Y-62520934D01*
X108750884Y-62534471D01*
X108250000Y-62534471D01*
X108250000Y-62295362D01*
X108270002Y-62227241D01*
X108323658Y-62180748D01*
X108376895Y-62169365D01*
X108386981Y-62169437D01*
X108397607Y-62163183D01*
X109337978Y-61222812D01*
X109344356Y-61211132D01*
X110074408Y-61211132D01*
X110074539Y-61212965D01*
X110078790Y-61219580D01*
X111020934Y-62161724D01*
X111034471Y-62169116D01*
X111039740Y-62165430D01*
X111166927Y-61957879D01*
X111171408Y-61949085D01*
X111265984Y-61720758D01*
X111269033Y-61711373D01*
X111326728Y-61471060D01*
X111328271Y-61461313D01*
X111347662Y-61214930D01*
X113152338Y-61214930D01*
X113171729Y-61461313D01*
X113173272Y-61471060D01*
X113230967Y-61711373D01*
X113234016Y-61720758D01*
X113328592Y-61949085D01*
X113333073Y-61957879D01*
X113459340Y-62163928D01*
X113467401Y-62169190D01*
X113477607Y-62163183D01*
X114417978Y-61222812D01*
X114424356Y-61211132D01*
X115154408Y-61211132D01*
X115154539Y-61212965D01*
X115158790Y-61219580D01*
X116100934Y-62161724D01*
X116114471Y-62169116D01*
X116119740Y-62165430D01*
X116246927Y-61957879D01*
X116251408Y-61949085D01*
X116345984Y-61720758D01*
X116349033Y-61711373D01*
X116406728Y-61471060D01*
X116408271Y-61461313D01*
X116427662Y-61214930D01*
X116427662Y-61205070D01*
X116408271Y-60958687D01*
X116406728Y-60948940D01*
X116349033Y-60708627D01*
X116345984Y-60699242D01*
X116251408Y-60470915D01*
X116246927Y-60462121D01*
X116120660Y-60256072D01*
X116112599Y-60250810D01*
X116102393Y-60256817D01*
X115162022Y-61197188D01*
X115154408Y-61211132D01*
X114424356Y-61211132D01*
X114425592Y-61208868D01*
X114425461Y-61207035D01*
X114421210Y-61200420D01*
X113479066Y-60258276D01*
X113465529Y-60250884D01*
X113460260Y-60254570D01*
X113333073Y-60462121D01*
X113328592Y-60470915D01*
X113234016Y-60699242D01*
X113230967Y-60708627D01*
X113173272Y-60948940D01*
X113171729Y-60958687D01*
X113152338Y-61205070D01*
X113152338Y-61214930D01*
X111347662Y-61214930D01*
X111347662Y-61205070D01*
X111328271Y-60958687D01*
X111326728Y-60948940D01*
X111269033Y-60708627D01*
X111265984Y-60699242D01*
X111171408Y-60470915D01*
X111166927Y-60462121D01*
X111040660Y-60256072D01*
X111032599Y-60250810D01*
X111022393Y-60256817D01*
X110082022Y-61197188D01*
X110074408Y-61211132D01*
X109344356Y-61211132D01*
X109345592Y-61208868D01*
X109345461Y-61207035D01*
X109341210Y-61200420D01*
X108399066Y-60258276D01*
X108385122Y-60250662D01*
X108384989Y-60250671D01*
X108315615Y-60235580D01*
X108265413Y-60185378D01*
X108250000Y-60124992D01*
X108250000Y-59887401D01*
X108750810Y-59887401D01*
X108756817Y-59897607D01*
X109697188Y-60837978D01*
X109711132Y-60845592D01*
X109712965Y-60845461D01*
X109719580Y-60841210D01*
X110661724Y-59899066D01*
X110668094Y-59887401D01*
X113830810Y-59887401D01*
X113836817Y-59897607D01*
X114777188Y-60837978D01*
X114791132Y-60845592D01*
X114792965Y-60845461D01*
X114799580Y-60841210D01*
X115741724Y-59899066D01*
X115749116Y-59885529D01*
X115745430Y-59880260D01*
X115673305Y-59836062D01*
X119328493Y-59836062D01*
X119337789Y-59848077D01*
X119388994Y-59883931D01*
X119398489Y-59889414D01*
X119595947Y-59981490D01*
X119606239Y-59985236D01*
X119816688Y-60041625D01*
X119827481Y-60043528D01*
X120044525Y-60062517D01*
X120055475Y-60062517D01*
X120272519Y-60043528D01*
X120283312Y-60041625D01*
X120493761Y-59985236D01*
X120504053Y-59981490D01*
X120701511Y-59889414D01*
X120711006Y-59883931D01*
X120763048Y-59847491D01*
X120771424Y-59837012D01*
X120764356Y-59823566D01*
X120062812Y-59122022D01*
X120048868Y-59114408D01*
X120047035Y-59114539D01*
X120040420Y-59118790D01*
X119334923Y-59824287D01*
X119328493Y-59836062D01*
X115673305Y-59836062D01*
X115537879Y-59753073D01*
X115529085Y-59748592D01*
X115300758Y-59654016D01*
X115291373Y-59650967D01*
X115051060Y-59593272D01*
X115041313Y-59591729D01*
X114794930Y-59572338D01*
X114785070Y-59572338D01*
X114538687Y-59591729D01*
X114528940Y-59593272D01*
X114288627Y-59650967D01*
X114279242Y-59654016D01*
X114050915Y-59748592D01*
X114042121Y-59753073D01*
X113836072Y-59879340D01*
X113830810Y-59887401D01*
X110668094Y-59887401D01*
X110669116Y-59885529D01*
X110665430Y-59880260D01*
X110457879Y-59753073D01*
X110449085Y-59748592D01*
X110220758Y-59654016D01*
X110211373Y-59650967D01*
X109971060Y-59593272D01*
X109961313Y-59591729D01*
X109714930Y-59572338D01*
X109705070Y-59572338D01*
X109458687Y-59591729D01*
X109448940Y-59593272D01*
X109208627Y-59650967D01*
X109199242Y-59654016D01*
X108970915Y-59748592D01*
X108962121Y-59753073D01*
X108756072Y-59879340D01*
X108750810Y-59887401D01*
X108250000Y-59887401D01*
X108250000Y-58755475D01*
X118737483Y-58755475D01*
X118756472Y-58972519D01*
X118758375Y-58983312D01*
X118814764Y-59193761D01*
X118818510Y-59204053D01*
X118910586Y-59401511D01*
X118916069Y-59411006D01*
X118952509Y-59463048D01*
X118962988Y-59471424D01*
X118976434Y-59464356D01*
X119677978Y-58762812D01*
X119684356Y-58751132D01*
X120414408Y-58751132D01*
X120414539Y-58752965D01*
X120418790Y-58759580D01*
X121124287Y-59465077D01*
X121136062Y-59471507D01*
X121148077Y-59462211D01*
X121183931Y-59411006D01*
X121189414Y-59401511D01*
X121281490Y-59204053D01*
X121285236Y-59193761D01*
X121341625Y-58983312D01*
X121343528Y-58972519D01*
X121362517Y-58755475D01*
X121362517Y-58744525D01*
X121343528Y-58527481D01*
X121341625Y-58516688D01*
X121285236Y-58306239D01*
X121281490Y-58295947D01*
X121189414Y-58098489D01*
X121183931Y-58088994D01*
X121147491Y-58036952D01*
X121137012Y-58028576D01*
X121123566Y-58035644D01*
X120422022Y-58737188D01*
X120414408Y-58751132D01*
X119684356Y-58751132D01*
X119685592Y-58748868D01*
X119685461Y-58747035D01*
X119681210Y-58740420D01*
X118975713Y-58034923D01*
X118963938Y-58028493D01*
X118951923Y-58037789D01*
X118916069Y-58088994D01*
X118910586Y-58098489D01*
X118818510Y-58295947D01*
X118814764Y-58306239D01*
X118758375Y-58516688D01*
X118756472Y-58527481D01*
X118737483Y-58744525D01*
X118737483Y-58755475D01*
X108250000Y-58755475D01*
X108250000Y-57662988D01*
X119328576Y-57662988D01*
X119335644Y-57676434D01*
X120037188Y-58377978D01*
X120051132Y-58385592D01*
X120052965Y-58385461D01*
X120059580Y-58381210D01*
X120765077Y-57675713D01*
X120771507Y-57663938D01*
X120762211Y-57651923D01*
X120711006Y-57616069D01*
X120701511Y-57610586D01*
X120504053Y-57518510D01*
X120493761Y-57514764D01*
X120283312Y-57458375D01*
X120272519Y-57456472D01*
X120055475Y-57437483D01*
X120044525Y-57437483D01*
X119827481Y-57456472D01*
X119816688Y-57458375D01*
X119606239Y-57514764D01*
X119595947Y-57518510D01*
X119398489Y-57610586D01*
X119388994Y-57616069D01*
X119336952Y-57652509D01*
X119328576Y-57662988D01*
X108250000Y-57662988D01*
X108250000Y-49546346D01*
X108594867Y-49546346D01*
X108620307Y-49869579D01*
X108684948Y-50187304D01*
X108787829Y-50494782D01*
X108927415Y-50787430D01*
X109101625Y-51060885D01*
X109307863Y-51311072D01*
X109543054Y-51534259D01*
X109803691Y-51727121D01*
X109944790Y-51806951D01*
X110082532Y-51884882D01*
X110082536Y-51884884D01*
X110085889Y-51886781D01*
X110385442Y-52010860D01*
X110697883Y-52097507D01*
X111018555Y-52145432D01*
X111021853Y-52145576D01*
X111133257Y-52150440D01*
X111133261Y-52150440D01*
X111134633Y-52150500D01*
X111332354Y-52150500D01*
X111573629Y-52135743D01*
X111577412Y-52135042D01*
X111577419Y-52135041D01*
X111779931Y-52097507D01*
X111892433Y-52076656D01*
X112105785Y-52009386D01*
X112197987Y-51980315D01*
X112197990Y-51980314D01*
X112201659Y-51979157D01*
X112205156Y-51977563D01*
X112205162Y-51977561D01*
X112493191Y-51846299D01*
X112493195Y-51846297D01*
X112496699Y-51844700D01*
X112773153Y-51675289D01*
X112776157Y-51672899D01*
X112776162Y-51672896D01*
X112900027Y-51574369D01*
X113026901Y-51473449D01*
X113029595Y-51470708D01*
X113029599Y-51470704D01*
X113251463Y-51244932D01*
X113254159Y-51242189D01*
X113340945Y-51129088D01*
X113449205Y-50988001D01*
X113449210Y-50987993D01*
X113451540Y-50984957D01*
X113616101Y-50705589D01*
X113745389Y-50408247D01*
X113837476Y-50097366D01*
X113890990Y-49777579D01*
X113905133Y-49453654D01*
X113879693Y-49130421D01*
X113815052Y-48812696D01*
X113712171Y-48505218D01*
X113572585Y-48212570D01*
X113398375Y-47939115D01*
X113192137Y-47688928D01*
X112956946Y-47465741D01*
X112696309Y-47272879D01*
X112555210Y-47193049D01*
X112417468Y-47115118D01*
X112417464Y-47115116D01*
X112414111Y-47113219D01*
X112326973Y-47077125D01*
X112194949Y-47022439D01*
X112114558Y-46989140D01*
X111802117Y-46902493D01*
X111481445Y-46854568D01*
X111478147Y-46854424D01*
X111366743Y-46849560D01*
X111366739Y-46849560D01*
X111365367Y-46849500D01*
X111167646Y-46849500D01*
X110926371Y-46864257D01*
X110922588Y-46864958D01*
X110922581Y-46864959D01*
X110798039Y-46888042D01*
X110607567Y-46923344D01*
X110422930Y-46981560D01*
X110302013Y-47019685D01*
X110302010Y-47019686D01*
X110298341Y-47020843D01*
X110294844Y-47022437D01*
X110294838Y-47022439D01*
X110006809Y-47153701D01*
X110006805Y-47153703D01*
X110003301Y-47155300D01*
X110000022Y-47157310D01*
X110000019Y-47157311D01*
X109773520Y-47296110D01*
X109726847Y-47324711D01*
X109723843Y-47327101D01*
X109723838Y-47327104D01*
X109599973Y-47425631D01*
X109473099Y-47526551D01*
X109470405Y-47529292D01*
X109470401Y-47529296D01*
X109355515Y-47646206D01*
X109245841Y-47757811D01*
X109214918Y-47798111D01*
X109050795Y-48011999D01*
X109050790Y-48012007D01*
X109048460Y-48015043D01*
X108883899Y-48294411D01*
X108754611Y-48591753D01*
X108662524Y-48902634D01*
X108609010Y-49222421D01*
X108594867Y-49546346D01*
X108250000Y-49546346D01*
X108250000Y-47783491D01*
X108250703Y-47770200D01*
X108253857Y-47740467D01*
X108254804Y-47731539D01*
X108252218Y-47717231D01*
X108250248Y-47691690D01*
X108254665Y-47513980D01*
X108256487Y-47495536D01*
X108262063Y-47463456D01*
X108291147Y-47296110D01*
X108295655Y-47278132D01*
X108336795Y-47153701D01*
X108359199Y-47085940D01*
X108366288Y-47068836D01*
X108457342Y-46888038D01*
X108466872Y-46872147D01*
X108583458Y-46706674D01*
X108595219Y-46692349D01*
X108734811Y-46545777D01*
X108748545Y-46533332D01*
X108908139Y-46408816D01*
X108923552Y-46398520D01*
X109099681Y-46298768D01*
X109116437Y-46290845D01*
X109150541Y-46277692D01*
X109305292Y-46218011D01*
X109323024Y-46212633D01*
X109405379Y-46194143D01*
X109520530Y-46168291D01*
X109538863Y-46165572D01*
X109705625Y-46153273D01*
X109727962Y-46154311D01*
X109728012Y-46153749D01*
X109732859Y-46154184D01*
X109737658Y-46154991D01*
X109743568Y-46155063D01*
X109743829Y-46155104D01*
X109744091Y-46155070D01*
X109750000Y-46155142D01*
X109754815Y-46154452D01*
X109759673Y-46154136D01*
X109759677Y-46154191D01*
X109764109Y-46153786D01*
X110189949Y-46136741D01*
X110627082Y-46084023D01*
X110629536Y-46083526D01*
X110629539Y-46083525D01*
X111056138Y-45997035D01*
X111056139Y-45997035D01*
X111058604Y-45996535D01*
X111061025Y-45995839D01*
X111061032Y-45995837D01*
X111479326Y-45875534D01*
X111479332Y-45875532D01*
X111481752Y-45874836D01*
X111484094Y-45873954D01*
X111484104Y-45873951D01*
X111687786Y-45797271D01*
X111893820Y-45719706D01*
X112292170Y-45532136D01*
X112294356Y-45530884D01*
X112294362Y-45530881D01*
X112506551Y-45409366D01*
X112674253Y-45313328D01*
X112676336Y-45311903D01*
X112676345Y-45311897D01*
X113035545Y-45066103D01*
X113037625Y-45064680D01*
X113379961Y-44787785D01*
X113699071Y-44484413D01*
X113992911Y-44156507D01*
X114259603Y-43806163D01*
X114490307Y-43446737D01*
X114496077Y-43437748D01*
X114496084Y-43437736D01*
X114497439Y-43435625D01*
X114704899Y-43047262D01*
X114880654Y-42643560D01*
X115023579Y-42227102D01*
X115132761Y-41800553D01*
X115202545Y-41395413D01*
X115204212Y-41388413D01*
X115204037Y-41388374D01*
X115205098Y-41383630D01*
X115206528Y-41378962D01*
X115208284Y-41366744D01*
X115208000Y-41342450D01*
X115209210Y-41323504D01*
X115212581Y-41299439D01*
X115211282Y-41290561D01*
X115211282Y-41290555D01*
X115210137Y-41282729D01*
X115208936Y-41258827D01*
X115220586Y-40999735D01*
X115222177Y-40984658D01*
X115269298Y-40702253D01*
X115272688Y-40687476D01*
X115353389Y-40412763D01*
X115358530Y-40398500D01*
X115370459Y-40370762D01*
X115471637Y-40135481D01*
X115478451Y-40121943D01*
X115622333Y-39874404D01*
X115630727Y-39861778D01*
X115654853Y-39829838D01*
X115803302Y-39633307D01*
X115813141Y-39621794D01*
X116011902Y-39415709D01*
X116023061Y-39405452D01*
X116049278Y-39384117D01*
X116245142Y-39224727D01*
X116257436Y-39215896D01*
X116499627Y-39063143D01*
X116512906Y-39055847D01*
X116771666Y-38933300D01*
X116785733Y-38927647D01*
X117057338Y-38837067D01*
X117071983Y-38833144D01*
X117352507Y-38775839D01*
X117367516Y-38773704D01*
X117610665Y-38753938D01*
X117618882Y-38753270D01*
X117644340Y-38753938D01*
X117645497Y-38753928D01*
X117654392Y-38755123D01*
X117678653Y-38751433D01*
X117697599Y-38750000D01*
X144701297Y-38750000D01*
X144720681Y-38751500D01*
G37*
G04 #@! TD.AperFunction*
M02*
