G04 #@! TF.GenerationSoftware,KiCad,Pcbnew,(5.1.5)-3*
G04 #@! TF.CreationDate,2020-09-29T22:38:50+02:00*
G04 #@! TF.ProjectId,SFH203_photodetector,53464832-3033-45f7-9068-6f746f646574,1.3*
G04 #@! TF.SameCoordinates,Original*
G04 #@! TF.FileFunction,Copper,L1,Top*
G04 #@! TF.FilePolarity,Positive*
%FSLAX46Y46*%
G04 Gerber Fmt 4.6, Leading zero omitted, Abs format (unit mm)*
G04 Created by KiCad (PCBNEW (5.1.5)-3) date 2020-09-29 22:38:50*
%MOMM*%
%LPD*%
G04 APERTURE LIST*
%ADD10C,1.300000*%
%ADD11C,1.100000*%
%ADD12C,0.100000*%
%ADD13R,0.700000X0.250000*%
%ADD14R,1.550000X0.600000*%
%ADD15R,1.175000X1.175000*%
%ADD16C,1.600000*%
%ADD17R,1.700000X1.700000*%
%ADD18O,1.700000X1.700000*%
%ADD19C,2.050000*%
%ADD20C,2.250000*%
%ADD21C,0.600000*%
%ADD22C,0.200000*%
%ADD23C,0.500000*%
%ADD24C,0.250000*%
%ADD25C,0.254000*%
G04 APERTURE END LIST*
D10*
X129790000Y-79250000D03*
D11*
X132350000Y-79250000D03*
G04 #@! TA.AperFunction,SMDPad,CuDef*
D12*
G36*
X148527691Y-68301053D02*
G01*
X148548926Y-68304203D01*
X148569750Y-68309419D01*
X148589962Y-68316651D01*
X148609368Y-68325830D01*
X148627781Y-68336866D01*
X148645024Y-68349654D01*
X148660930Y-68364070D01*
X148675346Y-68379976D01*
X148688134Y-68397219D01*
X148699170Y-68415632D01*
X148708349Y-68435038D01*
X148715581Y-68455250D01*
X148720797Y-68476074D01*
X148723947Y-68497309D01*
X148725000Y-68518750D01*
X148725000Y-68956250D01*
X148723947Y-68977691D01*
X148720797Y-68998926D01*
X148715581Y-69019750D01*
X148708349Y-69039962D01*
X148699170Y-69059368D01*
X148688134Y-69077781D01*
X148675346Y-69095024D01*
X148660930Y-69110930D01*
X148645024Y-69125346D01*
X148627781Y-69138134D01*
X148609368Y-69149170D01*
X148589962Y-69158349D01*
X148569750Y-69165581D01*
X148548926Y-69170797D01*
X148527691Y-69173947D01*
X148506250Y-69175000D01*
X147993750Y-69175000D01*
X147972309Y-69173947D01*
X147951074Y-69170797D01*
X147930250Y-69165581D01*
X147910038Y-69158349D01*
X147890632Y-69149170D01*
X147872219Y-69138134D01*
X147854976Y-69125346D01*
X147839070Y-69110930D01*
X147824654Y-69095024D01*
X147811866Y-69077781D01*
X147800830Y-69059368D01*
X147791651Y-69039962D01*
X147784419Y-69019750D01*
X147779203Y-68998926D01*
X147776053Y-68977691D01*
X147775000Y-68956250D01*
X147775000Y-68518750D01*
X147776053Y-68497309D01*
X147779203Y-68476074D01*
X147784419Y-68455250D01*
X147791651Y-68435038D01*
X147800830Y-68415632D01*
X147811866Y-68397219D01*
X147824654Y-68379976D01*
X147839070Y-68364070D01*
X147854976Y-68349654D01*
X147872219Y-68336866D01*
X147890632Y-68325830D01*
X147910038Y-68316651D01*
X147930250Y-68309419D01*
X147951074Y-68304203D01*
X147972309Y-68301053D01*
X147993750Y-68300000D01*
X148506250Y-68300000D01*
X148527691Y-68301053D01*
G37*
G04 #@! TD.AperFunction*
G04 #@! TA.AperFunction,SMDPad,CuDef*
G36*
X148527691Y-66726053D02*
G01*
X148548926Y-66729203D01*
X148569750Y-66734419D01*
X148589962Y-66741651D01*
X148609368Y-66750830D01*
X148627781Y-66761866D01*
X148645024Y-66774654D01*
X148660930Y-66789070D01*
X148675346Y-66804976D01*
X148688134Y-66822219D01*
X148699170Y-66840632D01*
X148708349Y-66860038D01*
X148715581Y-66880250D01*
X148720797Y-66901074D01*
X148723947Y-66922309D01*
X148725000Y-66943750D01*
X148725000Y-67381250D01*
X148723947Y-67402691D01*
X148720797Y-67423926D01*
X148715581Y-67444750D01*
X148708349Y-67464962D01*
X148699170Y-67484368D01*
X148688134Y-67502781D01*
X148675346Y-67520024D01*
X148660930Y-67535930D01*
X148645024Y-67550346D01*
X148627781Y-67563134D01*
X148609368Y-67574170D01*
X148589962Y-67583349D01*
X148569750Y-67590581D01*
X148548926Y-67595797D01*
X148527691Y-67598947D01*
X148506250Y-67600000D01*
X147993750Y-67600000D01*
X147972309Y-67598947D01*
X147951074Y-67595797D01*
X147930250Y-67590581D01*
X147910038Y-67583349D01*
X147890632Y-67574170D01*
X147872219Y-67563134D01*
X147854976Y-67550346D01*
X147839070Y-67535930D01*
X147824654Y-67520024D01*
X147811866Y-67502781D01*
X147800830Y-67484368D01*
X147791651Y-67464962D01*
X147784419Y-67444750D01*
X147779203Y-67423926D01*
X147776053Y-67402691D01*
X147775000Y-67381250D01*
X147775000Y-66943750D01*
X147776053Y-66922309D01*
X147779203Y-66901074D01*
X147784419Y-66880250D01*
X147791651Y-66860038D01*
X147800830Y-66840632D01*
X147811866Y-66822219D01*
X147824654Y-66804976D01*
X147839070Y-66789070D01*
X147854976Y-66774654D01*
X147872219Y-66761866D01*
X147890632Y-66750830D01*
X147910038Y-66741651D01*
X147930250Y-66734419D01*
X147951074Y-66729203D01*
X147972309Y-66726053D01*
X147993750Y-66725000D01*
X148506250Y-66725000D01*
X148527691Y-66726053D01*
G37*
G04 #@! TD.AperFunction*
D13*
X146450000Y-65650000D03*
X146450000Y-66150000D03*
X146450000Y-66650000D03*
X146450000Y-67150000D03*
X146450000Y-67650000D03*
X146450000Y-68650000D03*
X143650000Y-68650000D03*
X143650000Y-68150000D03*
X143650000Y-67650000D03*
X143650000Y-66650000D03*
X143650000Y-66150000D03*
X143650000Y-65650000D03*
G04 #@! TA.AperFunction,SMDPad,CuDef*
D12*
G36*
X145625000Y-67760301D02*
G01*
X145637267Y-67760301D01*
X145661683Y-67762706D01*
X145685745Y-67767492D01*
X145709222Y-67774614D01*
X145731889Y-67784003D01*
X145753526Y-67795568D01*
X145773925Y-67809198D01*
X145792890Y-67824762D01*
X145810238Y-67842110D01*
X145825802Y-67861075D01*
X145839432Y-67881474D01*
X145850997Y-67903111D01*
X145860386Y-67925778D01*
X145867508Y-67949255D01*
X145872294Y-67973317D01*
X145874699Y-67997733D01*
X145874699Y-68010000D01*
X145875000Y-68010000D01*
X145875000Y-68025000D01*
X146800000Y-68025000D01*
X146800000Y-68275000D01*
X145875000Y-68275000D01*
X145875000Y-68580000D01*
X145874699Y-68580000D01*
X145874699Y-68592267D01*
X145872294Y-68616683D01*
X145867508Y-68640745D01*
X145860386Y-68664222D01*
X145850997Y-68686889D01*
X145839432Y-68708526D01*
X145825802Y-68728925D01*
X145810238Y-68747890D01*
X145792890Y-68765238D01*
X145773925Y-68780802D01*
X145753526Y-68794432D01*
X145731889Y-68805997D01*
X145709222Y-68815386D01*
X145685745Y-68822508D01*
X145661683Y-68827294D01*
X145637267Y-68829699D01*
X145625000Y-68829699D01*
X145625000Y-68830000D01*
X144475000Y-68830000D01*
X144475000Y-68829699D01*
X144462733Y-68829699D01*
X144438317Y-68827294D01*
X144414255Y-68822508D01*
X144390778Y-68815386D01*
X144368111Y-68805997D01*
X144346474Y-68794432D01*
X144326075Y-68780802D01*
X144307110Y-68765238D01*
X144289762Y-68747890D01*
X144274198Y-68728925D01*
X144260568Y-68708526D01*
X144249003Y-68686889D01*
X144239614Y-68664222D01*
X144232492Y-68640745D01*
X144227706Y-68616683D01*
X144225301Y-68592267D01*
X144225301Y-68580000D01*
X144225000Y-68580000D01*
X144225000Y-68010000D01*
X144225301Y-68010000D01*
X144225301Y-67997733D01*
X144227706Y-67973317D01*
X144232492Y-67949255D01*
X144239614Y-67925778D01*
X144249003Y-67903111D01*
X144260568Y-67881474D01*
X144274198Y-67861075D01*
X144289762Y-67842110D01*
X144307110Y-67824762D01*
X144326075Y-67809198D01*
X144346474Y-67795568D01*
X144368111Y-67784003D01*
X144390778Y-67774614D01*
X144414255Y-67767492D01*
X144438317Y-67762706D01*
X144462733Y-67760301D01*
X144475000Y-67760301D01*
X144475000Y-67760000D01*
X145625000Y-67760000D01*
X145625000Y-67760301D01*
G37*
G04 #@! TD.AperFunction*
G04 #@! TA.AperFunction,SMDPad,CuDef*
G36*
X145625000Y-65470301D02*
G01*
X145637267Y-65470301D01*
X145661683Y-65472706D01*
X145685745Y-65477492D01*
X145709222Y-65484614D01*
X145731889Y-65494003D01*
X145753526Y-65505568D01*
X145773925Y-65519198D01*
X145792890Y-65534762D01*
X145810238Y-65552110D01*
X145825802Y-65571075D01*
X145839432Y-65591474D01*
X145850997Y-65613111D01*
X145860386Y-65635778D01*
X145867508Y-65659255D01*
X145872294Y-65683317D01*
X145874699Y-65707733D01*
X145874699Y-65720000D01*
X145875000Y-65720000D01*
X145875000Y-67000000D01*
X145874699Y-67000000D01*
X145874699Y-67012267D01*
X145872294Y-67036683D01*
X145867508Y-67060745D01*
X145860386Y-67084222D01*
X145850997Y-67106889D01*
X145839432Y-67128526D01*
X145825802Y-67148925D01*
X145810238Y-67167890D01*
X145792890Y-67185238D01*
X145773925Y-67200802D01*
X145753526Y-67214432D01*
X145731889Y-67225997D01*
X145709222Y-67235386D01*
X145685745Y-67242508D01*
X145661683Y-67247294D01*
X145637267Y-67249699D01*
X145625000Y-67249699D01*
X145625000Y-67250000D01*
X144270000Y-67250000D01*
X144170000Y-67275000D01*
X143300000Y-67275000D01*
X143300000Y-67025000D01*
X143974500Y-67025000D01*
X143974510Y-67024902D01*
X143974538Y-67024809D01*
X143974584Y-67024722D01*
X143974646Y-67024646D01*
X143974722Y-67024584D01*
X143974809Y-67024538D01*
X143974950Y-67024502D01*
X144024903Y-67019507D01*
X144072801Y-67004539D01*
X144114723Y-66981581D01*
X144152642Y-66950647D01*
X144183579Y-66911727D01*
X144205536Y-66870807D01*
X144219508Y-66823901D01*
X144224503Y-66774949D01*
X144224522Y-66774853D01*
X144224560Y-66774763D01*
X144224615Y-66774681D01*
X144224684Y-66774612D01*
X144224766Y-66774558D01*
X144224857Y-66774521D01*
X144224953Y-66774502D01*
X144225000Y-66774502D01*
X144225000Y-65720000D01*
X144475000Y-65470000D01*
X145625000Y-65470000D01*
X145625000Y-65470301D01*
G37*
G04 #@! TD.AperFunction*
G04 #@! TA.AperFunction,SMDPad,CuDef*
G36*
X148549504Y-71126204D02*
G01*
X148573773Y-71129804D01*
X148597571Y-71135765D01*
X148620671Y-71144030D01*
X148642849Y-71154520D01*
X148663893Y-71167133D01*
X148683598Y-71181747D01*
X148701777Y-71198223D01*
X148718253Y-71216402D01*
X148732867Y-71236107D01*
X148745480Y-71257151D01*
X148755970Y-71279329D01*
X148764235Y-71302429D01*
X148770196Y-71326227D01*
X148773796Y-71350496D01*
X148775000Y-71375000D01*
X148775000Y-72125000D01*
X148773796Y-72149504D01*
X148770196Y-72173773D01*
X148764235Y-72197571D01*
X148755970Y-72220671D01*
X148745480Y-72242849D01*
X148732867Y-72263893D01*
X148718253Y-72283598D01*
X148701777Y-72301777D01*
X148683598Y-72318253D01*
X148663893Y-72332867D01*
X148642849Y-72345480D01*
X148620671Y-72355970D01*
X148597571Y-72364235D01*
X148573773Y-72370196D01*
X148549504Y-72373796D01*
X148525000Y-72375000D01*
X146375000Y-72375000D01*
X146350496Y-72373796D01*
X146326227Y-72370196D01*
X146302429Y-72364235D01*
X146279329Y-72355970D01*
X146257151Y-72345480D01*
X146236107Y-72332867D01*
X146216402Y-72318253D01*
X146198223Y-72301777D01*
X146181747Y-72283598D01*
X146167133Y-72263893D01*
X146154520Y-72242849D01*
X146144030Y-72220671D01*
X146135765Y-72197571D01*
X146129804Y-72173773D01*
X146126204Y-72149504D01*
X146125000Y-72125000D01*
X146125000Y-71375000D01*
X146126204Y-71350496D01*
X146129804Y-71326227D01*
X146135765Y-71302429D01*
X146144030Y-71279329D01*
X146154520Y-71257151D01*
X146167133Y-71236107D01*
X146181747Y-71216402D01*
X146198223Y-71198223D01*
X146216402Y-71181747D01*
X146236107Y-71167133D01*
X146257151Y-71154520D01*
X146279329Y-71144030D01*
X146302429Y-71135765D01*
X146326227Y-71129804D01*
X146350496Y-71126204D01*
X146375000Y-71125000D01*
X148525000Y-71125000D01*
X148549504Y-71126204D01*
G37*
G04 #@! TD.AperFunction*
G04 #@! TA.AperFunction,SMDPad,CuDef*
G36*
X148549504Y-73926204D02*
G01*
X148573773Y-73929804D01*
X148597571Y-73935765D01*
X148620671Y-73944030D01*
X148642849Y-73954520D01*
X148663893Y-73967133D01*
X148683598Y-73981747D01*
X148701777Y-73998223D01*
X148718253Y-74016402D01*
X148732867Y-74036107D01*
X148745480Y-74057151D01*
X148755970Y-74079329D01*
X148764235Y-74102429D01*
X148770196Y-74126227D01*
X148773796Y-74150496D01*
X148775000Y-74175000D01*
X148775000Y-74925000D01*
X148773796Y-74949504D01*
X148770196Y-74973773D01*
X148764235Y-74997571D01*
X148755970Y-75020671D01*
X148745480Y-75042849D01*
X148732867Y-75063893D01*
X148718253Y-75083598D01*
X148701777Y-75101777D01*
X148683598Y-75118253D01*
X148663893Y-75132867D01*
X148642849Y-75145480D01*
X148620671Y-75155970D01*
X148597571Y-75164235D01*
X148573773Y-75170196D01*
X148549504Y-75173796D01*
X148525000Y-75175000D01*
X146375000Y-75175000D01*
X146350496Y-75173796D01*
X146326227Y-75170196D01*
X146302429Y-75164235D01*
X146279329Y-75155970D01*
X146257151Y-75145480D01*
X146236107Y-75132867D01*
X146216402Y-75118253D01*
X146198223Y-75101777D01*
X146181747Y-75083598D01*
X146167133Y-75063893D01*
X146154520Y-75042849D01*
X146144030Y-75020671D01*
X146135765Y-74997571D01*
X146129804Y-74973773D01*
X146126204Y-74949504D01*
X146125000Y-74925000D01*
X146125000Y-74175000D01*
X146126204Y-74150496D01*
X146129804Y-74126227D01*
X146135765Y-74102429D01*
X146144030Y-74079329D01*
X146154520Y-74057151D01*
X146167133Y-74036107D01*
X146181747Y-74016402D01*
X146198223Y-73998223D01*
X146216402Y-73981747D01*
X146236107Y-73967133D01*
X146257151Y-73954520D01*
X146279329Y-73944030D01*
X146302429Y-73935765D01*
X146326227Y-73929804D01*
X146350496Y-73926204D01*
X146375000Y-73925000D01*
X148525000Y-73925000D01*
X148549504Y-73926204D01*
G37*
G04 #@! TD.AperFunction*
G04 #@! TA.AperFunction,SMDPad,CuDef*
G36*
X148349504Y-61326204D02*
G01*
X148373773Y-61329804D01*
X148397571Y-61335765D01*
X148420671Y-61344030D01*
X148442849Y-61354520D01*
X148463893Y-61367133D01*
X148483598Y-61381747D01*
X148501777Y-61398223D01*
X148518253Y-61416402D01*
X148532867Y-61436107D01*
X148545480Y-61457151D01*
X148555970Y-61479329D01*
X148564235Y-61502429D01*
X148570196Y-61526227D01*
X148573796Y-61550496D01*
X148575000Y-61575000D01*
X148575000Y-62325000D01*
X148573796Y-62349504D01*
X148570196Y-62373773D01*
X148564235Y-62397571D01*
X148555970Y-62420671D01*
X148545480Y-62442849D01*
X148532867Y-62463893D01*
X148518253Y-62483598D01*
X148501777Y-62501777D01*
X148483598Y-62518253D01*
X148463893Y-62532867D01*
X148442849Y-62545480D01*
X148420671Y-62555970D01*
X148397571Y-62564235D01*
X148373773Y-62570196D01*
X148349504Y-62573796D01*
X148325000Y-62575000D01*
X146175000Y-62575000D01*
X146150496Y-62573796D01*
X146126227Y-62570196D01*
X146102429Y-62564235D01*
X146079329Y-62555970D01*
X146057151Y-62545480D01*
X146036107Y-62532867D01*
X146016402Y-62518253D01*
X145998223Y-62501777D01*
X145981747Y-62483598D01*
X145967133Y-62463893D01*
X145954520Y-62442849D01*
X145944030Y-62420671D01*
X145935765Y-62397571D01*
X145929804Y-62373773D01*
X145926204Y-62349504D01*
X145925000Y-62325000D01*
X145925000Y-61575000D01*
X145926204Y-61550496D01*
X145929804Y-61526227D01*
X145935765Y-61502429D01*
X145944030Y-61479329D01*
X145954520Y-61457151D01*
X145967133Y-61436107D01*
X145981747Y-61416402D01*
X145998223Y-61398223D01*
X146016402Y-61381747D01*
X146036107Y-61367133D01*
X146057151Y-61354520D01*
X146079329Y-61344030D01*
X146102429Y-61335765D01*
X146126227Y-61329804D01*
X146150496Y-61326204D01*
X146175000Y-61325000D01*
X148325000Y-61325000D01*
X148349504Y-61326204D01*
G37*
G04 #@! TD.AperFunction*
G04 #@! TA.AperFunction,SMDPad,CuDef*
G36*
X148349504Y-58526204D02*
G01*
X148373773Y-58529804D01*
X148397571Y-58535765D01*
X148420671Y-58544030D01*
X148442849Y-58554520D01*
X148463893Y-58567133D01*
X148483598Y-58581747D01*
X148501777Y-58598223D01*
X148518253Y-58616402D01*
X148532867Y-58636107D01*
X148545480Y-58657151D01*
X148555970Y-58679329D01*
X148564235Y-58702429D01*
X148570196Y-58726227D01*
X148573796Y-58750496D01*
X148575000Y-58775000D01*
X148575000Y-59525000D01*
X148573796Y-59549504D01*
X148570196Y-59573773D01*
X148564235Y-59597571D01*
X148555970Y-59620671D01*
X148545480Y-59642849D01*
X148532867Y-59663893D01*
X148518253Y-59683598D01*
X148501777Y-59701777D01*
X148483598Y-59718253D01*
X148463893Y-59732867D01*
X148442849Y-59745480D01*
X148420671Y-59755970D01*
X148397571Y-59764235D01*
X148373773Y-59770196D01*
X148349504Y-59773796D01*
X148325000Y-59775000D01*
X146175000Y-59775000D01*
X146150496Y-59773796D01*
X146126227Y-59770196D01*
X146102429Y-59764235D01*
X146079329Y-59755970D01*
X146057151Y-59745480D01*
X146036107Y-59732867D01*
X146016402Y-59718253D01*
X145998223Y-59701777D01*
X145981747Y-59683598D01*
X145967133Y-59663893D01*
X145954520Y-59642849D01*
X145944030Y-59620671D01*
X145935765Y-59597571D01*
X145929804Y-59573773D01*
X145926204Y-59549504D01*
X145925000Y-59525000D01*
X145925000Y-58775000D01*
X145926204Y-58750496D01*
X145929804Y-58726227D01*
X145935765Y-58702429D01*
X145944030Y-58679329D01*
X145954520Y-58657151D01*
X145967133Y-58636107D01*
X145981747Y-58616402D01*
X145998223Y-58598223D01*
X146016402Y-58581747D01*
X146036107Y-58567133D01*
X146057151Y-58554520D01*
X146079329Y-58544030D01*
X146102429Y-58535765D01*
X146126227Y-58529804D01*
X146150496Y-58526204D01*
X146175000Y-58525000D01*
X148325000Y-58525000D01*
X148349504Y-58526204D01*
G37*
G04 #@! TD.AperFunction*
D14*
X133350000Y-75055000D03*
X133350000Y-73785000D03*
X133350000Y-72515000D03*
X133350000Y-71245000D03*
X127950000Y-71245000D03*
X127950000Y-72515000D03*
X127950000Y-73785000D03*
X127950000Y-75055000D03*
D15*
X130062500Y-72562500D03*
X130062500Y-73737500D03*
X131237500Y-72562500D03*
X131237500Y-73737500D03*
G04 #@! TA.AperFunction,SMDPad,CuDef*
D12*
G36*
X142227691Y-65126053D02*
G01*
X142248926Y-65129203D01*
X142269750Y-65134419D01*
X142289962Y-65141651D01*
X142309368Y-65150830D01*
X142327781Y-65161866D01*
X142345024Y-65174654D01*
X142360930Y-65189070D01*
X142375346Y-65204976D01*
X142388134Y-65222219D01*
X142399170Y-65240632D01*
X142408349Y-65260038D01*
X142415581Y-65280250D01*
X142420797Y-65301074D01*
X142423947Y-65322309D01*
X142425000Y-65343750D01*
X142425000Y-65781250D01*
X142423947Y-65802691D01*
X142420797Y-65823926D01*
X142415581Y-65844750D01*
X142408349Y-65864962D01*
X142399170Y-65884368D01*
X142388134Y-65902781D01*
X142375346Y-65920024D01*
X142360930Y-65935930D01*
X142345024Y-65950346D01*
X142327781Y-65963134D01*
X142309368Y-65974170D01*
X142289962Y-65983349D01*
X142269750Y-65990581D01*
X142248926Y-65995797D01*
X142227691Y-65998947D01*
X142206250Y-66000000D01*
X141693750Y-66000000D01*
X141672309Y-65998947D01*
X141651074Y-65995797D01*
X141630250Y-65990581D01*
X141610038Y-65983349D01*
X141590632Y-65974170D01*
X141572219Y-65963134D01*
X141554976Y-65950346D01*
X141539070Y-65935930D01*
X141524654Y-65920024D01*
X141511866Y-65902781D01*
X141500830Y-65884368D01*
X141491651Y-65864962D01*
X141484419Y-65844750D01*
X141479203Y-65823926D01*
X141476053Y-65802691D01*
X141475000Y-65781250D01*
X141475000Y-65343750D01*
X141476053Y-65322309D01*
X141479203Y-65301074D01*
X141484419Y-65280250D01*
X141491651Y-65260038D01*
X141500830Y-65240632D01*
X141511866Y-65222219D01*
X141524654Y-65204976D01*
X141539070Y-65189070D01*
X141554976Y-65174654D01*
X141572219Y-65161866D01*
X141590632Y-65150830D01*
X141610038Y-65141651D01*
X141630250Y-65134419D01*
X141651074Y-65129203D01*
X141672309Y-65126053D01*
X141693750Y-65125000D01*
X142206250Y-65125000D01*
X142227691Y-65126053D01*
G37*
G04 #@! TD.AperFunction*
G04 #@! TA.AperFunction,SMDPad,CuDef*
G36*
X142227691Y-66701053D02*
G01*
X142248926Y-66704203D01*
X142269750Y-66709419D01*
X142289962Y-66716651D01*
X142309368Y-66725830D01*
X142327781Y-66736866D01*
X142345024Y-66749654D01*
X142360930Y-66764070D01*
X142375346Y-66779976D01*
X142388134Y-66797219D01*
X142399170Y-66815632D01*
X142408349Y-66835038D01*
X142415581Y-66855250D01*
X142420797Y-66876074D01*
X142423947Y-66897309D01*
X142425000Y-66918750D01*
X142425000Y-67356250D01*
X142423947Y-67377691D01*
X142420797Y-67398926D01*
X142415581Y-67419750D01*
X142408349Y-67439962D01*
X142399170Y-67459368D01*
X142388134Y-67477781D01*
X142375346Y-67495024D01*
X142360930Y-67510930D01*
X142345024Y-67525346D01*
X142327781Y-67538134D01*
X142309368Y-67549170D01*
X142289962Y-67558349D01*
X142269750Y-67565581D01*
X142248926Y-67570797D01*
X142227691Y-67573947D01*
X142206250Y-67575000D01*
X141693750Y-67575000D01*
X141672309Y-67573947D01*
X141651074Y-67570797D01*
X141630250Y-67565581D01*
X141610038Y-67558349D01*
X141590632Y-67549170D01*
X141572219Y-67538134D01*
X141554976Y-67525346D01*
X141539070Y-67510930D01*
X141524654Y-67495024D01*
X141511866Y-67477781D01*
X141500830Y-67459368D01*
X141491651Y-67439962D01*
X141484419Y-67419750D01*
X141479203Y-67398926D01*
X141476053Y-67377691D01*
X141475000Y-67356250D01*
X141475000Y-66918750D01*
X141476053Y-66897309D01*
X141479203Y-66876074D01*
X141484419Y-66855250D01*
X141491651Y-66835038D01*
X141500830Y-66815632D01*
X141511866Y-66797219D01*
X141524654Y-66779976D01*
X141539070Y-66764070D01*
X141554976Y-66749654D01*
X141572219Y-66736866D01*
X141590632Y-66725830D01*
X141610038Y-66716651D01*
X141630250Y-66709419D01*
X141651074Y-66704203D01*
X141672309Y-66701053D01*
X141693750Y-66700000D01*
X142206250Y-66700000D01*
X142227691Y-66701053D01*
G37*
G04 #@! TD.AperFunction*
G04 #@! TA.AperFunction,SMDPad,CuDef*
G36*
X141949504Y-58526204D02*
G01*
X141973773Y-58529804D01*
X141997571Y-58535765D01*
X142020671Y-58544030D01*
X142042849Y-58554520D01*
X142063893Y-58567133D01*
X142083598Y-58581747D01*
X142101777Y-58598223D01*
X142118253Y-58616402D01*
X142132867Y-58636107D01*
X142145480Y-58657151D01*
X142155970Y-58679329D01*
X142164235Y-58702429D01*
X142170196Y-58726227D01*
X142173796Y-58750496D01*
X142175000Y-58775000D01*
X142175000Y-59525000D01*
X142173796Y-59549504D01*
X142170196Y-59573773D01*
X142164235Y-59597571D01*
X142155970Y-59620671D01*
X142145480Y-59642849D01*
X142132867Y-59663893D01*
X142118253Y-59683598D01*
X142101777Y-59701777D01*
X142083598Y-59718253D01*
X142063893Y-59732867D01*
X142042849Y-59745480D01*
X142020671Y-59755970D01*
X141997571Y-59764235D01*
X141973773Y-59770196D01*
X141949504Y-59773796D01*
X141925000Y-59775000D01*
X139775000Y-59775000D01*
X139750496Y-59773796D01*
X139726227Y-59770196D01*
X139702429Y-59764235D01*
X139679329Y-59755970D01*
X139657151Y-59745480D01*
X139636107Y-59732867D01*
X139616402Y-59718253D01*
X139598223Y-59701777D01*
X139581747Y-59683598D01*
X139567133Y-59663893D01*
X139554520Y-59642849D01*
X139544030Y-59620671D01*
X139535765Y-59597571D01*
X139529804Y-59573773D01*
X139526204Y-59549504D01*
X139525000Y-59525000D01*
X139525000Y-58775000D01*
X139526204Y-58750496D01*
X139529804Y-58726227D01*
X139535765Y-58702429D01*
X139544030Y-58679329D01*
X139554520Y-58657151D01*
X139567133Y-58636107D01*
X139581747Y-58616402D01*
X139598223Y-58598223D01*
X139616402Y-58581747D01*
X139636107Y-58567133D01*
X139657151Y-58554520D01*
X139679329Y-58544030D01*
X139702429Y-58535765D01*
X139726227Y-58529804D01*
X139750496Y-58526204D01*
X139775000Y-58525000D01*
X141925000Y-58525000D01*
X141949504Y-58526204D01*
G37*
G04 #@! TD.AperFunction*
G04 #@! TA.AperFunction,SMDPad,CuDef*
G36*
X141949504Y-61326204D02*
G01*
X141973773Y-61329804D01*
X141997571Y-61335765D01*
X142020671Y-61344030D01*
X142042849Y-61354520D01*
X142063893Y-61367133D01*
X142083598Y-61381747D01*
X142101777Y-61398223D01*
X142118253Y-61416402D01*
X142132867Y-61436107D01*
X142145480Y-61457151D01*
X142155970Y-61479329D01*
X142164235Y-61502429D01*
X142170196Y-61526227D01*
X142173796Y-61550496D01*
X142175000Y-61575000D01*
X142175000Y-62325000D01*
X142173796Y-62349504D01*
X142170196Y-62373773D01*
X142164235Y-62397571D01*
X142155970Y-62420671D01*
X142145480Y-62442849D01*
X142132867Y-62463893D01*
X142118253Y-62483598D01*
X142101777Y-62501777D01*
X142083598Y-62518253D01*
X142063893Y-62532867D01*
X142042849Y-62545480D01*
X142020671Y-62555970D01*
X141997571Y-62564235D01*
X141973773Y-62570196D01*
X141949504Y-62573796D01*
X141925000Y-62575000D01*
X139775000Y-62575000D01*
X139750496Y-62573796D01*
X139726227Y-62570196D01*
X139702429Y-62564235D01*
X139679329Y-62555970D01*
X139657151Y-62545480D01*
X139636107Y-62532867D01*
X139616402Y-62518253D01*
X139598223Y-62501777D01*
X139581747Y-62483598D01*
X139567133Y-62463893D01*
X139554520Y-62442849D01*
X139544030Y-62420671D01*
X139535765Y-62397571D01*
X139529804Y-62373773D01*
X139526204Y-62349504D01*
X139525000Y-62325000D01*
X139525000Y-61575000D01*
X139526204Y-61550496D01*
X139529804Y-61526227D01*
X139535765Y-61502429D01*
X139544030Y-61479329D01*
X139554520Y-61457151D01*
X139567133Y-61436107D01*
X139581747Y-61416402D01*
X139598223Y-61398223D01*
X139616402Y-61381747D01*
X139636107Y-61367133D01*
X139657151Y-61354520D01*
X139679329Y-61344030D01*
X139702429Y-61335765D01*
X139726227Y-61329804D01*
X139750496Y-61326204D01*
X139775000Y-61325000D01*
X141925000Y-61325000D01*
X141949504Y-61326204D01*
G37*
G04 #@! TD.AperFunction*
G04 #@! TA.AperFunction,SMDPad,CuDef*
G36*
X143149504Y-73826204D02*
G01*
X143173773Y-73829804D01*
X143197571Y-73835765D01*
X143220671Y-73844030D01*
X143242849Y-73854520D01*
X143263893Y-73867133D01*
X143283598Y-73881747D01*
X143301777Y-73898223D01*
X143318253Y-73916402D01*
X143332867Y-73936107D01*
X143345480Y-73957151D01*
X143355970Y-73979329D01*
X143364235Y-74002429D01*
X143370196Y-74026227D01*
X143373796Y-74050496D01*
X143375000Y-74075000D01*
X143375000Y-74825000D01*
X143373796Y-74849504D01*
X143370196Y-74873773D01*
X143364235Y-74897571D01*
X143355970Y-74920671D01*
X143345480Y-74942849D01*
X143332867Y-74963893D01*
X143318253Y-74983598D01*
X143301777Y-75001777D01*
X143283598Y-75018253D01*
X143263893Y-75032867D01*
X143242849Y-75045480D01*
X143220671Y-75055970D01*
X143197571Y-75064235D01*
X143173773Y-75070196D01*
X143149504Y-75073796D01*
X143125000Y-75075000D01*
X140975000Y-75075000D01*
X140950496Y-75073796D01*
X140926227Y-75070196D01*
X140902429Y-75064235D01*
X140879329Y-75055970D01*
X140857151Y-75045480D01*
X140836107Y-75032867D01*
X140816402Y-75018253D01*
X140798223Y-75001777D01*
X140781747Y-74983598D01*
X140767133Y-74963893D01*
X140754520Y-74942849D01*
X140744030Y-74920671D01*
X140735765Y-74897571D01*
X140729804Y-74873773D01*
X140726204Y-74849504D01*
X140725000Y-74825000D01*
X140725000Y-74075000D01*
X140726204Y-74050496D01*
X140729804Y-74026227D01*
X140735765Y-74002429D01*
X140744030Y-73979329D01*
X140754520Y-73957151D01*
X140767133Y-73936107D01*
X140781747Y-73916402D01*
X140798223Y-73898223D01*
X140816402Y-73881747D01*
X140836107Y-73867133D01*
X140857151Y-73854520D01*
X140879329Y-73844030D01*
X140902429Y-73835765D01*
X140926227Y-73829804D01*
X140950496Y-73826204D01*
X140975000Y-73825000D01*
X143125000Y-73825000D01*
X143149504Y-73826204D01*
G37*
G04 #@! TD.AperFunction*
G04 #@! TA.AperFunction,SMDPad,CuDef*
G36*
X143149504Y-71026204D02*
G01*
X143173773Y-71029804D01*
X143197571Y-71035765D01*
X143220671Y-71044030D01*
X143242849Y-71054520D01*
X143263893Y-71067133D01*
X143283598Y-71081747D01*
X143301777Y-71098223D01*
X143318253Y-71116402D01*
X143332867Y-71136107D01*
X143345480Y-71157151D01*
X143355970Y-71179329D01*
X143364235Y-71202429D01*
X143370196Y-71226227D01*
X143373796Y-71250496D01*
X143375000Y-71275000D01*
X143375000Y-72025000D01*
X143373796Y-72049504D01*
X143370196Y-72073773D01*
X143364235Y-72097571D01*
X143355970Y-72120671D01*
X143345480Y-72142849D01*
X143332867Y-72163893D01*
X143318253Y-72183598D01*
X143301777Y-72201777D01*
X143283598Y-72218253D01*
X143263893Y-72232867D01*
X143242849Y-72245480D01*
X143220671Y-72255970D01*
X143197571Y-72264235D01*
X143173773Y-72270196D01*
X143149504Y-72273796D01*
X143125000Y-72275000D01*
X140975000Y-72275000D01*
X140950496Y-72273796D01*
X140926227Y-72270196D01*
X140902429Y-72264235D01*
X140879329Y-72255970D01*
X140857151Y-72245480D01*
X140836107Y-72232867D01*
X140816402Y-72218253D01*
X140798223Y-72201777D01*
X140781747Y-72183598D01*
X140767133Y-72163893D01*
X140754520Y-72142849D01*
X140744030Y-72120671D01*
X140735765Y-72097571D01*
X140729804Y-72073773D01*
X140726204Y-72049504D01*
X140725000Y-72025000D01*
X140725000Y-71275000D01*
X140726204Y-71250496D01*
X140729804Y-71226227D01*
X140735765Y-71202429D01*
X140744030Y-71179329D01*
X140754520Y-71157151D01*
X140767133Y-71136107D01*
X140781747Y-71116402D01*
X140798223Y-71098223D01*
X140816402Y-71081747D01*
X140836107Y-71067133D01*
X140857151Y-71054520D01*
X140879329Y-71044030D01*
X140902429Y-71035765D01*
X140926227Y-71029804D01*
X140950496Y-71026204D01*
X140975000Y-71025000D01*
X143125000Y-71025000D01*
X143149504Y-71026204D01*
G37*
G04 #@! TD.AperFunction*
G04 #@! TA.AperFunction,SMDPad,CuDef*
G36*
X124927691Y-78276053D02*
G01*
X124948926Y-78279203D01*
X124969750Y-78284419D01*
X124989962Y-78291651D01*
X125009368Y-78300830D01*
X125027781Y-78311866D01*
X125045024Y-78324654D01*
X125060930Y-78339070D01*
X125075346Y-78354976D01*
X125088134Y-78372219D01*
X125099170Y-78390632D01*
X125108349Y-78410038D01*
X125115581Y-78430250D01*
X125120797Y-78451074D01*
X125123947Y-78472309D01*
X125125000Y-78493750D01*
X125125000Y-78931250D01*
X125123947Y-78952691D01*
X125120797Y-78973926D01*
X125115581Y-78994750D01*
X125108349Y-79014962D01*
X125099170Y-79034368D01*
X125088134Y-79052781D01*
X125075346Y-79070024D01*
X125060930Y-79085930D01*
X125045024Y-79100346D01*
X125027781Y-79113134D01*
X125009368Y-79124170D01*
X124989962Y-79133349D01*
X124969750Y-79140581D01*
X124948926Y-79145797D01*
X124927691Y-79148947D01*
X124906250Y-79150000D01*
X124393750Y-79150000D01*
X124372309Y-79148947D01*
X124351074Y-79145797D01*
X124330250Y-79140581D01*
X124310038Y-79133349D01*
X124290632Y-79124170D01*
X124272219Y-79113134D01*
X124254976Y-79100346D01*
X124239070Y-79085930D01*
X124224654Y-79070024D01*
X124211866Y-79052781D01*
X124200830Y-79034368D01*
X124191651Y-79014962D01*
X124184419Y-78994750D01*
X124179203Y-78973926D01*
X124176053Y-78952691D01*
X124175000Y-78931250D01*
X124175000Y-78493750D01*
X124176053Y-78472309D01*
X124179203Y-78451074D01*
X124184419Y-78430250D01*
X124191651Y-78410038D01*
X124200830Y-78390632D01*
X124211866Y-78372219D01*
X124224654Y-78354976D01*
X124239070Y-78339070D01*
X124254976Y-78324654D01*
X124272219Y-78311866D01*
X124290632Y-78300830D01*
X124310038Y-78291651D01*
X124330250Y-78284419D01*
X124351074Y-78279203D01*
X124372309Y-78276053D01*
X124393750Y-78275000D01*
X124906250Y-78275000D01*
X124927691Y-78276053D01*
G37*
G04 #@! TD.AperFunction*
G04 #@! TA.AperFunction,SMDPad,CuDef*
G36*
X124927691Y-79851053D02*
G01*
X124948926Y-79854203D01*
X124969750Y-79859419D01*
X124989962Y-79866651D01*
X125009368Y-79875830D01*
X125027781Y-79886866D01*
X125045024Y-79899654D01*
X125060930Y-79914070D01*
X125075346Y-79929976D01*
X125088134Y-79947219D01*
X125099170Y-79965632D01*
X125108349Y-79985038D01*
X125115581Y-80005250D01*
X125120797Y-80026074D01*
X125123947Y-80047309D01*
X125125000Y-80068750D01*
X125125000Y-80506250D01*
X125123947Y-80527691D01*
X125120797Y-80548926D01*
X125115581Y-80569750D01*
X125108349Y-80589962D01*
X125099170Y-80609368D01*
X125088134Y-80627781D01*
X125075346Y-80645024D01*
X125060930Y-80660930D01*
X125045024Y-80675346D01*
X125027781Y-80688134D01*
X125009368Y-80699170D01*
X124989962Y-80708349D01*
X124969750Y-80715581D01*
X124948926Y-80720797D01*
X124927691Y-80723947D01*
X124906250Y-80725000D01*
X124393750Y-80725000D01*
X124372309Y-80723947D01*
X124351074Y-80720797D01*
X124330250Y-80715581D01*
X124310038Y-80708349D01*
X124290632Y-80699170D01*
X124272219Y-80688134D01*
X124254976Y-80675346D01*
X124239070Y-80660930D01*
X124224654Y-80645024D01*
X124211866Y-80627781D01*
X124200830Y-80609368D01*
X124191651Y-80589962D01*
X124184419Y-80569750D01*
X124179203Y-80548926D01*
X124176053Y-80527691D01*
X124175000Y-80506250D01*
X124175000Y-80068750D01*
X124176053Y-80047309D01*
X124179203Y-80026074D01*
X124184419Y-80005250D01*
X124191651Y-79985038D01*
X124200830Y-79965632D01*
X124211866Y-79947219D01*
X124224654Y-79929976D01*
X124239070Y-79914070D01*
X124254976Y-79899654D01*
X124272219Y-79886866D01*
X124290632Y-79875830D01*
X124310038Y-79866651D01*
X124330250Y-79859419D01*
X124351074Y-79854203D01*
X124372309Y-79851053D01*
X124393750Y-79850000D01*
X124906250Y-79850000D01*
X124927691Y-79851053D01*
G37*
G04 #@! TD.AperFunction*
G04 #@! TA.AperFunction,SMDPad,CuDef*
G36*
X131502691Y-68176053D02*
G01*
X131523926Y-68179203D01*
X131544750Y-68184419D01*
X131564962Y-68191651D01*
X131584368Y-68200830D01*
X131602781Y-68211866D01*
X131620024Y-68224654D01*
X131635930Y-68239070D01*
X131650346Y-68254976D01*
X131663134Y-68272219D01*
X131674170Y-68290632D01*
X131683349Y-68310038D01*
X131690581Y-68330250D01*
X131695797Y-68351074D01*
X131698947Y-68372309D01*
X131700000Y-68393750D01*
X131700000Y-68906250D01*
X131698947Y-68927691D01*
X131695797Y-68948926D01*
X131690581Y-68969750D01*
X131683349Y-68989962D01*
X131674170Y-69009368D01*
X131663134Y-69027781D01*
X131650346Y-69045024D01*
X131635930Y-69060930D01*
X131620024Y-69075346D01*
X131602781Y-69088134D01*
X131584368Y-69099170D01*
X131564962Y-69108349D01*
X131544750Y-69115581D01*
X131523926Y-69120797D01*
X131502691Y-69123947D01*
X131481250Y-69125000D01*
X131043750Y-69125000D01*
X131022309Y-69123947D01*
X131001074Y-69120797D01*
X130980250Y-69115581D01*
X130960038Y-69108349D01*
X130940632Y-69099170D01*
X130922219Y-69088134D01*
X130904976Y-69075346D01*
X130889070Y-69060930D01*
X130874654Y-69045024D01*
X130861866Y-69027781D01*
X130850830Y-69009368D01*
X130841651Y-68989962D01*
X130834419Y-68969750D01*
X130829203Y-68948926D01*
X130826053Y-68927691D01*
X130825000Y-68906250D01*
X130825000Y-68393750D01*
X130826053Y-68372309D01*
X130829203Y-68351074D01*
X130834419Y-68330250D01*
X130841651Y-68310038D01*
X130850830Y-68290632D01*
X130861866Y-68272219D01*
X130874654Y-68254976D01*
X130889070Y-68239070D01*
X130904976Y-68224654D01*
X130922219Y-68211866D01*
X130940632Y-68200830D01*
X130960038Y-68191651D01*
X130980250Y-68184419D01*
X131001074Y-68179203D01*
X131022309Y-68176053D01*
X131043750Y-68175000D01*
X131481250Y-68175000D01*
X131502691Y-68176053D01*
G37*
G04 #@! TD.AperFunction*
G04 #@! TA.AperFunction,SMDPad,CuDef*
G36*
X133077691Y-68176053D02*
G01*
X133098926Y-68179203D01*
X133119750Y-68184419D01*
X133139962Y-68191651D01*
X133159368Y-68200830D01*
X133177781Y-68211866D01*
X133195024Y-68224654D01*
X133210930Y-68239070D01*
X133225346Y-68254976D01*
X133238134Y-68272219D01*
X133249170Y-68290632D01*
X133258349Y-68310038D01*
X133265581Y-68330250D01*
X133270797Y-68351074D01*
X133273947Y-68372309D01*
X133275000Y-68393750D01*
X133275000Y-68906250D01*
X133273947Y-68927691D01*
X133270797Y-68948926D01*
X133265581Y-68969750D01*
X133258349Y-68989962D01*
X133249170Y-69009368D01*
X133238134Y-69027781D01*
X133225346Y-69045024D01*
X133210930Y-69060930D01*
X133195024Y-69075346D01*
X133177781Y-69088134D01*
X133159368Y-69099170D01*
X133139962Y-69108349D01*
X133119750Y-69115581D01*
X133098926Y-69120797D01*
X133077691Y-69123947D01*
X133056250Y-69125000D01*
X132618750Y-69125000D01*
X132597309Y-69123947D01*
X132576074Y-69120797D01*
X132555250Y-69115581D01*
X132535038Y-69108349D01*
X132515632Y-69099170D01*
X132497219Y-69088134D01*
X132479976Y-69075346D01*
X132464070Y-69060930D01*
X132449654Y-69045024D01*
X132436866Y-69027781D01*
X132425830Y-69009368D01*
X132416651Y-68989962D01*
X132409419Y-68969750D01*
X132404203Y-68948926D01*
X132401053Y-68927691D01*
X132400000Y-68906250D01*
X132400000Y-68393750D01*
X132401053Y-68372309D01*
X132404203Y-68351074D01*
X132409419Y-68330250D01*
X132416651Y-68310038D01*
X132425830Y-68290632D01*
X132436866Y-68272219D01*
X132449654Y-68254976D01*
X132464070Y-68239070D01*
X132479976Y-68224654D01*
X132497219Y-68211866D01*
X132515632Y-68200830D01*
X132535038Y-68191651D01*
X132555250Y-68184419D01*
X132576074Y-68179203D01*
X132597309Y-68176053D01*
X132618750Y-68175000D01*
X133056250Y-68175000D01*
X133077691Y-68176053D01*
G37*
G04 #@! TD.AperFunction*
G04 #@! TA.AperFunction,SMDPad,CuDef*
G36*
X125030142Y-63326174D02*
G01*
X125053803Y-63329684D01*
X125077007Y-63335496D01*
X125099529Y-63343554D01*
X125121153Y-63353782D01*
X125141670Y-63366079D01*
X125160883Y-63380329D01*
X125178607Y-63396393D01*
X125194671Y-63414117D01*
X125208921Y-63433330D01*
X125221218Y-63453847D01*
X125231446Y-63475471D01*
X125239504Y-63497993D01*
X125245316Y-63521197D01*
X125248826Y-63544858D01*
X125250000Y-63568750D01*
X125250000Y-64056250D01*
X125248826Y-64080142D01*
X125245316Y-64103803D01*
X125239504Y-64127007D01*
X125231446Y-64149529D01*
X125221218Y-64171153D01*
X125208921Y-64191670D01*
X125194671Y-64210883D01*
X125178607Y-64228607D01*
X125160883Y-64244671D01*
X125141670Y-64258921D01*
X125121153Y-64271218D01*
X125099529Y-64281446D01*
X125077007Y-64289504D01*
X125053803Y-64295316D01*
X125030142Y-64298826D01*
X125006250Y-64300000D01*
X124093750Y-64300000D01*
X124069858Y-64298826D01*
X124046197Y-64295316D01*
X124022993Y-64289504D01*
X124000471Y-64281446D01*
X123978847Y-64271218D01*
X123958330Y-64258921D01*
X123939117Y-64244671D01*
X123921393Y-64228607D01*
X123905329Y-64210883D01*
X123891079Y-64191670D01*
X123878782Y-64171153D01*
X123868554Y-64149529D01*
X123860496Y-64127007D01*
X123854684Y-64103803D01*
X123851174Y-64080142D01*
X123850000Y-64056250D01*
X123850000Y-63568750D01*
X123851174Y-63544858D01*
X123854684Y-63521197D01*
X123860496Y-63497993D01*
X123868554Y-63475471D01*
X123878782Y-63453847D01*
X123891079Y-63433330D01*
X123905329Y-63414117D01*
X123921393Y-63396393D01*
X123939117Y-63380329D01*
X123958330Y-63366079D01*
X123978847Y-63353782D01*
X124000471Y-63343554D01*
X124022993Y-63335496D01*
X124046197Y-63329684D01*
X124069858Y-63326174D01*
X124093750Y-63325000D01*
X125006250Y-63325000D01*
X125030142Y-63326174D01*
G37*
G04 #@! TD.AperFunction*
G04 #@! TA.AperFunction,SMDPad,CuDef*
G36*
X125030142Y-65201174D02*
G01*
X125053803Y-65204684D01*
X125077007Y-65210496D01*
X125099529Y-65218554D01*
X125121153Y-65228782D01*
X125141670Y-65241079D01*
X125160883Y-65255329D01*
X125178607Y-65271393D01*
X125194671Y-65289117D01*
X125208921Y-65308330D01*
X125221218Y-65328847D01*
X125231446Y-65350471D01*
X125239504Y-65372993D01*
X125245316Y-65396197D01*
X125248826Y-65419858D01*
X125250000Y-65443750D01*
X125250000Y-65931250D01*
X125248826Y-65955142D01*
X125245316Y-65978803D01*
X125239504Y-66002007D01*
X125231446Y-66024529D01*
X125221218Y-66046153D01*
X125208921Y-66066670D01*
X125194671Y-66085883D01*
X125178607Y-66103607D01*
X125160883Y-66119671D01*
X125141670Y-66133921D01*
X125121153Y-66146218D01*
X125099529Y-66156446D01*
X125077007Y-66164504D01*
X125053803Y-66170316D01*
X125030142Y-66173826D01*
X125006250Y-66175000D01*
X124093750Y-66175000D01*
X124069858Y-66173826D01*
X124046197Y-66170316D01*
X124022993Y-66164504D01*
X124000471Y-66156446D01*
X123978847Y-66146218D01*
X123958330Y-66133921D01*
X123939117Y-66119671D01*
X123921393Y-66103607D01*
X123905329Y-66085883D01*
X123891079Y-66066670D01*
X123878782Y-66046153D01*
X123868554Y-66024529D01*
X123860496Y-66002007D01*
X123854684Y-65978803D01*
X123851174Y-65955142D01*
X123850000Y-65931250D01*
X123850000Y-65443750D01*
X123851174Y-65419858D01*
X123854684Y-65396197D01*
X123860496Y-65372993D01*
X123868554Y-65350471D01*
X123878782Y-65328847D01*
X123891079Y-65308330D01*
X123905329Y-65289117D01*
X123921393Y-65271393D01*
X123939117Y-65255329D01*
X123958330Y-65241079D01*
X123978847Y-65228782D01*
X124000471Y-65218554D01*
X124022993Y-65210496D01*
X124046197Y-65204684D01*
X124069858Y-65201174D01*
X124093750Y-65200000D01*
X125006250Y-65200000D01*
X125030142Y-65201174D01*
G37*
G04 #@! TD.AperFunction*
D16*
X120050000Y-63750000D03*
X120050000Y-68750000D03*
G04 #@! TA.AperFunction,SMDPad,CuDef*
D12*
G36*
X122477691Y-74576053D02*
G01*
X122498926Y-74579203D01*
X122519750Y-74584419D01*
X122539962Y-74591651D01*
X122559368Y-74600830D01*
X122577781Y-74611866D01*
X122595024Y-74624654D01*
X122610930Y-74639070D01*
X122625346Y-74654976D01*
X122638134Y-74672219D01*
X122649170Y-74690632D01*
X122658349Y-74710038D01*
X122665581Y-74730250D01*
X122670797Y-74751074D01*
X122673947Y-74772309D01*
X122675000Y-74793750D01*
X122675000Y-75306250D01*
X122673947Y-75327691D01*
X122670797Y-75348926D01*
X122665581Y-75369750D01*
X122658349Y-75389962D01*
X122649170Y-75409368D01*
X122638134Y-75427781D01*
X122625346Y-75445024D01*
X122610930Y-75460930D01*
X122595024Y-75475346D01*
X122577781Y-75488134D01*
X122559368Y-75499170D01*
X122539962Y-75508349D01*
X122519750Y-75515581D01*
X122498926Y-75520797D01*
X122477691Y-75523947D01*
X122456250Y-75525000D01*
X122018750Y-75525000D01*
X121997309Y-75523947D01*
X121976074Y-75520797D01*
X121955250Y-75515581D01*
X121935038Y-75508349D01*
X121915632Y-75499170D01*
X121897219Y-75488134D01*
X121879976Y-75475346D01*
X121864070Y-75460930D01*
X121849654Y-75445024D01*
X121836866Y-75427781D01*
X121825830Y-75409368D01*
X121816651Y-75389962D01*
X121809419Y-75369750D01*
X121804203Y-75348926D01*
X121801053Y-75327691D01*
X121800000Y-75306250D01*
X121800000Y-74793750D01*
X121801053Y-74772309D01*
X121804203Y-74751074D01*
X121809419Y-74730250D01*
X121816651Y-74710038D01*
X121825830Y-74690632D01*
X121836866Y-74672219D01*
X121849654Y-74654976D01*
X121864070Y-74639070D01*
X121879976Y-74624654D01*
X121897219Y-74611866D01*
X121915632Y-74600830D01*
X121935038Y-74591651D01*
X121955250Y-74584419D01*
X121976074Y-74579203D01*
X121997309Y-74576053D01*
X122018750Y-74575000D01*
X122456250Y-74575000D01*
X122477691Y-74576053D01*
G37*
G04 #@! TD.AperFunction*
G04 #@! TA.AperFunction,SMDPad,CuDef*
G36*
X120902691Y-74576053D02*
G01*
X120923926Y-74579203D01*
X120944750Y-74584419D01*
X120964962Y-74591651D01*
X120984368Y-74600830D01*
X121002781Y-74611866D01*
X121020024Y-74624654D01*
X121035930Y-74639070D01*
X121050346Y-74654976D01*
X121063134Y-74672219D01*
X121074170Y-74690632D01*
X121083349Y-74710038D01*
X121090581Y-74730250D01*
X121095797Y-74751074D01*
X121098947Y-74772309D01*
X121100000Y-74793750D01*
X121100000Y-75306250D01*
X121098947Y-75327691D01*
X121095797Y-75348926D01*
X121090581Y-75369750D01*
X121083349Y-75389962D01*
X121074170Y-75409368D01*
X121063134Y-75427781D01*
X121050346Y-75445024D01*
X121035930Y-75460930D01*
X121020024Y-75475346D01*
X121002781Y-75488134D01*
X120984368Y-75499170D01*
X120964962Y-75508349D01*
X120944750Y-75515581D01*
X120923926Y-75520797D01*
X120902691Y-75523947D01*
X120881250Y-75525000D01*
X120443750Y-75525000D01*
X120422309Y-75523947D01*
X120401074Y-75520797D01*
X120380250Y-75515581D01*
X120360038Y-75508349D01*
X120340632Y-75499170D01*
X120322219Y-75488134D01*
X120304976Y-75475346D01*
X120289070Y-75460930D01*
X120274654Y-75445024D01*
X120261866Y-75427781D01*
X120250830Y-75409368D01*
X120241651Y-75389962D01*
X120234419Y-75369750D01*
X120229203Y-75348926D01*
X120226053Y-75327691D01*
X120225000Y-75306250D01*
X120225000Y-74793750D01*
X120226053Y-74772309D01*
X120229203Y-74751074D01*
X120234419Y-74730250D01*
X120241651Y-74710038D01*
X120250830Y-74690632D01*
X120261866Y-74672219D01*
X120274654Y-74654976D01*
X120289070Y-74639070D01*
X120304976Y-74624654D01*
X120322219Y-74611866D01*
X120340632Y-74600830D01*
X120360038Y-74591651D01*
X120380250Y-74584419D01*
X120401074Y-74579203D01*
X120422309Y-74576053D01*
X120443750Y-74575000D01*
X120881250Y-74575000D01*
X120902691Y-74576053D01*
G37*
G04 #@! TD.AperFunction*
D17*
X151250000Y-64210000D03*
D18*
X151250000Y-66750000D03*
X151250000Y-69290000D03*
D19*
X112250000Y-63750000D03*
D20*
X114790000Y-66290000D03*
X114790000Y-61210000D03*
X109710000Y-61210000D03*
X109710000Y-66290000D03*
G04 #@! TA.AperFunction,SMDPad,CuDef*
D12*
G36*
X127227691Y-78176053D02*
G01*
X127248926Y-78179203D01*
X127269750Y-78184419D01*
X127289962Y-78191651D01*
X127309368Y-78200830D01*
X127327781Y-78211866D01*
X127345024Y-78224654D01*
X127360930Y-78239070D01*
X127375346Y-78254976D01*
X127388134Y-78272219D01*
X127399170Y-78290632D01*
X127408349Y-78310038D01*
X127415581Y-78330250D01*
X127420797Y-78351074D01*
X127423947Y-78372309D01*
X127425000Y-78393750D01*
X127425000Y-78831250D01*
X127423947Y-78852691D01*
X127420797Y-78873926D01*
X127415581Y-78894750D01*
X127408349Y-78914962D01*
X127399170Y-78934368D01*
X127388134Y-78952781D01*
X127375346Y-78970024D01*
X127360930Y-78985930D01*
X127345024Y-79000346D01*
X127327781Y-79013134D01*
X127309368Y-79024170D01*
X127289962Y-79033349D01*
X127269750Y-79040581D01*
X127248926Y-79045797D01*
X127227691Y-79048947D01*
X127206250Y-79050000D01*
X126693750Y-79050000D01*
X126672309Y-79048947D01*
X126651074Y-79045797D01*
X126630250Y-79040581D01*
X126610038Y-79033349D01*
X126590632Y-79024170D01*
X126572219Y-79013134D01*
X126554976Y-79000346D01*
X126539070Y-78985930D01*
X126524654Y-78970024D01*
X126511866Y-78952781D01*
X126500830Y-78934368D01*
X126491651Y-78914962D01*
X126484419Y-78894750D01*
X126479203Y-78873926D01*
X126476053Y-78852691D01*
X126475000Y-78831250D01*
X126475000Y-78393750D01*
X126476053Y-78372309D01*
X126479203Y-78351074D01*
X126484419Y-78330250D01*
X126491651Y-78310038D01*
X126500830Y-78290632D01*
X126511866Y-78272219D01*
X126524654Y-78254976D01*
X126539070Y-78239070D01*
X126554976Y-78224654D01*
X126572219Y-78211866D01*
X126590632Y-78200830D01*
X126610038Y-78191651D01*
X126630250Y-78184419D01*
X126651074Y-78179203D01*
X126672309Y-78176053D01*
X126693750Y-78175000D01*
X127206250Y-78175000D01*
X127227691Y-78176053D01*
G37*
G04 #@! TD.AperFunction*
G04 #@! TA.AperFunction,SMDPad,CuDef*
G36*
X127227691Y-79751053D02*
G01*
X127248926Y-79754203D01*
X127269750Y-79759419D01*
X127289962Y-79766651D01*
X127309368Y-79775830D01*
X127327781Y-79786866D01*
X127345024Y-79799654D01*
X127360930Y-79814070D01*
X127375346Y-79829976D01*
X127388134Y-79847219D01*
X127399170Y-79865632D01*
X127408349Y-79885038D01*
X127415581Y-79905250D01*
X127420797Y-79926074D01*
X127423947Y-79947309D01*
X127425000Y-79968750D01*
X127425000Y-80406250D01*
X127423947Y-80427691D01*
X127420797Y-80448926D01*
X127415581Y-80469750D01*
X127408349Y-80489962D01*
X127399170Y-80509368D01*
X127388134Y-80527781D01*
X127375346Y-80545024D01*
X127360930Y-80560930D01*
X127345024Y-80575346D01*
X127327781Y-80588134D01*
X127309368Y-80599170D01*
X127289962Y-80608349D01*
X127269750Y-80615581D01*
X127248926Y-80620797D01*
X127227691Y-80623947D01*
X127206250Y-80625000D01*
X126693750Y-80625000D01*
X126672309Y-80623947D01*
X126651074Y-80620797D01*
X126630250Y-80615581D01*
X126610038Y-80608349D01*
X126590632Y-80599170D01*
X126572219Y-80588134D01*
X126554976Y-80575346D01*
X126539070Y-80560930D01*
X126524654Y-80545024D01*
X126511866Y-80527781D01*
X126500830Y-80509368D01*
X126491651Y-80489962D01*
X126484419Y-80469750D01*
X126479203Y-80448926D01*
X126476053Y-80427691D01*
X126475000Y-80406250D01*
X126475000Y-79968750D01*
X126476053Y-79947309D01*
X126479203Y-79926074D01*
X126484419Y-79905250D01*
X126491651Y-79885038D01*
X126500830Y-79865632D01*
X126511866Y-79847219D01*
X126524654Y-79829976D01*
X126539070Y-79814070D01*
X126554976Y-79799654D01*
X126572219Y-79786866D01*
X126590632Y-79775830D01*
X126610038Y-79766651D01*
X126630250Y-79759419D01*
X126651074Y-79754203D01*
X126672309Y-79751053D01*
X126693750Y-79750000D01*
X127206250Y-79750000D01*
X127227691Y-79751053D01*
G37*
G04 #@! TD.AperFunction*
G04 #@! TA.AperFunction,SMDPad,CuDef*
G36*
X127899504Y-63176204D02*
G01*
X127923773Y-63179804D01*
X127947571Y-63185765D01*
X127970671Y-63194030D01*
X127992849Y-63204520D01*
X128013893Y-63217133D01*
X128033598Y-63231747D01*
X128051777Y-63248223D01*
X128068253Y-63266402D01*
X128082867Y-63286107D01*
X128095480Y-63307151D01*
X128105970Y-63329329D01*
X128114235Y-63352429D01*
X128120196Y-63376227D01*
X128123796Y-63400496D01*
X128125000Y-63425000D01*
X128125000Y-64175000D01*
X128123796Y-64199504D01*
X128120196Y-64223773D01*
X128114235Y-64247571D01*
X128105970Y-64270671D01*
X128095480Y-64292849D01*
X128082867Y-64313893D01*
X128068253Y-64333598D01*
X128051777Y-64351777D01*
X128033598Y-64368253D01*
X128013893Y-64382867D01*
X127992849Y-64395480D01*
X127970671Y-64405970D01*
X127947571Y-64414235D01*
X127923773Y-64420196D01*
X127899504Y-64423796D01*
X127875000Y-64425000D01*
X126625000Y-64425000D01*
X126600496Y-64423796D01*
X126576227Y-64420196D01*
X126552429Y-64414235D01*
X126529329Y-64405970D01*
X126507151Y-64395480D01*
X126486107Y-64382867D01*
X126466402Y-64368253D01*
X126448223Y-64351777D01*
X126431747Y-64333598D01*
X126417133Y-64313893D01*
X126404520Y-64292849D01*
X126394030Y-64270671D01*
X126385765Y-64247571D01*
X126379804Y-64223773D01*
X126376204Y-64199504D01*
X126375000Y-64175000D01*
X126375000Y-63425000D01*
X126376204Y-63400496D01*
X126379804Y-63376227D01*
X126385765Y-63352429D01*
X126394030Y-63329329D01*
X126404520Y-63307151D01*
X126417133Y-63286107D01*
X126431747Y-63266402D01*
X126448223Y-63248223D01*
X126466402Y-63231747D01*
X126486107Y-63217133D01*
X126507151Y-63204520D01*
X126529329Y-63194030D01*
X126552429Y-63185765D01*
X126576227Y-63179804D01*
X126600496Y-63176204D01*
X126625000Y-63175000D01*
X127875000Y-63175000D01*
X127899504Y-63176204D01*
G37*
G04 #@! TD.AperFunction*
G04 #@! TA.AperFunction,SMDPad,CuDef*
G36*
X127899504Y-65976204D02*
G01*
X127923773Y-65979804D01*
X127947571Y-65985765D01*
X127970671Y-65994030D01*
X127992849Y-66004520D01*
X128013893Y-66017133D01*
X128033598Y-66031747D01*
X128051777Y-66048223D01*
X128068253Y-66066402D01*
X128082867Y-66086107D01*
X128095480Y-66107151D01*
X128105970Y-66129329D01*
X128114235Y-66152429D01*
X128120196Y-66176227D01*
X128123796Y-66200496D01*
X128125000Y-66225000D01*
X128125000Y-66975000D01*
X128123796Y-66999504D01*
X128120196Y-67023773D01*
X128114235Y-67047571D01*
X128105970Y-67070671D01*
X128095480Y-67092849D01*
X128082867Y-67113893D01*
X128068253Y-67133598D01*
X128051777Y-67151777D01*
X128033598Y-67168253D01*
X128013893Y-67182867D01*
X127992849Y-67195480D01*
X127970671Y-67205970D01*
X127947571Y-67214235D01*
X127923773Y-67220196D01*
X127899504Y-67223796D01*
X127875000Y-67225000D01*
X126625000Y-67225000D01*
X126600496Y-67223796D01*
X126576227Y-67220196D01*
X126552429Y-67214235D01*
X126529329Y-67205970D01*
X126507151Y-67195480D01*
X126486107Y-67182867D01*
X126466402Y-67168253D01*
X126448223Y-67151777D01*
X126431747Y-67133598D01*
X126417133Y-67113893D01*
X126404520Y-67092849D01*
X126394030Y-67070671D01*
X126385765Y-67047571D01*
X126379804Y-67023773D01*
X126376204Y-66999504D01*
X126375000Y-66975000D01*
X126375000Y-66225000D01*
X126376204Y-66200496D01*
X126379804Y-66176227D01*
X126385765Y-66152429D01*
X126394030Y-66129329D01*
X126404520Y-66107151D01*
X126417133Y-66086107D01*
X126431747Y-66066402D01*
X126448223Y-66048223D01*
X126466402Y-66031747D01*
X126486107Y-66017133D01*
X126507151Y-66004520D01*
X126529329Y-65994030D01*
X126552429Y-65985765D01*
X126576227Y-65979804D01*
X126600496Y-65976204D01*
X126625000Y-65975000D01*
X127875000Y-65975000D01*
X127899504Y-65976204D01*
G37*
G04 #@! TD.AperFunction*
D21*
X119450000Y-75050000D03*
X145050000Y-66350000D03*
X142050000Y-76050000D03*
X147450000Y-76050000D03*
X140850000Y-57450000D03*
X147250000Y-57450000D03*
X124550000Y-67050000D03*
X129850000Y-68650000D03*
X134950000Y-72550000D03*
X139950000Y-65550000D03*
X126250000Y-75050000D03*
X123450000Y-75050000D03*
X148250000Y-69750000D03*
X142050000Y-69349982D03*
D22*
X147000000Y-66650000D02*
X147350000Y-66300000D01*
X146450000Y-66650000D02*
X147000000Y-66650000D01*
X147000000Y-65650000D02*
X146450000Y-65650000D01*
X147350000Y-66000000D02*
X147000000Y-65650000D01*
X147350000Y-66300000D02*
X147350000Y-66000000D01*
X145050000Y-66360000D02*
X145050000Y-66350000D01*
X143122494Y-67122494D02*
X144287506Y-67122494D01*
X142850000Y-67394988D02*
X143122494Y-67122494D01*
X144287506Y-67122494D02*
X145050000Y-66360000D01*
X143650000Y-67650000D02*
X142850000Y-67650000D01*
X142850000Y-67650000D02*
X142850000Y-67394988D01*
D23*
X142050000Y-74450000D02*
X142050000Y-76050000D01*
X147450000Y-74550000D02*
X147450000Y-76050000D01*
X140850000Y-59150000D02*
X140850000Y-57450000D01*
X147250000Y-59150000D02*
X147250000Y-57450000D01*
X120662500Y-75050000D02*
X119450000Y-75050000D01*
X124550000Y-65687500D02*
X124550000Y-67050000D01*
X131262500Y-68650000D02*
X129850000Y-68650000D01*
X133350000Y-72515000D02*
X134915000Y-72515000D01*
X134915000Y-72515000D02*
X134950000Y-72550000D01*
D22*
X142612500Y-67137500D02*
X141950000Y-67137500D01*
X143650000Y-66650000D02*
X143100000Y-66650000D01*
X143100000Y-66650000D02*
X142612500Y-67137500D01*
X142037500Y-65650000D02*
X141950000Y-65562500D01*
X143650000Y-65650000D02*
X142037500Y-65650000D01*
D23*
X141950000Y-63050000D02*
X140850000Y-61950000D01*
X141950000Y-65562500D02*
X141950000Y-63050000D01*
X141950000Y-65562500D02*
X139962500Y-65562500D01*
X139962500Y-65562500D02*
X139950000Y-65550000D01*
D24*
X126250000Y-74625736D02*
X126250000Y-75050000D01*
X126250000Y-74460000D02*
X126250000Y-74625736D01*
X126925000Y-73785000D02*
X126250000Y-74460000D01*
X127950000Y-73785000D02*
X126925000Y-73785000D01*
D23*
X122237500Y-75050000D02*
X123450000Y-75050000D01*
X133550000Y-68650000D02*
X134550000Y-68650000D01*
X134550000Y-68650000D02*
X136250000Y-70350000D01*
X133550000Y-68650000D02*
X133550000Y-71045000D01*
X133550000Y-71045000D02*
X133350000Y-71245000D01*
X132175000Y-79075000D02*
X132350000Y-79250000D01*
D22*
X148250000Y-68737500D02*
X148250000Y-69750000D01*
D23*
X142050000Y-71650000D02*
X142050000Y-71025000D01*
X142050000Y-71025000D02*
X142050000Y-69350000D01*
X142050000Y-69350000D02*
X142650000Y-68750000D01*
D22*
X142749982Y-68650000D02*
X142349999Y-69049983D01*
X142349999Y-69049983D02*
X142050000Y-69349982D01*
X143650000Y-68650000D02*
X142749982Y-68650000D01*
D23*
X137550000Y-71650000D02*
X136250000Y-70350000D01*
X142050000Y-71650000D02*
X137550000Y-71650000D01*
D22*
X133552081Y-79250000D02*
X137550000Y-75252081D01*
X137550000Y-75252081D02*
X137550000Y-71650000D01*
X132350000Y-79250000D02*
X133552081Y-79250000D01*
D23*
X133550000Y-68650000D02*
X132837500Y-68650000D01*
D22*
X148237500Y-67150000D02*
X148250000Y-67162500D01*
X146450000Y-67150000D02*
X148237500Y-67150000D01*
D23*
X129790000Y-79250000D02*
X129790000Y-79790000D01*
D22*
X134325000Y-73785000D02*
X134750000Y-74210000D01*
X133350000Y-73785000D02*
X134325000Y-73785000D01*
X134750000Y-75180002D02*
X133080002Y-76850000D01*
X134750000Y-74210000D02*
X134750000Y-75180002D01*
X129790000Y-78200000D02*
X129790000Y-79250000D01*
X131140000Y-76850000D02*
X129790000Y-78200000D01*
X133080002Y-76850000D02*
X131140000Y-76850000D01*
D24*
X128890000Y-80150000D02*
X129790000Y-79250000D01*
X126950000Y-80150000D02*
X128890000Y-80150000D01*
X124650000Y-80250000D02*
X126850000Y-80250000D01*
X126850000Y-80250000D02*
X126950000Y-80150000D01*
D23*
X125950000Y-71790000D02*
X125950000Y-68900000D01*
X125950000Y-68900000D02*
X127250000Y-67600000D01*
X127250000Y-67600000D02*
X127250000Y-66650000D01*
X127950000Y-72515000D02*
X126675000Y-72515000D01*
D24*
X126950000Y-78650000D02*
X124750000Y-78650000D01*
X124750000Y-78650000D02*
X124650000Y-78750000D01*
D22*
X124650000Y-74550000D02*
X126650000Y-72550000D01*
X124650000Y-78712500D02*
X124650000Y-74550000D01*
D23*
X126675000Y-72515000D02*
X126650000Y-72550000D01*
X126650000Y-72550000D02*
X125950000Y-71790000D01*
X124550000Y-63750000D02*
X127250000Y-63750000D01*
X112250000Y-63750000D02*
X119850000Y-63750000D01*
X119850000Y-63750000D02*
X124550000Y-63750000D01*
D22*
X144905000Y-68150000D02*
X145050000Y-68295000D01*
X143650000Y-68150000D02*
X144905000Y-68150000D01*
X146450000Y-67650000D02*
X147150000Y-67650000D01*
X147250000Y-67750000D02*
X147250000Y-67850000D01*
X147150000Y-67650000D02*
X147250000Y-67750000D01*
X147250000Y-67850000D02*
X147250000Y-68050000D01*
X147250000Y-68050000D02*
X147150000Y-68150000D01*
X147150000Y-68150000D02*
X147050000Y-68150000D01*
X145050000Y-68295000D02*
X145705000Y-68295000D01*
X145850000Y-68150000D02*
X147150000Y-68150000D01*
X145705000Y-68295000D02*
X145850000Y-68150000D01*
X131237500Y-72562500D02*
X130062500Y-72562500D01*
X130062500Y-72562500D02*
X130062500Y-73737500D01*
X130062500Y-73737500D02*
X131237500Y-73737500D01*
D25*
G36*
X145244492Y-38752654D02*
G01*
X145720137Y-38896259D01*
X146158843Y-39129522D01*
X146543880Y-39443551D01*
X146860592Y-39826390D01*
X147096907Y-40263447D01*
X147243835Y-40738091D01*
X147298000Y-41253439D01*
X147298001Y-49722205D01*
X147299623Y-49738676D01*
X147352852Y-50463519D01*
X147354577Y-50474052D01*
X147354912Y-50484716D01*
X147364127Y-50535932D01*
X147571647Y-51400315D01*
X147576184Y-51413796D01*
X147579140Y-51427703D01*
X147597279Y-51476478D01*
X147954587Y-52290448D01*
X147961440Y-52302913D01*
X147966812Y-52316077D01*
X147993301Y-52360868D01*
X148489104Y-53098702D01*
X148498053Y-53109753D01*
X148505674Y-53121762D01*
X148539677Y-53161155D01*
X149158304Y-53799528D01*
X149169070Y-53808821D01*
X149178695Y-53819288D01*
X149219136Y-53852037D01*
X149941032Y-54370772D01*
X149953282Y-54378016D01*
X149964601Y-54386608D01*
X150010202Y-54411679D01*
X150812549Y-54794378D01*
X150825878Y-54799335D01*
X150838549Y-54805791D01*
X150887869Y-54822390D01*
X151745305Y-55056958D01*
X151759307Y-55059477D01*
X151772916Y-55063586D01*
X151824396Y-55071189D01*
X152709820Y-55150211D01*
X152735120Y-55150211D01*
X153050743Y-55181158D01*
X153340020Y-55268495D01*
X153606833Y-55410363D01*
X153841009Y-55601351D01*
X154033625Y-55834186D01*
X154177348Y-56099996D01*
X154266706Y-56388665D01*
X154299940Y-56704862D01*
X154298485Y-56772540D01*
X154298042Y-56776957D01*
X154279775Y-66623000D01*
X152475776Y-66623000D01*
X152429847Y-66392097D01*
X152337353Y-66168798D01*
X152203073Y-65967833D01*
X152032167Y-65796927D01*
X151882447Y-65696888D01*
X152100000Y-65698072D01*
X152224482Y-65685812D01*
X152344180Y-65649502D01*
X152454494Y-65590537D01*
X152551185Y-65511185D01*
X152630537Y-65414494D01*
X152689502Y-65304180D01*
X152725812Y-65184482D01*
X152738072Y-65060000D01*
X152735000Y-64495750D01*
X152576250Y-64337000D01*
X151377000Y-64337000D01*
X151377000Y-64357000D01*
X151123000Y-64357000D01*
X151123000Y-64337000D01*
X149923750Y-64337000D01*
X149765000Y-64495750D01*
X149761928Y-65060000D01*
X149774188Y-65184482D01*
X149810498Y-65304180D01*
X149869463Y-65414494D01*
X149948815Y-65511185D01*
X150045506Y-65590537D01*
X150155820Y-65649502D01*
X150275518Y-65685812D01*
X150400000Y-65698072D01*
X150617553Y-65696888D01*
X150467833Y-65796927D01*
X150296927Y-65967833D01*
X150162647Y-66168798D01*
X150070153Y-66392097D01*
X150024224Y-66623000D01*
X149009125Y-66623000D01*
X149003115Y-66611756D01*
X148928799Y-66521201D01*
X148838244Y-66446885D01*
X148734932Y-66391664D01*
X148622831Y-66357658D01*
X148506250Y-66346176D01*
X147993750Y-66346176D01*
X147877169Y-66357658D01*
X147765068Y-66391664D01*
X147661756Y-66446885D01*
X147571201Y-66521201D01*
X147496885Y-66611756D01*
X147490875Y-66623000D01*
X147435000Y-66623000D01*
X147435000Y-66522998D01*
X147403252Y-66522998D01*
X147435000Y-66491250D01*
X147422466Y-66384742D01*
X147383142Y-66266000D01*
X147321409Y-66157211D01*
X147315180Y-66150000D01*
X147321409Y-66142789D01*
X147383142Y-66034000D01*
X147422466Y-65915258D01*
X147435000Y-65808750D01*
X147276250Y-65650000D01*
X147435000Y-65491250D01*
X147422466Y-65384742D01*
X147383142Y-65266000D01*
X147321409Y-65157211D01*
X147239638Y-65062556D01*
X147140972Y-64985673D01*
X147029203Y-64929516D01*
X146908626Y-64896242D01*
X146783874Y-64887132D01*
X146735750Y-64890000D01*
X146577000Y-65048750D01*
X146577000Y-65646176D01*
X146323000Y-65646176D01*
X146323000Y-65048750D01*
X146164250Y-64890000D01*
X146116126Y-64887132D01*
X145991374Y-64896242D01*
X145870797Y-64929516D01*
X145759028Y-64985673D01*
X145660362Y-65062556D01*
X145634803Y-65092142D01*
X145625000Y-65091176D01*
X144475000Y-65091176D01*
X144401095Y-65098455D01*
X144330030Y-65120012D01*
X144264537Y-65155019D01*
X144207131Y-65202131D01*
X144203151Y-65206111D01*
X144144970Y-65175012D01*
X144073905Y-65153455D01*
X144000000Y-65146176D01*
X143377000Y-65146176D01*
X143377000Y-63360000D01*
X149761928Y-63360000D01*
X149765000Y-63924250D01*
X149923750Y-64083000D01*
X151123000Y-64083000D01*
X151123000Y-62883750D01*
X151377000Y-62883750D01*
X151377000Y-64083000D01*
X152576250Y-64083000D01*
X152735000Y-63924250D01*
X152738072Y-63360000D01*
X152725812Y-63235518D01*
X152689502Y-63115820D01*
X152630537Y-63005506D01*
X152551185Y-62908815D01*
X152454494Y-62829463D01*
X152344180Y-62770498D01*
X152224482Y-62734188D01*
X152100000Y-62721928D01*
X151535750Y-62725000D01*
X151377000Y-62883750D01*
X151123000Y-62883750D01*
X150964250Y-62725000D01*
X150400000Y-62721928D01*
X150275518Y-62734188D01*
X150155820Y-62770498D01*
X150045506Y-62829463D01*
X149948815Y-62908815D01*
X149869463Y-63005506D01*
X149810498Y-63115820D01*
X149774188Y-63235518D01*
X149761928Y-63360000D01*
X143377000Y-63360000D01*
X143377000Y-62575000D01*
X145286928Y-62575000D01*
X145299188Y-62699482D01*
X145335498Y-62819180D01*
X145394463Y-62929494D01*
X145473815Y-63026185D01*
X145570506Y-63105537D01*
X145680820Y-63164502D01*
X145800518Y-63200812D01*
X145925000Y-63213072D01*
X146964250Y-63210000D01*
X147123000Y-63051250D01*
X147123000Y-62077000D01*
X147377000Y-62077000D01*
X147377000Y-63051250D01*
X147535750Y-63210000D01*
X148575000Y-63213072D01*
X148699482Y-63200812D01*
X148819180Y-63164502D01*
X148929494Y-63105537D01*
X149026185Y-63026185D01*
X149105537Y-62929494D01*
X149164502Y-62819180D01*
X149200812Y-62699482D01*
X149213072Y-62575000D01*
X149210000Y-62235750D01*
X149051250Y-62077000D01*
X147377000Y-62077000D01*
X147123000Y-62077000D01*
X145448750Y-62077000D01*
X145290000Y-62235750D01*
X145286928Y-62575000D01*
X143377000Y-62575000D01*
X143377000Y-61325000D01*
X145286928Y-61325000D01*
X145290000Y-61664250D01*
X145448750Y-61823000D01*
X147123000Y-61823000D01*
X147123000Y-60848750D01*
X147377000Y-60848750D01*
X147377000Y-61823000D01*
X149051250Y-61823000D01*
X149210000Y-61664250D01*
X149213072Y-61325000D01*
X149200812Y-61200518D01*
X149164502Y-61080820D01*
X149105537Y-60970506D01*
X149026185Y-60873815D01*
X148929494Y-60794463D01*
X148819180Y-60735498D01*
X148699482Y-60699188D01*
X148575000Y-60686928D01*
X147535750Y-60690000D01*
X147377000Y-60848750D01*
X147123000Y-60848750D01*
X146964250Y-60690000D01*
X145925000Y-60686928D01*
X145800518Y-60699188D01*
X145680820Y-60735498D01*
X145570506Y-60794463D01*
X145473815Y-60873815D01*
X145394463Y-60970506D01*
X145335498Y-61080820D01*
X145299188Y-61200518D01*
X145286928Y-61325000D01*
X143377000Y-61325000D01*
X143377000Y-58775000D01*
X145546176Y-58775000D01*
X145546176Y-59525000D01*
X145558259Y-59647677D01*
X145594042Y-59765641D01*
X145652152Y-59874356D01*
X145730354Y-59969646D01*
X145825644Y-60047848D01*
X145934359Y-60105958D01*
X146052323Y-60141741D01*
X146175000Y-60153824D01*
X148325000Y-60153824D01*
X148447677Y-60141741D01*
X148565641Y-60105958D01*
X148674356Y-60047848D01*
X148769646Y-59969646D01*
X148847848Y-59874356D01*
X148905958Y-59765641D01*
X148941741Y-59647677D01*
X148953824Y-59525000D01*
X148953824Y-58775000D01*
X148941741Y-58652323D01*
X148905958Y-58534359D01*
X148847848Y-58425644D01*
X148769646Y-58330354D01*
X148674356Y-58252152D01*
X148565641Y-58194042D01*
X148447677Y-58158259D01*
X148325000Y-58146176D01*
X147877000Y-58146176D01*
X147877000Y-57705376D01*
X147900984Y-57647474D01*
X147927000Y-57516679D01*
X147927000Y-57383321D01*
X147900984Y-57252526D01*
X147849950Y-57129320D01*
X147775860Y-57018437D01*
X147681563Y-56924140D01*
X147570680Y-56850050D01*
X147447474Y-56799016D01*
X147316679Y-56773000D01*
X147183321Y-56773000D01*
X147052526Y-56799016D01*
X146929320Y-56850050D01*
X146818437Y-56924140D01*
X146724140Y-57018437D01*
X146650050Y-57129320D01*
X146599016Y-57252526D01*
X146573000Y-57383321D01*
X146573000Y-57516679D01*
X146599016Y-57647474D01*
X146623001Y-57705378D01*
X146623001Y-58146176D01*
X146175000Y-58146176D01*
X146052323Y-58158259D01*
X145934359Y-58194042D01*
X145825644Y-58252152D01*
X145730354Y-58330354D01*
X145652152Y-58425644D01*
X145594042Y-58534359D01*
X145558259Y-58652323D01*
X145546176Y-58775000D01*
X143377000Y-58775000D01*
X143377000Y-38702000D01*
X144727891Y-38702000D01*
X145244492Y-38752654D01*
G37*
X145244492Y-38752654D02*
X145720137Y-38896259D01*
X146158843Y-39129522D01*
X146543880Y-39443551D01*
X146860592Y-39826390D01*
X147096907Y-40263447D01*
X147243835Y-40738091D01*
X147298000Y-41253439D01*
X147298001Y-49722205D01*
X147299623Y-49738676D01*
X147352852Y-50463519D01*
X147354577Y-50474052D01*
X147354912Y-50484716D01*
X147364127Y-50535932D01*
X147571647Y-51400315D01*
X147576184Y-51413796D01*
X147579140Y-51427703D01*
X147597279Y-51476478D01*
X147954587Y-52290448D01*
X147961440Y-52302913D01*
X147966812Y-52316077D01*
X147993301Y-52360868D01*
X148489104Y-53098702D01*
X148498053Y-53109753D01*
X148505674Y-53121762D01*
X148539677Y-53161155D01*
X149158304Y-53799528D01*
X149169070Y-53808821D01*
X149178695Y-53819288D01*
X149219136Y-53852037D01*
X149941032Y-54370772D01*
X149953282Y-54378016D01*
X149964601Y-54386608D01*
X150010202Y-54411679D01*
X150812549Y-54794378D01*
X150825878Y-54799335D01*
X150838549Y-54805791D01*
X150887869Y-54822390D01*
X151745305Y-55056958D01*
X151759307Y-55059477D01*
X151772916Y-55063586D01*
X151824396Y-55071189D01*
X152709820Y-55150211D01*
X152735120Y-55150211D01*
X153050743Y-55181158D01*
X153340020Y-55268495D01*
X153606833Y-55410363D01*
X153841009Y-55601351D01*
X154033625Y-55834186D01*
X154177348Y-56099996D01*
X154266706Y-56388665D01*
X154299940Y-56704862D01*
X154298485Y-56772540D01*
X154298042Y-56776957D01*
X154279775Y-66623000D01*
X152475776Y-66623000D01*
X152429847Y-66392097D01*
X152337353Y-66168798D01*
X152203073Y-65967833D01*
X152032167Y-65796927D01*
X151882447Y-65696888D01*
X152100000Y-65698072D01*
X152224482Y-65685812D01*
X152344180Y-65649502D01*
X152454494Y-65590537D01*
X152551185Y-65511185D01*
X152630537Y-65414494D01*
X152689502Y-65304180D01*
X152725812Y-65184482D01*
X152738072Y-65060000D01*
X152735000Y-64495750D01*
X152576250Y-64337000D01*
X151377000Y-64337000D01*
X151377000Y-64357000D01*
X151123000Y-64357000D01*
X151123000Y-64337000D01*
X149923750Y-64337000D01*
X149765000Y-64495750D01*
X149761928Y-65060000D01*
X149774188Y-65184482D01*
X149810498Y-65304180D01*
X149869463Y-65414494D01*
X149948815Y-65511185D01*
X150045506Y-65590537D01*
X150155820Y-65649502D01*
X150275518Y-65685812D01*
X150400000Y-65698072D01*
X150617553Y-65696888D01*
X150467833Y-65796927D01*
X150296927Y-65967833D01*
X150162647Y-66168798D01*
X150070153Y-66392097D01*
X150024224Y-66623000D01*
X149009125Y-66623000D01*
X149003115Y-66611756D01*
X148928799Y-66521201D01*
X148838244Y-66446885D01*
X148734932Y-66391664D01*
X148622831Y-66357658D01*
X148506250Y-66346176D01*
X147993750Y-66346176D01*
X147877169Y-66357658D01*
X147765068Y-66391664D01*
X147661756Y-66446885D01*
X147571201Y-66521201D01*
X147496885Y-66611756D01*
X147490875Y-66623000D01*
X147435000Y-66623000D01*
X147435000Y-66522998D01*
X147403252Y-66522998D01*
X147435000Y-66491250D01*
X147422466Y-66384742D01*
X147383142Y-66266000D01*
X147321409Y-66157211D01*
X147315180Y-66150000D01*
X147321409Y-66142789D01*
X147383142Y-66034000D01*
X147422466Y-65915258D01*
X147435000Y-65808750D01*
X147276250Y-65650000D01*
X147435000Y-65491250D01*
X147422466Y-65384742D01*
X147383142Y-65266000D01*
X147321409Y-65157211D01*
X147239638Y-65062556D01*
X147140972Y-64985673D01*
X147029203Y-64929516D01*
X146908626Y-64896242D01*
X146783874Y-64887132D01*
X146735750Y-64890000D01*
X146577000Y-65048750D01*
X146577000Y-65646176D01*
X146323000Y-65646176D01*
X146323000Y-65048750D01*
X146164250Y-64890000D01*
X146116126Y-64887132D01*
X145991374Y-64896242D01*
X145870797Y-64929516D01*
X145759028Y-64985673D01*
X145660362Y-65062556D01*
X145634803Y-65092142D01*
X145625000Y-65091176D01*
X144475000Y-65091176D01*
X144401095Y-65098455D01*
X144330030Y-65120012D01*
X144264537Y-65155019D01*
X144207131Y-65202131D01*
X144203151Y-65206111D01*
X144144970Y-65175012D01*
X144073905Y-65153455D01*
X144000000Y-65146176D01*
X143377000Y-65146176D01*
X143377000Y-63360000D01*
X149761928Y-63360000D01*
X149765000Y-63924250D01*
X149923750Y-64083000D01*
X151123000Y-64083000D01*
X151123000Y-62883750D01*
X151377000Y-62883750D01*
X151377000Y-64083000D01*
X152576250Y-64083000D01*
X152735000Y-63924250D01*
X152738072Y-63360000D01*
X152725812Y-63235518D01*
X152689502Y-63115820D01*
X152630537Y-63005506D01*
X152551185Y-62908815D01*
X152454494Y-62829463D01*
X152344180Y-62770498D01*
X152224482Y-62734188D01*
X152100000Y-62721928D01*
X151535750Y-62725000D01*
X151377000Y-62883750D01*
X151123000Y-62883750D01*
X150964250Y-62725000D01*
X150400000Y-62721928D01*
X150275518Y-62734188D01*
X150155820Y-62770498D01*
X150045506Y-62829463D01*
X149948815Y-62908815D01*
X149869463Y-63005506D01*
X149810498Y-63115820D01*
X149774188Y-63235518D01*
X149761928Y-63360000D01*
X143377000Y-63360000D01*
X143377000Y-62575000D01*
X145286928Y-62575000D01*
X145299188Y-62699482D01*
X145335498Y-62819180D01*
X145394463Y-62929494D01*
X145473815Y-63026185D01*
X145570506Y-63105537D01*
X145680820Y-63164502D01*
X145800518Y-63200812D01*
X145925000Y-63213072D01*
X146964250Y-63210000D01*
X147123000Y-63051250D01*
X147123000Y-62077000D01*
X147377000Y-62077000D01*
X147377000Y-63051250D01*
X147535750Y-63210000D01*
X148575000Y-63213072D01*
X148699482Y-63200812D01*
X148819180Y-63164502D01*
X148929494Y-63105537D01*
X149026185Y-63026185D01*
X149105537Y-62929494D01*
X149164502Y-62819180D01*
X149200812Y-62699482D01*
X149213072Y-62575000D01*
X149210000Y-62235750D01*
X149051250Y-62077000D01*
X147377000Y-62077000D01*
X147123000Y-62077000D01*
X145448750Y-62077000D01*
X145290000Y-62235750D01*
X145286928Y-62575000D01*
X143377000Y-62575000D01*
X143377000Y-61325000D01*
X145286928Y-61325000D01*
X145290000Y-61664250D01*
X145448750Y-61823000D01*
X147123000Y-61823000D01*
X147123000Y-60848750D01*
X147377000Y-60848750D01*
X147377000Y-61823000D01*
X149051250Y-61823000D01*
X149210000Y-61664250D01*
X149213072Y-61325000D01*
X149200812Y-61200518D01*
X149164502Y-61080820D01*
X149105537Y-60970506D01*
X149026185Y-60873815D01*
X148929494Y-60794463D01*
X148819180Y-60735498D01*
X148699482Y-60699188D01*
X148575000Y-60686928D01*
X147535750Y-60690000D01*
X147377000Y-60848750D01*
X147123000Y-60848750D01*
X146964250Y-60690000D01*
X145925000Y-60686928D01*
X145800518Y-60699188D01*
X145680820Y-60735498D01*
X145570506Y-60794463D01*
X145473815Y-60873815D01*
X145394463Y-60970506D01*
X145335498Y-61080820D01*
X145299188Y-61200518D01*
X145286928Y-61325000D01*
X143377000Y-61325000D01*
X143377000Y-58775000D01*
X145546176Y-58775000D01*
X145546176Y-59525000D01*
X145558259Y-59647677D01*
X145594042Y-59765641D01*
X145652152Y-59874356D01*
X145730354Y-59969646D01*
X145825644Y-60047848D01*
X145934359Y-60105958D01*
X146052323Y-60141741D01*
X146175000Y-60153824D01*
X148325000Y-60153824D01*
X148447677Y-60141741D01*
X148565641Y-60105958D01*
X148674356Y-60047848D01*
X148769646Y-59969646D01*
X148847848Y-59874356D01*
X148905958Y-59765641D01*
X148941741Y-59647677D01*
X148953824Y-59525000D01*
X148953824Y-58775000D01*
X148941741Y-58652323D01*
X148905958Y-58534359D01*
X148847848Y-58425644D01*
X148769646Y-58330354D01*
X148674356Y-58252152D01*
X148565641Y-58194042D01*
X148447677Y-58158259D01*
X148325000Y-58146176D01*
X147877000Y-58146176D01*
X147877000Y-57705376D01*
X147900984Y-57647474D01*
X147927000Y-57516679D01*
X147927000Y-57383321D01*
X147900984Y-57252526D01*
X147849950Y-57129320D01*
X147775860Y-57018437D01*
X147681563Y-56924140D01*
X147570680Y-56850050D01*
X147447474Y-56799016D01*
X147316679Y-56773000D01*
X147183321Y-56773000D01*
X147052526Y-56799016D01*
X146929320Y-56850050D01*
X146818437Y-56924140D01*
X146724140Y-57018437D01*
X146650050Y-57129320D01*
X146599016Y-57252526D01*
X146573000Y-57383321D01*
X146573000Y-57516679D01*
X146599016Y-57647474D01*
X146623001Y-57705378D01*
X146623001Y-58146176D01*
X146175000Y-58146176D01*
X146052323Y-58158259D01*
X145934359Y-58194042D01*
X145825644Y-58252152D01*
X145730354Y-58330354D01*
X145652152Y-58425644D01*
X145594042Y-58534359D01*
X145558259Y-58652323D01*
X145546176Y-58775000D01*
X143377000Y-58775000D01*
X143377000Y-38702000D01*
X144727891Y-38702000D01*
X145244492Y-38752654D01*
G36*
X150296927Y-67532167D02*
G01*
X150467833Y-67703073D01*
X150668798Y-67837353D01*
X150786798Y-67886231D01*
X150618748Y-67945843D01*
X150368645Y-68094822D01*
X150152412Y-68289731D01*
X149978359Y-68523080D01*
X149853175Y-68785901D01*
X149808524Y-68933110D01*
X149929845Y-69163000D01*
X151123000Y-69163000D01*
X151123000Y-69143000D01*
X151377000Y-69143000D01*
X151377000Y-69163000D01*
X152570155Y-69163000D01*
X152691476Y-68933110D01*
X152646825Y-68785901D01*
X152521641Y-68523080D01*
X152347588Y-68289731D01*
X152131355Y-68094822D01*
X151881252Y-67945843D01*
X151713202Y-67886231D01*
X151831202Y-67837353D01*
X152032167Y-67703073D01*
X152203073Y-67532167D01*
X152306752Y-67377000D01*
X154278376Y-67377000D01*
X154261222Y-76623000D01*
X147811013Y-76623000D01*
X147881563Y-76575860D01*
X147975860Y-76481563D01*
X148049950Y-76370680D01*
X148100984Y-76247474D01*
X148127000Y-76116679D01*
X148127000Y-75983321D01*
X148100984Y-75852526D01*
X148077000Y-75794624D01*
X148077000Y-75553824D01*
X148525000Y-75553824D01*
X148647677Y-75541741D01*
X148765641Y-75505958D01*
X148874356Y-75447848D01*
X148969646Y-75369646D01*
X149047848Y-75274356D01*
X149105958Y-75165641D01*
X149141741Y-75047677D01*
X149153824Y-74925000D01*
X149153824Y-74175000D01*
X149141741Y-74052323D01*
X149105958Y-73934359D01*
X149047848Y-73825644D01*
X148969646Y-73730354D01*
X148874356Y-73652152D01*
X148765641Y-73594042D01*
X148647677Y-73558259D01*
X148525000Y-73546176D01*
X146375000Y-73546176D01*
X146252323Y-73558259D01*
X146134359Y-73594042D01*
X146025644Y-73652152D01*
X145930354Y-73730354D01*
X145852152Y-73825644D01*
X145794042Y-73934359D01*
X145758259Y-74052323D01*
X145746176Y-74175000D01*
X145746176Y-74925000D01*
X145758259Y-75047677D01*
X145794042Y-75165641D01*
X145852152Y-75274356D01*
X145930354Y-75369646D01*
X146025644Y-75447848D01*
X146134359Y-75505958D01*
X146252323Y-75541741D01*
X146375000Y-75553824D01*
X146823001Y-75553824D01*
X146823001Y-75794622D01*
X146799016Y-75852526D01*
X146773000Y-75983321D01*
X146773000Y-76116679D01*
X146799016Y-76247474D01*
X146850050Y-76370680D01*
X146924140Y-76481563D01*
X147018437Y-76575860D01*
X147088987Y-76623000D01*
X143377000Y-76623000D01*
X143377000Y-75399886D01*
X143474356Y-75347848D01*
X143569646Y-75269646D01*
X143647848Y-75174356D01*
X143705958Y-75065641D01*
X143741741Y-74947677D01*
X143753824Y-74825000D01*
X143753824Y-74075000D01*
X143741741Y-73952323D01*
X143705958Y-73834359D01*
X143647848Y-73725644D01*
X143569646Y-73630354D01*
X143474356Y-73552152D01*
X143377000Y-73500114D01*
X143377000Y-72599886D01*
X143474356Y-72547848D01*
X143569646Y-72469646D01*
X143647319Y-72375000D01*
X145486928Y-72375000D01*
X145499188Y-72499482D01*
X145535498Y-72619180D01*
X145594463Y-72729494D01*
X145673815Y-72826185D01*
X145770506Y-72905537D01*
X145880820Y-72964502D01*
X146000518Y-73000812D01*
X146125000Y-73013072D01*
X147164250Y-73010000D01*
X147323000Y-72851250D01*
X147323000Y-71877000D01*
X147577000Y-71877000D01*
X147577000Y-72851250D01*
X147735750Y-73010000D01*
X148775000Y-73013072D01*
X148899482Y-73000812D01*
X149019180Y-72964502D01*
X149129494Y-72905537D01*
X149226185Y-72826185D01*
X149305537Y-72729494D01*
X149364502Y-72619180D01*
X149400812Y-72499482D01*
X149413072Y-72375000D01*
X149410000Y-72035750D01*
X149251250Y-71877000D01*
X147577000Y-71877000D01*
X147323000Y-71877000D01*
X145648750Y-71877000D01*
X145490000Y-72035750D01*
X145486928Y-72375000D01*
X143647319Y-72375000D01*
X143647848Y-72374356D01*
X143705958Y-72265641D01*
X143741741Y-72147677D01*
X143753824Y-72025000D01*
X143753824Y-71275000D01*
X143741741Y-71152323D01*
X143733453Y-71125000D01*
X145486928Y-71125000D01*
X145490000Y-71464250D01*
X145648750Y-71623000D01*
X147323000Y-71623000D01*
X147323000Y-70648750D01*
X147577000Y-70648750D01*
X147577000Y-71623000D01*
X149251250Y-71623000D01*
X149410000Y-71464250D01*
X149413072Y-71125000D01*
X149400812Y-71000518D01*
X149364502Y-70880820D01*
X149305537Y-70770506D01*
X149226185Y-70673815D01*
X149129494Y-70594463D01*
X149019180Y-70535498D01*
X148899482Y-70499188D01*
X148775000Y-70486928D01*
X147735750Y-70490000D01*
X147577000Y-70648750D01*
X147323000Y-70648750D01*
X147164250Y-70490000D01*
X146125000Y-70486928D01*
X146000518Y-70499188D01*
X145880820Y-70535498D01*
X145770506Y-70594463D01*
X145673815Y-70673815D01*
X145594463Y-70770506D01*
X145535498Y-70880820D01*
X145499188Y-71000518D01*
X145486928Y-71125000D01*
X143733453Y-71125000D01*
X143705958Y-71034359D01*
X143647848Y-70925644D01*
X143569646Y-70830354D01*
X143474356Y-70752152D01*
X143377000Y-70700114D01*
X143377000Y-69153824D01*
X144000000Y-69153824D01*
X144073905Y-69146545D01*
X144144970Y-69124988D01*
X144210463Y-69089981D01*
X144267869Y-69042869D01*
X144314981Y-68985463D01*
X144349988Y-68919970D01*
X144371545Y-68848905D01*
X144377775Y-68785649D01*
X144439638Y-68737444D01*
X144521409Y-68642789D01*
X144583142Y-68534000D01*
X144622466Y-68415258D01*
X144635000Y-68308750D01*
X144476250Y-68150000D01*
X144635000Y-67991250D01*
X144622466Y-67884742D01*
X144583142Y-67766000D01*
X144521409Y-67657211D01*
X144496886Y-67628824D01*
X145602574Y-67628824D01*
X145623750Y-67650000D01*
X145465000Y-67808750D01*
X145477534Y-67915258D01*
X145516858Y-68034000D01*
X145578591Y-68142789D01*
X145660362Y-68237444D01*
X145759028Y-68314327D01*
X145779605Y-68324666D01*
X145750012Y-68380030D01*
X145728455Y-68451095D01*
X145721176Y-68525000D01*
X145721176Y-68775000D01*
X145728455Y-68848905D01*
X145750012Y-68919970D01*
X145785019Y-68985463D01*
X145832131Y-69042869D01*
X145889537Y-69089981D01*
X145955030Y-69124988D01*
X146026095Y-69146545D01*
X146100000Y-69153824D01*
X146800000Y-69153824D01*
X146873905Y-69146545D01*
X146944970Y-69124988D01*
X147010463Y-69089981D01*
X147067869Y-69042869D01*
X147114981Y-68985463D01*
X147149988Y-68919970D01*
X147171545Y-68848905D01*
X147178824Y-68775000D01*
X147178824Y-68525000D01*
X147171545Y-68451095D01*
X147149988Y-68380030D01*
X147120395Y-68324666D01*
X147140972Y-68314327D01*
X147239638Y-68237444D01*
X147321409Y-68142789D01*
X147383142Y-68034000D01*
X147422466Y-67915258D01*
X147435000Y-67808750D01*
X147276250Y-67650000D01*
X147299250Y-67627000D01*
X147450787Y-67627000D01*
X147496885Y-67713244D01*
X147571201Y-67803799D01*
X147661756Y-67878115D01*
X147765068Y-67933336D01*
X147820001Y-67950000D01*
X147765068Y-67966664D01*
X147661756Y-68021885D01*
X147571201Y-68096201D01*
X147496885Y-68186756D01*
X147441664Y-68290068D01*
X147407658Y-68402169D01*
X147396176Y-68518750D01*
X147396176Y-68956250D01*
X147407658Y-69072831D01*
X147441664Y-69184932D01*
X147496885Y-69288244D01*
X147571201Y-69378799D01*
X147645664Y-69439909D01*
X147599016Y-69552526D01*
X147573000Y-69683321D01*
X147573000Y-69816679D01*
X147599016Y-69947474D01*
X147650050Y-70070680D01*
X147724140Y-70181563D01*
X147818437Y-70275860D01*
X147929320Y-70349950D01*
X148052526Y-70400984D01*
X148183321Y-70427000D01*
X148316679Y-70427000D01*
X148447474Y-70400984D01*
X148570680Y-70349950D01*
X148681563Y-70275860D01*
X148775860Y-70181563D01*
X148849950Y-70070680D01*
X148900984Y-69947474D01*
X148927000Y-69816679D01*
X148927000Y-69683321D01*
X148919754Y-69646890D01*
X149808524Y-69646890D01*
X149853175Y-69794099D01*
X149978359Y-70056920D01*
X150152412Y-70290269D01*
X150368645Y-70485178D01*
X150618748Y-70634157D01*
X150893109Y-70731481D01*
X151123000Y-70610814D01*
X151123000Y-69417000D01*
X151377000Y-69417000D01*
X151377000Y-70610814D01*
X151606891Y-70731481D01*
X151881252Y-70634157D01*
X152131355Y-70485178D01*
X152347588Y-70290269D01*
X152521641Y-70056920D01*
X152646825Y-69794099D01*
X152691476Y-69646890D01*
X152570155Y-69417000D01*
X151377000Y-69417000D01*
X151123000Y-69417000D01*
X149929845Y-69417000D01*
X149808524Y-69646890D01*
X148919754Y-69646890D01*
X148900984Y-69552526D01*
X148854336Y-69439909D01*
X148928799Y-69378799D01*
X149003115Y-69288244D01*
X149058336Y-69184932D01*
X149092342Y-69072831D01*
X149103824Y-68956250D01*
X149103824Y-68518750D01*
X149092342Y-68402169D01*
X149058336Y-68290068D01*
X149003115Y-68186756D01*
X148928799Y-68096201D01*
X148838244Y-68021885D01*
X148734932Y-67966664D01*
X148679999Y-67950000D01*
X148734932Y-67933336D01*
X148838244Y-67878115D01*
X148928799Y-67803799D01*
X149003115Y-67713244D01*
X149058336Y-67609932D01*
X149092342Y-67497831D01*
X149103824Y-67381250D01*
X149103824Y-67377000D01*
X150193248Y-67377000D01*
X150296927Y-67532167D01*
G37*
X150296927Y-67532167D02*
X150467833Y-67703073D01*
X150668798Y-67837353D01*
X150786798Y-67886231D01*
X150618748Y-67945843D01*
X150368645Y-68094822D01*
X150152412Y-68289731D01*
X149978359Y-68523080D01*
X149853175Y-68785901D01*
X149808524Y-68933110D01*
X149929845Y-69163000D01*
X151123000Y-69163000D01*
X151123000Y-69143000D01*
X151377000Y-69143000D01*
X151377000Y-69163000D01*
X152570155Y-69163000D01*
X152691476Y-68933110D01*
X152646825Y-68785901D01*
X152521641Y-68523080D01*
X152347588Y-68289731D01*
X152131355Y-68094822D01*
X151881252Y-67945843D01*
X151713202Y-67886231D01*
X151831202Y-67837353D01*
X152032167Y-67703073D01*
X152203073Y-67532167D01*
X152306752Y-67377000D01*
X154278376Y-67377000D01*
X154261222Y-76623000D01*
X147811013Y-76623000D01*
X147881563Y-76575860D01*
X147975860Y-76481563D01*
X148049950Y-76370680D01*
X148100984Y-76247474D01*
X148127000Y-76116679D01*
X148127000Y-75983321D01*
X148100984Y-75852526D01*
X148077000Y-75794624D01*
X148077000Y-75553824D01*
X148525000Y-75553824D01*
X148647677Y-75541741D01*
X148765641Y-75505958D01*
X148874356Y-75447848D01*
X148969646Y-75369646D01*
X149047848Y-75274356D01*
X149105958Y-75165641D01*
X149141741Y-75047677D01*
X149153824Y-74925000D01*
X149153824Y-74175000D01*
X149141741Y-74052323D01*
X149105958Y-73934359D01*
X149047848Y-73825644D01*
X148969646Y-73730354D01*
X148874356Y-73652152D01*
X148765641Y-73594042D01*
X148647677Y-73558259D01*
X148525000Y-73546176D01*
X146375000Y-73546176D01*
X146252323Y-73558259D01*
X146134359Y-73594042D01*
X146025644Y-73652152D01*
X145930354Y-73730354D01*
X145852152Y-73825644D01*
X145794042Y-73934359D01*
X145758259Y-74052323D01*
X145746176Y-74175000D01*
X145746176Y-74925000D01*
X145758259Y-75047677D01*
X145794042Y-75165641D01*
X145852152Y-75274356D01*
X145930354Y-75369646D01*
X146025644Y-75447848D01*
X146134359Y-75505958D01*
X146252323Y-75541741D01*
X146375000Y-75553824D01*
X146823001Y-75553824D01*
X146823001Y-75794622D01*
X146799016Y-75852526D01*
X146773000Y-75983321D01*
X146773000Y-76116679D01*
X146799016Y-76247474D01*
X146850050Y-76370680D01*
X146924140Y-76481563D01*
X147018437Y-76575860D01*
X147088987Y-76623000D01*
X143377000Y-76623000D01*
X143377000Y-75399886D01*
X143474356Y-75347848D01*
X143569646Y-75269646D01*
X143647848Y-75174356D01*
X143705958Y-75065641D01*
X143741741Y-74947677D01*
X143753824Y-74825000D01*
X143753824Y-74075000D01*
X143741741Y-73952323D01*
X143705958Y-73834359D01*
X143647848Y-73725644D01*
X143569646Y-73630354D01*
X143474356Y-73552152D01*
X143377000Y-73500114D01*
X143377000Y-72599886D01*
X143474356Y-72547848D01*
X143569646Y-72469646D01*
X143647319Y-72375000D01*
X145486928Y-72375000D01*
X145499188Y-72499482D01*
X145535498Y-72619180D01*
X145594463Y-72729494D01*
X145673815Y-72826185D01*
X145770506Y-72905537D01*
X145880820Y-72964502D01*
X146000518Y-73000812D01*
X146125000Y-73013072D01*
X147164250Y-73010000D01*
X147323000Y-72851250D01*
X147323000Y-71877000D01*
X147577000Y-71877000D01*
X147577000Y-72851250D01*
X147735750Y-73010000D01*
X148775000Y-73013072D01*
X148899482Y-73000812D01*
X149019180Y-72964502D01*
X149129494Y-72905537D01*
X149226185Y-72826185D01*
X149305537Y-72729494D01*
X149364502Y-72619180D01*
X149400812Y-72499482D01*
X149413072Y-72375000D01*
X149410000Y-72035750D01*
X149251250Y-71877000D01*
X147577000Y-71877000D01*
X147323000Y-71877000D01*
X145648750Y-71877000D01*
X145490000Y-72035750D01*
X145486928Y-72375000D01*
X143647319Y-72375000D01*
X143647848Y-72374356D01*
X143705958Y-72265641D01*
X143741741Y-72147677D01*
X143753824Y-72025000D01*
X143753824Y-71275000D01*
X143741741Y-71152323D01*
X143733453Y-71125000D01*
X145486928Y-71125000D01*
X145490000Y-71464250D01*
X145648750Y-71623000D01*
X147323000Y-71623000D01*
X147323000Y-70648750D01*
X147577000Y-70648750D01*
X147577000Y-71623000D01*
X149251250Y-71623000D01*
X149410000Y-71464250D01*
X149413072Y-71125000D01*
X149400812Y-71000518D01*
X149364502Y-70880820D01*
X149305537Y-70770506D01*
X149226185Y-70673815D01*
X149129494Y-70594463D01*
X149019180Y-70535498D01*
X148899482Y-70499188D01*
X148775000Y-70486928D01*
X147735750Y-70490000D01*
X147577000Y-70648750D01*
X147323000Y-70648750D01*
X147164250Y-70490000D01*
X146125000Y-70486928D01*
X146000518Y-70499188D01*
X145880820Y-70535498D01*
X145770506Y-70594463D01*
X145673815Y-70673815D01*
X145594463Y-70770506D01*
X145535498Y-70880820D01*
X145499188Y-71000518D01*
X145486928Y-71125000D01*
X143733453Y-71125000D01*
X143705958Y-71034359D01*
X143647848Y-70925644D01*
X143569646Y-70830354D01*
X143474356Y-70752152D01*
X143377000Y-70700114D01*
X143377000Y-69153824D01*
X144000000Y-69153824D01*
X144073905Y-69146545D01*
X144144970Y-69124988D01*
X144210463Y-69089981D01*
X144267869Y-69042869D01*
X144314981Y-68985463D01*
X144349988Y-68919970D01*
X144371545Y-68848905D01*
X144377775Y-68785649D01*
X144439638Y-68737444D01*
X144521409Y-68642789D01*
X144583142Y-68534000D01*
X144622466Y-68415258D01*
X144635000Y-68308750D01*
X144476250Y-68150000D01*
X144635000Y-67991250D01*
X144622466Y-67884742D01*
X144583142Y-67766000D01*
X144521409Y-67657211D01*
X144496886Y-67628824D01*
X145602574Y-67628824D01*
X145623750Y-67650000D01*
X145465000Y-67808750D01*
X145477534Y-67915258D01*
X145516858Y-68034000D01*
X145578591Y-68142789D01*
X145660362Y-68237444D01*
X145759028Y-68314327D01*
X145779605Y-68324666D01*
X145750012Y-68380030D01*
X145728455Y-68451095D01*
X145721176Y-68525000D01*
X145721176Y-68775000D01*
X145728455Y-68848905D01*
X145750012Y-68919970D01*
X145785019Y-68985463D01*
X145832131Y-69042869D01*
X145889537Y-69089981D01*
X145955030Y-69124988D01*
X146026095Y-69146545D01*
X146100000Y-69153824D01*
X146800000Y-69153824D01*
X146873905Y-69146545D01*
X146944970Y-69124988D01*
X147010463Y-69089981D01*
X147067869Y-69042869D01*
X147114981Y-68985463D01*
X147149988Y-68919970D01*
X147171545Y-68848905D01*
X147178824Y-68775000D01*
X147178824Y-68525000D01*
X147171545Y-68451095D01*
X147149988Y-68380030D01*
X147120395Y-68324666D01*
X147140972Y-68314327D01*
X147239638Y-68237444D01*
X147321409Y-68142789D01*
X147383142Y-68034000D01*
X147422466Y-67915258D01*
X147435000Y-67808750D01*
X147276250Y-67650000D01*
X147299250Y-67627000D01*
X147450787Y-67627000D01*
X147496885Y-67713244D01*
X147571201Y-67803799D01*
X147661756Y-67878115D01*
X147765068Y-67933336D01*
X147820001Y-67950000D01*
X147765068Y-67966664D01*
X147661756Y-68021885D01*
X147571201Y-68096201D01*
X147496885Y-68186756D01*
X147441664Y-68290068D01*
X147407658Y-68402169D01*
X147396176Y-68518750D01*
X147396176Y-68956250D01*
X147407658Y-69072831D01*
X147441664Y-69184932D01*
X147496885Y-69288244D01*
X147571201Y-69378799D01*
X147645664Y-69439909D01*
X147599016Y-69552526D01*
X147573000Y-69683321D01*
X147573000Y-69816679D01*
X147599016Y-69947474D01*
X147650050Y-70070680D01*
X147724140Y-70181563D01*
X147818437Y-70275860D01*
X147929320Y-70349950D01*
X148052526Y-70400984D01*
X148183321Y-70427000D01*
X148316679Y-70427000D01*
X148447474Y-70400984D01*
X148570680Y-70349950D01*
X148681563Y-70275860D01*
X148775860Y-70181563D01*
X148849950Y-70070680D01*
X148900984Y-69947474D01*
X148927000Y-69816679D01*
X148927000Y-69683321D01*
X148919754Y-69646890D01*
X149808524Y-69646890D01*
X149853175Y-69794099D01*
X149978359Y-70056920D01*
X150152412Y-70290269D01*
X150368645Y-70485178D01*
X150618748Y-70634157D01*
X150893109Y-70731481D01*
X151123000Y-70610814D01*
X151123000Y-69417000D01*
X151377000Y-69417000D01*
X151377000Y-70610814D01*
X151606891Y-70731481D01*
X151881252Y-70634157D01*
X152131355Y-70485178D01*
X152347588Y-70290269D01*
X152521641Y-70056920D01*
X152646825Y-69794099D01*
X152691476Y-69646890D01*
X152570155Y-69417000D01*
X151377000Y-69417000D01*
X151123000Y-69417000D01*
X149929845Y-69417000D01*
X149808524Y-69646890D01*
X148919754Y-69646890D01*
X148900984Y-69552526D01*
X148854336Y-69439909D01*
X148928799Y-69378799D01*
X149003115Y-69288244D01*
X149058336Y-69184932D01*
X149092342Y-69072831D01*
X149103824Y-68956250D01*
X149103824Y-68518750D01*
X149092342Y-68402169D01*
X149058336Y-68290068D01*
X149003115Y-68186756D01*
X148928799Y-68096201D01*
X148838244Y-68021885D01*
X148734932Y-67966664D01*
X148679999Y-67950000D01*
X148734932Y-67933336D01*
X148838244Y-67878115D01*
X148928799Y-67803799D01*
X149003115Y-67713244D01*
X149058336Y-67609932D01*
X149092342Y-67497831D01*
X149103824Y-67381250D01*
X149103824Y-67377000D01*
X150193248Y-67377000D01*
X150296927Y-67532167D01*
M02*
