G04 #@! TF.GenerationSoftware,KiCad,Pcbnew,(5.1.5)-3*
G04 #@! TF.CreationDate,2020-09-29T22:38:50+02:00*
G04 #@! TF.ProjectId,SFH203_photodetector,53464832-3033-45f7-9068-6f746f646574,1.3*
G04 #@! TF.SameCoordinates,Original*
G04 #@! TF.FileFunction,Copper,L2,Bot*
G04 #@! TF.FilePolarity,Positive*
%FSLAX46Y46*%
G04 Gerber Fmt 4.6, Leading zero omitted, Abs format (unit mm)*
G04 Created by KiCad (PCBNEW (5.1.5)-3) date 2020-09-29 22:38:50*
%MOMM*%
%LPD*%
G04 APERTURE LIST*
%ADD10C,1.300000*%
%ADD11C,1.100000*%
%ADD12C,1.600000*%
%ADD13R,1.700000X1.700000*%
%ADD14O,1.700000X1.700000*%
%ADD15C,2.050000*%
%ADD16C,2.250000*%
%ADD17C,0.600000*%
%ADD18C,0.500000*%
%ADD19C,0.200000*%
%ADD20C,0.254000*%
G04 APERTURE END LIST*
D10*
X129790000Y-79250000D03*
D11*
X132350000Y-79250000D03*
D12*
X120050000Y-63750000D03*
X120050000Y-68750000D03*
D13*
X151250000Y-64210000D03*
D14*
X151250000Y-66750000D03*
X151250000Y-69290000D03*
D15*
X112250000Y-63750000D03*
D16*
X114790000Y-66290000D03*
X114790000Y-61210000D03*
X109710000Y-61210000D03*
X109710000Y-66290000D03*
D17*
X119450000Y-75050000D03*
X145050000Y-66350000D03*
X142050000Y-76050000D03*
X147450000Y-76050000D03*
X140850000Y-57450000D03*
X147250000Y-57450000D03*
X124550000Y-67050000D03*
X129850000Y-68650000D03*
X134950000Y-72550000D03*
X139950000Y-65550000D03*
X126250000Y-75050000D03*
X123450000Y-75050000D03*
X148250000Y-69750000D03*
X142050000Y-69349982D03*
D18*
X139950000Y-65550000D02*
X137350000Y-65550000D01*
X137350000Y-65550000D02*
X127850000Y-75050000D01*
X126150000Y-75050000D02*
X126250000Y-75050000D01*
X127850000Y-75050000D02*
X126150000Y-75050000D01*
X126150000Y-75050000D02*
X123450000Y-75050000D01*
D19*
X142450018Y-69750000D02*
X142050000Y-69349982D01*
X148250000Y-69750000D02*
X142450018Y-69750000D01*
D20*
G36*
X145194134Y-39006953D02*
G01*
X145621355Y-39135938D01*
X146015384Y-39345446D01*
X146361214Y-39627499D01*
X146645673Y-39971351D01*
X146857929Y-40363910D01*
X146989892Y-40790213D01*
X147040000Y-41266964D01*
X147040001Y-49734877D01*
X147042551Y-49760768D01*
X147095545Y-50482414D01*
X147098253Y-50498953D01*
X147098780Y-50515713D01*
X147113255Y-50596161D01*
X147320775Y-51460544D01*
X147327901Y-51481717D01*
X147332545Y-51503567D01*
X147361038Y-51580180D01*
X147718347Y-52394151D01*
X147729105Y-52413720D01*
X147737548Y-52434409D01*
X147779158Y-52504767D01*
X148274961Y-53242601D01*
X148289018Y-53259960D01*
X148300989Y-53278823D01*
X148354385Y-53340681D01*
X148354400Y-53340700D01*
X148354406Y-53340705D01*
X148973028Y-53979073D01*
X148989932Y-53993664D01*
X149005058Y-54010114D01*
X149068564Y-54061539D01*
X149068583Y-54061555D01*
X149068591Y-54061560D01*
X149790479Y-54580289D01*
X149809702Y-54591657D01*
X149827500Y-54605167D01*
X149899130Y-54644546D01*
X150701477Y-55027245D01*
X150722411Y-55035030D01*
X150742319Y-55045174D01*
X150819790Y-55071246D01*
X151677226Y-55305814D01*
X151699207Y-55309769D01*
X151720597Y-55316227D01*
X151801455Y-55328166D01*
X151801460Y-55328167D01*
X151801461Y-55328167D01*
X152686885Y-55407189D01*
X152712079Y-55407189D01*
X153000385Y-55435457D01*
X153241236Y-55508174D01*
X153463372Y-55626286D01*
X153658340Y-55785298D01*
X153818705Y-55979145D01*
X153938367Y-56200457D01*
X154012764Y-56440795D01*
X154041649Y-56715617D01*
X154040763Y-56756860D01*
X154040066Y-56763807D01*
X153990053Y-83721280D01*
X153963674Y-83990311D01*
X153893881Y-84221474D01*
X153780520Y-84434677D01*
X153627908Y-84621797D01*
X153441854Y-84775716D01*
X153229450Y-84890562D01*
X152995592Y-84962954D01*
X152766823Y-84989157D01*
X152520521Y-84984041D01*
X152519275Y-84984126D01*
X152518026Y-84983993D01*
X152436352Y-84987290D01*
X151559400Y-85073450D01*
X151537454Y-85077601D01*
X151515170Y-85079203D01*
X151435370Y-85096911D01*
X150587534Y-85337004D01*
X150566669Y-85344976D01*
X150545020Y-85350499D01*
X150469634Y-85382052D01*
X150469618Y-85382058D01*
X150469614Y-85382061D01*
X149677699Y-85768497D01*
X149658579Y-85780036D01*
X149638248Y-85789306D01*
X149569626Y-85833719D01*
X148858655Y-86354285D01*
X148841875Y-86369032D01*
X148823512Y-86381753D01*
X148763839Y-86437616D01*
X148156288Y-87075858D01*
X148142387Y-87093341D01*
X148126565Y-87109114D01*
X148077727Y-87174662D01*
X147592802Y-87910404D01*
X147582214Y-87930077D01*
X147569438Y-87948399D01*
X147532980Y-88021558D01*
X147186007Y-88831546D01*
X147179073Y-88852776D01*
X147169740Y-88873077D01*
X147146814Y-88951537D01*
X146948761Y-89810166D01*
X146945695Y-89832293D01*
X146940106Y-89853922D01*
X146931436Y-89935202D01*
X146889878Y-90788353D01*
X146835220Y-91187273D01*
X146715334Y-91535410D01*
X146530114Y-91853627D01*
X146286610Y-92129808D01*
X145994100Y-92353435D01*
X145663723Y-92515988D01*
X145302630Y-92612730D01*
X144972172Y-92639893D01*
X117786022Y-92540128D01*
X117305867Y-92493048D01*
X116878647Y-92364063D01*
X116484616Y-92154554D01*
X116138786Y-91872501D01*
X115854328Y-91528651D01*
X115642073Y-91136093D01*
X115510109Y-90709788D01*
X115460000Y-90233036D01*
X115460000Y-81715123D01*
X115457446Y-81689192D01*
X115404455Y-80967586D01*
X115401747Y-80951047D01*
X115401220Y-80934288D01*
X115386745Y-80853839D01*
X115179225Y-79989457D01*
X115172100Y-79968284D01*
X115167455Y-79946433D01*
X115138963Y-79869821D01*
X115138963Y-79869820D01*
X115138960Y-79869815D01*
X114781653Y-79055849D01*
X114770895Y-79036280D01*
X114762452Y-79015591D01*
X114720842Y-78945233D01*
X114225039Y-78207399D01*
X114210982Y-78190040D01*
X114199011Y-78171177D01*
X114145600Y-78109300D01*
X113526972Y-77470927D01*
X113510070Y-77456337D01*
X113494942Y-77439886D01*
X113431417Y-77388446D01*
X112709521Y-76869711D01*
X112690297Y-76858342D01*
X112672500Y-76844833D01*
X112600870Y-76805454D01*
X111798523Y-76422754D01*
X111777583Y-76414967D01*
X111757681Y-76404826D01*
X111680220Y-76378758D01*
X111680210Y-76378754D01*
X111680207Y-76378753D01*
X110822774Y-76144186D01*
X110800791Y-76140231D01*
X110779402Y-76133773D01*
X110698539Y-76121833D01*
X109893671Y-76050000D01*
X128023000Y-76050000D01*
X128023000Y-82450000D01*
X128025440Y-82474776D01*
X128032667Y-82498601D01*
X128044403Y-82520557D01*
X128060197Y-82539803D01*
X128079443Y-82555597D01*
X128101399Y-82567333D01*
X128125224Y-82574560D01*
X128150000Y-82577000D01*
X134350000Y-82577000D01*
X134374776Y-82574560D01*
X134398601Y-82567333D01*
X134420557Y-82555597D01*
X134439803Y-82539803D01*
X134455597Y-82520557D01*
X134467333Y-82498601D01*
X134474560Y-82474776D01*
X134477000Y-82450000D01*
X134477000Y-81375701D01*
X148415000Y-81375701D01*
X148415000Y-81924299D01*
X148522026Y-82462354D01*
X148731965Y-82969192D01*
X149036750Y-83425334D01*
X149424666Y-83813250D01*
X149880808Y-84118035D01*
X150387646Y-84327974D01*
X150925701Y-84435000D01*
X151474299Y-84435000D01*
X152012354Y-84327974D01*
X152519192Y-84118035D01*
X152975334Y-83813250D01*
X153363250Y-83425334D01*
X153668035Y-82969192D01*
X153877974Y-82462354D01*
X153985000Y-81924299D01*
X153985000Y-81375701D01*
X153877974Y-80837646D01*
X153668035Y-80330808D01*
X153363250Y-79874666D01*
X152975334Y-79486750D01*
X152519192Y-79181965D01*
X152012354Y-78972026D01*
X151474299Y-78865000D01*
X150925701Y-78865000D01*
X150387646Y-78972026D01*
X149880808Y-79181965D01*
X149424666Y-79486750D01*
X149036750Y-79874666D01*
X148731965Y-80330808D01*
X148522026Y-80837646D01*
X148415000Y-81375701D01*
X134477000Y-81375701D01*
X134477000Y-76050000D01*
X134474560Y-76025224D01*
X134467333Y-76001399D01*
X134455597Y-75979443D01*
X134439803Y-75960197D01*
X134420557Y-75944403D01*
X134398601Y-75932667D01*
X134374776Y-75925440D01*
X134350000Y-75923000D01*
X128150000Y-75923000D01*
X128125224Y-75925440D01*
X128101399Y-75932667D01*
X128079443Y-75944403D01*
X128060197Y-75960197D01*
X128044403Y-75979443D01*
X128032667Y-76001399D01*
X128025440Y-76025224D01*
X128023000Y-76050000D01*
X109893671Y-76050000D01*
X109816168Y-76043083D01*
X109500101Y-76012093D01*
X109259718Y-75939517D01*
X109038011Y-75821633D01*
X108843420Y-75662929D01*
X108683365Y-75469455D01*
X108563936Y-75248576D01*
X108489683Y-75008701D01*
X108484345Y-74957911D01*
X122515000Y-74957911D01*
X122515000Y-75142089D01*
X122550932Y-75322729D01*
X122621414Y-75492889D01*
X122723738Y-75646028D01*
X122853972Y-75776262D01*
X123007111Y-75878586D01*
X123177271Y-75949068D01*
X123357911Y-75985000D01*
X123542089Y-75985000D01*
X123722729Y-75949068D01*
X123756692Y-75935000D01*
X125943308Y-75935000D01*
X125977271Y-75949068D01*
X126157911Y-75985000D01*
X126342089Y-75985000D01*
X126522729Y-75949068D01*
X126556692Y-75935000D01*
X127806531Y-75935000D01*
X127850000Y-75939281D01*
X127893469Y-75935000D01*
X127893477Y-75935000D01*
X128023490Y-75922195D01*
X128190313Y-75871589D01*
X128344059Y-75789411D01*
X128478817Y-75678817D01*
X128506534Y-75645044D01*
X134893685Y-69257893D01*
X141115000Y-69257893D01*
X141115000Y-69442071D01*
X141150932Y-69622711D01*
X141221414Y-69792871D01*
X141323738Y-69946010D01*
X141453972Y-70076244D01*
X141607111Y-70178568D01*
X141777271Y-70249050D01*
X141938637Y-70281148D01*
X142039698Y-70364087D01*
X142167385Y-70432337D01*
X142305933Y-70474365D01*
X142450018Y-70488556D01*
X142486123Y-70485000D01*
X147667049Y-70485000D01*
X147807111Y-70578586D01*
X147977271Y-70649068D01*
X148157911Y-70685000D01*
X148342089Y-70685000D01*
X148522729Y-70649068D01*
X148692889Y-70578586D01*
X148846028Y-70476262D01*
X148976262Y-70346028D01*
X149078586Y-70192889D01*
X149149068Y-70022729D01*
X149185000Y-69842089D01*
X149185000Y-69657911D01*
X149149068Y-69477271D01*
X149078586Y-69307111D01*
X148976262Y-69153972D01*
X148966030Y-69143740D01*
X149765000Y-69143740D01*
X149765000Y-69436260D01*
X149822068Y-69723158D01*
X149934010Y-69993411D01*
X150096525Y-70236632D01*
X150303368Y-70443475D01*
X150546589Y-70605990D01*
X150816842Y-70717932D01*
X151103740Y-70775000D01*
X151396260Y-70775000D01*
X151683158Y-70717932D01*
X151953411Y-70605990D01*
X152196632Y-70443475D01*
X152403475Y-70236632D01*
X152565990Y-69993411D01*
X152677932Y-69723158D01*
X152735000Y-69436260D01*
X152735000Y-69143740D01*
X152677932Y-68856842D01*
X152565990Y-68586589D01*
X152403475Y-68343368D01*
X152196632Y-68136525D01*
X152014466Y-68014805D01*
X152131355Y-67945178D01*
X152347588Y-67750269D01*
X152521641Y-67516920D01*
X152646825Y-67254099D01*
X152691476Y-67106890D01*
X152570155Y-66877000D01*
X151377000Y-66877000D01*
X151377000Y-66897000D01*
X151123000Y-66897000D01*
X151123000Y-66877000D01*
X149929845Y-66877000D01*
X149808524Y-67106890D01*
X149853175Y-67254099D01*
X149978359Y-67516920D01*
X150152412Y-67750269D01*
X150368645Y-67945178D01*
X150485534Y-68014805D01*
X150303368Y-68136525D01*
X150096525Y-68343368D01*
X149934010Y-68586589D01*
X149822068Y-68856842D01*
X149765000Y-69143740D01*
X148966030Y-69143740D01*
X148846028Y-69023738D01*
X148692889Y-68921414D01*
X148522729Y-68850932D01*
X148342089Y-68815000D01*
X148157911Y-68815000D01*
X147977271Y-68850932D01*
X147807111Y-68921414D01*
X147667049Y-69015000D01*
X142923282Y-69015000D01*
X142878586Y-68907093D01*
X142776262Y-68753954D01*
X142646028Y-68623720D01*
X142492889Y-68521396D01*
X142322729Y-68450914D01*
X142142089Y-68414982D01*
X141957911Y-68414982D01*
X141777271Y-68450914D01*
X141607111Y-68521396D01*
X141453972Y-68623720D01*
X141323738Y-68753954D01*
X141221414Y-68907093D01*
X141150932Y-69077253D01*
X141115000Y-69257893D01*
X134893685Y-69257893D01*
X137716579Y-66435000D01*
X139643308Y-66435000D01*
X139677271Y-66449068D01*
X139857911Y-66485000D01*
X140042089Y-66485000D01*
X140222729Y-66449068D01*
X140392889Y-66378586D01*
X140546028Y-66276262D01*
X140676262Y-66146028D01*
X140778586Y-65992889D01*
X140849068Y-65822729D01*
X140885000Y-65642089D01*
X140885000Y-65457911D01*
X140849068Y-65277271D01*
X140778586Y-65107111D01*
X140676262Y-64953972D01*
X140546028Y-64823738D01*
X140392889Y-64721414D01*
X140222729Y-64650932D01*
X140042089Y-64615000D01*
X139857911Y-64615000D01*
X139677271Y-64650932D01*
X139643308Y-64665000D01*
X137393469Y-64665000D01*
X137350000Y-64660719D01*
X137306531Y-64665000D01*
X137306523Y-64665000D01*
X137176510Y-64677805D01*
X137009687Y-64728411D01*
X136860433Y-64808188D01*
X136855941Y-64810589D01*
X136754953Y-64893468D01*
X136754951Y-64893470D01*
X136721183Y-64921183D01*
X136693470Y-64954951D01*
X127483422Y-74165000D01*
X126556692Y-74165000D01*
X126522729Y-74150932D01*
X126342089Y-74115000D01*
X126157911Y-74115000D01*
X125977271Y-74150932D01*
X125943308Y-74165000D01*
X123756692Y-74165000D01*
X123722729Y-74150932D01*
X123542089Y-74115000D01*
X123357911Y-74115000D01*
X123177271Y-74150932D01*
X123007111Y-74221414D01*
X122853972Y-74323738D01*
X122723738Y-74453972D01*
X122621414Y-74607111D01*
X122550932Y-74777271D01*
X122515000Y-74957911D01*
X108484345Y-74957911D01*
X108460000Y-74726291D01*
X108460000Y-69742702D01*
X119236903Y-69742702D01*
X119308486Y-69986671D01*
X119563996Y-70107571D01*
X119838184Y-70176300D01*
X120120512Y-70190217D01*
X120400130Y-70148787D01*
X120666292Y-70053603D01*
X120791514Y-69986671D01*
X120863097Y-69742702D01*
X120050000Y-68929605D01*
X119236903Y-69742702D01*
X108460000Y-69742702D01*
X108460000Y-68820512D01*
X118609783Y-68820512D01*
X118651213Y-69100130D01*
X118746397Y-69366292D01*
X118813329Y-69491514D01*
X119057298Y-69563097D01*
X119870395Y-68750000D01*
X120229605Y-68750000D01*
X121042702Y-69563097D01*
X121286671Y-69491514D01*
X121407571Y-69236004D01*
X121476300Y-68961816D01*
X121490217Y-68679488D01*
X121448787Y-68399870D01*
X121353603Y-68133708D01*
X121286671Y-68008486D01*
X121042702Y-67936903D01*
X120229605Y-68750000D01*
X119870395Y-68750000D01*
X119057298Y-67936903D01*
X118813329Y-68008486D01*
X118692429Y-68263996D01*
X118623700Y-68538184D01*
X118609783Y-68820512D01*
X108460000Y-68820512D01*
X108460000Y-67540190D01*
X108549709Y-67629899D01*
X108665075Y-67514533D01*
X108775921Y-67791714D01*
X109086840Y-67945089D01*
X109421705Y-68034860D01*
X109767650Y-68057576D01*
X110111380Y-68012366D01*
X110439685Y-67900966D01*
X110644079Y-67791714D01*
X110754926Y-67514531D01*
X113745074Y-67514531D01*
X113855921Y-67791714D01*
X114166840Y-67945089D01*
X114501705Y-68034860D01*
X114847650Y-68057576D01*
X115191380Y-68012366D01*
X115519685Y-67900966D01*
X115724079Y-67791714D01*
X115737842Y-67757298D01*
X119236903Y-67757298D01*
X120050000Y-68570395D01*
X120863097Y-67757298D01*
X120791514Y-67513329D01*
X120536004Y-67392429D01*
X120261816Y-67323700D01*
X119979488Y-67309783D01*
X119699870Y-67351213D01*
X119433708Y-67446397D01*
X119308486Y-67513329D01*
X119236903Y-67757298D01*
X115737842Y-67757298D01*
X115834926Y-67514531D01*
X114790000Y-66469605D01*
X113745074Y-67514531D01*
X110754926Y-67514531D01*
X109710000Y-66469605D01*
X109695858Y-66483748D01*
X109516253Y-66304143D01*
X109530395Y-66290000D01*
X109889605Y-66290000D01*
X110934531Y-67334926D01*
X111211714Y-67224079D01*
X111365089Y-66913160D01*
X111454860Y-66578295D01*
X111470004Y-66347650D01*
X113022424Y-66347650D01*
X113067634Y-66691380D01*
X113179034Y-67019685D01*
X113288286Y-67224079D01*
X113565469Y-67334926D01*
X114610395Y-66290000D01*
X114969605Y-66290000D01*
X116014531Y-67334926D01*
X116291714Y-67224079D01*
X116445089Y-66913160D01*
X116534860Y-66578295D01*
X116557576Y-66232350D01*
X116512366Y-65888620D01*
X116400966Y-65560315D01*
X116291714Y-65355921D01*
X116014531Y-65245074D01*
X114969605Y-66290000D01*
X114610395Y-66290000D01*
X113565469Y-65245074D01*
X113288286Y-65355921D01*
X113134911Y-65666840D01*
X113045140Y-66001705D01*
X113022424Y-66347650D01*
X111470004Y-66347650D01*
X111477576Y-66232350D01*
X111432366Y-65888620D01*
X111320966Y-65560315D01*
X111211714Y-65355921D01*
X110934531Y-65245074D01*
X109889605Y-66290000D01*
X109530395Y-66290000D01*
X109516253Y-66275858D01*
X109695858Y-66096253D01*
X109710000Y-66110395D01*
X110754926Y-65065469D01*
X110644079Y-64788286D01*
X110333160Y-64634911D01*
X109998295Y-64545140D01*
X109652350Y-64522424D01*
X109308620Y-64567634D01*
X108980315Y-64679034D01*
X108775921Y-64788286D01*
X108665075Y-65065467D01*
X108549709Y-64950101D01*
X108460000Y-65039810D01*
X108460000Y-63586504D01*
X110590000Y-63586504D01*
X110590000Y-63913496D01*
X110653793Y-64234204D01*
X110778927Y-64536305D01*
X110960594Y-64808188D01*
X111191812Y-65039406D01*
X111463695Y-65221073D01*
X111765796Y-65346207D01*
X112086504Y-65410000D01*
X112413496Y-65410000D01*
X112734204Y-65346207D01*
X113036305Y-65221073D01*
X113269182Y-65065469D01*
X113745074Y-65065469D01*
X114790000Y-66110395D01*
X115834926Y-65065469D01*
X115724079Y-64788286D01*
X115413160Y-64634911D01*
X115078295Y-64545140D01*
X114732350Y-64522424D01*
X114388620Y-64567634D01*
X114060315Y-64679034D01*
X113855921Y-64788286D01*
X113745074Y-65065469D01*
X113269182Y-65065469D01*
X113308188Y-65039406D01*
X113539406Y-64808188D01*
X113721073Y-64536305D01*
X113846207Y-64234204D01*
X113910000Y-63913496D01*
X113910000Y-63608665D01*
X118615000Y-63608665D01*
X118615000Y-63891335D01*
X118670147Y-64168574D01*
X118778320Y-64429727D01*
X118935363Y-64664759D01*
X119135241Y-64864637D01*
X119370273Y-65021680D01*
X119631426Y-65129853D01*
X119908665Y-65185000D01*
X120191335Y-65185000D01*
X120468574Y-65129853D01*
X120729727Y-65021680D01*
X120964759Y-64864637D01*
X121164637Y-64664759D01*
X121321680Y-64429727D01*
X121429853Y-64168574D01*
X121485000Y-63891335D01*
X121485000Y-63608665D01*
X121435537Y-63360000D01*
X149761928Y-63360000D01*
X149761928Y-65060000D01*
X149774188Y-65184482D01*
X149810498Y-65304180D01*
X149869463Y-65414494D01*
X149948815Y-65511185D01*
X150045506Y-65590537D01*
X150155820Y-65649502D01*
X150236466Y-65673966D01*
X150152412Y-65749731D01*
X149978359Y-65983080D01*
X149853175Y-66245901D01*
X149808524Y-66393110D01*
X149929845Y-66623000D01*
X151123000Y-66623000D01*
X151123000Y-66603000D01*
X151377000Y-66603000D01*
X151377000Y-66623000D01*
X152570155Y-66623000D01*
X152691476Y-66393110D01*
X152646825Y-66245901D01*
X152521641Y-65983080D01*
X152347588Y-65749731D01*
X152263534Y-65673966D01*
X152344180Y-65649502D01*
X152454494Y-65590537D01*
X152551185Y-65511185D01*
X152630537Y-65414494D01*
X152689502Y-65304180D01*
X152725812Y-65184482D01*
X152738072Y-65060000D01*
X152738072Y-63360000D01*
X152725812Y-63235518D01*
X152689502Y-63115820D01*
X152630537Y-63005506D01*
X152551185Y-62908815D01*
X152454494Y-62829463D01*
X152344180Y-62770498D01*
X152224482Y-62734188D01*
X152100000Y-62721928D01*
X150400000Y-62721928D01*
X150275518Y-62734188D01*
X150155820Y-62770498D01*
X150045506Y-62829463D01*
X149948815Y-62908815D01*
X149869463Y-63005506D01*
X149810498Y-63115820D01*
X149774188Y-63235518D01*
X149761928Y-63360000D01*
X121435537Y-63360000D01*
X121429853Y-63331426D01*
X121321680Y-63070273D01*
X121164637Y-62835241D01*
X120964759Y-62635363D01*
X120729727Y-62478320D01*
X120468574Y-62370147D01*
X120191335Y-62315000D01*
X119908665Y-62315000D01*
X119631426Y-62370147D01*
X119370273Y-62478320D01*
X119135241Y-62635363D01*
X118935363Y-62835241D01*
X118778320Y-63070273D01*
X118670147Y-63331426D01*
X118615000Y-63608665D01*
X113910000Y-63608665D01*
X113910000Y-63586504D01*
X113846207Y-63265796D01*
X113721073Y-62963695D01*
X113539406Y-62691812D01*
X113308188Y-62460594D01*
X113269183Y-62434531D01*
X113745074Y-62434531D01*
X113855921Y-62711714D01*
X114166840Y-62865089D01*
X114501705Y-62954860D01*
X114847650Y-62977576D01*
X115191380Y-62932366D01*
X115519685Y-62820966D01*
X115724079Y-62711714D01*
X115834926Y-62434531D01*
X114790000Y-61389605D01*
X113745074Y-62434531D01*
X113269183Y-62434531D01*
X113036305Y-62278927D01*
X112734204Y-62153793D01*
X112413496Y-62090000D01*
X112086504Y-62090000D01*
X111765796Y-62153793D01*
X111463695Y-62278927D01*
X111191812Y-62460594D01*
X110960594Y-62691812D01*
X110778927Y-62963695D01*
X110653793Y-63265796D01*
X110590000Y-63586504D01*
X108460000Y-63586504D01*
X108460000Y-62460190D01*
X108549709Y-62549899D01*
X108665075Y-62434533D01*
X108775921Y-62711714D01*
X109086840Y-62865089D01*
X109421705Y-62954860D01*
X109767650Y-62977576D01*
X110111380Y-62932366D01*
X110439685Y-62820966D01*
X110644079Y-62711714D01*
X110754926Y-62434531D01*
X109710000Y-61389605D01*
X109695858Y-61403748D01*
X109516253Y-61224143D01*
X109530395Y-61210000D01*
X109889605Y-61210000D01*
X110934531Y-62254926D01*
X111211714Y-62144079D01*
X111365089Y-61833160D01*
X111454860Y-61498295D01*
X111470004Y-61267650D01*
X113022424Y-61267650D01*
X113067634Y-61611380D01*
X113179034Y-61939685D01*
X113288286Y-62144079D01*
X113565469Y-62254926D01*
X114610395Y-61210000D01*
X114969605Y-61210000D01*
X116014531Y-62254926D01*
X116291714Y-62144079D01*
X116445089Y-61833160D01*
X116534860Y-61498295D01*
X116557576Y-61152350D01*
X116512366Y-60808620D01*
X116400966Y-60480315D01*
X116291714Y-60275921D01*
X116014531Y-60165074D01*
X114969605Y-61210000D01*
X114610395Y-61210000D01*
X113565469Y-60165074D01*
X113288286Y-60275921D01*
X113134911Y-60586840D01*
X113045140Y-60921705D01*
X113022424Y-61267650D01*
X111470004Y-61267650D01*
X111477576Y-61152350D01*
X111432366Y-60808620D01*
X111320966Y-60480315D01*
X111211714Y-60275921D01*
X110934531Y-60165074D01*
X109889605Y-61210000D01*
X109530395Y-61210000D01*
X109516253Y-61195858D01*
X109695858Y-61016253D01*
X109710000Y-61030395D01*
X110754926Y-59985469D01*
X113745074Y-59985469D01*
X114790000Y-61030395D01*
X115834926Y-59985469D01*
X115724079Y-59708286D01*
X115413160Y-59554911D01*
X115078295Y-59465140D01*
X114732350Y-59442424D01*
X114388620Y-59487634D01*
X114060315Y-59599034D01*
X113855921Y-59708286D01*
X113745074Y-59985469D01*
X110754926Y-59985469D01*
X110644079Y-59708286D01*
X110333160Y-59554911D01*
X109998295Y-59465140D01*
X109652350Y-59442424D01*
X109308620Y-59487634D01*
X108980315Y-59599034D01*
X108775921Y-59708286D01*
X108665075Y-59985467D01*
X108549709Y-59870101D01*
X108460000Y-59959810D01*
X108460000Y-49225701D01*
X108465000Y-49225701D01*
X108465000Y-49774299D01*
X108572026Y-50312354D01*
X108781965Y-50819192D01*
X109086750Y-51275334D01*
X109474666Y-51663250D01*
X109930808Y-51968035D01*
X110437646Y-52177974D01*
X110975701Y-52285000D01*
X111524299Y-52285000D01*
X112062354Y-52177974D01*
X112569192Y-51968035D01*
X113025334Y-51663250D01*
X113413250Y-51275334D01*
X113718035Y-50819192D01*
X113927974Y-50312354D01*
X114035000Y-49774299D01*
X114035000Y-49225701D01*
X113927974Y-48687646D01*
X113718035Y-48180808D01*
X113413250Y-47724666D01*
X113025334Y-47336750D01*
X112569192Y-47031965D01*
X112062354Y-46822026D01*
X111524299Y-46715000D01*
X110975701Y-46715000D01*
X110437646Y-46822026D01*
X109930808Y-47031965D01*
X109474666Y-47336750D01*
X109086750Y-47724666D01*
X108781965Y-48180808D01*
X108572026Y-48687646D01*
X108465000Y-49225701D01*
X108460000Y-49225701D01*
X108460000Y-47800784D01*
X108461142Y-47793684D01*
X108461685Y-47783786D01*
X108477003Y-47463436D01*
X108537484Y-47219728D01*
X108644149Y-46992412D01*
X108792937Y-46790141D01*
X108978177Y-46620623D01*
X109192817Y-46490313D01*
X109428684Y-46404173D01*
X109701243Y-46361676D01*
X109762945Y-46359919D01*
X109835897Y-46359334D01*
X109848443Y-46358113D01*
X109904656Y-46355443D01*
X110788698Y-46262228D01*
X110810615Y-46257920D01*
X110832887Y-46256160D01*
X110912558Y-46237884D01*
X111766121Y-45989592D01*
X111786928Y-45981472D01*
X111808537Y-45975795D01*
X111883713Y-45943700D01*
X112679818Y-45548179D01*
X112698855Y-45536504D01*
X112719121Y-45527089D01*
X112787425Y-45482188D01*
X113500907Y-44951940D01*
X113517582Y-44937074D01*
X113535853Y-44924223D01*
X113595127Y-44867937D01*
X114203434Y-44219723D01*
X114217210Y-44202142D01*
X114232920Y-44186256D01*
X114281289Y-44120362D01*
X114765194Y-43374670D01*
X114775638Y-43354928D01*
X114788288Y-43336510D01*
X114824224Y-43263093D01*
X115168429Y-42443494D01*
X115175211Y-42422218D01*
X115184401Y-42401847D01*
X115206768Y-42323226D01*
X115400395Y-41455627D01*
X115416829Y-41330472D01*
X115416094Y-41315004D01*
X115455645Y-40843590D01*
X115579071Y-40413033D01*
X115783776Y-40014648D01*
X116061958Y-39663615D01*
X116403028Y-39373299D01*
X116793991Y-39154759D01*
X117219958Y-39016319D01*
X117691963Y-38960000D01*
X144715279Y-38960000D01*
X145194134Y-39006953D01*
G37*
X145194134Y-39006953D02*
X145621355Y-39135938D01*
X146015384Y-39345446D01*
X146361214Y-39627499D01*
X146645673Y-39971351D01*
X146857929Y-40363910D01*
X146989892Y-40790213D01*
X147040000Y-41266964D01*
X147040001Y-49734877D01*
X147042551Y-49760768D01*
X147095545Y-50482414D01*
X147098253Y-50498953D01*
X147098780Y-50515713D01*
X147113255Y-50596161D01*
X147320775Y-51460544D01*
X147327901Y-51481717D01*
X147332545Y-51503567D01*
X147361038Y-51580180D01*
X147718347Y-52394151D01*
X147729105Y-52413720D01*
X147737548Y-52434409D01*
X147779158Y-52504767D01*
X148274961Y-53242601D01*
X148289018Y-53259960D01*
X148300989Y-53278823D01*
X148354385Y-53340681D01*
X148354400Y-53340700D01*
X148354406Y-53340705D01*
X148973028Y-53979073D01*
X148989932Y-53993664D01*
X149005058Y-54010114D01*
X149068564Y-54061539D01*
X149068583Y-54061555D01*
X149068591Y-54061560D01*
X149790479Y-54580289D01*
X149809702Y-54591657D01*
X149827500Y-54605167D01*
X149899130Y-54644546D01*
X150701477Y-55027245D01*
X150722411Y-55035030D01*
X150742319Y-55045174D01*
X150819790Y-55071246D01*
X151677226Y-55305814D01*
X151699207Y-55309769D01*
X151720597Y-55316227D01*
X151801455Y-55328166D01*
X151801460Y-55328167D01*
X151801461Y-55328167D01*
X152686885Y-55407189D01*
X152712079Y-55407189D01*
X153000385Y-55435457D01*
X153241236Y-55508174D01*
X153463372Y-55626286D01*
X153658340Y-55785298D01*
X153818705Y-55979145D01*
X153938367Y-56200457D01*
X154012764Y-56440795D01*
X154041649Y-56715617D01*
X154040763Y-56756860D01*
X154040066Y-56763807D01*
X153990053Y-83721280D01*
X153963674Y-83990311D01*
X153893881Y-84221474D01*
X153780520Y-84434677D01*
X153627908Y-84621797D01*
X153441854Y-84775716D01*
X153229450Y-84890562D01*
X152995592Y-84962954D01*
X152766823Y-84989157D01*
X152520521Y-84984041D01*
X152519275Y-84984126D01*
X152518026Y-84983993D01*
X152436352Y-84987290D01*
X151559400Y-85073450D01*
X151537454Y-85077601D01*
X151515170Y-85079203D01*
X151435370Y-85096911D01*
X150587534Y-85337004D01*
X150566669Y-85344976D01*
X150545020Y-85350499D01*
X150469634Y-85382052D01*
X150469618Y-85382058D01*
X150469614Y-85382061D01*
X149677699Y-85768497D01*
X149658579Y-85780036D01*
X149638248Y-85789306D01*
X149569626Y-85833719D01*
X148858655Y-86354285D01*
X148841875Y-86369032D01*
X148823512Y-86381753D01*
X148763839Y-86437616D01*
X148156288Y-87075858D01*
X148142387Y-87093341D01*
X148126565Y-87109114D01*
X148077727Y-87174662D01*
X147592802Y-87910404D01*
X147582214Y-87930077D01*
X147569438Y-87948399D01*
X147532980Y-88021558D01*
X147186007Y-88831546D01*
X147179073Y-88852776D01*
X147169740Y-88873077D01*
X147146814Y-88951537D01*
X146948761Y-89810166D01*
X146945695Y-89832293D01*
X146940106Y-89853922D01*
X146931436Y-89935202D01*
X146889878Y-90788353D01*
X146835220Y-91187273D01*
X146715334Y-91535410D01*
X146530114Y-91853627D01*
X146286610Y-92129808D01*
X145994100Y-92353435D01*
X145663723Y-92515988D01*
X145302630Y-92612730D01*
X144972172Y-92639893D01*
X117786022Y-92540128D01*
X117305867Y-92493048D01*
X116878647Y-92364063D01*
X116484616Y-92154554D01*
X116138786Y-91872501D01*
X115854328Y-91528651D01*
X115642073Y-91136093D01*
X115510109Y-90709788D01*
X115460000Y-90233036D01*
X115460000Y-81715123D01*
X115457446Y-81689192D01*
X115404455Y-80967586D01*
X115401747Y-80951047D01*
X115401220Y-80934288D01*
X115386745Y-80853839D01*
X115179225Y-79989457D01*
X115172100Y-79968284D01*
X115167455Y-79946433D01*
X115138963Y-79869821D01*
X115138963Y-79869820D01*
X115138960Y-79869815D01*
X114781653Y-79055849D01*
X114770895Y-79036280D01*
X114762452Y-79015591D01*
X114720842Y-78945233D01*
X114225039Y-78207399D01*
X114210982Y-78190040D01*
X114199011Y-78171177D01*
X114145600Y-78109300D01*
X113526972Y-77470927D01*
X113510070Y-77456337D01*
X113494942Y-77439886D01*
X113431417Y-77388446D01*
X112709521Y-76869711D01*
X112690297Y-76858342D01*
X112672500Y-76844833D01*
X112600870Y-76805454D01*
X111798523Y-76422754D01*
X111777583Y-76414967D01*
X111757681Y-76404826D01*
X111680220Y-76378758D01*
X111680210Y-76378754D01*
X111680207Y-76378753D01*
X110822774Y-76144186D01*
X110800791Y-76140231D01*
X110779402Y-76133773D01*
X110698539Y-76121833D01*
X109893671Y-76050000D01*
X128023000Y-76050000D01*
X128023000Y-82450000D01*
X128025440Y-82474776D01*
X128032667Y-82498601D01*
X128044403Y-82520557D01*
X128060197Y-82539803D01*
X128079443Y-82555597D01*
X128101399Y-82567333D01*
X128125224Y-82574560D01*
X128150000Y-82577000D01*
X134350000Y-82577000D01*
X134374776Y-82574560D01*
X134398601Y-82567333D01*
X134420557Y-82555597D01*
X134439803Y-82539803D01*
X134455597Y-82520557D01*
X134467333Y-82498601D01*
X134474560Y-82474776D01*
X134477000Y-82450000D01*
X134477000Y-81375701D01*
X148415000Y-81375701D01*
X148415000Y-81924299D01*
X148522026Y-82462354D01*
X148731965Y-82969192D01*
X149036750Y-83425334D01*
X149424666Y-83813250D01*
X149880808Y-84118035D01*
X150387646Y-84327974D01*
X150925701Y-84435000D01*
X151474299Y-84435000D01*
X152012354Y-84327974D01*
X152519192Y-84118035D01*
X152975334Y-83813250D01*
X153363250Y-83425334D01*
X153668035Y-82969192D01*
X153877974Y-82462354D01*
X153985000Y-81924299D01*
X153985000Y-81375701D01*
X153877974Y-80837646D01*
X153668035Y-80330808D01*
X153363250Y-79874666D01*
X152975334Y-79486750D01*
X152519192Y-79181965D01*
X152012354Y-78972026D01*
X151474299Y-78865000D01*
X150925701Y-78865000D01*
X150387646Y-78972026D01*
X149880808Y-79181965D01*
X149424666Y-79486750D01*
X149036750Y-79874666D01*
X148731965Y-80330808D01*
X148522026Y-80837646D01*
X148415000Y-81375701D01*
X134477000Y-81375701D01*
X134477000Y-76050000D01*
X134474560Y-76025224D01*
X134467333Y-76001399D01*
X134455597Y-75979443D01*
X134439803Y-75960197D01*
X134420557Y-75944403D01*
X134398601Y-75932667D01*
X134374776Y-75925440D01*
X134350000Y-75923000D01*
X128150000Y-75923000D01*
X128125224Y-75925440D01*
X128101399Y-75932667D01*
X128079443Y-75944403D01*
X128060197Y-75960197D01*
X128044403Y-75979443D01*
X128032667Y-76001399D01*
X128025440Y-76025224D01*
X128023000Y-76050000D01*
X109893671Y-76050000D01*
X109816168Y-76043083D01*
X109500101Y-76012093D01*
X109259718Y-75939517D01*
X109038011Y-75821633D01*
X108843420Y-75662929D01*
X108683365Y-75469455D01*
X108563936Y-75248576D01*
X108489683Y-75008701D01*
X108484345Y-74957911D01*
X122515000Y-74957911D01*
X122515000Y-75142089D01*
X122550932Y-75322729D01*
X122621414Y-75492889D01*
X122723738Y-75646028D01*
X122853972Y-75776262D01*
X123007111Y-75878586D01*
X123177271Y-75949068D01*
X123357911Y-75985000D01*
X123542089Y-75985000D01*
X123722729Y-75949068D01*
X123756692Y-75935000D01*
X125943308Y-75935000D01*
X125977271Y-75949068D01*
X126157911Y-75985000D01*
X126342089Y-75985000D01*
X126522729Y-75949068D01*
X126556692Y-75935000D01*
X127806531Y-75935000D01*
X127850000Y-75939281D01*
X127893469Y-75935000D01*
X127893477Y-75935000D01*
X128023490Y-75922195D01*
X128190313Y-75871589D01*
X128344059Y-75789411D01*
X128478817Y-75678817D01*
X128506534Y-75645044D01*
X134893685Y-69257893D01*
X141115000Y-69257893D01*
X141115000Y-69442071D01*
X141150932Y-69622711D01*
X141221414Y-69792871D01*
X141323738Y-69946010D01*
X141453972Y-70076244D01*
X141607111Y-70178568D01*
X141777271Y-70249050D01*
X141938637Y-70281148D01*
X142039698Y-70364087D01*
X142167385Y-70432337D01*
X142305933Y-70474365D01*
X142450018Y-70488556D01*
X142486123Y-70485000D01*
X147667049Y-70485000D01*
X147807111Y-70578586D01*
X147977271Y-70649068D01*
X148157911Y-70685000D01*
X148342089Y-70685000D01*
X148522729Y-70649068D01*
X148692889Y-70578586D01*
X148846028Y-70476262D01*
X148976262Y-70346028D01*
X149078586Y-70192889D01*
X149149068Y-70022729D01*
X149185000Y-69842089D01*
X149185000Y-69657911D01*
X149149068Y-69477271D01*
X149078586Y-69307111D01*
X148976262Y-69153972D01*
X148966030Y-69143740D01*
X149765000Y-69143740D01*
X149765000Y-69436260D01*
X149822068Y-69723158D01*
X149934010Y-69993411D01*
X150096525Y-70236632D01*
X150303368Y-70443475D01*
X150546589Y-70605990D01*
X150816842Y-70717932D01*
X151103740Y-70775000D01*
X151396260Y-70775000D01*
X151683158Y-70717932D01*
X151953411Y-70605990D01*
X152196632Y-70443475D01*
X152403475Y-70236632D01*
X152565990Y-69993411D01*
X152677932Y-69723158D01*
X152735000Y-69436260D01*
X152735000Y-69143740D01*
X152677932Y-68856842D01*
X152565990Y-68586589D01*
X152403475Y-68343368D01*
X152196632Y-68136525D01*
X152014466Y-68014805D01*
X152131355Y-67945178D01*
X152347588Y-67750269D01*
X152521641Y-67516920D01*
X152646825Y-67254099D01*
X152691476Y-67106890D01*
X152570155Y-66877000D01*
X151377000Y-66877000D01*
X151377000Y-66897000D01*
X151123000Y-66897000D01*
X151123000Y-66877000D01*
X149929845Y-66877000D01*
X149808524Y-67106890D01*
X149853175Y-67254099D01*
X149978359Y-67516920D01*
X150152412Y-67750269D01*
X150368645Y-67945178D01*
X150485534Y-68014805D01*
X150303368Y-68136525D01*
X150096525Y-68343368D01*
X149934010Y-68586589D01*
X149822068Y-68856842D01*
X149765000Y-69143740D01*
X148966030Y-69143740D01*
X148846028Y-69023738D01*
X148692889Y-68921414D01*
X148522729Y-68850932D01*
X148342089Y-68815000D01*
X148157911Y-68815000D01*
X147977271Y-68850932D01*
X147807111Y-68921414D01*
X147667049Y-69015000D01*
X142923282Y-69015000D01*
X142878586Y-68907093D01*
X142776262Y-68753954D01*
X142646028Y-68623720D01*
X142492889Y-68521396D01*
X142322729Y-68450914D01*
X142142089Y-68414982D01*
X141957911Y-68414982D01*
X141777271Y-68450914D01*
X141607111Y-68521396D01*
X141453972Y-68623720D01*
X141323738Y-68753954D01*
X141221414Y-68907093D01*
X141150932Y-69077253D01*
X141115000Y-69257893D01*
X134893685Y-69257893D01*
X137716579Y-66435000D01*
X139643308Y-66435000D01*
X139677271Y-66449068D01*
X139857911Y-66485000D01*
X140042089Y-66485000D01*
X140222729Y-66449068D01*
X140392889Y-66378586D01*
X140546028Y-66276262D01*
X140676262Y-66146028D01*
X140778586Y-65992889D01*
X140849068Y-65822729D01*
X140885000Y-65642089D01*
X140885000Y-65457911D01*
X140849068Y-65277271D01*
X140778586Y-65107111D01*
X140676262Y-64953972D01*
X140546028Y-64823738D01*
X140392889Y-64721414D01*
X140222729Y-64650932D01*
X140042089Y-64615000D01*
X139857911Y-64615000D01*
X139677271Y-64650932D01*
X139643308Y-64665000D01*
X137393469Y-64665000D01*
X137350000Y-64660719D01*
X137306531Y-64665000D01*
X137306523Y-64665000D01*
X137176510Y-64677805D01*
X137009687Y-64728411D01*
X136860433Y-64808188D01*
X136855941Y-64810589D01*
X136754953Y-64893468D01*
X136754951Y-64893470D01*
X136721183Y-64921183D01*
X136693470Y-64954951D01*
X127483422Y-74165000D01*
X126556692Y-74165000D01*
X126522729Y-74150932D01*
X126342089Y-74115000D01*
X126157911Y-74115000D01*
X125977271Y-74150932D01*
X125943308Y-74165000D01*
X123756692Y-74165000D01*
X123722729Y-74150932D01*
X123542089Y-74115000D01*
X123357911Y-74115000D01*
X123177271Y-74150932D01*
X123007111Y-74221414D01*
X122853972Y-74323738D01*
X122723738Y-74453972D01*
X122621414Y-74607111D01*
X122550932Y-74777271D01*
X122515000Y-74957911D01*
X108484345Y-74957911D01*
X108460000Y-74726291D01*
X108460000Y-69742702D01*
X119236903Y-69742702D01*
X119308486Y-69986671D01*
X119563996Y-70107571D01*
X119838184Y-70176300D01*
X120120512Y-70190217D01*
X120400130Y-70148787D01*
X120666292Y-70053603D01*
X120791514Y-69986671D01*
X120863097Y-69742702D01*
X120050000Y-68929605D01*
X119236903Y-69742702D01*
X108460000Y-69742702D01*
X108460000Y-68820512D01*
X118609783Y-68820512D01*
X118651213Y-69100130D01*
X118746397Y-69366292D01*
X118813329Y-69491514D01*
X119057298Y-69563097D01*
X119870395Y-68750000D01*
X120229605Y-68750000D01*
X121042702Y-69563097D01*
X121286671Y-69491514D01*
X121407571Y-69236004D01*
X121476300Y-68961816D01*
X121490217Y-68679488D01*
X121448787Y-68399870D01*
X121353603Y-68133708D01*
X121286671Y-68008486D01*
X121042702Y-67936903D01*
X120229605Y-68750000D01*
X119870395Y-68750000D01*
X119057298Y-67936903D01*
X118813329Y-68008486D01*
X118692429Y-68263996D01*
X118623700Y-68538184D01*
X118609783Y-68820512D01*
X108460000Y-68820512D01*
X108460000Y-67540190D01*
X108549709Y-67629899D01*
X108665075Y-67514533D01*
X108775921Y-67791714D01*
X109086840Y-67945089D01*
X109421705Y-68034860D01*
X109767650Y-68057576D01*
X110111380Y-68012366D01*
X110439685Y-67900966D01*
X110644079Y-67791714D01*
X110754926Y-67514531D01*
X113745074Y-67514531D01*
X113855921Y-67791714D01*
X114166840Y-67945089D01*
X114501705Y-68034860D01*
X114847650Y-68057576D01*
X115191380Y-68012366D01*
X115519685Y-67900966D01*
X115724079Y-67791714D01*
X115737842Y-67757298D01*
X119236903Y-67757298D01*
X120050000Y-68570395D01*
X120863097Y-67757298D01*
X120791514Y-67513329D01*
X120536004Y-67392429D01*
X120261816Y-67323700D01*
X119979488Y-67309783D01*
X119699870Y-67351213D01*
X119433708Y-67446397D01*
X119308486Y-67513329D01*
X119236903Y-67757298D01*
X115737842Y-67757298D01*
X115834926Y-67514531D01*
X114790000Y-66469605D01*
X113745074Y-67514531D01*
X110754926Y-67514531D01*
X109710000Y-66469605D01*
X109695858Y-66483748D01*
X109516253Y-66304143D01*
X109530395Y-66290000D01*
X109889605Y-66290000D01*
X110934531Y-67334926D01*
X111211714Y-67224079D01*
X111365089Y-66913160D01*
X111454860Y-66578295D01*
X111470004Y-66347650D01*
X113022424Y-66347650D01*
X113067634Y-66691380D01*
X113179034Y-67019685D01*
X113288286Y-67224079D01*
X113565469Y-67334926D01*
X114610395Y-66290000D01*
X114969605Y-66290000D01*
X116014531Y-67334926D01*
X116291714Y-67224079D01*
X116445089Y-66913160D01*
X116534860Y-66578295D01*
X116557576Y-66232350D01*
X116512366Y-65888620D01*
X116400966Y-65560315D01*
X116291714Y-65355921D01*
X116014531Y-65245074D01*
X114969605Y-66290000D01*
X114610395Y-66290000D01*
X113565469Y-65245074D01*
X113288286Y-65355921D01*
X113134911Y-65666840D01*
X113045140Y-66001705D01*
X113022424Y-66347650D01*
X111470004Y-66347650D01*
X111477576Y-66232350D01*
X111432366Y-65888620D01*
X111320966Y-65560315D01*
X111211714Y-65355921D01*
X110934531Y-65245074D01*
X109889605Y-66290000D01*
X109530395Y-66290000D01*
X109516253Y-66275858D01*
X109695858Y-66096253D01*
X109710000Y-66110395D01*
X110754926Y-65065469D01*
X110644079Y-64788286D01*
X110333160Y-64634911D01*
X109998295Y-64545140D01*
X109652350Y-64522424D01*
X109308620Y-64567634D01*
X108980315Y-64679034D01*
X108775921Y-64788286D01*
X108665075Y-65065467D01*
X108549709Y-64950101D01*
X108460000Y-65039810D01*
X108460000Y-63586504D01*
X110590000Y-63586504D01*
X110590000Y-63913496D01*
X110653793Y-64234204D01*
X110778927Y-64536305D01*
X110960594Y-64808188D01*
X111191812Y-65039406D01*
X111463695Y-65221073D01*
X111765796Y-65346207D01*
X112086504Y-65410000D01*
X112413496Y-65410000D01*
X112734204Y-65346207D01*
X113036305Y-65221073D01*
X113269182Y-65065469D01*
X113745074Y-65065469D01*
X114790000Y-66110395D01*
X115834926Y-65065469D01*
X115724079Y-64788286D01*
X115413160Y-64634911D01*
X115078295Y-64545140D01*
X114732350Y-64522424D01*
X114388620Y-64567634D01*
X114060315Y-64679034D01*
X113855921Y-64788286D01*
X113745074Y-65065469D01*
X113269182Y-65065469D01*
X113308188Y-65039406D01*
X113539406Y-64808188D01*
X113721073Y-64536305D01*
X113846207Y-64234204D01*
X113910000Y-63913496D01*
X113910000Y-63608665D01*
X118615000Y-63608665D01*
X118615000Y-63891335D01*
X118670147Y-64168574D01*
X118778320Y-64429727D01*
X118935363Y-64664759D01*
X119135241Y-64864637D01*
X119370273Y-65021680D01*
X119631426Y-65129853D01*
X119908665Y-65185000D01*
X120191335Y-65185000D01*
X120468574Y-65129853D01*
X120729727Y-65021680D01*
X120964759Y-64864637D01*
X121164637Y-64664759D01*
X121321680Y-64429727D01*
X121429853Y-64168574D01*
X121485000Y-63891335D01*
X121485000Y-63608665D01*
X121435537Y-63360000D01*
X149761928Y-63360000D01*
X149761928Y-65060000D01*
X149774188Y-65184482D01*
X149810498Y-65304180D01*
X149869463Y-65414494D01*
X149948815Y-65511185D01*
X150045506Y-65590537D01*
X150155820Y-65649502D01*
X150236466Y-65673966D01*
X150152412Y-65749731D01*
X149978359Y-65983080D01*
X149853175Y-66245901D01*
X149808524Y-66393110D01*
X149929845Y-66623000D01*
X151123000Y-66623000D01*
X151123000Y-66603000D01*
X151377000Y-66603000D01*
X151377000Y-66623000D01*
X152570155Y-66623000D01*
X152691476Y-66393110D01*
X152646825Y-66245901D01*
X152521641Y-65983080D01*
X152347588Y-65749731D01*
X152263534Y-65673966D01*
X152344180Y-65649502D01*
X152454494Y-65590537D01*
X152551185Y-65511185D01*
X152630537Y-65414494D01*
X152689502Y-65304180D01*
X152725812Y-65184482D01*
X152738072Y-65060000D01*
X152738072Y-63360000D01*
X152725812Y-63235518D01*
X152689502Y-63115820D01*
X152630537Y-63005506D01*
X152551185Y-62908815D01*
X152454494Y-62829463D01*
X152344180Y-62770498D01*
X152224482Y-62734188D01*
X152100000Y-62721928D01*
X150400000Y-62721928D01*
X150275518Y-62734188D01*
X150155820Y-62770498D01*
X150045506Y-62829463D01*
X149948815Y-62908815D01*
X149869463Y-63005506D01*
X149810498Y-63115820D01*
X149774188Y-63235518D01*
X149761928Y-63360000D01*
X121435537Y-63360000D01*
X121429853Y-63331426D01*
X121321680Y-63070273D01*
X121164637Y-62835241D01*
X120964759Y-62635363D01*
X120729727Y-62478320D01*
X120468574Y-62370147D01*
X120191335Y-62315000D01*
X119908665Y-62315000D01*
X119631426Y-62370147D01*
X119370273Y-62478320D01*
X119135241Y-62635363D01*
X118935363Y-62835241D01*
X118778320Y-63070273D01*
X118670147Y-63331426D01*
X118615000Y-63608665D01*
X113910000Y-63608665D01*
X113910000Y-63586504D01*
X113846207Y-63265796D01*
X113721073Y-62963695D01*
X113539406Y-62691812D01*
X113308188Y-62460594D01*
X113269183Y-62434531D01*
X113745074Y-62434531D01*
X113855921Y-62711714D01*
X114166840Y-62865089D01*
X114501705Y-62954860D01*
X114847650Y-62977576D01*
X115191380Y-62932366D01*
X115519685Y-62820966D01*
X115724079Y-62711714D01*
X115834926Y-62434531D01*
X114790000Y-61389605D01*
X113745074Y-62434531D01*
X113269183Y-62434531D01*
X113036305Y-62278927D01*
X112734204Y-62153793D01*
X112413496Y-62090000D01*
X112086504Y-62090000D01*
X111765796Y-62153793D01*
X111463695Y-62278927D01*
X111191812Y-62460594D01*
X110960594Y-62691812D01*
X110778927Y-62963695D01*
X110653793Y-63265796D01*
X110590000Y-63586504D01*
X108460000Y-63586504D01*
X108460000Y-62460190D01*
X108549709Y-62549899D01*
X108665075Y-62434533D01*
X108775921Y-62711714D01*
X109086840Y-62865089D01*
X109421705Y-62954860D01*
X109767650Y-62977576D01*
X110111380Y-62932366D01*
X110439685Y-62820966D01*
X110644079Y-62711714D01*
X110754926Y-62434531D01*
X109710000Y-61389605D01*
X109695858Y-61403748D01*
X109516253Y-61224143D01*
X109530395Y-61210000D01*
X109889605Y-61210000D01*
X110934531Y-62254926D01*
X111211714Y-62144079D01*
X111365089Y-61833160D01*
X111454860Y-61498295D01*
X111470004Y-61267650D01*
X113022424Y-61267650D01*
X113067634Y-61611380D01*
X113179034Y-61939685D01*
X113288286Y-62144079D01*
X113565469Y-62254926D01*
X114610395Y-61210000D01*
X114969605Y-61210000D01*
X116014531Y-62254926D01*
X116291714Y-62144079D01*
X116445089Y-61833160D01*
X116534860Y-61498295D01*
X116557576Y-61152350D01*
X116512366Y-60808620D01*
X116400966Y-60480315D01*
X116291714Y-60275921D01*
X116014531Y-60165074D01*
X114969605Y-61210000D01*
X114610395Y-61210000D01*
X113565469Y-60165074D01*
X113288286Y-60275921D01*
X113134911Y-60586840D01*
X113045140Y-60921705D01*
X113022424Y-61267650D01*
X111470004Y-61267650D01*
X111477576Y-61152350D01*
X111432366Y-60808620D01*
X111320966Y-60480315D01*
X111211714Y-60275921D01*
X110934531Y-60165074D01*
X109889605Y-61210000D01*
X109530395Y-61210000D01*
X109516253Y-61195858D01*
X109695858Y-61016253D01*
X109710000Y-61030395D01*
X110754926Y-59985469D01*
X113745074Y-59985469D01*
X114790000Y-61030395D01*
X115834926Y-59985469D01*
X115724079Y-59708286D01*
X115413160Y-59554911D01*
X115078295Y-59465140D01*
X114732350Y-59442424D01*
X114388620Y-59487634D01*
X114060315Y-59599034D01*
X113855921Y-59708286D01*
X113745074Y-59985469D01*
X110754926Y-59985469D01*
X110644079Y-59708286D01*
X110333160Y-59554911D01*
X109998295Y-59465140D01*
X109652350Y-59442424D01*
X109308620Y-59487634D01*
X108980315Y-59599034D01*
X108775921Y-59708286D01*
X108665075Y-59985467D01*
X108549709Y-59870101D01*
X108460000Y-59959810D01*
X108460000Y-49225701D01*
X108465000Y-49225701D01*
X108465000Y-49774299D01*
X108572026Y-50312354D01*
X108781965Y-50819192D01*
X109086750Y-51275334D01*
X109474666Y-51663250D01*
X109930808Y-51968035D01*
X110437646Y-52177974D01*
X110975701Y-52285000D01*
X111524299Y-52285000D01*
X112062354Y-52177974D01*
X112569192Y-51968035D01*
X113025334Y-51663250D01*
X113413250Y-51275334D01*
X113718035Y-50819192D01*
X113927974Y-50312354D01*
X114035000Y-49774299D01*
X114035000Y-49225701D01*
X113927974Y-48687646D01*
X113718035Y-48180808D01*
X113413250Y-47724666D01*
X113025334Y-47336750D01*
X112569192Y-47031965D01*
X112062354Y-46822026D01*
X111524299Y-46715000D01*
X110975701Y-46715000D01*
X110437646Y-46822026D01*
X109930808Y-47031965D01*
X109474666Y-47336750D01*
X109086750Y-47724666D01*
X108781965Y-48180808D01*
X108572026Y-48687646D01*
X108465000Y-49225701D01*
X108460000Y-49225701D01*
X108460000Y-47800784D01*
X108461142Y-47793684D01*
X108461685Y-47783786D01*
X108477003Y-47463436D01*
X108537484Y-47219728D01*
X108644149Y-46992412D01*
X108792937Y-46790141D01*
X108978177Y-46620623D01*
X109192817Y-46490313D01*
X109428684Y-46404173D01*
X109701243Y-46361676D01*
X109762945Y-46359919D01*
X109835897Y-46359334D01*
X109848443Y-46358113D01*
X109904656Y-46355443D01*
X110788698Y-46262228D01*
X110810615Y-46257920D01*
X110832887Y-46256160D01*
X110912558Y-46237884D01*
X111766121Y-45989592D01*
X111786928Y-45981472D01*
X111808537Y-45975795D01*
X111883713Y-45943700D01*
X112679818Y-45548179D01*
X112698855Y-45536504D01*
X112719121Y-45527089D01*
X112787425Y-45482188D01*
X113500907Y-44951940D01*
X113517582Y-44937074D01*
X113535853Y-44924223D01*
X113595127Y-44867937D01*
X114203434Y-44219723D01*
X114217210Y-44202142D01*
X114232920Y-44186256D01*
X114281289Y-44120362D01*
X114765194Y-43374670D01*
X114775638Y-43354928D01*
X114788288Y-43336510D01*
X114824224Y-43263093D01*
X115168429Y-42443494D01*
X115175211Y-42422218D01*
X115184401Y-42401847D01*
X115206768Y-42323226D01*
X115400395Y-41455627D01*
X115416829Y-41330472D01*
X115416094Y-41315004D01*
X115455645Y-40843590D01*
X115579071Y-40413033D01*
X115783776Y-40014648D01*
X116061958Y-39663615D01*
X116403028Y-39373299D01*
X116793991Y-39154759D01*
X117219958Y-39016319D01*
X117691963Y-38960000D01*
X144715279Y-38960000D01*
X145194134Y-39006953D01*
M02*
