G04 #@! TF.GenerationSoftware,KiCad,Pcbnew,(6.0.1)*
G04 #@! TF.CreationDate,2022-09-06T12:24:57+02:00*
G04 #@! TF.ProjectId,SFH203_photodetector,53464832-3033-45f7-9068-6f746f646574,1.5*
G04 #@! TF.SameCoordinates,Original*
G04 #@! TF.FileFunction,Soldermask,Top*
G04 #@! TF.FilePolarity,Negative*
%FSLAX46Y46*%
G04 Gerber Fmt 4.6, Leading zero omitted, Abs format (unit mm)*
G04 Created by KiCad (PCBNEW (6.0.1)) date 2022-09-06 12:24:57*
%MOMM*%
%LPD*%
G01*
G04 APERTURE LIST*
G04 Aperture macros list*
%AMRoundRect*
0 Rectangle with rounded corners*
0 $1 Rounding radius*
0 $2 $3 $4 $5 $6 $7 $8 $9 X,Y pos of 4 corners*
0 Add a 4 corners polygon primitive as box body*
4,1,4,$2,$3,$4,$5,$6,$7,$8,$9,$2,$3,0*
0 Add four circle primitives for the rounded corners*
1,1,$1+$1,$2,$3*
1,1,$1+$1,$4,$5*
1,1,$1+$1,$6,$7*
1,1,$1+$1,$8,$9*
0 Add four rect primitives between the rounded corners*
20,1,$1+$1,$2,$3,$4,$5,0*
20,1,$1+$1,$4,$5,$6,$7,0*
20,1,$1+$1,$6,$7,$8,$9,0*
20,1,$1+$1,$8,$9,$2,$3,0*%
%AMFreePoly0*
4,1,49,0.614018,1.086157,0.709689,1.067127,0.781785,1.037264,0.862891,0.983071,0.918071,0.927891,0.972264,0.846785,1.002127,0.774689,1.021157,0.679018,1.025000,0.640000,1.025000,-0.640000,1.021157,-0.679018,1.002127,-0.774689,0.972264,-0.846785,0.918071,-0.927891,0.862891,-0.983071,0.781785,-1.037264,0.709689,-1.067127,0.614018,-1.086157,0.575000,-1.090000,-0.755377,-1.090000,
-0.831493,-1.109029,-0.880000,-1.115000,-1.750000,-1.115000,-1.836777,-1.095194,-1.906366,-1.039698,-1.944986,-0.959504,-1.950000,-0.915000,-1.950000,-0.665000,-1.930194,-0.578223,-1.874698,-0.508634,-1.794504,-0.470014,-1.750000,-0.465000,-1.090006,-0.465000,-1.065288,-0.462529,-1.055827,-0.459572,-1.047464,-0.454993,-1.040499,-0.449311,-1.034161,-0.441337,-1.030328,-0.434193,-1.027547,-0.424857,
-1.025000,-0.399900,-1.025000,0.640000,-1.005194,0.726777,-0.966421,0.781421,-0.716421,1.031421,-0.641056,1.078777,-0.575000,1.090000,0.575000,1.090000,0.614018,1.086157,0.614018,1.086157,$1*%
%AMFreePoly1*
4,1,50,0.614018,0.731157,0.709689,0.712127,0.781785,0.682264,0.862891,0.628071,0.918071,0.572891,0.972264,0.491785,0.981288,0.470000,1.750000,0.470000,1.836777,0.450194,1.906366,0.394698,1.944986,0.314504,1.950000,0.270000,1.950000,0.020000,1.930194,-0.066777,1.874698,-0.136366,1.794504,-0.174986,1.750000,-0.180000,1.025000,-0.180000,1.025000,-0.285000,1.021157,-0.324018,
1.002127,-0.419689,0.972264,-0.491785,0.918071,-0.572891,0.862891,-0.628071,0.781785,-0.682264,0.709689,-0.712127,0.614018,-0.731157,0.575000,-0.735000,-0.575000,-0.735000,-0.614018,-0.731157,-0.709689,-0.712127,-0.781785,-0.682264,-0.862891,-0.628071,-0.918071,-0.572891,-0.972264,-0.491785,-1.002127,-0.419689,-1.021157,-0.324018,-1.025000,-0.285000,-1.025000,0.285000,-1.021157,0.324018,
-1.002127,0.419689,-0.972264,0.491785,-0.918071,0.572891,-0.862891,0.628071,-0.781785,0.682264,-0.709689,0.712127,-0.614018,0.731157,-0.575000,0.735000,0.575000,0.735000,0.614018,0.731157,0.614018,0.731157,$1*%
%AMFreePoly2*
4,1,41,0.586777,0.930194,0.656366,0.874698,0.694986,0.794504,0.700000,0.750000,0.700000,-0.750000,0.680194,-0.836777,0.624698,-0.906366,0.544504,-0.944986,0.500000,-0.950000,0.000000,-0.950000,-0.023504,-0.944635,-0.083606,-0.943534,-0.139582,-0.934468,-0.274897,-0.892193,-0.326080,-0.867780,-0.444090,-0.789225,-0.486362,-0.751429,-0.577582,-0.642910,-0.607548,-0.594768,-0.664643,-0.465009,
-0.679893,-0.410393,-0.697476,-0.275933,-0.697084,-0.275882,-0.700000,-0.250000,-0.700000,0.250000,-0.697921,0.259109,-0.697582,0.286880,-0.675771,0.426957,-0.659192,0.481183,-0.598944,0.609508,-0.567811,0.656904,-0.473967,0.763162,-0.430783,0.799915,-0.310888,0.875563,-0.259125,0.898717,-0.122818,0.937674,-0.066635,0.945370,-0.042411,0.945222,0.000000,0.950000,0.500000,0.950000,
0.586777,0.930194,0.586777,0.930194,$1*%
%AMFreePoly3*
4,1,41,0.022678,0.944824,0.075125,0.944504,0.131210,0.936123,0.267031,0.895504,0.318507,0.871718,0.437469,0.794611,0.480202,0.757333,0.572740,0.649936,0.603290,0.602165,0.661967,0.473113,0.677883,0.418686,0.697980,0.278353,0.700000,0.250000,0.700000,-0.250000,0.699985,-0.252439,0.699836,-0.264655,0.697079,-0.295398,0.673559,-0.435199,0.656318,-0.489221,0.594506,-0.616800,
0.562797,-0.663810,0.467662,-0.768914,0.424032,-0.805137,0.303222,-0.879314,0.251181,-0.901834,0.114408,-0.939123,0.058135,-0.946132,0.037663,-0.945757,0.000000,-0.950000,-0.500000,-0.950000,-0.586777,-0.930194,-0.656366,-0.874698,-0.694986,-0.794504,-0.700000,-0.750000,-0.700000,0.750000,-0.680194,0.836777,-0.624698,0.906366,-0.544504,0.944986,-0.500000,0.950000,0.000000,0.950000,
0.022678,0.944824,0.022678,0.944824,$1*%
G04 Aperture macros list end*
%ADD10RoundRect,0.450000X1.075000X-0.375000X1.075000X0.375000X-1.075000X0.375000X-1.075000X-0.375000X0*%
%ADD11RoundRect,0.418750X-0.256250X0.218750X-0.256250X-0.218750X0.256250X-0.218750X0.256250X0.218750X0*%
%ADD12RoundRect,0.418750X0.218750X0.256250X-0.218750X0.256250X-0.218750X-0.256250X0.218750X-0.256250X0*%
%ADD13RoundRect,0.443750X-0.456250X0.243750X-0.456250X-0.243750X0.456250X-0.243750X0.456250X0.243750X0*%
%ADD14C,2.000000*%
%ADD15RoundRect,0.418750X-0.218750X-0.256250X0.218750X-0.256250X0.218750X0.256250X-0.218750X0.256250X0*%
%ADD16C,4.700000*%
%ADD17RoundRect,0.200000X-0.350000X-0.125000X0.350000X-0.125000X0.350000X0.125000X-0.350000X0.125000X0*%
%ADD18FreePoly0,0.000000*%
%ADD19FreePoly1,0.000000*%
%ADD20RoundRect,0.200000X-0.850000X-0.850000X0.850000X-0.850000X0.850000X0.850000X-0.850000X0.850000X0*%
%ADD21O,2.100000X2.100000*%
%ADD22RoundRect,0.450000X-0.375000X-0.625000X0.375000X-0.625000X0.375000X0.625000X-0.375000X0.625000X0*%
%ADD23C,2.650000*%
%ADD24RoundRect,0.400000X0.275000X-0.200000X0.275000X0.200000X-0.275000X0.200000X-0.275000X-0.200000X0*%
%ADD25FreePoly2,90.000000*%
%ADD26FreePoly3,90.000000*%
%ADD27RoundRect,0.350000X-0.825000X-0.150000X0.825000X-0.150000X0.825000X0.150000X-0.825000X0.150000X0*%
%ADD28RoundRect,0.200000X-1.205000X-1.905000X1.205000X-1.905000X1.205000X1.905000X-1.205000X1.905000X0*%
%ADD29C,1.700000*%
%ADD30C,1.500000*%
G04 APERTURE END LIST*
D10*
X139850000Y-61950000D03*
X139850000Y-59150000D03*
X141050000Y-74450000D03*
X141050000Y-71650000D03*
D11*
X122789400Y-68928200D03*
X122789400Y-70503200D03*
D12*
X129237500Y-74550000D03*
X127662500Y-74550000D03*
D13*
X124550000Y-63812500D03*
X124550000Y-65687500D03*
D14*
X120050000Y-63750000D03*
X120050000Y-58750000D03*
D15*
X131562500Y-67050000D03*
X133137500Y-67050000D03*
D16*
X111250000Y-49500000D03*
X151200000Y-81650000D03*
D11*
X124440400Y-68928400D03*
X124440400Y-70503400D03*
D10*
X146250000Y-61950000D03*
X146250000Y-59150000D03*
X146450000Y-74550000D03*
X146450000Y-71750000D03*
D11*
X140950000Y-65562500D03*
X140950000Y-67137500D03*
D17*
X142650000Y-65650000D03*
X142650000Y-66150000D03*
X142650000Y-66650000D03*
D18*
X144050000Y-66360000D03*
D17*
X142650000Y-67650000D03*
X142650000Y-68150000D03*
X142650000Y-68650000D03*
X145450000Y-68650000D03*
D19*
X144050000Y-68295000D03*
D17*
X145450000Y-67650000D03*
X145450000Y-67150000D03*
X145450000Y-66650000D03*
X145450000Y-66150000D03*
X145450000Y-65650000D03*
D11*
X147750000Y-67162500D03*
X147750000Y-68737500D03*
D20*
X151250000Y-64210000D03*
D21*
X151250000Y-66750000D03*
X151250000Y-69290000D03*
D22*
X127050000Y-63750000D03*
X129850000Y-63750000D03*
D23*
X112250000Y-63750000D03*
X114790000Y-61210000D03*
X114790000Y-66290000D03*
X109710000Y-66290000D03*
X109710000Y-61210000D03*
D24*
X137950000Y-69375000D03*
X137950000Y-67725000D03*
D25*
X135750000Y-71100000D03*
D26*
X135750000Y-69800000D03*
D27*
X127666200Y-68995000D03*
X127666200Y-70265000D03*
X127666200Y-71535000D03*
X127666200Y-72805000D03*
X132616200Y-72805000D03*
X132616200Y-71535000D03*
X132616200Y-70265000D03*
X132616200Y-68995000D03*
D28*
X130141200Y-70900000D03*
D29*
X129790000Y-79250000D03*
D30*
X132350000Y-79250000D03*
M02*
