G04 #@! TF.GenerationSoftware,KiCad,Pcbnew,5.1.6*
G04 #@! TF.CreationDate,2020-09-30T00:16:54+02:00*
G04 #@! TF.ProjectId,SFH203_photodetector,53464832-3033-45f7-9068-6f746f646574,1.4*
G04 #@! TF.SameCoordinates,Original*
G04 #@! TF.FileFunction,Soldermask,Top*
G04 #@! TF.FilePolarity,Negative*
%FSLAX46Y46*%
G04 Gerber Fmt 4.6, Leading zero omitted, Abs format (unit mm)*
G04 Created by KiCad (PCBNEW 5.1.6) date 2020-09-30 00:16:54*
%MOMM*%
%LPD*%
G01*
G04 APERTURE LIST*
%ADD10C,0.100000*%
%ADD11R,1.100000X0.650000*%
%ADD12C,1.700000*%
%ADD13C,1.500000*%
%ADD14R,1.950000X1.000000*%
%ADD15R,1.575000X1.575000*%
%ADD16C,2.000000*%
%ADD17C,4.700000*%
%ADD18R,2.100000X2.100000*%
%ADD19O,2.100000X2.100000*%
%ADD20C,2.450000*%
%ADD21C,2.650000*%
G04 APERTURE END LIST*
D10*
G36*
X144628056Y-65270301D02*
G01*
X144637267Y-65270301D01*
X144656872Y-65271264D01*
X144681288Y-65273669D01*
X144700699Y-65276549D01*
X144724761Y-65281335D01*
X144743804Y-65286105D01*
X144767281Y-65293227D01*
X144785759Y-65299838D01*
X144808426Y-65309227D01*
X144826167Y-65317618D01*
X144847804Y-65329183D01*
X144864639Y-65339273D01*
X144885038Y-65352903D01*
X144900803Y-65364595D01*
X144919768Y-65380159D01*
X144934311Y-65393341D01*
X144951659Y-65410689D01*
X144964841Y-65425232D01*
X144980405Y-65444197D01*
X144992097Y-65459962D01*
X145005727Y-65480361D01*
X145015817Y-65497196D01*
X145027382Y-65518833D01*
X145035773Y-65536574D01*
X145045162Y-65559241D01*
X145051773Y-65577719D01*
X145058895Y-65601196D01*
X145063665Y-65620239D01*
X145068451Y-65644301D01*
X145071331Y-65663712D01*
X145073736Y-65688128D01*
X145074699Y-65707733D01*
X145074699Y-65716944D01*
X145075000Y-65720000D01*
X145075000Y-67000000D01*
X145074699Y-67003056D01*
X145074699Y-67012267D01*
X145073736Y-67031872D01*
X145071331Y-67056288D01*
X145068451Y-67075699D01*
X145063665Y-67099761D01*
X145058895Y-67118804D01*
X145051773Y-67142281D01*
X145045162Y-67160759D01*
X145035773Y-67183426D01*
X145027382Y-67201167D01*
X145015817Y-67222804D01*
X145005727Y-67239639D01*
X144992097Y-67260038D01*
X144980405Y-67275803D01*
X144964841Y-67294768D01*
X144951659Y-67309311D01*
X144934311Y-67326659D01*
X144919768Y-67339841D01*
X144900803Y-67355405D01*
X144885038Y-67367097D01*
X144864639Y-67380727D01*
X144847804Y-67390817D01*
X144826167Y-67402382D01*
X144808426Y-67410773D01*
X144785759Y-67420162D01*
X144767281Y-67426773D01*
X144743804Y-67433895D01*
X144724761Y-67438665D01*
X144700699Y-67443451D01*
X144681288Y-67446331D01*
X144656872Y-67448736D01*
X144637267Y-67449699D01*
X144628056Y-67449699D01*
X144625000Y-67450000D01*
X143294623Y-67450000D01*
X143218507Y-67469029D01*
X143170000Y-67475000D01*
X142300000Y-67475000D01*
X142260982Y-67471157D01*
X142223463Y-67459776D01*
X142188886Y-67441294D01*
X142158579Y-67416421D01*
X142133706Y-67386114D01*
X142115224Y-67351537D01*
X142103843Y-67314018D01*
X142100000Y-67275000D01*
X142100000Y-67025000D01*
X142103843Y-66985982D01*
X142115224Y-66948463D01*
X142133706Y-66913886D01*
X142158579Y-66883579D01*
X142188886Y-66858706D01*
X142223463Y-66840224D01*
X142260982Y-66828843D01*
X142300000Y-66825000D01*
X142959990Y-66825000D01*
X142984715Y-66822528D01*
X142994172Y-66819572D01*
X143002536Y-66814992D01*
X143009505Y-66809307D01*
X143015839Y-66801338D01*
X143019674Y-66794192D01*
X143022453Y-66784861D01*
X143025000Y-66759900D01*
X143025000Y-65720000D01*
X143028843Y-65680982D01*
X143040224Y-65643463D01*
X143058706Y-65608886D01*
X143083579Y-65578579D01*
X143333579Y-65328579D01*
X143363886Y-65303706D01*
X143398463Y-65285224D01*
X143435982Y-65273843D01*
X143475000Y-65270000D01*
X144625000Y-65270000D01*
X144628056Y-65270301D01*
G37*
G36*
X144628056Y-67560301D02*
G01*
X144637267Y-67560301D01*
X144656872Y-67561264D01*
X144681288Y-67563669D01*
X144700699Y-67566549D01*
X144724761Y-67571335D01*
X144743804Y-67576105D01*
X144767281Y-67583227D01*
X144785759Y-67589838D01*
X144808426Y-67599227D01*
X144826167Y-67607618D01*
X144847804Y-67619183D01*
X144864639Y-67629273D01*
X144885038Y-67642903D01*
X144900803Y-67654595D01*
X144919768Y-67670159D01*
X144934311Y-67683341D01*
X144951659Y-67700689D01*
X144964841Y-67715232D01*
X144980405Y-67734197D01*
X144992097Y-67749962D01*
X145005727Y-67770361D01*
X145015817Y-67787196D01*
X145027382Y-67808833D01*
X145035029Y-67825000D01*
X145800000Y-67825000D01*
X145839018Y-67828843D01*
X145876537Y-67840224D01*
X145911114Y-67858706D01*
X145941421Y-67883579D01*
X145966294Y-67913886D01*
X145984776Y-67948463D01*
X145996157Y-67985982D01*
X146000000Y-68025000D01*
X146000000Y-68275000D01*
X145996157Y-68314018D01*
X145984776Y-68351537D01*
X145966294Y-68386114D01*
X145941421Y-68416421D01*
X145911114Y-68441294D01*
X145876537Y-68459776D01*
X145839018Y-68471157D01*
X145800000Y-68475000D01*
X145075000Y-68475000D01*
X145075000Y-68580000D01*
X145074699Y-68583056D01*
X145074699Y-68592267D01*
X145073736Y-68611872D01*
X145071331Y-68636288D01*
X145068451Y-68655699D01*
X145063665Y-68679761D01*
X145058895Y-68698804D01*
X145051773Y-68722281D01*
X145045162Y-68740759D01*
X145035773Y-68763426D01*
X145027382Y-68781167D01*
X145015817Y-68802804D01*
X145005727Y-68819639D01*
X144992097Y-68840038D01*
X144980405Y-68855803D01*
X144964841Y-68874768D01*
X144951659Y-68889311D01*
X144934311Y-68906659D01*
X144919768Y-68919841D01*
X144900803Y-68935405D01*
X144885038Y-68947097D01*
X144864639Y-68960727D01*
X144847804Y-68970817D01*
X144826167Y-68982382D01*
X144808426Y-68990773D01*
X144785759Y-69000162D01*
X144767281Y-69006773D01*
X144743804Y-69013895D01*
X144724761Y-69018665D01*
X144700699Y-69023451D01*
X144681288Y-69026331D01*
X144656872Y-69028736D01*
X144637267Y-69029699D01*
X144628056Y-69029699D01*
X144625000Y-69030000D01*
X143475000Y-69030000D01*
X143471944Y-69029699D01*
X143462733Y-69029699D01*
X143443128Y-69028736D01*
X143418712Y-69026331D01*
X143399301Y-69023451D01*
X143375239Y-69018665D01*
X143356196Y-69013895D01*
X143332719Y-69006773D01*
X143314241Y-69000162D01*
X143291574Y-68990773D01*
X143273833Y-68982382D01*
X143252196Y-68970817D01*
X143235361Y-68960727D01*
X143214962Y-68947097D01*
X143199197Y-68935405D01*
X143180232Y-68919841D01*
X143165689Y-68906659D01*
X143148341Y-68889311D01*
X143135159Y-68874768D01*
X143119595Y-68855803D01*
X143107903Y-68840038D01*
X143094273Y-68819639D01*
X143084183Y-68802804D01*
X143072618Y-68781167D01*
X143064227Y-68763426D01*
X143054838Y-68740759D01*
X143048227Y-68722281D01*
X143041105Y-68698804D01*
X143036335Y-68679761D01*
X143031549Y-68655699D01*
X143028669Y-68636288D01*
X143026264Y-68611872D01*
X143025301Y-68592267D01*
X143025301Y-68583056D01*
X143025000Y-68580000D01*
X143025000Y-68010000D01*
X143025301Y-68006944D01*
X143025301Y-67997733D01*
X143026264Y-67978128D01*
X143028669Y-67953712D01*
X143031549Y-67934301D01*
X143036335Y-67910239D01*
X143041105Y-67891196D01*
X143048227Y-67867719D01*
X143054838Y-67849241D01*
X143064227Y-67826574D01*
X143072618Y-67808833D01*
X143084183Y-67787196D01*
X143094273Y-67770361D01*
X143107903Y-67749962D01*
X143119595Y-67734197D01*
X143135159Y-67715232D01*
X143148341Y-67700689D01*
X143165689Y-67683341D01*
X143180232Y-67670159D01*
X143199197Y-67654595D01*
X143214962Y-67642903D01*
X143235361Y-67629273D01*
X143252196Y-67619183D01*
X143273833Y-67607618D01*
X143291574Y-67599227D01*
X143314241Y-67589838D01*
X143332719Y-67583227D01*
X143356196Y-67576105D01*
X143375239Y-67571335D01*
X143399301Y-67566549D01*
X143418712Y-67563669D01*
X143443128Y-67561264D01*
X143462733Y-67560301D01*
X143471944Y-67560301D01*
X143475000Y-67560000D01*
X144625000Y-67560000D01*
X144628056Y-67560301D01*
G37*
D11*
X142650000Y-65650000D03*
X142650000Y-66150000D03*
X142650000Y-66650000D03*
X142650000Y-67650000D03*
X142650000Y-68150000D03*
X142650000Y-68650000D03*
X145450000Y-68650000D03*
X145450000Y-67650000D03*
X145450000Y-67150000D03*
X145450000Y-66650000D03*
X145450000Y-66150000D03*
X145450000Y-65650000D03*
D12*
X129790000Y-79250000D03*
D13*
X132350000Y-79250000D03*
G36*
G01*
X147393750Y-68100000D02*
X148106250Y-68100000D01*
G75*
G02*
X148425000Y-68418750I0J-318750D01*
G01*
X148425000Y-69056250D01*
G75*
G02*
X148106250Y-69375000I-318750J0D01*
G01*
X147393750Y-69375000D01*
G75*
G02*
X147075000Y-69056250I0J318750D01*
G01*
X147075000Y-68418750D01*
G75*
G02*
X147393750Y-68100000I318750J0D01*
G01*
G37*
G36*
G01*
X147393750Y-66525000D02*
X148106250Y-66525000D01*
G75*
G02*
X148425000Y-66843750I0J-318750D01*
G01*
X148425000Y-67481250D01*
G75*
G02*
X148106250Y-67800000I-318750J0D01*
G01*
X147393750Y-67800000D01*
G75*
G02*
X147075000Y-67481250I0J318750D01*
G01*
X147075000Y-66843750D01*
G75*
G02*
X147393750Y-66525000I318750J0D01*
G01*
G37*
G36*
G01*
X147645000Y-72575000D02*
X145255000Y-72575000D01*
G75*
G02*
X144925000Y-72245000I0J330000D01*
G01*
X144925000Y-71255000D01*
G75*
G02*
X145255000Y-70925000I330000J0D01*
G01*
X147645000Y-70925000D01*
G75*
G02*
X147975000Y-71255000I0J-330000D01*
G01*
X147975000Y-72245000D01*
G75*
G02*
X147645000Y-72575000I-330000J0D01*
G01*
G37*
G36*
G01*
X147645000Y-75375000D02*
X145255000Y-75375000D01*
G75*
G02*
X144925000Y-75045000I0J330000D01*
G01*
X144925000Y-74055000D01*
G75*
G02*
X145255000Y-73725000I330000J0D01*
G01*
X147645000Y-73725000D01*
G75*
G02*
X147975000Y-74055000I0J-330000D01*
G01*
X147975000Y-75045000D01*
G75*
G02*
X147645000Y-75375000I-330000J0D01*
G01*
G37*
G36*
G01*
X147445000Y-62775000D02*
X145055000Y-62775000D01*
G75*
G02*
X144725000Y-62445000I0J330000D01*
G01*
X144725000Y-61455000D01*
G75*
G02*
X145055000Y-61125000I330000J0D01*
G01*
X147445000Y-61125000D01*
G75*
G02*
X147775000Y-61455000I0J-330000D01*
G01*
X147775000Y-62445000D01*
G75*
G02*
X147445000Y-62775000I-330000J0D01*
G01*
G37*
G36*
G01*
X147445000Y-59975000D02*
X145055000Y-59975000D01*
G75*
G02*
X144725000Y-59645000I0J330000D01*
G01*
X144725000Y-58655000D01*
G75*
G02*
X145055000Y-58325000I330000J0D01*
G01*
X147445000Y-58325000D01*
G75*
G02*
X147775000Y-58655000I0J-330000D01*
G01*
X147775000Y-59645000D01*
G75*
G02*
X147445000Y-59975000I-330000J0D01*
G01*
G37*
D14*
X133350000Y-75055000D03*
X133350000Y-73785000D03*
X133350000Y-72515000D03*
X133350000Y-71245000D03*
X127950000Y-71245000D03*
X127950000Y-72515000D03*
X127950000Y-73785000D03*
X127950000Y-75055000D03*
D15*
X130062500Y-72562500D03*
X130062500Y-73737500D03*
X131237500Y-72562500D03*
X131237500Y-73737500D03*
G36*
G01*
X140593750Y-64925000D02*
X141306250Y-64925000D01*
G75*
G02*
X141625000Y-65243750I0J-318750D01*
G01*
X141625000Y-65881250D01*
G75*
G02*
X141306250Y-66200000I-318750J0D01*
G01*
X140593750Y-66200000D01*
G75*
G02*
X140275000Y-65881250I0J318750D01*
G01*
X140275000Y-65243750D01*
G75*
G02*
X140593750Y-64925000I318750J0D01*
G01*
G37*
G36*
G01*
X140593750Y-66500000D02*
X141306250Y-66500000D01*
G75*
G02*
X141625000Y-66818750I0J-318750D01*
G01*
X141625000Y-67456250D01*
G75*
G02*
X141306250Y-67775000I-318750J0D01*
G01*
X140593750Y-67775000D01*
G75*
G02*
X140275000Y-67456250I0J318750D01*
G01*
X140275000Y-66818750D01*
G75*
G02*
X140593750Y-66500000I318750J0D01*
G01*
G37*
G36*
G01*
X141045000Y-59975000D02*
X138655000Y-59975000D01*
G75*
G02*
X138325000Y-59645000I0J330000D01*
G01*
X138325000Y-58655000D01*
G75*
G02*
X138655000Y-58325000I330000J0D01*
G01*
X141045000Y-58325000D01*
G75*
G02*
X141375000Y-58655000I0J-330000D01*
G01*
X141375000Y-59645000D01*
G75*
G02*
X141045000Y-59975000I-330000J0D01*
G01*
G37*
G36*
G01*
X141045000Y-62775000D02*
X138655000Y-62775000D01*
G75*
G02*
X138325000Y-62445000I0J330000D01*
G01*
X138325000Y-61455000D01*
G75*
G02*
X138655000Y-61125000I330000J0D01*
G01*
X141045000Y-61125000D01*
G75*
G02*
X141375000Y-61455000I0J-330000D01*
G01*
X141375000Y-62445000D01*
G75*
G02*
X141045000Y-62775000I-330000J0D01*
G01*
G37*
G36*
G01*
X142245000Y-75275000D02*
X139855000Y-75275000D01*
G75*
G02*
X139525000Y-74945000I0J330000D01*
G01*
X139525000Y-73955000D01*
G75*
G02*
X139855000Y-73625000I330000J0D01*
G01*
X142245000Y-73625000D01*
G75*
G02*
X142575000Y-73955000I0J-330000D01*
G01*
X142575000Y-74945000D01*
G75*
G02*
X142245000Y-75275000I-330000J0D01*
G01*
G37*
G36*
G01*
X142245000Y-72475000D02*
X139855000Y-72475000D01*
G75*
G02*
X139525000Y-72145000I0J330000D01*
G01*
X139525000Y-71155000D01*
G75*
G02*
X139855000Y-70825000I330000J0D01*
G01*
X142245000Y-70825000D01*
G75*
G02*
X142575000Y-71155000I0J-330000D01*
G01*
X142575000Y-72145000D01*
G75*
G02*
X142245000Y-72475000I-330000J0D01*
G01*
G37*
G36*
G01*
X124393750Y-77825000D02*
X125106250Y-77825000D01*
G75*
G02*
X125425000Y-78143750I0J-318750D01*
G01*
X125425000Y-78781250D01*
G75*
G02*
X125106250Y-79100000I-318750J0D01*
G01*
X124393750Y-79100000D01*
G75*
G02*
X124075000Y-78781250I0J318750D01*
G01*
X124075000Y-78143750D01*
G75*
G02*
X124393750Y-77825000I318750J0D01*
G01*
G37*
G36*
G01*
X124393750Y-79400000D02*
X125106250Y-79400000D01*
G75*
G02*
X125425000Y-79718750I0J-318750D01*
G01*
X125425000Y-80356250D01*
G75*
G02*
X125106250Y-80675000I-318750J0D01*
G01*
X124393750Y-80675000D01*
G75*
G02*
X124075000Y-80356250I0J318750D01*
G01*
X124075000Y-79718750D01*
G75*
G02*
X124393750Y-79400000I318750J0D01*
G01*
G37*
G36*
G01*
X135393750Y-68825000D02*
X136106250Y-68825000D01*
G75*
G02*
X136425000Y-69143750I0J-318750D01*
G01*
X136425000Y-69781250D01*
G75*
G02*
X136106250Y-70100000I-318750J0D01*
G01*
X135393750Y-70100000D01*
G75*
G02*
X135075000Y-69781250I0J318750D01*
G01*
X135075000Y-69143750D01*
G75*
G02*
X135393750Y-68825000I318750J0D01*
G01*
G37*
G36*
G01*
X135393750Y-70400000D02*
X136106250Y-70400000D01*
G75*
G02*
X136425000Y-70718750I0J-318750D01*
G01*
X136425000Y-71356250D01*
G75*
G02*
X136106250Y-71675000I-318750J0D01*
G01*
X135393750Y-71675000D01*
G75*
G02*
X135075000Y-71356250I0J318750D01*
G01*
X135075000Y-70718750D01*
G75*
G02*
X135393750Y-70400000I318750J0D01*
G01*
G37*
G36*
G01*
X123993750Y-63125000D02*
X125106250Y-63125000D01*
G75*
G02*
X125450000Y-63468750I0J-343750D01*
G01*
X125450000Y-64156250D01*
G75*
G02*
X125106250Y-64500000I-343750J0D01*
G01*
X123993750Y-64500000D01*
G75*
G02*
X123650000Y-64156250I0J343750D01*
G01*
X123650000Y-63468750D01*
G75*
G02*
X123993750Y-63125000I343750J0D01*
G01*
G37*
G36*
G01*
X123993750Y-65000000D02*
X125106250Y-65000000D01*
G75*
G02*
X125450000Y-65343750I0J-343750D01*
G01*
X125450000Y-66031250D01*
G75*
G02*
X125106250Y-66375000I-343750J0D01*
G01*
X123993750Y-66375000D01*
G75*
G02*
X123650000Y-66031250I0J343750D01*
G01*
X123650000Y-65343750D01*
G75*
G02*
X123993750Y-65000000I343750J0D01*
G01*
G37*
D16*
X120050000Y-63750000D03*
X120050000Y-68750000D03*
G36*
G01*
X124400000Y-74106250D02*
X124400000Y-73393750D01*
G75*
G02*
X124718750Y-73075000I318750J0D01*
G01*
X125356250Y-73075000D01*
G75*
G02*
X125675000Y-73393750I0J-318750D01*
G01*
X125675000Y-74106250D01*
G75*
G02*
X125356250Y-74425000I-318750J0D01*
G01*
X124718750Y-74425000D01*
G75*
G02*
X124400000Y-74106250I0J318750D01*
G01*
G37*
G36*
G01*
X122825000Y-74106250D02*
X122825000Y-73393750D01*
G75*
G02*
X123143750Y-73075000I318750J0D01*
G01*
X123781250Y-73075000D01*
G75*
G02*
X124100000Y-73393750I0J-318750D01*
G01*
X124100000Y-74106250D01*
G75*
G02*
X123781250Y-74425000I-318750J0D01*
G01*
X123143750Y-74425000D01*
G75*
G02*
X122825000Y-74106250I0J318750D01*
G01*
G37*
D17*
X111250000Y-49500000D03*
X151200000Y-81650000D03*
D18*
X151250000Y-64210000D03*
D19*
X151250000Y-66750000D03*
X151250000Y-69290000D03*
D20*
X112250000Y-63750000D03*
D21*
X114790000Y-66290000D03*
X114790000Y-61210000D03*
X109710000Y-61210000D03*
X109710000Y-66290000D03*
G36*
G01*
X126393750Y-77825000D02*
X127106250Y-77825000D01*
G75*
G02*
X127425000Y-78143750I0J-318750D01*
G01*
X127425000Y-78781250D01*
G75*
G02*
X127106250Y-79100000I-318750J0D01*
G01*
X126393750Y-79100000D01*
G75*
G02*
X126075000Y-78781250I0J318750D01*
G01*
X126075000Y-78143750D01*
G75*
G02*
X126393750Y-77825000I318750J0D01*
G01*
G37*
G36*
G01*
X126393750Y-79400000D02*
X127106250Y-79400000D01*
G75*
G02*
X127425000Y-79718750I0J-318750D01*
G01*
X127425000Y-80356250D01*
G75*
G02*
X127106250Y-80675000I-318750J0D01*
G01*
X126393750Y-80675000D01*
G75*
G02*
X126075000Y-80356250I0J318750D01*
G01*
X126075000Y-79718750D01*
G75*
G02*
X126393750Y-79400000I318750J0D01*
G01*
G37*
G36*
G01*
X126505000Y-62975000D02*
X127995000Y-62975000D01*
G75*
G02*
X128325000Y-63305000I0J-330000D01*
G01*
X128325000Y-64295000D01*
G75*
G02*
X127995000Y-64625000I-330000J0D01*
G01*
X126505000Y-64625000D01*
G75*
G02*
X126175000Y-64295000I0J330000D01*
G01*
X126175000Y-63305000D01*
G75*
G02*
X126505000Y-62975000I330000J0D01*
G01*
G37*
G36*
G01*
X126505000Y-65775000D02*
X127995000Y-65775000D01*
G75*
G02*
X128325000Y-66105000I0J-330000D01*
G01*
X128325000Y-67095000D01*
G75*
G02*
X127995000Y-67425000I-330000J0D01*
G01*
X126505000Y-67425000D01*
G75*
G02*
X126175000Y-67095000I0J330000D01*
G01*
X126175000Y-66105000D01*
G75*
G02*
X126505000Y-65775000I330000J0D01*
G01*
G37*
M02*
