G04 #@! TF.GenerationSoftware,KiCad,Pcbnew,(5.1.5)-3*
G04 #@! TF.CreationDate,2020-09-29T22:38:50+02:00*
G04 #@! TF.ProjectId,SFH203_photodetector,53464832-3033-45f7-9068-6f746f646574,1.3*
G04 #@! TF.SameCoordinates,Original*
G04 #@! TF.FileFunction,Other,Fab,Top*
%FSLAX46Y46*%
G04 Gerber Fmt 4.6, Leading zero omitted, Abs format (unit mm)*
G04 Created by KiCad (PCBNEW (5.1.5)-3) date 2020-09-29 22:38:50*
%MOMM*%
%LPD*%
G04 APERTURE LIST*
%ADD10C,0.100000*%
%ADD11C,0.150000*%
%ADD12C,0.060000*%
%ADD13C,0.120000*%
%ADD14C,0.135000*%
%ADD15C,0.080000*%
G04 APERTURE END LIST*
D10*
X147850000Y-68750000D02*
X147850000Y-67150000D01*
X148650000Y-68750000D02*
X147850000Y-68750000D01*
X148650000Y-67150000D02*
X148650000Y-68750000D01*
X147850000Y-67150000D02*
X148650000Y-67150000D01*
X143550000Y-66150000D02*
X144550000Y-65150000D01*
X143550000Y-69150000D02*
X143550000Y-66150000D01*
X146550000Y-69150000D02*
X143550000Y-69150000D01*
X146550000Y-65150000D02*
X146550000Y-69150000D01*
X144550000Y-65150000D02*
X146550000Y-65150000D01*
X148700000Y-71550000D02*
X148700000Y-74750000D01*
X146200000Y-71550000D02*
X148700000Y-71550000D01*
X146200000Y-74750000D02*
X146200000Y-71550000D01*
X148700000Y-74750000D02*
X146200000Y-74750000D01*
X148500000Y-62150000D02*
X146000000Y-62150000D01*
X146000000Y-62150000D02*
X146000000Y-58950000D01*
X146000000Y-58950000D02*
X148500000Y-58950000D01*
X148500000Y-58950000D02*
X148500000Y-62150000D01*
D11*
X131600000Y-75600000D02*
X128700000Y-75600000D01*
X128700000Y-75600000D02*
X128700000Y-70700000D01*
X128700000Y-70700000D02*
X132600000Y-70700000D01*
X132600000Y-70700000D02*
X132600000Y-74600000D01*
X132600000Y-74600000D02*
X131600000Y-75600000D01*
D10*
X141550000Y-65550000D02*
X142350000Y-65550000D01*
X142350000Y-65550000D02*
X142350000Y-67150000D01*
X142350000Y-67150000D02*
X141550000Y-67150000D01*
X141550000Y-67150000D02*
X141550000Y-65550000D01*
X142100000Y-58950000D02*
X142100000Y-62150000D01*
X139600000Y-58950000D02*
X142100000Y-58950000D01*
X139600000Y-62150000D02*
X139600000Y-58950000D01*
X142100000Y-62150000D02*
X139600000Y-62150000D01*
X143300000Y-74650000D02*
X140800000Y-74650000D01*
X140800000Y-74650000D02*
X140800000Y-71450000D01*
X140800000Y-71450000D02*
X143300000Y-71450000D01*
X143300000Y-71450000D02*
X143300000Y-74650000D01*
X124250000Y-78700000D02*
X125050000Y-78700000D01*
X125050000Y-78700000D02*
X125050000Y-80300000D01*
X125050000Y-80300000D02*
X124250000Y-80300000D01*
X124250000Y-80300000D02*
X124250000Y-78700000D01*
X131250000Y-69050000D02*
X131250000Y-68250000D01*
X131250000Y-68250000D02*
X132850000Y-68250000D01*
X132850000Y-68250000D02*
X132850000Y-69050000D01*
X132850000Y-69050000D02*
X131250000Y-69050000D01*
X123950000Y-63750000D02*
X125150000Y-63750000D01*
X125150000Y-63750000D02*
X125150000Y-65750000D01*
X125150000Y-65750000D02*
X123950000Y-65750000D01*
X123950000Y-65750000D02*
X123950000Y-63750000D01*
X122800000Y-62650000D02*
X117300000Y-62650000D01*
X117300000Y-62650000D02*
X117300000Y-69850000D01*
X117300000Y-69850000D02*
X122800000Y-69850000D01*
X122800000Y-69850000D02*
X122800000Y-62650000D01*
X122250000Y-75450000D02*
X120650000Y-75450000D01*
X122250000Y-74650000D02*
X122250000Y-75450000D01*
X120650000Y-74650000D02*
X122250000Y-74650000D01*
X120650000Y-75450000D02*
X120650000Y-74650000D01*
X150615000Y-62940000D02*
X152520000Y-62940000D01*
X152520000Y-62940000D02*
X152520000Y-70560000D01*
X152520000Y-70560000D02*
X149980000Y-70560000D01*
X149980000Y-70560000D02*
X149980000Y-63575000D01*
X149980000Y-63575000D02*
X150615000Y-62940000D01*
X115425000Y-63750000D02*
G75*
G03X115425000Y-63750000I-3175000J0D01*
G01*
X109075000Y-60575000D02*
X115425000Y-60575000D01*
X109075000Y-60575000D02*
X109075000Y-66925000D01*
X109075000Y-66925000D02*
X115425000Y-66925000D01*
X115425000Y-60575000D02*
X115425000Y-66925000D01*
X126550000Y-78600000D02*
X127350000Y-78600000D01*
X127350000Y-78600000D02*
X127350000Y-80200000D01*
X127350000Y-80200000D02*
X126550000Y-80200000D01*
X126550000Y-80200000D02*
X126550000Y-78600000D01*
X126450000Y-63600000D02*
X128050000Y-63600000D01*
X128050000Y-63600000D02*
X128050000Y-66800000D01*
X128050000Y-66800000D02*
X126450000Y-66800000D01*
X126450000Y-66800000D02*
X126450000Y-63600000D01*
D12*
X148392857Y-68016666D02*
X148411904Y-68035714D01*
X148430952Y-68092857D01*
X148430952Y-68130952D01*
X148411904Y-68188095D01*
X148373809Y-68226190D01*
X148335714Y-68245238D01*
X148259523Y-68264285D01*
X148202380Y-68264285D01*
X148126190Y-68245238D01*
X148088095Y-68226190D01*
X148050000Y-68188095D01*
X148030952Y-68130952D01*
X148030952Y-68092857D01*
X148050000Y-68035714D01*
X148069047Y-68016666D01*
X148164285Y-67673809D02*
X148430952Y-67673809D01*
X148011904Y-67769047D02*
X148297619Y-67864285D01*
X148297619Y-67616666D01*
D10*
X144516666Y-66766666D02*
X144516666Y-67333333D01*
X144550000Y-67400000D01*
X144583333Y-67433333D01*
X144650000Y-67466666D01*
X144783333Y-67466666D01*
X144850000Y-67433333D01*
X144883333Y-67400000D01*
X144916666Y-67333333D01*
X144916666Y-66766666D01*
X145616666Y-67466666D02*
X145216666Y-67466666D01*
X145416666Y-67466666D02*
X145416666Y-66766666D01*
X145350000Y-66866666D01*
X145283333Y-66933333D01*
X145216666Y-66966666D01*
D13*
X147735714Y-73283333D02*
X147773809Y-73321428D01*
X147811904Y-73435714D01*
X147811904Y-73511904D01*
X147773809Y-73626190D01*
X147697619Y-73702380D01*
X147621428Y-73740476D01*
X147469047Y-73778571D01*
X147354761Y-73778571D01*
X147202380Y-73740476D01*
X147126190Y-73702380D01*
X147050000Y-73626190D01*
X147011904Y-73511904D01*
X147011904Y-73435714D01*
X147050000Y-73321428D01*
X147088095Y-73283333D01*
X147088095Y-72978571D02*
X147050000Y-72940476D01*
X147011904Y-72864285D01*
X147011904Y-72673809D01*
X147050000Y-72597619D01*
X147088095Y-72559523D01*
X147164285Y-72521428D01*
X147240476Y-72521428D01*
X147354761Y-72559523D01*
X147811904Y-73016666D01*
X147811904Y-72521428D01*
X147535714Y-60683333D02*
X147573809Y-60721428D01*
X147611904Y-60835714D01*
X147611904Y-60911904D01*
X147573809Y-61026190D01*
X147497619Y-61102380D01*
X147421428Y-61140476D01*
X147269047Y-61178571D01*
X147154761Y-61178571D01*
X147002380Y-61140476D01*
X146926190Y-61102380D01*
X146850000Y-61026190D01*
X146811904Y-60911904D01*
X146811904Y-60835714D01*
X146850000Y-60721428D01*
X146888095Y-60683333D01*
X147611904Y-59921428D02*
X147611904Y-60378571D01*
X147611904Y-60150000D02*
X146811904Y-60150000D01*
X146926190Y-60226190D01*
X147002380Y-60302380D01*
X147040476Y-60378571D01*
D14*
X129964285Y-72657142D02*
X129964285Y-73385714D01*
X130007142Y-73471428D01*
X130050000Y-73514285D01*
X130135714Y-73557142D01*
X130307142Y-73557142D01*
X130392857Y-73514285D01*
X130435714Y-73471428D01*
X130478571Y-73385714D01*
X130478571Y-72657142D01*
X130864285Y-72742857D02*
X130907142Y-72700000D01*
X130992857Y-72657142D01*
X131207142Y-72657142D01*
X131292857Y-72700000D01*
X131335714Y-72742857D01*
X131378571Y-72828571D01*
X131378571Y-72914285D01*
X131335714Y-73042857D01*
X130821428Y-73557142D01*
X131378571Y-73557142D01*
D12*
X142092857Y-66416666D02*
X142111904Y-66435714D01*
X142130952Y-66492857D01*
X142130952Y-66530952D01*
X142111904Y-66588095D01*
X142073809Y-66626190D01*
X142035714Y-66645238D01*
X141959523Y-66664285D01*
X141902380Y-66664285D01*
X141826190Y-66645238D01*
X141788095Y-66626190D01*
X141750000Y-66588095D01*
X141730952Y-66530952D01*
X141730952Y-66492857D01*
X141750000Y-66435714D01*
X141769047Y-66416666D01*
X141730952Y-66283333D02*
X141730952Y-66035714D01*
X141883333Y-66169047D01*
X141883333Y-66111904D01*
X141902380Y-66073809D01*
X141921428Y-66054761D01*
X141959523Y-66035714D01*
X142054761Y-66035714D01*
X142092857Y-66054761D01*
X142111904Y-66073809D01*
X142130952Y-66111904D01*
X142130952Y-66226190D01*
X142111904Y-66264285D01*
X142092857Y-66283333D01*
D13*
X141135714Y-60683333D02*
X141173809Y-60721428D01*
X141211904Y-60835714D01*
X141211904Y-60911904D01*
X141173809Y-61026190D01*
X141097619Y-61102380D01*
X141021428Y-61140476D01*
X140869047Y-61178571D01*
X140754761Y-61178571D01*
X140602380Y-61140476D01*
X140526190Y-61102380D01*
X140450000Y-61026190D01*
X140411904Y-60911904D01*
X140411904Y-60835714D01*
X140450000Y-60721428D01*
X140488095Y-60683333D01*
X140411904Y-59959523D02*
X140411904Y-60340476D01*
X140792857Y-60378571D01*
X140754761Y-60340476D01*
X140716666Y-60264285D01*
X140716666Y-60073809D01*
X140754761Y-59997619D01*
X140792857Y-59959523D01*
X140869047Y-59921428D01*
X141059523Y-59921428D01*
X141135714Y-59959523D01*
X141173809Y-59997619D01*
X141211904Y-60073809D01*
X141211904Y-60264285D01*
X141173809Y-60340476D01*
X141135714Y-60378571D01*
X142335714Y-73183333D02*
X142373809Y-73221428D01*
X142411904Y-73335714D01*
X142411904Y-73411904D01*
X142373809Y-73526190D01*
X142297619Y-73602380D01*
X142221428Y-73640476D01*
X142069047Y-73678571D01*
X141954761Y-73678571D01*
X141802380Y-73640476D01*
X141726190Y-73602380D01*
X141650000Y-73526190D01*
X141611904Y-73411904D01*
X141611904Y-73335714D01*
X141650000Y-73221428D01*
X141688095Y-73183333D01*
X141611904Y-72497619D02*
X141611904Y-72650000D01*
X141650000Y-72726190D01*
X141688095Y-72764285D01*
X141802380Y-72840476D01*
X141954761Y-72878571D01*
X142259523Y-72878571D01*
X142335714Y-72840476D01*
X142373809Y-72802380D01*
X142411904Y-72726190D01*
X142411904Y-72573809D01*
X142373809Y-72497619D01*
X142335714Y-72459523D01*
X142259523Y-72421428D01*
X142069047Y-72421428D01*
X141992857Y-72459523D01*
X141954761Y-72497619D01*
X141916666Y-72573809D01*
X141916666Y-72726190D01*
X141954761Y-72802380D01*
X141992857Y-72840476D01*
X142069047Y-72878571D01*
D12*
X124792857Y-79566666D02*
X124811904Y-79585714D01*
X124830952Y-79642857D01*
X124830952Y-79680952D01*
X124811904Y-79738095D01*
X124773809Y-79776190D01*
X124735714Y-79795238D01*
X124659523Y-79814285D01*
X124602380Y-79814285D01*
X124526190Y-79795238D01*
X124488095Y-79776190D01*
X124450000Y-79738095D01*
X124430952Y-79680952D01*
X124430952Y-79642857D01*
X124450000Y-79585714D01*
X124469047Y-79566666D01*
X124602380Y-79338095D02*
X124583333Y-79376190D01*
X124564285Y-79395238D01*
X124526190Y-79414285D01*
X124507142Y-79414285D01*
X124469047Y-79395238D01*
X124450000Y-79376190D01*
X124430952Y-79338095D01*
X124430952Y-79261904D01*
X124450000Y-79223809D01*
X124469047Y-79204761D01*
X124507142Y-79185714D01*
X124526190Y-79185714D01*
X124564285Y-79204761D01*
X124583333Y-79223809D01*
X124602380Y-79261904D01*
X124602380Y-79338095D01*
X124621428Y-79376190D01*
X124640476Y-79395238D01*
X124678571Y-79414285D01*
X124754761Y-79414285D01*
X124792857Y-79395238D01*
X124811904Y-79376190D01*
X124830952Y-79338095D01*
X124830952Y-79261904D01*
X124811904Y-79223809D01*
X124792857Y-79204761D01*
X124754761Y-79185714D01*
X124678571Y-79185714D01*
X124640476Y-79204761D01*
X124621428Y-79223809D01*
X124602380Y-79261904D01*
X131983333Y-68792857D02*
X131964285Y-68811904D01*
X131907142Y-68830952D01*
X131869047Y-68830952D01*
X131811904Y-68811904D01*
X131773809Y-68773809D01*
X131754761Y-68735714D01*
X131735714Y-68659523D01*
X131735714Y-68602380D01*
X131754761Y-68526190D01*
X131773809Y-68488095D01*
X131811904Y-68450000D01*
X131869047Y-68430952D01*
X131907142Y-68430952D01*
X131964285Y-68450000D01*
X131983333Y-68469047D01*
X132173809Y-68830952D02*
X132250000Y-68830952D01*
X132288095Y-68811904D01*
X132307142Y-68792857D01*
X132345238Y-68735714D01*
X132364285Y-68659523D01*
X132364285Y-68507142D01*
X132345238Y-68469047D01*
X132326190Y-68450000D01*
X132288095Y-68430952D01*
X132211904Y-68430952D01*
X132173809Y-68450000D01*
X132154761Y-68469047D01*
X132135714Y-68507142D01*
X132135714Y-68602380D01*
X132154761Y-68640476D01*
X132173809Y-68659523D01*
X132211904Y-68678571D01*
X132288095Y-68678571D01*
X132326190Y-68659523D01*
X132345238Y-68640476D01*
X132364285Y-68602380D01*
D15*
X124728571Y-65071428D02*
X124752380Y-65095238D01*
X124776190Y-65166666D01*
X124776190Y-65214285D01*
X124752380Y-65285714D01*
X124704761Y-65333333D01*
X124657142Y-65357142D01*
X124561904Y-65380952D01*
X124490476Y-65380952D01*
X124395238Y-65357142D01*
X124347619Y-65333333D01*
X124300000Y-65285714D01*
X124276190Y-65214285D01*
X124276190Y-65166666D01*
X124300000Y-65095238D01*
X124323809Y-65071428D01*
X124776190Y-64595238D02*
X124776190Y-64880952D01*
X124776190Y-64738095D02*
X124276190Y-64738095D01*
X124347619Y-64785714D01*
X124395238Y-64833333D01*
X124419047Y-64880952D01*
X124276190Y-64285714D02*
X124276190Y-64238095D01*
X124300000Y-64190476D01*
X124323809Y-64166666D01*
X124371428Y-64142857D01*
X124466666Y-64119047D01*
X124585714Y-64119047D01*
X124680952Y-64142857D01*
X124728571Y-64166666D01*
X124752380Y-64190476D01*
X124776190Y-64238095D01*
X124776190Y-64285714D01*
X124752380Y-64333333D01*
X124728571Y-64357142D01*
X124680952Y-64380952D01*
X124585714Y-64404761D01*
X124466666Y-64404761D01*
X124371428Y-64380952D01*
X124323809Y-64357142D01*
X124300000Y-64333333D01*
X124276190Y-64285714D01*
D11*
X120407142Y-66892857D02*
X120454761Y-66940476D01*
X120502380Y-67083333D01*
X120502380Y-67178571D01*
X120454761Y-67321428D01*
X120359523Y-67416666D01*
X120264285Y-67464285D01*
X120073809Y-67511904D01*
X119930952Y-67511904D01*
X119740476Y-67464285D01*
X119645238Y-67416666D01*
X119550000Y-67321428D01*
X119502380Y-67178571D01*
X119502380Y-67083333D01*
X119550000Y-66940476D01*
X119597619Y-66892857D01*
X120502380Y-65940476D02*
X120502380Y-66511904D01*
X120502380Y-66226190D02*
X119502380Y-66226190D01*
X119645238Y-66321428D01*
X119740476Y-66416666D01*
X119788095Y-66511904D01*
X120502380Y-64988095D02*
X120502380Y-65559523D01*
X120502380Y-65273809D02*
X119502380Y-65273809D01*
X119645238Y-65369047D01*
X119740476Y-65464285D01*
X119788095Y-65559523D01*
D12*
X121192857Y-75192857D02*
X121173809Y-75211904D01*
X121116666Y-75230952D01*
X121078571Y-75230952D01*
X121021428Y-75211904D01*
X120983333Y-75173809D01*
X120964285Y-75135714D01*
X120945238Y-75059523D01*
X120945238Y-75002380D01*
X120964285Y-74926190D01*
X120983333Y-74888095D01*
X121021428Y-74850000D01*
X121078571Y-74830952D01*
X121116666Y-74830952D01*
X121173809Y-74850000D01*
X121192857Y-74869047D01*
X121573809Y-75230952D02*
X121345238Y-75230952D01*
X121459523Y-75230952D02*
X121459523Y-74830952D01*
X121421428Y-74888095D01*
X121383333Y-74926190D01*
X121345238Y-74945238D01*
X121726190Y-74869047D02*
X121745238Y-74850000D01*
X121783333Y-74830952D01*
X121878571Y-74830952D01*
X121916666Y-74850000D01*
X121935714Y-74869047D01*
X121954761Y-74907142D01*
X121954761Y-74945238D01*
X121935714Y-75002380D01*
X121707142Y-75230952D01*
X121954761Y-75230952D01*
D11*
X110788095Y-49952380D02*
X110788095Y-48952380D01*
X110788095Y-49428571D02*
X111359523Y-49428571D01*
X111359523Y-49952380D02*
X111359523Y-48952380D01*
X112359523Y-49952380D02*
X111788095Y-49952380D01*
X112073809Y-49952380D02*
X112073809Y-48952380D01*
X111978571Y-49095238D01*
X111883333Y-49190476D01*
X111788095Y-49238095D01*
X150738095Y-82102380D02*
X150738095Y-81102380D01*
X150738095Y-81578571D02*
X151309523Y-81578571D01*
X151309523Y-82102380D02*
X151309523Y-81102380D01*
X151738095Y-81197619D02*
X151785714Y-81150000D01*
X151880952Y-81102380D01*
X152119047Y-81102380D01*
X152214285Y-81150000D01*
X152261904Y-81197619D01*
X152309523Y-81292857D01*
X152309523Y-81388095D01*
X152261904Y-81530952D01*
X151690476Y-82102380D01*
X152309523Y-82102380D01*
X150702380Y-67083333D02*
X151416666Y-67083333D01*
X151559523Y-67130952D01*
X151654761Y-67226190D01*
X151702380Y-67369047D01*
X151702380Y-67464285D01*
X151702380Y-66083333D02*
X151702380Y-66654761D01*
X151702380Y-66369047D02*
X150702380Y-66369047D01*
X150845238Y-66464285D01*
X150940476Y-66559523D01*
X150988095Y-66654761D01*
X111916666Y-63202380D02*
X111916666Y-63916666D01*
X111869047Y-64059523D01*
X111773809Y-64154761D01*
X111630952Y-64202380D01*
X111535714Y-64202380D01*
X112345238Y-63297619D02*
X112392857Y-63250000D01*
X112488095Y-63202380D01*
X112726190Y-63202380D01*
X112821428Y-63250000D01*
X112869047Y-63297619D01*
X112916666Y-63392857D01*
X112916666Y-63488095D01*
X112869047Y-63630952D01*
X112297619Y-64202380D01*
X112916666Y-64202380D01*
D12*
X127130952Y-79466666D02*
X126940476Y-79600000D01*
X127130952Y-79695238D02*
X126730952Y-79695238D01*
X126730952Y-79542857D01*
X126750000Y-79504761D01*
X126769047Y-79485714D01*
X126807142Y-79466666D01*
X126864285Y-79466666D01*
X126902380Y-79485714D01*
X126921428Y-79504761D01*
X126940476Y-79542857D01*
X126940476Y-79695238D01*
X126730952Y-79333333D02*
X126730952Y-79085714D01*
X126883333Y-79219047D01*
X126883333Y-79161904D01*
X126902380Y-79123809D01*
X126921428Y-79104761D01*
X126959523Y-79085714D01*
X127054761Y-79085714D01*
X127092857Y-79104761D01*
X127111904Y-79123809D01*
X127130952Y-79161904D01*
X127130952Y-79276190D01*
X127111904Y-79314285D01*
X127092857Y-79333333D01*
D13*
X127611904Y-65333333D02*
X127230952Y-65600000D01*
X127611904Y-65790476D02*
X126811904Y-65790476D01*
X126811904Y-65485714D01*
X126850000Y-65409523D01*
X126888095Y-65371428D01*
X126964285Y-65333333D01*
X127078571Y-65333333D01*
X127154761Y-65371428D01*
X127192857Y-65409523D01*
X127230952Y-65485714D01*
X127230952Y-65790476D01*
X127078571Y-64647619D02*
X127611904Y-64647619D01*
X126773809Y-64838095D02*
X127345238Y-65028571D01*
X127345238Y-64533333D01*
M02*
