M48
; DRILL file {KiCad (5.1.5)-3} date 29.09.2020 22:38:54
; FORMAT={-:-/ absolute / metric / decimal}
; #@! TF.CreationDate,2020-09-29T22:38:54+02:00
; #@! TF.GenerationSoftware,Kicad,Pcbnew,(5.1.5)-3
; #@! TF.FileFunction,Plated,1,2,PTH
FMAT,2
METRIC
T1C0.300
T2C0.700
T3C0.800
T4C0.900
T5C1.000
T6C1.500
T7C1.700
%
G90
G05
T1
X119.45Y-75.05
X123.45Y-75.05
X124.55Y-67.05
X126.25Y-75.05
X129.85Y-68.65
X134.95Y-72.55
X139.95Y-65.55
X140.85Y-57.45
X142.05Y-69.35
X142.05Y-76.05
X145.05Y-66.35
X147.25Y-57.45
X147.45Y-76.05
X148.25Y-69.75
T2
X132.35Y-79.25
T3
X120.05Y-63.75
X120.05Y-68.75
T4
X129.79Y-79.25
T5
X151.25Y-64.21
X151.25Y-66.75
X151.25Y-69.29
T6
X112.25Y-63.75
T7
X109.71Y-61.21
X109.71Y-66.29
X114.79Y-61.21
X114.79Y-66.29
T0
M30
