G04 #@! TF.GenerationSoftware,KiCad,Pcbnew,(5.1.5)-3*
G04 #@! TF.CreationDate,2020-09-29T22:38:50+02:00*
G04 #@! TF.ProjectId,SFH203_photodetector,53464832-3033-45f7-9068-6f746f646574,1.3*
G04 #@! TF.SameCoordinates,Original*
G04 #@! TF.FileFunction,Soldermask,Top*
G04 #@! TF.FilePolarity,Negative*
%FSLAX46Y46*%
G04 Gerber Fmt 4.6, Leading zero omitted, Abs format (unit mm)*
G04 Created by KiCad (PCBNEW (5.1.5)-3) date 2020-09-29 22:38:50*
%MOMM*%
%LPD*%
G04 APERTURE LIST*
%ADD10C,1.700000*%
%ADD11C,1.500000*%
%ADD12C,0.100000*%
%ADD13R,1.100000X0.650000*%
%ADD14R,1.950000X1.000000*%
%ADD15R,1.575000X1.575000*%
%ADD16C,2.000000*%
%ADD17C,4.700000*%
%ADD18R,2.100000X2.100000*%
%ADD19O,2.100000X2.100000*%
%ADD20C,2.450000*%
%ADD21C,2.650000*%
G04 APERTURE END LIST*
D10*
X129790000Y-79250000D03*
D11*
X132350000Y-79250000D03*
D12*
G36*
X148637493Y-68101535D02*
G01*
X148668435Y-68106125D01*
X148698778Y-68113725D01*
X148728230Y-68124263D01*
X148756508Y-68137638D01*
X148783338Y-68153719D01*
X148808463Y-68172353D01*
X148831640Y-68193360D01*
X148852647Y-68216537D01*
X148871281Y-68241662D01*
X148887362Y-68268492D01*
X148900737Y-68296770D01*
X148911275Y-68326222D01*
X148918875Y-68356565D01*
X148923465Y-68387507D01*
X148925000Y-68418750D01*
X148925000Y-69056250D01*
X148923465Y-69087493D01*
X148918875Y-69118435D01*
X148911275Y-69148778D01*
X148900737Y-69178230D01*
X148887362Y-69206508D01*
X148871281Y-69233338D01*
X148852647Y-69258463D01*
X148831640Y-69281640D01*
X148808463Y-69302647D01*
X148783338Y-69321281D01*
X148756508Y-69337362D01*
X148728230Y-69350737D01*
X148698778Y-69361275D01*
X148668435Y-69368875D01*
X148637493Y-69373465D01*
X148606250Y-69375000D01*
X147893750Y-69375000D01*
X147862507Y-69373465D01*
X147831565Y-69368875D01*
X147801222Y-69361275D01*
X147771770Y-69350737D01*
X147743492Y-69337362D01*
X147716662Y-69321281D01*
X147691537Y-69302647D01*
X147668360Y-69281640D01*
X147647353Y-69258463D01*
X147628719Y-69233338D01*
X147612638Y-69206508D01*
X147599263Y-69178230D01*
X147588725Y-69148778D01*
X147581125Y-69118435D01*
X147576535Y-69087493D01*
X147575000Y-69056250D01*
X147575000Y-68418750D01*
X147576535Y-68387507D01*
X147581125Y-68356565D01*
X147588725Y-68326222D01*
X147599263Y-68296770D01*
X147612638Y-68268492D01*
X147628719Y-68241662D01*
X147647353Y-68216537D01*
X147668360Y-68193360D01*
X147691537Y-68172353D01*
X147716662Y-68153719D01*
X147743492Y-68137638D01*
X147771770Y-68124263D01*
X147801222Y-68113725D01*
X147831565Y-68106125D01*
X147862507Y-68101535D01*
X147893750Y-68100000D01*
X148606250Y-68100000D01*
X148637493Y-68101535D01*
G37*
G36*
X148637493Y-66526535D02*
G01*
X148668435Y-66531125D01*
X148698778Y-66538725D01*
X148728230Y-66549263D01*
X148756508Y-66562638D01*
X148783338Y-66578719D01*
X148808463Y-66597353D01*
X148831640Y-66618360D01*
X148852647Y-66641537D01*
X148871281Y-66666662D01*
X148887362Y-66693492D01*
X148900737Y-66721770D01*
X148911275Y-66751222D01*
X148918875Y-66781565D01*
X148923465Y-66812507D01*
X148925000Y-66843750D01*
X148925000Y-67481250D01*
X148923465Y-67512493D01*
X148918875Y-67543435D01*
X148911275Y-67573778D01*
X148900737Y-67603230D01*
X148887362Y-67631508D01*
X148871281Y-67658338D01*
X148852647Y-67683463D01*
X148831640Y-67706640D01*
X148808463Y-67727647D01*
X148783338Y-67746281D01*
X148756508Y-67762362D01*
X148728230Y-67775737D01*
X148698778Y-67786275D01*
X148668435Y-67793875D01*
X148637493Y-67798465D01*
X148606250Y-67800000D01*
X147893750Y-67800000D01*
X147862507Y-67798465D01*
X147831565Y-67793875D01*
X147801222Y-67786275D01*
X147771770Y-67775737D01*
X147743492Y-67762362D01*
X147716662Y-67746281D01*
X147691537Y-67727647D01*
X147668360Y-67706640D01*
X147647353Y-67683463D01*
X147628719Y-67658338D01*
X147612638Y-67631508D01*
X147599263Y-67603230D01*
X147588725Y-67573778D01*
X147581125Y-67543435D01*
X147576535Y-67512493D01*
X147575000Y-67481250D01*
X147575000Y-66843750D01*
X147576535Y-66812507D01*
X147581125Y-66781565D01*
X147588725Y-66751222D01*
X147599263Y-66721770D01*
X147612638Y-66693492D01*
X147628719Y-66666662D01*
X147647353Y-66641537D01*
X147668360Y-66618360D01*
X147691537Y-66597353D01*
X147716662Y-66578719D01*
X147743492Y-66562638D01*
X147771770Y-66549263D01*
X147801222Y-66538725D01*
X147831565Y-66531125D01*
X147862507Y-66526535D01*
X147893750Y-66525000D01*
X148606250Y-66525000D01*
X148637493Y-66526535D01*
G37*
D13*
X146450000Y-65650000D03*
X146450000Y-66150000D03*
X146450000Y-66650000D03*
X146450000Y-67150000D03*
X146450000Y-67650000D03*
X146450000Y-68650000D03*
X143650000Y-68650000D03*
X143650000Y-68150000D03*
X143650000Y-67650000D03*
X143650000Y-66650000D03*
X143650000Y-66150000D03*
X143650000Y-65650000D03*
D12*
G36*
X145628056Y-67560301D02*
G01*
X145637267Y-67560301D01*
X145656872Y-67561264D01*
X145681288Y-67563669D01*
X145700699Y-67566549D01*
X145724761Y-67571335D01*
X145743804Y-67576105D01*
X145767281Y-67583227D01*
X145785759Y-67589838D01*
X145808426Y-67599227D01*
X145826167Y-67607618D01*
X145847804Y-67619183D01*
X145864639Y-67629273D01*
X145885038Y-67642903D01*
X145900803Y-67654595D01*
X145919768Y-67670159D01*
X145934311Y-67683341D01*
X145951659Y-67700689D01*
X145964841Y-67715232D01*
X145980405Y-67734197D01*
X145992097Y-67749962D01*
X146005727Y-67770361D01*
X146015817Y-67787196D01*
X146027382Y-67808833D01*
X146035029Y-67825000D01*
X146800000Y-67825000D01*
X146839018Y-67828843D01*
X146876537Y-67840224D01*
X146911114Y-67858706D01*
X146941421Y-67883579D01*
X146966294Y-67913886D01*
X146984776Y-67948463D01*
X146996157Y-67985982D01*
X147000000Y-68025000D01*
X147000000Y-68275000D01*
X146996157Y-68314018D01*
X146984776Y-68351537D01*
X146966294Y-68386114D01*
X146941421Y-68416421D01*
X146911114Y-68441294D01*
X146876537Y-68459776D01*
X146839018Y-68471157D01*
X146800000Y-68475000D01*
X146075000Y-68475000D01*
X146075000Y-68580000D01*
X146074699Y-68583056D01*
X146074699Y-68592267D01*
X146073736Y-68611872D01*
X146071331Y-68636288D01*
X146068451Y-68655699D01*
X146063665Y-68679761D01*
X146058895Y-68698804D01*
X146051773Y-68722281D01*
X146045162Y-68740759D01*
X146035773Y-68763426D01*
X146027382Y-68781167D01*
X146015817Y-68802804D01*
X146005727Y-68819639D01*
X145992097Y-68840038D01*
X145980405Y-68855803D01*
X145964841Y-68874768D01*
X145951659Y-68889311D01*
X145934311Y-68906659D01*
X145919768Y-68919841D01*
X145900803Y-68935405D01*
X145885038Y-68947097D01*
X145864639Y-68960727D01*
X145847804Y-68970817D01*
X145826167Y-68982382D01*
X145808426Y-68990773D01*
X145785759Y-69000162D01*
X145767281Y-69006773D01*
X145743804Y-69013895D01*
X145724761Y-69018665D01*
X145700699Y-69023451D01*
X145681288Y-69026331D01*
X145656872Y-69028736D01*
X145637267Y-69029699D01*
X145628056Y-69029699D01*
X145625000Y-69030000D01*
X144475000Y-69030000D01*
X144471944Y-69029699D01*
X144462733Y-69029699D01*
X144443128Y-69028736D01*
X144418712Y-69026331D01*
X144399301Y-69023451D01*
X144375239Y-69018665D01*
X144356196Y-69013895D01*
X144332719Y-69006773D01*
X144314241Y-69000162D01*
X144291574Y-68990773D01*
X144273833Y-68982382D01*
X144252196Y-68970817D01*
X144235361Y-68960727D01*
X144214962Y-68947097D01*
X144199197Y-68935405D01*
X144180232Y-68919841D01*
X144165689Y-68906659D01*
X144148341Y-68889311D01*
X144135159Y-68874768D01*
X144119595Y-68855803D01*
X144107903Y-68840038D01*
X144094273Y-68819639D01*
X144084183Y-68802804D01*
X144072618Y-68781167D01*
X144064227Y-68763426D01*
X144054838Y-68740759D01*
X144048227Y-68722281D01*
X144041105Y-68698804D01*
X144036335Y-68679761D01*
X144031549Y-68655699D01*
X144028669Y-68636288D01*
X144026264Y-68611872D01*
X144025301Y-68592267D01*
X144025301Y-68583056D01*
X144025000Y-68580000D01*
X144025000Y-68010000D01*
X144025301Y-68006944D01*
X144025301Y-67997733D01*
X144026264Y-67978128D01*
X144028669Y-67953712D01*
X144031549Y-67934301D01*
X144036335Y-67910239D01*
X144041105Y-67891196D01*
X144048227Y-67867719D01*
X144054838Y-67849241D01*
X144064227Y-67826574D01*
X144072618Y-67808833D01*
X144084183Y-67787196D01*
X144094273Y-67770361D01*
X144107903Y-67749962D01*
X144119595Y-67734197D01*
X144135159Y-67715232D01*
X144148341Y-67700689D01*
X144165689Y-67683341D01*
X144180232Y-67670159D01*
X144199197Y-67654595D01*
X144214962Y-67642903D01*
X144235361Y-67629273D01*
X144252196Y-67619183D01*
X144273833Y-67607618D01*
X144291574Y-67599227D01*
X144314241Y-67589838D01*
X144332719Y-67583227D01*
X144356196Y-67576105D01*
X144375239Y-67571335D01*
X144399301Y-67566549D01*
X144418712Y-67563669D01*
X144443128Y-67561264D01*
X144462733Y-67560301D01*
X144471944Y-67560301D01*
X144475000Y-67560000D01*
X145625000Y-67560000D01*
X145628056Y-67560301D01*
G37*
G36*
X145628056Y-65270301D02*
G01*
X145637267Y-65270301D01*
X145656872Y-65271264D01*
X145681288Y-65273669D01*
X145700699Y-65276549D01*
X145724761Y-65281335D01*
X145743804Y-65286105D01*
X145767281Y-65293227D01*
X145785759Y-65299838D01*
X145808426Y-65309227D01*
X145826167Y-65317618D01*
X145847804Y-65329183D01*
X145864639Y-65339273D01*
X145885038Y-65352903D01*
X145900803Y-65364595D01*
X145919768Y-65380159D01*
X145934311Y-65393341D01*
X145951659Y-65410689D01*
X145964841Y-65425232D01*
X145980405Y-65444197D01*
X145992097Y-65459962D01*
X146005727Y-65480361D01*
X146015817Y-65497196D01*
X146027382Y-65518833D01*
X146035773Y-65536574D01*
X146045162Y-65559241D01*
X146051773Y-65577719D01*
X146058895Y-65601196D01*
X146063665Y-65620239D01*
X146068451Y-65644301D01*
X146071331Y-65663712D01*
X146073736Y-65688128D01*
X146074699Y-65707733D01*
X146074699Y-65716944D01*
X146075000Y-65720000D01*
X146075000Y-67000000D01*
X146074699Y-67003056D01*
X146074699Y-67012267D01*
X146073736Y-67031872D01*
X146071331Y-67056288D01*
X146068451Y-67075699D01*
X146063665Y-67099761D01*
X146058895Y-67118804D01*
X146051773Y-67142281D01*
X146045162Y-67160759D01*
X146035773Y-67183426D01*
X146027382Y-67201167D01*
X146015817Y-67222804D01*
X146005727Y-67239639D01*
X145992097Y-67260038D01*
X145980405Y-67275803D01*
X145964841Y-67294768D01*
X145951659Y-67309311D01*
X145934311Y-67326659D01*
X145919768Y-67339841D01*
X145900803Y-67355405D01*
X145885038Y-67367097D01*
X145864639Y-67380727D01*
X145847804Y-67390817D01*
X145826167Y-67402382D01*
X145808426Y-67410773D01*
X145785759Y-67420162D01*
X145767281Y-67426773D01*
X145743804Y-67433895D01*
X145724761Y-67438665D01*
X145700699Y-67443451D01*
X145681288Y-67446331D01*
X145656872Y-67448736D01*
X145637267Y-67449699D01*
X145628056Y-67449699D01*
X145625000Y-67450000D01*
X144294623Y-67450000D01*
X144218507Y-67469029D01*
X144170000Y-67475000D01*
X143300000Y-67475000D01*
X143260982Y-67471157D01*
X143223463Y-67459776D01*
X143188886Y-67441294D01*
X143158579Y-67416421D01*
X143133706Y-67386114D01*
X143115224Y-67351537D01*
X143103843Y-67314018D01*
X143100000Y-67275000D01*
X143100000Y-67025000D01*
X143103843Y-66985982D01*
X143115224Y-66948463D01*
X143133706Y-66913886D01*
X143158579Y-66883579D01*
X143188886Y-66858706D01*
X143223463Y-66840224D01*
X143260982Y-66828843D01*
X143300000Y-66825000D01*
X143959990Y-66825000D01*
X143984715Y-66822528D01*
X143994172Y-66819572D01*
X144002536Y-66814992D01*
X144009505Y-66809307D01*
X144015839Y-66801338D01*
X144019674Y-66794192D01*
X144022453Y-66784861D01*
X144025000Y-66759900D01*
X144025000Y-65720000D01*
X144028843Y-65680982D01*
X144040224Y-65643463D01*
X144058706Y-65608886D01*
X144083579Y-65578579D01*
X144333579Y-65328579D01*
X144363886Y-65303706D01*
X144398463Y-65285224D01*
X144435982Y-65273843D01*
X144475000Y-65270000D01*
X145625000Y-65270000D01*
X145628056Y-65270301D01*
G37*
G36*
X148677346Y-70926589D02*
G01*
X148709380Y-70931341D01*
X148740794Y-70939210D01*
X148771286Y-70950120D01*
X148800561Y-70963966D01*
X148828338Y-70980615D01*
X148854350Y-70999907D01*
X148878345Y-71021655D01*
X148900093Y-71045650D01*
X148919385Y-71071662D01*
X148936034Y-71099439D01*
X148949880Y-71128714D01*
X148960790Y-71159206D01*
X148968659Y-71190620D01*
X148973411Y-71222654D01*
X148975000Y-71255000D01*
X148975000Y-72245000D01*
X148973411Y-72277346D01*
X148968659Y-72309380D01*
X148960790Y-72340794D01*
X148949880Y-72371286D01*
X148936034Y-72400561D01*
X148919385Y-72428338D01*
X148900093Y-72454350D01*
X148878345Y-72478345D01*
X148854350Y-72500093D01*
X148828338Y-72519385D01*
X148800561Y-72536034D01*
X148771286Y-72549880D01*
X148740794Y-72560790D01*
X148709380Y-72568659D01*
X148677346Y-72573411D01*
X148645000Y-72575000D01*
X146255000Y-72575000D01*
X146222654Y-72573411D01*
X146190620Y-72568659D01*
X146159206Y-72560790D01*
X146128714Y-72549880D01*
X146099439Y-72536034D01*
X146071662Y-72519385D01*
X146045650Y-72500093D01*
X146021655Y-72478345D01*
X145999907Y-72454350D01*
X145980615Y-72428338D01*
X145963966Y-72400561D01*
X145950120Y-72371286D01*
X145939210Y-72340794D01*
X145931341Y-72309380D01*
X145926589Y-72277346D01*
X145925000Y-72245000D01*
X145925000Y-71255000D01*
X145926589Y-71222654D01*
X145931341Y-71190620D01*
X145939210Y-71159206D01*
X145950120Y-71128714D01*
X145963966Y-71099439D01*
X145980615Y-71071662D01*
X145999907Y-71045650D01*
X146021655Y-71021655D01*
X146045650Y-70999907D01*
X146071662Y-70980615D01*
X146099439Y-70963966D01*
X146128714Y-70950120D01*
X146159206Y-70939210D01*
X146190620Y-70931341D01*
X146222654Y-70926589D01*
X146255000Y-70925000D01*
X148645000Y-70925000D01*
X148677346Y-70926589D01*
G37*
G36*
X148677346Y-73726589D02*
G01*
X148709380Y-73731341D01*
X148740794Y-73739210D01*
X148771286Y-73750120D01*
X148800561Y-73763966D01*
X148828338Y-73780615D01*
X148854350Y-73799907D01*
X148878345Y-73821655D01*
X148900093Y-73845650D01*
X148919385Y-73871662D01*
X148936034Y-73899439D01*
X148949880Y-73928714D01*
X148960790Y-73959206D01*
X148968659Y-73990620D01*
X148973411Y-74022654D01*
X148975000Y-74055000D01*
X148975000Y-75045000D01*
X148973411Y-75077346D01*
X148968659Y-75109380D01*
X148960790Y-75140794D01*
X148949880Y-75171286D01*
X148936034Y-75200561D01*
X148919385Y-75228338D01*
X148900093Y-75254350D01*
X148878345Y-75278345D01*
X148854350Y-75300093D01*
X148828338Y-75319385D01*
X148800561Y-75336034D01*
X148771286Y-75349880D01*
X148740794Y-75360790D01*
X148709380Y-75368659D01*
X148677346Y-75373411D01*
X148645000Y-75375000D01*
X146255000Y-75375000D01*
X146222654Y-75373411D01*
X146190620Y-75368659D01*
X146159206Y-75360790D01*
X146128714Y-75349880D01*
X146099439Y-75336034D01*
X146071662Y-75319385D01*
X146045650Y-75300093D01*
X146021655Y-75278345D01*
X145999907Y-75254350D01*
X145980615Y-75228338D01*
X145963966Y-75200561D01*
X145950120Y-75171286D01*
X145939210Y-75140794D01*
X145931341Y-75109380D01*
X145926589Y-75077346D01*
X145925000Y-75045000D01*
X145925000Y-74055000D01*
X145926589Y-74022654D01*
X145931341Y-73990620D01*
X145939210Y-73959206D01*
X145950120Y-73928714D01*
X145963966Y-73899439D01*
X145980615Y-73871662D01*
X145999907Y-73845650D01*
X146021655Y-73821655D01*
X146045650Y-73799907D01*
X146071662Y-73780615D01*
X146099439Y-73763966D01*
X146128714Y-73750120D01*
X146159206Y-73739210D01*
X146190620Y-73731341D01*
X146222654Y-73726589D01*
X146255000Y-73725000D01*
X148645000Y-73725000D01*
X148677346Y-73726589D01*
G37*
G36*
X148477346Y-61126589D02*
G01*
X148509380Y-61131341D01*
X148540794Y-61139210D01*
X148571286Y-61150120D01*
X148600561Y-61163966D01*
X148628338Y-61180615D01*
X148654350Y-61199907D01*
X148678345Y-61221655D01*
X148700093Y-61245650D01*
X148719385Y-61271662D01*
X148736034Y-61299439D01*
X148749880Y-61328714D01*
X148760790Y-61359206D01*
X148768659Y-61390620D01*
X148773411Y-61422654D01*
X148775000Y-61455000D01*
X148775000Y-62445000D01*
X148773411Y-62477346D01*
X148768659Y-62509380D01*
X148760790Y-62540794D01*
X148749880Y-62571286D01*
X148736034Y-62600561D01*
X148719385Y-62628338D01*
X148700093Y-62654350D01*
X148678345Y-62678345D01*
X148654350Y-62700093D01*
X148628338Y-62719385D01*
X148600561Y-62736034D01*
X148571286Y-62749880D01*
X148540794Y-62760790D01*
X148509380Y-62768659D01*
X148477346Y-62773411D01*
X148445000Y-62775000D01*
X146055000Y-62775000D01*
X146022654Y-62773411D01*
X145990620Y-62768659D01*
X145959206Y-62760790D01*
X145928714Y-62749880D01*
X145899439Y-62736034D01*
X145871662Y-62719385D01*
X145845650Y-62700093D01*
X145821655Y-62678345D01*
X145799907Y-62654350D01*
X145780615Y-62628338D01*
X145763966Y-62600561D01*
X145750120Y-62571286D01*
X145739210Y-62540794D01*
X145731341Y-62509380D01*
X145726589Y-62477346D01*
X145725000Y-62445000D01*
X145725000Y-61455000D01*
X145726589Y-61422654D01*
X145731341Y-61390620D01*
X145739210Y-61359206D01*
X145750120Y-61328714D01*
X145763966Y-61299439D01*
X145780615Y-61271662D01*
X145799907Y-61245650D01*
X145821655Y-61221655D01*
X145845650Y-61199907D01*
X145871662Y-61180615D01*
X145899439Y-61163966D01*
X145928714Y-61150120D01*
X145959206Y-61139210D01*
X145990620Y-61131341D01*
X146022654Y-61126589D01*
X146055000Y-61125000D01*
X148445000Y-61125000D01*
X148477346Y-61126589D01*
G37*
G36*
X148477346Y-58326589D02*
G01*
X148509380Y-58331341D01*
X148540794Y-58339210D01*
X148571286Y-58350120D01*
X148600561Y-58363966D01*
X148628338Y-58380615D01*
X148654350Y-58399907D01*
X148678345Y-58421655D01*
X148700093Y-58445650D01*
X148719385Y-58471662D01*
X148736034Y-58499439D01*
X148749880Y-58528714D01*
X148760790Y-58559206D01*
X148768659Y-58590620D01*
X148773411Y-58622654D01*
X148775000Y-58655000D01*
X148775000Y-59645000D01*
X148773411Y-59677346D01*
X148768659Y-59709380D01*
X148760790Y-59740794D01*
X148749880Y-59771286D01*
X148736034Y-59800561D01*
X148719385Y-59828338D01*
X148700093Y-59854350D01*
X148678345Y-59878345D01*
X148654350Y-59900093D01*
X148628338Y-59919385D01*
X148600561Y-59936034D01*
X148571286Y-59949880D01*
X148540794Y-59960790D01*
X148509380Y-59968659D01*
X148477346Y-59973411D01*
X148445000Y-59975000D01*
X146055000Y-59975000D01*
X146022654Y-59973411D01*
X145990620Y-59968659D01*
X145959206Y-59960790D01*
X145928714Y-59949880D01*
X145899439Y-59936034D01*
X145871662Y-59919385D01*
X145845650Y-59900093D01*
X145821655Y-59878345D01*
X145799907Y-59854350D01*
X145780615Y-59828338D01*
X145763966Y-59800561D01*
X145750120Y-59771286D01*
X145739210Y-59740794D01*
X145731341Y-59709380D01*
X145726589Y-59677346D01*
X145725000Y-59645000D01*
X145725000Y-58655000D01*
X145726589Y-58622654D01*
X145731341Y-58590620D01*
X145739210Y-58559206D01*
X145750120Y-58528714D01*
X145763966Y-58499439D01*
X145780615Y-58471662D01*
X145799907Y-58445650D01*
X145821655Y-58421655D01*
X145845650Y-58399907D01*
X145871662Y-58380615D01*
X145899439Y-58363966D01*
X145928714Y-58350120D01*
X145959206Y-58339210D01*
X145990620Y-58331341D01*
X146022654Y-58326589D01*
X146055000Y-58325000D01*
X148445000Y-58325000D01*
X148477346Y-58326589D01*
G37*
D14*
X133350000Y-75055000D03*
X133350000Y-73785000D03*
X133350000Y-72515000D03*
X133350000Y-71245000D03*
X127950000Y-71245000D03*
X127950000Y-72515000D03*
X127950000Y-73785000D03*
X127950000Y-75055000D03*
D15*
X130062500Y-72562500D03*
X130062500Y-73737500D03*
X131237500Y-72562500D03*
X131237500Y-73737500D03*
D12*
G36*
X142337493Y-64926535D02*
G01*
X142368435Y-64931125D01*
X142398778Y-64938725D01*
X142428230Y-64949263D01*
X142456508Y-64962638D01*
X142483338Y-64978719D01*
X142508463Y-64997353D01*
X142531640Y-65018360D01*
X142552647Y-65041537D01*
X142571281Y-65066662D01*
X142587362Y-65093492D01*
X142600737Y-65121770D01*
X142611275Y-65151222D01*
X142618875Y-65181565D01*
X142623465Y-65212507D01*
X142625000Y-65243750D01*
X142625000Y-65881250D01*
X142623465Y-65912493D01*
X142618875Y-65943435D01*
X142611275Y-65973778D01*
X142600737Y-66003230D01*
X142587362Y-66031508D01*
X142571281Y-66058338D01*
X142552647Y-66083463D01*
X142531640Y-66106640D01*
X142508463Y-66127647D01*
X142483338Y-66146281D01*
X142456508Y-66162362D01*
X142428230Y-66175737D01*
X142398778Y-66186275D01*
X142368435Y-66193875D01*
X142337493Y-66198465D01*
X142306250Y-66200000D01*
X141593750Y-66200000D01*
X141562507Y-66198465D01*
X141531565Y-66193875D01*
X141501222Y-66186275D01*
X141471770Y-66175737D01*
X141443492Y-66162362D01*
X141416662Y-66146281D01*
X141391537Y-66127647D01*
X141368360Y-66106640D01*
X141347353Y-66083463D01*
X141328719Y-66058338D01*
X141312638Y-66031508D01*
X141299263Y-66003230D01*
X141288725Y-65973778D01*
X141281125Y-65943435D01*
X141276535Y-65912493D01*
X141275000Y-65881250D01*
X141275000Y-65243750D01*
X141276535Y-65212507D01*
X141281125Y-65181565D01*
X141288725Y-65151222D01*
X141299263Y-65121770D01*
X141312638Y-65093492D01*
X141328719Y-65066662D01*
X141347353Y-65041537D01*
X141368360Y-65018360D01*
X141391537Y-64997353D01*
X141416662Y-64978719D01*
X141443492Y-64962638D01*
X141471770Y-64949263D01*
X141501222Y-64938725D01*
X141531565Y-64931125D01*
X141562507Y-64926535D01*
X141593750Y-64925000D01*
X142306250Y-64925000D01*
X142337493Y-64926535D01*
G37*
G36*
X142337493Y-66501535D02*
G01*
X142368435Y-66506125D01*
X142398778Y-66513725D01*
X142428230Y-66524263D01*
X142456508Y-66537638D01*
X142483338Y-66553719D01*
X142508463Y-66572353D01*
X142531640Y-66593360D01*
X142552647Y-66616537D01*
X142571281Y-66641662D01*
X142587362Y-66668492D01*
X142600737Y-66696770D01*
X142611275Y-66726222D01*
X142618875Y-66756565D01*
X142623465Y-66787507D01*
X142625000Y-66818750D01*
X142625000Y-67456250D01*
X142623465Y-67487493D01*
X142618875Y-67518435D01*
X142611275Y-67548778D01*
X142600737Y-67578230D01*
X142587362Y-67606508D01*
X142571281Y-67633338D01*
X142552647Y-67658463D01*
X142531640Y-67681640D01*
X142508463Y-67702647D01*
X142483338Y-67721281D01*
X142456508Y-67737362D01*
X142428230Y-67750737D01*
X142398778Y-67761275D01*
X142368435Y-67768875D01*
X142337493Y-67773465D01*
X142306250Y-67775000D01*
X141593750Y-67775000D01*
X141562507Y-67773465D01*
X141531565Y-67768875D01*
X141501222Y-67761275D01*
X141471770Y-67750737D01*
X141443492Y-67737362D01*
X141416662Y-67721281D01*
X141391537Y-67702647D01*
X141368360Y-67681640D01*
X141347353Y-67658463D01*
X141328719Y-67633338D01*
X141312638Y-67606508D01*
X141299263Y-67578230D01*
X141288725Y-67548778D01*
X141281125Y-67518435D01*
X141276535Y-67487493D01*
X141275000Y-67456250D01*
X141275000Y-66818750D01*
X141276535Y-66787507D01*
X141281125Y-66756565D01*
X141288725Y-66726222D01*
X141299263Y-66696770D01*
X141312638Y-66668492D01*
X141328719Y-66641662D01*
X141347353Y-66616537D01*
X141368360Y-66593360D01*
X141391537Y-66572353D01*
X141416662Y-66553719D01*
X141443492Y-66537638D01*
X141471770Y-66524263D01*
X141501222Y-66513725D01*
X141531565Y-66506125D01*
X141562507Y-66501535D01*
X141593750Y-66500000D01*
X142306250Y-66500000D01*
X142337493Y-66501535D01*
G37*
G36*
X142077346Y-58326589D02*
G01*
X142109380Y-58331341D01*
X142140794Y-58339210D01*
X142171286Y-58350120D01*
X142200561Y-58363966D01*
X142228338Y-58380615D01*
X142254350Y-58399907D01*
X142278345Y-58421655D01*
X142300093Y-58445650D01*
X142319385Y-58471662D01*
X142336034Y-58499439D01*
X142349880Y-58528714D01*
X142360790Y-58559206D01*
X142368659Y-58590620D01*
X142373411Y-58622654D01*
X142375000Y-58655000D01*
X142375000Y-59645000D01*
X142373411Y-59677346D01*
X142368659Y-59709380D01*
X142360790Y-59740794D01*
X142349880Y-59771286D01*
X142336034Y-59800561D01*
X142319385Y-59828338D01*
X142300093Y-59854350D01*
X142278345Y-59878345D01*
X142254350Y-59900093D01*
X142228338Y-59919385D01*
X142200561Y-59936034D01*
X142171286Y-59949880D01*
X142140794Y-59960790D01*
X142109380Y-59968659D01*
X142077346Y-59973411D01*
X142045000Y-59975000D01*
X139655000Y-59975000D01*
X139622654Y-59973411D01*
X139590620Y-59968659D01*
X139559206Y-59960790D01*
X139528714Y-59949880D01*
X139499439Y-59936034D01*
X139471662Y-59919385D01*
X139445650Y-59900093D01*
X139421655Y-59878345D01*
X139399907Y-59854350D01*
X139380615Y-59828338D01*
X139363966Y-59800561D01*
X139350120Y-59771286D01*
X139339210Y-59740794D01*
X139331341Y-59709380D01*
X139326589Y-59677346D01*
X139325000Y-59645000D01*
X139325000Y-58655000D01*
X139326589Y-58622654D01*
X139331341Y-58590620D01*
X139339210Y-58559206D01*
X139350120Y-58528714D01*
X139363966Y-58499439D01*
X139380615Y-58471662D01*
X139399907Y-58445650D01*
X139421655Y-58421655D01*
X139445650Y-58399907D01*
X139471662Y-58380615D01*
X139499439Y-58363966D01*
X139528714Y-58350120D01*
X139559206Y-58339210D01*
X139590620Y-58331341D01*
X139622654Y-58326589D01*
X139655000Y-58325000D01*
X142045000Y-58325000D01*
X142077346Y-58326589D01*
G37*
G36*
X142077346Y-61126589D02*
G01*
X142109380Y-61131341D01*
X142140794Y-61139210D01*
X142171286Y-61150120D01*
X142200561Y-61163966D01*
X142228338Y-61180615D01*
X142254350Y-61199907D01*
X142278345Y-61221655D01*
X142300093Y-61245650D01*
X142319385Y-61271662D01*
X142336034Y-61299439D01*
X142349880Y-61328714D01*
X142360790Y-61359206D01*
X142368659Y-61390620D01*
X142373411Y-61422654D01*
X142375000Y-61455000D01*
X142375000Y-62445000D01*
X142373411Y-62477346D01*
X142368659Y-62509380D01*
X142360790Y-62540794D01*
X142349880Y-62571286D01*
X142336034Y-62600561D01*
X142319385Y-62628338D01*
X142300093Y-62654350D01*
X142278345Y-62678345D01*
X142254350Y-62700093D01*
X142228338Y-62719385D01*
X142200561Y-62736034D01*
X142171286Y-62749880D01*
X142140794Y-62760790D01*
X142109380Y-62768659D01*
X142077346Y-62773411D01*
X142045000Y-62775000D01*
X139655000Y-62775000D01*
X139622654Y-62773411D01*
X139590620Y-62768659D01*
X139559206Y-62760790D01*
X139528714Y-62749880D01*
X139499439Y-62736034D01*
X139471662Y-62719385D01*
X139445650Y-62700093D01*
X139421655Y-62678345D01*
X139399907Y-62654350D01*
X139380615Y-62628338D01*
X139363966Y-62600561D01*
X139350120Y-62571286D01*
X139339210Y-62540794D01*
X139331341Y-62509380D01*
X139326589Y-62477346D01*
X139325000Y-62445000D01*
X139325000Y-61455000D01*
X139326589Y-61422654D01*
X139331341Y-61390620D01*
X139339210Y-61359206D01*
X139350120Y-61328714D01*
X139363966Y-61299439D01*
X139380615Y-61271662D01*
X139399907Y-61245650D01*
X139421655Y-61221655D01*
X139445650Y-61199907D01*
X139471662Y-61180615D01*
X139499439Y-61163966D01*
X139528714Y-61150120D01*
X139559206Y-61139210D01*
X139590620Y-61131341D01*
X139622654Y-61126589D01*
X139655000Y-61125000D01*
X142045000Y-61125000D01*
X142077346Y-61126589D01*
G37*
G36*
X143277346Y-73626589D02*
G01*
X143309380Y-73631341D01*
X143340794Y-73639210D01*
X143371286Y-73650120D01*
X143400561Y-73663966D01*
X143428338Y-73680615D01*
X143454350Y-73699907D01*
X143478345Y-73721655D01*
X143500093Y-73745650D01*
X143519385Y-73771662D01*
X143536034Y-73799439D01*
X143549880Y-73828714D01*
X143560790Y-73859206D01*
X143568659Y-73890620D01*
X143573411Y-73922654D01*
X143575000Y-73955000D01*
X143575000Y-74945000D01*
X143573411Y-74977346D01*
X143568659Y-75009380D01*
X143560790Y-75040794D01*
X143549880Y-75071286D01*
X143536034Y-75100561D01*
X143519385Y-75128338D01*
X143500093Y-75154350D01*
X143478345Y-75178345D01*
X143454350Y-75200093D01*
X143428338Y-75219385D01*
X143400561Y-75236034D01*
X143371286Y-75249880D01*
X143340794Y-75260790D01*
X143309380Y-75268659D01*
X143277346Y-75273411D01*
X143245000Y-75275000D01*
X140855000Y-75275000D01*
X140822654Y-75273411D01*
X140790620Y-75268659D01*
X140759206Y-75260790D01*
X140728714Y-75249880D01*
X140699439Y-75236034D01*
X140671662Y-75219385D01*
X140645650Y-75200093D01*
X140621655Y-75178345D01*
X140599907Y-75154350D01*
X140580615Y-75128338D01*
X140563966Y-75100561D01*
X140550120Y-75071286D01*
X140539210Y-75040794D01*
X140531341Y-75009380D01*
X140526589Y-74977346D01*
X140525000Y-74945000D01*
X140525000Y-73955000D01*
X140526589Y-73922654D01*
X140531341Y-73890620D01*
X140539210Y-73859206D01*
X140550120Y-73828714D01*
X140563966Y-73799439D01*
X140580615Y-73771662D01*
X140599907Y-73745650D01*
X140621655Y-73721655D01*
X140645650Y-73699907D01*
X140671662Y-73680615D01*
X140699439Y-73663966D01*
X140728714Y-73650120D01*
X140759206Y-73639210D01*
X140790620Y-73631341D01*
X140822654Y-73626589D01*
X140855000Y-73625000D01*
X143245000Y-73625000D01*
X143277346Y-73626589D01*
G37*
G36*
X143277346Y-70826589D02*
G01*
X143309380Y-70831341D01*
X143340794Y-70839210D01*
X143371286Y-70850120D01*
X143400561Y-70863966D01*
X143428338Y-70880615D01*
X143454350Y-70899907D01*
X143478345Y-70921655D01*
X143500093Y-70945650D01*
X143519385Y-70971662D01*
X143536034Y-70999439D01*
X143549880Y-71028714D01*
X143560790Y-71059206D01*
X143568659Y-71090620D01*
X143573411Y-71122654D01*
X143575000Y-71155000D01*
X143575000Y-72145000D01*
X143573411Y-72177346D01*
X143568659Y-72209380D01*
X143560790Y-72240794D01*
X143549880Y-72271286D01*
X143536034Y-72300561D01*
X143519385Y-72328338D01*
X143500093Y-72354350D01*
X143478345Y-72378345D01*
X143454350Y-72400093D01*
X143428338Y-72419385D01*
X143400561Y-72436034D01*
X143371286Y-72449880D01*
X143340794Y-72460790D01*
X143309380Y-72468659D01*
X143277346Y-72473411D01*
X143245000Y-72475000D01*
X140855000Y-72475000D01*
X140822654Y-72473411D01*
X140790620Y-72468659D01*
X140759206Y-72460790D01*
X140728714Y-72449880D01*
X140699439Y-72436034D01*
X140671662Y-72419385D01*
X140645650Y-72400093D01*
X140621655Y-72378345D01*
X140599907Y-72354350D01*
X140580615Y-72328338D01*
X140563966Y-72300561D01*
X140550120Y-72271286D01*
X140539210Y-72240794D01*
X140531341Y-72209380D01*
X140526589Y-72177346D01*
X140525000Y-72145000D01*
X140525000Y-71155000D01*
X140526589Y-71122654D01*
X140531341Y-71090620D01*
X140539210Y-71059206D01*
X140550120Y-71028714D01*
X140563966Y-70999439D01*
X140580615Y-70971662D01*
X140599907Y-70945650D01*
X140621655Y-70921655D01*
X140645650Y-70899907D01*
X140671662Y-70880615D01*
X140699439Y-70863966D01*
X140728714Y-70850120D01*
X140759206Y-70839210D01*
X140790620Y-70831341D01*
X140822654Y-70826589D01*
X140855000Y-70825000D01*
X143245000Y-70825000D01*
X143277346Y-70826589D01*
G37*
G36*
X125037493Y-78076535D02*
G01*
X125068435Y-78081125D01*
X125098778Y-78088725D01*
X125128230Y-78099263D01*
X125156508Y-78112638D01*
X125183338Y-78128719D01*
X125208463Y-78147353D01*
X125231640Y-78168360D01*
X125252647Y-78191537D01*
X125271281Y-78216662D01*
X125287362Y-78243492D01*
X125300737Y-78271770D01*
X125311275Y-78301222D01*
X125318875Y-78331565D01*
X125323465Y-78362507D01*
X125325000Y-78393750D01*
X125325000Y-79031250D01*
X125323465Y-79062493D01*
X125318875Y-79093435D01*
X125311275Y-79123778D01*
X125300737Y-79153230D01*
X125287362Y-79181508D01*
X125271281Y-79208338D01*
X125252647Y-79233463D01*
X125231640Y-79256640D01*
X125208463Y-79277647D01*
X125183338Y-79296281D01*
X125156508Y-79312362D01*
X125128230Y-79325737D01*
X125098778Y-79336275D01*
X125068435Y-79343875D01*
X125037493Y-79348465D01*
X125006250Y-79350000D01*
X124293750Y-79350000D01*
X124262507Y-79348465D01*
X124231565Y-79343875D01*
X124201222Y-79336275D01*
X124171770Y-79325737D01*
X124143492Y-79312362D01*
X124116662Y-79296281D01*
X124091537Y-79277647D01*
X124068360Y-79256640D01*
X124047353Y-79233463D01*
X124028719Y-79208338D01*
X124012638Y-79181508D01*
X123999263Y-79153230D01*
X123988725Y-79123778D01*
X123981125Y-79093435D01*
X123976535Y-79062493D01*
X123975000Y-79031250D01*
X123975000Y-78393750D01*
X123976535Y-78362507D01*
X123981125Y-78331565D01*
X123988725Y-78301222D01*
X123999263Y-78271770D01*
X124012638Y-78243492D01*
X124028719Y-78216662D01*
X124047353Y-78191537D01*
X124068360Y-78168360D01*
X124091537Y-78147353D01*
X124116662Y-78128719D01*
X124143492Y-78112638D01*
X124171770Y-78099263D01*
X124201222Y-78088725D01*
X124231565Y-78081125D01*
X124262507Y-78076535D01*
X124293750Y-78075000D01*
X125006250Y-78075000D01*
X125037493Y-78076535D01*
G37*
G36*
X125037493Y-79651535D02*
G01*
X125068435Y-79656125D01*
X125098778Y-79663725D01*
X125128230Y-79674263D01*
X125156508Y-79687638D01*
X125183338Y-79703719D01*
X125208463Y-79722353D01*
X125231640Y-79743360D01*
X125252647Y-79766537D01*
X125271281Y-79791662D01*
X125287362Y-79818492D01*
X125300737Y-79846770D01*
X125311275Y-79876222D01*
X125318875Y-79906565D01*
X125323465Y-79937507D01*
X125325000Y-79968750D01*
X125325000Y-80606250D01*
X125323465Y-80637493D01*
X125318875Y-80668435D01*
X125311275Y-80698778D01*
X125300737Y-80728230D01*
X125287362Y-80756508D01*
X125271281Y-80783338D01*
X125252647Y-80808463D01*
X125231640Y-80831640D01*
X125208463Y-80852647D01*
X125183338Y-80871281D01*
X125156508Y-80887362D01*
X125128230Y-80900737D01*
X125098778Y-80911275D01*
X125068435Y-80918875D01*
X125037493Y-80923465D01*
X125006250Y-80925000D01*
X124293750Y-80925000D01*
X124262507Y-80923465D01*
X124231565Y-80918875D01*
X124201222Y-80911275D01*
X124171770Y-80900737D01*
X124143492Y-80887362D01*
X124116662Y-80871281D01*
X124091537Y-80852647D01*
X124068360Y-80831640D01*
X124047353Y-80808463D01*
X124028719Y-80783338D01*
X124012638Y-80756508D01*
X123999263Y-80728230D01*
X123988725Y-80698778D01*
X123981125Y-80668435D01*
X123976535Y-80637493D01*
X123975000Y-80606250D01*
X123975000Y-79968750D01*
X123976535Y-79937507D01*
X123981125Y-79906565D01*
X123988725Y-79876222D01*
X123999263Y-79846770D01*
X124012638Y-79818492D01*
X124028719Y-79791662D01*
X124047353Y-79766537D01*
X124068360Y-79743360D01*
X124091537Y-79722353D01*
X124116662Y-79703719D01*
X124143492Y-79687638D01*
X124171770Y-79674263D01*
X124201222Y-79663725D01*
X124231565Y-79656125D01*
X124262507Y-79651535D01*
X124293750Y-79650000D01*
X125006250Y-79650000D01*
X125037493Y-79651535D01*
G37*
G36*
X131612493Y-67976535D02*
G01*
X131643435Y-67981125D01*
X131673778Y-67988725D01*
X131703230Y-67999263D01*
X131731508Y-68012638D01*
X131758338Y-68028719D01*
X131783463Y-68047353D01*
X131806640Y-68068360D01*
X131827647Y-68091537D01*
X131846281Y-68116662D01*
X131862362Y-68143492D01*
X131875737Y-68171770D01*
X131886275Y-68201222D01*
X131893875Y-68231565D01*
X131898465Y-68262507D01*
X131900000Y-68293750D01*
X131900000Y-69006250D01*
X131898465Y-69037493D01*
X131893875Y-69068435D01*
X131886275Y-69098778D01*
X131875737Y-69128230D01*
X131862362Y-69156508D01*
X131846281Y-69183338D01*
X131827647Y-69208463D01*
X131806640Y-69231640D01*
X131783463Y-69252647D01*
X131758338Y-69271281D01*
X131731508Y-69287362D01*
X131703230Y-69300737D01*
X131673778Y-69311275D01*
X131643435Y-69318875D01*
X131612493Y-69323465D01*
X131581250Y-69325000D01*
X130943750Y-69325000D01*
X130912507Y-69323465D01*
X130881565Y-69318875D01*
X130851222Y-69311275D01*
X130821770Y-69300737D01*
X130793492Y-69287362D01*
X130766662Y-69271281D01*
X130741537Y-69252647D01*
X130718360Y-69231640D01*
X130697353Y-69208463D01*
X130678719Y-69183338D01*
X130662638Y-69156508D01*
X130649263Y-69128230D01*
X130638725Y-69098778D01*
X130631125Y-69068435D01*
X130626535Y-69037493D01*
X130625000Y-69006250D01*
X130625000Y-68293750D01*
X130626535Y-68262507D01*
X130631125Y-68231565D01*
X130638725Y-68201222D01*
X130649263Y-68171770D01*
X130662638Y-68143492D01*
X130678719Y-68116662D01*
X130697353Y-68091537D01*
X130718360Y-68068360D01*
X130741537Y-68047353D01*
X130766662Y-68028719D01*
X130793492Y-68012638D01*
X130821770Y-67999263D01*
X130851222Y-67988725D01*
X130881565Y-67981125D01*
X130912507Y-67976535D01*
X130943750Y-67975000D01*
X131581250Y-67975000D01*
X131612493Y-67976535D01*
G37*
G36*
X133187493Y-67976535D02*
G01*
X133218435Y-67981125D01*
X133248778Y-67988725D01*
X133278230Y-67999263D01*
X133306508Y-68012638D01*
X133333338Y-68028719D01*
X133358463Y-68047353D01*
X133381640Y-68068360D01*
X133402647Y-68091537D01*
X133421281Y-68116662D01*
X133437362Y-68143492D01*
X133450737Y-68171770D01*
X133461275Y-68201222D01*
X133468875Y-68231565D01*
X133473465Y-68262507D01*
X133475000Y-68293750D01*
X133475000Y-69006250D01*
X133473465Y-69037493D01*
X133468875Y-69068435D01*
X133461275Y-69098778D01*
X133450737Y-69128230D01*
X133437362Y-69156508D01*
X133421281Y-69183338D01*
X133402647Y-69208463D01*
X133381640Y-69231640D01*
X133358463Y-69252647D01*
X133333338Y-69271281D01*
X133306508Y-69287362D01*
X133278230Y-69300737D01*
X133248778Y-69311275D01*
X133218435Y-69318875D01*
X133187493Y-69323465D01*
X133156250Y-69325000D01*
X132518750Y-69325000D01*
X132487507Y-69323465D01*
X132456565Y-69318875D01*
X132426222Y-69311275D01*
X132396770Y-69300737D01*
X132368492Y-69287362D01*
X132341662Y-69271281D01*
X132316537Y-69252647D01*
X132293360Y-69231640D01*
X132272353Y-69208463D01*
X132253719Y-69183338D01*
X132237638Y-69156508D01*
X132224263Y-69128230D01*
X132213725Y-69098778D01*
X132206125Y-69068435D01*
X132201535Y-69037493D01*
X132200000Y-69006250D01*
X132200000Y-68293750D01*
X132201535Y-68262507D01*
X132206125Y-68231565D01*
X132213725Y-68201222D01*
X132224263Y-68171770D01*
X132237638Y-68143492D01*
X132253719Y-68116662D01*
X132272353Y-68091537D01*
X132293360Y-68068360D01*
X132316537Y-68047353D01*
X132341662Y-68028719D01*
X132368492Y-68012638D01*
X132396770Y-67999263D01*
X132426222Y-67988725D01*
X132456565Y-67981125D01*
X132487507Y-67976535D01*
X132518750Y-67975000D01*
X133156250Y-67975000D01*
X133187493Y-67976535D01*
G37*
G36*
X125139943Y-63126655D02*
G01*
X125173312Y-63131605D01*
X125206035Y-63139802D01*
X125237797Y-63151166D01*
X125268293Y-63165590D01*
X125297227Y-63182932D01*
X125324323Y-63203028D01*
X125349318Y-63225682D01*
X125371972Y-63250677D01*
X125392068Y-63277773D01*
X125409410Y-63306707D01*
X125423834Y-63337203D01*
X125435198Y-63368965D01*
X125443395Y-63401688D01*
X125448345Y-63435057D01*
X125450000Y-63468750D01*
X125450000Y-64156250D01*
X125448345Y-64189943D01*
X125443395Y-64223312D01*
X125435198Y-64256035D01*
X125423834Y-64287797D01*
X125409410Y-64318293D01*
X125392068Y-64347227D01*
X125371972Y-64374323D01*
X125349318Y-64399318D01*
X125324323Y-64421972D01*
X125297227Y-64442068D01*
X125268293Y-64459410D01*
X125237797Y-64473834D01*
X125206035Y-64485198D01*
X125173312Y-64493395D01*
X125139943Y-64498345D01*
X125106250Y-64500000D01*
X123993750Y-64500000D01*
X123960057Y-64498345D01*
X123926688Y-64493395D01*
X123893965Y-64485198D01*
X123862203Y-64473834D01*
X123831707Y-64459410D01*
X123802773Y-64442068D01*
X123775677Y-64421972D01*
X123750682Y-64399318D01*
X123728028Y-64374323D01*
X123707932Y-64347227D01*
X123690590Y-64318293D01*
X123676166Y-64287797D01*
X123664802Y-64256035D01*
X123656605Y-64223312D01*
X123651655Y-64189943D01*
X123650000Y-64156250D01*
X123650000Y-63468750D01*
X123651655Y-63435057D01*
X123656605Y-63401688D01*
X123664802Y-63368965D01*
X123676166Y-63337203D01*
X123690590Y-63306707D01*
X123707932Y-63277773D01*
X123728028Y-63250677D01*
X123750682Y-63225682D01*
X123775677Y-63203028D01*
X123802773Y-63182932D01*
X123831707Y-63165590D01*
X123862203Y-63151166D01*
X123893965Y-63139802D01*
X123926688Y-63131605D01*
X123960057Y-63126655D01*
X123993750Y-63125000D01*
X125106250Y-63125000D01*
X125139943Y-63126655D01*
G37*
G36*
X125139943Y-65001655D02*
G01*
X125173312Y-65006605D01*
X125206035Y-65014802D01*
X125237797Y-65026166D01*
X125268293Y-65040590D01*
X125297227Y-65057932D01*
X125324323Y-65078028D01*
X125349318Y-65100682D01*
X125371972Y-65125677D01*
X125392068Y-65152773D01*
X125409410Y-65181707D01*
X125423834Y-65212203D01*
X125435198Y-65243965D01*
X125443395Y-65276688D01*
X125448345Y-65310057D01*
X125450000Y-65343750D01*
X125450000Y-66031250D01*
X125448345Y-66064943D01*
X125443395Y-66098312D01*
X125435198Y-66131035D01*
X125423834Y-66162797D01*
X125409410Y-66193293D01*
X125392068Y-66222227D01*
X125371972Y-66249323D01*
X125349318Y-66274318D01*
X125324323Y-66296972D01*
X125297227Y-66317068D01*
X125268293Y-66334410D01*
X125237797Y-66348834D01*
X125206035Y-66360198D01*
X125173312Y-66368395D01*
X125139943Y-66373345D01*
X125106250Y-66375000D01*
X123993750Y-66375000D01*
X123960057Y-66373345D01*
X123926688Y-66368395D01*
X123893965Y-66360198D01*
X123862203Y-66348834D01*
X123831707Y-66334410D01*
X123802773Y-66317068D01*
X123775677Y-66296972D01*
X123750682Y-66274318D01*
X123728028Y-66249323D01*
X123707932Y-66222227D01*
X123690590Y-66193293D01*
X123676166Y-66162797D01*
X123664802Y-66131035D01*
X123656605Y-66098312D01*
X123651655Y-66064943D01*
X123650000Y-66031250D01*
X123650000Y-65343750D01*
X123651655Y-65310057D01*
X123656605Y-65276688D01*
X123664802Y-65243965D01*
X123676166Y-65212203D01*
X123690590Y-65181707D01*
X123707932Y-65152773D01*
X123728028Y-65125677D01*
X123750682Y-65100682D01*
X123775677Y-65078028D01*
X123802773Y-65057932D01*
X123831707Y-65040590D01*
X123862203Y-65026166D01*
X123893965Y-65014802D01*
X123926688Y-65006605D01*
X123960057Y-65001655D01*
X123993750Y-65000000D01*
X125106250Y-65000000D01*
X125139943Y-65001655D01*
G37*
D16*
X120050000Y-63750000D03*
X120050000Y-68750000D03*
D12*
G36*
X122587493Y-74376535D02*
G01*
X122618435Y-74381125D01*
X122648778Y-74388725D01*
X122678230Y-74399263D01*
X122706508Y-74412638D01*
X122733338Y-74428719D01*
X122758463Y-74447353D01*
X122781640Y-74468360D01*
X122802647Y-74491537D01*
X122821281Y-74516662D01*
X122837362Y-74543492D01*
X122850737Y-74571770D01*
X122861275Y-74601222D01*
X122868875Y-74631565D01*
X122873465Y-74662507D01*
X122875000Y-74693750D01*
X122875000Y-75406250D01*
X122873465Y-75437493D01*
X122868875Y-75468435D01*
X122861275Y-75498778D01*
X122850737Y-75528230D01*
X122837362Y-75556508D01*
X122821281Y-75583338D01*
X122802647Y-75608463D01*
X122781640Y-75631640D01*
X122758463Y-75652647D01*
X122733338Y-75671281D01*
X122706508Y-75687362D01*
X122678230Y-75700737D01*
X122648778Y-75711275D01*
X122618435Y-75718875D01*
X122587493Y-75723465D01*
X122556250Y-75725000D01*
X121918750Y-75725000D01*
X121887507Y-75723465D01*
X121856565Y-75718875D01*
X121826222Y-75711275D01*
X121796770Y-75700737D01*
X121768492Y-75687362D01*
X121741662Y-75671281D01*
X121716537Y-75652647D01*
X121693360Y-75631640D01*
X121672353Y-75608463D01*
X121653719Y-75583338D01*
X121637638Y-75556508D01*
X121624263Y-75528230D01*
X121613725Y-75498778D01*
X121606125Y-75468435D01*
X121601535Y-75437493D01*
X121600000Y-75406250D01*
X121600000Y-74693750D01*
X121601535Y-74662507D01*
X121606125Y-74631565D01*
X121613725Y-74601222D01*
X121624263Y-74571770D01*
X121637638Y-74543492D01*
X121653719Y-74516662D01*
X121672353Y-74491537D01*
X121693360Y-74468360D01*
X121716537Y-74447353D01*
X121741662Y-74428719D01*
X121768492Y-74412638D01*
X121796770Y-74399263D01*
X121826222Y-74388725D01*
X121856565Y-74381125D01*
X121887507Y-74376535D01*
X121918750Y-74375000D01*
X122556250Y-74375000D01*
X122587493Y-74376535D01*
G37*
G36*
X121012493Y-74376535D02*
G01*
X121043435Y-74381125D01*
X121073778Y-74388725D01*
X121103230Y-74399263D01*
X121131508Y-74412638D01*
X121158338Y-74428719D01*
X121183463Y-74447353D01*
X121206640Y-74468360D01*
X121227647Y-74491537D01*
X121246281Y-74516662D01*
X121262362Y-74543492D01*
X121275737Y-74571770D01*
X121286275Y-74601222D01*
X121293875Y-74631565D01*
X121298465Y-74662507D01*
X121300000Y-74693750D01*
X121300000Y-75406250D01*
X121298465Y-75437493D01*
X121293875Y-75468435D01*
X121286275Y-75498778D01*
X121275737Y-75528230D01*
X121262362Y-75556508D01*
X121246281Y-75583338D01*
X121227647Y-75608463D01*
X121206640Y-75631640D01*
X121183463Y-75652647D01*
X121158338Y-75671281D01*
X121131508Y-75687362D01*
X121103230Y-75700737D01*
X121073778Y-75711275D01*
X121043435Y-75718875D01*
X121012493Y-75723465D01*
X120981250Y-75725000D01*
X120343750Y-75725000D01*
X120312507Y-75723465D01*
X120281565Y-75718875D01*
X120251222Y-75711275D01*
X120221770Y-75700737D01*
X120193492Y-75687362D01*
X120166662Y-75671281D01*
X120141537Y-75652647D01*
X120118360Y-75631640D01*
X120097353Y-75608463D01*
X120078719Y-75583338D01*
X120062638Y-75556508D01*
X120049263Y-75528230D01*
X120038725Y-75498778D01*
X120031125Y-75468435D01*
X120026535Y-75437493D01*
X120025000Y-75406250D01*
X120025000Y-74693750D01*
X120026535Y-74662507D01*
X120031125Y-74631565D01*
X120038725Y-74601222D01*
X120049263Y-74571770D01*
X120062638Y-74543492D01*
X120078719Y-74516662D01*
X120097353Y-74491537D01*
X120118360Y-74468360D01*
X120141537Y-74447353D01*
X120166662Y-74428719D01*
X120193492Y-74412638D01*
X120221770Y-74399263D01*
X120251222Y-74388725D01*
X120281565Y-74381125D01*
X120312507Y-74376535D01*
X120343750Y-74375000D01*
X120981250Y-74375000D01*
X121012493Y-74376535D01*
G37*
D17*
X111250000Y-49500000D03*
X151200000Y-81650000D03*
D18*
X151250000Y-64210000D03*
D19*
X151250000Y-66750000D03*
X151250000Y-69290000D03*
D20*
X112250000Y-63750000D03*
D21*
X114790000Y-66290000D03*
X114790000Y-61210000D03*
X109710000Y-61210000D03*
X109710000Y-66290000D03*
D12*
G36*
X127337493Y-77976535D02*
G01*
X127368435Y-77981125D01*
X127398778Y-77988725D01*
X127428230Y-77999263D01*
X127456508Y-78012638D01*
X127483338Y-78028719D01*
X127508463Y-78047353D01*
X127531640Y-78068360D01*
X127552647Y-78091537D01*
X127571281Y-78116662D01*
X127587362Y-78143492D01*
X127600737Y-78171770D01*
X127611275Y-78201222D01*
X127618875Y-78231565D01*
X127623465Y-78262507D01*
X127625000Y-78293750D01*
X127625000Y-78931250D01*
X127623465Y-78962493D01*
X127618875Y-78993435D01*
X127611275Y-79023778D01*
X127600737Y-79053230D01*
X127587362Y-79081508D01*
X127571281Y-79108338D01*
X127552647Y-79133463D01*
X127531640Y-79156640D01*
X127508463Y-79177647D01*
X127483338Y-79196281D01*
X127456508Y-79212362D01*
X127428230Y-79225737D01*
X127398778Y-79236275D01*
X127368435Y-79243875D01*
X127337493Y-79248465D01*
X127306250Y-79250000D01*
X126593750Y-79250000D01*
X126562507Y-79248465D01*
X126531565Y-79243875D01*
X126501222Y-79236275D01*
X126471770Y-79225737D01*
X126443492Y-79212362D01*
X126416662Y-79196281D01*
X126391537Y-79177647D01*
X126368360Y-79156640D01*
X126347353Y-79133463D01*
X126328719Y-79108338D01*
X126312638Y-79081508D01*
X126299263Y-79053230D01*
X126288725Y-79023778D01*
X126281125Y-78993435D01*
X126276535Y-78962493D01*
X126275000Y-78931250D01*
X126275000Y-78293750D01*
X126276535Y-78262507D01*
X126281125Y-78231565D01*
X126288725Y-78201222D01*
X126299263Y-78171770D01*
X126312638Y-78143492D01*
X126328719Y-78116662D01*
X126347353Y-78091537D01*
X126368360Y-78068360D01*
X126391537Y-78047353D01*
X126416662Y-78028719D01*
X126443492Y-78012638D01*
X126471770Y-77999263D01*
X126501222Y-77988725D01*
X126531565Y-77981125D01*
X126562507Y-77976535D01*
X126593750Y-77975000D01*
X127306250Y-77975000D01*
X127337493Y-77976535D01*
G37*
G36*
X127337493Y-79551535D02*
G01*
X127368435Y-79556125D01*
X127398778Y-79563725D01*
X127428230Y-79574263D01*
X127456508Y-79587638D01*
X127483338Y-79603719D01*
X127508463Y-79622353D01*
X127531640Y-79643360D01*
X127552647Y-79666537D01*
X127571281Y-79691662D01*
X127587362Y-79718492D01*
X127600737Y-79746770D01*
X127611275Y-79776222D01*
X127618875Y-79806565D01*
X127623465Y-79837507D01*
X127625000Y-79868750D01*
X127625000Y-80506250D01*
X127623465Y-80537493D01*
X127618875Y-80568435D01*
X127611275Y-80598778D01*
X127600737Y-80628230D01*
X127587362Y-80656508D01*
X127571281Y-80683338D01*
X127552647Y-80708463D01*
X127531640Y-80731640D01*
X127508463Y-80752647D01*
X127483338Y-80771281D01*
X127456508Y-80787362D01*
X127428230Y-80800737D01*
X127398778Y-80811275D01*
X127368435Y-80818875D01*
X127337493Y-80823465D01*
X127306250Y-80825000D01*
X126593750Y-80825000D01*
X126562507Y-80823465D01*
X126531565Y-80818875D01*
X126501222Y-80811275D01*
X126471770Y-80800737D01*
X126443492Y-80787362D01*
X126416662Y-80771281D01*
X126391537Y-80752647D01*
X126368360Y-80731640D01*
X126347353Y-80708463D01*
X126328719Y-80683338D01*
X126312638Y-80656508D01*
X126299263Y-80628230D01*
X126288725Y-80598778D01*
X126281125Y-80568435D01*
X126276535Y-80537493D01*
X126275000Y-80506250D01*
X126275000Y-79868750D01*
X126276535Y-79837507D01*
X126281125Y-79806565D01*
X126288725Y-79776222D01*
X126299263Y-79746770D01*
X126312638Y-79718492D01*
X126328719Y-79691662D01*
X126347353Y-79666537D01*
X126368360Y-79643360D01*
X126391537Y-79622353D01*
X126416662Y-79603719D01*
X126443492Y-79587638D01*
X126471770Y-79574263D01*
X126501222Y-79563725D01*
X126531565Y-79556125D01*
X126562507Y-79551535D01*
X126593750Y-79550000D01*
X127306250Y-79550000D01*
X127337493Y-79551535D01*
G37*
G36*
X128027346Y-62976589D02*
G01*
X128059380Y-62981341D01*
X128090794Y-62989210D01*
X128121286Y-63000120D01*
X128150561Y-63013966D01*
X128178338Y-63030615D01*
X128204350Y-63049907D01*
X128228345Y-63071655D01*
X128250093Y-63095650D01*
X128269385Y-63121662D01*
X128286034Y-63149439D01*
X128299880Y-63178714D01*
X128310790Y-63209206D01*
X128318659Y-63240620D01*
X128323411Y-63272654D01*
X128325000Y-63305000D01*
X128325000Y-64295000D01*
X128323411Y-64327346D01*
X128318659Y-64359380D01*
X128310790Y-64390794D01*
X128299880Y-64421286D01*
X128286034Y-64450561D01*
X128269385Y-64478338D01*
X128250093Y-64504350D01*
X128228345Y-64528345D01*
X128204350Y-64550093D01*
X128178338Y-64569385D01*
X128150561Y-64586034D01*
X128121286Y-64599880D01*
X128090794Y-64610790D01*
X128059380Y-64618659D01*
X128027346Y-64623411D01*
X127995000Y-64625000D01*
X126505000Y-64625000D01*
X126472654Y-64623411D01*
X126440620Y-64618659D01*
X126409206Y-64610790D01*
X126378714Y-64599880D01*
X126349439Y-64586034D01*
X126321662Y-64569385D01*
X126295650Y-64550093D01*
X126271655Y-64528345D01*
X126249907Y-64504350D01*
X126230615Y-64478338D01*
X126213966Y-64450561D01*
X126200120Y-64421286D01*
X126189210Y-64390794D01*
X126181341Y-64359380D01*
X126176589Y-64327346D01*
X126175000Y-64295000D01*
X126175000Y-63305000D01*
X126176589Y-63272654D01*
X126181341Y-63240620D01*
X126189210Y-63209206D01*
X126200120Y-63178714D01*
X126213966Y-63149439D01*
X126230615Y-63121662D01*
X126249907Y-63095650D01*
X126271655Y-63071655D01*
X126295650Y-63049907D01*
X126321662Y-63030615D01*
X126349439Y-63013966D01*
X126378714Y-63000120D01*
X126409206Y-62989210D01*
X126440620Y-62981341D01*
X126472654Y-62976589D01*
X126505000Y-62975000D01*
X127995000Y-62975000D01*
X128027346Y-62976589D01*
G37*
G36*
X128027346Y-65776589D02*
G01*
X128059380Y-65781341D01*
X128090794Y-65789210D01*
X128121286Y-65800120D01*
X128150561Y-65813966D01*
X128178338Y-65830615D01*
X128204350Y-65849907D01*
X128228345Y-65871655D01*
X128250093Y-65895650D01*
X128269385Y-65921662D01*
X128286034Y-65949439D01*
X128299880Y-65978714D01*
X128310790Y-66009206D01*
X128318659Y-66040620D01*
X128323411Y-66072654D01*
X128325000Y-66105000D01*
X128325000Y-67095000D01*
X128323411Y-67127346D01*
X128318659Y-67159380D01*
X128310790Y-67190794D01*
X128299880Y-67221286D01*
X128286034Y-67250561D01*
X128269385Y-67278338D01*
X128250093Y-67304350D01*
X128228345Y-67328345D01*
X128204350Y-67350093D01*
X128178338Y-67369385D01*
X128150561Y-67386034D01*
X128121286Y-67399880D01*
X128090794Y-67410790D01*
X128059380Y-67418659D01*
X128027346Y-67423411D01*
X127995000Y-67425000D01*
X126505000Y-67425000D01*
X126472654Y-67423411D01*
X126440620Y-67418659D01*
X126409206Y-67410790D01*
X126378714Y-67399880D01*
X126349439Y-67386034D01*
X126321662Y-67369385D01*
X126295650Y-67350093D01*
X126271655Y-67328345D01*
X126249907Y-67304350D01*
X126230615Y-67278338D01*
X126213966Y-67250561D01*
X126200120Y-67221286D01*
X126189210Y-67190794D01*
X126181341Y-67159380D01*
X126176589Y-67127346D01*
X126175000Y-67095000D01*
X126175000Y-66105000D01*
X126176589Y-66072654D01*
X126181341Y-66040620D01*
X126189210Y-66009206D01*
X126200120Y-65978714D01*
X126213966Y-65949439D01*
X126230615Y-65921662D01*
X126249907Y-65895650D01*
X126271655Y-65871655D01*
X126295650Y-65849907D01*
X126321662Y-65830615D01*
X126349439Y-65813966D01*
X126378714Y-65800120D01*
X126409206Y-65789210D01*
X126440620Y-65781341D01*
X126472654Y-65776589D01*
X126505000Y-65775000D01*
X127995000Y-65775000D01*
X128027346Y-65776589D01*
G37*
M02*
