M48
; DRILL file {KiCad (6.0.7)} date Tue May  2 12:45:02 2023
; FORMAT={-:-/ absolute / inch / decimal}
; #@! TF.CreationDate,2023-05-02T12:45:02+02:00
; #@! TF.GenerationSoftware,Kicad,Pcbnew,(6.0.7)
; #@! TF.FileFunction,Plated,1,2,PTH
FMAT,2
INCH
; #@! TA.AperFunction,Plated,PTH,ViaDrill
T1C0.0118
; #@! TA.AperFunction,Plated,PTH,ComponentDrill
T2C0.0197
; #@! TA.AperFunction,Plated,PTH,ComponentDrill
T3C0.0276
; #@! TA.AperFunction,Plated,PTH,ComponentDrill
T4C0.0295
; #@! TA.AperFunction,Plated,PTH,ComponentDrill
T5C0.0354
; #@! TA.AperFunction,Plated,PTH,ComponentDrill
T6C0.1063
%
G90
G05
T1
X7.4055Y-3.6575
X7.4232Y-3.9685
X7.4449Y-3.6575
X7.4478Y-3.753
X7.4665Y-4.2087
X7.4685Y-4.4528
X7.4803Y-3.6575
X7.5276Y-3.6575
X7.5305Y-3.9694
X7.5537Y-3.7674
X7.563Y-3.6575
X7.565Y-3.8622
X7.5984Y-3.6575
X7.626Y-4.4331
X7.6299Y-3.9094
X7.6772Y-4.4803
X7.7205Y-4.0354
X7.7205Y-4.5236
X7.752Y-3.9606
X7.752Y-4.5748
X7.7913Y-4.0354
X7.8716Y-4.3728
X7.937Y-3.937
X7.9488Y-4.3976
X8.0027Y-3.9374
X8.0157Y-4.3976
X8.0394Y-4.2795
X8.0945Y-3.5827
X8.0945Y-3.622
X8.0945Y-3.6614
X8.0945Y-3.7008
X8.0945Y-3.7402
X8.0945Y-3.7795
T2
X7.4006Y-4.6063
X7.4239Y-4.5499
X7.4239Y-4.6627
X7.4803Y-4.5266
X7.4803Y-4.686
X7.5367Y-4.5499
X7.5367Y-4.6627
X7.56Y-4.6063
X7.9518Y-4.6063
X7.9751Y-4.5499
X7.9751Y-4.6627
X8.0315Y-4.5266
X8.0315Y-4.686
X8.0879Y-4.5499
X8.0879Y-4.6627
X8.1112Y-4.6063
T3
X7.7556Y-4.1618
T4
X7.6772Y-4.6496
X7.7559Y-4.6496
X7.8346Y-4.6496
T5
X7.7556Y-4.2626
T6
X7.4803Y-4.6063
X8.0315Y-4.6063
T0
M30
