G04 #@! TF.GenerationSoftware,KiCad,Pcbnew,(5.1.2)-1*
G04 #@! TF.CreationDate,2020-10-01T12:47:08+02:00*
G04 #@! TF.ProjectId,SFH203_photodetector,53464832-3033-45f7-9068-6f746f646574,1.4*
G04 #@! TF.SameCoordinates,Original*
G04 #@! TF.FileFunction,Legend,Top*
G04 #@! TF.FilePolarity,Positive*
%FSLAX46Y46*%
G04 Gerber Fmt 4.6, Leading zero omitted, Abs format (unit mm)*
G04 Created by KiCad (PCBNEW (5.1.2)-1) date 2020-10-01 12:47:08*
%MOMM*%
%LPD*%
G04 APERTURE LIST*
%ADD10C,0.250000*%
%ADD11C,0.300000*%
%ADD12C,0.120000*%
%ADD13C,0.150000*%
%ADD14C,1.000000*%
%ADD15C,0.600000*%
G04 APERTURE END LIST*
D10*
X153050000Y-67964285D02*
X152992857Y-68078571D01*
X152992857Y-68250000D01*
X153050000Y-68421428D01*
X153164285Y-68535714D01*
X153278571Y-68592857D01*
X153507142Y-68650000D01*
X153678571Y-68650000D01*
X153907142Y-68592857D01*
X154021428Y-68535714D01*
X154135714Y-68421428D01*
X154192857Y-68250000D01*
X154192857Y-68135714D01*
X154135714Y-67964285D01*
X154078571Y-67907142D01*
X153678571Y-67907142D01*
X153678571Y-68135714D01*
X154192857Y-67392857D02*
X152992857Y-67392857D01*
X154192857Y-66707142D01*
X152992857Y-66707142D01*
X154192857Y-66135714D02*
X152992857Y-66135714D01*
X152992857Y-65850000D01*
X153050000Y-65678571D01*
X153164285Y-65564285D01*
X153278571Y-65507142D01*
X153507142Y-65450000D01*
X153678571Y-65450000D01*
X153907142Y-65507142D01*
X154021428Y-65564285D01*
X154135714Y-65678571D01*
X154192857Y-65850000D01*
X154192857Y-66135714D01*
D11*
X150221428Y-71628571D02*
X150721428Y-73128571D01*
X151221428Y-71628571D01*
X151721428Y-72557142D02*
X152864285Y-72557142D01*
X150021428Y-60028571D02*
X150521428Y-61528571D01*
X151021428Y-60028571D01*
X151521428Y-60957142D02*
X152664285Y-60957142D01*
X152092857Y-61528571D02*
X152092857Y-60385714D01*
D10*
X120598214Y-49407142D02*
X120812500Y-49478571D01*
X121169642Y-49478571D01*
X121312500Y-49407142D01*
X121383928Y-49335714D01*
X121455357Y-49192857D01*
X121455357Y-49050000D01*
X121383928Y-48907142D01*
X121312500Y-48835714D01*
X121169642Y-48764285D01*
X120883928Y-48692857D01*
X120741071Y-48621428D01*
X120669642Y-48550000D01*
X120598214Y-48407142D01*
X120598214Y-48264285D01*
X120669642Y-48121428D01*
X120741071Y-48050000D01*
X120883928Y-47978571D01*
X121241071Y-47978571D01*
X121455357Y-48050000D01*
X122598214Y-48692857D02*
X122098214Y-48692857D01*
X122098214Y-49478571D02*
X122098214Y-47978571D01*
X122812500Y-47978571D01*
X123383928Y-49478571D02*
X123383928Y-47978571D01*
X123383928Y-48692857D02*
X124241071Y-48692857D01*
X124241071Y-49478571D02*
X124241071Y-47978571D01*
X124883928Y-48121428D02*
X124955357Y-48050000D01*
X125098214Y-47978571D01*
X125455357Y-47978571D01*
X125598214Y-48050000D01*
X125669642Y-48121428D01*
X125741071Y-48264285D01*
X125741071Y-48407142D01*
X125669642Y-48621428D01*
X124812500Y-49478571D01*
X125741071Y-49478571D01*
X126669642Y-47978571D02*
X126812500Y-47978571D01*
X126955357Y-48050000D01*
X127026785Y-48121428D01*
X127098214Y-48264285D01*
X127169642Y-48550000D01*
X127169642Y-48907142D01*
X127098214Y-49192857D01*
X127026785Y-49335714D01*
X126955357Y-49407142D01*
X126812500Y-49478571D01*
X126669642Y-49478571D01*
X126526785Y-49407142D01*
X126455357Y-49335714D01*
X126383928Y-49192857D01*
X126312500Y-48907142D01*
X126312500Y-48550000D01*
X126383928Y-48264285D01*
X126455357Y-48121428D01*
X126526785Y-48050000D01*
X126669642Y-47978571D01*
X127669642Y-47978571D02*
X128598214Y-47978571D01*
X128098214Y-48550000D01*
X128312500Y-48550000D01*
X128455357Y-48621428D01*
X128526785Y-48692857D01*
X128598214Y-48835714D01*
X128598214Y-49192857D01*
X128526785Y-49335714D01*
X128455357Y-49407142D01*
X128312500Y-49478571D01*
X127883928Y-49478571D01*
X127741071Y-49407142D01*
X127669642Y-49335714D01*
X128883928Y-49621428D02*
X130026785Y-49621428D01*
X130383928Y-48478571D02*
X130383928Y-49978571D01*
X130383928Y-48550000D02*
X130526785Y-48478571D01*
X130812500Y-48478571D01*
X130955357Y-48550000D01*
X131026785Y-48621428D01*
X131098214Y-48764285D01*
X131098214Y-49192857D01*
X131026785Y-49335714D01*
X130955357Y-49407142D01*
X130812500Y-49478571D01*
X130526785Y-49478571D01*
X130383928Y-49407142D01*
X131741071Y-49478571D02*
X131741071Y-47978571D01*
X132383928Y-49478571D02*
X132383928Y-48692857D01*
X132312500Y-48550000D01*
X132169642Y-48478571D01*
X131955357Y-48478571D01*
X131812500Y-48550000D01*
X131741071Y-48621428D01*
X133312500Y-49478571D02*
X133169642Y-49407142D01*
X133098214Y-49335714D01*
X133026785Y-49192857D01*
X133026785Y-48764285D01*
X133098214Y-48621428D01*
X133169642Y-48550000D01*
X133312500Y-48478571D01*
X133526785Y-48478571D01*
X133669642Y-48550000D01*
X133741071Y-48621428D01*
X133812500Y-48764285D01*
X133812500Y-49192857D01*
X133741071Y-49335714D01*
X133669642Y-49407142D01*
X133526785Y-49478571D01*
X133312500Y-49478571D01*
X134241071Y-48478571D02*
X134812500Y-48478571D01*
X134455357Y-47978571D02*
X134455357Y-49264285D01*
X134526785Y-49407142D01*
X134669642Y-49478571D01*
X134812500Y-49478571D01*
X135526785Y-49478571D02*
X135383928Y-49407142D01*
X135312500Y-49335714D01*
X135241071Y-49192857D01*
X135241071Y-48764285D01*
X135312500Y-48621428D01*
X135383928Y-48550000D01*
X135526785Y-48478571D01*
X135741071Y-48478571D01*
X135883928Y-48550000D01*
X135955357Y-48621428D01*
X136026785Y-48764285D01*
X136026785Y-49192857D01*
X135955357Y-49335714D01*
X135883928Y-49407142D01*
X135741071Y-49478571D01*
X135526785Y-49478571D01*
X137312500Y-49478571D02*
X137312500Y-47978571D01*
X137312500Y-49407142D02*
X137169642Y-49478571D01*
X136883928Y-49478571D01*
X136741071Y-49407142D01*
X136669642Y-49335714D01*
X136598214Y-49192857D01*
X136598214Y-48764285D01*
X136669642Y-48621428D01*
X136741071Y-48550000D01*
X136883928Y-48478571D01*
X137169642Y-48478571D01*
X137312500Y-48550000D01*
X138598214Y-49407142D02*
X138455357Y-49478571D01*
X138169642Y-49478571D01*
X138026785Y-49407142D01*
X137955357Y-49264285D01*
X137955357Y-48692857D01*
X138026785Y-48550000D01*
X138169642Y-48478571D01*
X138455357Y-48478571D01*
X138598214Y-48550000D01*
X138669642Y-48692857D01*
X138669642Y-48835714D01*
X137955357Y-48978571D01*
X139098214Y-48478571D02*
X139669642Y-48478571D01*
X139312500Y-47978571D02*
X139312500Y-49264285D01*
X139383928Y-49407142D01*
X139526785Y-49478571D01*
X139669642Y-49478571D01*
X140741071Y-49407142D02*
X140598214Y-49478571D01*
X140312500Y-49478571D01*
X140169642Y-49407142D01*
X140098214Y-49264285D01*
X140098214Y-48692857D01*
X140169642Y-48550000D01*
X140312500Y-48478571D01*
X140598214Y-48478571D01*
X140741071Y-48550000D01*
X140812500Y-48692857D01*
X140812500Y-48835714D01*
X140098214Y-48978571D01*
X142098214Y-49407142D02*
X141955357Y-49478571D01*
X141669642Y-49478571D01*
X141526785Y-49407142D01*
X141455357Y-49335714D01*
X141383928Y-49192857D01*
X141383928Y-48764285D01*
X141455357Y-48621428D01*
X141526785Y-48550000D01*
X141669642Y-48478571D01*
X141955357Y-48478571D01*
X142098214Y-48550000D01*
X142526785Y-48478571D02*
X143098214Y-48478571D01*
X142741071Y-47978571D02*
X142741071Y-49264285D01*
X142812500Y-49407142D01*
X142955357Y-49478571D01*
X143098214Y-49478571D01*
X143812500Y-49478571D02*
X143669642Y-49407142D01*
X143598214Y-49335714D01*
X143526785Y-49192857D01*
X143526785Y-48764285D01*
X143598214Y-48621428D01*
X143669642Y-48550000D01*
X143812500Y-48478571D01*
X144026785Y-48478571D01*
X144169642Y-48550000D01*
X144241071Y-48621428D01*
X144312500Y-48764285D01*
X144312500Y-49192857D01*
X144241071Y-49335714D01*
X144169642Y-49407142D01*
X144026785Y-49478571D01*
X143812500Y-49478571D01*
X144955357Y-49478571D02*
X144955357Y-48478571D01*
X144955357Y-48764285D02*
X145026785Y-48621428D01*
X145098214Y-48550000D01*
X145241071Y-48478571D01*
X145383928Y-48478571D01*
X120598214Y-50621428D02*
X120669642Y-50550000D01*
X120812500Y-50478571D01*
X121169642Y-50478571D01*
X121312500Y-50550000D01*
X121383928Y-50621428D01*
X121455357Y-50764285D01*
X121455357Y-50907142D01*
X121383928Y-51121428D01*
X120526785Y-51978571D01*
X121455357Y-51978571D01*
X122383928Y-50478571D02*
X122526785Y-50478571D01*
X122669642Y-50550000D01*
X122741071Y-50621428D01*
X122812500Y-50764285D01*
X122883928Y-51050000D01*
X122883928Y-51407142D01*
X122812500Y-51692857D01*
X122741071Y-51835714D01*
X122669642Y-51907142D01*
X122526785Y-51978571D01*
X122383928Y-51978571D01*
X122241071Y-51907142D01*
X122169642Y-51835714D01*
X122098214Y-51692857D01*
X122026785Y-51407142D01*
X122026785Y-51050000D01*
X122098214Y-50764285D01*
X122169642Y-50621428D01*
X122241071Y-50550000D01*
X122383928Y-50478571D01*
X123455357Y-50621428D02*
X123526785Y-50550000D01*
X123669642Y-50478571D01*
X124026785Y-50478571D01*
X124169642Y-50550000D01*
X124241071Y-50621428D01*
X124312500Y-50764285D01*
X124312500Y-50907142D01*
X124241071Y-51121428D01*
X123383928Y-51978571D01*
X124312500Y-51978571D01*
X125241071Y-50478571D02*
X125383928Y-50478571D01*
X125526785Y-50550000D01*
X125598214Y-50621428D01*
X125669642Y-50764285D01*
X125741071Y-51050000D01*
X125741071Y-51407142D01*
X125669642Y-51692857D01*
X125598214Y-51835714D01*
X125526785Y-51907142D01*
X125383928Y-51978571D01*
X125241071Y-51978571D01*
X125098214Y-51907142D01*
X125026785Y-51835714D01*
X124955357Y-51692857D01*
X124883928Y-51407142D01*
X124883928Y-51050000D01*
X124955357Y-50764285D01*
X125026785Y-50621428D01*
X125098214Y-50550000D01*
X125241071Y-50478571D01*
X126383928Y-51407142D02*
X127526785Y-51407142D01*
X128526785Y-50478571D02*
X128669642Y-50478571D01*
X128812500Y-50550000D01*
X128883928Y-50621428D01*
X128955357Y-50764285D01*
X129026785Y-51050000D01*
X129026785Y-51407142D01*
X128955357Y-51692857D01*
X128883928Y-51835714D01*
X128812500Y-51907142D01*
X128669642Y-51978571D01*
X128526785Y-51978571D01*
X128383928Y-51907142D01*
X128312500Y-51835714D01*
X128241071Y-51692857D01*
X128169642Y-51407142D01*
X128169642Y-51050000D01*
X128241071Y-50764285D01*
X128312500Y-50621428D01*
X128383928Y-50550000D01*
X128526785Y-50478571D01*
X129741071Y-51978571D02*
X130026785Y-51978571D01*
X130169642Y-51907142D01*
X130241071Y-51835714D01*
X130383928Y-51621428D01*
X130455357Y-51335714D01*
X130455357Y-50764285D01*
X130383928Y-50621428D01*
X130312500Y-50550000D01*
X130169642Y-50478571D01*
X129883928Y-50478571D01*
X129741071Y-50550000D01*
X129669642Y-50621428D01*
X129598214Y-50764285D01*
X129598214Y-51121428D01*
X129669642Y-51264285D01*
X129741071Y-51335714D01*
X129883928Y-51407142D01*
X130169642Y-51407142D01*
X130312500Y-51335714D01*
X130383928Y-51264285D01*
X130455357Y-51121428D01*
X133098214Y-51978571D02*
X132598214Y-51264285D01*
X132241071Y-51978571D02*
X132241071Y-50478571D01*
X132812500Y-50478571D01*
X132955357Y-50550000D01*
X133026785Y-50621428D01*
X133098214Y-50764285D01*
X133098214Y-50978571D01*
X133026785Y-51121428D01*
X132955357Y-51192857D01*
X132812500Y-51264285D01*
X132241071Y-51264285D01*
X134312500Y-51907142D02*
X134169642Y-51978571D01*
X133883928Y-51978571D01*
X133741071Y-51907142D01*
X133669642Y-51764285D01*
X133669642Y-51192857D01*
X133741071Y-51050000D01*
X133883928Y-50978571D01*
X134169642Y-50978571D01*
X134312500Y-51050000D01*
X134383928Y-51192857D01*
X134383928Y-51335714D01*
X133669642Y-51478571D01*
X134883928Y-50978571D02*
X135241071Y-51978571D01*
X135598214Y-50978571D01*
X136169642Y-51835714D02*
X136241071Y-51907142D01*
X136169642Y-51978571D01*
X136098214Y-51907142D01*
X136169642Y-51835714D01*
X136169642Y-51978571D01*
X138812500Y-51978571D02*
X137955357Y-51978571D01*
X138383928Y-51978571D02*
X138383928Y-50478571D01*
X138241071Y-50692857D01*
X138098214Y-50835714D01*
X137955357Y-50907142D01*
X139455357Y-51835714D02*
X139526785Y-51907142D01*
X139455357Y-51978571D01*
X139383928Y-51907142D01*
X139455357Y-51835714D01*
X139455357Y-51978571D01*
X140812500Y-50978571D02*
X140812500Y-51978571D01*
X140455357Y-50407142D02*
X140098214Y-51478571D01*
X141026785Y-51478571D01*
D12*
X142300000Y-65040000D02*
X145550000Y-65040000D01*
X142550000Y-69260000D02*
X145550000Y-69260000D01*
X147240000Y-67787221D02*
X147240000Y-68112779D01*
X148260000Y-67787221D02*
X148260000Y-68112779D01*
X147810000Y-73752064D02*
X147810000Y-72547936D01*
X145090000Y-73752064D02*
X145090000Y-72547936D01*
X144890000Y-61152064D02*
X144890000Y-59947936D01*
X147610000Y-61152064D02*
X147610000Y-59947936D01*
D13*
X132725000Y-75725000D02*
X132725000Y-75675000D01*
X128575000Y-75725000D02*
X128575000Y-75580000D01*
X128575000Y-70575000D02*
X128575000Y-70720000D01*
X132725000Y-70575000D02*
X132725000Y-70720000D01*
X132725000Y-75725000D02*
X128575000Y-75725000D01*
X132725000Y-70575000D02*
X128575000Y-70575000D01*
X132725000Y-75675000D02*
X134125000Y-75675000D01*
D12*
X141460000Y-66187221D02*
X141460000Y-66512779D01*
X140440000Y-66187221D02*
X140440000Y-66512779D01*
X141210000Y-61152064D02*
X141210000Y-59947936D01*
X138490000Y-61152064D02*
X138490000Y-59947936D01*
X139690000Y-73652064D02*
X139690000Y-72447936D01*
X142410000Y-73652064D02*
X142410000Y-72447936D01*
X125260000Y-79087221D02*
X125260000Y-79412779D01*
X124240000Y-79087221D02*
X124240000Y-79412779D01*
X136260000Y-70087221D02*
X136260000Y-70412779D01*
X135240000Y-70087221D02*
X135240000Y-70412779D01*
X125260000Y-64491422D02*
X125260000Y-65008578D01*
X123840000Y-64491422D02*
X123840000Y-65008578D01*
X122920000Y-62530000D02*
X122920000Y-69970000D01*
X117180000Y-62530000D02*
X117180000Y-69970000D01*
X122920000Y-62530000D02*
X117180000Y-62530000D01*
X122920000Y-69970000D02*
X117180000Y-69970000D01*
X124087221Y-74260000D02*
X124412779Y-74260000D01*
X124087221Y-73240000D02*
X124412779Y-73240000D01*
X149920000Y-70620000D02*
X152580000Y-70620000D01*
X149920000Y-65480000D02*
X149920000Y-70620000D01*
X152580000Y-65480000D02*
X152580000Y-70620000D01*
X149920000Y-65480000D02*
X152580000Y-65480000D01*
X149920000Y-64210000D02*
X149920000Y-62880000D01*
X149920000Y-62880000D02*
X151250000Y-62880000D01*
D14*
X121154000Y-45150000D02*
G75*
G03X121154000Y-45150000I-254000J0D01*
G01*
X123154000Y-45150000D02*
G75*
G03X123154000Y-45150000I-254000J0D01*
G01*
X125154000Y-45150000D02*
G75*
G03X125154000Y-45150000I-254000J0D01*
G01*
X125154000Y-43150000D02*
G75*
G03X125154000Y-43150000I-254000J0D01*
G01*
X123154000Y-43150000D02*
G75*
G03X123154000Y-43150000I-254000J0D01*
G01*
X121154000Y-43150000D02*
G75*
G03X121154000Y-43150000I-254000J0D01*
G01*
X123154000Y-41150000D02*
G75*
G03X123154000Y-41150000I-254000J0D01*
G01*
X121154000Y-41150000D02*
G75*
G03X121154000Y-41150000I-254000J0D01*
G01*
X125154000Y-41150000D02*
G75*
G03X125154000Y-41150000I-254000J0D01*
G01*
D12*
X127260000Y-79087221D02*
X127260000Y-79412779D01*
X126240000Y-79087221D02*
X126240000Y-79412779D01*
X128160000Y-64597936D02*
X128160000Y-65802064D01*
X126340000Y-64597936D02*
X126340000Y-65802064D01*
X110650000Y-67350000D02*
X113850000Y-67350000D01*
X110650000Y-60150000D02*
X113850000Y-60150000D01*
X115450000Y-65050000D02*
X115450000Y-62450000D01*
X108570000Y-65550000D02*
X108570000Y-61950000D01*
D13*
X143288095Y-63552380D02*
X143288095Y-64361904D01*
X143335714Y-64457142D01*
X143383333Y-64504761D01*
X143478571Y-64552380D01*
X143669047Y-64552380D01*
X143764285Y-64504761D01*
X143811904Y-64457142D01*
X143859523Y-64361904D01*
X143859523Y-63552380D01*
X144859523Y-64552380D02*
X144288095Y-64552380D01*
X144573809Y-64552380D02*
X144573809Y-63552380D01*
X144478571Y-63695238D01*
X144383333Y-63790476D01*
X144288095Y-63838095D01*
X147583333Y-66107142D02*
X147535714Y-66154761D01*
X147392857Y-66202380D01*
X147297619Y-66202380D01*
X147154761Y-66154761D01*
X147059523Y-66059523D01*
X147011904Y-65964285D01*
X146964285Y-65773809D01*
X146964285Y-65630952D01*
X147011904Y-65440476D01*
X147059523Y-65345238D01*
X147154761Y-65250000D01*
X147297619Y-65202380D01*
X147392857Y-65202380D01*
X147535714Y-65250000D01*
X147583333Y-65297619D01*
X148440476Y-65535714D02*
X148440476Y-66202380D01*
X148202380Y-65154761D02*
X147964285Y-65869047D01*
X148583333Y-65869047D01*
X146183333Y-76707142D02*
X146135714Y-76754761D01*
X145992857Y-76802380D01*
X145897619Y-76802380D01*
X145754761Y-76754761D01*
X145659523Y-76659523D01*
X145611904Y-76564285D01*
X145564285Y-76373809D01*
X145564285Y-76230952D01*
X145611904Y-76040476D01*
X145659523Y-75945238D01*
X145754761Y-75850000D01*
X145897619Y-75802380D01*
X145992857Y-75802380D01*
X146135714Y-75850000D01*
X146183333Y-75897619D01*
X146564285Y-75897619D02*
X146611904Y-75850000D01*
X146707142Y-75802380D01*
X146945238Y-75802380D01*
X147040476Y-75850000D01*
X147088095Y-75897619D01*
X147135714Y-75992857D01*
X147135714Y-76088095D01*
X147088095Y-76230952D01*
X146516666Y-76802380D01*
X147135714Y-76802380D01*
X144107142Y-60716666D02*
X144154761Y-60764285D01*
X144202380Y-60907142D01*
X144202380Y-61002380D01*
X144154761Y-61145238D01*
X144059523Y-61240476D01*
X143964285Y-61288095D01*
X143773809Y-61335714D01*
X143630952Y-61335714D01*
X143440476Y-61288095D01*
X143345238Y-61240476D01*
X143250000Y-61145238D01*
X143202380Y-61002380D01*
X143202380Y-60907142D01*
X143250000Y-60764285D01*
X143297619Y-60716666D01*
X144202380Y-59764285D02*
X144202380Y-60335714D01*
X144202380Y-60050000D02*
X143202380Y-60050000D01*
X143345238Y-60145238D01*
X143440476Y-60240476D01*
X143488095Y-60335714D01*
X129888095Y-69102380D02*
X129888095Y-69911904D01*
X129935714Y-70007142D01*
X129983333Y-70054761D01*
X130078571Y-70102380D01*
X130269047Y-70102380D01*
X130364285Y-70054761D01*
X130411904Y-70007142D01*
X130459523Y-69911904D01*
X130459523Y-69102380D01*
X130888095Y-69197619D02*
X130935714Y-69150000D01*
X131030952Y-69102380D01*
X131269047Y-69102380D01*
X131364285Y-69150000D01*
X131411904Y-69197619D01*
X131459523Y-69292857D01*
X131459523Y-69388095D01*
X131411904Y-69530952D01*
X130840476Y-70102380D01*
X131459523Y-70102380D01*
X140783333Y-64407142D02*
X140735714Y-64454761D01*
X140592857Y-64502380D01*
X140497619Y-64502380D01*
X140354761Y-64454761D01*
X140259523Y-64359523D01*
X140211904Y-64264285D01*
X140164285Y-64073809D01*
X140164285Y-63930952D01*
X140211904Y-63740476D01*
X140259523Y-63645238D01*
X140354761Y-63550000D01*
X140497619Y-63502380D01*
X140592857Y-63502380D01*
X140735714Y-63550000D01*
X140783333Y-63597619D01*
X141116666Y-63502380D02*
X141735714Y-63502380D01*
X141402380Y-63883333D01*
X141545238Y-63883333D01*
X141640476Y-63930952D01*
X141688095Y-63978571D01*
X141735714Y-64073809D01*
X141735714Y-64311904D01*
X141688095Y-64407142D01*
X141640476Y-64454761D01*
X141545238Y-64502380D01*
X141259523Y-64502380D01*
X141164285Y-64454761D01*
X141116666Y-64407142D01*
X137607142Y-60716666D02*
X137654761Y-60764285D01*
X137702380Y-60907142D01*
X137702380Y-61002380D01*
X137654761Y-61145238D01*
X137559523Y-61240476D01*
X137464285Y-61288095D01*
X137273809Y-61335714D01*
X137130952Y-61335714D01*
X136940476Y-61288095D01*
X136845238Y-61240476D01*
X136750000Y-61145238D01*
X136702380Y-61002380D01*
X136702380Y-60907142D01*
X136750000Y-60764285D01*
X136797619Y-60716666D01*
X136702380Y-59811904D02*
X136702380Y-60288095D01*
X137178571Y-60335714D01*
X137130952Y-60288095D01*
X137083333Y-60192857D01*
X137083333Y-59954761D01*
X137130952Y-59859523D01*
X137178571Y-59811904D01*
X137273809Y-59764285D01*
X137511904Y-59764285D01*
X137607142Y-59811904D01*
X137654761Y-59859523D01*
X137702380Y-59954761D01*
X137702380Y-60192857D01*
X137654761Y-60288095D01*
X137607142Y-60335714D01*
X139127142Y-73216666D02*
X139174761Y-73264285D01*
X139222380Y-73407142D01*
X139222380Y-73502380D01*
X139174761Y-73645238D01*
X139079523Y-73740476D01*
X138984285Y-73788095D01*
X138793809Y-73835714D01*
X138650952Y-73835714D01*
X138460476Y-73788095D01*
X138365238Y-73740476D01*
X138270000Y-73645238D01*
X138222380Y-73502380D01*
X138222380Y-73407142D01*
X138270000Y-73264285D01*
X138317619Y-73216666D01*
X138222380Y-72359523D02*
X138222380Y-72550000D01*
X138270000Y-72645238D01*
X138317619Y-72692857D01*
X138460476Y-72788095D01*
X138650952Y-72835714D01*
X139031904Y-72835714D01*
X139127142Y-72788095D01*
X139174761Y-72740476D01*
X139222380Y-72645238D01*
X139222380Y-72454761D01*
X139174761Y-72359523D01*
X139127142Y-72311904D01*
X139031904Y-72264285D01*
X138793809Y-72264285D01*
X138698571Y-72311904D01*
X138650952Y-72359523D01*
X138603333Y-72454761D01*
X138603333Y-72645238D01*
X138650952Y-72740476D01*
X138698571Y-72788095D01*
X138793809Y-72835714D01*
X123607142Y-79416666D02*
X123654761Y-79464285D01*
X123702380Y-79607142D01*
X123702380Y-79702380D01*
X123654761Y-79845238D01*
X123559523Y-79940476D01*
X123464285Y-79988095D01*
X123273809Y-80035714D01*
X123130952Y-80035714D01*
X122940476Y-79988095D01*
X122845238Y-79940476D01*
X122750000Y-79845238D01*
X122702380Y-79702380D01*
X122702380Y-79607142D01*
X122750000Y-79464285D01*
X122797619Y-79416666D01*
X123130952Y-78845238D02*
X123083333Y-78940476D01*
X123035714Y-78988095D01*
X122940476Y-79035714D01*
X122892857Y-79035714D01*
X122797619Y-78988095D01*
X122750000Y-78940476D01*
X122702380Y-78845238D01*
X122702380Y-78654761D01*
X122750000Y-78559523D01*
X122797619Y-78511904D01*
X122892857Y-78464285D01*
X122940476Y-78464285D01*
X123035714Y-78511904D01*
X123083333Y-78559523D01*
X123130952Y-78654761D01*
X123130952Y-78845238D01*
X123178571Y-78940476D01*
X123226190Y-78988095D01*
X123321428Y-79035714D01*
X123511904Y-79035714D01*
X123607142Y-78988095D01*
X123654761Y-78940476D01*
X123702380Y-78845238D01*
X123702380Y-78654761D01*
X123654761Y-78559523D01*
X123607142Y-78511904D01*
X123511904Y-78464285D01*
X123321428Y-78464285D01*
X123226190Y-78511904D01*
X123178571Y-78559523D01*
X123130952Y-78654761D01*
X136107142Y-67416666D02*
X136154761Y-67464285D01*
X136202380Y-67607142D01*
X136202380Y-67702380D01*
X136154761Y-67845238D01*
X136059523Y-67940476D01*
X135964285Y-67988095D01*
X135773809Y-68035714D01*
X135630952Y-68035714D01*
X135440476Y-67988095D01*
X135345238Y-67940476D01*
X135250000Y-67845238D01*
X135202380Y-67702380D01*
X135202380Y-67607142D01*
X135250000Y-67464285D01*
X135297619Y-67416666D01*
X136202380Y-66940476D02*
X136202380Y-66750000D01*
X136154761Y-66654761D01*
X136107142Y-66607142D01*
X135964285Y-66511904D01*
X135773809Y-66464285D01*
X135392857Y-66464285D01*
X135297619Y-66511904D01*
X135250000Y-66559523D01*
X135202380Y-66654761D01*
X135202380Y-66845238D01*
X135250000Y-66940476D01*
X135297619Y-66988095D01*
X135392857Y-67035714D01*
X135630952Y-67035714D01*
X135726190Y-66988095D01*
X135773809Y-66940476D01*
X135821428Y-66845238D01*
X135821428Y-66654761D01*
X135773809Y-66559523D01*
X135726190Y-66511904D01*
X135630952Y-66464285D01*
X123907142Y-62507142D02*
X123859523Y-62554761D01*
X123716666Y-62602380D01*
X123621428Y-62602380D01*
X123478571Y-62554761D01*
X123383333Y-62459523D01*
X123335714Y-62364285D01*
X123288095Y-62173809D01*
X123288095Y-62030952D01*
X123335714Y-61840476D01*
X123383333Y-61745238D01*
X123478571Y-61650000D01*
X123621428Y-61602380D01*
X123716666Y-61602380D01*
X123859523Y-61650000D01*
X123907142Y-61697619D01*
X124859523Y-62602380D02*
X124288095Y-62602380D01*
X124573809Y-62602380D02*
X124573809Y-61602380D01*
X124478571Y-61745238D01*
X124383333Y-61840476D01*
X124288095Y-61888095D01*
X125478571Y-61602380D02*
X125573809Y-61602380D01*
X125669047Y-61650000D01*
X125716666Y-61697619D01*
X125764285Y-61792857D01*
X125811904Y-61983333D01*
X125811904Y-62221428D01*
X125764285Y-62411904D01*
X125716666Y-62507142D01*
X125669047Y-62554761D01*
X125573809Y-62602380D01*
X125478571Y-62602380D01*
X125383333Y-62554761D01*
X125335714Y-62507142D01*
X125288095Y-62411904D01*
X125240476Y-62221428D01*
X125240476Y-61983333D01*
X125288095Y-61792857D01*
X125335714Y-61697619D01*
X125383333Y-61650000D01*
X125478571Y-61602380D01*
X119507142Y-61707142D02*
X119459523Y-61754761D01*
X119316666Y-61802380D01*
X119221428Y-61802380D01*
X119078571Y-61754761D01*
X118983333Y-61659523D01*
X118935714Y-61564285D01*
X118888095Y-61373809D01*
X118888095Y-61230952D01*
X118935714Y-61040476D01*
X118983333Y-60945238D01*
X119078571Y-60850000D01*
X119221428Y-60802380D01*
X119316666Y-60802380D01*
X119459523Y-60850000D01*
X119507142Y-60897619D01*
X120459523Y-61802380D02*
X119888095Y-61802380D01*
X120173809Y-61802380D02*
X120173809Y-60802380D01*
X120078571Y-60945238D01*
X119983333Y-61040476D01*
X119888095Y-61088095D01*
X121411904Y-61802380D02*
X120840476Y-61802380D01*
X121126190Y-61802380D02*
X121126190Y-60802380D01*
X121030952Y-60945238D01*
X120935714Y-61040476D01*
X120840476Y-61088095D01*
X123607142Y-75607142D02*
X123559523Y-75654761D01*
X123416666Y-75702380D01*
X123321428Y-75702380D01*
X123178571Y-75654761D01*
X123083333Y-75559523D01*
X123035714Y-75464285D01*
X122988095Y-75273809D01*
X122988095Y-75130952D01*
X123035714Y-74940476D01*
X123083333Y-74845238D01*
X123178571Y-74750000D01*
X123321428Y-74702380D01*
X123416666Y-74702380D01*
X123559523Y-74750000D01*
X123607142Y-74797619D01*
X124559523Y-75702380D02*
X123988095Y-75702380D01*
X124273809Y-75702380D02*
X124273809Y-74702380D01*
X124178571Y-74845238D01*
X124083333Y-74940476D01*
X123988095Y-74988095D01*
X124940476Y-74797619D02*
X124988095Y-74750000D01*
X125083333Y-74702380D01*
X125321428Y-74702380D01*
X125416666Y-74750000D01*
X125464285Y-74797619D01*
X125511904Y-74892857D01*
X125511904Y-74988095D01*
X125464285Y-75130952D01*
X124892857Y-75702380D01*
X125511904Y-75702380D01*
D15*
X127007619Y-44043333D02*
X129102857Y-44043333D01*
X126588571Y-45300476D02*
X128055238Y-40900476D01*
X129521904Y-45300476D01*
X130988571Y-45300476D02*
X130988571Y-40900476D01*
X132664761Y-40900476D01*
X133083809Y-41110000D01*
X133293333Y-41319523D01*
X133502857Y-41738571D01*
X133502857Y-42367142D01*
X133293333Y-42786190D01*
X133083809Y-42995714D01*
X132664761Y-43205238D01*
X130988571Y-43205238D01*
X138321904Y-45719523D02*
X137902857Y-45510000D01*
X137483809Y-45090952D01*
X136855238Y-44462380D01*
X136436190Y-44252857D01*
X136017142Y-44252857D01*
X136226666Y-45300476D02*
X135807619Y-45090952D01*
X135388571Y-44671904D01*
X135179047Y-43833809D01*
X135179047Y-42367142D01*
X135388571Y-41529047D01*
X135807619Y-41110000D01*
X136226666Y-40900476D01*
X137064761Y-40900476D01*
X137483809Y-41110000D01*
X137902857Y-41529047D01*
X138112380Y-42367142D01*
X138112380Y-43833809D01*
X137902857Y-44671904D01*
X137483809Y-45090952D01*
X137064761Y-45300476D01*
X136226666Y-45300476D01*
D13*
X126583333Y-77352380D02*
X126250000Y-76876190D01*
X126011904Y-77352380D02*
X126011904Y-76352380D01*
X126392857Y-76352380D01*
X126488095Y-76400000D01*
X126535714Y-76447619D01*
X126583333Y-76542857D01*
X126583333Y-76685714D01*
X126535714Y-76780952D01*
X126488095Y-76828571D01*
X126392857Y-76876190D01*
X126011904Y-76876190D01*
X126916666Y-76352380D02*
X127535714Y-76352380D01*
X127202380Y-76733333D01*
X127345238Y-76733333D01*
X127440476Y-76780952D01*
X127488095Y-76828571D01*
X127535714Y-76923809D01*
X127535714Y-77161904D01*
X127488095Y-77257142D01*
X127440476Y-77304761D01*
X127345238Y-77352380D01*
X127059523Y-77352380D01*
X126964285Y-77304761D01*
X126916666Y-77257142D01*
X129702380Y-65366666D02*
X129226190Y-65700000D01*
X129702380Y-65938095D02*
X128702380Y-65938095D01*
X128702380Y-65557142D01*
X128750000Y-65461904D01*
X128797619Y-65414285D01*
X128892857Y-65366666D01*
X129035714Y-65366666D01*
X129130952Y-65414285D01*
X129178571Y-65461904D01*
X129226190Y-65557142D01*
X129226190Y-65938095D01*
X129035714Y-64509523D02*
X129702380Y-64509523D01*
X128654761Y-64747619D02*
X129369047Y-64985714D01*
X129369047Y-64366666D01*
X111916666Y-68102380D02*
X111916666Y-68816666D01*
X111869047Y-68959523D01*
X111773809Y-69054761D01*
X111630952Y-69102380D01*
X111535714Y-69102380D01*
X112345238Y-68197619D02*
X112392857Y-68150000D01*
X112488095Y-68102380D01*
X112726190Y-68102380D01*
X112821428Y-68150000D01*
X112869047Y-68197619D01*
X112916666Y-68292857D01*
X112916666Y-68388095D01*
X112869047Y-68530952D01*
X112297619Y-69102380D01*
X112916666Y-69102380D01*
M02*
