%TF.GenerationSoftware,KiCad,Pcbnew,(6.0.7)*%
%TF.CreationDate,2023-08-04T14:01:42+02:00*%
%TF.ProjectId,SFH203_photodetector,53464832-3033-45f7-9068-6f746f646574,2.2.1*%
%TF.SameCoordinates,Original*%
%TF.FileFunction,Copper,L1,Top*%
%TF.FilePolarity,Positive*%
%FSLAX46Y46*%
G04 Gerber Fmt 4.6, Leading zero omitted, Abs format (unit mm)*
G04 Created by KiCad (PCBNEW (6.0.7)) date 2023-08-04 14:01:42*
%MOMM*%
%LPD*%
G01*
G04 APERTURE LIST*
G04 Aperture macros list*
%AMRoundRect*
0 Rectangle with rounded corners*
0 $1 Rounding radius*
0 $2 $3 $4 $5 $6 $7 $8 $9 X,Y pos of 4 corners*
0 Add a 4 corners polygon primitive as box body*
4,1,4,$2,$3,$4,$5,$6,$7,$8,$9,$2,$3,0*
0 Add four circle primitives for the rounded corners*
1,1,$1+$1,$2,$3*
1,1,$1+$1,$4,$5*
1,1,$1+$1,$6,$7*
1,1,$1+$1,$8,$9*
0 Add four rect primitives between the rounded corners*
20,1,$1+$1,$2,$3,$4,$5,0*
20,1,$1+$1,$4,$5,$6,$7,0*
20,1,$1+$1,$6,$7,$8,$9,0*
20,1,$1+$1,$8,$9,$2,$3,0*%
%AMFreePoly0*
4,1,38,0.670671,0.870970,0.751777,0.816777,0.805970,0.735671,0.825000,0.640000,0.825000,-0.640000,0.805970,-0.735671,0.751777,-0.816777,0.670671,-0.870970,0.575000,-0.890000,-0.780000,-0.890000,-0.880000,-0.915000,-1.750000,-0.915000,-1.750000,-0.665000,-1.075500,-0.665000,-1.075436,-0.664844,-1.075387,-0.664683,-1.075364,-0.664671,-1.075354,-0.664646,-1.075199,-0.664582,-1.075050,-0.664502,
-1.025101,-0.659508,-0.977199,-0.644539,-0.935281,-0.621584,-0.897355,-0.590644,-0.866421,-0.551727,-0.844465,-0.510809,-0.830492,-0.463901,-0.825497,-0.414950,-0.825420,-0.414807,-0.825354,-0.414646,-0.825329,-0.414636,-0.825316,-0.414612,-0.825157,-0.414565,-0.825000,-0.414500,-0.825000,0.640000,-0.575000,0.890000,0.575000,0.890000,0.670671,0.870970,0.670671,0.870970,$1*%
%AMFreePoly1*
4,1,25,0.670671,0.515970,0.751777,0.461777,0.805970,0.380671,0.825000,0.285000,0.825000,0.270000,1.750000,0.270000,1.750000,0.020000,0.825000,0.020000,0.825000,-0.285000,0.805970,-0.380671,0.751777,-0.461777,0.670671,-0.515970,0.575000,-0.535000,-0.575000,-0.535000,-0.670671,-0.515970,-0.751777,-0.461777,-0.805970,-0.380671,-0.825000,-0.285000,-0.825000,0.285000,-0.805970,0.380671,
-0.751777,0.461777,-0.670671,0.515970,-0.575000,0.535000,0.575000,0.535000,0.670671,0.515970,0.670671,0.515970,$1*%
G04 Aperture macros list end*
%TA.AperFunction,SMDPad,CuDef*%
%ADD10RoundRect,0.225000X-0.225000X-0.250000X0.225000X-0.250000X0.225000X0.250000X-0.225000X0.250000X0*%
%TD*%
%TA.AperFunction,ComponentPad*%
%ADD11RoundRect,0.250000X0.350000X0.625000X-0.350000X0.625000X-0.350000X-0.625000X0.350000X-0.625000X0*%
%TD*%
%TA.AperFunction,ComponentPad*%
%ADD12O,1.200000X1.750000*%
%TD*%
%TA.AperFunction,SMDPad,CuDef*%
%ADD13RoundRect,0.250000X1.100000X-0.325000X1.100000X0.325000X-1.100000X0.325000X-1.100000X-0.325000X0*%
%TD*%
%TA.AperFunction,SMDPad,CuDef*%
%ADD14RoundRect,0.225000X0.225000X0.250000X-0.225000X0.250000X-0.225000X-0.250000X0.225000X-0.250000X0*%
%TD*%
%TA.AperFunction,SMDPad,CuDef*%
%ADD15RoundRect,0.200000X0.200000X0.275000X-0.200000X0.275000X-0.200000X-0.275000X0.200000X-0.275000X0*%
%TD*%
%TA.AperFunction,SMDPad,CuDef*%
%ADD16RoundRect,0.250000X-0.312500X-0.625000X0.312500X-0.625000X0.312500X0.625000X-0.312500X0.625000X0*%
%TD*%
%TA.AperFunction,SMDPad,CuDef*%
%ADD17R,0.250000X0.700000*%
%TD*%
%TA.AperFunction,SMDPad,CuDef*%
%ADD18FreePoly0,270.000000*%
%TD*%
%TA.AperFunction,SMDPad,CuDef*%
%ADD19FreePoly1,270.000000*%
%TD*%
%TA.AperFunction,SMDPad,CuDef*%
%ADD20RoundRect,0.225000X0.250000X-0.225000X0.250000X0.225000X-0.250000X0.225000X-0.250000X-0.225000X0*%
%TD*%
%TA.AperFunction,SMDPad,CuDef*%
%ADD21RoundRect,0.250000X-1.100000X0.325000X-1.100000X-0.325000X1.100000X-0.325000X1.100000X0.325000X0*%
%TD*%
%TA.AperFunction,SMDPad,CuDef*%
%ADD22R,1.780000X4.190000*%
%TD*%
%TA.AperFunction,ComponentPad*%
%ADD23C,0.970000*%
%TD*%
%TA.AperFunction,SMDPad,CuDef*%
%ADD24R,0.460000X0.890000*%
%TD*%
%TA.AperFunction,SMDPad,CuDef*%
%ADD25R,2.665000X4.190000*%
%TD*%
%TA.AperFunction,SMDPad,CuDef*%
%ADD26RoundRect,0.150000X0.150000X-0.825000X0.150000X0.825000X-0.150000X0.825000X-0.150000X-0.825000X0*%
%TD*%
%TA.AperFunction,SMDPad,CuDef*%
%ADD27R,3.810000X2.410000*%
%TD*%
%TA.AperFunction,SMDPad,CuDef*%
%ADD28RoundRect,0.200000X-0.200000X-0.275000X0.200000X-0.275000X0.200000X0.275000X-0.200000X0.275000X0*%
%TD*%
%TA.AperFunction,ComponentPad*%
%ADD29C,1.300000*%
%TD*%
%TA.AperFunction,ComponentPad*%
%ADD30C,1.100000*%
%TD*%
%TA.AperFunction,ViaPad*%
%ADD31C,0.600000*%
%TD*%
%TA.AperFunction,Conductor*%
%ADD32C,0.500000*%
%TD*%
%TA.AperFunction,Conductor*%
%ADD33C,0.200000*%
%TD*%
%TA.AperFunction,Conductor*%
%ADD34C,1.000000*%
%TD*%
%TA.AperFunction,Conductor*%
%ADD35C,0.250000*%
%TD*%
G04 APERTURE END LIST*
D10*
%TO.P,C3,1*%
%TO.N,Net-(C3-Pad1)*%
X202625000Y-111700000D03*
%TO.P,C3,2*%
%TO.N,Net-(C3-Pad2)*%
X204175000Y-111700000D03*
%TD*%
D11*
%TO.P,J1,1,Pin_1*%
%TO.N,Net-(C1-Pad1)*%
X199000000Y-118100000D03*
D12*
%TO.P,J1,2,Pin_2*%
%TO.N,GND*%
X197000000Y-118100000D03*
%TO.P,J1,3,Pin_3*%
%TO.N,Net-(C2-Pad2)*%
X195000000Y-118100000D03*
%TD*%
D10*
%TO.P,C4,1*%
%TO.N,GND*%
X197925000Y-103900000D03*
%TO.P,C4,2*%
%TO.N,V+*%
X199475000Y-103900000D03*
%TD*%
D13*
%TO.P,C8,1*%
%TO.N,V+*%
X192900000Y-102800000D03*
%TO.P,C8,2*%
%TO.N,GND*%
X192900000Y-99850000D03*
%TD*%
D14*
%TO.P,C7,1*%
%TO.N,Net-(C7-Pad1)*%
X189975000Y-105800000D03*
%TO.P,C7,2*%
%TO.N,V-*%
X188425000Y-105800000D03*
%TD*%
D15*
%TO.P,R3,1*%
%TO.N,Net-(R2-Pad1)*%
X204325000Y-98500000D03*
%TO.P,R3,2*%
%TO.N,Net-(R3-Pad2)*%
X202675000Y-98500000D03*
%TD*%
D16*
%TO.P,R4,1*%
%TO.N,Net-(J4-Pad1)*%
X198037500Y-98300000D03*
%TO.P,R4,2*%
%TO.N,Net-(R3-Pad2)*%
X200962500Y-98300000D03*
%TD*%
D17*
%TO.P,U2,1,OUTP*%
%TO.N,V+*%
X191600000Y-109400000D03*
%TO.P,U2,2,NC*%
%TO.N,unconnected-(U2-Pad2)*%
X191100000Y-109400000D03*
%TO.P,U2,3,BYPP*%
%TO.N,Net-(C6-Pad2)*%
X190600000Y-109400000D03*
D18*
%TO.P,U2,4,GND*%
%TO.N,GND*%
X190890000Y-110800000D03*
D17*
%TO.P,U2,5,GND*%
X189600000Y-109400000D03*
%TO.P,U2,6,INN*%
%TO.N,Net-(C2-Pad2)*%
X189100000Y-109400000D03*
%TO.P,U2,7,OUTN*%
%TO.N,V-*%
X188600000Y-109400000D03*
%TO.P,U2,8,NC*%
%TO.N,unconnected-(U2-Pad8)*%
X188600000Y-112200000D03*
D19*
%TO.P,U2,9,INN*%
%TO.N,Net-(C2-Pad2)*%
X188955000Y-110800000D03*
D17*
%TO.P,U2,10,~{SHDNN}*%
X189600000Y-112200000D03*
%TO.P,U2,11,BYPN*%
%TO.N,Net-(C7-Pad1)*%
X190100000Y-112200000D03*
%TO.P,U2,12,~{SHDNP}*%
%TO.N,Net-(C1-Pad1)*%
X190600000Y-112200000D03*
%TO.P,U2,13,NC*%
%TO.N,unconnected-(U2-Pad13)*%
X191100000Y-112200000D03*
%TO.P,U2,14,INP*%
%TO.N,Net-(C1-Pad1)*%
X191600000Y-112200000D03*
%TD*%
D20*
%TO.P,C5,1*%
%TO.N,GND*%
X199400000Y-107175000D03*
%TO.P,C5,2*%
%TO.N,V-*%
X199400000Y-105625000D03*
%TD*%
D21*
%TO.P,C1,1*%
%TO.N,Net-(C1-Pad1)*%
X204000000Y-115437500D03*
%TO.P,C1,2*%
%TO.N,GND*%
X204000000Y-118387500D03*
%TD*%
D22*
%TO.P,J4,1,In*%
%TO.N,Net-(J4-Pad1)*%
X201200000Y-93135000D03*
D23*
%TO.P,J4,2,Ext*%
%TO.N,GND*%
X197707500Y-96120000D03*
D24*
X197707500Y-95675000D03*
D25*
X197707500Y-93135000D03*
D23*
X204692500Y-96120000D03*
D25*
X204692500Y-93135000D03*
D24*
X204692500Y-95675000D03*
%TD*%
D26*
%TO.P,U1,1*%
%TO.N,Net-(C3-Pad1)*%
X201095000Y-106475000D03*
%TO.P,U1,2,-*%
%TO.N,Net-(C3-Pad2)*%
X202365000Y-106475000D03*
%TO.P,U1,3,+*%
%TO.N,GND*%
X203635000Y-106475000D03*
%TO.P,U1,4,V-*%
%TO.N,V-*%
X204905000Y-106475000D03*
%TO.P,U1,5,+*%
%TO.N,Net-(C3-Pad1)*%
X204905000Y-101525000D03*
%TO.P,U1,6,-*%
%TO.N,Net-(R2-Pad1)*%
X203635000Y-101525000D03*
%TO.P,U1,7*%
%TO.N,Net-(R3-Pad2)*%
X202365000Y-101525000D03*
%TO.P,U1,8,V+*%
%TO.N,V+*%
X201095000Y-101525000D03*
D27*
%TO.P,U1,9,EP*%
%TO.N,V-*%
X203000000Y-104000000D03*
%TD*%
D15*
%TO.P,R2,1*%
%TO.N,Net-(R2-Pad1)*%
X199525000Y-100600000D03*
%TO.P,R2,2*%
%TO.N,GND*%
X197875000Y-100600000D03*
%TD*%
D14*
%TO.P,C6,1*%
%TO.N,V+*%
X191575000Y-107500000D03*
%TO.P,C6,2*%
%TO.N,Net-(C6-Pad2)*%
X190025000Y-107500000D03*
%TD*%
D28*
%TO.P,R1,1*%
%TO.N,Net-(C3-Pad1)*%
X202575000Y-109400000D03*
%TO.P,R1,2*%
%TO.N,Net-(C3-Pad2)*%
X204225000Y-109400000D03*
%TD*%
D21*
%TO.P,C9,1*%
%TO.N,GND*%
X189300000Y-99850000D03*
%TO.P,C9,2*%
%TO.N,V-*%
X189300000Y-102800000D03*
%TD*%
D13*
%TO.P,C2,1*%
%TO.N,GND*%
X190000000Y-118475000D03*
%TO.P,C2,2*%
%TO.N,Net-(C2-Pad2)*%
X190000000Y-115525000D03*
%TD*%
D29*
%TO.P,D1,1,K*%
%TO.N,Net-(C3-Pad2)*%
X196992500Y-108270000D03*
D30*
%TO.P,D1,2,A*%
%TO.N,V-*%
X196992500Y-105710000D03*
%TD*%
D31*
%TO.N,GND*%
X196000000Y-116000000D03*
X193100000Y-101200000D03*
X198000000Y-114000000D03*
X198000000Y-116000000D03*
X197000000Y-116000000D03*
X197900000Y-102500000D03*
X188300000Y-101200000D03*
X204000000Y-117000000D03*
X190200000Y-101200000D03*
X190900000Y-110800000D03*
X194000000Y-101200000D03*
X189000000Y-117000000D03*
X195500000Y-111000000D03*
X197000000Y-114000000D03*
X196000000Y-115000000D03*
X205000000Y-117000000D03*
X196500000Y-111000000D03*
X194500000Y-112000000D03*
X192000000Y-101200000D03*
X194500000Y-111000000D03*
X203600000Y-108000000D03*
X198000000Y-115000000D03*
X203000000Y-117000000D03*
X196500000Y-112000000D03*
X192500000Y-112000000D03*
X189300000Y-101200000D03*
X195500000Y-112000000D03*
X193500000Y-111000000D03*
X192500000Y-111000000D03*
X199937414Y-111069305D03*
X190000000Y-117000000D03*
X193500000Y-112000000D03*
X197000000Y-115000000D03*
X196000000Y-114000000D03*
X196900000Y-100600000D03*
X191000000Y-117000000D03*
%TO.N,Net-(C3-Pad1)*%
X202625000Y-110475000D03*
X205700000Y-110400000D03*
%TO.N,V-*%
X190000000Y-104000000D03*
X192500000Y-104000000D03*
%TO.N,Net-(C7-Pad1)*%
X188800000Y-107500000D03*
X190156626Y-113322639D03*
%TO.N,Net-(R2-Pad1)*%
X201600000Y-100000000D03*
X203268475Y-100009782D03*
%TD*%
D32*
%TO.N,Net-(C1-Pad1)*%
X200362500Y-115437500D02*
X200362500Y-115301839D01*
X192800000Y-113900000D02*
X191600000Y-113900000D01*
D33*
X191600000Y-112200000D02*
X191600000Y-112900000D01*
D32*
X193500000Y-113200000D02*
X192800000Y-113900000D01*
X200362500Y-115301839D02*
X198260661Y-113200000D01*
X198260661Y-113200000D02*
X193500000Y-113200000D01*
X199000000Y-118100000D02*
X199000000Y-116800000D01*
X199000000Y-116800000D02*
X200362500Y-115437500D01*
D33*
X190600000Y-112900000D02*
X190600000Y-112200000D01*
D32*
X200362500Y-115437500D02*
X204000000Y-115437500D01*
D33*
X190900000Y-113200000D02*
X190600000Y-112900000D01*
X191300000Y-113200000D02*
X191100000Y-113200000D01*
D32*
X191100000Y-113400000D02*
X191100000Y-113200000D01*
D33*
X191100000Y-113200000D02*
X190900000Y-113200000D01*
X191600000Y-112900000D02*
X191300000Y-113200000D01*
D32*
X191600000Y-113900000D02*
X191100000Y-113400000D01*
%TO.N,GND*%
X188300000Y-101200000D02*
X190200000Y-101200000D01*
D33*
X190100000Y-108600000D02*
X190100000Y-110010000D01*
D34*
X189300000Y-101200000D02*
X189300000Y-99850000D01*
D32*
X199400000Y-107175000D02*
X199400000Y-110531891D01*
D34*
X193100000Y-101200000D02*
X193100000Y-100050000D01*
D33*
X190100000Y-110010000D02*
X190890000Y-110800000D01*
D32*
X197875000Y-100600000D02*
X196900000Y-100600000D01*
D33*
X189600000Y-109400000D02*
X189600000Y-108600000D01*
D32*
X199400000Y-110531891D02*
X199937414Y-111069305D01*
X197925000Y-102525000D02*
X197900000Y-102500000D01*
X197925000Y-103900000D02*
X197925000Y-102525000D01*
D33*
X190000000Y-108500000D02*
X190100000Y-108600000D01*
D32*
X203635000Y-106475000D02*
X203635000Y-107965000D01*
X203635000Y-107965000D02*
X203600000Y-108000000D01*
D33*
X189700000Y-108500000D02*
X190000000Y-108500000D01*
D34*
X193100000Y-100050000D02*
X192900000Y-99850000D01*
D33*
X189600000Y-108600000D02*
X189700000Y-108500000D01*
D32*
X192000000Y-101200000D02*
X194000000Y-101200000D01*
D33*
%TO.N,Net-(C2-Pad2)*%
X189100000Y-109400000D02*
X189100000Y-110655000D01*
X189500000Y-113200000D02*
X189600000Y-113100000D01*
X189200000Y-113200000D02*
X189300000Y-113200000D01*
X188955000Y-110800000D02*
X189100000Y-110945000D01*
X189100000Y-110945000D02*
X189100000Y-113100000D01*
X189300000Y-113200000D02*
X189500000Y-113200000D01*
D32*
X189300000Y-114825000D02*
X189300000Y-113200000D01*
D33*
X189100000Y-110655000D02*
X188955000Y-110800000D01*
D32*
X190000000Y-115525000D02*
X189300000Y-114825000D01*
X192425000Y-115525000D02*
X190000000Y-115525000D01*
D33*
X189100000Y-113100000D02*
X189200000Y-113200000D01*
D32*
X195000000Y-118100000D02*
X192425000Y-115525000D01*
D33*
X189600000Y-113100000D02*
X189600000Y-112200000D01*
D35*
%TO.N,Net-(C3-Pad1)*%
X202000000Y-109400000D02*
X202575000Y-109400000D01*
D33*
X206100000Y-110000000D02*
X206100000Y-102000000D01*
D35*
X201095000Y-108495000D02*
X202000000Y-109400000D01*
D33*
X202625000Y-109450000D02*
X202575000Y-109400000D01*
X205625000Y-101525000D02*
X204905000Y-101525000D01*
X205700000Y-110400000D02*
X206100000Y-110000000D01*
X206100000Y-102000000D02*
X205625000Y-101525000D01*
X202625000Y-111200000D02*
X202625000Y-110475000D01*
X202625000Y-110475000D02*
X202625000Y-109450000D01*
D35*
X201095000Y-108495000D02*
X201095000Y-106475000D01*
D33*
%TO.N,Net-(C3-Pad2)*%
X204175000Y-111500000D02*
X204175000Y-109450000D01*
X196992500Y-108270000D02*
X196992500Y-109292500D01*
X204175000Y-109450000D02*
X204225000Y-109400000D01*
X196992500Y-109292500D02*
X200400000Y-112700000D01*
X204100000Y-109400000D02*
X202365000Y-107665000D01*
X204175000Y-112225000D02*
X204175000Y-111500000D01*
X204225000Y-109400000D02*
X204100000Y-109400000D01*
X203700000Y-112700000D02*
X204175000Y-112225000D01*
X200400000Y-112700000D02*
X203700000Y-112700000D01*
X202365000Y-107665000D02*
X202365000Y-106475000D01*
D32*
%TO.N,V+*%
X195500000Y-101500000D02*
X196700000Y-101500000D01*
X191600000Y-107750000D02*
X191600000Y-108050000D01*
X191575000Y-103600000D02*
X192375000Y-102800000D01*
X191575000Y-107500000D02*
X191575000Y-103600000D01*
X192375000Y-102800000D02*
X194200000Y-102800000D01*
X198625000Y-101525000D02*
X199650000Y-102550000D01*
X196725000Y-101525000D02*
X198625000Y-101525000D01*
X200675000Y-101525000D02*
X199650000Y-102550000D01*
X196700000Y-101500000D02*
X196725000Y-101525000D01*
D33*
X191600000Y-109400000D02*
X191600000Y-108700000D01*
D32*
X199475000Y-102725000D02*
X199475000Y-103900000D01*
X199650000Y-102550000D02*
X199475000Y-102725000D01*
X194200000Y-102800000D02*
X195500000Y-101500000D01*
X201095000Y-101525000D02*
X200675000Y-101525000D01*
X191600000Y-108050000D02*
X191600000Y-108700000D01*
%TO.N,V-*%
X194210000Y-105710000D02*
X196992500Y-105710000D01*
X189200000Y-103200000D02*
X190000000Y-104000000D01*
X188000000Y-108100000D02*
X188600000Y-108700000D01*
D33*
X204400000Y-104000000D02*
X203000000Y-104000000D01*
D32*
X188000000Y-106225000D02*
X188000000Y-108100000D01*
X202175000Y-104825000D02*
X203000000Y-104000000D01*
X188425000Y-103775000D02*
X189200000Y-103000000D01*
X188425000Y-105800000D02*
X188425000Y-103775000D01*
D33*
X204905000Y-106475000D02*
X204905000Y-104505000D01*
D32*
X192500000Y-104000000D02*
X194210000Y-105710000D01*
D33*
X204905000Y-104505000D02*
X204400000Y-104000000D01*
D32*
X196992500Y-105710000D02*
X199315000Y-105710000D01*
D33*
X188600000Y-109400000D02*
X188600000Y-108700000D01*
D32*
X200200000Y-104825000D02*
X202175000Y-104825000D01*
X199315000Y-105710000D02*
X200200000Y-104825000D01*
X188425000Y-105800000D02*
X188000000Y-106225000D01*
D33*
%TO.N,Net-(C6-Pad2)*%
X190600000Y-109400000D02*
X190600000Y-108075000D01*
X190600000Y-108075000D02*
X190025000Y-107500000D01*
%TO.N,Net-(C7-Pad1)*%
X189975000Y-105825000D02*
X188800000Y-107000000D01*
X188800000Y-107000000D02*
X188800000Y-107500000D01*
X189975000Y-105800000D02*
X189975000Y-105825000D01*
X190100000Y-113266013D02*
X190100000Y-112200000D01*
%TO.N,Net-(J4-Pad1)*%
X198700000Y-98300000D02*
X201200000Y-95800000D01*
X198237500Y-98300000D02*
X198700000Y-98300000D01*
X201200000Y-95800000D02*
X201200000Y-94807500D01*
%TO.N,Net-(R2-Pad1)*%
X204400000Y-98575000D02*
X204325000Y-98500000D01*
X203635000Y-101525000D02*
X203635000Y-100435000D01*
X203635000Y-100365000D02*
X204400000Y-99600000D01*
X200100000Y-100600000D02*
X200700000Y-100000000D01*
X203635000Y-100376307D02*
X203635000Y-100435000D01*
X199525000Y-100600000D02*
X200100000Y-100600000D01*
X204400000Y-99600000D02*
X204400000Y-98575000D01*
X203635000Y-100435000D02*
X203635000Y-100365000D01*
X200700000Y-100000000D02*
X201600000Y-100000000D01*
X203268475Y-100009782D02*
X203635000Y-100376307D01*
%TO.N,Net-(R3-Pad2)*%
X201900000Y-98300000D02*
X202200000Y-98600000D01*
X202675000Y-99925000D02*
X202675000Y-98500000D01*
X202365000Y-101525000D02*
X202365000Y-100235000D01*
X201162500Y-98300000D02*
X201900000Y-98300000D01*
X202365000Y-100235000D02*
X202675000Y-99925000D01*
X202200000Y-98600000D02*
X202575000Y-98600000D01*
X202575000Y-98600000D02*
X202675000Y-98500000D01*
%TD*%
%TA.AperFunction,Conductor*%
%TO.N,GND*%
G36*
X187717012Y-108890147D02*
G01*
X187723595Y-108896276D01*
X187929595Y-109102276D01*
X187963621Y-109164588D01*
X187966500Y-109191371D01*
X187966500Y-109798134D01*
X187966869Y-109801531D01*
X187973255Y-109860316D01*
X187971283Y-109860530D01*
X187968074Y-109921139D01*
X187940254Y-110000000D01*
X187930647Y-110027231D01*
X187911244Y-110124776D01*
X187903418Y-110179210D01*
X187904734Y-110203767D01*
X187906684Y-110240150D01*
X187905921Y-110249624D01*
X187906271Y-110249624D01*
X187906271Y-111300353D01*
X187904989Y-111318284D01*
X187903418Y-111329211D01*
X187911244Y-111475224D01*
X187930647Y-111572769D01*
X187944247Y-111626054D01*
X187946916Y-111631633D01*
X187946917Y-111631635D01*
X187963124Y-111665509D01*
X187974481Y-111735591D01*
X187974193Y-111737183D01*
X187973255Y-111739684D01*
X187966500Y-111801866D01*
X187966500Y-112598134D01*
X187973255Y-112660316D01*
X188024385Y-112796705D01*
X188111739Y-112913261D01*
X188228295Y-113000615D01*
X188364684Y-113051745D01*
X188372537Y-113052598D01*
X188372541Y-113052599D01*
X188381699Y-113053593D01*
X188383169Y-113053753D01*
X188448732Y-113080993D01*
X188489160Y-113139355D01*
X188494486Y-113162565D01*
X188504609Y-113239457D01*
X188507162Y-113258851D01*
X188531909Y-113318595D01*
X188541500Y-113366813D01*
X188541500Y-114459631D01*
X188521498Y-114527752D01*
X188481807Y-114566772D01*
X188425652Y-114601522D01*
X188300695Y-114726697D01*
X188296855Y-114732927D01*
X188296854Y-114732928D01*
X188262566Y-114788554D01*
X188207885Y-114877262D01*
X188202198Y-114894409D01*
X188157442Y-115029345D01*
X188152203Y-115045139D01*
X188151503Y-115051975D01*
X188151502Y-115051978D01*
X188147091Y-115095031D01*
X188141500Y-115149600D01*
X188141500Y-115900400D01*
X188152474Y-116006166D01*
X188154655Y-116012702D01*
X188154655Y-116012704D01*
X188180933Y-116091468D01*
X188208450Y-116173946D01*
X188301522Y-116324348D01*
X188426697Y-116449305D01*
X188432927Y-116453145D01*
X188432928Y-116453146D01*
X188570090Y-116537694D01*
X188577262Y-116542115D01*
X188628018Y-116558950D01*
X188738611Y-116595632D01*
X188738613Y-116595632D01*
X188745139Y-116597797D01*
X188751975Y-116598497D01*
X188751978Y-116598498D01*
X188795031Y-116602909D01*
X188849600Y-116608500D01*
X191150400Y-116608500D01*
X191153646Y-116608163D01*
X191153650Y-116608163D01*
X191249308Y-116598238D01*
X191249312Y-116598237D01*
X191256166Y-116597526D01*
X191262702Y-116595345D01*
X191262704Y-116595345D01*
X191408932Y-116546559D01*
X191423946Y-116541550D01*
X191574348Y-116448478D01*
X191699305Y-116323303D01*
X191700945Y-116324941D01*
X191749744Y-116290344D01*
X191790706Y-116283500D01*
X192058629Y-116283500D01*
X192126750Y-116303502D01*
X192147724Y-116320405D01*
X193854595Y-118027276D01*
X193888621Y-118089588D01*
X193891500Y-118116371D01*
X193891500Y-118427846D01*
X193906548Y-118585566D01*
X193966092Y-118788534D01*
X193968836Y-118793861D01*
X193968836Y-118793862D01*
X194058319Y-118967603D01*
X194062942Y-118976580D01*
X194193604Y-119142920D01*
X194340439Y-119270337D01*
X194378778Y-119330088D01*
X194378728Y-119401085D01*
X194340302Y-119460783D01*
X194275700Y-119490230D01*
X194257857Y-119491500D01*
X191784598Y-119491500D01*
X191716477Y-119471498D01*
X191669984Y-119417842D01*
X191659880Y-119347568D01*
X191689374Y-119282988D01*
X191693090Y-119278992D01*
X191702751Y-119266760D01*
X191787816Y-119128757D01*
X191793963Y-119115576D01*
X191845138Y-118961290D01*
X191848005Y-118947914D01*
X191857672Y-118853562D01*
X191858000Y-118847146D01*
X191858000Y-118747115D01*
X191853525Y-118731876D01*
X191852135Y-118730671D01*
X191844452Y-118729000D01*
X188160116Y-118729000D01*
X188144877Y-118733475D01*
X188143672Y-118734865D01*
X188142001Y-118742548D01*
X188142001Y-118847095D01*
X188142338Y-118853614D01*
X188152257Y-118949206D01*
X188155149Y-118962600D01*
X188206588Y-119116784D01*
X188212761Y-119129962D01*
X188298063Y-119267807D01*
X188311646Y-119284945D01*
X188309751Y-119286447D01*
X188338292Y-119338609D01*
X188333289Y-119409430D01*
X188290792Y-119466302D01*
X188224293Y-119491171D01*
X188215195Y-119491500D01*
X188051603Y-119491500D01*
X188031343Y-119489860D01*
X188009897Y-119486366D01*
X188000988Y-119487467D01*
X188000986Y-119487467D01*
X188000793Y-119487491D01*
X187970412Y-119487555D01*
X187969675Y-119487467D01*
X187907241Y-119480018D01*
X187879897Y-119473603D01*
X187801806Y-119445791D01*
X187776561Y-119433476D01*
X187706574Y-119389056D01*
X187684686Y-119371456D01*
X187626277Y-119312634D01*
X187608834Y-119290624D01*
X187564907Y-119220324D01*
X187552773Y-119194998D01*
X187525510Y-119116704D01*
X187519289Y-119089319D01*
X187514761Y-119048946D01*
X187512948Y-119032781D01*
X187513291Y-119017031D01*
X187512200Y-119017018D01*
X187512310Y-119008044D01*
X187513691Y-118999173D01*
X187512527Y-118990270D01*
X187512527Y-118990265D01*
X187509564Y-118967603D01*
X187508500Y-118951267D01*
X187508500Y-118202885D01*
X188142000Y-118202885D01*
X188146475Y-118218124D01*
X188147865Y-118219329D01*
X188155548Y-118221000D01*
X189727885Y-118221000D01*
X189743124Y-118216525D01*
X189744329Y-118215135D01*
X189746000Y-118207452D01*
X189746000Y-118202885D01*
X190254000Y-118202885D01*
X190258475Y-118218124D01*
X190259865Y-118219329D01*
X190267548Y-118221000D01*
X191839884Y-118221000D01*
X191855123Y-118216525D01*
X191856328Y-118215135D01*
X191857999Y-118207452D01*
X191857999Y-118102905D01*
X191857662Y-118096386D01*
X191847743Y-118000794D01*
X191844851Y-117987400D01*
X191793412Y-117833216D01*
X191787239Y-117820038D01*
X191701937Y-117682193D01*
X191692901Y-117670792D01*
X191578171Y-117556261D01*
X191566760Y-117547249D01*
X191428757Y-117462184D01*
X191415576Y-117456037D01*
X191261290Y-117404862D01*
X191247914Y-117401995D01*
X191153562Y-117392328D01*
X191147145Y-117392000D01*
X190272115Y-117392000D01*
X190256876Y-117396475D01*
X190255671Y-117397865D01*
X190254000Y-117405548D01*
X190254000Y-118202885D01*
X189746000Y-118202885D01*
X189746000Y-117410116D01*
X189741525Y-117394877D01*
X189740135Y-117393672D01*
X189732452Y-117392001D01*
X188852905Y-117392001D01*
X188846386Y-117392338D01*
X188750794Y-117402257D01*
X188737400Y-117405149D01*
X188583216Y-117456588D01*
X188570038Y-117462761D01*
X188432193Y-117548063D01*
X188420792Y-117557099D01*
X188306261Y-117671829D01*
X188297249Y-117683240D01*
X188212184Y-117821243D01*
X188206037Y-117834424D01*
X188154862Y-117988710D01*
X188151995Y-118002086D01*
X188142328Y-118096438D01*
X188142000Y-118102855D01*
X188142000Y-118202885D01*
X187508500Y-118202885D01*
X187508500Y-108985371D01*
X187528502Y-108917250D01*
X187582158Y-108870757D01*
X187652432Y-108860653D01*
X187717012Y-108890147D01*
G37*
%TD.AperFunction*%
%TA.AperFunction,Conductor*%
G36*
X206433621Y-114020002D02*
G01*
X206480114Y-114073658D01*
X206491500Y-114126000D01*
X206491500Y-118950633D01*
X206490000Y-118970018D01*
X206489809Y-118971249D01*
X206486309Y-118993724D01*
X206487473Y-119002626D01*
X206487489Y-119002750D01*
X206487760Y-119033193D01*
X206480766Y-119095264D01*
X206474487Y-119122771D01*
X206447515Y-119199853D01*
X206435273Y-119225274D01*
X206391822Y-119294426D01*
X206374230Y-119316485D01*
X206316485Y-119374230D01*
X206294426Y-119391822D01*
X206225274Y-119435273D01*
X206199853Y-119447515D01*
X206122772Y-119474487D01*
X206095264Y-119480766D01*
X206039774Y-119487018D01*
X206024132Y-119486923D01*
X206024121Y-119487800D01*
X206015149Y-119487690D01*
X206006276Y-119486309D01*
X205997374Y-119487473D01*
X205997372Y-119487473D01*
X205986385Y-119488910D01*
X205974714Y-119490436D01*
X205958379Y-119491500D01*
X205697250Y-119491500D01*
X205629129Y-119471498D01*
X205582636Y-119417842D01*
X205572532Y-119347568D01*
X205602026Y-119282988D01*
X205608077Y-119276482D01*
X205693739Y-119190671D01*
X205702751Y-119179260D01*
X205787816Y-119041257D01*
X205793963Y-119028076D01*
X205845138Y-118873790D01*
X205848005Y-118860414D01*
X205857672Y-118766062D01*
X205858000Y-118759646D01*
X205858000Y-118659615D01*
X205853525Y-118644376D01*
X205852135Y-118643171D01*
X205844452Y-118641500D01*
X202160116Y-118641500D01*
X202144877Y-118645975D01*
X202143672Y-118647365D01*
X202142001Y-118655048D01*
X202142001Y-118759595D01*
X202142338Y-118766114D01*
X202152257Y-118861706D01*
X202155149Y-118875100D01*
X202206588Y-119029284D01*
X202212761Y-119042462D01*
X202298063Y-119180307D01*
X202307099Y-119191708D01*
X202391865Y-119276327D01*
X202425944Y-119338610D01*
X202420941Y-119409430D01*
X202378444Y-119466303D01*
X202311945Y-119491171D01*
X202302847Y-119491500D01*
X199960435Y-119491500D01*
X199892314Y-119471498D01*
X199845821Y-119417842D01*
X199835717Y-119347568D01*
X199865211Y-119282988D01*
X199871262Y-119276482D01*
X199944134Y-119203483D01*
X199949305Y-119198303D01*
X199953370Y-119191708D01*
X200038275Y-119053968D01*
X200038276Y-119053966D01*
X200042115Y-119047738D01*
X200097797Y-118879861D01*
X200108500Y-118775400D01*
X200108500Y-118115385D01*
X202142000Y-118115385D01*
X202146475Y-118130624D01*
X202147865Y-118131829D01*
X202155548Y-118133500D01*
X203727885Y-118133500D01*
X203743124Y-118129025D01*
X203744329Y-118127635D01*
X203746000Y-118119952D01*
X203746000Y-118115385D01*
X204254000Y-118115385D01*
X204258475Y-118130624D01*
X204259865Y-118131829D01*
X204267548Y-118133500D01*
X205839884Y-118133500D01*
X205855123Y-118129025D01*
X205856328Y-118127635D01*
X205857999Y-118119952D01*
X205857999Y-118015405D01*
X205857662Y-118008886D01*
X205847743Y-117913294D01*
X205844851Y-117899900D01*
X205793412Y-117745716D01*
X205787239Y-117732538D01*
X205701937Y-117594693D01*
X205692901Y-117583292D01*
X205578171Y-117468761D01*
X205566760Y-117459749D01*
X205428757Y-117374684D01*
X205415576Y-117368537D01*
X205261290Y-117317362D01*
X205247914Y-117314495D01*
X205153562Y-117304828D01*
X205147145Y-117304500D01*
X204272115Y-117304500D01*
X204256876Y-117308975D01*
X204255671Y-117310365D01*
X204254000Y-117318048D01*
X204254000Y-118115385D01*
X203746000Y-118115385D01*
X203746000Y-117322616D01*
X203741525Y-117307377D01*
X203740135Y-117306172D01*
X203732452Y-117304501D01*
X202852905Y-117304501D01*
X202846386Y-117304838D01*
X202750794Y-117314757D01*
X202737400Y-117317649D01*
X202583216Y-117369088D01*
X202570038Y-117375261D01*
X202432193Y-117460563D01*
X202420792Y-117469599D01*
X202306261Y-117584329D01*
X202297249Y-117595740D01*
X202212184Y-117733743D01*
X202206037Y-117746924D01*
X202154862Y-117901210D01*
X202151995Y-117914586D01*
X202142328Y-118008938D01*
X202142000Y-118015355D01*
X202142000Y-118115385D01*
X200108500Y-118115385D01*
X200108500Y-117424600D01*
X200103321Y-117374684D01*
X200098238Y-117325692D01*
X200098237Y-117325688D01*
X200097526Y-117318834D01*
X200065857Y-117223909D01*
X200043868Y-117158002D01*
X200041550Y-117151054D01*
X199971758Y-117038272D01*
X199952920Y-116969820D01*
X199974081Y-116902051D01*
X199989807Y-116882874D01*
X200639776Y-116232905D01*
X200702088Y-116198879D01*
X200728871Y-116196000D01*
X202209317Y-116196000D01*
X202277438Y-116216002D01*
X202301016Y-116237355D01*
X202301522Y-116236848D01*
X202426697Y-116361805D01*
X202432927Y-116365645D01*
X202432928Y-116365646D01*
X202570090Y-116450194D01*
X202577262Y-116454615D01*
X202657005Y-116481064D01*
X202738611Y-116508132D01*
X202738613Y-116508132D01*
X202745139Y-116510297D01*
X202751975Y-116510997D01*
X202751978Y-116510998D01*
X202795031Y-116515409D01*
X202849600Y-116521000D01*
X205150400Y-116521000D01*
X205153646Y-116520663D01*
X205153650Y-116520663D01*
X205249308Y-116510738D01*
X205249312Y-116510737D01*
X205256166Y-116510026D01*
X205262702Y-116507845D01*
X205262704Y-116507845D01*
X205394806Y-116463772D01*
X205423946Y-116454050D01*
X205574348Y-116360978D01*
X205699305Y-116235803D01*
X205711511Y-116216002D01*
X205788275Y-116091468D01*
X205788276Y-116091466D01*
X205792115Y-116085238D01*
X205847797Y-115917361D01*
X205849870Y-115897134D01*
X205858172Y-115816098D01*
X205858500Y-115812900D01*
X205858500Y-115062100D01*
X205855801Y-115036089D01*
X205848238Y-114963192D01*
X205848237Y-114963188D01*
X205847526Y-114956334D01*
X205821146Y-114877262D01*
X205793868Y-114795502D01*
X205791550Y-114788554D01*
X205698478Y-114638152D01*
X205573303Y-114513195D01*
X205539845Y-114492571D01*
X205428968Y-114424225D01*
X205428966Y-114424224D01*
X205422738Y-114420385D01*
X205342995Y-114393936D01*
X205261389Y-114366868D01*
X205261387Y-114366868D01*
X205254861Y-114364703D01*
X205248025Y-114364003D01*
X205248022Y-114364002D01*
X205204392Y-114359532D01*
X205150400Y-114354000D01*
X202849600Y-114354000D01*
X202846354Y-114354337D01*
X202846350Y-114354337D01*
X202750692Y-114364262D01*
X202750688Y-114364263D01*
X202743834Y-114364974D01*
X202737298Y-114367155D01*
X202737296Y-114367155D01*
X202651872Y-114395655D01*
X202576054Y-114420950D01*
X202425652Y-114514022D01*
X202300695Y-114639197D01*
X202299055Y-114637559D01*
X202250256Y-114672156D01*
X202209294Y-114679000D01*
X200864532Y-114679000D01*
X200796411Y-114658998D01*
X200775437Y-114642095D01*
X200348437Y-114215095D01*
X200314411Y-114152783D01*
X200319476Y-114081968D01*
X200362023Y-114025132D01*
X200428543Y-114000321D01*
X200437532Y-114000000D01*
X206365500Y-114000000D01*
X206433621Y-114020002D01*
G37*
%TD.AperFunction*%
%TA.AperFunction,Conductor*%
G36*
X197962411Y-113978502D02*
G01*
X197983385Y-113995405D01*
X199268554Y-115280574D01*
X199302580Y-115342886D01*
X199297515Y-115413701D01*
X199268554Y-115458764D01*
X198511085Y-116216233D01*
X198496673Y-116228620D01*
X198479182Y-116241492D01*
X198474443Y-116247070D01*
X198474440Y-116247073D01*
X198444965Y-116281768D01*
X198438035Y-116289284D01*
X198432340Y-116294979D01*
X198430060Y-116297861D01*
X198414719Y-116317251D01*
X198411928Y-116320655D01*
X198369409Y-116370703D01*
X198364667Y-116376285D01*
X198361339Y-116382801D01*
X198357972Y-116387850D01*
X198354805Y-116392979D01*
X198350266Y-116398716D01*
X198319345Y-116464875D01*
X198317442Y-116468769D01*
X198284231Y-116533808D01*
X198282492Y-116540916D01*
X198280393Y-116546559D01*
X198278476Y-116552322D01*
X198275378Y-116558950D01*
X198273888Y-116566112D01*
X198273888Y-116566113D01*
X198260514Y-116630412D01*
X198259544Y-116634696D01*
X198242192Y-116705610D01*
X198241500Y-116716764D01*
X198241464Y-116716762D01*
X198241225Y-116720755D01*
X198240851Y-116724947D01*
X198239360Y-116732115D01*
X198239558Y-116739432D01*
X198240194Y-116762944D01*
X198222041Y-116831580D01*
X198186834Y-116867143D01*
X198187612Y-116868125D01*
X198181880Y-116872668D01*
X198175652Y-116876522D01*
X198050695Y-117001697D01*
X198046853Y-117007929D01*
X198046852Y-117007931D01*
X198018645Y-117053690D01*
X197965873Y-117101183D01*
X197895801Y-117112605D01*
X197830677Y-117084331D01*
X197812298Y-117065403D01*
X197809738Y-117062144D01*
X197801501Y-117053494D01*
X197650877Y-116922788D01*
X197641153Y-116915853D01*
X197468533Y-116815990D01*
X197457669Y-116811016D01*
X197269273Y-116745593D01*
X197268284Y-116745352D01*
X197257992Y-116746820D01*
X197254000Y-116760385D01*
X197254000Y-118228000D01*
X197233998Y-118296121D01*
X197180342Y-118342614D01*
X197128000Y-118354000D01*
X196872000Y-118354000D01*
X196803879Y-118333998D01*
X196757386Y-118280342D01*
X196746000Y-118228000D01*
X196746000Y-116764598D01*
X196742027Y-116751067D01*
X196732601Y-116749712D01*
X196643463Y-116771194D01*
X196632168Y-116775083D01*
X196450618Y-116857629D01*
X196440276Y-116863576D01*
X196277603Y-116978968D01*
X196268575Y-116986761D01*
X196130658Y-117130831D01*
X196123259Y-117140200D01*
X196105582Y-117167577D01*
X196051828Y-117213955D01*
X195981532Y-117223909D01*
X195917015Y-117194278D01*
X195900644Y-117177063D01*
X195864328Y-117130831D01*
X195806396Y-117057080D01*
X195801865Y-117053148D01*
X195801862Y-117053145D01*
X195651167Y-116922379D01*
X195646637Y-116918448D01*
X195641451Y-116915448D01*
X195641447Y-116915445D01*
X195468742Y-116815533D01*
X195463546Y-116812527D01*
X195263729Y-116743139D01*
X195257794Y-116742278D01*
X195257792Y-116742278D01*
X195060336Y-116713648D01*
X195060333Y-116713648D01*
X195054396Y-116712787D01*
X194843101Y-116722567D01*
X194792629Y-116734731D01*
X194721720Y-116731246D01*
X194674014Y-116701333D01*
X193008770Y-115036089D01*
X192996384Y-115021677D01*
X192987851Y-115010082D01*
X192987846Y-115010077D01*
X192983508Y-115004182D01*
X192977930Y-114999443D01*
X192977927Y-114999440D01*
X192943232Y-114969965D01*
X192935716Y-114963035D01*
X192930021Y-114957340D01*
X192920486Y-114949796D01*
X192907749Y-114939719D01*
X192904345Y-114936928D01*
X192854298Y-114894409D01*
X192854292Y-114894405D01*
X192848715Y-114889667D01*
X192842196Y-114886338D01*
X192837942Y-114883501D01*
X192792367Y-114829064D01*
X192783458Y-114758628D01*
X192814043Y-114694558D01*
X192874412Y-114657194D01*
X192897637Y-114653090D01*
X192942339Y-114649454D01*
X192942342Y-114649453D01*
X192949637Y-114648860D01*
X192956601Y-114646604D01*
X192962560Y-114645413D01*
X192968415Y-114644029D01*
X192975681Y-114643182D01*
X193044327Y-114618265D01*
X193048455Y-114616848D01*
X193110936Y-114596607D01*
X193110938Y-114596606D01*
X193117899Y-114594351D01*
X193124154Y-114590555D01*
X193129628Y-114588049D01*
X193135058Y-114585330D01*
X193141937Y-114582833D01*
X193202976Y-114542814D01*
X193206680Y-114540477D01*
X193269107Y-114502595D01*
X193277484Y-114495197D01*
X193277508Y-114495224D01*
X193280500Y-114492571D01*
X193283733Y-114489868D01*
X193289852Y-114485856D01*
X193343128Y-114429617D01*
X193345506Y-114427175D01*
X193777276Y-113995405D01*
X193839588Y-113961379D01*
X193866371Y-113958500D01*
X197894290Y-113958500D01*
X197962411Y-113978502D01*
G37*
%TD.AperFunction*%
%TA.AperFunction,Conductor*%
G36*
X193444852Y-107520184D02*
G01*
X193491522Y-107573686D01*
X193503044Y-107623297D01*
X193536363Y-108972708D01*
X193561728Y-110000000D01*
X196437000Y-110000000D01*
X196505121Y-110020002D01*
X196537800Y-110050400D01*
X198179925Y-112239900D01*
X198204796Y-112306398D01*
X198189767Y-112375786D01*
X198139610Y-112426033D01*
X198079125Y-112441500D01*
X193567063Y-112441500D01*
X193548114Y-112440067D01*
X193543466Y-112439360D01*
X193526651Y-112436802D01*
X193519359Y-112437395D01*
X193519356Y-112437395D01*
X193473991Y-112441085D01*
X193463777Y-112441500D01*
X193455707Y-112441500D01*
X193452087Y-112441922D01*
X193452069Y-112441923D01*
X193427461Y-112444792D01*
X193423100Y-112445224D01*
X193397981Y-112447267D01*
X193357661Y-112450546D01*
X193357658Y-112450547D01*
X193350363Y-112451140D01*
X193343399Y-112453396D01*
X193337440Y-112454587D01*
X193331585Y-112455971D01*
X193324319Y-112456818D01*
X193255673Y-112481735D01*
X193251545Y-112483152D01*
X193189064Y-112503393D01*
X193189062Y-112503394D01*
X193182101Y-112505649D01*
X193175846Y-112509445D01*
X193170372Y-112511951D01*
X193164942Y-112514670D01*
X193158063Y-112517167D01*
X193097016Y-112557191D01*
X193093327Y-112559518D01*
X193084843Y-112564667D01*
X193035693Y-112594491D01*
X193035688Y-112594495D01*
X193030892Y-112597405D01*
X193026685Y-112601121D01*
X193026682Y-112601123D01*
X193022545Y-112604777D01*
X193022516Y-112604803D01*
X193022493Y-112604777D01*
X193019503Y-112607426D01*
X193016264Y-112610134D01*
X193010148Y-112614144D01*
X193005121Y-112619451D01*
X193005117Y-112619454D01*
X192956872Y-112670383D01*
X192954494Y-112672825D01*
X192522724Y-113104595D01*
X192460412Y-113138621D01*
X192433629Y-113141500D01*
X192325632Y-113141500D01*
X192257511Y-113121498D01*
X192211018Y-113067842D01*
X192200710Y-112999053D01*
X192201214Y-112995229D01*
X192208500Y-112939885D01*
X192208500Y-112939880D01*
X192213750Y-112900000D01*
X192209578Y-112868307D01*
X192208500Y-112851864D01*
X192208500Y-112731826D01*
X192216518Y-112687596D01*
X192219672Y-112679182D01*
X192226745Y-112660316D01*
X192233500Y-112598134D01*
X192233500Y-111801866D01*
X192226745Y-111739684D01*
X192175615Y-111603295D01*
X192088261Y-111486739D01*
X191971705Y-111399385D01*
X191835316Y-111348255D01*
X191773134Y-111341500D01*
X191426866Y-111341500D01*
X191364684Y-111348255D01*
X191364420Y-111345826D01*
X191335580Y-111345826D01*
X191335316Y-111348255D01*
X191276531Y-111341869D01*
X191273134Y-111341500D01*
X190926866Y-111341500D01*
X190864684Y-111348255D01*
X190864420Y-111345826D01*
X190835580Y-111345826D01*
X190835316Y-111348255D01*
X190776531Y-111341869D01*
X190773134Y-111341500D01*
X190426866Y-111341500D01*
X190364684Y-111348255D01*
X190364420Y-111345826D01*
X190335580Y-111345826D01*
X190335316Y-111348255D01*
X190276531Y-111341869D01*
X190273134Y-111341500D01*
X190129729Y-111341500D01*
X190061608Y-111321498D01*
X190015115Y-111267842D01*
X190003729Y-111215500D01*
X190003729Y-110299647D01*
X190005011Y-110281716D01*
X190006582Y-110270789D01*
X190008585Y-110271077D01*
X190028583Y-110212717D01*
X190084255Y-110168658D01*
X190154909Y-110161692D01*
X190207009Y-110184662D01*
X190228295Y-110200615D01*
X190364684Y-110251745D01*
X190426866Y-110258500D01*
X190773134Y-110258500D01*
X190835316Y-110251745D01*
X190835580Y-110254174D01*
X190864420Y-110254174D01*
X190864684Y-110251745D01*
X190926866Y-110258500D01*
X191273134Y-110258500D01*
X191335316Y-110251745D01*
X191335580Y-110254174D01*
X191364420Y-110254174D01*
X191364684Y-110251745D01*
X191426866Y-110258500D01*
X191773134Y-110258500D01*
X191835316Y-110251745D01*
X191971705Y-110200615D01*
X192088261Y-110113261D01*
X192175615Y-109996705D01*
X192226745Y-109860316D01*
X192233500Y-109798134D01*
X192233500Y-109157614D01*
X192247283Y-109100313D01*
X192312442Y-108972708D01*
X192312443Y-108972706D01*
X192315769Y-108966192D01*
X192322256Y-108939684D01*
X192355629Y-108803295D01*
X192357808Y-108794390D01*
X192358500Y-108783236D01*
X192358500Y-108276746D01*
X192378448Y-108208808D01*
X192379552Y-108207702D01*
X192397148Y-108179156D01*
X192465462Y-108068331D01*
X192465463Y-108068329D01*
X192469302Y-108062101D01*
X192523149Y-107899757D01*
X192533500Y-107798732D01*
X192533500Y-107628781D01*
X192553502Y-107560660D01*
X192607158Y-107514167D01*
X192659083Y-107502782D01*
X193376665Y-107500408D01*
X193444852Y-107520184D01*
G37*
%TD.AperFunction*%
%TD*%
M02*
